<?xml version="1.0" encoding="UTF-8"?>
<!-- Created with Inkscape (http://www.inkscape.org/) -->
<svg id="svg1" width="200px" height="200px" version="1.1" viewBox="0 0 200 200" xmlns="http://www.w3.org/2000/svg">
 <g id="Helper">
  <g id="texts" font-family="MyriadPro-Regular" font-size="12px">
   <text id="text2" x="-59.155037" y="47.773499">Picture 0</text>
   <text id="text4" x="-62.825836" y="147.8018">Picture 1</text>
   <text id="text6" x="33.62793" y="-3.2140937">Style 0</text>
   <text id="text8" x="121.82574" y="-3.2140937">Style 1</text>
   <text id="text14" y="10.503906"><tspan id="tspan10" x="201.478" y="-3.2140937">Style 2</tspan><tspan id="tspan12" x="234.561" y="-3.2140937"/></text>
   <text id="text16" x="286.74356" y="-3.2140937">Style 3</text>
   <text id="text18" x="26.464369" y="-22.125122">(Disabled)</text>
   <text id="text20" x="129.01077" y="-24.203121">(Off)</text>
   <text id="text22" x="212.28661" y="-20.288807">(On)</text>
   <text id="text24" x="271.05759" y="-25.360872">(Not available)</text>
  </g>
  <g id="background" fill="#1F1F1F" stroke="#b3b3b3" stroke-miterlimit="10" stroke-width="2">
   <path id="path31" d="m609.45 82.568c0 4.26-3.808 7.714-8.504 7.714h-592.44c-4.696 0-8.504-3.454-8.504-7.714v-74.572c0-4.26 3.808-7.714 8.504-7.714h592.44c4.696 0 8.504 3.454 8.504 7.714z"/>
   <path id="path38" d="m609.45 178.57c0 4.26-3.808 7.714-8.504 7.714h-592.44c-4.696 0-8.504-3.454-8.504-7.714v-74.572c0-4.261 3.808-7.714 8.504-7.714h592.44c4.696 0 8.504 3.453 8.504 7.714z"/>
   <path id="path45" d="m609.45 274.57c0 4.26-3.808 7.714-8.504 7.714h-592.44c-4.696 0-8.504-3.454-8.504-7.714v-74.572c0-4.261 3.808-7.714 8.504-7.714h592.44c4.696 0 8.504 3.453 8.504 7.714z"/>
   <path id="path52" d="m609.45 370.57c0 4.26-3.808 7.714-8.504 7.714h-592.44c-4.696 0-8.504-3.454-8.504-7.714v-74.572c0-4.261 3.808-7.714 8.504-7.714h592.44c4.696 0 8.504 3.453 8.504 7.714z"/>
   <path id="path59" d="m609.45 467.57c0 4.26-3.808 7.714-8.504 7.714h-592.44c-4.696 0-8.504-3.454-8.504-7.714v-74.572c0-4.261 3.808-7.714 8.504-7.714h592.44c4.696 0 8.504 3.453 8.504 7.714z"/>
   <path id="path66" d="m609.45 564.57c0 4.26-3.808 7.714-8.504 7.714h-592.44c-4.696 0-8.504-3.454-8.504-7.714v-74.572c0-4.261 3.808-7.714 8.504-7.714h592.44c4.696 0 8.504 3.453 8.504 7.714z"/>
   <path id="path73" d="m609.14 767.44c0 4.26-3.808 7.714-8.504 7.714h-592.44c-4.696 0-8.504-3.454-8.504-7.714v-74.572c0-4.261 3.808-7.714 8.504-7.714h592.44c4.696 0 8.504 3.453 8.504 7.714z"/>
   <path id="path80" d="m609.45 662.57c0 4.26-3.808 7.714-8.504 7.714h-592.44c-4.696 0-8.504-3.454-8.504-7.714v-74.572c0-4.261 3.808-7.714 8.504-7.714h592.44c4.696 0 8.504 3.453 8.504 7.714z"/>
   <path id="path1254" d="m609.45 872.57c0 4.26-3.808 7.714-8.504 7.714h-592.44c-4.696 0-8.504-3.454-8.504-7.714v-74.572c0-4.261 3.808-7.714 8.504-7.714h592.44c4.696 0 8.504 3.453 8.504 7.714z"/>
   <path id="path1579" d="m609.45 982.57c0 4.26-3.808 7.714-8.504 7.714h-592.44c-4.696 0-8.504-3.454-8.504-7.714v-74.572c0-4.261 3.808-7.714 8.504-7.714h592.44c4.696 0 8.504 3.453 8.504 7.714z"/>
   <path id="path1647" d="m609.45 1088.6c0 4.26-3.808 7.714-8.504 7.714h-592.44c-4.696 0-8.504-3.454-8.504-7.714v-74.572c0-4.261 3.808-7.714 8.504-7.714h592.44c4.696 0 8.504 3.453 8.504 7.714z"/>
   <path id="path1647-1" d="m609.45 1194.6c0 4.26-3.808 7.714-8.504 7.714h-592.44c-4.696 0-8.504-3.454-8.504-7.714v-74.572c0-4.261 3.808-7.714 8.504-7.714h592.44c4.696 0 8.504 3.453 8.504 7.714z"/>
   <path id="path1647-1-8" d="m609.45 1297.8c0 4.26-3.808 7.714-8.504 7.714h-592.44c-4.696 0-8.504-3.454-8.504-7.714v-74.572c0-4.261 3.808-7.714 8.504-7.714h592.44c4.696 0 8.504 3.453 8.504 7.714z"/>
   <path id="path1" d="m609.45 1397.5c0 4.26-3.808 7.714-8.504 7.714h-592.44c-4.696 0-8.504-3.454-8.504-7.714v-74.572c0-4.261 3.808-7.714 8.504-7.714h592.44c4.696 0 8.504 3.453 8.504 7.714z"/>
   <path id="path67" d="m609.45 1500.7c0 4.26-3.808 7.714-8.504 7.714h-592.44c-4.696 0-8.504-3.454-8.504-7.714v-74.572c0-4.261 3.808-7.714 8.504-7.714h592.44c4.696 0 8.504 3.453 8.504 7.714z"/>
   <path id="path67-8" d="m609.45 1604.5c0 4.26-3.808 7.714-8.504 7.714h-592.44c-4.696 0-8.504-3.454-8.504-7.714v-74.572c0-4.261 3.808-7.714 8.504-7.714h592.44c4.696 0 8.504 3.453 8.504 7.714z"/>
   <path id="path67-6" d="m610.86 1706.9c0 4.26-3.808 7.714-8.504 7.714h-592.44c-4.696 0-8.504-3.454-8.504-7.714v-74.572c0-4.261 3.808-7.714 8.504-7.714h592.44c4.696 0 8.504 3.453 8.504 7.714z"/>
  </g>
 </g>
 <g id="Layer1">
  <g id="cdpPicture0">
   <rect id="rect" x="16.989" y="6" width="71" height="71" fill="none"/>
   <g id="g6">
    <rect id="fill" x="17.482" y="6.4933" width="71" height="71" rx="35.5" fill="#FFFFFF" fill-opacity="0"/>
    <rect id="border" x="17.482" y="6.4933" width="71" height="71" rx="35.5" fill="none" stroke="#050505"/>
    <path id="standingMan_2_" d="m56.666 20.135c0 2.294-1.87 4.153-4.178 4.153s-4.179-1.859-4.179-4.153 1.871-4.153 4.179-4.153 4.178 1.859 4.178 4.153zm5.785 23.638v-13.733c0-2.824-2.302-5.112-5.143-5.112h-9.642c-2.84 0-5.143 2.289-5.143 5.112v13.738c0 0.971 0.792 1.758 1.769 1.758 0.976 0 1.767-0.787 1.767-1.758v-11.821c0-0.353 0.288-0.639 0.644-0.639 0.354 0 0.644 0.286 0.644 0.639v32.91c0 1.234 1.007 2.235 2.249 2.235 1.243 0 2.249-1.001 2.249-2.235v-19.172c0-0.353 0.288-0.639 0.644-0.639s0.644 0.286 0.644 0.639v19.171c0 1.234 1.007 2.235 2.249 2.235 1.243 0 2.249-1.001 2.249-2.235v-32.91c0-0.353 0.288-0.639 0.644-0.639 0.354 0 0.643 0.286 0.643 0.639v11.822c0 0.971 0.791 1.758 1.769 1.758 0.976 0 1.767-0.787 1.767-1.758-3e-3 -2e-3 -3e-3 -3e-3 -3e-3 -5e-3z" fill="#FFFFFF" fill-opacity=".2"/>
   </g>
  </g>
 </g>
 <g id="Styles">
  <g id="cdpPicture0Style1">
   <rect id="rect443" x="102.99" y="6.042" width="71" height="71" fill="none"/>
   <g id="g2">
    <rect id="fill_1" x="102.49" y="5.542" width="71" height="71" rx="35.5" fill="#E52626"/>
    <rect id="border_1" x="102.49" y="5.542" width="71" height="71" rx="35.5" fill="none" stroke="#050505"/>
    <path id="standingMan_2_-6-5" d="m142.67 20.135c0 2.294-1.87 4.153-4.178 4.153s-4.179-1.859-4.179-4.153 1.871-4.153 4.179-4.153 4.178 1.859 4.178 4.153zm5.785 23.638v-13.733c0-2.824-2.302-5.112-5.143-5.112h-9.642c-2.84 0-5.143 2.289-5.143 5.112v13.738c0 0.971 0.792 1.758 1.769 1.758 0.976 0 1.767-0.787 1.767-1.758v-11.821c0-0.353 0.288-0.639 0.644-0.639 0.354 0 0.644 0.286 0.644 0.639v32.91c0 1.234 1.007 2.235 2.249 2.235 1.243 0 2.249-1.001 2.249-2.235v-19.172c0-0.353 0.288-0.639 0.644-0.639s0.644 0.286 0.644 0.639v19.171c0 1.234 1.007 2.235 2.249 2.235 1.243 0 2.249-1.001 2.249-2.235v-32.91c0-0.353 0.288-0.639 0.644-0.639 0.354 0 0.643 0.286 0.643 0.639v11.822c0 0.971 0.791 1.758 1.769 1.758 0.976 0 1.767-0.787 1.767-1.758-3e-3 -2e-3 -3e-3 -3e-3 -3e-3 -5e-3z" fill="#FFFFFF" fill-opacity=".549"/>
   </g>
  </g>
  <g id="cdpPicture0Style2">
   <rect id="rect448" x="187.49" y="6" width="71" height="71" fill="none"/>
   <g id="g3">
    <rect id="fill_2" x="187.49" y="6" width="71" height="71" rx="35.5" fill="#138A00"/>
    <rect id="border_2" x="187.49" y="6" width="71" height="71" rx="35.5" fill="none" stroke="#050505"/>
    <g id="walkingMan_1_" fill="#F2F2F2" opacity=".85">
     <path id="head_1_" d="m224.51 24.442c2.351 0.188 4.386-1.547 4.577-3.875 0.182-2.329-1.564-4.353-3.916-4.55-2.324-0.172-4.378 1.564-4.551 3.892-0.199 2.311 1.548 4.351 3.89 4.533"/>
     <path id="body_1_" d="m220.91 26.177c0.837-0.584 1.854-0.971 2.988-0.872 1.456 0.115 2.647 1.012 3.377 2.106l4.286 8.45 5.852 4.006c0.497 0.378 0.812 0.996 0.745 1.67-0.083 1.045-1.002 1.826-2.053 1.735-0.322-0.016-0.587-0.147-0.877-0.279l-6.382-4.369c-0.198-0.156-0.355-0.353-0.488-0.559l-1.597-3.167-1.929 8.425 7.54 8.854c0.174 0.271 0.29 0.592 0.356 0.913l2.036 10.688c-0.018 0.239 0.017 0.388 0 0.576-0.116 1.597-1.507 2.748-3.088 2.633-1.316-0.106-2.284-1.069-2.59-2.262l-1.921-10.014-6.132-6.665-1.416 6.492c-0.05 0.304-0.455 0.945-0.571 1.201l-5.884 9.856c-0.579 0.897-1.565 1.473-2.683 1.383-1.597-0.116-2.781-1.498-2.648-3.077 0.033-0.444 0.224-0.913 0.39-1.235l5.463-9.107 4.56-20.075-2.979 2.394-1.58 7.15c-0.216 0.921-1.053 1.67-2.036 1.597-1.068-0.082-1.846-0.996-1.764-2.058 0-0.082 0.017-0.165 0.033-0.263l1.871-8.334c0.116-0.354 0.306-0.675 0.587-0.922z"/>
    </g>
   </g>
  </g>
  <g id="cdpPicture0Style3">
   <rect id="rect453" x="272.57" y="6.042" width="71" height="71" fill="none"/>
   <g id="g4">
    <path id="standingMan_2_-9" d="m312.25 20.135c0 2.294-1.87 4.153-4.178 4.153s-4.179-1.859-4.179-4.153 1.871-4.153 4.179-4.153 4.178 1.859 4.178 4.153zm5.785 23.638v-13.733c0-2.824-2.302-5.112-5.143-5.112h-9.642c-2.84 0-5.143 2.289-5.143 5.112v13.738c0 0.971 0.792 1.758 1.769 1.758 0.976 0 1.767-0.787 1.767-1.758v-11.821c0-0.353 0.288-0.639 0.644-0.639 0.354 0 0.644 0.286 0.644 0.639v32.91c0 1.234 1.007 2.235 2.249 2.235 1.243 0 2.249-1.001 2.249-2.235v-19.172c0-0.353 0.288-0.639 0.644-0.639s0.644 0.286 0.644 0.639v19.171c0 1.234 1.007 2.235 2.249 2.235 1.243 0 2.249-1.001 2.249-2.235v-32.91c0-0.353 0.288-0.639 0.644-0.639 0.354 0 0.643 0.286 0.643 0.639v11.822c0 0.971 0.791 1.758 1.769 1.758 0.976 0 1.767-0.787 1.767-1.758-3e-3 -2e-3 -3e-3 -3e-3 -3e-3 -5e-3z" fill="#FFFFFF" fill-opacity=".2"/>
    <rect id="fill_3" x="272.57" y="6.042" width="71" height="71" rx="35.5" fill="#FFFFFF" fill-opacity="0"/>
    <rect id="border_3" x="272.57" y="6.042" width="71" height="71" rx="35.5" fill="none" stroke="#050505"/>
   </g>
  </g>
 </g>
</svg>
