<?xml version="1.0" encoding="UTF-8"?>
<!-- Generator: Adobe Illustrator 15.0.0, SVG Export Plug-In . SVG Version: 6.00 Build 0)  -->
<svg id="svg" width="71px" height="71px" enable-background="new 0 0 71 71" version="1.1" viewBox="0 0 71 71" xml:space="preserve" xmlns="http://www.w3.org/2000/svg" xmlns:cc="http://creativecommons.org/ns#" xmlns:dc="http://purl.org/dc/elements/1.1/" xmlns:rdf="http://www.w3.org/1999/02/22-rdf-syntax-ns#"><metadata id="metadata270"><rdf:RDF><cc:Work rdf:about=""><dc:format>image/svg+xml</dc:format><dc:type rdf:resource="http://purl.org/dc/dcmitype/StillImage"/></cc:Work></rdf:RDF></metadata><g id="Helper">
	<text id="text4" transform="translate(-84 36.491)" font-family="MyriadPro-Regular" font-size="12px" style="line-height:0%">Picture 0</text>




	<text id="text6" transform="translate(21.027 -23.5)" font-family="MyriadPro-Regular" font-size="12px" style="line-height:0%">Style 0</text>




	<text id="text8" transform="translate(104.52 -23.5)" font-family="MyriadPro-Regular" font-size="12px" style="line-height:0%">Style 1</text>




	<text id="text10" transform="translate(187.02 -23.5)" font-family="MyriadPro-Regular" font-size="12px" style="line-height:0%"><tspan id="tspan12" x="0" y="0">Style 2</tspan><tspan id="tspan14" x="33.083" y="0">	</tspan></text>




	<text id="text16" transform="translate(272.02 -23.5)" font-family="MyriadPro-Regular" font-size="12px" style="line-height:0%">Style 3</text>




	<text id="text18" transform="translate(12.666 -40.166)" font-family="MyriadPro-Regular" font-size="12px" style="line-height:0%">(Disabled)</text>




	<text id="text20" transform="translate(109.17 -40.166)" font-family="MyriadPro-Regular" font-size="12px" style="line-height:0%">(Off)</text>




	<text id="text22" transform="translate(194.17 -40.166)" font-family="MyriadPro-Regular" font-size="12px" style="line-height:0%">(On)</text>




	<text id="text24" transform="translate(253.58 -40.166)" font-family="MyriadPro-Regular" font-size="12px" style="line-height:0%">(Not available)</text>




	<linearGradient id="back_1_" x1="290.26" x2="290.26" y1="80.5" y2="-9.4995" gradientUnits="userSpaceOnUse">
		<stop id="stop27" stop-color="#242729" offset=".2117"/>
		<stop id="stop29" stop-color="#3A3D3E" offset=".7932"/>
	</linearGradient>
	<path id="back" d="m594.99 72.786c0 4.26-3.808 7.714-8.504 7.714h-592.44c-4.696 0-8.504-3.454-8.504-7.714v-74.572c0-4.26 3.808-7.714 8.504-7.714h592.44c4.696 0 8.504 3.454 8.504 7.714v74.572z" fill="url(#back_1_)" stroke="#B3B3B3" stroke-miterlimit="10" stroke-width="2"/>
</g>


<g id="Layer1"><g id="cdpPicture0"><rect id="rect" width="71" height="71" fill="none"/><path id="windSausage" d="m20.688 9.4062c-0.85952 0.0065-1.6349 0.79677-1.625 1.6562v47.094c0 0.85903 0.7816 1.6406 1.6406 1.6406s1.6406-0.78159 1.6406-1.6406v-43.188l4 7.2188c0.45461 1.1412 1.0299 1.7198 1.9375 2.1562 7.179 3.7278 14.082 7.2384 21.531 11.062l0.125 0.0937c0.70962 0.54708 1.6977 0.70892 2.75 0.375 2.5387-0.80563 4.7247-3.7646 5.25-6.7812 0.26267-1.5083 0.04313-2.801-0.65625-3.6562-0.32128-0.39289-0.73274-0.69747-1.2188-0.84375-6.6346-4.3926-13.965-9.2789-20.188-13.406-0.03979-0.02434-0.08165-0.04528-0.125-0.0625-0.0362-0.05783-0.07826-0.11041-0.125-0.15625-0.44744-0.26021-0.94987-0.39026-1.4688-0.40625-0.17296-0.0053-0.32272 0.01249-0.5 0.03125h-11.375c-0.19556-0.68452-0.8819-1.1959-1.5938-1.1875zm2.0312 2.8438h7.4688c-0.92968 0.78056-1.7912 1.7908-2.5 3-0.6878 1.1733-1.1404 2.3496-1.375 3.5zm17.969 4.6875c0.42078-0.0437 0.80407 0.0321 1.125 0.21875 0.0038 2e-3 0.02742-2e-3 0.03125 0 0.04075 0.0149 0.08264 0.0255 0.125 0.0312l6.0625 4.0312c-0.20818 0.0859-0.42147 0.16601-0.625 0.28125-1.2138 0.68725-2.3696 1.8732-3.25 3.375s-1.3395 3.0768-1.3438 4.4688c-7.17e-4 0.23198 0.03599 0.46592 0.0625 0.6875l-6.625-3.4062c-0.64186-0.37328-1.0035-1.1465-1-2.2812s0.41269-2.5624 1.2188-3.9375 1.8523-2.4386 2.8438-3c0.49573-0.28069 0.95422-0.42501 1.375-0.46875zm14.219 9.25c0.16756-0.0136 0.33157-2e-3 0.46875 0.0312 0.12338 0.0296 0.24298 0.0587 0.34375 0.125 0.01127 7e-3 0.02022 0.0234 0.03125 0.0312 0.10963 0.0776 0.1911 0.20226 0.28125 0.3125 0.36061 0.44099 0.57155 1.2463 0.375 2.375-0.39311 2.2574-2.3228 4.6438-3.9375 5.1562-0.80725 0.25617-1.3269 0.0971-1.6875-0.34375-0.35358-0.43228-0.55255-1.2185-0.375-2.3125 6.11e-4 -0.0208 6.11e-4 -0.0417 0-0.0625 0.01188-0.0305 0.02232-0.0619 0.03125-0.0937 0.42365-2.2341 2.3105-4.5874 3.9062-5.0938 0.20184-0.064 0.39494-0.11135 0.5625-0.125z" color="#000000" enable-background="accumulate" fill="#FFFFFF" fill-opacity=".2" style="block-progression:tb;text-indent:0;text-transform:none"/></g></g><g id="Styles"><g id="cdpPicture0Style2"><rect id="rect141" x="170.5" width="71" height="71" fill="none"/><g id="g177"><circle id="ellipse190" cx="206" cy="35.5" r="35.5" fill="#138A00" stroke-width="1.1111"/><path id="windSausage_1" d="m191.8 9.4062c-0.85952 0.0065-1.6349 0.79677-1.625 1.6562v47.094c0 0.85903 0.7816 1.6406 1.6406 1.6406 0.85902 0 1.6406-0.78159 1.6406-1.6406v-43.188l4 7.2188c0.45461 1.1412 1.0299 1.7198 1.9375 2.1562 7.179 3.7278 14.082 7.2384 21.531 11.062l0.125 0.0937c0.70962 0.54708 1.6977 0.70892 2.75 0.375 2.5387-0.80563 4.7247-3.7646 5.25-6.7812 0.26267-1.5083 0.0431-2.801-0.65625-3.6562-0.32128-0.39289-0.73274-0.69747-1.2188-0.84375-6.6346-4.3926-13.965-9.2789-20.188-13.406-0.0398-0.02434-0.0816-0.04528-0.125-0.0625-0.0362-0.05783-0.0783-0.11041-0.125-0.15625-0.44744-0.26021-0.94987-0.39026-1.4688-0.40625-0.17296-0.0053-0.32272 0.01249-0.5 0.03125h-11.375c-0.19556-0.68452-0.88189-1.1959-1.5938-1.1875zm2.0312 2.8438h7.4688c-0.92969 0.78056-1.7912 1.7908-2.5 3-0.6878 1.1733-1.1404 2.3496-1.375 3.5zm17.969 4.6875c0.42078-0.0437 0.80407 0.0321 1.125 0.21875 4e-3 2e-3 0.0274-2e-3 0.0312 0 0.0408 0.0149 0.0826 0.0255 0.125 0.0312l6.0625 4.0312c-0.20818 0.0859-0.42147 0.16601-0.625 0.28125-1.2138 0.68725-2.3696 1.8732-3.25 3.375s-1.3395 3.0768-1.3438 4.4688c-7.2e-4 0.23198 0.036 0.46592 0.0625 0.6875l-6.625-3.4062c-0.64186-0.37328-1.0035-1.1465-1-2.2812 4e-3 -1.1347 0.41269-2.5624 1.2188-3.9375s1.8523-2.4386 2.8438-3c0.49573-0.28069 0.95422-0.42501 1.375-0.46875zm14.219 9.25c0.16756-0.0136 0.33157-2e-3 0.46875 0.0312 0.12338 0.0296 0.24298 0.0587 0.34375 0.125 0.0113 7e-3 0.0202 0.0234 0.0312 0.0312 0.10963 0.0776 0.1911 0.20226 0.28125 0.3125 0.36061 0.44099 0.57155 1.2463 0.375 2.375-0.39311 2.2574-2.3228 4.6438-3.9375 5.1562-0.80725 0.25617-1.3269 0.0971-1.6875-0.34375-0.35358-0.43228-0.55255-1.2185-0.375-2.3125 6.1e-4 -0.0208 6.1e-4 -0.0417 0-0.0625 0.0119-0.0305 0.0223-0.0619 0.0312-0.0937 0.42365-2.2341 2.3105-4.5874 3.9062-5.0938 0.20184-0.064 0.39494-0.11135 0.5625-0.125z" color="#000000" enable-background="accumulate" fill="#FFFFFF" style="text-indent:0;text-transform:none"/></g></g><g id="cdpPicture0Style1"><rect id="rect204" x="85.692" width="71" height="71" fill="none"/><g id="background_3_">
			
			<circle id="ellipse212" cx="121.19" cy="35.5" r="35.5" fill="#E52626" stroke-width="1.0008"/>
			
			
			
		<path id="windSausage_2" d="m107.14 9.4062c-0.85952 0.0065-1.6349 0.79677-1.625 1.6562v47.094c0 0.85903 0.7816 1.6406 1.6406 1.6406 0.85902 0 1.6406-0.78159 1.6406-1.6406v-43.188l4 7.2188c0.45461 1.1412 1.0299 1.7198 1.9375 2.1562 7.179 3.7278 14.082 7.2384 21.531 11.062l0.125 0.0937c0.70962 0.54708 1.6977 0.70892 2.75 0.375 2.5387-0.80563 4.7247-3.7646 5.25-6.7812 0.26267-1.5083 0.0431-2.801-0.65625-3.6562-0.32128-0.39289-0.73274-0.69747-1.2188-0.84375-6.6346-4.3926-13.965-9.2789-20.188-13.406-0.0398-0.02434-0.0816-0.04528-0.125-0.0625-0.0362-0.05783-0.0783-0.11041-0.125-0.15625-0.44744-0.26021-0.94987-0.39026-1.4688-0.40625-0.17296-0.0053-0.32272 0.01249-0.5 0.03125h-11.375c-0.19556-0.68452-0.88189-1.1959-1.5938-1.1875zm2.0312 2.8438h7.4688c-0.92969 0.78056-1.7912 1.7908-2.5 3-0.6878 1.1733-1.1404 2.3496-1.375 3.5zm17.969 4.6875c0.42078-0.0437 0.80407 0.0321 1.125 0.21875 4e-3 2e-3 0.0274-2e-3 0.0312 0 0.0408 0.0149 0.0826 0.0255 0.125 0.0312l6.0625 4.0312c-0.20818 0.0859-0.42147 0.16601-0.625 0.28125-1.2138 0.68725-2.3696 1.8732-3.25 3.375s-1.3395 3.0768-1.3438 4.4688c-7.2e-4 0.23198 0.036 0.46592 0.0625 0.6875l-6.625-3.4062c-0.64186-0.37328-1.0035-1.1465-1-2.2812 4e-3 -1.1347 0.41269-2.5624 1.2188-3.9375s1.8523-2.4386 2.8438-3c0.49573-0.28069 0.95422-0.42501 1.375-0.46875zm14.219 9.25c0.16756-0.0136 0.33157-2e-3 0.46875 0.0312 0.12338 0.0296 0.24298 0.0587 0.34375 0.125 0.0113 7e-3 0.0202 0.0234 0.0312 0.0312 0.10963 0.0776 0.1911 0.20226 0.28125 0.3125 0.36061 0.44099 0.57155 1.2463 0.375 2.375-0.39311 2.2574-2.3228 4.6438-3.9375 5.1562-0.80725 0.25617-1.3269 0.0971-1.6875-0.34375-0.35358-0.43228-0.55255-1.2185-0.375-2.3125 6.1e-4 -0.0208 6.1e-4 -0.0417 0-0.0625 0.0119-0.0305 0.0223-0.0619 0.0312-0.0937 0.42365-2.2341 2.3105-4.5874 3.9062-5.0938 0.20184-0.064 0.39494-0.11135 0.5625-0.125z" color="#000000" enable-background="accumulate" fill="#FFFFFF" style="text-indent:0;text-transform:none"/></g></g></g></svg>
