<?xml version="1.0" encoding="utf-8"?>
<!-- Generator: Adobe Illustrator 21.0.2, SVG Export Plug-In . SVG Version: 6.00 Build 0)  -->
<svg version="1.1" id="svg" xmlns="http://www.w3.org/2000/svg" xmlns:xlink="http://www.w3.org/1999/xlink" x="0px" y="0px"
	 viewBox="0 0 100 300" enable-background="new 0 0 100 300" xml:space="preserve">
<g id="Helper">
	<rect fill="#2B2C2E" width="100" height="300"/>
	<g id="numbers" display="none">
		<text transform="matrix(1 0 0 1 7.7852 164.5)" display="inline" fill="#4A4A4A" font-family="'ArialMT'" font-size="8px">-1000</text>
		<text transform="matrix(1 0 0 1 5.4102 15.5)" display="inline" fill="#4A4A4A" font-family="'ArialMT'" font-size="8px">10000</text>
		<text transform="matrix(1 0 0 1 10.3047 90.5)" display="inline" fill="#4A4A4A" font-family="'ArialMT'" font-size="8px">4500</text>
		<text transform="matrix(1 0 0 1 14.7383 150.5)" display="inline" fill="#4A4A4A" font-family="'ArialMT'" font-size="8px">100</text>
		<text transform="matrix(1 0 0 1 10.3047 135.5)" display="inline" fill="#4A4A4A" font-family="'ArialMT'" font-size="8px">1200</text>
		<text transform="matrix(1 0 0 1 10.3047 120.5)" display="inline" fill="#4A4A4A" font-family="'ArialMT'" font-size="8px">2300</text>
		<text transform="matrix(1 0 0 1 10.3047 105.5)" display="inline" fill="#4A4A4A" font-family="'ArialMT'" font-size="8px">3400</text>
		<text transform="matrix(1 0 0 1 10.3047 75.5)" display="inline" fill="#4A4A4A" font-family="'ArialMT'" font-size="8px">5600</text>
		<text transform="matrix(1 0 0 1 10.3047 60.5)" display="inline" fill="#4A4A4A" font-family="'ArialMT'" font-size="8px">6700</text>
		<text transform="matrix(1 0 0 1 10.3047 45.5)" display="inline" fill="#4A4A4A" font-family="'ArialMT'" font-size="8px">7800</text>
		<text transform="matrix(1 0 0 1 10.3047 30.5)" display="inline" fill="#4A4A4A" font-family="'ArialMT'" font-size="8px">8900</text>
	</g>
</g>
<g id="Styles">
	<g id="cdpBarFillStyle1">
		<rect x="128.1" y="-3.8" fill="#189C00" width="19" height="70"/>
		<rect x="128.1" y="-5.8" fill="#FFFFFF" width="19" height="2"/>
		<rect id="rect" x="128.1" y="-5.8" fill="none" width="19" height="72"/>
	</g>
	<g id="cdpBarFillStyle3">
		<rect x="203.1" y="-5.8" fill="#666666" width="19" height="72"/>
		<rect x="203.1" y="-5.8" fill="#FFFFFF" width="19" height="2"/>
	</g>
	<g id="cdpBarFillStyle2">
		<rect x="228.1" y="-5.8" fill="#009ED6" width="19" height="72"/>
		<rect x="228.1" y="-5.8" fill="#FFFFFF" width="19" height="2"/>
	</g>
	<g id="cdpBarFillStyle4">
		<rect x="153.1" y="-5.8" fill="#E8392E" width="19" height="72"/>
		<rect x="153.1" y="-5.8" fill="#FFFFFF" width="19" height="2"/>
	</g>
	<g id="cdpBarFillStyle5">
		<rect x="178.1" y="-5.8" fill="#F6A623" width="19" height="72"/>
		<rect x="178.1" y="-5.8" fill="#FFFFFF" width="19" height="2"/>
	</g>
</g>
<g id="Layer1">
	<rect id="cdpBarBack" x="70" y="10" opacity="0.8" fill="#282828" width="8" height="280"/>
	<g id="cdpBarFill">
		<rect x="70.1" y="110" fill="#C8C8C8" width="8" height="180"/>
		<rect x="70" y="110" fill="none" width="8" height="180"/>
	</g>
	<g id="cdpTicksNumber">
		<text transform="matrix(0.9958 0 0 1 7 39)" fill="#CACACB" font-family="'ArialMT'" font-size="10px">8900</text>
	</g>
	<g id="cdpTicksColor">
		<text transform="matrix(0.9958 0 0 1 7 20)" fill="#606162" font-family="'ArialMT'" font-size="10px">ticks</text>
	</g>
</g>
</svg>
