<?xml version="1.0" encoding="utf-8"?>
<!-- Generator: Adobe Illustrator 21.0.2, SVG Export Plug-In . SVG Version: 6.00 Build 0)  -->
<svg version="1.1" id="svg" xmlns="http://www.w3.org/2000/svg" xmlns:xlink="http://www.w3.org/1999/xlink" x="0px" y="0px"
	 viewBox="0 0 128 113" style="enable-background:new 0 0 128 113;" xml:space="preserve">
<style type="text/css">
	.st0{fill:none;}
	.st1{fill:url(#SVGID_1_);}
	.st2{fill:url(#SVGID_2_);}
	.st3{fill:url(#SVGID_3_);}
	.st4{fill:url(#SVGID_4_);}
	.st5{fill:url(#SVGID_5_);}
	.st6{fill:url(#SVGID_6_);}
	.st7{display:none;}
	.st8{display:inline;fill:none;}
	.st9{display:inline;fill:url(#SVGID_7_);}
	.st10{display:inline;}
	.st11{fill:url(#SVGID_8_);}
	.st12{fill:url(#SVGID_9_);}
	.st13{fill:url(#SVGID_10_);}
	.st14{display:none;fill:url(#SVGID_11_);}
	.st15{fill:url(#SVGID_12_);}
	.st16{display:inline;fill:url(#SVGID_13_);}
	.st17{fill:url(#SVGID_14_);}
	.st18{fill:url(#SVGID_15_);}
	.st19{fill:url(#SVGID_16_);}
</style>
<rect width="128" height="113"/>
<g id="Layer1">
	<g id="cdpBackground">
		<rect class="st0" width="128" height="113"/>
		
			<linearGradient id="SVGID_1_" gradientUnits="userSpaceOnUse" x1="64" y1="678" x2="64" y2="791" gradientTransform="matrix(1 0 0 1 0 -678)">
			<stop  offset="0" style="stop-color:#B0B0B0"/>
			<stop  offset="1" style="stop-color:#8D8D8D"/>
		</linearGradient>
		<path class="st1" d="M124,0H4C1.8,0,0,1.8,0,4v105c0,2.2,1.8,4,4,4h120c2.2,0,4-1.8,4-4V4C128,1.8,126.2,0,124,0z M124,105
			c0,2.2-1.8,4-4,4H8c-2.2,0-4-1.8-4-4V8c0-2.2,1.8-4,4-4h112c2.2,0,4,1.8,4,4V105z"/>
	</g>
</g>
<g id="Styles">
	<g id="cdpBackgroundStyle1">
		<rect class="st0" width="128" height="113"/>
		
			<linearGradient id="SVGID_2_" gradientUnits="userSpaceOnUse" x1="64" y1="678" x2="64" y2="791" gradientTransform="matrix(1 0 0 1 0 -678)">
			<stop  offset="0" style="stop-color:#B0B0B0"/>
			<stop  offset="1" style="stop-color:#8D8D8D"/>
		</linearGradient>
		<path class="st2" d="M124,0H4C1.8,0,0,1.8,0,4v105c0,2.2,1.8,4,4,4h120c2.2,0,4-1.8,4-4V4C128,1.8,126.2,0,124,0z M124,105
			c0,2.2-1.8,4-4,4H8c-2.2,0-4-1.8-4-4V8c0-2.2,1.8-4,4-4h112c2.2,0,4,1.8,4,4V105z"/>
	</g>
	<g id="cdpBackgroundStyle2">
		<rect class="st0" width="128" height="113"/>
		
			<linearGradient id="SVGID_3_" gradientUnits="userSpaceOnUse" x1="64" y1="678" x2="64" y2="791" gradientTransform="matrix(1 0 0 1 0 -678)">
			<stop  offset="0" style="stop-color:#91CB74"/>
			<stop  offset="1" style="stop-color:#63B13B"/>
		</linearGradient>
		<path class="st3" d="M124,0H4C1.8,0,0,1.8,0,4v105c0,2.2,1.8,4,4,4h120c2.2,0,4-1.8,4-4V4C128,1.8,126.2,0,124,0z M124,105
			c0,2.2-1.8,4-4,4H8c-2.2,0-4-1.8-4-4V8c0-2.2,1.8-4,4-4h112c2.2,0,4,1.8,4,4V105z"/>
	</g>
	<g id="cdpBackgroundStyle3">
		<rect class="st0" width="128" height="113"/>
		
			<linearGradient id="SVGID_4_" gradientUnits="userSpaceOnUse" x1="64" y1="678" x2="64" y2="791" gradientTransform="matrix(1 0 0 1 0 -678)">
			<stop  offset="0" style="stop-color:#FBAB2C"/>
			<stop  offset="1" style="stop-color:#C67D24"/>
			<stop  offset="1" style="stop-color:#D27D28"/>
		</linearGradient>
		<path class="st4" d="M124,0H4C1.8,0,0,1.8,0,4v105c0,2.2,1.8,4,4,4h120c2.2,0,4-1.8,4-4V4C128,1.8,126.2,0,124,0z M124,105
			c0,2.2-1.8,4-4,4H8c-2.2,0-4-1.8-4-4V8c0-2.2,1.8-4,4-4h112c2.2,0,4,1.8,4,4V105z"/>
	</g>
	<g id="cdpBackgroundStyle4">
		<rect class="st0" width="128" height="113"/>
		
			<linearGradient id="SVGID_5_" gradientUnits="userSpaceOnUse" x1="64" y1="678" x2="64" y2="791" gradientTransform="matrix(1 0 0 1 0 -678)">
			<stop  offset="0" style="stop-color:#D70F0F"/>
			<stop  offset="1" style="stop-color:#8D0E0E"/>
		</linearGradient>
		<path class="st5" d="M124,0H4C1.8,0,0,1.8,0,4v105c0,2.2,1.8,4,4,4h120c2.2,0,4-1.8,4-4V4C128,1.8,126.2,0,124,0z M124,105
			c0,2.2-1.8,4-4,4H8c-2.2,0-4-1.8-4-4V8c0-2.2,1.8-4,4-4h112c2.2,0,4,1.8,4,4V105z"/>
	</g>
	<g id="cdpBackgroundStyle5">
		<rect class="st0" width="128" height="113"/>
		
			<linearGradient id="SVGID_6_" gradientUnits="userSpaceOnUse" x1="64" y1="678" x2="64" y2="791" gradientTransform="matrix(1 0 0 1 0 -678)">
			<stop  offset="0" style="stop-color:#2AA3FF"/>
			<stop  offset="1" style="stop-color:#0077E9"/>
		</linearGradient>
		<path class="st6" d="M124,0H4C1.8,0,0,1.8,0,4v105c0,2.2,1.8,4,4,4h120c2.2,0,4-1.8,4-4V4C128,1.8,126.2,0,124,0z M124,105
			c0,2.2-1.8,4-4,4H8c-2.2,0-4-1.8-4-4V8c0-2.2,1.8-4,4-4h112c2.2,0,4,1.8,4,4V105z"/>
	</g>
</g>
<g id="Backup">
	<g id="_x5F_cdpBackgroundStyle3_1_" class="st7">
		<rect class="st8" width="128" height="113"/>
		
			<linearGradient id="SVGID_7_" gradientUnits="userSpaceOnUse" x1="64" y1="678" x2="64" y2="791" gradientTransform="matrix(1 0 0 1 0 -678)">
			<stop  offset="0" style="stop-color:#E7A800"/>
			<stop  offset="1" style="stop-color:#F2F075"/>
		</linearGradient>
		<path class="st9" d="M124,0H4C1.8,0,0,1.8,0,4v105c0,2.2,1.8,4,4,4h120c2.2,0,4-1.8,4-4V4C128,1.8,126.2,0,124,0z M124,105
			c0,2.2-1.8,4-4,4H8c-2.2,0-4-1.8-4-4V8c0-2.2,1.8-4,4-4h112c2.2,0,4,1.8,4,4V105z"/>
	</g>
	<g id="_x5F_cdpBackgroundStyle1" class="st7">
		<rect class="st8" width="128" height="113"/>
		<g class="st10">
			
				<linearGradient id="SVGID_8_" gradientUnits="userSpaceOnUse" x1="64" y1="678" x2="64" y2="791" gradientTransform="matrix(1 0 0 1 0 -678)">
				<stop  offset="0" style="stop-color:#91CB74"/>
				<stop  offset="1" style="stop-color:#63B13B"/>
			</linearGradient>
			<path class="st11" d="M0,109c0,2.2,1.8,4,4,4h120c2.2,0,4-1.8,4-4V4c0-2.2-1.8-4-4-4H4C1.8,0,0,1.8,0,4V109z"/>
		</g>
	</g>
	<g id="_x5F_cdpBackgroundStyle3" class="st7">
		<rect class="st8" width="128" height="113"/>
		<g class="st10">
			
				<linearGradient id="SVGID_9_" gradientUnits="userSpaceOnUse" x1="64" y1="678" x2="64" y2="791" gradientTransform="matrix(1 0 0 1 0 -678)">
				<stop  offset="0" style="stop-color:#D70F0F"/>
				<stop  offset="1" style="stop-color:#8D0E0E"/>
			</linearGradient>
			<path class="st12" d="M124,0H4C1.8,0,0,1.8,0,4v105c0,2.2,1.8,4,4,4h120c2.2,0,4-1.8,4-4V4C128,1.8,126.2,0,124,0z M121,102
				c0,2.2-1.8,4-4,4H11c-2.2,0-4-1.8-4-4V11c0-2.2,1.8-4,4-4h106c2.2,0,4,1.8,4,4V102z"/>
			
				<linearGradient id="SVGID_10_" gradientUnits="userSpaceOnUse" x1="64" y1="685" x2="64" y2="784" gradientTransform="matrix(1 0 0 1 0 -678)">
				<stop  offset="0" style="stop-color:#B0B0B0"/>
				<stop  offset="1" style="stop-color:#8D8D8D"/>
			</linearGradient>
			<path class="st13" d="M117,7H11c-2.2,0-4,1.8-4,4v91c0,2.2,1.8,4,4,4h106c2.2,0,4-1.8,4-4V11C121,8.8,119.2,7,117,7z"/>
			
				<linearGradient id="SVGID_11_" gradientUnits="userSpaceOnUse" x1="64" y1="678" x2="64" y2="791" gradientTransform="matrix(1 0 0 1 0 -678)">
				<stop  offset="0" style="stop-color:#D70F0F"/>
				<stop  offset="1" style="stop-color:#8D0E0E"/>
			</linearGradient>
			<path class="st14" d="M117,7H11c-2.2,0-4,1.8-4,4v91c0,2.2,1.8,4,4,4h106c2.2,0,4-1.8,4-4V11C121,8.8,119.2,7,117,7z"/>
		</g>
	</g>
	<g id="_x5F_cdpBackgroundStyle2" class="st7">
		<rect class="st8" width="128" height="113"/>
		<g class="st10">
			
				<linearGradient id="SVGID_12_" gradientUnits="userSpaceOnUse" x1="64" y1="678" x2="64" y2="791" gradientTransform="matrix(1 0 0 1 0 -678)">
				<stop  offset="0" style="stop-color:#D70F0F"/>
				<stop  offset="1" style="stop-color:#8D0E0E"/>
			</linearGradient>
			<path class="st15" d="M0,109c0,2.2,1.8,4,4,4h120c2.2,0,4-1.8,4-4V4c0-2.2-1.8-4-4-4H4C1.8,0,0,1.8,0,4V109z"/>
		</g>
	</g>
	<g id="_x5F_cdpBackgroundStyle4" class="st7">
		<rect class="st8" width="128" height="113"/>
		
			<linearGradient id="SVGID_13_" gradientUnits="userSpaceOnUse" x1="64" y1="678" x2="64" y2="791" gradientTransform="matrix(1 0 0 1 0 -678)">
			<stop  offset="0" style="stop-color:#D70F0F"/>
			<stop  offset="1" style="stop-color:#8D0E0E"/>
		</linearGradient>
		<path class="st16" d="M124,0H4C1.8,0,0,1.8,0,4v105c0,2.2,1.8,4,4,4h120c2.2,0,4-1.8,4-4V4C128,1.8,126.2,0,124,0z M123,104
			c0,2.2-1.8,4-4,4H9c-2.2,0-4-1.8-4-4V9c0-2.2,1.8-4,4-4h110c2.2,0,4,1.8,4,4V104z"/>
	</g>
	<g id="BackgroundStyle" class="st7">
		<rect class="st8" width="128" height="113"/>
		<g class="st10">
			
				<linearGradient id="SVGID_14_" gradientUnits="userSpaceOnUse" x1="64" y1="678" x2="64" y2="791" gradientTransform="matrix(1 0 0 1 0 -678)">
				<stop  offset="0" style="stop-color:#D70F0F"/>
				<stop  offset="1" style="stop-color:#8D0E0E"/>
			</linearGradient>
			<path class="st17" d="M0,109c0,2.2,1.8,4,4,4h120c2.2,0,4-1.8,4-4V4c0-2.2-1.8-4-4-4H4C1.8,0,0,1.8,0,4V109z"/>
		</g>
		<g class="st10">
			
				<linearGradient id="SVGID_15_" gradientUnits="userSpaceOnUse" x1="64" y1="683" x2="64" y2="786" gradientTransform="matrix(1 0 0 1 0 -678)">
				<stop  offset="0" style="stop-color:#B0B0B0"/>
				<stop  offset="1" style="stop-color:#8D8D8D"/>
			</linearGradient>
			<path class="st18" d="M5,104c0,2.2,1.8,4,4,4h110c2.2,0,4-1.8,4-4V9c0-2.2-1.8-4-4-4H9C6.8,5,5,6.8,5,9V104z"/>
		</g>
	</g>
	<g id="_x5F_cdpBackground" class="st7">
		<rect class="st8" width="128" height="113"/>
		<g class="st10">
			
				<linearGradient id="SVGID_16_" gradientUnits="userSpaceOnUse" x1="64" y1="678" x2="64" y2="791" gradientTransform="matrix(1 0 0 1 0 -678)">
				<stop  offset="0" style="stop-color:#B0B0B0"/>
				<stop  offset="1" style="stop-color:#8D8D8D"/>
			</linearGradient>
			<path class="st19" d="M0,109c0,2.2,1.8,4,4,4h120c2.2,0,4-1.8,4-4V4c0-2.2-1.8-4-4-4H4C1.8,0,0,1.8,0,4V109z"/>
		</g>
	</g>
</g>
</svg>
