<?xml version="1.0" encoding="utf-8"?>
<!-- Generator: Adobe Illustrator 21.0.0, SVG Export Plug-In . SVG Version: 6.00 Build 0)  -->
<svg version="1.1" id="svg" xmlns="http://www.w3.org/2000/svg" xmlns:xlink="http://www.w3.org/1999/xlink" x="0px" y="0px"
	 viewBox="0 0 80 80" enable-background="new 0 0 80 80" xml:space="preserve">
<g id="Layer1">
	<g id="back" display="none">
		
			<linearGradient id="SVGID_1_" gradientUnits="userSpaceOnUse" x1="46.7146" y1="122.7854" x2="699.2858" y2="-529.7858" gradientTransform="matrix(1 0 0 -1 0 81)">
			<stop  offset="0" style="stop-color:#363C3C"/>
			<stop  offset="1" style="stop-color:#2E3436"/>
		</linearGradient>
		<path display="inline" fill="url(#SVGID_1_)" d="M748,560c0,2.8-2.2,5-5,5H3c-2.8,0-5-2.2-5-5V9c0-2.8,2.2-5,5-5h740
			c2.8,0,5,2.2,5,5V560z"/>
		<path display="inline" fill="none" stroke="#0F0F0F" stroke-width="3" stroke-miterlimit="10" d="M747.5,560.5c0,2.8-2.2,5-5,5
			H2.5c-2.8,0-5-2.2-5-5V9.5c0-2.8,2.2-5,5-5h740c2.8,0,5,2.2,5,5V560.5z"/>
	</g>
	<g id="cdpBackground">
		<rect fill="none" width="80" height="80"/>
		<g>
			<path fill="#0A0A0A" d="M40,2.5c20.7,0,37.5,16.8,37.5,37.5S60.7,77.5,40,77.5C19.3,77.5,2.5,60.7,2.5,40S19.3,2.5,40,2.5"/>
			
				<linearGradient id="sunkenCircle_2_" gradientUnits="userSpaceOnUse" x1="20.0213" y1="60.9791" x2="59.9794" y2="21.021" gradientTransform="matrix(1 0 0 -1 0 81)">
				<stop  offset="0" style="stop-color:#1D2021"/>
				<stop  offset="0.4337" style="stop-color:#1D2021"/>
				<stop  offset="0.6684" style="stop-color:#565B5D"/>
				<stop  offset="1" style="stop-color:#565B5D"/>
			</linearGradient>
			<path id="sunkenCircle" fill="url(#sunkenCircle_2_)" d="M80,40C80,17.9,62.1,0,40,0C17.9,0,0,17.9,0,40c0,22.1,17.9,40,40,40
				C62.1,80,80,62.1,80,40z M2.5,40C2.5,19.3,19.3,2.5,40,2.5c20.7,0,37.5,16.8,37.5,37.5c0,20.7-16.8,37.5-37.5,37.5
				C19.3,77.5,2.5,60.7,2.5,40z"/>
			
				<linearGradient id="greenCircle_2_" gradientUnits="userSpaceOnUse" x1="39.9995" y1="16.423" x2="39.9995" y2="65.578" gradientTransform="matrix(1 0 0 -1 0 81)">
				<stop  offset="0" style="stop-color:#B0B0B0"/>
				<stop  offset="1" style="stop-color:#8D8D8D"/>
			</linearGradient>
			<path id="greenCircle" display="none" fill="url(#greenCircle_2_)" d="M40,15.4c-13.6,0-24.6,11-24.6,24.6
				c0,13.6,11,24.6,24.6,24.6c13.6,0,24.6-11,24.6-24.6C64.6,26.4,53.6,15.4,40,15.4z M40,61.6c-11.9,0-21.6-9.7-21.6-21.6
				c0-11.9,9.7-21.6,21.6-21.6S61.6,28.1,61.6,40C61.6,51.9,51.9,61.6,40,61.6z"/>
		</g>
	</g>
</g>
<g id="Styles">
	<g id="cdpBackgroundStyle3">
		<rect x="278" y="0" fill="none" width="80" height="80"/>
		<g>
			<path fill="#0A0A0A" d="M318,2.5c20.7,0,37.5,16.8,37.5,37.5c0,20.7-16.8,37.5-37.5,37.5S280.5,60.7,280.5,40
				C280.5,19.3,297.3,2.5,318,2.5"/>
			
				<linearGradient id="SVGID_2_" gradientUnits="userSpaceOnUse" x1="298.0259" y1="60.9754" x2="337.9972" y2="21.0041" gradientTransform="matrix(1 0 0 -1 0 81)">
				<stop  offset="0" style="stop-color:#1D2021"/>
				<stop  offset="0.4337" style="stop-color:#1D2021"/>
				<stop  offset="0.6684" style="stop-color:#565B5D"/>
				<stop  offset="1" style="stop-color:#565B5D"/>
			</linearGradient>
			<path fill="url(#SVGID_2_)" d="M358,40c0-22.1-17.9-40-40-40c-22.1,0-40,17.9-40,40c0,22.1,17.9,40,40,40
				C340.1,80,358,62.1,358,40z M280.5,40c0-20.7,16.8-37.5,37.5-37.5c20.7,0,37.5,16.8,37.5,37.5c0,20.7-16.8,37.5-37.5,37.5
				C297.3,77.5,280.5,60.7,280.5,40z"/>
			
				<linearGradient id="SVGID_3_" gradientUnits="userSpaceOnUse" x1="317.9997" y1="9.7921" x2="317.9997" y2="72.2092" gradientTransform="matrix(1 0 0 -1 0 81)">
				<stop  offset="0" style="stop-color:#D70F0F"/>
				<stop  offset="1" style="stop-color:#8D0E0E"/>
			</linearGradient>
			<path fill="url(#SVGID_3_)" d="M318,8.8c-17.2,0-31.2,14-31.2,31.2c0,17.2,14,31.2,31.2,31.2c17.2,0,31.2-14,31.2-31.2
				C349.2,22.8,335.2,8.8,318,8.8z M318,67.4c-15.1,0-27.4-12.3-27.4-27.4c0-15.1,12.3-27.4,27.4-27.4s27.4,12.3,27.4,27.4
				S333.1,67.4,318,67.4z"/>
		</g>
	</g>
	<g id="cdpBackgroundStyle2">
		<rect x="185.3" y="0" fill="none" width="80" height="80"/>
		<g>
			<path fill="#0A0A0A" d="M225.3,2.5c20.7,0,37.5,16.8,37.5,37.5c0,20.7-16.8,37.5-37.5,37.5S187.9,60.7,187.9,40
				C187.9,19.3,204.7,2.5,225.3,2.5"/>
			
				<linearGradient id="SVGID_4_" gradientUnits="userSpaceOnUse" x1="205.3586" y1="60.9749" x2="245.3301" y2="21.0033" gradientTransform="matrix(1 0 0 -1 0 81)">
				<stop  offset="0" style="stop-color:#1D2021"/>
				<stop  offset="0.4337" style="stop-color:#1D2021"/>
				<stop  offset="0.6684" style="stop-color:#565B5D"/>
				<stop  offset="1" style="stop-color:#565B5D"/>
			</linearGradient>
			<path fill="url(#SVGID_4_)" d="M265.3,40c0-22.1-17.9-40-40-40c-22.1,0-40,17.9-40,40c0,22.1,17.9,40,40,40
				C247.4,80,265.3,62.1,265.3,40z M187.9,40c0-20.7,16.8-37.5,37.5-37.5c20.7,0,37.5,16.8,37.5,37.5c0,20.7-16.8,37.5-37.5,37.5
				C204.6,77.5,187.9,60.7,187.9,40z"/>
			
				<linearGradient id="SVGID_5_" gradientUnits="userSpaceOnUse" x1="225.3327" y1="9.7917" x2="225.3327" y2="72.2098" gradientTransform="matrix(1 0 0 -1 0 81)">
				<stop  offset="0" style="stop-color:#91CB74"/>
				<stop  offset="1" style="stop-color:#63B13B"/>
			</linearGradient>
			<path fill="url(#SVGID_5_)" d="M225.3,8.8c-17.2,0-31.2,14-31.2,31.2c0,17.2,14,31.2,31.2,31.2c17.2,0,31.2-14,31.2-31.2
				C256.5,22.8,242.6,8.8,225.3,8.8z M225.3,67.4c-15.1,0-27.4-12.3-27.4-27.4c0-15.1,12.3-27.4,27.4-27.4
				c15.1,0,27.4,12.3,27.4,27.4S240.4,67.4,225.3,67.4z"/>
		</g>
	</g>
	<g id="cdpBackgroundStyle1">
		<rect x="95.3" y="0" fill="none" width="80" height="80"/>
		<g>
			<path fill="#0A0A0A" d="M135.3,2.5c20.7,0,37.5,16.8,37.5,37.5S156,77.4,135.3,77.4c-20.7,0-37.5-16.8-37.5-37.5
				S114.7,2.5,135.3,2.5"/>
			
				<linearGradient id="sunkenCircle_3_" gradientUnits="userSpaceOnUse" x1="115.3567" y1="60.9781" x2="155.3137" y2="21.021" gradientTransform="matrix(1 0 0 -1 0 81)">
				<stop  offset="0" style="stop-color:#1D2021"/>
				<stop  offset="0.4337" style="stop-color:#1D2021"/>
				<stop  offset="0.6684" style="stop-color:#565B5D"/>
				<stop  offset="1" style="stop-color:#565B5D"/>
			</linearGradient>
			<path id="sunkenCircle_1_" fill="url(#sunkenCircle_3_)" d="M175.3,40c0-22.1-17.9-40-40-40c-22.1,0-40,17.9-40,40
				c0,22.1,17.9,40,40,40C157.4,80,175.3,62.1,175.3,40z M97.9,40c0-20.7,16.8-37.5,37.5-37.5c20.7,0,37.5,16.8,37.5,37.5
				c0,20.7-16.8,37.5-37.5,37.5C114.6,77.4,97.9,60.7,97.9,40z"/>
			
				<linearGradient id="greenCircle_3_" gradientUnits="userSpaceOnUse" x1="135.3334" y1="9.7927" x2="135.3334" y2="72.2095" gradientTransform="matrix(1 0 0 -1 0 81)">
				<stop  offset="0" style="stop-color:#B0B0B0"/>
				<stop  offset="1" style="stop-color:#8D8D8D"/>
			</linearGradient>
			<path id="greenCircle_1_" fill="url(#greenCircle_3_)" d="M135.3,8.8c-17.2,0-31.2,14-31.2,31.2c0,17.2,14,31.2,31.2,31.2
				c17.2,0,31.2-14,31.2-31.2C166.5,22.8,152.6,8.8,135.3,8.8z M135.3,67.4c-15.1,0-27.4-12.3-27.4-27.4s12.3-27.4,27.4-27.4
				c15.1,0,27.4,12.3,27.4,27.4S150.4,67.4,135.3,67.4z"/>
		</g>
	</g>
</g>
<g id="Help">
	<text transform="matrix(1 0 0 1 114 -9.333)" font-family="'ArialMT'" font-size="12px">Style 1</text>
	<text transform="matrix(1 0 0 1 205.0078 -9.333)" font-family="'ArialMT'" font-size="12px">Style 2</text>
	<text transform="matrix(1 0 0 1 298.6738 -9.333)" font-family="'ArialMT'" font-size="12px">Style 3</text>
	<text transform="matrix(1 0 0 1 23.0005 -9.333)" font-family="'ArialMT'" font-size="12px">Style 0</text>
	<text transform="matrix(1 0 0 1 -57.6665 45)" font-family="'ArialMT'" font-size="12px">Picture 0</text>
</g>
</svg>
