<?xml version="1.0" encoding="utf-8"?>
<!-- Generator: Adobe Illustrator 15.1.0, SVG Export Plug-In . SVG Version: 6.00 Build 0)  -->
<!DOCTYPE svg PUBLIC "-//W3C//DTD SVG 1.1//EN" "http://www.w3.org/Graphics/SVG/1.1/DTD/svg11.dtd">
<svg version="1.1" id="svg" xmlns="http://www.w3.org/2000/svg" xmlns:xlink="http://www.w3.org/1999/xlink" x="0px" y="0px"
	 width="69px" height="69px" viewBox="0 0 69 69" enable-background="new 0 0 69 69" xml:space="preserve">
<g id="Layer1">
	
		<linearGradient id="bgMenu2_1_" gradientUnits="userSpaceOnUse" x1="41.2207" y1="-927.9902" x2="301.2207" y2="-927.9902" gradientTransform="matrix(1 0 0 -1 -68.2202 -699.1602)">
		<stop  offset="0.0073" style="stop-color:#242729"/>
		<stop  offset="0.045" style="stop-color:#282B2C"/>
		<stop  offset="0.3184" style="stop-color:#404142"/>
		<stop  offset="0.4866" style="stop-color:#494A4A"/>
		<stop  offset="0.6668" style="stop-color:#404142"/>
		<stop  offset="0.9597" style="stop-color:#282B2C"/>
		<stop  offset="1" style="stop-color:#242729"/>
	</linearGradient>
	<rect id="bgMenu2" x="-27" y="-5.84" fill="url(#bgMenu2_1_)" width="260" height="469.34"/>
	<g id="cdpBackground">
		<rect fill="none" width="69" height="69"/>
		<g>
			<g>
				<path fill="#1E1E1E" d="M66.986,34.5c0,17.943-14.545,32.488-32.486,32.488c-17.942,0-32.487-14.545-32.487-32.488
					c0-17.942,14.545-32.487,32.487-32.487C52.441,2.013,66.986,16.558,66.986,34.5"/>
				<path opacity="0.4" enable-background="new    " d="M66.986,34.5c0,17.943-14.545,32.488-32.486,32.488
					c-17.942,0-32.487-14.545-32.487-32.488c0-17.942,14.545-32.487,32.487-32.487C52.441,2.013,66.986,16.558,66.986,34.5"/>
			</g>
			
				<linearGradient id="SVGID_1_" gradientUnits="userSpaceOnUse" x1="85.46" y1="-716.3994" x2="119.9344" y2="-750.8738" gradientTransform="matrix(1 0 0 -1 -68.2202 -699.1602)">
				<stop  offset="0" style="stop-color:#212223"/>
				<stop  offset="0.5529" style="stop-color:#2A2B2B"/>
				<stop  offset="0.9895" style="stop-color:#666868"/>
			</linearGradient>
			<path fill="url(#SVGID_1_)" d="M69,34.5C69,15.477,53.523,0,34.5,0C15.477,0,0,15.477,0,34.5C0,53.523,15.477,69,34.5,69
				C53.523,69,69,53.523,69,34.5z M2.014,34.5c0-17.942,14.543-32.488,32.486-32.488c17.943,0,32.486,14.546,32.486,32.488
				c0,17.943-14.543,32.488-32.486,32.488C16.557,66.988,2.014,52.443,2.014,34.5z"/>
			
				<linearGradient id="SVGID_2_" gradientUnits="userSpaceOnUse" x1="102.7207" y1="-760.8359" x2="102.7207" y2="-706.4844" gradientTransform="matrix(1 0 0 -1 -68.2202 -699.1602)">
				<stop  offset="0" style="stop-color:#707070"/>
				<stop  offset="1" style="stop-color:#B2B2B2"/>
			</linearGradient>
			<circle display="none" fill="url(#SVGID_2_)" cx="34.5" cy="34.5" r="27.176"/>
			<circle fill="#FFFFFF" cx="34.5" cy="34.5" r="27.176"/>
		</g>
	</g>
	<g id="cdpButton">
		<rect fill="none" width="69" height="69"/>
		<polygon fill="#1D1D1B" stroke="#1D1D1B" stroke-linecap="round" stroke-linejoin="round" stroke-miterlimit="10" points="
			34.417,18.005 16.167,31.813 21.384,31.813 21.384,47.087 29.863,47.087 29.863,36.646 38.081,36.646 38.081,47.087 46.95,47.087 
			46.95,31.813 52.167,31.813 		"/>
	</g>
	<g id="cdpBackgroundPressed">
		<rect x="72" fill="none" width="69" height="69"/>
		<g>
			<g>
				<path fill="#1E1E1E" d="M138.986,34.5c0,17.943-14.545,32.488-32.486,32.488S74.014,52.443,74.014,34.5
					c0-17.942,14.545-32.487,32.486-32.487S138.986,16.558,138.986,34.5"/>
				<path opacity="0.4" enable-background="new    " d="M138.986,34.5c0,17.943-14.545,32.488-32.486,32.488
					S74.014,52.443,74.014,34.5c0-17.942,14.545-32.487,32.486-32.487S138.986,16.558,138.986,34.5"/>
			</g>
			
				<linearGradient id="SVGID_3_" gradientUnits="userSpaceOnUse" x1="157.457" y1="-716.397" x2="191.9336" y2="-750.8735" gradientTransform="matrix(1 0 0 -1 -68.2202 -699.1602)">
				<stop  offset="0" style="stop-color:#212223"/>
				<stop  offset="0.5529" style="stop-color:#2A2B2B"/>
				<stop  offset="0.9895" style="stop-color:#666868"/>
			</linearGradient>
			<path fill="url(#SVGID_3_)" d="M141,34.5C141,15.477,125.523,0,106.5,0S72,15.477,72,34.5C72,53.523,87.477,69,106.5,69
				S141,53.523,141,34.5z M74.014,34.5c0-17.942,14.543-32.488,32.486-32.488s32.486,14.546,32.486,32.488
				c0,17.943-14.543,32.488-32.486,32.488S74.014,52.443,74.014,34.5z"/>
			
				<linearGradient id="SVGID_4_" gradientUnits="userSpaceOnUse" x1="147.5449" y1="-733.6602" x2="201.8965" y2="-733.6602" gradientTransform="matrix(1 0 0 -1 -68.2202 -699.1602)">
				<stop  offset="0" style="stop-color:#707070"/>
				<stop  offset="1" style="stop-color:#B2B2B2"/>
			</linearGradient>
			<circle fill="url(#SVGID_4_)" cx="106.5" cy="34.5" r="27.176"/>
		</g>
	</g>
</g>
<g id="Styles">
	<g id="cdpButtonStyle7">
		<rect x="-2.179" y="370.526" fill="none" width="69" height="69"/>
		<g>
			<polygon fill="none" points="21.292,422 14.475,401.02 32.321,388.053 50.168,401.02 43.352,422 			"/>
			<line fill="none" stroke="#000000" stroke-miterlimit="10" x1="32.321" y1="388.053" x2="32.322" y2="406.52"/>
			<line fill="none" stroke="#000000" stroke-miterlimit="10" x1="50.168" y1="401.02" x2="32.322" y2="406.52"/>
			<line fill="none" stroke="#000000" stroke-miterlimit="10" x1="43.352" y1="422" x2="32.322" y2="406.52"/>
			<line fill="none" stroke="#000000" stroke-miterlimit="10" x1="21.292" y1="422" x2="32.322" y2="406.52"/>
			<line fill="none" stroke="#000000" stroke-miterlimit="10" x1="14.475" y1="401.02" x2="32.322" y2="406.52"/>
			<linearGradient id="SVGID_5_" gradientUnits="userSpaceOnUse" x1="16.9565" y1="418.6123" x2="25.6254" y2="425.3852">
				<stop  offset="0" style="stop-color:#A5A5A5"/>
				<stop  offset="0.0343" style="stop-color:#949494"/>
				<stop  offset="0.1381" style="stop-color:#676767"/>
				<stop  offset="0.2426" style="stop-color:#424242"/>
				<stop  offset="0.3464" style="stop-color:#252525"/>
				<stop  offset="0.4491" style="stop-color:#111111"/>
				<stop  offset="0.5503" style="stop-color:#040404"/>
				<stop  offset="0.6485" style="stop-color:#000000"/>
			</linearGradient>
			<circle fill="url(#SVGID_5_)" cx="21.292" cy="422" r="5.5"/>
			<linearGradient id="SVGID_6_" gradientUnits="userSpaceOnUse" x1="39.0166" y1="418.6133" x2="47.6847" y2="425.3856">
				<stop  offset="0" style="stop-color:#A5A5A5"/>
				<stop  offset="0.0343" style="stop-color:#949494"/>
				<stop  offset="0.1381" style="stop-color:#676767"/>
				<stop  offset="0.2426" style="stop-color:#424242"/>
				<stop  offset="0.3464" style="stop-color:#252525"/>
				<stop  offset="0.4491" style="stop-color:#111111"/>
				<stop  offset="0.5503" style="stop-color:#040404"/>
				<stop  offset="0.6485" style="stop-color:#000000"/>
			</linearGradient>
			<circle fill="url(#SVGID_6_)" cx="43.352" cy="422" r="5.5"/>
			<linearGradient id="SVGID_7_" gradientUnits="userSpaceOnUse" x1="27.9868" y1="384.666" x2="36.6549" y2="391.4383">
				<stop  offset="0" style="stop-color:#A5A5A5"/>
				<stop  offset="0.0343" style="stop-color:#949494"/>
				<stop  offset="0.1381" style="stop-color:#676767"/>
				<stop  offset="0.2426" style="stop-color:#424242"/>
				<stop  offset="0.3464" style="stop-color:#252525"/>
				<stop  offset="0.4491" style="stop-color:#111111"/>
				<stop  offset="0.5503" style="stop-color:#040404"/>
				<stop  offset="0.6485" style="stop-color:#000000"/>
			</linearGradient>
			<circle fill="url(#SVGID_7_)" cx="32.321" cy="388.053" r="5.5"/>
			<linearGradient id="SVGID_8_" gradientUnits="userSpaceOnUse" x1="45.833" y1="397.6328" x2="54.5019" y2="404.4057">
				<stop  offset="0" style="stop-color:#A5A5A5"/>
				<stop  offset="0.0343" style="stop-color:#949494"/>
				<stop  offset="0.1381" style="stop-color:#676767"/>
				<stop  offset="0.2426" style="stop-color:#424242"/>
				<stop  offset="0.3464" style="stop-color:#252525"/>
				<stop  offset="0.4491" style="stop-color:#111111"/>
				<stop  offset="0.5503" style="stop-color:#040404"/>
				<stop  offset="0.6485" style="stop-color:#000000"/>
			</linearGradient>
			<circle fill="url(#SVGID_8_)" cx="50.167" cy="401.02" r="5.5"/>
			<linearGradient id="SVGID_9_" gradientUnits="userSpaceOnUse" x1="27.9868" y1="403.1328" x2="36.6557" y2="409.9057">
				<stop  offset="0" style="stop-color:#A5A5A5"/>
				<stop  offset="0.0343" style="stop-color:#949494"/>
				<stop  offset="0.1381" style="stop-color:#676767"/>
				<stop  offset="0.2426" style="stop-color:#424242"/>
				<stop  offset="0.3464" style="stop-color:#252525"/>
				<stop  offset="0.4491" style="stop-color:#111111"/>
				<stop  offset="0.5503" style="stop-color:#040404"/>
				<stop  offset="0.6485" style="stop-color:#000000"/>
			</linearGradient>
			<circle fill="url(#SVGID_9_)" cx="32.322" cy="406.52" r="5.5"/>
			<linearGradient id="SVGID_10_" gradientUnits="userSpaceOnUse" x1="10.1401" y1="397.6328" x2="18.8083" y2="404.4051">
				<stop  offset="0" style="stop-color:#A5A5A5"/>
				<stop  offset="0.0343" style="stop-color:#949494"/>
				<stop  offset="0.1381" style="stop-color:#676767"/>
				<stop  offset="0.2426" style="stop-color:#424242"/>
				<stop  offset="0.3464" style="stop-color:#252525"/>
				<stop  offset="0.4491" style="stop-color:#111111"/>
				<stop  offset="0.5503" style="stop-color:#040404"/>
				<stop  offset="0.6485" style="stop-color:#000000"/>
			</linearGradient>
			<circle fill="url(#SVGID_10_)" cx="14.475" cy="401.02" r="5.5"/>
		</g>
	</g>
	<g id="cdpButtonStyle6">
		<rect x="-2.179" y="275.5" fill="none" width="69" height="69"/>
		<g>
			<path d="M29.852,315.527l-0.076-0.987c-0.229-2.015,0.456-4.293,2.355-6.572c1.71-2.014,2.66-3.495,2.66-5.204
				c0-1.938-1.217-3.23-3.609-3.269c-1.368,0-2.889,0.455-3.838,1.178l-0.912-2.394c1.292-0.912,3.42-1.521,5.434-1.521
				c4.368,0,6.345,2.698,6.345,5.586c0,2.584-1.443,4.445-3.268,6.61c-1.671,1.976-2.279,3.687-2.165,5.623l0.076,0.95H29.852
				L29.852,315.527z M29.054,320.886c0-1.405,0.95-2.394,2.241-2.394c1.368,0,2.242,0.986,2.242,2.394
				c0,1.33-0.874,2.355-2.279,2.355C29.965,323.241,29.054,322.216,29.054,320.886z"/>
		</g>
	</g>
	<g id="cdpButtonStyle5">
		<rect x="-0.333" y="162.389" fill="none" width="69" height="69"/>
		<g>
			<polygon stroke="#000000" stroke-width="2" stroke-miterlimit="10" points="22.268,185.523 21.156,183.564 20.048,185.523 
				20.707,185.523 20.707,210.793 21.598,210.793 21.598,185.523 			"/>
			<polygon stroke="#000000" stroke-width="2" stroke-miterlimit="10" points="49.945,209.275 48.021,208.145 48.021,208.826 
				19.667,208.826 19.667,209.734 48.021,209.734 48.021,210.404 			"/>
			<path fill="none" stroke="#000000" stroke-width="2" stroke-linecap="round" stroke-miterlimit="10" d="M21.158,197.18
				c0,0,4.068,3.987,7.502,4.112c3.631,0.135,3.73-5.703,7.854-6.626c5.289-1.18,6.971,13.479,6.971,13.479"/>
		</g>
	</g>
	<g id="cdpButtonStyle4">
		<rect x="140" y="79.438" fill="none" width="69" height="69"/>
		<path fill="#1D1D1B" d="M189.953,122.166l1.979,1.447c-0.168,0.367-0.354,0.73-0.56,1.091s-0.431,0.703-0.665,1.034l-2.279-0.924
			c-0.527,0.668-1.125,1.261-1.775,1.771l0.979,2.229c-0.677,0.479-1.396,0.895-2.146,1.233l-1.504-1.922
			c-0.783,0.313-1.604,0.538-2.438,0.664l-0.288,2.409c-0.82,0.085-1.652,0.093-2.482,0.021l-0.328-2.403
			c-0.825-0.108-1.646-0.313-2.446-0.623l-1.476,1.945c-0.375-0.164-0.746-0.349-1.109-0.551c-0.365-0.204-0.714-0.423-1.053-0.652
			l0.938-2.24c-0.682-0.521-1.282-1.104-1.805-1.743l-2.267,0.961c-0.489-0.665-0.91-1.37-1.26-2.104l1.954-1.479
			c-0.317-0.771-0.546-1.573-0.675-2.396l-2.45-0.281c-0.087-0.81-0.096-1.625-0.022-2.44l2.445-0.319
			c0.111-0.813,0.321-1.619,0.635-2.408l-1.979-1.445c0.168-0.369,0.354-0.732,0.563-1.094c0.207-0.357,0.431-0.699,0.664-1.031
			l2.279,0.924c0.525-0.669,1.123-1.263,1.773-1.771l-0.979-2.229c0.676-0.479,1.396-0.895,2.145-1.234l1.506,1.92
			c0.783-0.313,1.604-0.535,2.438-0.662l0.285-2.409c0.82-0.084,1.653-0.093,2.484-0.021l0.326,2.402
			c0.826,0.109,1.646,0.314,2.449,0.624l1.474-1.945c0.375,0.166,0.745,0.349,1.11,0.552c0.363,0.203,0.715,0.422,1.053,0.651
			l-0.939,2.242c0.68,0.519,1.282,1.104,1.805,1.742l2.269-0.962c0.485,0.664,0.908,1.371,1.259,2.105l-1.955,1.479
			c0.318,0.771,0.547,1.573,0.676,2.396l2.453,0.28c0.084,0.81,0.094,1.625,0.02,2.442l-2.445,0.318
			C190.477,120.57,190.268,121.379,189.953,122.166z M183.555,120.354c0.553-0.955,0.691-2.065,0.393-3.129
			c-0.299-1.061-1-1.941-1.975-2.482c-0.631-0.354-1.344-0.536-2.063-0.536c-1.512,0-2.907,0.801-3.651,2.091
			c-0.552,0.958-0.69,2.068-0.393,3.13c0.299,1.063,1.001,1.943,1.975,2.485c0.63,0.35,1.345,0.533,2.063,0.533
			C181.413,122.443,182.813,121.645,183.555,120.354z"/>
		<path fill="#1D1D1B" d="M169.213,107.85l2.434,0.604c0.004,0.403-0.017,0.813-0.064,1.229c-0.055,0.409-0.133,0.813-0.238,1.202
			l-2.508,0.007c-0.266,0.711-0.645,1.358-1.111,1.932l1.285,2.117c-0.582,0.586-1.24,1.092-1.964,1.506l-1.774-1.74
			c-0.681,0.311-1.412,0.513-2.179,0.593l-0.612,2.39c-0.41,0.006-0.826-0.015-1.246-0.063c-0.42-0.051-0.828-0.133-1.228-0.232
			L160,114.923c-0.723-0.26-1.385-0.632-1.966-1.094l-2.154,1.264c-0.595-0.571-1.11-1.222-1.532-1.93l1.771-1.746
			c-0.314-0.666-0.521-1.388-0.604-2.14l-2.434-0.604c-0.005-0.402,0.018-0.813,0.064-1.227c0.051-0.413,0.135-0.814,0.236-1.205
			l2.51-0.004c0.266-0.713,0.644-1.359,1.111-1.934l-1.287-2.115c0.586-0.588,1.244-1.094,1.965-1.508l1.777,1.739
			c0.678-0.31,1.411-0.513,2.178-0.592l0.61-2.39c0.413-0.006,0.827,0.015,1.248,0.063c0.42,0.053,0.829,0.131,1.226,0.234
			l0.006,2.463c0.726,0.26,1.385,0.633,1.965,1.094l2.152-1.264c0.598,0.57,1.113,1.223,1.535,1.93l-1.771,1.747
			C168.928,106.377,169.134,107.098,169.213,107.85z M163.84,106.002c-1.439-0.801-3.268-0.305-4.081,1.109
			c-0.815,1.416-0.31,3.211,1.13,4.012c1.438,0.803,3.27,0.305,4.082-1.109C165.785,108.6,165.279,106.803,163.84,106.002z"/>
	</g>
	<g id="cdpButtonStyle3">
		<rect x="72.576" y="78.389" fill="none" width="69" height="69"/>
		<g>
			<path fill="#1D1D1B" d="M113.402,101.561c0-3.188-3.133-5.771-7-5.771c-3.865,0-7,2.584-7,5.771c0,7.582-3.131,13.717-7,13.717
				v3.85h11.668c0,1.288,1.043,2.333,2.332,2.333s2.334-1.045,2.334-2.333h11.666v-3.85
				C116.535,115.275,113.402,109.143,113.402,101.561z"/>
			<path fill="#1D1D1B" d="M117.318,124.462c-0.391-0.226-0.889-0.093-1.116,0.298c-2.019,3.492-5.772,5.66-9.8,5.66
				c-4.025,0-7.779-2.168-9.799-5.66c-0.151-0.262-0.429-0.408-0.709-0.408c-0.141,0-0.278,0.035-0.408,0.11
				c-0.391,0.228-0.522,0.726-0.297,1.115c2.311,3.993,6.605,6.478,11.213,6.478c4.604,0,8.904-2.48,11.215-6.478
				C117.843,125.188,117.709,124.688,117.318,124.462z"/>
			<path fill="#1D1D1B" d="M99.434,123.127c-0.228-0.391-0.727-0.523-1.117-0.298c-0.389,0.226-0.521,0.726-0.297,1.114
				c1.729,2.986,4.939,4.844,8.385,4.844c3.447,0,6.656-1.855,8.387-4.844c0.229-0.393,0.093-0.893-0.298-1.114
				c-0.132-0.075-0.271-0.11-0.408-0.11c-0.278,0-0.558,0.146-0.707,0.408c-1.438,2.482-4.106,4.027-6.974,4.027
				C103.54,127.154,100.869,125.609,99.434,123.127z"/>
			<path fill="#1D1D1B" d="M106.402,125.521c2.283,0,4.41-1.231,5.558-3.211c0.226-0.392,0.093-0.891-0.299-1.115
				c-0.39-0.225-0.89-0.092-1.115,0.298c-0.854,1.476-2.44,2.396-4.144,2.396c-1.701,0-3.287-0.92-4.145-2.396
				c-0.148-0.261-0.425-0.407-0.705-0.407c-0.141,0-0.279,0.035-0.408,0.109c-0.394,0.228-0.523,0.727-0.299,1.115
				C101.992,124.289,104.121,125.521,106.402,125.521z"/>
		</g>
	</g>
	<g id="cdpButtonStyle2">
		<rect x="-0.333" y="78.389" fill="none" width="69" height="69"/>
		<g>
			<path d="M24.189,126.51v-25.77h8.877c2.004,0,3.534,0.123,4.588,0.369c1.477,0.34,2.736,0.955,3.779,1.846
				c1.356,1.148,2.375,2.615,3.049,4.402c0.675,1.787,1.012,3.83,1.012,6.127c0,1.957-0.229,3.688-0.686,5.203
				c-0.457,1.512-1.043,2.763-1.761,3.752c-0.715,0.99-1.497,1.771-2.347,2.338c-0.852,0.568-1.875,1-3.076,1.293
				s-2.581,0.438-4.14,0.438L24.189,126.51L24.189,126.51z M27.6,123.469h5.502c1.699,0,3.032-0.158,4-0.475
				c0.967-0.316,1.736-0.762,2.313-1.336c0.812-0.809,1.438-1.896,1.892-3.262c0.45-1.364,0.678-3.021,0.678-4.965
				c0-2.695-0.442-4.77-1.328-6.217c-0.885-1.445-1.959-2.417-3.225-2.906c-0.914-0.354-2.388-0.527-4.415-0.527H27.6V123.469z"/>
		</g>
	</g>
	<g id="cdpButtonStyle1">
		<rect x="73" fill="none" width="69" height="69"/>
		<path id="HPU_icon_white_1_" fill="#1D1D1B" d="M129.658,30.822l-2.084-1.962c-0.34-0.32-0.825-0.441-1.276-0.32l-15.61,4.19
			l-1.688-1.656c-0.253-0.247-0.591-0.385-0.942-0.385h-3.982v-1.184h2.313c0.741,0,1.344-0.597,1.344-1.332
			c0-0.737-0.603-1.333-1.344-1.333h-7.311c-0.742,0-1.346,0.596-1.346,1.333c0,0.735,0.604,1.332,1.346,1.332h2.313v1.184H96.95
			V29.98c0-0.582-0.382-1.097-0.94-1.272l-6.669-2.063c-0.677-0.21-1.397,0.136-1.651,0.791l-1.514,3.873
			c-0.132,0.339-0.119,0.717,0.036,1.046c0.154,0.329,0.438,0.581,0.788,0.698l7.266,2.432v5.604c0,0.735,0.602,1.333,1.346,1.333
			h17.504c0.387,0,0.754-0.166,1.01-0.453l8.594-9.702l3.564-0.956l1.535,1.447c0.537,0.507,1.389,0.486,1.898-0.048
			C130.218,32.172,130.195,31.33,129.658,30.822z M94.255,32.669l-5.075-1.698l0.551-1.412l4.524,1.401V32.669z M112.495,39.753
			H96.941v-5.196c0.002-0.021,0.002-0.042,0-0.063v-1.14h10.557l1.848,1.809c0.256,0.25,0.598,0.384,0.945,0.384
			c0.116,0,0.234-0.016,0.352-0.045l7.373-1.979L112.495,39.753z"/>
	</g>
	<text transform="matrix(1 0 0 1 286.5117 12.4531)" font-family="'MyriadPro-Regular'" font-size="12">Set backWhite visible and select all </text>
	<text transform="matrix(1 0 0 1 286.5117 26.8535)" font-family="'MyriadPro-Regular'" font-size="12">icons and make them 40% transparent </text>
	<text transform="matrix(1 0 0 1 286.5117 41.2539)" font-family="'MyriadPro-Regular'" font-size="12">when saving checked state.</text>
</g>
</svg>
