<?xml version="1.0" encoding="utf-8"?>
<!-- Generator: Adobe Illustrator 16.0.0, SVG Export Plug-In . SVG Version: 6.00 Build 0)  -->
<!DOCTYPE svg PUBLIC "-//W3C//DTD SVG 1.1//EN" "http://www.w3.org/Graphics/SVG/1.1/DTD/svg11.dtd">
<svg version="1.1" id="svg" xmlns="http://www.w3.org/2000/svg" xmlns:xlink="http://www.w3.org/1999/xlink" x="0px" y="0px"
	 width="69.307px" height="74.064px" viewBox="0 0 69.307 74.064" enable-background="new 0 0 69.307 74.064" xml:space="preserve">
<g id="Layer1">
	<g id="cdpBackground">
		<rect x="0.135" y="2.532" fill="none" width="69" height="68.999"/>
		<g>
			<g>
				<path d="M67.121,37.031c0,17.943-14.545,32.488-32.486,32.488S2.149,54.974,2.149,37.031c0-17.94,14.545-32.485,32.486-32.485
					S67.121,19.091,67.121,37.031"/>
				<path opacity="0.4" enable-background="new    " d="M67.121,37.031c0,17.943-14.545,32.488-32.486,32.488
					S2.149,54.974,2.149,37.031c0-17.94,14.545-32.485,32.486-32.485S67.121,19.091,67.121,37.031"/>
			</g>
			
				<linearGradient id="SVGID_1_" gradientUnits="userSpaceOnUse" x1="-32.7249" y1="-1239.0662" x2="1.7489" y2="-1273.5398" gradientTransform="matrix(1 0 0 -1 50.1001 -1219.2954)">
				<stop  offset="0" style="stop-color:#212223"/>
				<stop  offset="0.5529" style="stop-color:#2A2B2B"/>
				<stop  offset="0.9895" style="stop-color:#666868"/>
			</linearGradient>
			<path fill="url(#SVGID_1_)" d="M69.135,37.031c0-19.021-15.477-34.499-34.5-34.499s-34.5,15.479-34.5,34.499
				c0,19.023,15.477,34.5,34.5,34.5S69.135,56.055,69.135,37.031z M2.149,37.031c0-17.94,14.543-32.485,32.486-32.485
				s32.486,14.545,32.486,32.485c0,17.943-14.543,32.488-32.486,32.488C16.692,69.52,2.149,54.975,2.149,37.031z"/>
			
				<linearGradient id="SVGID_2_" gradientUnits="userSpaceOnUse" x1="-54.6853" y1="557.1677" x2="-112.6858" y2="557.1677" gradientTransform="matrix(1 0 0 1 118.3203 -520.1357)">
				<stop  offset="0" style="stop-color:#707070"/>
				<stop  offset="1" style="stop-color:#B2B2B2"/>
			</linearGradient>
			<circle fill="url(#SVGID_2_)" cx="34.635" cy="37.032" r="29"/>
			
				<linearGradient id="SVGID_3_" gradientUnits="userSpaceOnUse" x1="-43.5505" y1="-1243.4421" x2="-12.3479" y2="-1243.4421" gradientTransform="matrix(1 0 0 -1 50.1001 -1219.2954)">
				<stop  offset="0" style="stop-color:#A6A6A6"/>
				<stop  offset="0.5" style="stop-color:#CCCCCC"/>
				<stop  offset="1" style="stop-color:#999999"/>
			</linearGradient>
			<path fill="url(#SVGID_3_)" d="M34.635,8.032c-16.018,0-28.999,12.984-28.999,28.999c0,4.396,0.789,4.217,0.789,0
				c0-14.45,13.453-27.924,28.21-27.924C39.668,9.107,39.904,8.032,34.635,8.032z"/>
		</g>
	</g>
	<g id="cdpButton">
		<rect x="-0.078" y="75.052" fill="none" width="69" height="69"/>
		<g>
			<path fill="#1D1D1B" d="M31.951,115.081l-0.076-0.986c-0.229-2.016,0.457-4.293,2.355-6.572c1.71-2.014,2.66-3.496,2.66-5.205
				c0-1.938-1.217-3.229-3.609-3.268c-1.367,0-2.889,0.453-3.838,1.178l-0.912-2.396c1.293-0.911,3.42-1.521,5.437-1.521
				c4.368,0,6.345,2.698,6.345,5.586c0,2.583-1.443,4.445-3.268,6.61c-1.674,1.977-2.279,3.686-2.166,5.621l0.074,0.949h-3.002
				V115.081z M31.156,120.438c0-1.406,0.949-2.396,2.24-2.396c1.368,0,2.242,0.987,2.242,2.396c0,1.33-0.874,2.354-2.279,2.354
				C32.066,122.794,31.156,121.768,31.156,120.438z"/>
		</g>
	</g>
	<g id="cdpBackgroundPressed">
		<rect x="83.672" y="2.532" fill="none" width="69" height="69"/>
		<g>
			<g>
				<path d="M150.658,37.031c0,17.943-14.547,32.488-32.486,32.488c-17.941,0-32.486-14.544-32.486-32.488
					c0-17.94,14.545-32.485,32.486-32.485C136.113,4.546,150.658,19.091,150.658,37.031"/>
				<path opacity="0.4" enable-background="new    " d="M150.658,37.031c0,17.943-14.547,32.488-32.486,32.488
					c-17.941,0-32.486-14.544-32.486-32.488c0-17.94,14.545-32.485,32.486-32.485C136.113,4.546,150.658,19.091,150.658,37.031"/>
			</g>
			
				<linearGradient id="SVGID_4_" gradientUnits="userSpaceOnUse" x1="50.8137" y1="-1239.0681" x2="85.2871" y2="-1273.5416" gradientTransform="matrix(1 0 0 -1 50.1001 -1219.2954)">
				<stop  offset="0" style="stop-color:#212223"/>
				<stop  offset="0.5529" style="stop-color:#2A2B2B"/>
				<stop  offset="0.9895" style="stop-color:#666868"/>
			</linearGradient>
			<path fill="url(#SVGID_4_)" d="M152.672,37.031c0-19.021-15.479-34.499-34.5-34.499c-19.023,0-34.5,15.479-34.5,34.499
				c0,19.023,15.477,34.5,34.5,34.5C137.195,71.531,152.672,56.055,152.672,37.031z M85.686,37.031
				c0-17.94,14.543-32.485,32.486-32.485s32.486,14.545,32.486,32.485c0,17.943-14.543,32.488-32.486,32.488
				S85.686,54.975,85.686,37.031z"/>
			
				<linearGradient id="SVGID_5_" gradientUnits="userSpaceOnUse" x1="-29.1482" y1="557.1677" x2="28.8518" y2="557.1677" gradientTransform="matrix(1 0 0 1 118.3203 -520.1357)">
				<stop  offset="0" style="stop-color:#707070"/>
				<stop  offset="1" style="stop-color:#B2B2B2"/>
			</linearGradient>
			<circle fill="url(#SVGID_5_)" cx="118.172" cy="37.032" r="29"/>
		</g>
	</g>
</g>
<g id="Styles">
	<g id="cdpButtonStyle8">
		<rect x="126.52" y="138.622" fill="none" width="69.001" height="69"/>
	</g>
	<g id="cdpButtonStyle7">
		<rect x="0.306" y="557.064" fill="none" width="69" height="69"/>
	</g>
	<g id="cdpButtonStyle6">
		<rect x="0.307" y="488.064" fill="none" width="69" height="69"/>
	</g>
	<g id="cdpButtonStyle5">
		<rect x="0.307" y="419.064" fill="none" width="69" height="69"/>
	</g>
	<g id="cdpButtonStyle4">
		<rect x="-2.029" y="374.427" fill="none" width="69" height="69"/>
		<g>
			<path d="M15.88,413.222v-8.59h1.688l3.516,5.736v-5.736h1.611v8.59h-1.74l-3.463-5.602v5.602H15.88z"/>
			<path d="M24.177,408.98c0-0.875,0.131-1.609,0.393-2.203c0.195-0.438,0.462-0.83,0.8-1.178s0.708-0.605,1.11-0.773
				c0.535-0.227,1.152-0.34,1.852-0.34c1.266,0,2.278,0.393,3.038,1.178s1.14,1.877,1.14,3.275c0,1.387-0.377,2.472-1.131,3.255
				s-1.762,1.175-3.023,1.175c-1.277,0-2.293-0.39-3.047-1.169S24.177,410.347,24.177,408.98z M25.964,408.922
				c0,0.973,0.225,1.71,0.674,2.212s1.02,0.753,1.711,0.753s1.259-0.249,1.702-0.747s0.665-1.245,0.665-2.241
				c0-0.984-0.216-1.719-0.647-2.203s-1.005-0.727-1.72-0.727s-1.291,0.245-1.729,0.735S25.964,407.933,25.964,408.922z"/>
			<path d="M33.88,413.222v-8.59h1.688l3.516,5.736v-5.736h1.611v8.59h-1.74l-3.463-5.602v5.602H33.88z"/>
			<path d="M42.529,413.222v-8.59h6.369v1.453h-4.635v1.904h4.313v1.447h-4.313v2.338h4.799v1.447H42.529z"/>
		</g>
	</g>
	<g id="cdpButtonStyle3">
		<rect x="-0.89" y="296.035" fill="none" width="69" height="69"/>
		<g>
			<g>
				<path d="M25.888,340.235v-5.353h-1.912v-1.09h5.119v1.09h-1.906v5.353H25.888z"/>
				<path d="M30.18,336.992l-1.12-0.202c0.126-0.451,0.343-0.785,0.65-1.002s0.765-0.325,1.371-0.325
					c0.551,0,0.961,0.065,1.23,0.195c0.27,0.131,0.459,0.296,0.569,0.497c0.109,0.2,0.164,0.568,0.164,1.105l-0.013,1.441
					c0,0.41,0.02,0.712,0.06,0.907c0.039,0.194,0.113,0.403,0.222,0.626h-1.222c-0.032-0.082-0.072-0.203-0.119-0.365
					c-0.021-0.072-0.035-0.121-0.043-0.145c-0.211,0.205-0.438,0.359-0.678,0.461c-0.24,0.103-0.496,0.154-0.769,0.154
					c-0.48,0-0.859-0.13-1.136-0.391c-0.277-0.261-0.416-0.591-0.416-0.989c0-0.264,0.063-0.499,0.189-0.705
					c0.126-0.207,0.303-0.365,0.529-0.475c0.228-0.11,0.555-0.206,0.982-0.288c0.577-0.108,0.977-0.209,1.199-0.303v-0.123
					c0-0.238-0.059-0.407-0.176-0.508c-0.117-0.102-0.338-0.152-0.663-0.152c-0.22,0-0.392,0.044-0.515,0.13
					C30.356,336.624,30.257,336.775,30.18,336.992z M31.833,337.994c-0.158,0.053-0.408,0.116-0.751,0.188
					c-0.343,0.074-0.567,0.146-0.673,0.216c-0.161,0.114-0.241,0.259-0.241,0.435c0,0.174,0.064,0.323,0.193,0.449
					s0.293,0.188,0.492,0.188c0.223,0,0.435-0.073,0.638-0.22c0.148-0.111,0.247-0.247,0.294-0.408
					c0.032-0.105,0.048-0.307,0.048-0.603V337.994z"/>
				<path d="M34.219,340.235v-6.442h1.236v3.419l1.445-1.644h1.52l-1.594,1.705l1.709,2.962h-1.332l-1.174-2.096l-0.574,0.602v1.494
					H34.219z"/>
				<path d="M41.973,338.75l1.23,0.206c-0.158,0.452-0.408,0.795-0.75,1.031c-0.342,0.235-0.768,0.354-1.281,0.354
					c-0.811,0-1.412-0.265-1.801-0.795c-0.309-0.425-0.463-0.961-0.463-1.609c0-0.773,0.203-1.379,0.607-1.816
					c0.404-0.438,0.916-0.657,1.533-0.657c0.695,0,1.242,0.229,1.645,0.688c0.4,0.459,0.592,1.161,0.574,2.107h-3.094
					c0.01,0.366,0.109,0.651,0.299,0.854c0.191,0.204,0.428,0.306,0.713,0.306c0.193,0,0.355-0.053,0.488-0.158
					C41.805,339.154,41.905,338.984,41.973,338.75z M42.043,337.502c-0.01-0.357-0.102-0.629-0.277-0.815
					c-0.176-0.186-0.391-0.279-0.643-0.279c-0.27,0-0.492,0.099-0.668,0.295s-0.262,0.463-0.258,0.8H42.043z"/>
				<path d="M22.487,346.866l1.261,0.4c-0.193,0.703-0.515,1.226-0.965,1.566c-0.449,0.342-1.021,0.512-1.712,0.512
					c-0.855,0-1.559-0.292-2.109-0.876c-0.551-0.585-0.826-1.384-0.826-2.397c0-1.072,0.277-1.905,0.831-2.498
					c0.554-0.594,1.281-0.891,2.185-0.891c0.787,0,1.428,0.233,1.92,0.699c0.293,0.275,0.513,0.671,0.659,1.187l-1.288,0.308
					c-0.076-0.334-0.234-0.598-0.477-0.791c-0.241-0.193-0.535-0.29-0.881-0.29c-0.478,0-0.865,0.171-1.162,0.515
					c-0.298,0.342-0.446,0.897-0.446,1.665c0,0.814,0.146,1.395,0.439,1.74s0.674,0.519,1.143,0.519c0.346,0,0.643-0.109,0.892-0.33
					C22.199,347.684,22.378,347.339,22.487,346.866z"/>
				<path d="M24.57,346.836c0-0.41,0.101-0.807,0.304-1.19c0.201-0.384,0.488-0.678,0.858-0.879
					c0.371-0.203,0.784-0.304,1.241-0.304c0.706,0,1.285,0.229,1.736,0.688c0.451,0.459,0.677,1.038,0.677,1.738
					c0,0.706-0.228,1.291-0.684,1.756c-0.455,0.464-1.029,0.696-1.72,0.696c-0.429,0-0.836-0.097-1.225-0.29
					c-0.388-0.193-0.684-0.477-0.885-0.851C24.671,347.827,24.57,347.372,24.57,346.836z M25.836,346.901
					c0,0.464,0.11,0.818,0.329,1.064c0.221,0.246,0.491,0.369,0.813,0.369s0.593-0.123,0.811-0.369
					c0.219-0.246,0.327-0.604,0.327-1.072c0-0.457-0.108-0.809-0.327-1.055c-0.218-0.246-0.488-0.369-0.811-0.369
					s-0.593,0.123-0.813,0.369C25.946,346.085,25.836,346.439,25.836,346.901z"/>
				<path d="M34.598,349.235h-1.234v-2.382c0-0.504-0.026-0.83-0.079-0.978c-0.053-0.148-0.139-0.263-0.257-0.346
					c-0.119-0.081-0.262-0.123-0.429-0.123c-0.214,0-0.406,0.06-0.575,0.176c-0.171,0.118-0.287,0.273-0.35,0.467
					c-0.063,0.193-0.095,0.551-0.095,1.072v2.113h-1.235v-4.667h1.147v0.686c0.407-0.527,0.92-0.791,1.538-0.791
					c0.272,0,0.521,0.049,0.747,0.147c0.226,0.098,0.396,0.224,0.512,0.375c0.116,0.153,0.196,0.326,0.243,0.52
					c0.045,0.193,0.066,0.47,0.066,0.83V349.235z"/>
				<path d="M37.992,344.568v0.984h-0.844v1.881c0,0.381,0.008,0.603,0.023,0.666c0.016,0.063,0.053,0.115,0.109,0.155
					c0.059,0.042,0.127,0.063,0.209,0.063c0.115,0,0.279-0.04,0.496-0.119l0.105,0.958c-0.287,0.123-0.611,0.185-0.975,0.185
					c-0.223,0-0.424-0.037-0.602-0.112c-0.18-0.074-0.311-0.171-0.395-0.29c-0.082-0.118-0.141-0.279-0.174-0.48
					c-0.025-0.144-0.039-0.434-0.039-0.871v-2.034h-0.566v-0.984h0.566v-0.927l1.24-0.721v1.647H37.992z"/>
				<path d="M40.031,349.235h-1.234v-4.667h1.146v0.663c0.195-0.313,0.373-0.52,0.529-0.619s0.334-0.149,0.533-0.149
					c0.281,0,0.553,0.078,0.814,0.233l-0.383,1.076c-0.209-0.135-0.402-0.202-0.58-0.202c-0.174,0-0.32,0.048-0.439,0.143
					c-0.121,0.096-0.215,0.268-0.283,0.517c-0.07,0.249-0.104,0.771-0.104,1.564V349.235z"/>
				<path d="M42.067,346.836c0-0.41,0.1-0.807,0.303-1.19c0.201-0.384,0.488-0.678,0.859-0.879c0.371-0.203,0.783-0.304,1.24-0.304
					c0.707,0,1.285,0.229,1.736,0.688c0.451,0.459,0.678,1.038,0.678,1.738c0,0.706-0.229,1.291-0.684,1.756
					c-0.455,0.464-1.029,0.696-1.721,0.696c-0.428,0-0.836-0.097-1.225-0.29c-0.387-0.193-0.684-0.477-0.885-0.851
					C42.166,347.827,42.067,347.372,42.067,346.836z M43.332,346.901c0,0.464,0.109,0.818,0.328,1.064
					c0.221,0.246,0.492,0.369,0.814,0.369s0.592-0.123,0.811-0.369s0.326-0.604,0.326-1.072c0-0.457-0.107-0.809-0.326-1.055
					s-0.488-0.369-0.811-0.369s-0.594,0.123-0.814,0.369C43.442,346.085,43.332,346.439,43.332,346.901z"/>
				<path d="M47.85,349.235v-6.442h1.234v6.442H47.85z"/>
				<g id="_x3C_Group_x3E__2_">
					
						<path id="path1381" inkscape:connector-curvature="0" fill="none" stroke="#000000" stroke-width="3" stroke-linecap="round" stroke-linejoin="bevel" stroke-miterlimit="10" d="
						M39.557,329.028H22.595c-0.83,0-1.502-0.684-1.502-1.51v-14.293c0-0.824,0.672-1.5,1.502-1.5h22.536
						c0.826,0,1.508,0.676,1.508,1.5v14.293c0,0.826-0.682,1.51-1.508,1.51H39.557"/>
					
						<line id="line1383" fill="none" stroke="#000000" stroke-width="2" stroke-linecap="round" stroke-linejoin="bevel" stroke-miterlimit="10" x1="34.682" y1="315.548" x2="24.73" y2="323.641"/>
					
						<line id="line1385" fill="none" stroke="#000000" stroke-width="2" stroke-linecap="round" stroke-linejoin="bevel" stroke-miterlimit="10" x1="34.682" y1="318.6" x2="28.485" y2="323.641"/>
					
						<line id="line1387" fill="none" stroke="#000000" stroke-width="2" stroke-linecap="round" stroke-linejoin="bevel" stroke-miterlimit="10" x1="31.584" y1="315.091" x2="24.591" y2="320.774"/>
				</g>
			</g>
		</g>
	</g>
	<g id="cdpButtonStyle2">
		<rect x="-0.89" y="218.745" fill="none" width="69" height="69"/>
		<g>
			<g>
				
					<linearGradient id="SVGID_6_" gradientUnits="userSpaceOnUse" x1="-33.7502" y1="-1455.2795" x2="0.7242" y2="-1489.754" gradientTransform="matrix(1 0 0 -1 50.1001 -1219.2954)">
					<stop  offset="0" style="stop-color:#212223"/>
					<stop  offset="0.5529" style="stop-color:#2A2B2B"/>
					<stop  offset="0.9895" style="stop-color:#666868"/>
				</linearGradient>
				<path fill="url(#SVGID_6_)" d="M68.11,253.245c0-19.02-15.477-34.5-34.5-34.5s-34.5,15.48-34.5,34.5
					c0,19.023,15.477,34.5,34.5,34.5S68.11,272.27,68.11,253.245z M1.123,253.245c0-17.939,14.543-32.486,32.486-32.486
					s32.486,14.547,32.486,32.486c0,17.943-14.543,32.488-32.486,32.488S1.123,271.19,1.123,253.245z"/>
				<g>
					
						<linearGradient id="SVGID_7_" gradientUnits="userSpaceOnUse" x1="-84.7102" y1="805.8689" x2="-84.7102" y2="740.8943" gradientTransform="matrix(1 0 0 1 118.3203 -520.1357)">
						<stop  offset="0" style="stop-color:#2E9715"/>
						<stop  offset="1" style="stop-color:#266914"/>
					</linearGradient>
					<path fill="url(#SVGID_7_)" d="M66.096,253.245c0,17.943-14.545,32.488-32.486,32.488S1.123,271.188,1.123,253.245
						c0-17.939,14.545-32.486,32.486-32.486S66.096,235.305,66.096,253.245"/>
					
						<linearGradient id="SVGID_8_" gradientUnits="userSpaceOnUse" x1="-84.7102" y1="805.8689" x2="-84.7102" y2="740.8943" gradientTransform="matrix(1 0 0 1 118.3203 -520.1357)">
						<stop  offset="0" style="stop-color:#2E9715"/>
						<stop  offset="1" style="stop-color:#266914"/>
					</linearGradient>
					<path opacity="0.4" fill="url(#SVGID_8_)" enable-background="new    " d="M66.096,253.245
						c0,17.943-14.545,32.488-32.486,32.488S1.123,271.188,1.123,253.245c0-17.939,14.545-32.486,32.486-32.486
						S66.096,235.305,66.096,253.245"/>
				</g>
				
					<linearGradient id="SVGID_9_" gradientUnits="userSpaceOnUse" x1="-55.7107" y1="773.3806" x2="-113.7107" y2="773.3806" gradientTransform="matrix(1 0 0 1 118.3203 -520.1357)">
					<stop  offset="0" style="stop-color:#707070"/>
					<stop  offset="1" style="stop-color:#B2B2B2"/>
				</linearGradient>
				<circle fill="url(#SVGID_9_)" cx="33.61" cy="253.245" r="29"/>
				
					<linearGradient id="SVGID_10_" gradientUnits="userSpaceOnUse" x1="-44.5769" y1="-1459.6555" x2="-13.3738" y2="-1459.6555" gradientTransform="matrix(1 0 0 -1 50.1001 -1219.2954)">
					<stop  offset="0" style="stop-color:#A6A6A6"/>
					<stop  offset="0.5" style="stop-color:#CCCCCC"/>
					<stop  offset="1" style="stop-color:#999999"/>
				</linearGradient>
				<path fill="url(#SVGID_10_)" d="M33.61,224.245c-16.018,0-29,12.984-29,29c0,4.396,0.789,4.217,0.789,0
					c0-14.451,13.455-27.924,28.209-27.924C38.643,225.321,38.877,224.245,33.61,224.245z"/>
			</g>
			<g>
				<path d="M17.104,262.696v-6.443h2.738c0.688,0,1.189,0.059,1.5,0.174c0.313,0.115,0.563,0.322,0.75,0.617
					c0.188,0.297,0.281,0.635,0.281,1.016c0,0.484-0.143,0.883-0.426,1.197c-0.285,0.314-0.709,0.514-1.275,0.596
					c0.281,0.164,0.514,0.344,0.697,0.541c0.184,0.195,0.43,0.545,0.74,1.045l0.787,1.258H21.34l-0.939-1.402
					c-0.334-0.5-0.563-0.816-0.686-0.947s-0.254-0.219-0.391-0.268c-0.139-0.049-0.357-0.072-0.656-0.072h-0.264v2.689H17.104z
					 M18.405,258.977h0.963c0.625,0,1.014-0.025,1.17-0.078c0.154-0.053,0.275-0.145,0.363-0.273s0.133-0.289,0.133-0.482
					c0-0.217-0.059-0.393-0.174-0.525s-0.279-0.217-0.49-0.252c-0.105-0.016-0.422-0.023-0.949-0.023h-1.016V258.977z"/>
				<path d="M26.293,261.21l1.23,0.207c-0.158,0.451-0.408,0.795-0.748,1.031c-0.342,0.234-0.77,0.354-1.281,0.354
					c-0.813,0-1.412-0.266-1.803-0.795c-0.307-0.426-0.461-0.961-0.461-1.609c0-0.773,0.203-1.379,0.607-1.816
					c0.404-0.439,0.914-0.658,1.533-0.658c0.693,0,1.242,0.23,1.643,0.688c0.402,0.459,0.594,1.162,0.576,2.107h-3.094
					c0.01,0.367,0.107,0.652,0.299,0.855c0.189,0.203,0.428,0.305,0.713,0.305c0.193,0,0.355-0.053,0.486-0.158
					C26.127,261.614,26.227,261.444,26.293,261.21z M26.364,259.962c-0.008-0.357-0.1-0.629-0.275-0.814s-0.391-0.279-0.643-0.279
					c-0.27,0-0.492,0.098-0.668,0.295c-0.176,0.195-0.262,0.463-0.26,0.799H26.364z"/>
				<path d="M28.598,262.696v-6.443h1.234v6.443H28.598z"/>
				<path d="M33.799,261.21l1.23,0.207c-0.158,0.451-0.408,0.795-0.748,1.031c-0.342,0.234-0.77,0.354-1.281,0.354
					c-0.813,0-1.412-0.266-1.803-0.795c-0.307-0.426-0.461-0.961-0.461-1.609c0-0.773,0.203-1.379,0.607-1.816
					c0.404-0.439,0.914-0.658,1.533-0.658c0.693,0,1.242,0.23,1.643,0.688c0.402,0.459,0.594,1.162,0.576,2.107h-3.094
					c0.01,0.367,0.107,0.652,0.299,0.855c0.189,0.203,0.428,0.305,0.713,0.305c0.193,0,0.355-0.053,0.486-0.158
					C33.633,261.614,33.733,261.444,33.799,261.21z M33.869,259.962c-0.008-0.357-0.1-0.629-0.275-0.814s-0.391-0.279-0.643-0.279
					c-0.27,0-0.492,0.098-0.668,0.295c-0.176,0.195-0.262,0.463-0.26,0.799H33.869z"/>
				<path d="M37.026,259.452l-1.121-0.201c0.127-0.451,0.344-0.785,0.65-1.002c0.309-0.217,0.766-0.326,1.371-0.326
					c0.551,0,0.961,0.066,1.23,0.195c0.27,0.131,0.459,0.297,0.57,0.498c0.109,0.199,0.164,0.568,0.164,1.105l-0.014,1.441
					c0,0.41,0.02,0.711,0.061,0.906c0.039,0.195,0.113,0.404,0.221,0.627h-1.221c-0.033-0.082-0.072-0.203-0.119-0.365
					c-0.021-0.072-0.035-0.121-0.043-0.145c-0.211,0.205-0.438,0.359-0.678,0.461s-0.496,0.154-0.77,0.154
					c-0.48,0-0.859-0.131-1.135-0.391c-0.277-0.262-0.416-0.592-0.416-0.99c0-0.264,0.063-0.498,0.189-0.705
					c0.125-0.207,0.303-0.365,0.529-0.475s0.555-0.205,0.982-0.287c0.576-0.109,0.977-0.209,1.199-0.303v-0.123
					c0-0.238-0.059-0.408-0.176-0.508c-0.117-0.102-0.338-0.152-0.664-0.152c-0.219,0-0.391,0.043-0.514,0.129
					C37.201,259.085,37.102,259.235,37.026,259.452z M38.678,260.454c-0.158,0.053-0.408,0.117-0.752,0.189
					c-0.342,0.074-0.566,0.145-0.672,0.215c-0.162,0.115-0.242,0.26-0.242,0.436c0,0.174,0.064,0.322,0.193,0.449
					c0.129,0.125,0.293,0.188,0.492,0.188c0.223,0,0.436-0.072,0.639-0.219c0.148-0.111,0.246-0.248,0.293-0.408
					c0.033-0.105,0.049-0.307,0.049-0.604V260.454z"/>
				<path d="M40.674,261.364l1.238-0.189c0.053,0.24,0.16,0.424,0.322,0.547c0.16,0.125,0.387,0.188,0.676,0.188
					c0.318,0,0.559-0.059,0.721-0.176c0.107-0.082,0.162-0.191,0.162-0.33c0-0.094-0.029-0.17-0.088-0.232
					c-0.061-0.059-0.199-0.113-0.412-0.162c-0.996-0.221-1.629-0.42-1.895-0.602c-0.369-0.252-0.553-0.604-0.553-1.051
					c0-0.404,0.158-0.744,0.479-1.02c0.318-0.275,0.814-0.414,1.484-0.414c0.639,0,1.113,0.105,1.424,0.313
					c0.311,0.209,0.525,0.516,0.643,0.924l-1.164,0.215c-0.051-0.182-0.145-0.32-0.285-0.418c-0.139-0.096-0.338-0.145-0.594-0.145
					c-0.326,0-0.559,0.045-0.699,0.137c-0.094,0.064-0.141,0.146-0.141,0.25c0,0.088,0.041,0.162,0.123,0.225
					c0.111,0.082,0.496,0.197,1.152,0.346c0.658,0.15,1.117,0.334,1.379,0.551c0.258,0.219,0.387,0.525,0.387,0.918
					c0,0.428-0.18,0.795-0.537,1.104c-0.357,0.307-0.887,0.461-1.586,0.461c-0.637,0-1.139-0.129-1.51-0.387
					S40.787,261.807,40.674,261.364z"/>
				<path d="M48.817,261.21l1.23,0.207c-0.158,0.451-0.408,0.795-0.748,1.031c-0.342,0.234-0.77,0.354-1.281,0.354
					c-0.813,0-1.412-0.266-1.803-0.795c-0.307-0.426-0.461-0.961-0.461-1.609c0-0.773,0.203-1.379,0.607-1.816
					c0.404-0.439,0.914-0.658,1.533-0.658c0.693,0,1.242,0.23,1.643,0.688c0.402,0.459,0.594,1.162,0.576,2.107H47.02
					c0.01,0.367,0.107,0.652,0.299,0.855c0.189,0.203,0.428,0.305,0.713,0.305c0.193,0,0.355-0.053,0.486-0.158
					C48.651,261.614,48.75,261.444,48.817,261.21z M48.887,259.962c-0.008-0.357-0.1-0.629-0.275-0.814s-0.391-0.279-0.643-0.279
					c-0.27,0-0.492,0.098-0.668,0.295c-0.176,0.195-0.262,0.463-0.26,0.799H48.887z"/>
				<path d="M22.24,269.327l1.26,0.4c-0.193,0.703-0.514,1.225-0.965,1.566c-0.449,0.342-1.02,0.512-1.711,0.512
					c-0.855,0-1.559-0.293-2.109-0.877s-0.826-1.383-0.826-2.396c0-1.072,0.277-1.906,0.83-2.498
					c0.555-0.594,1.281-0.891,2.186-0.891c0.787,0,1.428,0.232,1.92,0.699c0.293,0.275,0.512,0.67,0.658,1.186l-1.287,0.309
					c-0.076-0.334-0.234-0.598-0.477-0.791s-0.535-0.291-0.881-0.291c-0.479,0-0.865,0.172-1.162,0.516
					c-0.299,0.342-0.447,0.896-0.447,1.664c0,0.814,0.146,1.395,0.439,1.74s0.674,0.52,1.143,0.52c0.346,0,0.643-0.109,0.893-0.33
					C21.951,270.145,22.131,269.8,22.24,269.327z"/>
				<path d="M24.323,269.296c0-0.41,0.102-0.807,0.305-1.189c0.201-0.385,0.488-0.678,0.857-0.879
					c0.371-0.203,0.785-0.305,1.242-0.305c0.705,0,1.285,0.23,1.736,0.688c0.451,0.459,0.676,1.039,0.676,1.738
					c0,0.707-0.227,1.291-0.684,1.756c-0.455,0.465-1.029,0.697-1.719,0.697c-0.43,0-0.836-0.098-1.225-0.291
					s-0.684-0.477-0.885-0.85C24.424,270.288,24.323,269.833,24.323,269.296z M25.588,269.362c0,0.463,0.111,0.818,0.33,1.064
					c0.221,0.246,0.49,0.369,0.813,0.369s0.594-0.123,0.811-0.369c0.219-0.246,0.328-0.604,0.328-1.072
					c0-0.457-0.109-0.809-0.328-1.055c-0.217-0.246-0.488-0.369-0.811-0.369s-0.592,0.123-0.813,0.369
					C25.699,268.546,25.588,268.899,25.588,269.362z"/>
				<path d="M34.352,271.696h-1.234v-2.383c0-0.504-0.027-0.83-0.08-0.977c-0.053-0.148-0.139-0.264-0.256-0.346
					c-0.119-0.082-0.262-0.123-0.43-0.123c-0.213,0-0.406,0.059-0.574,0.176c-0.172,0.117-0.287,0.273-0.35,0.467
					c-0.064,0.193-0.096,0.551-0.096,1.072v2.113h-1.234v-4.668h1.146v0.686c0.408-0.527,0.92-0.791,1.539-0.791
					c0.271,0,0.521,0.049,0.746,0.148c0.227,0.098,0.396,0.223,0.512,0.375c0.117,0.152,0.197,0.326,0.242,0.52
					s0.068,0.469,0.068,0.83V271.696z"/>
				<path d="M37.744,267.028v0.984h-0.844v1.881c0,0.381,0.008,0.604,0.025,0.666c0.016,0.063,0.053,0.115,0.109,0.156
					s0.127,0.063,0.209,0.063c0.113,0,0.279-0.041,0.496-0.119l0.105,0.957c-0.287,0.123-0.613,0.186-0.975,0.186
					c-0.225,0-0.424-0.037-0.604-0.113c-0.178-0.074-0.309-0.17-0.393-0.289s-0.143-0.279-0.174-0.48
					c-0.025-0.145-0.039-0.434-0.039-0.871v-2.035h-0.566v-0.984h0.566v-0.926l1.238-0.721v1.646H37.744z"/>
				<path d="M39.783,271.696h-1.234v-4.668h1.146v0.664c0.197-0.313,0.373-0.52,0.529-0.619c0.158-0.1,0.336-0.15,0.535-0.15
					c0.281,0,0.551,0.078,0.813,0.234l-0.383,1.076c-0.207-0.135-0.4-0.203-0.58-0.203c-0.172,0-0.318,0.049-0.439,0.143
					c-0.119,0.096-0.215,0.268-0.283,0.518c-0.068,0.248-0.104,0.77-0.104,1.564V271.696z"/>
				<path d="M41.819,269.296c0-0.41,0.102-0.807,0.305-1.189c0.201-0.385,0.488-0.678,0.857-0.879
					c0.371-0.203,0.785-0.305,1.242-0.305c0.705,0,1.285,0.23,1.736,0.688c0.451,0.459,0.676,1.039,0.676,1.738
					c0,0.707-0.227,1.291-0.684,1.756c-0.455,0.465-1.029,0.697-1.719,0.697c-0.43,0-0.836-0.098-1.225-0.291
					s-0.684-0.477-0.885-0.85C41.92,270.288,41.819,269.833,41.819,269.296z M43.084,269.362c0,0.463,0.111,0.818,0.33,1.064
					c0.221,0.246,0.49,0.369,0.813,0.369s0.594-0.123,0.811-0.369c0.219-0.246,0.328-0.604,0.328-1.072
					c0-0.457-0.109-0.809-0.328-1.055c-0.217-0.246-0.488-0.369-0.811-0.369s-0.592,0.123-0.813,0.369
					C43.196,268.546,43.084,268.899,43.084,269.362z"/>
				<path d="M47.604,271.696v-6.443h1.234v6.443H47.604z"/>
				<g id="_x3C_Group_x3E__1_">
					
						<path id="path1381_1_" inkscape:connector-curvature="0" fill="none" stroke="#000000" stroke-width="3" stroke-linecap="round" stroke-linejoin="bevel" stroke-miterlimit="10" d="
						M39.229,251.989H22.268c-0.83,0-1.502-0.684-1.502-1.51v-14.293c0-0.824,0.672-1.5,1.502-1.5h22.535
						c0.826,0,1.508,0.676,1.508,1.5v14.293c0,0.826-0.682,1.51-1.508,1.51H39.229"/>
					
						<line id="line1383_1_" fill="none" stroke="#000000" stroke-width="2" stroke-linecap="round" stroke-linejoin="bevel" stroke-miterlimit="10" x1="34.354" y1="238.509" x2="24.403" y2="246.602"/>
					
						<line id="line1385_1_" fill="none" stroke="#000000" stroke-width="2" stroke-linecap="round" stroke-linejoin="bevel" stroke-miterlimit="10" x1="34.354" y1="241.561" x2="28.156" y2="246.602"/>
					
						<line id="line1387_1_" fill="none" stroke="#000000" stroke-width="2" stroke-linecap="round" stroke-linejoin="bevel" stroke-miterlimit="10" x1="31.256" y1="238.052" x2="24.262" y2="243.735"/>
				</g>
			</g>
		</g>
	</g>
	<g id="cdpButtonStyle1">
		<rect x="-0.29" y="146.035" fill="none" width="69" height="69"/>
		<g id="_x3C_Group_x3E_">
			<g>
				<path d="M22.369,197.552v-6.442h2.737c0.688,0,1.189,0.058,1.501,0.174c0.313,0.115,0.562,0.321,0.749,0.617
					s0.281,0.635,0.281,1.015c0,0.484-0.142,0.883-0.426,1.198c-0.284,0.314-0.709,0.514-1.274,0.595
					c0.281,0.165,0.514,0.345,0.696,0.541c0.184,0.196,0.43,0.545,0.74,1.046l0.787,1.257h-1.556l-0.94-1.402
					c-0.334-0.5-0.563-0.816-0.686-0.946c-0.123-0.131-0.254-0.22-0.391-0.269c-0.139-0.048-0.356-0.072-0.655-0.072H23.67v2.689
					H22.369z M23.67,193.835h0.962c0.625,0,1.014-0.026,1.17-0.079c0.154-0.053,0.276-0.144,0.364-0.272s0.132-0.29,0.132-0.483
					c0-0.217-0.058-0.392-0.174-0.525c-0.115-0.133-0.279-0.217-0.49-0.252c-0.105-0.015-0.422-0.022-0.949-0.022H23.67V193.835z"/>
				<path d="M29.779,194.309l-1.12-0.202c0.126-0.451,0.343-0.785,0.65-1.002s0.765-0.325,1.371-0.325
					c0.551,0,0.961,0.065,1.23,0.195c0.27,0.131,0.459,0.296,0.569,0.497c0.109,0.2,0.164,0.568,0.164,1.105l-0.013,1.441
					c0,0.41,0.02,0.712,0.06,0.907c0.039,0.194,0.113,0.403,0.222,0.626h-1.222c-0.032-0.082-0.072-0.203-0.119-0.365
					c-0.021-0.072-0.035-0.121-0.043-0.145c-0.211,0.205-0.438,0.359-0.678,0.461c-0.24,0.103-0.496,0.154-0.769,0.154
					c-0.48,0-0.859-0.13-1.136-0.391c-0.277-0.261-0.416-0.591-0.416-0.989c0-0.264,0.063-0.499,0.189-0.705
					c0.126-0.207,0.303-0.365,0.529-0.475c0.228-0.11,0.555-0.206,0.982-0.288c0.577-0.108,0.977-0.209,1.199-0.303v-0.123
					c0-0.238-0.059-0.407-0.176-0.508c-0.117-0.102-0.338-0.152-0.663-0.152c-0.22,0-0.392,0.044-0.515,0.13
					C29.954,193.941,29.855,194.093,29.779,194.309z M31.431,195.311c-0.158,0.053-0.408,0.116-0.751,0.188
					c-0.343,0.074-0.567,0.146-0.673,0.216c-0.161,0.114-0.241,0.259-0.241,0.435c0,0.174,0.064,0.323,0.193,0.449
					s0.293,0.188,0.492,0.188c0.223,0,0.435-0.073,0.638-0.22c0.148-0.111,0.247-0.247,0.294-0.408
					c0.032-0.105,0.048-0.307,0.048-0.603V195.311z"/>
				<path d="M38.141,197.552h-1.146v-0.686c-0.19,0.267-0.415,0.465-0.675,0.596c-0.259,0.13-0.521,0.195-0.784,0.195
					c-0.536,0-0.995-0.216-1.378-0.648c-0.382-0.432-0.573-1.035-0.573-1.809c0-0.791,0.186-1.392,0.559-1.804
					c0.371-0.411,0.842-0.617,1.41-0.617c0.521,0,0.973,0.217,1.354,0.65v-2.32h1.234V197.552z M34.846,195.118
					c0,0.498,0.068,0.858,0.206,1.081c0.199,0.322,0.478,0.483,0.835,0.483c0.284,0,0.525-0.121,0.725-0.362
					c0.199-0.242,0.299-0.603,0.299-1.084c0-0.535-0.096-0.922-0.289-1.157c-0.193-0.236-0.441-0.354-0.743-0.354
					c-0.293,0-0.538,0.117-0.736,0.35C34.945,194.307,34.846,194.655,34.846,195.118z"/>
				<path d="M39.359,192.253v-1.143h1.234v1.143H39.359z M39.359,197.552v-4.667h1.234v4.667H39.359z"/>
				<path d="M41.573,195.153c0-0.41,0.101-0.807,0.304-1.19c0.201-0.384,0.488-0.678,0.858-0.879
					c0.371-0.203,0.784-0.304,1.241-0.304c0.706,0,1.285,0.229,1.736,0.688c0.451,0.459,0.677,1.038,0.677,1.738
					c0,0.706-0.228,1.291-0.684,1.756c-0.455,0.464-1.029,0.696-1.72,0.696c-0.429,0-0.836-0.097-1.225-0.29
					c-0.388-0.193-0.684-0.477-0.885-0.851C41.674,196.144,41.573,195.689,41.573,195.153z M42.839,195.219
					c0,0.464,0.11,0.818,0.329,1.064c0.221,0.246,0.491,0.369,0.813,0.369s0.593-0.123,0.811-0.369
					c0.219-0.246,0.327-0.604,0.327-1.072c0-0.457-0.108-0.809-0.327-1.055c-0.218-0.246-0.488-0.369-0.811-0.369
					s-0.593,0.123-0.813,0.369C42.949,194.402,42.839,194.757,42.839,195.219z"/>
			</g>
			<path id="path375_2_" inkscape:connector-curvature="0" d="M44.013,167.373c-0.268,0-0.516-0.141-0.66-0.381
				c-1.879-3.289-5.385-5.326-9.143-5.326c-3.756,0-7.264,2.037-9.143,5.326c-0.211,0.369-0.678,0.492-1.045,0.278
				c-0.365-0.212-0.488-0.682-0.273-1.048c2.152-3.764,6.164-6.094,10.461-6.094c4.297,0,8.309,2.33,10.463,6.094
				c0.213,0.366,0.09,0.834-0.271,1.048C44.275,167.338,44.142,167.373,44.013,167.373L44.013,167.373z"/>
			<path id="path377_2_" inkscape:connector-curvature="0" d="M27.048,168.914c-0.127,0-0.26-0.036-0.383-0.103
				c-0.361-0.213-0.488-0.686-0.273-1.055c1.609-2.809,4.609-4.555,7.82-4.555c3.213,0,6.208,1.746,7.823,4.555
				c0.211,0.369,0.09,0.841-0.271,1.055c-0.367,0.211-0.834,0.08-1.047-0.287c-1.338-2.333-3.83-3.783-6.504-3.783
				c-2.674,0-5.162,1.45-6.502,3.783C27.563,168.774,27.311,168.914,27.048,168.914z"/>
			<path id="path381_2_" inkscape:connector-curvature="0" d="M38.732,170.446c-0.264,0-0.514-0.134-0.658-0.383
				c-0.793-1.385-2.275-2.254-3.864-2.254c-1.592,0-3.07,0.869-3.863,2.254c-0.211,0.367-0.682,0.489-1.047,0.277
				c-0.361-0.211-0.482-0.681-0.271-1.049c1.064-1.858,3.053-3.013,5.184-3.013c2.125,0,4.118,1.154,5.18,3.013
				c0.211,0.368,0.09,0.838-0.27,1.049C38.995,170.417,38.865,170.446,38.732,170.446L38.732,170.446z"/>
			<path id="path383_2_" inkscape:connector-curvature="0" d="M26.37,174.95c-1.924,0-3.484,1.57-3.484,3.512
				c0,1.94,1.563,3.507,3.484,3.507c1.926,0,3.484-1.566,3.484-3.507C29.854,176.52,28.294,174.95,26.37,174.95z M42.052,174.95
				c-1.926,0-3.484,1.57-3.484,3.512c0,1.94,1.563,3.507,3.484,3.507s3.482-1.566,3.482-3.507
				C45.534,176.52,43.976,174.95,42.052,174.95z M36.386,174.069h-4.35v3.517h4.35V174.069z M34.21,183.734
				c-0.725,0-1.305,0.583-1.305,1.318c0,0.72,0.58,1.314,1.305,1.314s1.305-0.595,1.305-1.314
				C35.515,184.317,34.934,183.734,34.21,183.734z M38.566,183.734c-0.725,0-1.311,0.583-1.311,1.318c0,0.72,0.58,1.314,1.311,1.314
				c0.721,0,1.303-0.595,1.303-1.314C39.868,184.317,39.286,183.734,38.566,183.734z M42.925,183.734
				c-0.727,0-1.316,0.583-1.316,1.318c0,0.72,0.59,1.314,1.316,1.314c0.711,0,1.299-0.595,1.299-1.314
				C44.224,184.317,43.636,183.734,42.925,183.734z M29.854,183.734c-0.719,0-1.303,0.583-1.303,1.318
				c0,0.72,0.584,1.314,1.303,1.314c0.725,0,1.311-0.595,1.311-1.314C31.165,184.317,30.579,183.734,29.854,183.734z
				 M25.497,183.734c-0.713,0-1.301,0.583-1.301,1.318c0,0.72,0.586,1.314,1.301,1.314c0.727,0,1.314-0.595,1.314-1.314
				C26.811,184.317,26.223,183.734,25.497,183.734z M47.71,172.316v15.804h-27v-15.804h11.326l0,0c0-1.213,0.973-2.198,2.174-2.198
				c1.2,0,2.176,0.985,2.176,2.198l0,0H47.71z"/>
		</g>
	</g>
</g>
</svg>
