<?xml version="1.0" encoding="utf-8"?>
<!-- Generator: Adobe Illustrator 21.0.2, SVG Export Plug-In . SVG Version: 6.00 Build 0)  -->
<svg version="1.1" id="svg" xmlns="http://www.w3.org/2000/svg" xmlns:xlink="http://www.w3.org/1999/xlink" x="0px" y="0px"
	 viewBox="0 0 100 40" enable-background="new 0 0 100 40" xml:space="preserve">
<g id="Layer1">
	<rect id="back" x="-11.3" y="-6.5" display="none" fill="#333333" width="117.3" height="51"/>
	<rect id="cdpBorderMarginTopLeft" fill="none" width="14" height="14"/>
	<rect id="cdpBorderMarginBottomRight" x="86" y="26" fill="none" width="14" height="14"/>
	<g id="cdpButton">
		<g>
			<g>
				
					<linearGradient id="SVGID_1_" gradientUnits="userSpaceOnUse" x1="38.8806" y1="50.5503" x2="61.1194" y2="-10.5503" gradientTransform="matrix(1 0 0 -1 0 40)">
					<stop  offset="0.3208" style="stop-color:#0D0D0D;stop-opacity:0.28"/>
					<stop  offset="0.8243" style="stop-color:#FFFFFF;stop-opacity:4.000000e-02"/>
				</linearGradient>
				<path fill="url(#SVGID_1_)" d="M100,28c0,6.6-5.4,12-12,12H12C5.4,40,0,34.6,0,28V12C0,5.4,5.4,0,12,0h76c6.6,0,12,5.4,12,12V28
					z"/>
			</g>
			<g>
				<path fill="#1E1E1E" d="M98.5,27.5c0,6-4.9,11-11,11h-75c-6.1,0-11-5-11-11v-15c0-6.1,4.9-11,11-11h75c6.1,0,11,4.9,11,11V27.5z
					"/>
			</g>
			<g display="none">
				
					<linearGradient id="SVGID_2_" gradientUnits="userSpaceOnUse" x1="50" y1="5" x2="50" y2="35" gradientTransform="matrix(1 0 0 -1 0 40)">
					<stop  offset="0" style="stop-color:#2C2C2C"/>
					<stop  offset="1" style="stop-color:#515151"/>
				</linearGradient>
				<path display="inline" fill="url(#SVGID_2_)" d="M95,27c0,4.4-3.6,8-8,8H13c-4.4,0-8-3.6-8-8V13c0-4.4,3.6-8,8-8h74
					c4.4,0,8,3.6,8,8V27z"/>
			</g>
			<g display="none">
				<g display="inline">
					
						<linearGradient id="SVGID_3_" gradientUnits="userSpaceOnUse" x1="50" y1="35" x2="50" y2="5.5" gradientTransform="matrix(1 0 0 -1 0 40)">
						<stop  offset="0" style="stop-color:#919191"/>
						<stop  offset="2.299604e-02" style="stop-color:#888888"/>
						<stop  offset="9.317544e-02" style="stop-color:#727272"/>
						<stop  offset="0.1761" style="stop-color:#616161"/>
						<stop  offset="0.2786" style="stop-color:#565656"/>
						<stop  offset="0.4224" style="stop-color:#4F4F4F"/>
						<stop  offset="0.8218" style="stop-color:#4D4D4D"/>
					</linearGradient>
					<path fill="url(#SVGID_3_)" d="M95,26.5c0,4.4-3.6,8-8,8H13c-4.4,0-8-3.6-8-8V13c0-4.4,3.6-8,8-8h74c4.4,0,8,3.6,8,8V26.5z"/>
				</g>
				<g display="inline">
					
						<linearGradient id="SVGID_4_" gradientUnits="userSpaceOnUse" x1="50" y1="5" x2="50" y2="34" gradientTransform="matrix(1 0 0 -1 0 40)">
						<stop  offset="0" style="stop-color:#2C2C2C"/>
						<stop  offset="1" style="stop-color:#515151"/>
					</linearGradient>
					<path fill="url(#SVGID_4_)" d="M95,27c0,4.4-3.6,8-8,8H13c-4.4,0-8-3.6-8-8V14c0-4.4,3.6-8,8-8h74c4.4,0,8,3.6,8,8V27z"/>
				</g>
			</g>
			<g>
				
					<linearGradient id="SVGID_5_" gradientUnits="userSpaceOnUse" x1="50" y1="35" x2="50" y2="5.5" gradientTransform="matrix(1 0 0 -1 0 40)">
					<stop  offset="0" style="stop-color:#919191"/>
					<stop  offset="2.299604e-02" style="stop-color:#888888"/>
					<stop  offset="9.317544e-02" style="stop-color:#727272"/>
					<stop  offset="0.1761" style="stop-color:#616161"/>
					<stop  offset="0.2786" style="stop-color:#565656"/>
					<stop  offset="0.4224" style="stop-color:#4F4F4F"/>
					<stop  offset="0.8218" style="stop-color:#4D4D4D"/>
				</linearGradient>
				<path display="none" fill="url(#SVGID_5_)" d="M95,26.5c0,4.4-3.6,8-8,8H13c-4.4,0-8-3.6-8-8V13c0-4.4,3.6-8,8-8h74
					c4.4,0,8,3.6,8,8V26.5z"/>
				
					<linearGradient id="SVGID_6_" gradientUnits="userSpaceOnUse" x1="50" y1="5" x2="50" y2="34" gradientTransform="matrix(1 0 0 -1 0 40)">
					<stop  offset="0" style="stop-color:#2C2C2C"/>
					<stop  offset="1" style="stop-color:#515151"/>
				</linearGradient>
				<path display="none" fill="url(#SVGID_6_)" d="M95,27c0,4.4-3.6,8-8,8H13c-4.4,0-8-3.6-8-8V14c0-4.4,3.6-8,8-8h74
					c4.4,0,8,3.6,8,8V27z"/>
			</g>
		</g>
		<g display="none">
			<linearGradient id="SVGID_7_" gradientUnits="userSpaceOnUse" x1="50" y1="5" x2="50" y2="34.5">
				<stop  offset="0" style="stop-color:#919191"/>
				<stop  offset="2.299604e-02" style="stop-color:#888888"/>
				<stop  offset="9.317544e-02" style="stop-color:#727272"/>
				<stop  offset="0.1761" style="stop-color:#616161"/>
				<stop  offset="0.2786" style="stop-color:#565656"/>
				<stop  offset="0.4224" style="stop-color:#4F4F4F"/>
				<stop  offset="0.8218" style="stop-color:#4D4D4D"/>
			</linearGradient>
			<rect x="5" y="5" display="inline" fill="url(#SVGID_7_)" width="90" height="29.5"/>
			<linearGradient id="SVGID_8_" gradientUnits="userSpaceOnUse" x1="50" y1="35" x2="50" y2="6">
				<stop  offset="0" style="stop-color:#2C2C2C"/>
				<stop  offset="1" style="stop-color:#515151"/>
			</linearGradient>
			<rect x="5" y="6" display="inline" fill="url(#SVGID_8_)" width="90" height="29"/>
		</g>
		<g>
			<g>
				<g>
					<linearGradient id="SVGID_9_" gradientUnits="userSpaceOnUse" x1="50" y1="5" x2="50" y2="34.5">
						<stop  offset="0" style="stop-color:#919191"/>
						<stop  offset="2.299604e-02" style="stop-color:#888888"/>
						<stop  offset="9.317544e-02" style="stop-color:#727272"/>
						<stop  offset="0.1761" style="stop-color:#616161"/>
						<stop  offset="0.2786" style="stop-color:#565656"/>
						<stop  offset="0.4224" style="stop-color:#4F4F4F"/>
						<stop  offset="0.8218" style="stop-color:#4D4D4D"/>
					</linearGradient>
					<path fill="url(#SVGID_9_)" d="M95,25.5c0,5-4.1,9-9,9H14c-4.9,0-9-4-9-9V14c0-4.9,4.1-9,9-9h72c4.9,0,9,4.1,9,9V25.5z"/>
				</g>
				<g>
					<linearGradient id="SVGID_10_" gradientUnits="userSpaceOnUse" x1="50" y1="35" x2="50" y2="6">
						<stop  offset="0" style="stop-color:#2C2C2C"/>
						<stop  offset="1" style="stop-color:#515151"/>
					</linearGradient>
					<path fill="url(#SVGID_10_)" d="M95,26c0,5-4.1,9-9,9H14c-4.9,0-9-4-9-9V15c0-4.9,4.1-9,9-9h72c4.9,0,9,4.1,9,9V26z"/>
				</g>
			</g>
		</g>
		<rect fill="none" width="100" height="40"/>
	</g>
	<g id="cdpButtonPressed" display="none">
		<g display="inline">
			<g>
				
					<linearGradient id="SVGID_11_" gradientUnits="userSpaceOnUse" x1="38.8806" y1="50.5503" x2="61.1194" y2="-10.5503" gradientTransform="matrix(1 0 0 -1 0 40)">
					<stop  offset="0.3208" style="stop-color:#0D0D0D;stop-opacity:0.28"/>
					<stop  offset="0.8243" style="stop-color:#FFFFFF;stop-opacity:4.000000e-02"/>
				</linearGradient>
				<path fill="url(#SVGID_11_)" d="M100,28c0,6.6-5.4,12-12,12H12C5.4,40,0,34.6,0,28V12C0,5.4,5.4,0,12,0h76c6.6,0,12,5.4,12,12
					V28z"/>
			</g>
			<g>
				<path fill="#1E1E1E" d="M98.5,27.5c0,6-4.9,11-11,11h-75c-6.1,0-11-5-11-11v-15c0-6.1,4.9-11,11-11h75c6.1,0,11,4.9,11,11V27.5z
					"/>
			</g>
			<g>
				
					<linearGradient id="SVGID_12_" gradientUnits="userSpaceOnUse" x1="50" y1="35" x2="50" y2="5" gradientTransform="matrix(1 0 0 -1 0 40)">
					<stop  offset="0" style="stop-color:#2C2C2C"/>
					<stop  offset="1" style="stop-color:#515151"/>
				</linearGradient>
				<path fill="url(#SVGID_12_)" d="M95,27c0,4.4-3.6,8-8,8H13c-4.4,0-8-3.6-8-8V13c0-4.4,3.6-8,8-8h74c4.4,0,8,3.6,8,8V27z"/>
			</g>
		</g>
		<rect display="inline" fill="none" width="100" height="40"/>
	</g>
	<text id="cdpText" transform="matrix(1 0 0 1 8.415 26)" fill="#C6C6C6" font-family="'ArialMT'" font-size="16px">OVERRIDE</text>
</g>
</svg>
