<?xml version="1.0" encoding="utf-8"?>
<!-- Generator: Adobe Illustrator 15.1.0, SVG Export Plug-In . SVG Version: 6.00 Build 0)  -->
<!DOCTYPE svg PUBLIC "-//W3C//DTD SVG 1.1//EN" "http://www.w3.org/Graphics/SVG/1.1/DTD/svg11.dtd">
<svg version="1.1" id="svg" xmlns="http://www.w3.org/2000/svg" xmlns:xlink="http://www.w3.org/1999/xlink" x="0px" y="0px"
	 width="69.307px" height="74.064px" viewBox="0 0 69.307 74.064" enable-background="new 0 0 69.307 74.064" xml:space="preserve">
<g id="Layer1">
	
		<linearGradient id="bgMenu2_1_" gradientUnits="userSpaceOnUse" x1="-18.2297" y1="-1529.4778" x2="241.7708" y2="-1529.4778" gradientTransform="matrix(1 0 0 -1 -9.02 -1203.481)">
		<stop  offset="0.0073" style="stop-color:#242729"/>
		<stop  offset="0.045" style="stop-color:#282B2C"/>
		<stop  offset="0.3184" style="stop-color:#404142"/>
		<stop  offset="0.4866" style="stop-color:#494A4A"/>
		<stop  offset="0.6668" style="stop-color:#404142"/>
		<stop  offset="0.9597" style="stop-color:#282B2C"/>
		<stop  offset="1" style="stop-color:#242729"/>
	</linearGradient>
	<rect id="bgMenu2" x="-27.25" y="-3.007" fill="url(#bgMenu2_1_)" width="260" height="658.008"/>
	<g id="cdpBackground">
		<rect x="-0.25" y="2.833" fill="none" width="69" height="69"/>
		<g>
			<g>
				<path fill="#1E1E1E" d="M66.736,37.333c0,17.943-14.545,32.488-32.484,32.488c-17.942,0-32.487-14.545-32.487-32.488
					c0-17.94,14.545-32.485,32.487-32.485C52.191,4.846,66.736,19.391,66.736,37.333"/>
				<path opacity="0.4" enable-background="new    " d="M66.736,37.333c0,17.943-14.545,32.488-32.484,32.488
					c-17.942,0-32.487-14.545-32.487-32.488c0-17.94,14.545-32.485,32.487-32.485C52.191,4.846,66.736,19.391,66.736,37.333"/>
			</g>
			
				<linearGradient id="SVGID_1_" gradientUnits="userSpaceOnUse" x1="26.0105" y1="-1223.5535" x2="60.4849" y2="-1258.028" gradientTransform="matrix(1 0 0 -1 -9.02 -1203.481)">
				<stop  offset="0" style="stop-color:#212223"/>
				<stop  offset="0.5529" style="stop-color:#2A2B2B"/>
				<stop  offset="0.9895" style="stop-color:#666868"/>
			</linearGradient>
			<path fill="url(#SVGID_1_)" d="M68.75,37.333c0-19.021-15.479-34.5-34.5-34.5c-19.023,0-34.5,15.479-34.5,34.5
				c0,19.023,15.477,34.5,34.5,34.5C53.273,71.833,68.75,56.356,68.75,37.333z M1.764,37.333c0-17.94,14.543-32.486,32.486-32.486
				c17.941,0,32.484,14.546,32.484,32.486c0,17.943-14.543,32.488-32.484,32.488C16.307,69.821,1.764,55.276,1.764,37.333z"/>
			
				<linearGradient id="SVGID_2_" gradientUnits="userSpaceOnUse" x1="2.2258" y1="821.6541" x2="-52.1257" y2="821.6541" gradientTransform="matrix(1 0 0 1 59.2002 -784.3203)">
				<stop  offset="0" style="stop-color:#707070"/>
				<stop  offset="1" style="stop-color:#B2B2B2"/>
			</linearGradient>
			<circle fill="url(#SVGID_2_)" cx="34.25" cy="37.333" r="27.176"/>
			
				<linearGradient id="SVGID_3_" gradientUnits="userSpaceOnUse" x1="16.9519" y1="-1228.7395" x2="46.1907" y2="-1228.7395" gradientTransform="matrix(1 0 0 -1 -9.02 -1203.481)">
				<stop  offset="0" style="stop-color:#A6A6A6"/>
				<stop  offset="0.5" style="stop-color:#CCCCCC"/>
				<stop  offset="1" style="stop-color:#999999"/>
			</linearGradient>
			<path fill="url(#SVGID_3_)" d="M34.25,10.157c-15.009,0-27.175,12.167-27.175,27.176c0,4.117,0.737,3.953,0.737,0
				c0-13.543,12.608-26.169,26.438-26.169C38.965,11.164,39.188,10.157,34.25,10.157z"/>
		</g>
	</g>
	<g id="cdpButton">
		<rect x="0.307" y="74.064" fill="none" width="69" height="69"/>
		<g>
			<rect x="20.307" y="115.898" fill="#1D1D1B" width="29" height="4.167"/>
			<rect x="33.307" y="103.731" fill="#1D1D1B" width="3" height="11.334"/>
			
				<linearGradient id="SVGID_4_" gradientUnits="userSpaceOnUse" x1="-28.4436" y1="879.4861" x2="-20.3427" y2="884.9502" gradientTransform="matrix(1 0 0 1 59.2002 -784.3203)">
				<stop  offset="0" style="stop-color:#FFFFFF"/>
				<stop  offset="0.0074" style="stop-color:#F6F6F6"/>
				<stop  offset="0.0477" style="stop-color:#C8C8C8"/>
				<stop  offset="0.0931" style="stop-color:#9D9D9D"/>
				<stop  offset="0.1419" style="stop-color:#777777"/>
				<stop  offset="0.195" style="stop-color:#575757"/>
				<stop  offset="0.2537" style="stop-color:#3B3B3B"/>
				<stop  offset="0.32" style="stop-color:#252525"/>
				<stop  offset="0.3974" style="stop-color:#141414"/>
				<stop  offset="0.4931" style="stop-color:#090909"/>
				<stop  offset="0.6274" style="stop-color:#020202"/>
				<stop  offset="1" style="stop-color:#000000"/>
			</linearGradient>
			<ellipse fill="url(#SVGID_4_)" cx="34.807" cy="97.897" rx="4.833" ry="4.999"/>
			
				<linearGradient id="SVGID_5_" gradientUnits="userSpaceOnUse" x1="-37.5681" y1="896.0486" x2="-30.7601" y2="900.6406" gradientTransform="matrix(1 0 0 1 59.2002 -784.3203)">
				<stop  offset="0" style="stop-color:#FFFFFF"/>
				<stop  offset="0.0074" style="stop-color:#F6F6F6"/>
				<stop  offset="0.0477" style="stop-color:#C8C8C8"/>
				<stop  offset="0.0931" style="stop-color:#9D9D9D"/>
				<stop  offset="0.1419" style="stop-color:#777777"/>
				<stop  offset="0.195" style="stop-color:#575757"/>
				<stop  offset="0.2537" style="stop-color:#3B3B3B"/>
				<stop  offset="0.32" style="stop-color:#252525"/>
				<stop  offset="0.3974" style="stop-color:#141414"/>
				<stop  offset="0.4931" style="stop-color:#090909"/>
				<stop  offset="0.6274" style="stop-color:#020202"/>
				<stop  offset="1" style="stop-color:#000000"/>
			</linearGradient>
			<rect x="20.786" y="112.982" fill="url(#SVGID_5_)" width="8.5" height="2.083"/>
		</g>
	</g>
	<g id="cdpBackgroundPressed">
		<rect x="71.75" y="2.833" fill="none" width="69" height="69"/>
		<g>
			<g>
				<path fill="#1E1E1E" d="M138.736,37.333c0,17.943-14.545,32.488-32.484,32.488c-17.941,0-32.486-14.545-32.486-32.488
					c0-17.94,14.545-32.485,32.486-32.485C124.191,4.846,138.736,19.391,138.736,37.333"/>
				<path opacity="0.4" enable-background="new    " d="M138.736,37.333c0,17.943-14.545,32.488-32.484,32.488
					c-17.941,0-32.486-14.545-32.486-32.488c0-17.94,14.545-32.485,32.486-32.485C124.191,4.846,138.736,19.391,138.736,37.333"/>
			</g>
			
				<linearGradient id="SVGID_6_" gradientUnits="userSpaceOnUse" x1="98.0071" y1="-1223.5515" x2="132.4837" y2="-1258.0281" gradientTransform="matrix(1 0 0 -1 -9.02 -1203.481)">
				<stop  offset="0" style="stop-color:#212223"/>
				<stop  offset="0.5529" style="stop-color:#2A2B2B"/>
				<stop  offset="0.9895" style="stop-color:#666868"/>
			</linearGradient>
			<path fill="url(#SVGID_6_)" d="M140.75,37.333c0-19.021-15.479-34.5-34.5-34.5c-19.023,0-34.5,15.479-34.5,34.5
				c0,19.023,15.477,34.5,34.5,34.5C125.273,71.833,140.75,56.356,140.75,37.333z M73.764,37.333
				c0-17.94,14.543-32.486,32.486-32.486c17.941,0,32.484,14.546,32.484,32.486c0,17.943-14.543,32.488-32.484,32.488
				C88.307,69.821,73.764,55.276,73.764,37.333z"/>
			
				<linearGradient id="SVGID_7_" gradientUnits="userSpaceOnUse" x1="88.095" y1="-1240.8137" x2="142.4465" y2="-1240.8137" gradientTransform="matrix(1 0 0 -1 -9.02 -1203.481)">
				<stop  offset="0" style="stop-color:#707070"/>
				<stop  offset="1" style="stop-color:#B2B2B2"/>
			</linearGradient>
			<circle fill="url(#SVGID_7_)" cx="106.25" cy="37.333" r="27.176"/>
		</g>
	</g>
</g>
<g id="Styles">
	<g id="cdpButtonStyle7">
		<rect x="0.306" y="557.064" fill="none" width="69" height="69"/>
	</g>
	<g id="cdpButtonStyle6">
		<rect x="0.307" y="488.064" fill="none" width="69" height="69"/>
		<g>
			<linearGradient id="SVGID_8_" gradientUnits="userSpaceOnUse" x1="21.0173" y1="513.8601" x2="37.5833" y2="526.8029">
				<stop  offset="0.0073" style="stop-color:#B2B2B2"/>
				<stop  offset="0.0552" style="stop-color:#919191"/>
				<stop  offset="0.1123" style="stop-color:#727272"/>
				<stop  offset="0.177" style="stop-color:#585856"/>
				<stop  offset="0.2501" style="stop-color:#424240"/>
				<stop  offset="0.3355" style="stop-color:#31312F"/>
				<stop  offset="0.441" style="stop-color:#262624"/>
				<stop  offset="0.589" style="stop-color:#1F1F1D"/>
				<stop  offset="1" style="stop-color:#1D1D1B"/>
			</linearGradient>
			<polygon fill="url(#SVGID_8_)" points="30.406,524.615 22.938,524.615 30.74,501.417 47.205,501.417 36.437,516.079 
				45.962,516.079 21.024,546.77 			"/>
		</g>
	</g>
	<g id="cdpButtonStyle5">
		<rect x="0.307" y="419.064" fill="none" width="69" height="69"/>
		<g>
			<path fill="#1D1D1B" d="M32.03,459.094l-0.074-0.987c-0.229-2.015,0.457-4.294,2.354-6.572c1.71-2.015,2.66-3.496,2.66-5.205
				c0-1.938-1.217-3.229-3.609-3.269c-1.365,0-2.889,0.455-3.838,1.179l-0.912-2.396c1.293-0.911,3.42-1.521,5.437-1.521
				c4.368,0,6.345,2.698,6.345,5.586c0,2.583-1.442,4.445-3.268,6.609c-1.672,1.978-2.279,3.687-2.166,5.623l0.076,0.949H32.03
				V459.094z M31.233,464.451c0-1.405,0.949-2.395,2.24-2.395c1.368,0,2.242,0.987,2.242,2.395c0,1.33-0.874,2.354-2.279,2.354
				C32.144,466.806,31.233,465.781,31.233,464.451z"/>
		</g>
	</g>
	<g id="cdpButtonStyle4">
		<rect x="0.307" y="350.064" fill="none" width="69" height="69"/>
		
			<linearGradient id="SVGID_9_" gradientUnits="userSpaceOnUse" x1="-28.927" y1="1165.3005" x2="-6.2057" y2="1178.4188" gradientTransform="matrix(1 0 0 1 59.2002 -784.3203)">
			<stop  offset="0.0073" style="stop-color:#B2B2B2"/>
			<stop  offset="0.0552" style="stop-color:#919191"/>
			<stop  offset="0.1123" style="stop-color:#727272"/>
			<stop  offset="0.177" style="stop-color:#585856"/>
			<stop  offset="0.2501" style="stop-color:#424240"/>
			<stop  offset="0.3355" style="stop-color:#31312F"/>
			<stop  offset="0.441" style="stop-color:#262624"/>
			<stop  offset="0.589" style="stop-color:#1F1F1D"/>
			<stop  offset="1" style="stop-color:#1D1D1B"/>
		</linearGradient>
		<path fill="url(#SVGID_9_)" d="M51.682,391.378l1.979,1.446c-0.168,0.367-0.354,0.73-0.562,1.091
			c-0.206,0.361-0.431,0.703-0.665,1.034l-2.277-0.924c-0.527,0.668-1.125,1.261-1.775,1.771l0.979,2.229
			c-0.677,0.479-1.396,0.896-2.146,1.232l-1.504-1.922c-0.783,0.313-1.604,0.537-2.438,0.664l-0.288,2.408
			c-0.818,0.085-1.65,0.094-2.48,0.021l-0.328-2.403c-0.825-0.107-1.646-0.313-2.446-0.623l-1.476,1.945
			c-0.375-0.164-0.746-0.35-1.109-0.552c-0.365-0.204-0.714-0.423-1.053-0.651l0.938-2.24c-0.682-0.521-1.28-1.104-1.805-1.743
			l-2.267,0.961c-0.489-0.664-0.91-1.369-1.262-2.104l1.954-1.479c-0.315-0.771-0.546-1.572-0.675-2.396l-2.45-0.281
			c-0.087-0.811-0.096-1.625-0.021-2.439l2.445-0.318c0.109-0.813,0.319-1.619,0.635-2.408l-1.979-1.444
			c0.168-0.369,0.354-0.731,0.563-1.095c0.207-0.356,0.431-0.698,0.664-1.03l2.277,0.924c0.525-0.669,1.123-1.264,1.773-1.771
			l-0.979-2.229c0.678-0.479,1.396-0.896,2.146-1.233l1.506,1.92c0.783-0.313,1.604-0.535,2.438-0.662l0.283-2.408
			c0.82-0.085,1.653-0.094,2.484-0.021l0.326,2.401c0.826,0.108,1.646,0.313,2.449,0.624l1.474-1.944
			c0.375,0.166,0.745,0.349,1.11,0.552c0.361,0.203,0.715,0.422,1.053,0.651l-0.939,2.241c0.682,0.52,1.282,1.104,1.807,1.741
			l2.269-0.962c0.485,0.664,0.908,1.371,1.259,2.105l-1.954,1.479c0.317,0.771,0.548,1.573,0.677,2.396l2.453,0.279
			c0.084,0.811,0.094,1.625,0.02,2.441l-2.445,0.318C52.205,389.781,51.996,390.591,51.682,391.378z M45.283,389.564
			c0.553-0.955,0.689-2.065,0.393-3.129c-0.299-1.063-1-1.941-1.975-2.482c-0.633-0.354-1.346-0.536-2.063-0.536
			c-1.512,0-2.907,0.802-3.651,2.092c-0.552,0.958-0.688,2.067-0.393,3.131c0.299,1.063,1.001,1.941,1.975,2.483
			c0.632,0.352,1.347,0.533,2.063,0.533C43.142,391.654,44.541,390.855,45.283,389.564z"/>
		
			<linearGradient id="SVGID_10_" gradientUnits="userSpaceOnUse" x1="-42.8567" y1="1157.6208" x2="-27.3587" y2="1166.5685" gradientTransform="matrix(1 0 0 1 59.2002 -784.3203)">
			<stop  offset="0.0073" style="stop-color:#B2B2B2"/>
			<stop  offset="0.0552" style="stop-color:#919191"/>
			<stop  offset="0.1123" style="stop-color:#727272"/>
			<stop  offset="0.177" style="stop-color:#585856"/>
			<stop  offset="0.2501" style="stop-color:#424240"/>
			<stop  offset="0.3355" style="stop-color:#31312F"/>
			<stop  offset="0.441" style="stop-color:#262624"/>
			<stop  offset="0.589" style="stop-color:#1F1F1D"/>
			<stop  offset="1" style="stop-color:#1D1D1B"/>
		</linearGradient>
		<path fill="url(#SVGID_10_)" d="M30.941,377.061l2.436,0.604c0.004,0.403-0.019,0.813-0.064,1.229
			c-0.055,0.409-0.133,0.813-0.236,1.202l-2.51,0.007c-0.266,0.711-0.645,1.357-1.109,1.932l1.284,2.117
			c-0.581,0.586-1.239,1.092-1.965,1.506L27,383.919c-0.683,0.312-1.412,0.514-2.181,0.594l-0.61,2.39
			c-0.41,0.006-0.826-0.015-1.246-0.063c-0.42-0.052-0.828-0.134-1.229-0.231l-0.007-2.472c-0.723-0.262-1.385-0.633-1.966-1.096
			l-2.154,1.266c-0.595-0.571-1.108-1.223-1.53-1.931l1.771-1.746c-0.313-0.666-0.521-1.389-0.604-2.141l-2.436-0.604
			c-0.005-0.402,0.02-0.813,0.064-1.229c0.051-0.413,0.135-0.813,0.234-1.205l2.512-0.004c0.266-0.713,0.644-1.358,1.109-1.934
			l-1.287-2.115c0.586-0.588,1.244-1.094,1.967-1.508l1.775,1.738c0.678-0.311,1.411-0.514,2.178-0.593l0.61-2.39
			c0.413-0.006,0.827,0.015,1.248,0.063c0.42,0.054,0.829,0.132,1.226,0.233l0.008,2.463c0.726,0.261,1.385,0.634,1.965,1.095
			l2.15-1.265c0.6,0.57,1.113,1.224,1.535,1.931l-1.771,1.747C30.656,375.589,30.862,376.309,30.941,377.061z M25.568,375.214
			c-1.438-0.802-3.268-0.306-4.081,1.108c-0.813,1.416-0.31,3.211,1.132,4.013c1.438,0.804,3.27,0.306,4.082-1.108
			C27.514,377.811,27.008,376.014,25.568,375.214z"/>
	</g>
	<g id="cdpButtonStyle3">
		<rect x="0.307" y="281.064" fill="none" width="69" height="69"/>
		<g>
			<path fill="#1D1D1B" d="M45.723,326.104c-0.391-0.227-0.889-0.094-1.116,0.298c-2.019,3.492-5.771,5.66-9.8,5.66
				c-4.023,0-7.779-2.168-9.799-5.66c-0.151-0.262-0.429-0.408-0.709-0.408c-0.141,0-0.278,0.035-0.408,0.11
				c-0.391,0.228-0.521,0.726-0.297,1.114c2.311,3.993,6.605,6.479,11.213,6.479c4.604,0,8.904-2.479,11.215-6.479
				C46.247,326.83,46.113,326.33,45.723,326.104z"/>
			<path fill="#1D1D1B" d="M27.838,324.77c-0.229-0.392-0.729-0.523-1.117-0.298s-0.521,0.726-0.297,1.113
				c1.729,2.985,4.938,4.845,8.385,4.845s6.656-1.855,8.387-4.845c0.229-0.394,0.095-0.894-0.298-1.113
				c-0.132-0.075-0.271-0.11-0.406-0.11c-0.278,0-0.56,0.146-0.707,0.408c-1.438,2.481-4.106,4.026-6.976,4.026
				C31.944,328.798,29.273,327.253,27.838,324.77z"/>
			<path fill="#1D1D1B" d="M34.807,327.164c2.283,0,4.41-1.229,5.56-3.211c0.226-0.392,0.093-0.891-0.301-1.114
				c-0.39-0.226-0.89-0.093-1.113,0.298c-0.854,1.477-2.44,2.396-4.146,2.396c-1.701,0-3.287-0.92-4.145-2.396
				c-0.148-0.261-0.427-0.406-0.705-0.406c-0.143,0-0.279,0.035-0.408,0.108c-0.396,0.229-0.523,0.728-0.299,1.114
				C30.396,325.932,32.525,327.164,34.807,327.164z"/>
			
				<linearGradient id="SVGID_11_" gradientUnits="userSpaceOnUse" x1="-34.553" y1="1088.6121" x2="-14.2327" y2="1108.9325" gradientTransform="matrix(1 0 0 1 59.2002 -784.3203)">
				<stop  offset="0.0073" style="stop-color:#646464"/>
				<stop  offset="0.0487" style="stop-color:#565656"/>
				<stop  offset="0.1323" style="stop-color:#414140"/>
				<stop  offset="0.231" style="stop-color:#31312F"/>
				<stop  offset="0.3531" style="stop-color:#252524"/>
				<stop  offset="0.5244" style="stop-color:#1F1F1D"/>
				<stop  offset="1" style="stop-color:#1D1D1B"/>
			</linearGradient>
			<path fill="url(#SVGID_11_)" d="M41.807,303.203c0-3.188-3.133-5.771-7-5.771c-3.865,0-7,2.584-7,5.771
				c0,7.582-3.131,13.718-7,13.718v3.851h11.668c0,1.288,1.043,2.333,2.332,2.333s2.334-1.045,2.334-2.333h11.666v-3.851
				C44.939,316.919,41.807,310.785,41.807,303.203z"/>
		</g>
	</g>
	<g id="cdpButtonStyle2">
		<rect x="0.307" y="212.064" fill="none" width="69" height="69"/>
		<g>
			<polygon stroke="#1D1D1B" stroke-width="2" stroke-miterlimit="10" points="21.712,234.909 20.602,232.95 19.492,234.909 
				20.151,234.909 20.151,260.178 21.042,260.178 21.042,234.909 			"/>
			<polygon fill="#1D1D1B" stroke="#1D1D1B" stroke-width="2" stroke-miterlimit="10" points="49.39,258.661 47.466,257.529 
				47.466,258.212 19.111,258.212 19.111,259.122 47.466,259.122 47.466,259.792 			"/>
			<path fill="none" stroke="#1D1D1B" stroke-width="2" stroke-linecap="round" stroke-miterlimit="10" d="M20.603,246.564
				c0,0,4.068,3.985,7.501,4.11c3.632,0.138,3.729-5.7,7.854-6.625c5.289-1.18,6.971,13.479,6.971,13.479"/>
		</g>
	</g>
	<g id="cdpButtonStyle1">
		<rect x="0.307" y="143.064" fill="none" width="69" height="69"/>
		<g>
			<polygon fill="none" points="23.527,194.538 16.71,173.558 34.557,160.591 52.403,173.558 45.587,194.538 			"/>
			<line fill="none" stroke="#000000" stroke-miterlimit="10" x1="34.557" y1="160.591" x2="34.557" y2="179.058"/>
			<line fill="none" stroke="#000000" stroke-miterlimit="10" x1="52.403" y1="173.558" x2="34.557" y2="179.058"/>
			<line fill="none" stroke="#000000" stroke-miterlimit="10" x1="45.587" y1="194.538" x2="34.557" y2="179.058"/>
			<line fill="none" stroke="#000000" stroke-miterlimit="10" x1="23.527" y1="194.538" x2="34.557" y2="179.058"/>
			<line fill="none" stroke="#000000" stroke-miterlimit="10" x1="16.71" y1="173.558" x2="34.557" y2="179.058"/>
			
				<linearGradient id="SVGID_12_" gradientUnits="userSpaceOnUse" x1="-40.0081" y1="975.4724" x2="-31.3391" y2="982.2452" gradientTransform="matrix(1 0 0 1 59.2002 -784.3203)">
				<stop  offset="0" style="stop-color:#A5A5A5"/>
				<stop  offset="0.0343" style="stop-color:#949494"/>
				<stop  offset="0.1381" style="stop-color:#676767"/>
				<stop  offset="0.2426" style="stop-color:#424242"/>
				<stop  offset="0.3464" style="stop-color:#252525"/>
				<stop  offset="0.4491" style="stop-color:#111111"/>
				<stop  offset="0.5503" style="stop-color:#040404"/>
				<stop  offset="0.6485" style="stop-color:#000000"/>
			</linearGradient>
			<circle fill="url(#SVGID_12_)" cx="23.527" cy="194.538" r="5.5"/>
			
				<linearGradient id="SVGID_13_" gradientUnits="userSpaceOnUse" x1="-17.9465" y1="975.4734" x2="-9.2784" y2="982.2457" gradientTransform="matrix(1 0 0 1 59.2002 -784.3203)">
				<stop  offset="0" style="stop-color:#A5A5A5"/>
				<stop  offset="0.0343" style="stop-color:#949494"/>
				<stop  offset="0.1381" style="stop-color:#676767"/>
				<stop  offset="0.2426" style="stop-color:#424242"/>
				<stop  offset="0.3464" style="stop-color:#252525"/>
				<stop  offset="0.4491" style="stop-color:#111111"/>
				<stop  offset="0.5503" style="stop-color:#040404"/>
				<stop  offset="0.6485" style="stop-color:#000000"/>
			</linearGradient>
			<circle fill="url(#SVGID_13_)" cx="45.587" cy="194.538" r="5.5"/>
			
				<linearGradient id="SVGID_14_" gradientUnits="userSpaceOnUse" x1="-28.9773" y1="941.5251" x2="-20.3092" y2="948.2974" gradientTransform="matrix(1 0 0 1 59.2002 -784.3203)">
				<stop  offset="0" style="stop-color:#A5A5A5"/>
				<stop  offset="0.0343" style="stop-color:#949494"/>
				<stop  offset="0.1381" style="stop-color:#676767"/>
				<stop  offset="0.2426" style="stop-color:#424242"/>
				<stop  offset="0.3464" style="stop-color:#252525"/>
				<stop  offset="0.4491" style="stop-color:#111111"/>
				<stop  offset="0.5503" style="stop-color:#040404"/>
				<stop  offset="0.6485" style="stop-color:#000000"/>
			</linearGradient>
			<circle fill="url(#SVGID_14_)" cx="34.557" cy="160.591" r="5.5"/>
			
				<linearGradient id="SVGID_15_" gradientUnits="userSpaceOnUse" x1="-11.1316" y1="954.4929" x2="-2.4627" y2="961.2658" gradientTransform="matrix(1 0 0 1 59.2002 -784.3203)">
				<stop  offset="0" style="stop-color:#A5A5A5"/>
				<stop  offset="0.0343" style="stop-color:#949494"/>
				<stop  offset="0.1381" style="stop-color:#676767"/>
				<stop  offset="0.2426" style="stop-color:#424242"/>
				<stop  offset="0.3464" style="stop-color:#252525"/>
				<stop  offset="0.4491" style="stop-color:#111111"/>
				<stop  offset="0.5503" style="stop-color:#040404"/>
				<stop  offset="0.6485" style="stop-color:#000000"/>
			</linearGradient>
			<circle fill="url(#SVGID_15_)" cx="52.403" cy="173.558" r="5.5"/>
			
				<linearGradient id="SVGID_16_" gradientUnits="userSpaceOnUse" x1="-28.9778" y1="959.9919" x2="-20.3089" y2="966.7648" gradientTransform="matrix(1 0 0 1 59.2002 -784.3203)">
				<stop  offset="0" style="stop-color:#A5A5A5"/>
				<stop  offset="0.0343" style="stop-color:#949494"/>
				<stop  offset="0.1381" style="stop-color:#676767"/>
				<stop  offset="0.2426" style="stop-color:#424242"/>
				<stop  offset="0.3464" style="stop-color:#252525"/>
				<stop  offset="0.4491" style="stop-color:#111111"/>
				<stop  offset="0.5503" style="stop-color:#040404"/>
				<stop  offset="0.6485" style="stop-color:#000000"/>
			</linearGradient>
			<circle fill="url(#SVGID_16_)" cx="34.557" cy="179.058" r="5.5"/>
			
				<linearGradient id="SVGID_17_" gradientUnits="userSpaceOnUse" x1="-46.8245" y1="954.4929" x2="-38.1556" y2="961.2659" gradientTransform="matrix(1 0 0 1 59.2002 -784.3203)">
				<stop  offset="0" style="stop-color:#A5A5A5"/>
				<stop  offset="0.0343" style="stop-color:#949494"/>
				<stop  offset="0.1381" style="stop-color:#676767"/>
				<stop  offset="0.2426" style="stop-color:#424242"/>
				<stop  offset="0.3464" style="stop-color:#252525"/>
				<stop  offset="0.4491" style="stop-color:#111111"/>
				<stop  offset="0.5503" style="stop-color:#040404"/>
				<stop  offset="0.6485" style="stop-color:#000000"/>
			</linearGradient>
			<circle fill="url(#SVGID_17_)" cx="16.71" cy="173.558" r="5.5"/>
		</g>
	</g>
	<text transform="matrix(1 0 0 1 286.8186 41.0398)" font-family="'MyriadPro-Regular'" font-size="12">when saving checked state.</text>
	<text transform="matrix(1 0 0 1 286.8186 26.6394)" font-family="'MyriadPro-Regular'" font-size="12">icons and make them 40% transparent </text>
	<text transform="matrix(1 0 0 1 286.8186 12.239)" font-family="'MyriadPro-Regular'" font-size="12">Set backWhite visible and select all </text>
	<path id="HPU_icon_white_1_" fill="#1D1D1B" d="M201.11,139.169l-2.084-1.962c-0.34-0.318-0.823-0.439-1.274-0.318l-15.61,4.188
		l-1.688-1.655c-0.253-0.247-0.593-0.386-0.942-0.386h-3.982v-1.184h2.313c0.741,0,1.344-0.599,1.344-1.332
		c0-0.736-0.603-1.333-1.344-1.333h-7.313c-0.74,0-1.346,0.597-1.346,1.333c0,0.733,0.604,1.332,1.346,1.332h2.313v1.184h-4.438
		v-0.709c0-0.582-0.382-1.097-0.938-1.271l-6.669-2.063c-0.677-0.211-1.397,0.136-1.651,0.791l-1.514,3.873
		c-0.132,0.338-0.119,0.717,0.036,1.045c0.152,0.33,0.438,0.582,0.788,0.698l7.266,2.432v5.604c0,0.733,0.603,1.333,1.346,1.333
		h17.504c0.389,0,0.756-0.166,1.012-0.453l8.594-9.701l3.563-0.957l1.534,1.447c0.537,0.508,1.391,0.484,1.898-0.048
		C201.67,140.519,201.647,139.677,201.11,139.169z M165.707,141.016l-5.075-1.697l0.551-1.412l4.524,1.4V141.016z M183.947,148.1
		h-15.554v-5.195c0.002-0.021,0.002-0.043,0-0.063v-1.14h10.559l1.848,1.81c0.256,0.25,0.598,0.385,0.945,0.385
		c0.114,0,0.232-0.018,0.352-0.045l7.373-1.979L183.947,148.1z"/>
</g>
</svg>
