<?xml version="1.0" encoding="utf-8"?>
<!-- Generator: Adobe Illustrator 16.0.0, SVG Export Plug-In . SVG Version: 6.00 Build 0)  -->
<!DOCTYPE svg PUBLIC "-//W3C//DTD SVG 1.1//EN" "http://www.w3.org/Graphics/SVG/1.1/DTD/svg11.dtd">
<svg version="1.1" id="svg" xmlns="http://www.w3.org/2000/svg" xmlns:xlink="http://www.w3.org/1999/xlink" x="0px" y="0px"
	 width="69.307px" height="74.064px" viewBox="0 0 69.307 74.064" enable-background="new 0 0 69.307 74.064" xml:space="preserve">
<g id="Layer1">
	<g id="cdpBackground">
		<rect x="-0.25" y="2.833" fill="none" width="69" height="69"/>
		<g>
			<g>
				<path fill="#1E1E1E" d="M66.736,37.333c0,17.943-14.545,32.488-32.486,32.488c-17.942,0-32.487-14.545-32.487-32.488
					c0-17.942,14.545-32.487,32.487-32.487C52.191,4.846,66.736,19.391,66.736,37.333"/>
				<path opacity="0.4" enable-background="new    " d="M66.736,37.333c0,17.943-14.545,32.488-32.486,32.488
					c-17.942,0-32.487-14.545-32.487-32.488c0-17.942,14.545-32.487,32.487-32.487C52.191,4.846,66.736,19.391,66.736,37.333"/>
			</g>
			
				<linearGradient id="SVGID_1_" gradientUnits="userSpaceOnUse" x1="85.2109" y1="-719.2314" x2="119.6852" y2="-753.7057" gradientTransform="matrix(1 0 0 -1 -68.2202 -699.1602)">
				<stop  offset="0" style="stop-color:#212223"/>
				<stop  offset="0.5529" style="stop-color:#2A2B2B"/>
				<stop  offset="0.9895" style="stop-color:#666868"/>
			</linearGradient>
			<path fill="url(#SVGID_1_)" d="M68.75,37.333c0-19.023-15.477-34.5-34.5-34.5c-19.023,0-34.5,15.477-34.5,34.5
				c0,19.023,15.477,34.5,34.5,34.5C53.273,71.833,68.75,56.356,68.75,37.333z M1.764,37.333c0-17.942,14.543-32.488,32.486-32.488
				c17.943,0,32.486,14.546,32.486,32.488c0,17.943-14.543,32.488-32.486,32.488C16.307,69.821,1.764,55.276,1.764,37.333z"/>
			<linearGradient id="SVGID_2_" gradientUnits="userSpaceOnUse" x1="61.4258" y1="37.333" x2="7.0747" y2="37.333">
				<stop  offset="0" style="stop-color:#707070"/>
				<stop  offset="1" style="stop-color:#B2B2B2"/>
			</linearGradient>
			<circle fill="url(#SVGID_2_)" cx="34.25" cy="37.333" r="27.176"/>
			
				<linearGradient id="SVGID_3_" gradientUnits="userSpaceOnUse" x1="76.1514" y1="-724.4189" x2="105.3902" y2="-724.4189" gradientTransform="matrix(1 0 0 -1 -68.2202 -699.1602)">
				<stop  offset="0" style="stop-color:#A6A6A6"/>
				<stop  offset="0.5" style="stop-color:#CCCCCC"/>
				<stop  offset="1" style="stop-color:#999999"/>
			</linearGradient>
			<path fill="url(#SVGID_3_)" d="M34.25,10.157c-15.009,0-27.175,12.167-27.175,27.176c0,4.117,0.739,3.953,0.739,0
				c0-13.543,12.608-26.169,26.436-26.169C38.965,11.164,39.188,10.157,34.25,10.157z"/>
		</g>
	</g>
	<g id="cdpButton">
		<rect x="-0.25" y="74.064" fill="none" width="69" height="69"/>
		<g>
			<path fill="#1D1D1B" d="M31.78,114.094l-0.076-0.988c-0.229-2.014,0.457-4.293,2.355-6.572c1.71-2.014,2.66-3.496,2.66-5.205
				c0-1.938-1.217-3.229-3.609-3.268c-1.367,0-2.889,0.455-3.838,1.178l-0.912-2.395c1.293-0.911,3.42-1.521,5.435-1.521
				c4.368,0,6.345,2.698,6.345,5.586c0,2.583-1.443,4.445-3.268,6.61c-1.672,1.977-2.279,3.686-2.166,5.623l0.076,0.949H31.78
				V114.094z M30.983,119.451c0-1.406,0.949-2.394,2.24-2.394c1.368,0,2.242,0.987,2.242,2.394c0,1.33-0.874,2.355-2.279,2.355
				C31.894,121.807,30.983,120.781,30.983,119.451z"/>
		</g>
	</g>
	<g id="cdpBackgroundPressed">
		<rect x="71.75" y="2.833" fill="none" width="69" height="69"/>
		<g>
			<g>
				<path fill="#1E1E1E" d="M138.736,37.333c0,17.943-14.545,32.488-32.486,32.488S73.764,55.276,73.764,37.333
					c0-17.942,14.545-32.487,32.486-32.487S138.736,19.391,138.736,37.333"/>
				<path opacity="0.4" enable-background="new    " d="M138.736,37.333c0,17.943-14.545,32.488-32.486,32.488
					S73.764,55.276,73.764,37.333c0-17.942,14.545-32.487,32.486-32.487S138.736,19.391,138.736,37.333"/>
			</g>
			
				<linearGradient id="SVGID_4_" gradientUnits="userSpaceOnUse" x1="157.208" y1="-719.229" x2="191.6844" y2="-753.7054" gradientTransform="matrix(1 0 0 -1 -68.2202 -699.1602)">
				<stop  offset="0" style="stop-color:#212223"/>
				<stop  offset="0.5529" style="stop-color:#2A2B2B"/>
				<stop  offset="0.9895" style="stop-color:#666868"/>
			</linearGradient>
			<path fill="url(#SVGID_4_)" d="M140.75,37.333c0-19.023-15.477-34.5-34.5-34.5s-34.5,15.477-34.5,34.5
				c0,19.023,15.477,34.5,34.5,34.5S140.75,56.356,140.75,37.333z M73.764,37.333c0-17.942,14.543-32.488,32.486-32.488
				s32.486,14.546,32.486,32.488c0,17.943-14.543,32.488-32.486,32.488S73.764,55.276,73.764,37.333z"/>
			
				<linearGradient id="SVGID_5_" gradientUnits="userSpaceOnUse" x1="147.2939" y1="-736.4932" x2="201.6455" y2="-736.4932" gradientTransform="matrix(1 0 0 -1 -68.2202 -699.1602)">
				<stop  offset="0" style="stop-color:#707070"/>
				<stop  offset="1" style="stop-color:#B2B2B2"/>
			</linearGradient>
			<circle fill="url(#SVGID_5_)" cx="106.25" cy="37.333" r="27.176"/>
		</g>
	</g>
</g>
<g id="Styles">
	<g id="cdpButtonStyle7">
		<rect x="0.306" y="557.064" fill="none" width="69" height="69"/>
	</g>
	<g id="cdpButtonStyle6">
		<rect x="0.307" y="488.064" fill="none" width="69" height="69"/>
	</g>
	<g id="cdpButtonStyle5">
		<rect x="0.307" y="419.064" fill="none" width="69" height="69"/>
	</g>
	<g id="cdpButtonStyle4">
		<rect x="-0.25" y="408.002" fill="none" width="69" height="69"/>
		<g>
			<path d="M17.806,445.391v-8.59h1.688l3.516,5.736v-5.736h1.611v8.59h-1.74l-3.463-5.602v5.602H17.806z"/>
			<path d="M26.103,441.148c0-0.875,0.131-1.609,0.393-2.203c0.195-0.438,0.462-0.83,0.8-1.178s0.708-0.605,1.11-0.773
				c0.535-0.227,1.152-0.34,1.852-0.34c1.266,0,2.278,0.393,3.038,1.178s1.14,1.877,1.14,3.275c0,1.387-0.377,2.472-1.131,3.255
				s-1.762,1.175-3.023,1.175c-1.277,0-2.293-0.39-3.047-1.169S26.103,442.516,26.103,441.148z M27.89,441.09
				c0,0.973,0.225,1.71,0.674,2.212s1.02,0.753,1.711,0.753s1.259-0.249,1.702-0.747s0.665-1.245,0.665-2.241
				c0-0.984-0.216-1.719-0.647-2.203s-1.005-0.727-1.72-0.727s-1.291,0.245-1.729,0.735S27.89,440.102,27.89,441.09z"/>
			<path d="M35.806,445.391v-8.59h1.688l3.516,5.736v-5.736h1.611v8.59h-1.74l-3.463-5.602v5.602H35.806z"/>
			<path d="M44.454,445.391v-8.59h6.369v1.453h-4.635v1.904h4.313v1.447h-4.313v2.338h4.799v1.447H44.454z"/>
		</g>
	</g>
	<g id="cdpButtonStyle3_1_">
		<rect x="-0.291" y="207.395" fill="none" width="69" height="69"/>
		<g>
			<g id="screen_6_">
				
					<path id="path1381" inkscape:connector-curvature="0" fill="none" stroke="#000000" stroke-width="3" stroke-linecap="round" stroke-linejoin="bevel" stroke-miterlimit="10" d="
					M40.061,238.848H23.099c-0.83,0-1.502-0.684-1.502-1.51v-14.293c0-0.824,0.672-1.5,1.502-1.5h22.536
					c0.826,0,1.508,0.676,1.508,1.5v14.293c0,0.826-0.682,1.51-1.508,1.51H40.061"/>
				
					<line id="line1383" fill="none" stroke="#000000" stroke-width="2" stroke-linecap="round" stroke-linejoin="bevel" stroke-miterlimit="10" x1="35.186" y1="225.367" x2="25.234" y2="233.461"/>
				
					<line id="line1385" fill="none" stroke="#000000" stroke-width="2" stroke-linecap="round" stroke-linejoin="bevel" stroke-miterlimit="10" x1="35.186" y1="228.42" x2="28.989" y2="233.461"/>
				
					<line id="line1387" fill="none" stroke="#000000" stroke-width="2" stroke-linecap="round" stroke-linejoin="bevel" stroke-miterlimit="10" x1="32.087" y1="224.91" x2="25.094" y2="230.594"/>
			</g>
			<g>
				<path d="M26.392,250.055v-5.353H24.48v-1.09h5.119v1.09h-1.906v5.353H26.392z"/>
				<path d="M30.684,246.812l-1.12-0.202c0.126-0.451,0.343-0.785,0.65-1.002s0.765-0.325,1.371-0.325
					c0.551,0,0.961,0.065,1.23,0.195c0.27,0.131,0.459,0.296,0.569,0.497c0.109,0.2,0.164,0.568,0.164,1.105l-0.013,1.441
					c0,0.41,0.02,0.712,0.06,0.907c0.039,0.194,0.113,0.403,0.222,0.626h-1.222c-0.032-0.082-0.072-0.203-0.119-0.365
					c-0.021-0.072-0.035-0.121-0.043-0.145c-0.211,0.205-0.438,0.359-0.678,0.461c-0.24,0.103-0.496,0.154-0.769,0.154
					c-0.48,0-0.859-0.13-1.136-0.391c-0.277-0.261-0.416-0.591-0.416-0.989c0-0.264,0.063-0.499,0.189-0.705
					c0.126-0.207,0.303-0.365,0.529-0.475c0.228-0.11,0.555-0.206,0.982-0.288c0.577-0.108,0.977-0.209,1.199-0.303v-0.123
					c0-0.238-0.059-0.407-0.176-0.508c-0.117-0.102-0.338-0.152-0.663-0.152c-0.22,0-0.392,0.044-0.515,0.13
					C30.86,246.443,30.76,246.595,30.684,246.812z M32.336,247.813c-0.158,0.053-0.408,0.116-0.751,0.188
					c-0.343,0.074-0.567,0.146-0.673,0.216c-0.161,0.114-0.241,0.259-0.241,0.435c0,0.174,0.064,0.323,0.193,0.449
					s0.293,0.188,0.492,0.188c0.223,0,0.435-0.073,0.638-0.22c0.148-0.111,0.247-0.247,0.294-0.408
					c0.032-0.105,0.048-0.307,0.048-0.603V247.813z"/>
				<path d="M34.723,250.055v-6.442h1.236v3.419l1.445-1.644h1.52l-1.594,1.705l1.709,2.962h-1.332l-1.174-2.096l-0.574,0.602v1.494
					H34.723z"/>
				<path d="M42.477,248.569l1.23,0.206c-0.158,0.452-0.408,0.795-0.75,1.031c-0.342,0.235-0.768,0.354-1.281,0.354
					c-0.811,0-1.412-0.265-1.801-0.795c-0.309-0.425-0.463-0.961-0.463-1.609c0-0.773,0.203-1.379,0.607-1.816
					c0.404-0.438,0.916-0.657,1.533-0.657c0.695,0,1.242,0.229,1.645,0.688c0.4,0.459,0.592,1.161,0.574,2.107h-3.094
					c0.01,0.366,0.109,0.651,0.299,0.854c0.191,0.204,0.428,0.306,0.713,0.306c0.193,0,0.355-0.053,0.488-0.158
					C42.309,248.974,42.408,248.804,42.477,248.569z M42.547,247.321c-0.01-0.357-0.102-0.629-0.277-0.815
					c-0.176-0.186-0.391-0.279-0.643-0.279c-0.27,0-0.492,0.099-0.668,0.295s-0.262,0.463-0.258,0.8H42.547z"/>
				<path d="M22.991,256.686l1.261,0.4c-0.193,0.703-0.515,1.226-0.965,1.566c-0.449,0.342-1.021,0.512-1.712,0.512
					c-0.855,0-1.559-0.292-2.109-0.876c-0.551-0.585-0.826-1.384-0.826-2.397c0-1.072,0.277-1.905,0.831-2.498
					c0.554-0.594,1.281-0.891,2.185-0.891c0.787,0,1.428,0.233,1.92,0.699c0.293,0.275,0.513,0.671,0.659,1.187l-1.288,0.308
					c-0.076-0.334-0.234-0.598-0.477-0.791c-0.241-0.193-0.535-0.29-0.881-0.29c-0.478,0-0.865,0.171-1.162,0.515
					c-0.298,0.342-0.446,0.897-0.446,1.665c0,0.814,0.146,1.395,0.439,1.74s0.674,0.519,1.143,0.519c0.346,0,0.643-0.109,0.892-0.33
					C22.703,257.504,22.881,257.158,22.991,256.686z"/>
				<path d="M25.074,256.655c0-0.41,0.101-0.807,0.304-1.19c0.201-0.384,0.488-0.678,0.858-0.879
					c0.371-0.203,0.784-0.304,1.241-0.304c0.706,0,1.285,0.229,1.736,0.688c0.451,0.459,0.677,1.038,0.677,1.738
					c0,0.706-0.228,1.291-0.684,1.756c-0.455,0.464-1.029,0.696-1.72,0.696c-0.429,0-0.836-0.097-1.225-0.29
					c-0.388-0.193-0.684-0.477-0.885-0.851C25.174,257.646,25.074,257.191,25.074,256.655z M26.339,256.721
					c0,0.464,0.11,0.818,0.329,1.064c0.221,0.246,0.491,0.369,0.813,0.369s0.593-0.123,0.811-0.369
					c0.219-0.246,0.327-0.604,0.327-1.072c0-0.457-0.108-0.809-0.327-1.055c-0.218-0.246-0.488-0.369-0.811-0.369
					s-0.593,0.123-0.813,0.369C26.45,255.904,26.339,256.259,26.339,256.721z"/>
				<path d="M35.102,259.055h-1.234v-2.382c0-0.504-0.026-0.83-0.079-0.978c-0.053-0.148-0.139-0.263-0.257-0.346
					c-0.119-0.081-0.262-0.123-0.429-0.123c-0.214,0-0.406,0.06-0.575,0.176c-0.171,0.118-0.287,0.273-0.35,0.467
					c-0.063,0.193-0.095,0.551-0.095,1.072v2.113h-1.235v-4.667h1.147v0.686c0.407-0.527,0.92-0.791,1.538-0.791
					c0.272,0,0.521,0.049,0.747,0.147c0.226,0.098,0.396,0.224,0.512,0.375c0.116,0.153,0.196,0.326,0.243,0.52
					c0.045,0.193,0.066,0.47,0.066,0.83V259.055z"/>
				<path d="M38.496,254.388v0.984h-0.844v1.881c0,0.381,0.008,0.603,0.023,0.666c0.016,0.063,0.053,0.115,0.109,0.155
					c0.059,0.042,0.127,0.063,0.209,0.063c0.115,0,0.279-0.04,0.496-0.119l0.105,0.958c-0.287,0.123-0.611,0.185-0.975,0.185
					c-0.223,0-0.424-0.037-0.602-0.112c-0.18-0.074-0.311-0.171-0.395-0.29c-0.082-0.118-0.141-0.279-0.174-0.48
					c-0.025-0.144-0.039-0.434-0.039-0.871v-2.034h-0.566v-0.984h0.566v-0.927l1.24-0.721v1.647H38.496z"/>
				<path d="M40.535,259.055h-1.234v-4.667h1.146v0.663c0.195-0.313,0.373-0.52,0.529-0.619s0.334-0.149,0.533-0.149
					c0.281,0,0.553,0.078,0.814,0.233l-0.383,1.076c-0.209-0.135-0.402-0.202-0.58-0.202c-0.174,0-0.32,0.048-0.439,0.143
					c-0.121,0.096-0.215,0.268-0.283,0.517c-0.07,0.249-0.104,0.771-0.104,1.564V259.055z"/>
				<path d="M42.57,256.655c0-0.41,0.1-0.807,0.303-1.19c0.201-0.384,0.488-0.678,0.859-0.879c0.371-0.203,0.783-0.304,1.24-0.304
					c0.707,0,1.285,0.229,1.736,0.688c0.451,0.459,0.678,1.038,0.678,1.738c0,0.706-0.229,1.291-0.684,1.756
					c-0.455,0.464-1.029,0.696-1.721,0.696c-0.428,0-0.836-0.097-1.225-0.29c-0.387-0.193-0.684-0.477-0.885-0.851
					C42.67,257.646,42.57,257.191,42.57,256.655z M43.836,256.721c0,0.464,0.109,0.818,0.328,1.064
					c0.221,0.246,0.492,0.369,0.814,0.369s0.592-0.123,0.811-0.369s0.326-0.604,0.326-1.072c0-0.457-0.107-0.809-0.326-1.055
					s-0.488-0.369-0.811-0.369s-0.594,0.123-0.814,0.369C43.945,255.904,43.836,256.259,43.836,256.721z"/>
				<path d="M48.354,259.055v-6.442h1.234v6.442H48.354z"/>
			</g>
		</g>
	</g>
	<g id="cdpButtonStyle2">
		<rect x="0.588" y="282.813" fill="none" width="69" height="69"/>
		<g>
			<g id="cdpBackground_1_">
				<rect x="0.585" y="283.275" fill="none" width="69" height="69"/>
				<g>
					<g>
						<linearGradient id="SVGID_6_" gradientUnits="userSpaceOnUse" x1="35.085" y1="350.2637" x2="35.085" y2="285.2891">
							<stop  offset="0" style="stop-color:#2E9715"/>
							<stop  offset="1" style="stop-color:#266914"/>
						</linearGradient>
						<path fill="url(#SVGID_6_)" d="M67.571,317.775c0,17.943-14.545,32.488-32.486,32.488S2.599,335.719,2.599,317.775
							c0-17.941,14.545-32.486,32.486-32.486S67.571,299.834,67.571,317.775"/>
						<linearGradient id="SVGID_7_" gradientUnits="userSpaceOnUse" x1="35.085" y1="350.2637" x2="35.085" y2="285.2891">
							<stop  offset="0" style="stop-color:#2E9715"/>
							<stop  offset="1" style="stop-color:#266914"/>
						</linearGradient>
						<path opacity="0.4" fill="url(#SVGID_7_)" enable-background="new    " d="M67.571,317.775
							c0,17.943-14.545,32.488-32.486,32.488S2.599,335.719,2.599,317.775c0-17.941,14.545-32.486,32.486-32.486
							S67.571,299.834,67.571,317.775"/>
					</g>
					
						<linearGradient id="SVGID_8_" gradientUnits="userSpaceOnUse" x1="86.0459" y1="-999.6743" x2="120.5202" y2="-1034.1487" gradientTransform="matrix(1 0 0 -1 -68.2202 -699.1602)">
						<stop  offset="0" style="stop-color:#212223"/>
						<stop  offset="0.5529" style="stop-color:#2A2B2B"/>
						<stop  offset="0.9895" style="stop-color:#666868"/>
					</linearGradient>
					<path fill="url(#SVGID_8_)" d="M69.585,317.775c0-19.021-15.477-34.5-34.5-34.5s-34.5,15.479-34.5,34.5
						c0,19.023,15.477,34.5,34.5,34.5S69.585,336.799,69.585,317.775z M2.599,317.775c0-17.941,14.543-32.486,32.486-32.486
						s32.486,14.545,32.486,32.486c0,17.943-14.543,32.488-32.486,32.488S2.599,335.719,2.599,317.775z"/>
					<linearGradient id="SVGID_9_" gradientUnits="userSpaceOnUse" x1="64.085" y1="317.7754" x2="6.085" y2="317.7754">
						<stop  offset="0" style="stop-color:#707070"/>
						<stop  offset="1" style="stop-color:#B2B2B2"/>
					</linearGradient>
					<circle fill="url(#SVGID_9_)" cx="35.085" cy="317.775" r="29"/>
					
						<linearGradient id="SVGID_10_" gradientUnits="userSpaceOnUse" x1="75.2197" y1="-1004.0503" x2="106.4214" y2="-1004.0503" gradientTransform="matrix(1 0 0 -1 -68.2202 -699.1602)">
						<stop  offset="0" style="stop-color:#A6A6A6"/>
						<stop  offset="0.5" style="stop-color:#CCCCCC"/>
						<stop  offset="1" style="stop-color:#999999"/>
					</linearGradient>
					<path fill="url(#SVGID_10_)" d="M35.085,288.775c-16.017,0-28.999,12.984-28.999,29c0,4.395,0.789,4.217,0.789,0
						c0-14.451,13.454-27.925,28.21-27.925C40.117,289.851,40.354,288.775,35.085,288.775z"/>
				</g>
			</g>
			<g>
				<path d="M18.58,327.225v-6.443h2.737c0.688,0,1.189,0.059,1.501,0.174c0.313,0.115,0.562,0.322,0.749,0.617
					c0.188,0.297,0.281,0.635,0.281,1.016c0,0.484-0.142,0.883-0.426,1.197s-0.709,0.514-1.274,0.596
					c0.281,0.164,0.514,0.344,0.696,0.541c0.184,0.195,0.43,0.545,0.74,1.045l0.787,1.258h-1.556l-0.94-1.402
					c-0.334-0.5-0.563-0.816-0.686-0.947s-0.254-0.219-0.391-0.268c-0.139-0.049-0.356-0.072-0.655-0.072h-0.264v2.689H18.58z
					 M19.881,323.506h0.962c0.625,0,1.014-0.025,1.17-0.078c0.154-0.053,0.276-0.145,0.364-0.273s0.132-0.289,0.132-0.482
					c0-0.217-0.058-0.393-0.174-0.525c-0.115-0.133-0.279-0.217-0.49-0.252c-0.105-0.016-0.422-0.023-0.949-0.023h-1.015V323.506z"
					/>
				<path d="M27.77,325.738l1.23,0.207c-0.158,0.451-0.408,0.795-0.749,1.031c-0.342,0.234-0.769,0.354-1.281,0.354
					c-0.812,0-1.412-0.266-1.802-0.795c-0.308-0.426-0.462-0.961-0.462-1.609c0-0.773,0.203-1.379,0.607-1.816
					c0.404-0.439,0.915-0.658,1.533-0.658c0.694,0,1.242,0.23,1.644,0.688c0.401,0.459,0.593,1.162,0.575,2.107h-3.094
					c0.01,0.367,0.108,0.652,0.299,0.855s0.428,0.305,0.713,0.305c0.193,0,0.355-0.053,0.487-0.158S27.702,325.973,27.77,325.738z
					 M27.84,324.49c-0.009-0.357-0.101-0.629-0.276-0.814s-0.391-0.279-0.643-0.279c-0.27,0-0.492,0.098-0.668,0.295
					c-0.176,0.195-0.262,0.463-0.259,0.799H27.84z"/>
				<path d="M30.073,327.225v-6.443h1.234v6.443H30.073z"/>
				<path d="M35.275,325.738l1.23,0.207c-0.158,0.451-0.408,0.795-0.749,1.031c-0.342,0.234-0.769,0.354-1.281,0.354
					c-0.812,0-1.412-0.266-1.802-0.795c-0.308-0.426-0.462-0.961-0.462-1.609c0-0.773,0.203-1.379,0.607-1.816
					c0.404-0.439,0.915-0.658,1.533-0.658c0.694,0,1.242,0.23,1.644,0.688c0.401,0.459,0.593,1.162,0.575,2.107h-3.094
					c0.01,0.367,0.108,0.652,0.299,0.855s0.428,0.305,0.713,0.305c0.193,0,0.355-0.053,0.487-0.158S35.208,325.973,35.275,325.738z
					 M35.346,324.49c-0.009-0.357-0.101-0.629-0.276-0.814s-0.391-0.279-0.643-0.279c-0.27,0-0.492,0.098-0.668,0.295
					c-0.176,0.195-0.262,0.463-0.259,0.799H35.346z"/>
				<path d="M38.501,323.98l-1.12-0.201c0.126-0.451,0.343-0.785,0.65-1.002s0.765-0.326,1.371-0.326
					c0.551,0,0.961,0.066,1.23,0.195c0.27,0.131,0.459,0.297,0.569,0.498c0.109,0.199,0.164,0.568,0.164,1.105l-0.013,1.441
					c0,0.41,0.02,0.711,0.06,0.906c0.039,0.195,0.113,0.404,0.222,0.627h-1.222c-0.032-0.082-0.072-0.203-0.119-0.365
					c-0.021-0.072-0.035-0.121-0.043-0.145c-0.211,0.205-0.438,0.359-0.678,0.461s-0.496,0.154-0.769,0.154
					c-0.48,0-0.859-0.131-1.136-0.391c-0.277-0.262-0.416-0.592-0.416-0.99c0-0.264,0.063-0.498,0.189-0.705
					s0.303-0.365,0.529-0.475c0.228-0.109,0.555-0.205,0.982-0.287c0.577-0.109,0.977-0.209,1.199-0.303v-0.123
					c0-0.238-0.059-0.408-0.176-0.508c-0.117-0.102-0.338-0.152-0.663-0.152c-0.22,0-0.392,0.043-0.515,0.129
					C38.677,323.613,38.577,323.764,38.501,323.98z M40.153,324.982c-0.158,0.053-0.408,0.117-0.751,0.189
					c-0.343,0.074-0.567,0.145-0.673,0.215c-0.161,0.115-0.241,0.26-0.241,0.436c0,0.174,0.064,0.322,0.193,0.449
					c0.129,0.125,0.293,0.188,0.492,0.188c0.223,0,0.435-0.072,0.638-0.219c0.148-0.111,0.247-0.248,0.294-0.408
					c0.032-0.105,0.048-0.307,0.048-0.604V324.982z"/>
				<path d="M42.149,325.893l1.239-0.189c0.053,0.24,0.159,0.424,0.321,0.547c0.16,0.125,0.387,0.188,0.676,0.188
					c0.319,0,0.56-0.059,0.721-0.176c0.108-0.082,0.163-0.191,0.163-0.33c0-0.094-0.029-0.17-0.088-0.232
					c-0.062-0.059-0.199-0.113-0.413-0.162c-0.996-0.221-1.628-0.42-1.895-0.602c-0.369-0.252-0.553-0.604-0.553-1.051
					c0-0.404,0.159-0.744,0.479-1.02s0.814-0.414,1.485-0.414c0.639,0,1.113,0.105,1.424,0.313c0.311,0.209,0.524,0.516,0.642,0.924
					l-1.164,0.215c-0.051-0.182-0.145-0.32-0.284-0.418c-0.139-0.096-0.338-0.145-0.595-0.145c-0.326,0-0.559,0.045-0.699,0.137
					c-0.094,0.064-0.141,0.146-0.141,0.25c0,0.088,0.041,0.162,0.123,0.225c0.111,0.082,0.496,0.197,1.153,0.346
					c0.658,0.15,1.117,0.334,1.378,0.551c0.258,0.219,0.387,0.525,0.387,0.918c0,0.428-0.179,0.795-0.536,1.104
					c-0.357,0.307-0.887,0.461-1.587,0.461c-0.636,0-1.139-0.129-1.509-0.387C42.506,326.686,42.264,326.336,42.149,325.893z"/>
				<path d="M50.293,325.738l1.23,0.207c-0.158,0.451-0.408,0.795-0.749,1.031c-0.342,0.234-0.769,0.354-1.281,0.354
					c-0.812,0-1.412-0.266-1.802-0.795c-0.308-0.426-0.462-0.961-0.462-1.609c0-0.773,0.203-1.379,0.607-1.816
					c0.404-0.439,0.915-0.658,1.533-0.658c0.694,0,1.242,0.23,1.644,0.688c0.401,0.459,0.593,1.162,0.575,2.107h-3.094
					c0.01,0.367,0.108,0.652,0.299,0.855s0.428,0.305,0.713,0.305c0.193,0,0.355-0.053,0.487-0.158S50.226,325.973,50.293,325.738z
					 M50.363,324.49c-0.009-0.357-0.101-0.629-0.276-0.814s-0.391-0.279-0.643-0.279c-0.27,0-0.492,0.098-0.668,0.295
					c-0.176,0.195-0.262,0.463-0.259,0.799H50.363z"/>
				<path d="M23.716,333.855l1.261,0.4c-0.193,0.703-0.515,1.225-0.965,1.566c-0.449,0.342-1.021,0.512-1.712,0.512
					c-0.855,0-1.559-0.293-2.109-0.877s-0.826-1.383-0.826-2.396c0-1.072,0.277-1.906,0.831-2.498
					c0.554-0.594,1.281-0.891,2.185-0.891c0.787,0,1.428,0.232,1.92,0.699c0.293,0.275,0.513,0.67,0.659,1.186l-1.288,0.309
					c-0.076-0.334-0.234-0.598-0.477-0.791c-0.241-0.193-0.535-0.291-0.881-0.291c-0.478,0-0.865,0.172-1.162,0.516
					c-0.298,0.342-0.446,0.896-0.446,1.664c0,0.814,0.146,1.395,0.439,1.74s0.674,0.52,1.143,0.52c0.346,0,0.643-0.109,0.892-0.33
					C23.428,334.674,23.606,334.328,23.716,333.855z"/>
				<path d="M25.799,333.824c0-0.41,0.101-0.807,0.304-1.189c0.201-0.385,0.488-0.678,0.858-0.879
					c0.371-0.203,0.784-0.305,1.241-0.305c0.706,0,1.285,0.23,1.736,0.688c0.451,0.459,0.677,1.039,0.677,1.738
					c0,0.707-0.228,1.291-0.684,1.756c-0.455,0.465-1.029,0.697-1.72,0.697c-0.429,0-0.836-0.098-1.225-0.291
					c-0.388-0.193-0.684-0.477-0.885-0.85C25.899,334.816,25.799,334.361,25.799,333.824z M27.064,333.891
					c0,0.463,0.11,0.818,0.329,1.064c0.221,0.246,0.491,0.369,0.813,0.369s0.593-0.123,0.811-0.369
					c0.219-0.246,0.327-0.604,0.327-1.072c0-0.457-0.108-0.809-0.327-1.055c-0.218-0.246-0.488-0.369-0.811-0.369
					s-0.593,0.123-0.813,0.369C27.175,333.074,27.064,333.428,27.064,333.891z"/>
				<path d="M35.827,336.225h-1.234v-2.383c0-0.504-0.026-0.83-0.079-0.977c-0.053-0.148-0.139-0.264-0.257-0.346
					c-0.119-0.082-0.262-0.123-0.429-0.123c-0.214,0-0.406,0.059-0.575,0.176c-0.171,0.117-0.287,0.273-0.35,0.467
					c-0.063,0.193-0.095,0.551-0.095,1.072v2.113h-1.235v-4.668h1.147v0.686c0.407-0.527,0.92-0.791,1.538-0.791
					c0.272,0,0.521,0.049,0.747,0.148c0.226,0.098,0.396,0.223,0.512,0.375c0.116,0.152,0.196,0.326,0.242,0.52
					c0.045,0.193,0.067,0.469,0.067,0.83V336.225z"/>
				<path d="M39.221,331.557v0.984h-0.844v1.881c0,0.381,0.008,0.604,0.024,0.666c0.016,0.063,0.053,0.115,0.109,0.156
					c0.058,0.041,0.127,0.063,0.209,0.063c0.114,0,0.279-0.041,0.496-0.119l0.105,0.957c-0.287,0.123-0.612,0.186-0.975,0.186
					c-0.224,0-0.424-0.037-0.603-0.113c-0.179-0.074-0.31-0.17-0.394-0.289c-0.083-0.119-0.142-0.279-0.174-0.48
					c-0.025-0.145-0.039-0.434-0.039-0.871v-2.035h-0.566v-0.984h0.566v-0.926l1.239-0.721v1.646H39.221z"/>
				<path d="M41.26,336.225h-1.234v-4.668h1.146v0.664c0.196-0.313,0.373-0.52,0.529-0.619c0.157-0.1,0.335-0.15,0.534-0.15
					c0.281,0,0.552,0.078,0.813,0.234l-0.383,1.076c-0.208-0.135-0.401-0.203-0.58-0.203c-0.173,0-0.319,0.049-0.439,0.143
					c-0.12,0.096-0.215,0.268-0.283,0.518c-0.069,0.248-0.104,0.77-0.104,1.564V336.225z"/>
				<path d="M43.295,333.824c0-0.41,0.101-0.807,0.304-1.189c0.201-0.385,0.488-0.678,0.858-0.879
					c0.371-0.203,0.784-0.305,1.241-0.305c0.706,0,1.285,0.23,1.736,0.688c0.451,0.459,0.677,1.039,0.677,1.738
					c0,0.707-0.228,1.291-0.684,1.756c-0.455,0.465-1.029,0.697-1.72,0.697c-0.429,0-0.836-0.098-1.225-0.291
					c-0.388-0.193-0.684-0.477-0.885-0.85C43.396,334.816,43.295,334.361,43.295,333.824z M44.561,333.891
					c0,0.463,0.11,0.818,0.329,1.064c0.221,0.246,0.491,0.369,0.813,0.369s0.593-0.123,0.811-0.369
					c0.219-0.246,0.327-0.604,0.327-1.072c0-0.457-0.108-0.809-0.327-1.055c-0.218-0.246-0.488-0.369-0.811-0.369
					s-0.593,0.123-0.813,0.369C44.671,333.074,44.561,333.428,44.561,333.891z"/>
				<path d="M49.079,336.225v-6.443h1.234v6.443H49.079z"/>
				<g id="_x3C_Group_x3E__1_">
					
						<path id="path1381_1_" inkscape:connector-curvature="0" fill="none" stroke="#000000" stroke-width="3" stroke-linecap="round" stroke-linejoin="bevel" stroke-miterlimit="10" d="
						M40.704,316.518H23.743c-0.83,0-1.502-0.684-1.502-1.51v-14.293c0-0.824,0.672-1.5,1.502-1.5h22.536
						c0.825,0,1.508,0.676,1.508,1.5v14.293c0,0.826-0.683,1.51-1.508,1.51H40.704"/>
					
						<line id="line1383_1_" fill="none" stroke="#000000" stroke-width="2" stroke-linecap="round" stroke-linejoin="bevel" stroke-miterlimit="10" x1="35.829" y1="303.037" x2="25.878" y2="311.131"/>
					
						<line id="line1385_1_" fill="none" stroke="#000000" stroke-width="2" stroke-linecap="round" stroke-linejoin="bevel" stroke-miterlimit="10" x1="35.829" y1="306.09" x2="29.633" y2="311.131"/>
					
						<line id="line1387_1_" fill="none" stroke="#000000" stroke-width="2" stroke-linecap="round" stroke-linejoin="bevel" stroke-miterlimit="10" x1="32.731" y1="302.58" x2="25.738" y2="308.264"/>
				</g>
			</g>
		</g>
	</g>
	<g id="cdpButtonStyle1">
		<rect x="-0.314" y="131.795" fill="none" width="69" height="69"/>
		<g id="_x3C_Group_x3E_">
			<text transform="matrix(1 0 0 1 21.6685 185.0547)" font-family="'Arial-BoldMT'" font-size="9">Radio</text>
			<path id="path375_2_" inkscape:connector-curvature="0" d="M43.971,154.875c-0.268,0-0.516-0.141-0.66-0.381
				c-1.879-3.289-5.385-5.326-9.143-5.326c-3.756,0-7.264,2.037-9.143,5.326c-0.211,0.369-0.678,0.492-1.045,0.278
				c-0.365-0.212-0.488-0.682-0.273-1.048c2.152-3.764,6.164-6.094,10.461-6.094s8.309,2.33,10.463,6.094
				c0.213,0.366,0.09,0.834-0.271,1.048C44.232,154.84,44.1,154.875,43.971,154.875L43.971,154.875z"/>
			<path id="path377_2_" inkscape:connector-curvature="0" d="M27.006,156.416c-0.127,0-0.26-0.036-0.383-0.103
				c-0.361-0.213-0.488-0.686-0.273-1.055c1.609-2.809,4.609-4.555,7.82-4.555c3.213,0,6.207,1.746,7.822,4.555
				c0.211,0.369,0.09,0.841-0.271,1.055c-0.367,0.211-0.834,0.08-1.047-0.287c-1.338-2.333-3.83-3.783-6.504-3.783
				s-5.162,1.45-6.502,3.783C27.521,156.276,27.27,156.416,27.006,156.416z"/>
			<path id="path381_2_" inkscape:connector-curvature="0" d="M38.689,157.948c-0.264,0-0.514-0.134-0.658-0.383
				c-0.793-1.385-2.275-2.254-3.863-2.254c-1.592,0-3.07,0.869-3.863,2.254c-0.211,0.367-0.682,0.489-1.047,0.277
				c-0.361-0.211-0.482-0.681-0.271-1.049c1.064-1.858,3.053-3.013,5.184-3.013c2.125,0,4.117,1.154,5.18,3.013
				c0.211,0.368,0.09,0.838-0.27,1.049C38.953,157.919,38.822,157.948,38.689,157.948L38.689,157.948z"/>
			<path id="path383_2_" inkscape:connector-curvature="0" d="M26.328,162.452c-1.924,0-3.484,1.57-3.484,3.512
				c0,1.94,1.563,3.507,3.484,3.507c1.926,0,3.484-1.566,3.484-3.507C29.813,164.022,28.252,162.452,26.328,162.452z M42.01,162.452
				c-1.926,0-3.484,1.57-3.484,3.512c0,1.94,1.563,3.507,3.484,3.507s3.482-1.566,3.482-3.507
				C45.492,164.022,43.934,162.452,42.01,162.452z M36.344,161.571h-4.35v3.517h4.35V161.571z M34.168,171.236
				c-0.725,0-1.305,0.583-1.305,1.318c0,0.72,0.58,1.314,1.305,1.314s1.305-0.595,1.305-1.314
				C35.473,171.819,34.893,171.236,34.168,171.236z M38.523,171.236c-0.725,0-1.311,0.583-1.311,1.318
				c0,0.72,0.58,1.314,1.311,1.314c0.721,0,1.303-0.595,1.303-1.314C39.826,171.819,39.244,171.236,38.523,171.236z M42.883,171.236
				c-0.727,0-1.316,0.583-1.316,1.318c0,0.72,0.59,1.314,1.316,1.314c0.711,0,1.299-0.595,1.299-1.314
				C44.182,171.819,43.594,171.236,42.883,171.236z M29.813,171.236c-0.719,0-1.303,0.583-1.303,1.318
				c0,0.72,0.584,1.314,1.303,1.314c0.725,0,1.311-0.595,1.311-1.314C31.123,171.819,30.537,171.236,29.813,171.236z
				 M25.455,171.236c-0.713,0-1.301,0.583-1.301,1.318c0,0.72,0.586,1.314,1.301,1.314c0.727,0,1.314-0.595,1.314-1.314
				C26.77,171.819,26.182,171.236,25.455,171.236z M47.668,159.818v15.804h-27v-15.804h11.326l0,0c0-1.213,0.973-2.198,2.174-2.198
				c1.199,0,2.176,0.985,2.176,2.198l0,0H47.668z"/>
		</g>
	</g>
</g>
</svg>
