<?xml version="1.0" encoding="utf-8"?>
<!-- Generator: Adobe Illustrator 16.0.0, SVG Export Plug-In . SVG Version: 6.00 Build 0)  -->
<!DOCTYPE svg PUBLIC "-//W3C//DTD SVG 1.1//EN" "http://www.w3.org/Graphics/SVG/1.1/DTD/svg11.dtd">
<svg version="1.1" id="svg" xmlns="http://www.w3.org/2000/svg" xmlns:xlink="http://www.w3.org/1999/xlink" x="0px" y="0px"
	 width="69.307px" height="74.064px" viewBox="0 0 69.307 74.064" enable-background="new 0 0 69.307 74.064" xml:space="preserve">
<g id="Layer1">
	
		<linearGradient id="bgMenu2_1_" gradientUnits="userSpaceOnUse" x1="-373.1506" y1="3163.1658" x2="-113.1506" y2="3163.1658" gradientTransform="matrix(1 0 0 1 345.9009 -2837.1689)">
		<stop  offset="0.0073" style="stop-color:#242729"/>
		<stop  offset="0.045" style="stop-color:#282B2C"/>
		<stop  offset="0.3184" style="stop-color:#404142"/>
		<stop  offset="0.4866" style="stop-color:#494A4A"/>
		<stop  offset="0.6668" style="stop-color:#404142"/>
		<stop  offset="0.9597" style="stop-color:#282B2C"/>
		<stop  offset="1" style="stop-color:#242729"/>
	</linearGradient>
	<rect id="bgMenu2" x="-27.25" y="-3.007" display="none" fill="url(#bgMenu2_1_)" width="260" height="658.008"/>
	<g id="cdpBackground">
		<rect x="-111.464" y="7.585" fill="none" width="169.625" height="58.896"/>
		<g>
			
				<linearGradient id="SVGID_1_" gradientUnits="userSpaceOnUse" x1="-216.7312" y1="3431.075" x2="-107.7678" y2="3540.0386" gradientTransform="matrix(1 0 0 1 135.3604 -3448.5264)">
				<stop  offset="0" style="stop-color:#212223"/>
				<stop  offset="0.5529" style="stop-color:#2A2B2B"/>
				<stop  offset="0.9895" style="stop-color:#666868"/>
			</linearGradient>
			<path fill="url(#SVGID_1_)" d="M57.923,57.458c0,4.979-4.057,9.021-9.062,9.021h-151.503c-5.006,0-9.063-4.041-9.063-9.021
				V16.606c0-4.979,4.057-9.021,9.063-9.021H48.866c5.006,0,9.063,4.043,9.063,9.021L57.923,57.458L57.923,57.458z"/>
			<path d="M55.282,55.278c0,4.736-3.988,8.572-8.91,8.572H-100.15c-4.922,0-8.912-3.836-8.912-8.572V18.786
				c0-4.731,3.99-8.572,8.912-8.572H46.372c4.922,0,8.91,3.839,8.91,8.572V55.278L55.282,55.278z"/>
			
				<linearGradient id="SVGID_2_" gradientUnits="userSpaceOnUse" x1="-8.593" y1="20.4329" x2="-163.593" y2="20.4328" gradientTransform="matrix(1 0 0 -1 59.1602 57.4644)">
				<stop  offset="0" style="stop-color:#5A5A5A"/>
				<stop  offset="1" style="stop-color:#B2B2B2"/>
			</linearGradient>
			<path fill="url(#SVGID_2_)" d="M50.566,52.053c0,4.406-3.903,7.979-8.717,7.979H-95.709c-4.817,0-8.724-3.571-8.724-7.979V22.016
				c0-4.41,3.905-7.984,8.724-7.984H41.853c4.813,0,8.715,3.576,8.715,7.984L50.566,52.053L50.566,52.053z"/>
		</g>
	</g>
	<g id="cdpButton">
		<rect x="-60.256" y="78.237" fill="none" width="169.625" height="58.896"/>
		<g>
			<path d="M-14.745,108.705v-2.171h5.607v5.133c-0.545,0.527-1.334,0.992-2.369,1.393c-1.034,0.401-2.082,0.603-3.142,0.603
				c-1.348,0-2.522-0.282-3.524-0.849c-1.002-0.564-1.755-1.373-2.259-2.426c-0.504-1.051-0.756-2.195-0.756-3.432
				c0-1.342,0.281-2.534,0.844-3.577s1.386-1.843,2.47-2.399c0.826-0.428,1.854-0.642,3.085-0.642c1.6,0,2.849,0.336,3.749,1.007
				s1.478,1.598,1.736,2.781l-2.584,0.483c-0.182-0.633-0.523-1.132-1.024-1.499c-0.501-0.365-1.126-0.549-1.876-0.549
				c-1.137,0-2.041,0.36-2.711,1.081s-1.006,1.79-1.006,3.208c0,1.529,0.34,2.676,1.02,3.441c0.68,0.764,1.57,1.146,2.672,1.146
				c0.545,0,1.091-0.106,1.639-0.32s1.018-0.474,1.411-0.778v-1.635H-14.745z"/>
			<path d="M4.881,113.442h-2.83l-1.125-2.927h-5.15l-1.063,2.927h-2.76l5.019-12.885h2.751L4.881,113.442z M0.091,108.344
				l-1.775-4.781l-1.74,4.781H0.091z"/>
			<path d="M6.182,113.442v-12.885h2.602v12.885H6.182z"/>
			<path d="M11.288,113.442v-12.885h2.531l5.273,8.604v-8.604h2.417v12.885H18.9l-5.194-8.402v8.402H11.288z"/>
			<path d="M24.718,106.578v-2.47h2.47v2.47H24.718z M24.718,113.442v-2.47h2.47v2.47H24.718z"/>
		</g>
	</g>
	<g id="cdpBackgroundPressed">
		<rect x="84.256" y="7.585" fill="none" width="169.625" height="58.896"/>
		<g>
			
				<linearGradient id="SVGID_3_" gradientUnits="userSpaceOnUse" x1="-20.7307" y1="3431.0759" x2="88.232" y2="3540.0388" gradientTransform="matrix(1 0 0 1 135.3604 -3448.5264)">
				<stop  offset="0" style="stop-color:#212223"/>
				<stop  offset="0.5529" style="stop-color:#2A2B2B"/>
				<stop  offset="0.9895" style="stop-color:#666868"/>
			</linearGradient>
			<path fill="url(#SVGID_3_)" d="M253.923,57.458c0,4.979-4.057,9.021-9.062,9.021H93.359c-5.006,0-9.063-4.041-9.063-9.021V16.606
				c0-4.979,4.057-9.021,9.063-9.021h151.509c5.006,0,9.063,4.043,9.063,9.021L253.923,57.458L253.923,57.458z"/>
			<path d="M251.282,55.278c0,4.736-3.988,8.572-8.91,8.572H95.851c-4.922,0-8.912-3.836-8.912-8.572V18.786
				c0-4.731,3.99-8.572,8.912-8.572h146.521c4.922,0,8.91,3.839,8.91,8.572V55.278L251.282,55.278z"/>
			
				<linearGradient id="SVGID_4_" gradientUnits="userSpaceOnUse" x1="32.4065" y1="20.4324" x2="187.4075" y2="20.4324" gradientTransform="matrix(1 0 0 -1 59.1602 57.4644)">
				<stop  offset="0" style="stop-color:#5A5A5A"/>
				<stop  offset="1" style="stop-color:#B2B2B2"/>
			</linearGradient>
			<path fill="url(#SVGID_4_)" d="M246.566,52.053c0,4.406-3.903,7.979-8.717,7.979H100.29c-4.816,0-8.724-3.571-8.724-7.979V22.016
				c0-4.41,3.906-7.984,8.724-7.984h137.563c4.813,0,8.715,3.576,8.715,7.984L246.566,52.053L246.566,52.053z"/>
		</g>
	</g>
</g>
<g id="Styles">
	<g id="cdpButtonStyle7">
		<rect x="0.306" y="557.064" fill="none" width="69" height="69"/>
	</g>
	<g id="cdpButtonStyle6">
		<rect x="0.307" y="488.064" fill="none" width="69" height="69"/>
	</g>
	<g id="cdpButtonStyle5">
		<rect x="0.307" y="419.064" fill="none" width="69" height="69"/>
	</g>
	<g id="cdpButtonStyle4">
		<rect x="0.307" y="350.064" fill="none" width="69" height="69"/>
	</g>
	<g id="cdpButtonStyle3">
		<rect x="0.307" y="281.064" fill="none" width="69" height="69"/>
	</g>
	<g id="cdpButtonStyle2">
		<g>
			<path d="M11.27,251.552h2.645c0.596,0,1.05,0.046,1.359,0.137c0.42,0.124,0.779,0.344,1.079,0.659
				c0.3,0.313,0.527,0.699,0.687,1.156c0.153,0.458,0.231,1.021,0.231,1.692c0,0.589-0.07,1.097-0.22,1.523
				c-0.179,0.521-0.435,0.939-0.767,1.265c-0.251,0.244-0.592,0.435-1.019,0.571c-0.316,0.101-0.745,0.148-1.279,0.148h-2.72
				L11.27,251.552L11.27,251.552z M12.716,252.763v4.738h1.079c0.403,0,0.695-0.021,0.874-0.065
				c0.231-0.062,0.429-0.158,0.584-0.298c0.154-0.143,0.28-0.37,0.378-0.691c0.098-0.32,0.146-0.757,0.146-1.311
				c0-0.557-0.049-0.979-0.146-1.274s-0.234-0.527-0.41-0.693s-0.396-0.275-0.669-0.337c-0.202-0.046-0.598-0.065-1.187-0.065
				L12.716,252.763L12.716,252.763z"/>
			<path d="M18.453,258.711v-7.155h1.442v7.155H18.453z"/>
			<path d="M20.909,256.382l1.403-0.137c0.085,0.472,0.256,0.818,0.519,1.04c0.258,0.222,0.604,0.332,1.047,0.332
				c0.466,0,0.813-0.099,1.053-0.295c0.235-0.197,0.354-0.428,0.354-0.691c0-0.169-0.053-0.313-0.148-0.432
				c-0.1-0.119-0.273-0.223-0.521-0.311c-0.172-0.062-0.558-0.163-1.157-0.313c-0.774-0.192-1.318-0.428-1.631-0.708
				c-0.439-0.394-0.659-0.874-0.659-1.44c0-0.361,0.104-0.702,0.31-1.021c0.207-0.316,0.505-0.559,0.896-0.725
				c0.389-0.166,0.855-0.249,1.408-0.249c0.896,0,1.571,0.194,2.026,0.591c0.453,0.394,0.692,0.92,0.715,1.577l-1.442,0.063
				c-0.063-0.368-0.194-0.633-0.398-0.793c-0.203-0.162-0.508-0.242-0.915-0.242c-0.42,0-0.749,0.086-0.983,0.261
				c-0.153,0.108-0.229,0.26-0.229,0.442c0,0.169,0.071,0.314,0.215,0.438c0.186,0.15,0.625,0.313,1.328,0.479
				s1.223,0.338,1.563,0.516c0.336,0.18,0.6,0.422,0.791,0.729c0.188,0.307,0.282,0.688,0.282,1.14c0,0.41-0.111,0.794-0.342,1.152
				c-0.228,0.358-0.55,0.624-0.967,0.798c-0.417,0.175-0.938,0.262-1.558,0.262c-0.905,0-1.603-0.209-2.086-0.627
				C21.293,257.792,21.004,257.182,20.909,256.382z"/>
			<path d="M34.4,258.711H32.83l-0.625-1.626h-2.861l-0.591,1.626H27.22l2.788-7.155h1.528L34.4,258.711z M31.739,255.879
				l-0.983-2.653l-0.967,2.653H31.739z"/>
			<path d="M35.171,251.552h2.861c0.563,0,0.985,0.021,1.268,0.067c0.277,0.048,0.527,0.146,0.746,0.296
				c0.221,0.149,0.404,0.352,0.551,0.602c0.146,0.248,0.219,0.524,0.219,0.837c0,0.335-0.09,0.643-0.271,0.923
				c-0.18,0.28-0.424,0.49-0.734,0.63c0.438,0.127,0.771,0.344,1.006,0.649c0.235,0.305,0.354,0.666,0.354,1.079
				c0,0.322-0.076,0.642-0.229,0.947c-0.15,0.309-0.354,0.556-0.621,0.736c-0.262,0.185-0.584,0.298-0.969,0.34
				c-0.24,0.026-0.822,0.042-1.742,0.049h-2.438L35.171,251.552L35.171,251.552z M36.616,252.744v1.655h0.944
				c0.564,0,0.914-0.008,1.051-0.024c0.246-0.026,0.441-0.112,0.582-0.256c0.146-0.143,0.216-0.328,0.216-0.56
				c0-0.225-0.063-0.401-0.187-0.54c-0.121-0.141-0.303-0.225-0.543-0.251c-0.145-0.02-0.555-0.024-1.236-0.024H36.616z
				 M36.616,255.591v1.914h1.338c0.521,0,0.852-0.015,0.989-0.044c0.218-0.039,0.392-0.135,0.523-0.285
				c0.137-0.149,0.203-0.354,0.203-0.605c0-0.215-0.051-0.397-0.156-0.547c-0.104-0.149-0.254-0.259-0.451-0.327
				c-0.194-0.068-0.625-0.104-1.278-0.104L36.616,255.591L36.616,255.591z"/>
			<path d="M42.427,258.711v-7.1h1.445v5.894h3.594v1.206H42.427z"/>
			<path d="M48.497,258.711v-7.155h5.307v1.211h-3.861v1.587h3.597v1.206h-3.597v1.945h3.998v1.206H48.497z"/>
			<path d="M55.161,251.552h2.643c0.596,0,1.049,0.046,1.361,0.137c0.42,0.124,0.776,0.344,1.08,0.659
				c0.299,0.313,0.524,0.699,0.684,1.156c0.156,0.458,0.234,1.021,0.234,1.692c0,0.589-0.074,1.097-0.224,1.523
				c-0.178,0.521-0.434,0.939-0.766,1.265c-0.252,0.244-0.59,0.435-1.016,0.571c-0.32,0.101-0.746,0.148-1.279,0.148h-2.72
				L55.161,251.552L55.161,251.552z M56.607,252.763v4.738h1.08c0.402,0,0.695-0.021,0.873-0.065
				c0.234-0.062,0.433-0.158,0.584-0.298c0.154-0.143,0.281-0.37,0.379-0.691c0.101-0.32,0.146-0.757,0.146-1.311
				c0-0.557-0.049-0.979-0.146-1.274c-0.097-0.295-0.231-0.527-0.41-0.693c-0.176-0.166-0.396-0.275-0.67-0.337
				c-0.198-0.046-0.598-0.065-1.186-0.065L56.607,252.763L56.607,252.763z"/>
		</g>
		<rect x="1.717" y="220.634" fill="none" width="69" height="69"/>
	</g>
	<g id="cdpButtonStyle1">
		<rect x="0.307" y="143.064" fill="none" width="69" height="69"/>
	</g>
</g>
</svg>
