<?xml version="1.0" encoding="utf-8"?>
<!-- Generator: Adobe Illustrator 15.0.0, SVG Export Plug-In . SVG Version: 6.00 Build 0)  -->
<!DOCTYPE svg PUBLIC "-//W3C//DTD SVG 1.1//EN" "http://www.w3.org/Graphics/SVG/1.1/DTD/svg11.dtd">
<svg version="1.1" id="svg" xmlns="http://www.w3.org/2000/svg" xmlns:xlink="http://www.w3.org/1999/xlink" x="0px" y="0px"
	 width="192px" height="192px" viewBox="0 0 192 192" enable-background="new 0 0 192 192" xml:space="preserve">
<g id="Layer1">
	<g id="cdpBackground">
		<radialGradient id="outer_2_" cx="159.1748" cy="55.1499" r="156.7254" gradientUnits="userSpaceOnUse">
			<stop  offset="0" style="stop-color:#323B40"/>
			<stop  offset="1" style="stop-color:#212426"/>
		</radialGradient>
		
			<circle id="outer_1_" fill="url(#outer_2_)" stroke="#505152" stroke-width="0.95" stroke-miterlimit="10" cx="96" cy="96" r="95"/>
		<radialGradient id="middle_2_" cx="96" cy="96" r="87.5" gradientUnits="userSpaceOnUse">
			<stop  offset="0" style="stop-color:#DCE0E6"/>
			<stop  offset="1" style="stop-color:#343536"/>
		</radialGradient>
		<circle id="middle_1_" fill="url(#middle_2_)" cx="96" cy="96" r="87.5"/>
		<radialGradient id="inner_2_" cx="-14.5" cy="215.5" r="190.003" gradientUnits="userSpaceOnUse">
			<stop  offset="0" style="stop-color:#171717"/>
			<stop  offset="0.4171" style="stop-color:#191919"/>
			<stop  offset="0.6397" style="stop-color:#212121"/>
			<stop  offset="0.8162" style="stop-color:#2E2F2F"/>
			<stop  offset="0.9678" style="stop-color:#414242"/>
			<stop  offset="1" style="stop-color:#464747"/>
		</radialGradient>
		<circle id="inner_6_" fill="url(#inner_2_)" cx="96" cy="96" r="86.5"/>
		<path id="inner_4_" display="none" fill="none" stroke="#FFFFFF" stroke-width="1.5" stroke-miterlimit="10" d="M84.984,17.459
			c3.584-0.492,7.244-0.746,10.965-0.746c44.184,0,80,35.816,80,80c0,17.298-5.49,33.313-14.822,46.398"/>
		<rect id="outline" fill="none" width="192" height="192"/>
	</g>
	<rect id="cdpTicksMinorSize_1_" x="87.417" y="25.713" fill="none" width="1" height="5"/>
	<rect id="cdpTicksMajorSize" x="88.916" y="19.213" fill="none" width="2" height="12"/>
	<rect id="cdpTicksOffset" x="89.917" y="25.78" fill="none" width="3.999" height="2"/>
	<rect id="cdpTicksMajorNo6T" x="93.917" y="16.713" fill="none" width="3.999" height="5.563"/>
	<rect id="cdpTicksMinorNo3T" x="93.917" y="16.713" fill="none" width="3.999" height="5.563"/>
	<g id="cdpTicksColor" enable-background="new    ">
		<text transform="matrix(1 0 0 1 218.2305 105.6328)" font-family="'Arial-BoldMT'" font-size="10">1</text>
	</g>
	<g id="cdpTicksNumber" enable-background="new    ">
		<text transform="matrix(1 0 0 1 218.2305 95.2441)" font-family="'Arial-BoldMT'" font-size="8">1</text>
	</g>
	<g id="scaleLeft">
		
			<text transform="matrix(-4.400000e-004 -1 1 -4.400000e-004 45.5952 100.791)" fill="#FFFFFF" font-family="'Arial-BoldMT'" font-size="13.9993">2</text>
		<path id="inner_8_" display="none" fill="none" stroke="#FF0007" stroke-width="4" stroke-miterlimit="10" d="M44.507,38.757
			c3.853-3.417,8.106-6.498,12.739-9.173c14.539-8.395,30.668-11.542,46.193-10.03"/>
		<path id="inner_7_" display="none" fill="none" stroke="#FFFFFF" stroke-width="0.9249" stroke-miterlimit="10" d="M84.984,17.459
			c3.584-0.492,7.244-0.746,10.965-0.746c44.184,0,80,35.816,80,80c0,17.298-5.49,33.313-14.822,46.398"/>
		<line fill="none" stroke="#FFFFFF" stroke-width="4" stroke-miterlimit="10" x1="39.706" y1="129.2" x2="26.715" y2="136.7"/>
		<line fill="none" stroke="#FFFFFF" stroke-width="4" stroke-miterlimit="10" x1="30.998" y1="96.728" x2="15.997" y2="96.732"/>
		<g enable-background="new    ">
			<text transform="matrix(-0.5 -0.866 0.866 -0.5 54.4517 125.2549)" font-family="'Arial-BoldMT'" font-size="13.9993">1</text>
		</g>
		<line fill="none" stroke="#FFFFFF" stroke-width="4" stroke-miterlimit="10" x1="39.724" y1="64.168" x2="26.738" y2="56.661"/>
		
			<text transform="matrix(0.5005 -0.8657 0.8657 0.5005 50.478 74.98)" fill="#FFFFFF" font-family="'Arial-BoldMT'" font-size="14">3</text>
		<line fill="none" stroke="#FFFFFF" stroke-width="4" stroke-miterlimit="10" x1="63.546" y1="40.381" x2="56.056" y2="27.385"/>
		
			<text transform="matrix(0.8665 -0.4993 0.4993 0.8665 67.5239 55.0815)" fill="#FFFFFF" font-family="'Arial-BoldMT'" font-size="14">4</text>
	</g>
	<g id="scale_2_">
		
			<text transform="matrix(0.8662 0.4996 -0.4996 0.8662 117.6299 51.0977)" fill="#FFFFFF" font-family="'Arial-BoldMT'" font-size="13.9993">2</text>
		<path id="inner_3_" fill="none" stroke="#FF0007" stroke-width="4" stroke-miterlimit="10" d="M171.875,81.094
			c1.033,5.045,1.574,10.27,1.574,15.619c0,16.788-5.338,32.33-14.41,45.02"/>
		<path id="inner_1_" display="none" fill="none" stroke="#FFFFFF" stroke-width="0.9249" stroke-miterlimit="10" d="M84.984,17.459
			c3.584-0.492,7.244-0.746,10.965-0.746c44.184,0,80,35.816,80,80c0,17.298-5.49,33.313-14.822,46.398"/>
		<line fill="none" stroke="#FFFFFF" stroke-width="4" stroke-miterlimit="10" x1="128.426" y1="40.408" x2="135.922" y2="27.415"/>
		<line fill="none" stroke="#FFFFFF" stroke-width="4" stroke-miterlimit="10" x1="152.26" y1="64.245" x2="165.254" y2="56.753"/>
		
			<text transform="matrix(0.4995 0.8663 -0.8663 0.4995 137.5449 68.1431)" fill="#FFFFFF" font-family="'Arial-BoldMT'" font-size="14">3</text>
		<line fill="none" stroke="#FFFFFF" stroke-width="4" stroke-miterlimit="10" x1="160.949" y1="96.77" x2="175.949" y2="96.781"/>
		
			<text transform="matrix(-8.600000e-004 1 -1 -8.600000e-004 146.2676 92.7969)" fill="#FFFFFF" font-family="'Arial-BoldMT'" font-size="14">4</text>
		
			<line fill="none" stroke="#FFFFFF" stroke-width="4" stroke-miterlimit="10" x1="152.256" y1="129.186" x2="165.252" y2="136.678"/>
		
			<text transform="matrix(-0.4996 0.8663 -0.8663 -0.4996 141.5391 118.3945)" fill="#FFFFFF" font-family="'Arial-BoldMT'" font-size="14.0005">5</text>
	</g>
	<g id="needles">
		
			<linearGradient id="SVGID_1_" gradientUnits="userSpaceOnUse" x1="75.4819" y1="23.3291" x2="63.4808" y2="23.3291" gradientTransform="matrix(-0.3511 -0.9363 0.9363 -0.3511 66.396 181.4601)">
			<stop  offset="0" style="stop-color:#FFFFFF"/>
			<stop  offset="0.1414" style="stop-color:#FAFBFB"/>
			<stop  offset="0.3029" style="stop-color:#ECEDEE"/>
			<stop  offset="0.4743" style="stop-color:#D6D8D9"/>
			<stop  offset="0.6526" style="stop-color:#B6B9BC"/>
			<stop  offset="0.8343" style="stop-color:#8D9396"/>
			<stop  offset="1" style="stop-color:#61696E"/>
		</linearGradient>
		<path display="none" fill="url(#SVGID_1_)" d="M102.451,88.788c1.018-0.421,2.398-0.009,2.784,1.021l2.106,5.618
			c0.387,1.029-0.384,2.247-1.427,2.601l-81.649,27.557c-1.043,0.354-2.27-0.182-2.656-1.211l0,0
			c-0.386-1.03,0.216-2.249,1.234-2.668L102.451,88.788z"/>
		
			<linearGradient id="SVGID_2_" gradientUnits="userSpaceOnUse" x1="105.624" y1="-47.4307" x2="93.6228" y2="-47.4307" gradientTransform="matrix(0.4021 0.9156 -0.9156 0.4021 50.2682 8.9504)">
			<stop  offset="0" style="stop-color:#FFFFFF"/>
			<stop  offset="0.1414" style="stop-color:#FAFBFB"/>
			<stop  offset="0.3029" style="stop-color:#ECEDEE"/>
			<stop  offset="0.4743" style="stop-color:#D6D8D9"/>
			<stop  offset="0.6526" style="stop-color:#B6B9BC"/>
			<stop  offset="0.8343" style="stop-color:#8D9396"/>
			<stop  offset="1" style="stop-color:#61696E"/>
		</linearGradient>
		<path fill="url(#SVGID_2_)" d="M100.818,100.619c-0.877,0.425-2.157,0.035-2.599-0.973l-2.413-5.492
			c-0.443-1.006,0.138-2.21,1.043-2.57l70.912-27.992c0.905-0.36,2.06,0.152,2.501,1.159l0,0c0.443,1.006,0.014,2.21-0.864,2.634
			L100.818,100.619z"/>
		
			<linearGradient id="SVGID_3_" gradientUnits="userSpaceOnUse" x1="23.8218" y1="-113.7827" x2="11.8218" y2="-113.7827" gradientTransform="matrix(-0.4012 -0.916 0.916 -0.4012 168.2458 84.3651)">
			<stop  offset="0" style="stop-color:#FFFFFF"/>
			<stop  offset="0.1414" style="stop-color:#FAFBFB"/>
			<stop  offset="0.3029" style="stop-color:#ECEDEE"/>
			<stop  offset="0.4743" style="stop-color:#D6D8D9"/>
			<stop  offset="0.6526" style="stop-color:#B6B9BC"/>
			<stop  offset="0.8343" style="stop-color:#8D9396"/>
			<stop  offset="1" style="stop-color:#61696E"/>
		</linearGradient>
		<path fill="url(#SVGID_3_)" d="M89.827,94.197c0.875-0.425,2.156-0.035,2.596,0.974l2.409,5.495
			c0.442,1.007-0.141,2.21-1.046,2.569l-70.94,27.921c-0.905,0.359-2.059-0.154-2.5-1.161l0,0c-0.442-1.007-0.01-2.21,0.868-2.634
			L89.827,94.197z"/>
		<g display="none">
			<linearGradient id="SVGID_4_" gradientUnits="userSpaceOnUse" x1="111.8271" y1="76.8223" x2="83.5769" y2="112.3225">
				<stop  offset="0" style="stop-color:#FFFFFF"/>
				<stop  offset="0.1414" style="stop-color:#FAFBFB"/>
				<stop  offset="0.3029" style="stop-color:#ECEDEE"/>
				<stop  offset="0.4743" style="stop-color:#D6D8D9"/>
				<stop  offset="0.6526" style="stop-color:#B6B9BC"/>
				<stop  offset="0.8343" style="stop-color:#8D9396"/>
				<stop  offset="1" style="stop-color:#61696E"/>
			</linearGradient>
			<circle display="inline" fill="url(#SVGID_4_)" cx="96" cy="96.713" r="9"/>
			<linearGradient id="SVGID_5_" gradientUnits="userSpaceOnUse" x1="100.8086" y1="91.3862" x2="89.9751" y2="103.3863">
				<stop  offset="0" style="stop-color:#FFFFFF"/>
				<stop  offset="0.1414" style="stop-color:#FAFBFB"/>
				<stop  offset="0.3029" style="stop-color:#ECEDEE"/>
				<stop  offset="0.4743" style="stop-color:#D6D8D9"/>
				<stop  offset="0.6526" style="stop-color:#B6B9BC"/>
				<stop  offset="0.8343" style="stop-color:#8D9396"/>
				<stop  offset="1" style="stop-color:#61696E"/>
			</linearGradient>
			<circle display="inline" fill="url(#SVGID_5_)" cx="96" cy="96.713" r="7.152"/>
		</g>
		<rect id="cdpRectCenter_3_" x="94.416" y="95.213" fill="none" width="3" height="3"/>
		<rect id="cdpRectOutline_3_" x="86.916" y="22.275" fill="none" width="18" height="90.438"/>
	</g>
	<g id="cdpTextSuffix">
		<rect x="53" y="156.166" fill="none" width="86" height="17.666"/>
		<text transform="matrix(1 0 0 1 77.606 166.5342)" fill="#8A8A8A" font-family="'Arial-BoldMT'" font-size="10">pixel / s</text>
	</g>
	<g id="cdpTextPrefix">
		<rect x="53" y="118" fill="none" width="86" height="38"/>
		<text transform="matrix(1 0 0 1 65.9194 148.1475)" fill="#FFFFFF" font-family="'ArialMT'" font-size="13">QUALITY</text>
		<text transform="matrix(1 0 0 1 83.4263 131.3477)" fill="#FFFFFF" font-family="'ArialMT'" font-size="13">GUI</text>
	</g>
	<g id="cdpNeedleGraphics">
		<linearGradient id="SVGID_6_" gradientUnits="userSpaceOnUse" x1="251.2959" y1="60.415" x2="239.2959" y2="60.415">
			<stop  offset="0" style="stop-color:#FFFFFF"/>
			<stop  offset="0.1414" style="stop-color:#FAFBFB"/>
			<stop  offset="0.3029" style="stop-color:#ECEDEE"/>
			<stop  offset="0.4743" style="stop-color:#D6D8D9"/>
			<stop  offset="0.6526" style="stop-color:#B6B9BC"/>
			<stop  offset="0.8343" style="stop-color:#8D9396"/>
			<stop  offset="1" style="stop-color:#61696E"/>
		</linearGradient>
		<path fill="url(#SVGID_6_)" d="M249.93,103.384c0.037,1.102-0.834,2.25-1.934,2.25h-6c-1.1,0-1.969-1.148-1.934-2.25l2.867-86.126
			c0.035-1.101,0.967-2.062,2.066-2.062l0,0c1.1,0,2.029,0.992,2.064,2.093L249.93,103.384z"/>
		<rect id="cdpRectCenter_1_" x="243.463" y="102.134" fill="none" width="3" height="3"/>
		<rect id="cdpRectOutline_1_" x="235.963" y="15.196" fill="none" width="18" height="90.438"/>
	</g>
	<rect id="cdpNeedleCenterCW" x="94.531" y="95.244" fill="none" width="2.938" height="2.938"/>
	<rect id="cdpNeedleMin" x="22.512" y="132.512" fill="none" width="2.977" height="2.977"/>
	<rect id="cdpNeedleMax_1_" x="51.971" y="22.971" fill="none" width="4.059" height="4.059"/>
</g>
<g id="Layer2">
	<g id="cdpTop">
		
			<linearGradient id="glass_2_" gradientUnits="userSpaceOnUse" x1="252.1377" y1="737.6143" x2="252.1377" y2="775.5098" gradientTransform="matrix(2.2068 0 0 2.2068 -460.2549 -1640.6885)">
			<stop  offset="0.4164" style="stop-color:#FFFFFF;stop-opacity:0.95"/>
			<stop  offset="1" style="stop-color:#FFFFFF;stop-opacity:0"/>
		</linearGradient>
		<path id="glass_1_" opacity="0.45" fill="url(#glass_2_)" enable-background="new    " d="M175,60.463
			c0,23.792-30.738-10.416-78.729-10.416c-47.988,0-78.951,38.455-78.951,10.416c0-0.98,20.854-50.95,78.754-50.95
			C152.928,9.513,175,59.524,175,60.463L175,60.463z"/>
		<g id="center">
			<linearGradient id="SVGID_7_" gradientUnits="userSpaceOnUse" x1="113.5859" y1="74.6123" x2="82.1965" y2="114.0574">
				<stop  offset="0" style="stop-color:#FFFFFF"/>
				<stop  offset="0.1414" style="stop-color:#FAFBFB"/>
				<stop  offset="0.3029" style="stop-color:#ECEDEE"/>
				<stop  offset="0.4743" style="stop-color:#D6D8D9"/>
				<stop  offset="0.6526" style="stop-color:#B6B9BC"/>
				<stop  offset="0.8343" style="stop-color:#8D9396"/>
				<stop  offset="1" style="stop-color:#61696E"/>
			</linearGradient>
			<circle fill="url(#SVGID_7_)" cx="96" cy="96.713" r="10"/>
			<linearGradient id="SVGID_8_" gradientUnits="userSpaceOnUse" x1="101.3438" y1="90.7944" x2="89.3064" y2="104.1279">
				<stop  offset="0" style="stop-color:#FFFFFF"/>
				<stop  offset="0.1414" style="stop-color:#FAFBFB"/>
				<stop  offset="0.3029" style="stop-color:#ECEDEE"/>
				<stop  offset="0.4743" style="stop-color:#D6D8D9"/>
				<stop  offset="0.6526" style="stop-color:#B6B9BC"/>
				<stop  offset="0.8343" style="stop-color:#8D9396"/>
				<stop  offset="1" style="stop-color:#61696E"/>
			</linearGradient>
			<circle fill="url(#SVGID_8_)" cx="96" cy="96.713" r="7.947"/>
		</g>
		<g id="right" display="none">
			<linearGradient id="SVGID_9_" gradientUnits="userSpaceOnUse" x1="124.5859" y1="74.6123" x2="93.1964" y2="114.0576">
				<stop  offset="0" style="stop-color:#FFFFFF"/>
				<stop  offset="0.1414" style="stop-color:#FAFBFB"/>
				<stop  offset="0.3029" style="stop-color:#ECEDEE"/>
				<stop  offset="0.4743" style="stop-color:#D6D8D9"/>
				<stop  offset="0.6526" style="stop-color:#B6B9BC"/>
				<stop  offset="0.8343" style="stop-color:#8D9396"/>
				<stop  offset="1" style="stop-color:#61696E"/>
			</linearGradient>
			<circle display="inline" fill="url(#SVGID_9_)" cx="107" cy="96.713" r="10"/>
			<linearGradient id="SVGID_10_" gradientUnits="userSpaceOnUse" x1="112.3438" y1="90.7944" x2="100.3064" y2="104.128">
				<stop  offset="0" style="stop-color:#FFFFFF"/>
				<stop  offset="0.1414" style="stop-color:#FAFBFB"/>
				<stop  offset="0.3029" style="stop-color:#ECEDEE"/>
				<stop  offset="0.4743" style="stop-color:#D6D8D9"/>
				<stop  offset="0.6526" style="stop-color:#B6B9BC"/>
				<stop  offset="0.8343" style="stop-color:#8D9396"/>
				<stop  offset="1" style="stop-color:#61696E"/>
			</linearGradient>
			<circle display="inline" fill="url(#SVGID_10_)" cx="107" cy="96.713" r="7.947"/>
		</g>
		<g id="left" display="none">
			<linearGradient id="SVGID_11_" gradientUnits="userSpaceOnUse" x1="102.5859" y1="74.6123" x2="71.1965" y2="114.0574">
				<stop  offset="0" style="stop-color:#FFFFFF"/>
				<stop  offset="0.1414" style="stop-color:#FAFBFB"/>
				<stop  offset="0.3029" style="stop-color:#ECEDEE"/>
				<stop  offset="0.4743" style="stop-color:#D6D8D9"/>
				<stop  offset="0.6526" style="stop-color:#B6B9BC"/>
				<stop  offset="0.8343" style="stop-color:#8D9396"/>
				<stop  offset="1" style="stop-color:#61696E"/>
			</linearGradient>
			<circle display="inline" fill="url(#SVGID_11_)" cx="85" cy="96.713" r="10"/>
			<linearGradient id="SVGID_12_" gradientUnits="userSpaceOnUse" x1="90.3433" y1="90.7944" x2="78.306" y2="104.1279">
				<stop  offset="0" style="stop-color:#FFFFFF"/>
				<stop  offset="0.1414" style="stop-color:#FAFBFB"/>
				<stop  offset="0.3029" style="stop-color:#ECEDEE"/>
				<stop  offset="0.4743" style="stop-color:#D6D8D9"/>
				<stop  offset="0.6526" style="stop-color:#B6B9BC"/>
				<stop  offset="0.8343" style="stop-color:#8D9396"/>
				<stop  offset="1" style="stop-color:#61696E"/>
			</linearGradient>
			<circle display="inline" fill="url(#SVGID_12_)" cx="85" cy="96.713" r="7.947"/>
		</g>
		<rect id="outline_1_" fill="none" width="192" height="192"/>
	</g>
	<rect id="cdpTicksMinorSize" x="87.417" y="25.713" fill="none" width="1" height="5"/>
	<rect id="cdpTicksMajorSize_1_" x="88.916" y="19.213" fill="none" width="2" height="12"/>
	<rect id="cdpTicksOffset_1_" x="89.917" y="25.78" fill="none" width="3.999" height="2"/>
	<rect id="cdpTicksMajorNo6T_1_" x="93.917" y="16.713" fill="none" width="3.999" height="5.563"/>
	<rect id="cdpTicksMinorNo3T_1_" x="93.917" y="16.713" fill="none" width="3.999" height="5.563"/>
	<g id="cdpTicksNumber_1_" enable-background="new    ">
		<text transform="matrix(1 0 0 1 218.2305 95.2441)" font-family="'Arial-BoldMT'" font-size="8">1</text>
	</g>
	<g id="cdpTicksColor_1_" enable-background="new    ">
		<text transform="matrix(1 0 0 1 218.2305 105.6328)" font-family="'Arial-BoldMT'" font-size="10">1</text>
	</g>
	<rect id="cdpNeedleCenterCCW" x="94.531" y="95.244" fill="none" width="2.938" height="2.938"/>
	<rect id="cdpNeedleMin_1_" x="167.512" y="132.512" fill="none" width="2.977" height="2.977"/>
	<rect id="cdpNeedleMax" x="135.971" y="22.971" fill="none" width="4.059" height="4.059"/>
</g>
<g id="Styles">
	<g id="cdpNeedle1Style1">
		<linearGradient id="SVGID_13_" gradientUnits="userSpaceOnUse" x1="251.2959" y1="60.415" x2="239.2959" y2="60.415">
			<stop  offset="0" style="stop-color:#FFFFFF"/>
			<stop  offset="0.1414" style="stop-color:#FAFBFB"/>
			<stop  offset="0.3029" style="stop-color:#ECEDEE"/>
			<stop  offset="0.4743" style="stop-color:#D6D8D9"/>
			<stop  offset="0.6526" style="stop-color:#B6B9BC"/>
			<stop  offset="0.8343" style="stop-color:#8D9396"/>
			<stop  offset="1" style="stop-color:#61696E"/>
		</linearGradient>
		<path fill="url(#SVGID_13_)" d="M249.93,103.384c0.037,1.102-0.834,2.25-1.934,2.25h-6c-1.1,0-1.969-1.148-1.934-2.25
			l2.867-86.126c0.035-1.101,0.967-2.062,2.066-2.062l0,0c1.1,0,2.029,0.992,2.064,2.093L249.93,103.384z"/>
		<g display="none">
			<linearGradient id="SVGID_14_" gradientUnits="userSpaceOnUse" x1="111.8271" y1="76.8223" x2="83.5769" y2="112.3225">
				<stop  offset="0" style="stop-color:#FFFFFF"/>
				<stop  offset="0.1414" style="stop-color:#FAFBFB"/>
				<stop  offset="0.3029" style="stop-color:#ECEDEE"/>
				<stop  offset="0.4743" style="stop-color:#D6D8D9"/>
				<stop  offset="0.6526" style="stop-color:#B6B9BC"/>
				<stop  offset="0.8343" style="stop-color:#8D9396"/>
				<stop  offset="1" style="stop-color:#61696E"/>
			</linearGradient>
			<circle display="inline" fill="url(#SVGID_14_)" cx="96" cy="96.713" r="9"/>
			<linearGradient id="SVGID_15_" gradientUnits="userSpaceOnUse" x1="100.8086" y1="91.3862" x2="89.9751" y2="103.3863">
				<stop  offset="0" style="stop-color:#FFFFFF"/>
				<stop  offset="0.1414" style="stop-color:#FAFBFB"/>
				<stop  offset="0.3029" style="stop-color:#ECEDEE"/>
				<stop  offset="0.4743" style="stop-color:#D6D8D9"/>
				<stop  offset="0.6526" style="stop-color:#B6B9BC"/>
				<stop  offset="0.8343" style="stop-color:#8D9396"/>
				<stop  offset="1" style="stop-color:#61696E"/>
			</linearGradient>
			<circle display="inline" fill="url(#SVGID_15_)" cx="96" cy="96.713" r="7.152"/>
		</g>
		<rect id="cdpRectCenter_2_" x="243.463" y="102.134" fill="none" width="3" height="3"/>
		<rect id="cdpRectOutline_2_" x="235.963" y="15.196" fill="none" width="18" height="90.438"/>
	</g>
</g>
</svg>
