<?xml version="1.0" encoding="utf-8"?>
<!-- Generator: Adobe Illustrator 16.0.0, SVG Export Plug-In . SVG Version: 6.00 Build 0)  -->
<!DOCTYPE svg PUBLIC "-//W3C//DTD SVG 1.1//EN" "http://www.w3.org/Graphics/SVG/1.1/DTD/svg11.dtd">
<svg version="1.1" id="svg" xmlns="http://www.w3.org/2000/svg" xmlns:xlink="http://www.w3.org/1999/xlink" x="0px" y="0px"
	 width="36px" height="36px" viewBox="0 0 36 36" enable-background="new 0 0 36 36" xml:space="preserve">
<g id="Layer1">
	<g id="cdpPicture4">
		<rect y="3" fill="none" width="36" height="30"/>
		<g>
			<path fill="#666666" d="M0,32.5h36l-18-29L0,32.5z M3.596,30.5L18,7.292L32.404,30.5H3.596z"/>
			<circle fill="#666666" cx="18" cy="25.5" r="2"/>
			<path fill="#666666" d="M18,14.5c-1.104,0-2,0.896-2,2c0,1.105,0.896,5,2,5c1.105,0,2-3.895,2-5C20,15.396,19.105,14.5,18,14.5z"
				/>
		</g>
	</g>
	<g id="cdpPicture3">
		<rect x="9.333" y="212.252" fill="none" width="18" height="18"/>
		<path fill="#666666" d="M18.333,214.253c-3.865,0-7,3.135-7,7c0,3.867,3.135,7,7,7s7-3.133,7-7
			C25.333,217.388,22.198,214.253,18.333,214.253 M21.333,223.253h-4c-0.553,0-1-0.447-1-1v-4c0-0.551,0.447-1,1-1s1,0.449,1,1v3h3
			c0.553,0,1,0.449,1,1C22.333,222.806,21.886,223.253,21.333,223.253"/>
	</g>
	<g id="cdpPicture2">
		<rect x="0.333" y="137" fill="none" width="36" height="36"/>
		<path fill="#666666" d="M18.333,139l-16,16l16,16l16-16L18.333,139z M6.161,156h4.172v-2H6.161l12.172-12.171L30.505,154h-4.172v2
			h4.172l-12.172,12.171L6.161,156z"/>
	</g>
	<g id="cdpPicture1">
		<rect x="8" y="70" fill="none" width="20" height="36"/>
		<path fill="#666666" d="M22.333,91.26V76c0-2.209-1.79-4-4-4c-2.209,0-4,1.791-4,4h-3v2h3v3h-3v2h3v3h-3v2h3v3.26
			c-1.813,1.265-3,3.363-3,5.74c0,3.867,3.134,7,7,7c3.867,0,7-3.133,7-7C25.333,94.623,24.146,92.524,22.333,91.26 M18.333,102
			c-2.757,0-5-2.242-5-5c0-1.629,0.802-3.164,2.145-4.101l0.855-0.597V91.26V76c0-1.104,0.896-2,2-2s2,0.896,2,2v15.26v1.043
			l0.855,0.597c1.343,0.937,2.145,2.47,2.145,4.101C23.333,99.758,21.09,102,18.333,102"/>
	</g>
	<g id="cdpPicture0">
		<rect x="5.5" y="267.671" fill="none" width="25" height="25"/>
		<g>
			<path fill="#666666" d="M18,270.171c5.515,0,10,4.486,10,10s-4.485,10-10,10s-10-4.486-10-10S12.485,270.171,18,270.171
				 M18,268.171c-6.627,0-12,5.373-12,12s5.373,12,12,12s12-5.373,12-12S24.627,268.171,18,268.171"/>
			
				<line fill="none" stroke="#666666" stroke-width="2" stroke-linecap="round" stroke-linejoin="round" x1="17.06" y1="279.23" x2="20.999" y2="283.171"/>
			<polygon fill="#666666" points="15.063,282.876 13,275.171 20.706,277.234 			"/>
		</g>
	</g>
</g>
<g id="Styles">
	<g id="cdpPicture2Style1">
		<rect x="68.333" y="137" fill="none" width="36" height="36"/>
		<linearGradient id="SVGID_1_" gradientUnits="userSpaceOnUse" x1="70.333" y1="155" x2="102.333" y2="155">
			<stop  offset="0" style="stop-color:#FFFFFF"/>
			<stop  offset="1" style="stop-color:#C0C0C0"/>
		</linearGradient>
		<path fill="url(#SVGID_1_)" d="M86.333,139l-16,16l16,16l16-16L86.333,139z M74.161,156h4.172v-2h-4.172l12.172-12.171L98.505,154
			h-4.172v2h4.172l-12.172,12.171L74.161,156z"/>
	</g>
	<g id="cdpPicture1Style1">
		<rect x="76" y="70" fill="none" width="20" height="36"/>
		<linearGradient id="SVGID_2_" gradientUnits="userSpaceOnUse" x1="79.333" y1="88" x2="93.333" y2="88">
			<stop  offset="0" style="stop-color:#FFFFFF"/>
			<stop  offset="1" style="stop-color:#C0C0C0"/>
		</linearGradient>
		<path fill="url(#SVGID_2_)" d="M90.333,91.26V76c0-2.209-1.79-4-4-4c-2.209,0-4,1.791-4,4h-3v2h3v3h-3v2h3v3h-3v2h3v3.26
			c-1.813,1.265-3,3.363-3,5.74c0,3.867,3.134,7,7,7c3.867,0,7-3.133,7-7C93.333,94.623,92.146,92.524,90.333,91.26 M86.333,102
			c-2.757,0-5-2.242-5-5c0-1.629,0.802-3.164,2.145-4.101l0.855-0.597V91.26V76c0-1.104,0.896-2,2-2s2,0.896,2,2v15.26v1.043
			l0.855,0.597c1.343,0.937,2.145,2.47,2.145,4.101C91.333,99.758,89.09,102,86.333,102"/>
	</g>
	<g id="cdpPicture0Style1">
		<rect x="68" y="3" fill="none" width="36" height="30"/>
		<g>
			<linearGradient id="SVGID_3_" gradientUnits="userSpaceOnUse" x1="68" y1="18" x2="104" y2="18">
				<stop  offset="0" style="stop-color:#FFFFFF"/>
				<stop  offset="1" style="stop-color:#C0C0C0"/>
			</linearGradient>
			<path fill="url(#SVGID_3_)" d="M68,32.5h36l-18-29L68,32.5z M71.596,30.5L86,7.292L100.404,30.5H71.596z"/>
			<linearGradient id="SVGID_4_" gradientUnits="userSpaceOnUse" x1="84" y1="25.5" x2="88" y2="25.5">
				<stop  offset="0" style="stop-color:#FFFFFF"/>
				<stop  offset="1" style="stop-color:#C0C0C0"/>
			</linearGradient>
			<circle fill="url(#SVGID_4_)" cx="86" cy="25.5" r="2"/>
			<linearGradient id="SVGID_5_" gradientUnits="userSpaceOnUse" x1="84" y1="18" x2="88" y2="18">
				<stop  offset="0" style="stop-color:#FFFFFF"/>
				<stop  offset="1" style="stop-color:#C0C0C0"/>
			</linearGradient>
			<path fill="url(#SVGID_5_)" d="M86,14.5c-1.104,0-2,0.896-2,2c0,1.105,0.896,5,2,5c1.105,0,2-3.895,2-5
				C88,15.396,87.105,14.5,86,14.5z"/>
		</g>
	</g>
</g>
<g id="Help">
	<text transform="matrix(1 0 0 1 -75.6665 158)" font-family="'MyriadPro-Regular'" font-size="12">Picture 2</text>
	<text transform="matrix(1 0 0 1 -75.6665 92.333)" font-family="'MyriadPro-Regular'" font-size="12">Picture 1</text>
	<text transform="matrix(1 0 0 1 61 -27.333)" font-family="'MyriadPro-Regular'" font-size="12">Style 1</text>
	<text transform="matrix(1 0 0 1 -5.9995 -27.333)" font-family="'MyriadPro-Regular'" font-size="12">Style 0</text>
	<text transform="matrix(1 0 0 1 -75.6665 23)" font-family="'MyriadPro-Regular'" font-size="12">Picture 0</text>
</g>
</svg>
