<?xml version="1.0" encoding="utf-8"?>
<!-- Generator: Adobe Illustrator 16.0.0, SVG Export Plug-In . SVG Version: 6.00 Build 0)  -->
<!DOCTYPE svg PUBLIC "-//W3C//DTD SVG 1.1//EN" "http://www.w3.org/Graphics/SVG/1.1/DTD/svg11.dtd">
<svg version="1.1" id="svg" xmlns="http://www.w3.org/2000/svg" xmlns:xlink="http://www.w3.org/1999/xlink" x="0px" y="0px"
	 width="72px" height="14px" viewBox="0 0 72 14" enable-background="new 0 0 72 14" xml:space="preserve">
<g id="Layer1">
	<g id="cdpPicture" transform="translate(0.5453906,-0.7268238)" inkscape:label="Layer 1" inkscape:groupmode="layer">
		<rect x="-0.545" y="0.727" fill="none" width="72" height="14"/>
		<g id="logo">
			<path fill="#1B1B1B" d="M70.819,1.611h-3.792h-1.971c-0.854-0.428-1.833-0.633-2.992-0.633c-1.811,0-3.291,0.696-4.176,1.849
				c-0.948-1.178-2.385-1.849-4.117-1.849c-1.482,0-2.808,0.541-3.83,1.564C49.892,2.59,49.846,2.639,49.8,2.688V1.066h-8.615v3.008
				L39.24,1.066h-4.023v1.605c-0.041-0.043-0.082-0.086-0.125-0.129c-1.039-1.038-2.328-1.564-3.832-1.564
				c-1.514,0-2.808,0.526-3.846,1.564c-0.869,0.87-1.217,1.847-1.355,2.889l-1.594-4.365h-3.599l-2.634,7.241V5.741h0.721V1.066
				H9.205v0.779C8.256,1.257,7.146,0.978,5.792,0.978c-2.986,0-5.072,1.893-5.072,4.602c0,1.261,0.393,2.293,1.184,3.083
				c0.14,0.134,0.288,0.259,0.446,0.372l-2.625,2.627l0.995,1.008c1.232,1.249,2.725,1.807,4.838,1.807
				c1.465,0,2.723-0.416,3.646-1.138v1.048h12.003l0.632-1.852h1.674l0.617,1.852h5.198l-0.101-0.275
				c0.623,0.242,1.302,0.365,2.031,0.365c1.504,0,2.793-0.527,3.832-1.565c0.043-0.042,0.084-0.086,0.125-0.129v1.604h4.895v-3.012
				l1.945,3.012H49.8v-1.621c0.045,0.049,0.092,0.098,0.14,0.145c1.022,1.025,2.347,1.566,3.831,1.566
				c1.488,0,2.756-0.494,3.686-1.379c1.143,0.949,2.519,1.379,4.373,1.379c3.124,0,5.307-1.893,5.307-4.604
				c0-1.707-0.682-2.712-1.262-3.262c-0.246-0.23-0.52-0.426-0.824-0.59l0.514-0.508v0.594h2.914h0.888h1.819V1.611H70.819z
				 M30.976,5.763c0.006-0.008,0.013-0.016,0.036-0.042c0.015-0.018,0.094-0.068,0.247-0.068c0.129,0,0.205,0.036,0.25,0.087
				c0.016,0.018,0.022,0.027,0.023,0.027c0.057,0.116,0.125,0.551,0.125,1.96c0,1.41-0.068,1.845-0.124,1.957
				c0,0-0.006,0.009-0.041,0.048C31.464,9.765,31.388,9.8,31.259,9.8c-0.153,0-0.231-0.05-0.246-0.067l-0.018-0.021
				c-0.008-0.007-0.014-0.015-0.016-0.016c-0.078-0.168-0.118-0.832-0.118-1.97C30.862,6.587,30.902,5.925,30.976,5.763z
				 M9.205,6.284C9.07,6.189,8.928,6.101,8.779,6.021L9.205,5.6V6.284z M54.433,8.315L54.167,9.4c-0.099,0.4-0.198,0.4-0.38,0.4
				c-0.155,0-0.224-0.042-0.25-0.072c-0.008-0.008-0.016-0.017-0.02-0.023c-0.059-0.115-0.129-0.553-0.129-1.978
				s0.07-1.862,0.127-1.976c0.006-0.01,0.014-0.018,0.038-0.045c0.012-0.014,0.081-0.054,0.233-0.054c0.182,0,0.281,0,0.38,0.4
				l0.267,1.085h2.797c0.145,0.432,0.357,0.824,0.637,1.177H54.433z"/>
			<g>
				<g>
					<path fill="#D13D3D" d="M6.56,6.845L5.324,6.668C4.898,6.61,4.56,6.449,4.355,6.257c-0.222-0.206-0.311-0.485-0.311-0.75
						c0-0.721,0.529-1.323,1.617-1.323c0.693,0,1.486,0.088,2.147,0.72l1.295-1.279c-0.897-0.867-1.942-1.22-3.382-1.22
						c-2.266,0-3.646,1.309-3.646,3.176c0,0.882,0.249,1.559,0.75,2.058c0.47,0.457,1.131,0.736,2.027,0.868l1.266,0.177
						C6.603,8.757,6.839,8.86,7.045,9.05c0.22,0.207,0.323,0.516,0.323,0.883c0,0.838-0.647,1.293-1.854,1.293
						c-0.971,0-1.867-0.219-2.529-0.881l-1.322,1.323c1.029,1.043,2.234,1.382,3.822,1.382c2.191,0,3.883-1.146,3.883-3.176
						c0-0.927-0.25-1.691-0.809-2.221C8.119,7.241,7.515,6.978,6.56,6.845z M10.558,12.961h6.897v-1.822h-4.854V8.595h4.132V6.771
						h-4.132V4.316h4.854V2.492h-6.897V12.961z M21.792,2.492l-3.809,10.469h2.133l0.632-1.853h3.721l0.617,1.853h2.132
						L23.396,2.492H21.792z M21.322,9.39l1.324-3.81l1.279,3.81H21.322z M31.189,2.405c-1.191,0-2.104,0.411-2.839,1.146
						c-1.058,1.059-1.029,2.368-1.029,4.177s-0.028,3.116,1.029,4.176c0.735,0.735,1.647,1.146,2.839,1.146
						c1.19,0,2.087-0.411,2.822-1.146c1.059-1.06,1.045-2.367,1.045-4.176s0.014-3.118-1.045-4.177
						C33.276,2.816,32.379,2.405,31.189,2.405z M32.498,10.667c-0.295,0.34-0.75,0.559-1.309,0.559c-0.56,0-1.03-0.219-1.324-0.559
						c-0.396-0.439-0.5-0.926-0.5-2.939c0-2.016,0.104-2.5,0.5-2.941c0.294-0.338,0.765-0.559,1.324-0.559
						c0.559,0,1.014,0.221,1.309,0.559c0.396,0.441,0.515,0.926,0.515,2.941C33.012,9.741,32.894,10.228,32.498,10.667z
						 M42.54,8.904l-4.147-6.411H36.57v10.469h2.045V6.536l4.146,6.425h1.822V2.492H42.54V8.904z M46.259,12.961h2.045V2.492h-2.045
						V12.961z M53.714,4.228c1.029,0,1.559,0.646,1.766,1.484h2.072c-0.367-2.19-1.896-3.308-3.853-3.308
						c-1.146,0-2.088,0.411-2.822,1.146c-1.06,1.059-1.03,2.368-1.03,4.177s-0.029,3.116,1.03,4.176
						c0.734,0.735,1.676,1.146,2.822,1.146c1.94,0,3.485-1.117,3.853-3.309H55.48c-0.207,0.838-0.736,1.484-1.766,1.484
						c-0.559,0-1.015-0.205-1.309-0.543c-0.396-0.441-0.514-0.941-0.514-2.955c0-2.016,0.117-2.516,0.514-2.956
						C52.7,4.433,53.156,4.228,53.714,4.228z M62.832,6.845l-1.235-0.177c-0.427-0.059-0.765-0.22-0.971-0.411
						c-0.222-0.206-0.31-0.485-0.31-0.75c0-0.721,0.529-1.323,1.617-1.323c0.691,0,1.485,0.088,2.147,0.72l1.294-1.279
						c-0.896-0.867-1.94-1.22-3.381-1.22c-2.266,0-3.647,1.309-3.647,3.176c0,0.882,0.25,1.559,0.749,2.058
						c0.472,0.457,1.133,0.736,2.029,0.868l1.266,0.177c0.484,0.074,0.721,0.177,0.926,0.367c0.221,0.207,0.324,0.516,0.324,0.883
						c0,0.838-0.648,1.293-1.854,1.293c-0.971,0-1.867-0.219-2.529-0.881l-1.322,1.323c1.029,1.043,2.234,1.382,3.822,1.382
						c2.19,0,3.883-1.146,3.883-3.176c0-0.927-0.25-1.691-0.81-2.221C64.39,7.241,63.787,6.978,62.832,6.845z M66.386,3.365h0.531
						v1.316h0.366V3.365h0.53V3.036h-1.428V3.365z M69.322,3.036l-0.471,0.878l-0.47-0.878h-0.366v1.645h0.366V3.71l0.309,0.605
						h0.323l0.309-0.605v0.971h0.365V3.036H69.322z"/>
				</g>
			</g>
		</g>
	</g>
</g>
</svg>
