<?xml version="1.0" encoding="UTF-8" standalone="no"?>
<!-- Generator: Adobe Illustrator 15.1.0, SVG Export Plug-In . SVG Version: 6.00 Build 0)  -->

<svg
   xmlns:dc="http://purl.org/dc/elements/1.1/"
   xmlns:cc="http://creativecommons.org/ns#"
   xmlns:rdf="http://www.w3.org/1999/02/22-rdf-syntax-ns#"
   xmlns:svg="http://www.w3.org/2000/svg"
   xmlns="http://www.w3.org/2000/svg"
   xmlns:sodipodi="http://sodipodi.sourceforge.net/DTD/sodipodi-0.dtd"
   xmlns:inkscape="http://www.inkscape.org/namespaces/inkscape"
   version="1.1"
   id="svg"
   x="0px"
   y="0px"
   width="411.93411"
   height="348.74033"
   viewBox="0 0 411.93411 348.74033"
   enable-background="new 0 0 36 36"
   xml:space="preserve"
   inkscape:version="0.48.5 r10040"
   sodipodi:docname="picturePumpDisplayIcons.svg"><metadata
   id="metadata169"><rdf:RDF><cc:Work
       rdf:about=""><dc:format>image/svg+xml</dc:format><dc:type
         rdf:resource="http://purl.org/dc/dcmitype/StillImage" /></cc:Work></rdf:RDF></metadata><defs
   id="defs167" /><sodipodi:namedview
   pagecolor="#ffffff"
   bordercolor="#666666"
   borderopacity="1"
   objecttolerance="10"
   gridtolerance="10"
   guidetolerance="10"
   inkscape:pageopacity="0"
   inkscape:pageshadow="2"
   inkscape:window-width="1920"
   inkscape:window-height="1058"
   id="namedview165"
   showgrid="false"
   inkscape:zoom="3.4742772"
   inkscape:cx="291.51057"
   inkscape:cy="264.85301"
   inkscape:window-x="1912"
   inkscape:window-y="-8"
   inkscape:window-maximized="1"
   inkscape:current-layer="svg"
   fit-margin-top="10"
   fit-margin-left="10"
   fit-margin-right="10"
   fit-margin-bottom="10" />
<g
   id="Layer1"
   transform="translate(84.740719,46.069328)">
	<g
   id="cdpPicture4">
		<rect
   x="5.5"
   y="267.67099"
   width="25"
   height="25"
   id="rect5"
   style="fill:none" />
		<g
   id="g7">
			<path
   d="m 18,270.171 c 5.516,0 10,4.486 10,10 0,5.515 -4.484,10 -10,10 -5.515,0 -10,-4.485 -10,-10 0,-5.514 4.485,-10 10,-10 m 0,-2 c -6.627,0 -12,5.373 -12,12 0,6.627 5.373,12 12,12 6.627,0 12,-5.373 12,-12 0,-6.627 -5.373,-12 -12,-12"
   id="path9"
   inkscape:connector-curvature="0"
   style="fill:#666666" />
			
				<line
   x1="17.059999"
   y1="279.23001"
   x2="20.999001"
   y2="283.17099"
   id="line11"
   style="fill:none;stroke:#666666;stroke-width:2;stroke-linecap:round;stroke-linejoin:round" />
			<polygon
   points="15.063,282.876 13,275.171 20.706,277.234 "
   id="polygon13"
   style="fill:#666666" />
		</g>
	</g>
	<g
   id="cdpPicture3">
		<rect
   x="9.3330002"
   y="212.252"
   width="18"
   height="18"
   id="rect16"
   style="fill:none" />
		<path
   d="m 18.333,214.253 c -3.865,0 -7,3.136 -7,7 0,3.867 3.135,7 7,7 3.865,0 7,-3.133 7,-7 0,-3.864 -3.135,-7 -7,-7 m 3,9 h -4 c -0.553,0 -1,-0.446 -1,-1 v -4 c 0,-0.551 0.447,-1 1,-1 0.553,0 1,0.449 1,1 v 3 h 3 c 0.554,0 1,0.449 1,1 0,0.554 -0.446,1 -1,1"
   id="path18"
   inkscape:connector-curvature="0"
   style="fill:#666666" />
	</g>
	<g
   id="cdpPicture2">
		<rect
   y="137"
   width="36"
   height="36"
   id="rect21"
   x="0"
   style="fill:none" />
		<g
   id="g23">
			<path
   d="m 18.333,139 -16,16 16,16 16,-16 -16,-16 z M 6.161,156 h 4.172 v -2 H 6.161 L 18.333,141.828 30.505,154 h -4.172 v 2 h 4.172 L 18.333,168.172 6.161,156 z"
   id="path25"
   inkscape:connector-curvature="0"
   style="fill:#666666" />
			<rect
   x="15.333"
   y="154"
   width="6"
   height="2"
   id="rect27"
   style="fill:#666666" />
			<g
   id="comError_2_">
				<line
   stroke-miterlimit="10"
   x1="0.85000002"
   y1="138.5"
   x2="35.816002"
   y2="171.5"
   id="line30"
   style="fill:none;stroke:#ff0000;stroke-width:2;stroke-miterlimit:10" />
				<line
   stroke-miterlimit="10"
   x1="0.85000002"
   y1="171.5"
   x2="35.816002"
   y2="138.5"
   id="line32"
   style="fill:none;stroke:#ff0000;stroke-width:2;stroke-miterlimit:10" />
			</g>
		</g>
	</g>
	<g
   id="cdpPicture1">
		<rect
   x="8"
   y="70"
   width="20"
   height="36"
   id="rect35"
   style="fill:none" />
		<path
   d="M 22.333,91.26 V 76 c 0,-2.209 -1.79,-4 -4,-4 -2.209,0 -4,1.791 -4,4 h -3 v 2 h 3 v 3 h -3 v 2 h 3 v 3 h -3 v 2 h 3 v 3.26 c -1.813,1.266 -3,3.363 -3,5.74 0,3.867 3.134,7 7,7 3.867,0 7,-3.133 7,-7 0,-2.377 -1.187,-4.477 -3,-5.74 m -4,10.74 c -2.757,0 -5,-2.242 -5,-5 0,-1.629 0.802,-3.164 2.145,-4.102 l 0.855,-0.597 V 91.26 76 c 0,-1.104 0.896,-2 2,-2 1.104,0 2,0.896 2,2 v 15.26 1.043 l 0.854,0.598 c 1.344,0.937 2.146,2.47 2.146,4.101 0,2.756 -2.243,4.998 -5,4.998"
   id="path37"
   inkscape:connector-curvature="0"
   style="fill:#666666" />
		<g
   id="comError_1_">
			<line
   stroke-miterlimit="10"
   x1="7.75"
   y1="69.499001"
   x2="27.75"
   y2="105.519"
   id="line40"
   style="fill:none;stroke:#ff0000;stroke-width:2;stroke-miterlimit:10" />
			<line
   stroke-miterlimit="10"
   x1="7.75"
   y1="105.519"
   x2="27.75"
   y2="69.499001"
   id="line42"
   style="fill:none;stroke:#ff0000;stroke-width:2;stroke-miterlimit:10" />
		</g>
	</g>
	<g
   id="cdpPicture0">
		<rect
   y="3"
   width="36"
   height="30"
   id="rect45"
   x="0"
   style="fill:none" />
		<g
   id="g47">
			<path
   d="M 0,32.5 H 36 L 18,3.5 0,32.5 z M 3.596,30.5 18,7.292 32.404,30.5 H 3.596 z"
   id="path49"
   inkscape:connector-curvature="0"
   style="fill:#666666" />
			<circle
   cx="18"
   cy="25.5"
   r="2"
   id="circle51"
   sodipodi:cx="18"
   sodipodi:cy="25.5"
   sodipodi:rx="2"
   sodipodi:ry="2"
   style="fill:#666666"
   d="m 20,25.5 c 0,1.104569 -0.895431,2 -2,2 -1.104569,0 -2,-0.895431 -2,-2 0,-1.104569 0.895431,-2 2,-2 1.104569,0 2,0.895431 2,2 z" />
			<path
   d="m 18,14.5 c -1.104,0 -2,0.896 -2,2 0,1.105 0.896,5 2,5 1.105,0 2,-3.895 2,-5 0,-1.104 -0.895,-2 -2,-2 z"
   id="path53"
   inkscape:connector-curvature="0"
   style="fill:#666666" />
			<g
   id="comError">
				<line
   stroke-miterlimit="10"
   x1="0"
   y1="3"
   x2="36"
   y2="33"
   id="line56"
   style="fill:none;stroke:#ff0000;stroke-width:2;stroke-miterlimit:10" />
				<line
   stroke-miterlimit="10"
   x1="0"
   y1="33"
   x2="36"
   y2="3"
   id="line58"
   style="fill:none;stroke:#ff0000;stroke-width:2;stroke-miterlimit:10" />
			</g>
		</g>
	</g>
</g>
<g
   id="Styles"
   transform="translate(84.740719,46.069328)"><g
   id="cdpPicture2Style1">
	<rect
   x="65.339996"
   y="136"
   width="36"
   height="36"
   id="rect150"
   style="fill:none" />
	
		<linearGradient
   id="SVGID_2_"
   gradientUnits="userSpaceOnUse"
   x1="58.939499"
   y1="-141.8398"
   x2="90.939003"
   y2="-141.8398"
   gradientTransform="matrix(1,0,0,-1,8.3999,12.1602)">
		<stop
   offset="0"
   style="stop-color:#FFFFFF"
   id="stop153" />
		<stop
   offset="1"
   style="stop-color:#C0C0C0"
   id="stop155" />
	</linearGradient>
	<path
   display="none"
   d="m 83.34,138 -16,16 16,16 16,-16 -16,-16 z m -12.172,17 h 4.172 v -2 H 71.168 L 83.34,140.828 95.512,153 H 91.34 v 2 h 4.172 L 83.34,167.17 71.168,155 z"
   id="path157"
   inkscape:connector-curvature="0"
   style="fill:url(#SVGID_2_);display:none" />
	<g
   id="g159">
		<path
   d="m 83.34,138 -16,16 16,16 16,-16 -16,-16 z m -12.172,17 h 4.172 v -2 H 71.168 L 83.34,140.828 95.512,153 H 91.34 v 2 h 4.172 L 83.34,167.172 71.168,155 z"
   id="path161"
   inkscape:connector-curvature="0"
   style="fill:#666666" />
		<rect
   x="80.339996"
   y="153"
   width="6"
   height="2"
   id="rect163"
   style="fill:#666666" />
	</g>
</g>
	<g
   id="cdpPicture2Style3">
		<rect
   x="210.173"
   y="137.5"
   width="36"
   height="36"
   id="rect62"
   style="fill:none" />
		<g
   id="g64">
			<path
   d="m 228.173,139.5 -16,16 16,16 16,-16 -16,-16 z m -12.172,17 h 4.172 v -2 h -4.172 l 12.172,-12.172 12.172,12.172 h -4.172 v 2 h 4.172 L 228.173,168.672 216.001,156.5 z"
   id="path66"
   inkscape:connector-curvature="0"
   style="fill:#db1c24" />
			<rect
   x="225.173"
   y="154.5"
   width="6"
   height="2"
   id="rect68"
   style="fill:#db1c24" />
		</g>
	</g>
	<g
   id="cdpPicture2Style2">
		<rect
   x="142.42999"
   y="137.5"
   width="36"
   height="36"
   id="rect71"
   style="fill:none" />
		
			<linearGradient
   id="SVGID_1_"
   gradientUnits="userSpaceOnUse"
   x1="136.0313"
   y1="-143.3398"
   x2="168.0313"
   y2="-143.3398"
   gradientTransform="matrix(1,0,0,-1,8.3999,12.1602)">
			<stop
   offset="0"
   style="stop-color:#FFFFFF"
   id="stop74" />
			<stop
   offset="1"
   style="stop-color:#C0C0C0"
   id="stop76" />
		</linearGradient>
		<path
   display="none"
   d="m 160.43,139.5 -16,16 16,16 16,-16 -16,-16 z m -12.172,17 h 4.172 v -2 h -4.172 l 12.172,-12.172 12.172,12.172 h -4.172 v 2 h 4.172 L 160.43,168.67 148.258,156.5 z"
   id="path78"
   inkscape:connector-curvature="0"
   style="fill:url(#SVGID_1_);display:none" />
		<g
   id="g80">
			<path
   d="m 160.43,139.5 -16,16 16,16 16,-16 -16,-16 z m -12.172,17 h 4.172 v -2 h -4.172 l 12.172,-12.172 12.172,12.172 h -4.172 v 2 h 4.172 L 160.43,168.672 148.258,156.5 z"
   id="path82"
   inkscape:connector-curvature="0"
   style="fill:#f6b31e" />
			<rect
   x="157.42999"
   y="154.5"
   width="6"
   height="2"
   id="rect84"
   style="fill:#f6b31e" />
		</g>
	</g>
	<g
   id="cdpPicture1Style3">
		<rect
   x="217.84"
   y="70.5"
   width="20"
   height="36"
   id="rect87"
   style="fill:none" />
		<path
   d="M 232.173,91.76 V 76.5 c 0,-2.209 -1.79,-4 -4,-4 -2.209,0 -4,1.791 -4,4 h -3 v 2 h 3 v 3 h -3 v 2 h 3 v 3 h -3 v 2 h 3 v 3.26 c -1.813,1.264 -3,3.363 -3,5.74 0,3.867 3.134,7 7,7 3.867,0 7,-3.133 7,-7 0,-2.377 -1.188,-4.477 -3,-5.74 m -4,10.74 c -2.758,0 -5,-2.242 -5,-5 0,-1.629 0.802,-3.164 2.145,-4.102 L 226.173,92.8 V 91.76 76.5 c 0,-1.104 0.896,-2 2,-2 1.104,0 2,0.896 2,2 v 15.26 1.043 l 0.855,0.596 c 1.342,0.938 2.145,2.471 2.145,4.102 0,2.757 -2.243,4.999 -5,4.999"
   id="path89"
   inkscape:connector-curvature="0"
   style="fill:#db1c24" />
	</g>
	<g
   id="cdpPicture1Style2">
		<rect
   x="150.097"
   y="70.5"
   width="20"
   height="36"
   id="rect92"
   style="fill:none" />
		<path
   d="M 164.43,91.76 V 76.5 c 0,-2.209 -1.79,-4 -4,-4 -2.209,0 -4,1.791 -4,4 h -3 v 2 h 3 v 3 h -3 v 2 h 3 v 3 h -3 v 2 h 3 v 3.26 c -1.813,1.266 -3,3.363 -3,5.74 0,3.867 3.134,7 7,7 3.867,0 7,-3.133 7,-7 0,-2.377 -1.187,-4.477 -3,-5.74 m -4,10.74 c -2.757,0 -5,-2.242 -5,-5 0,-1.629 0.802,-3.164 2.146,-4.102 L 158.43,92.8 V 91.76 76.5 c 0,-1.104 0.896,-2 2,-2 1.104,0 2,0.896 2,2 v 15.26 1.043 l 0.854,0.598 c 1.344,0.936 2.146,2.469 2.146,4.1 0,2.757 -2.243,4.999 -5,4.999"
   id="path94"
   inkscape:connector-curvature="0"
   style="fill:#f6b31e" />
	</g>
	<g
   id="cdpPicture1Style1">
		<rect
   x="73.339996"
   y="70"
   width="20"
   height="36"
   id="rect97"
   style="fill:none" />
		<path
   d="M 87.673,91.26 V 76 c 0,-2.209 -1.79,-4 -4,-4 -2.209,0 -4,1.791 -4,4 h -3 v 2 h 3 v 3 h -3 v 2 h 3 v 3 h -3 v 2 h 3 v 3.26 c -1.813,1.266 -3,3.363 -3,5.74 0,3.867 3.134,7 7,7 3.867,0 7,-3.133 7,-7 0,-2.377 -1.187,-4.477 -3,-5.74 m -4,10.74 c -2.757,0 -5,-2.242 -5,-5 0,-1.629 0.802,-3.164 2.146,-4.102 L 81.673,92.3 V 91.26 76 c 0,-1.104 0.896,-2 2,-2 1.104,0 2,0.896 2,2 v 15.26 1.043 l 0.854,0.598 c 1.344,0.936 2.146,2.469 2.146,4.1 0,2.757 -2.243,4.999 -5,4.999"
   id="path99"
   inkscape:connector-curvature="0"
   style="fill:#666666" />
	</g>
	<g
   id="cdpPicture0Style5"
   transform="translate(276,0)">
		<rect
   style="fill:none"
   id="rect3849"
   height="30"
   width="36"
   y="3.5"
   x="67.339996" />
		<g
   id="g3851">
			<path
   style="fill:#666666"
   inkscape:connector-curvature="0"
   id="path3853"
   d="m 67.34,33 h 36 l -18,-29 -18,29 z M 70.936,31 85.34,7.792 99.744,31 H 70.936 z" />
			
			
		</g>
	</g><g
   id="cdpPicture0Style4"
   transform="translate(138,0)">
		<rect
   id="rect3087"
   height="30"
   width="36"
   y="3.5"
   x="142.097"
   style="fill:none" />
		<g
   id="g3089"><path
     id="path3091"
     d="m 142.097,33 h 36 l -18,-29 -18,29 z M 145.692,31 160.096,7.792 174.501,31 h -28.809 z"
     inkscape:connector-curvature="0"
     style="fill:#00aa00;fill-opacity:1" /><path
     style="fill:none;stroke:#00ab00;stroke-width:1.60000002000000000;stroke-linecap:butt;stroke-linejoin:miter;stroke-miterlimit:4;stroke-opacity:1;stroke-dasharray:none"
     d="m 153.73898,22.755173 3.51084,5.698736 5.95314,-12.873039"
     id="path3097"
     inkscape:connector-curvature="0"
     sodipodi:nodetypes="ccc" /></g>
	</g><g
   id="cdpPicture0Style3">
		<rect
   x="209.84"
   y="3.5"
   width="36"
   height="30"
   id="rect102"
   style="fill:none" />
		<g
   id="g104">
			<path
   d="m 209.84,33 h 36 l -18,-29 -18,29 z M 213.436,31 227.84,7.792 242.243,31 h -28.807 z"
   id="path106"
   inkscape:connector-curvature="0"
   style="fill:#db1c24" />
			<circle
   cx="227.84"
   cy="26"
   r="2"
   id="circle108"
   sodipodi:cx="227.84"
   sodipodi:cy="26"
   sodipodi:rx="2"
   sodipodi:ry="2"
   style="fill:#db1c24"
   d="m 229.84,26 c 0,1.104569 -0.89543,2 -2,2 -1.10457,0 -2,-0.895431 -2,-2 0,-1.104569 0.89543,-2 2,-2 1.10457,0 2,0.895431 2,2 z" />
			<path
   d="m 227.84,15 c -1.104,0 -2,0.896 -2,2 0,1.105 0.896,5 2,5 1.104,0 2,-3.896 2,-5 0,-1.104 -0.894,-2 -2,-2 z"
   id="path110"
   inkscape:connector-curvature="0"
   style="fill:#db1c24" />
		</g>
	</g>
	<g
   id="cdpPicture0Style2">
		<rect
   x="142.097"
   y="3.5"
   width="36"
   height="30"
   id="rect113"
   style="fill:none" />
		<g
   id="g115">
			<path
   d="m 142.097,33 h 36 l -18,-29 -18,29 z M 145.692,31 160.096,7.792 174.501,31 h -28.809 z"
   id="path117"
   inkscape:connector-curvature="0"
   style="fill:#f6b31e" />
			<circle
   cx="160.097"
   cy="26"
   r="2"
   id="circle119"
   sodipodi:cx="160.097"
   sodipodi:cy="26"
   sodipodi:rx="2"
   sodipodi:ry="2"
   style="fill:#f6b31e"
   d="m 162.097,26 c 0,1.104569 -0.89543,2 -2,2 -1.10457,0 -2,-0.895431 -2,-2 0,-1.104569 0.89543,-2 2,-2 1.10457,0 2,0.895431 2,2 z" />
			<path
   d="m 160.097,15 c -1.104,0 -2,0.896 -2,2 0,1.105 0.896,5 2,5 1.105,0 2,-3.896 2,-5 0,-1.104 -0.895,-2 -2,-2 z"
   id="path121"
   inkscape:connector-curvature="0"
   style="fill:#f6b31e" />
		</g>
	</g>
	<g
   id="cdpPicture0Style1">
		<rect
   x="67.339996"
   y="3.5"
   width="36"
   height="30"
   id="rect124"
   style="fill:none" />
		<g
   id="g126">
			<path
   d="m 67.34,33 h 36 l -18,-29 -18,29 z M 70.936,31 85.34,7.792 99.744,31 H 70.936 z"
   id="path128"
   inkscape:connector-curvature="0"
   style="fill:#666666" />
			<circle
   cx="85.339996"
   cy="26"
   r="2"
   id="circle130"
   sodipodi:cx="85.339996"
   sodipodi:cy="26"
   sodipodi:rx="2"
   sodipodi:ry="2"
   style="fill:#666666"
   d="m 87.339996,26 c 0,1.104569 -0.89543,2 -2,2 -1.104569,0 -2,-0.895431 -2,-2 0,-1.104569 0.895431,-2 2,-2 1.10457,0 2,0.895431 2,2 z" />
			<path
   d="m 85.34,15 c -1.104,0 -2,0.896 -2,2 0,1.105 0.896,5 2,5 1.105,0 2,-3.895 2,-5 0,-1.104 -0.895,-2 -2,-2 z"
   id="path132"
   inkscape:connector-curvature="0"
   style="fill:#666666" />
		</g>
	</g>
</g>
<g
   id="Help"
   transform="translate(84.740719,46.069328)">
	<text
   transform="translate(-75.6665,158)"
   font-size="12"
   id="text135"
   style="font-size:12px;font-family:MyriadPro-Regular">Picture 2</text>






	<text
   transform="translate(-75.6665,92.333)"
   font-size="12"
   id="text137"
   style="font-size:12px;font-family:MyriadPro-Regular">Picture 1</text>






	<text
   transform="translate(61,-27.333)"
   font-size="12"
   id="text139"
   style="font-size:12px;font-family:MyriadPro-Regular">Style 1</text>






	<text
   transform="translate(136.0762,-27.333)"
   font-size="12"
   id="text141"
   style="font-size:12px;font-family:MyriadPro-Regular">Style 2</text>






	<text
   transform="translate(-5.9995,-27.333)"
   font-size="12"
   id="text143"
   style="font-size:12px;font-family:MyriadPro-Regular">Style 0</text>






	<text
   transform="translate(-75.6665,23)"
   font-size="12"
   id="text145"
   style="font-size:12px;font-family:MyriadPro-Regular">Picture 0</text>






</g>
<text
   font-size="12"
   id="text147"
   style="font-size:12px;font-family:MyriadPro-Regular"
   x="303.81693"
   y="18.736328">Style 3</text>







<text
   id="text3886"
   font-size="12"
   x="365.81693"
   y="18.736328"
   style="font-size:12px;font-family:MyriadPro-Regular">Style 4</text>




<text
   style="font-size:12px;font-family:MyriadPro-Regular"
   y="18.736328"
   x="427.81693"
   font-size="12"
   id="text3859">Style 5</text>


</svg>