<?xml version="1.0" encoding="utf-8"?>
<!-- Generator: Adobe Illustrator 15.1.0, SVG Export Plug-In . SVG Version: 6.00 Build 0)  -->
<!DOCTYPE svg PUBLIC "-//W3C//DTD SVG 1.1 Tiny//EN" "http://www.w3.org/Graphics/SVG/1.1/DTD/svg11-tiny.dtd">
<svg version="1.1" baseProfile="tiny" xmlns="http://www.w3.org/2000/svg" xmlns:xlink="http://www.w3.org/1999/xlink" x="0px"
	 y="0px" width="841.89px" height="595.275px" viewBox="-212.533 138.595 841.89 595.275" xml:space="preserve">
<g id="WaterLeakage_OneDrop_Error">
	<g id="cdpPicture13Style1">
		<rect id="rect113_8_" x="265.53" y="520.445" fill="none" width="35.999" height="30"/>
		<g id="g115_8_">
			<path id="path117_8_" inkscape:connector-curvature="0" fill="#DB1C24" d="M265.53,549.945h35.999l-17.999-29L265.53,549.945z
				 M269.125,547.945l14.404-23.208l14.405,23.208H269.125z"/>
			<path fill="#459ED8" d="M287.783,540.404c0,2.349-1.904,4.252-4.253,4.252c-2.348,0-4.251-1.903-4.251-4.252
				c0-2.977,4.251-5.527,4.251-8.503C283.53,534.877,287.783,537.428,287.783,540.404z"/>
		</g>
	</g>
	<g id="cdpPicture13">
		<rect id="rect113_2_" x="194.664" y="520.445" fill="none" width="36" height="30"/>
		<g id="g115_2_">
			<path id="path117_2_" inkscape:connector-curvature="0" fill="#666666" d="M194.664,549.945h36l-18-29L194.664,549.945z
				 M198.258,547.945l14.405-23.208l14.405,23.208H198.258z"/>
			<path fill="#666666" d="M216.916,540.404c0,2.349-1.903,4.252-4.252,4.252s-4.252-1.903-4.252-4.252
				c0-2.977,4.252-5.527,4.252-8.503C212.664,534.877,216.916,537.428,216.916,540.404z"/>
		</g>
	</g>
</g>
<g id="WaterLeakage_OneDrop_Warn">
	<g id="cdpPicture12Style1">
		<rect id="rect113_18_" x="265.53" y="463.752" fill="none" width="35.999" height="30"/>
		<g id="g115_10_">
			<path id="path117_18_" inkscape:connector-curvature="0" fill="#F6B31E" d="M265.53,493.252h35.999l-17.999-29L265.53,493.252z
				 M269.125,491.252l14.404-23.207l14.405,23.207H269.125z"/>
			<path fill="#459ED8" d="M287.782,483.711c0,2.35-1.903,4.252-4.252,4.252s-4.252-1.902-4.252-4.252
				c0-2.977,4.252-5.527,4.252-8.502C283.53,478.184,287.782,480.734,287.782,483.711z"/>
		</g>
	</g>
	<g id="cdpPicture12">
		<rect id="rect113_17_" x="194.663" y="463.752" fill="none" width="36.001" height="30"/>
		<g id="g115_9_">
			<path id="path117_17_" inkscape:connector-curvature="0" fill="#666666" d="M194.663,493.252h36.001l-18-29L194.663,493.252z
				 M198.258,491.252l14.405-23.207l14.405,23.207H198.258z"/>
			<path fill="#666666" d="M216.916,483.711c0,2.35-1.903,4.252-4.252,4.252s-4.252-1.902-4.252-4.252
				c0-2.977,4.252-5.527,4.252-8.502C212.664,478.184,216.916,480.734,216.916,483.711z"/>
		</g>
	</g>
</g>
<g id="WaterLeakage_ThreeDrops_Error">
	<g id="cdpPicture11Style1">
		<rect id="rect113_7_" x="265.53" y="407.06" fill="none" width="35.999" height="30"/>
		<g>
			<path id="path117_7_" inkscape:connector-curvature="0" fill="#DB1C24" d="M265.53,436.56h35.999l-17.999-29L265.53,436.56z
				 M269.125,434.56l14.404-23.208l14.405,23.208H269.125z"/>
			
				<circle id="circle119_5_" sodipodi:ry="2" sodipodi:rx="2" sodipodi:cy="26" sodipodi:cx="160.097" fill="#DB1C24" cx="283.53" cy="424.747" r="1.564">
			</circle>
			<path id="path121_5_" inkscape:connector-curvature="0" fill="#DB1C24" d="M283.53,416.145c-0.862,0-1.563,0.701-1.563,1.564
				c0,0.864,0.701,3.909,1.563,3.909c0.864,0,1.564-3.047,1.564-3.909C285.095,416.846,284.395,416.145,283.53,416.145z"/>
			<path fill="#459ED8" d="M279.815,429.783c0.551,1.397-0.136,2.977-1.533,3.527c-1.397,0.55-2.976-0.137-3.526-1.533
				c-0.697-1.771,1.233-4.286,0.536-6.057C275.989,427.491,279.117,428.013,279.815,429.783z"/>
			<path fill="#459ED8" d="M286.146,429.783c0.551,1.397-0.136,2.977-1.533,3.527c-1.397,0.55-2.977-0.137-3.526-1.533
				c-0.697-1.771,1.233-4.286,0.536-6.057C282.319,427.491,285.447,428.013,286.146,429.783z"/>
			<path fill="#459ED8" d="M292.476,429.783c0.551,1.397-0.136,2.977-1.533,3.527c-1.397,0.55-2.976-0.137-3.526-1.533
				c-0.697-1.771,1.234-4.286,0.536-6.057C288.65,427.491,291.778,428.013,292.476,429.783z"/>
		</g>
	</g>
	<g id="cdpPicture11">
		<rect id="rect113_3_" x="194.664" y="407.06" fill="none" width="36" height="30"/>
		<g>
			<path id="path117_3_" inkscape:connector-curvature="0" fill="#666666" d="M194.664,436.56h36l-18-29L194.664,436.56z
				 M198.258,434.56l14.405-23.208l14.405,23.208H198.258z"/>
			
				<circle id="circle119_2_" sodipodi:ry="2" sodipodi:rx="2" sodipodi:cy="26" sodipodi:cx="160.097" fill="#666666" cx="212.664" cy="424.747" r="1.564">
			</circle>
			<path id="path121_2_" inkscape:connector-curvature="0" fill="#666666" d="M212.664,416.145c-0.863,0-1.564,0.701-1.564,1.564
				c0,0.864,0.701,3.909,1.564,3.909c0.864,0,1.563-3.047,1.563-3.909C214.228,416.846,213.528,416.145,212.664,416.145z"/>
			<path fill="#666666" d="M208.948,429.783c0.551,1.397-0.136,2.977-1.533,3.527c-1.397,0.55-2.976-0.137-3.526-1.533
				c-0.697-1.771,1.234-4.286,0.537-6.057C205.123,427.491,208.251,428.013,208.948,429.783z"/>
			<path fill="#666666" d="M215.279,429.783c0.55,1.397-0.136,2.977-1.534,3.527c-1.396,0.55-2.976-0.137-3.525-1.533
				c-0.698-1.771,1.233-4.286,0.536-6.057C211.453,427.491,214.581,428.013,215.279,429.783z"/>
			<path fill="#666666" d="M221.609,429.783c0.55,1.397-0.136,2.977-1.533,3.527c-1.398,0.55-2.977-0.137-3.526-1.533
				c-0.698-1.771,1.233-4.286,0.536-6.057C217.783,427.491,220.911,428.013,221.609,429.783z"/>
		</g>
	</g>
</g>
<g id="WaterLeakage_ThreeDrops_Warn">
	<g id="cdpPicture10Style1">
		<rect id="rect113_14_" x="265.53" y="350.366" fill="none" width="35.999" height="30"/>
		<g>
			<path id="path117_14_" inkscape:connector-curvature="0" fill="#F6B31E" d="M265.53,379.866h35.999l-17.999-29L265.53,379.866z
				 M269.125,377.866l14.404-23.208l14.405,23.208H269.125z"/>
			
				<circle id="circle119_10_" sodipodi:ry="2" sodipodi:rx="2" sodipodi:cy="26" sodipodi:cx="160.097" fill="#F6B31E" cx="283.53" cy="368.053" r="1.564">
			</circle>
			<path id="path121_10_" inkscape:connector-curvature="0" fill="#F6B31E" d="M283.53,359.451c-0.863,0-1.564,0.701-1.564,1.564
				c0,0.864,0.701,3.909,1.564,3.909c0.864,0,1.563-3.047,1.563-3.909C285.094,360.152,284.395,359.451,283.53,359.451z"/>
			<path fill="#459ED8" d="M279.814,373.09c0.551,1.397-0.136,2.977-1.533,3.527c-1.396,0.55-2.976-0.137-3.526-1.533
				c-0.697-1.771,1.234-4.286,0.537-6.057C275.989,370.798,279.117,371.319,279.814,373.09z"/>
			<path fill="#459ED8" d="M286.146,373.09c0.55,1.397-0.136,2.977-1.534,3.527c-1.396,0.55-2.976-0.137-3.525-1.533
				c-0.698-1.771,1.233-4.286,0.536-6.057C282.319,370.798,285.447,371.319,286.146,373.09z"/>
			<path fill="#459ED8" d="M292.476,373.09c0.55,1.397-0.136,2.977-1.533,3.527c-1.398,0.55-2.977-0.137-3.526-1.533
				c-0.698-1.771,1.233-4.286,0.536-6.057C288.649,370.798,291.777,371.319,292.476,373.09z"/>
		</g>
	</g>
	<g id="cdpPicture10">
		<rect id="rect113_13_" x="194.664" y="350.366" fill="none" width="36" height="30"/>
		<g>
			<path id="path117_13_" inkscape:connector-curvature="0" fill="#666666" d="M194.664,379.866h36l-18-29L194.664,379.866z
				 M198.258,377.866l14.405-23.208l14.405,23.208H198.258z"/>
			
				<circle id="circle119_9_" sodipodi:ry="2" sodipodi:rx="2" sodipodi:cy="26" sodipodi:cx="160.097" fill="#666666" cx="212.664" cy="368.053" r="1.564">
			</circle>
			<path id="path121_9_" inkscape:connector-curvature="0" fill="#666666" d="M212.664,359.451c-0.863,0-1.564,0.701-1.564,1.564
				c0,0.864,0.701,3.909,1.564,3.909c0.864,0,1.563-3.047,1.563-3.909C214.228,360.152,213.528,359.451,212.664,359.451z"/>
			<path fill="#666666" d="M208.948,373.09c0.551,1.397-0.136,2.977-1.533,3.527c-1.397,0.55-2.976-0.137-3.526-1.533
				c-0.697-1.771,1.234-4.286,0.537-6.057C205.123,370.798,208.251,371.319,208.948,373.09z"/>
			<path fill="#666666" d="M215.279,373.09c0.55,1.397-0.136,2.977-1.534,3.527c-1.396,0.55-2.976-0.137-3.525-1.533
				c-0.698-1.771,1.233-4.286,0.536-6.057C211.453,370.798,214.581,371.319,215.279,373.09z"/>
			<path fill="#666666" d="M221.609,373.09c0.55,1.397-0.136,2.977-1.533,3.527c-1.398,0.55-2.977-0.137-3.526-1.533
				c-0.698-1.771,1.233-4.286,0.536-6.057C217.783,370.798,220.911,371.319,221.609,373.09z"/>
		</g>
	</g>
</g>
<g id="FilterError">
	<g id="cdpPicture9Style1">
		<rect id="rect62" x="265.53" y="290.674" fill="none" width="35.999" height="36"/>
		<g id="g64">
			<path id="path66" inkscape:connector-curvature="0" fill="#DB1C24" d="M283.53,292.674l-16,16l16,16l15.999-16L283.53,292.674z
				 M271.358,309.674h4.172v-2h-4.172l12.172-12.172l12.172,12.172h-4.172v2h4.172l-12.172,12.172L271.358,309.674z"/>
			<rect id="rect68" x="280.53" y="307.674" fill="#DB1C24" width="6" height="2"/>
		</g>
	</g>
	<g id="cdpPicture9">
		<rect id="rect150" x="194.664" y="290.674" fill="none" width="36" height="36"/>
		<g id="g159">
			<path fill="#666666" d="M212.663,292.674l-16,16l16,16l16-16L212.663,292.674z M200.492,309.674h4.172v-2h-4.172l12.171-12.172
				l12.173,12.172h-4.173v2h4.173l-12.173,12.172L200.492,309.674z"/>
			<rect id="rect163" x="209.663" y="307.674" fill="#666666" width="6" height="2"/>
		</g>
	</g>
</g>
<g id="FilterWarning">
	<g id="cdpPicture8Style1">
		<rect id="rect71_2_" x="265.53" y="233.98" fill="none" width="35.999" height="36"/>
		<g id="g80_2_">
			<path id="path82_2_" inkscape:connector-curvature="0" fill="#F6B31E" d="M283.53,235.98l-16,16l16,16l15.999-16L283.53,235.98z
				 M271.357,252.98h4.173v-2h-4.173l12.173-12.172l12.172,12.172h-4.172v2h4.172l-12.172,12.172L271.357,252.98z"/>
			<rect id="rect84_2_" x="280.53" y="250.98" fill="#F6B31E" width="6" height="2"/>
		</g>
	</g>
	<g id="cdpPicture8">
		<rect id="rect150_1_" x="194.664" y="233.98" fill="none" width="36" height="36"/>
		<g id="g159_1_">
			<path fill="#666666" d="M212.663,235.98l-16,16l16,16l16-16L212.663,235.98z M200.492,252.98h4.172v-2h-4.172l12.171-12.172
				l12.173,12.172h-4.173v2h4.173l-12.173,12.172L200.492,252.98z"/>
			<rect id="rect163_1_" x="209.663" y="250.98" fill="#666666" width="6" height="2"/>
		</g>
	</g>
</g>
<g id="OilLevelLowLow">
	<g id="cdpPicture7Style1">
		<rect x="-17.934" y="630.83" fill="none" width="35.999" height="36.001"/>
		<g>
			<path fill="#DB1C24" d="M16.365,665.13h-32.599v-32.599h32.599V665.13z M14.239,634.658h-28.347v28.346h28.347V634.658z"/>
			<path fill="#DB1C24" d="M11.034,659.591c-1.583,0-2.996-0.561-3.94-1.519c-0.889,0.958-2.165,1.519-3.558,1.519l0,0
				c-1.385,0-2.655-0.555-3.543-1.503c-0.888,0.948-2.158,1.503-3.544,1.503c-1.391,0-2.666-0.56-3.555-1.516
				c-0.935,0.956-2.322,1.516-3.869,1.516c-0.001,0-0.001,0-0.001,0c-2.063,0-3.841-0.995-4.642-2.597l1.521-0.76
				c0.61,1.221,2.012,1.655,3.12,1.655c0,0,0,0,0.001,0c1.108,0,2.51-0.435,3.12-1.655l0.761-1.521l0.761,1.521
				c0.519,1.037,1.559,1.655,2.782,1.655c1.225,0,2.265-0.618,2.783-1.655l0.761-1.522l0.761,1.522
				c0.518,1.036,1.558,1.655,2.782,1.655l0,0c1.225,0,2.265-0.619,2.783-1.655l0.761-1.521l0.761,1.521
				c0.61,1.221,2.05,1.655,3.193,1.655c1.143,0,2.582-0.435,3.192-1.655l1.521,0.76C14.947,658.596,13.141,659.591,11.034,659.591z"
				/>
			
				<circle id="circle108_4_" sodipodi:ry="2" sodipodi:rx="2" sodipodi:cy="26" sodipodi:cx="227.84" fill="#DB1C24" cx="0.065" cy="649.079" r="2">
			</circle>
			<path id="path110_4_" inkscape:connector-curvature="0" fill="#DB1C24" d="M0.065,638.079c-1.104,0-2,0.896-2,2s0.896,5,2,5
				c1.104,0,2-3.896,2-5S1.17,638.079,0.065,638.079z"/>
		</g>
	</g>
	<g id="cdpPicture7">
		<rect x="-88.8" y="630.83" fill="none" width="35.999" height="36.001"/>
		<g>
			<path fill="#666666" d="M-54.501,665.13H-87.1v-32.599h32.599V665.13z M-56.627,634.658h-28.347v28.346h28.347V634.658z"/>
			<path fill="#666666" d="M-59.833,659.591c-1.583,0-2.996-0.561-3.94-1.519c-0.889,0.958-2.165,1.519-3.558,1.519l0,0
				c-1.385,0-2.655-0.555-3.543-1.503c-0.888,0.948-2.158,1.503-3.544,1.503c-1.391,0-2.666-0.56-3.554-1.516
				c-0.935,0.956-2.323,1.516-3.87,1.516c0,0,0,0,0,0c-2.063,0-3.841-0.995-4.642-2.597l1.521-0.76
				c0.61,1.221,2.012,1.655,3.12,1.655c0,0,0,0,0,0c1.108,0,2.51-0.435,3.121-1.655l0.761-1.521l0.761,1.521
				c0.518,1.037,1.558,1.655,2.782,1.655c1.225,0,2.265-0.618,2.783-1.655l0.761-1.522l0.761,1.522
				c0.518,1.036,1.558,1.655,2.782,1.655l0,0c1.225,0,2.265-0.619,2.783-1.655l0.761-1.521l0.761,1.521
				c0.61,1.221,2.05,1.655,3.193,1.655c1.143,0,2.582-0.435,3.192-1.655l1.521,0.76C-55.919,658.596-57.725,659.591-59.833,659.591z
				"/>
			
				<circle id="circle108_2_" sodipodi:ry="2" sodipodi:rx="2" sodipodi:cy="26" sodipodi:cx="227.84" fill="#666666" cx="-70.801" cy="649.079" r="2">
			</circle>
			<path id="path110_2_" inkscape:connector-curvature="0" fill="#666666" d="M-70.801,638.079c-1.104,0-2,0.896-2,2s0.896,5,2,5
				c1.104,0,2-3.896,2-5S-69.696,638.079-70.801,638.079z"/>
		</g>
	</g>
</g>
<g id="OilLevelLow">
	<g id="cdpPicture6Style1">
		<rect x="-17.934" y="574.138" fill="none" width="35.999" height="36.001"/>
		<g>
			<path fill="#F6B31E" d="M16.365,608.438h-32.599v-32.599h32.599V608.438z M14.239,577.966h-28.347v28.346h28.347V577.966z"/>
			<path fill="#F6B31E" d="M11.034,602.898c-1.583,0-2.996-0.561-3.94-1.519c-0.889,0.958-2.165,1.519-3.558,1.519l0,0
				c-1.385,0-2.655-0.555-3.543-1.503c-0.888,0.948-2.158,1.503-3.544,1.503c-1.391,0-2.666-0.56-3.555-1.516
				c-0.935,0.956-2.322,1.516-3.869,1.516c-0.001,0-0.001,0-0.001,0c-2.063,0-3.841-0.995-4.642-2.597l1.521-0.76
				c0.61,1.221,2.012,1.655,3.12,1.655c0,0,0,0,0.001,0c1.108,0,2.51-0.435,3.12-1.655l0.761-1.521l0.761,1.521
				c0.519,1.037,1.559,1.655,2.782,1.655c1.225,0,2.265-0.618,2.783-1.655l0.761-1.522l0.761,1.522
				c0.518,1.036,1.558,1.655,2.782,1.655l0,0c1.225,0,2.265-0.619,2.783-1.655l0.761-1.521l0.761,1.521
				c0.61,1.221,2.05,1.655,3.193,1.655c1.143,0,2.582-0.435,3.192-1.655l1.521,0.76C14.947,601.903,13.141,602.898,11.034,602.898z"
				/>
			
				<circle id="circle108_9_" sodipodi:ry="2" sodipodi:rx="2" sodipodi:cy="26" sodipodi:cx="227.84" fill="#F6B31E" cx="0.065" cy="592.387" r="2">
			</circle>
			<path id="path110_9_" inkscape:connector-curvature="0" fill="#F6B31E" d="M0.065,581.387c-1.104,0-2,0.896-2,2s0.896,5,2,5
				c1.104,0,2-3.896,2-5S1.17,581.387,0.065,581.387z"/>
		</g>
	</g>
	<g id="cdpPicture6">
		<rect x="-88.8" y="574.138" fill="none" width="35.999" height="36.001"/>
		<g>
			<path fill="#666666" d="M-54.501,608.438H-87.1v-32.599h32.599V608.438z M-56.627,577.966h-28.347v28.346h28.347V577.966z"/>
			<path fill="#666666" d="M-59.833,602.898c-1.583,0-2.996-0.561-3.94-1.519c-0.889,0.958-2.165,1.519-3.558,1.519l0,0
				c-1.385,0-2.655-0.555-3.543-1.503c-0.888,0.948-2.158,1.503-3.544,1.503c-1.391,0-2.666-0.56-3.554-1.516
				c-0.935,0.956-2.323,1.516-3.87,1.516c0,0,0,0,0,0c-2.063,0-3.841-0.995-4.642-2.597l1.521-0.76
				c0.61,1.221,2.012,1.655,3.12,1.655c0,0,0,0,0,0c1.108,0,2.51-0.435,3.121-1.655l0.761-1.521l0.761,1.521
				c0.518,1.037,1.558,1.655,2.782,1.655c1.225,0,2.265-0.618,2.783-1.655l0.761-1.522l0.761,1.522
				c0.518,1.036,1.558,1.655,2.782,1.655l0,0c1.225,0,2.265-0.619,2.783-1.655l0.761-1.521l0.761,1.521
				c0.61,1.221,2.05,1.655,3.193,1.655c1.143,0,2.582-0.435,3.192-1.655l1.521,0.76C-55.919,601.903-57.725,602.898-59.833,602.898z
				"/>
			
				<circle id="circle108_8_" sodipodi:ry="2" sodipodi:rx="2" sodipodi:cy="26" sodipodi:cx="227.84" fill="#666666" cx="-70.801" cy="592.387" r="2">
			</circle>
			<path id="path110_8_" inkscape:connector-curvature="0" fill="#666666" d="M-70.801,581.387c-1.104,0-2,0.896-2,2s0.896,5,2,5
				c1.104,0,2-3.896,2-5S-69.696,581.387-70.801,581.387z"/>
		</g>
	</g>
</g>
<g id="TempHighHigh">
	<g id="cdpPicture5Style1">
		<rect id="rect87" x="-9.935" y="517.445" fill="none" width="20" height="36"/>
		<path id="path89" inkscape:connector-curvature="0" fill="#DB1C24" d="M4.398,538.705v-15.26c0-2.209-1.79-4-4-4
			c-2.209,0-4,1.791-4,4h-3v2h3v3h-3v2h3v3h-3v2h3v3.26c-1.813,1.264-3,3.363-3,5.74c0,3.867,3.134,7,7,7s7-3.133,7-7
			C7.398,542.068,6.21,539.969,4.398,538.705 M0.398,549.445c-2.759,0-5-2.242-5-5c0-1.629,0.802-3.164,2.145-4.102l0.855-0.599
			v-1.04v-15.26c0-1.104,0.896-2,2-2c1.104,0,2,0.896,2,2v15.26v1.043l0.854,0.596c1.342,0.938,2.146,2.472,2.146,4.103
			C5.398,547.203,3.155,549.445,0.398,549.445"/>
	</g>
	<g id="cdpPicture5">
		<rect id="rect97_1_" x="-80.801" y="517.445" fill="none" width="20" height="36"/>
		<path id="path99_1_" inkscape:connector-curvature="0" fill="#666666" d="M-66.467,538.705v-15.26c0-2.209-1.791-4-4-4
			s-4,1.791-4,4h-3v2h3v3h-3v2h3v3h-3v2h3v3.26c-1.813,1.266-3,3.363-3,5.74c0,3.867,3.134,7,7,7c3.867,0,7-3.133,7-7
			C-63.467,542.068-64.655,539.969-66.467,538.705 M-70.467,549.445c-2.758,0-5-2.242-5-5c0-1.629,0.802-3.164,2.146-4.102
			l0.854-0.599v-1.04v-15.26c0-1.104,0.896-2,2-2c1.104,0,2,0.896,2,2v15.26v1.043l0.854,0.598c1.344,0.937,2.146,2.47,2.146,4.101
			C-65.467,547.203-67.71,549.445-70.467,549.445"/>
	</g>
</g>
<g id="TempHigh">
	<g id="cdpPicture4Style1_1_">
		<rect id="rect92_1_" x="-9.935" y="460.752" fill="none" width="20" height="36"/>
		<path id="path94_1_" inkscape:connector-curvature="0" fill="#F6B31E" d="M4.398,482.012v-15.26c0-2.209-1.79-4-4-4
			c-2.209,0-4,1.791-4,4h-3v2h3v3h-3v2h3v3h-3v2h3v3.26c-1.813,1.266-3,3.363-3,5.74c0,3.867,3.134,7,7,7s7-3.133,7-7
			C7.398,485.375,6.212,483.275,4.398,482.012 M0.398,492.752c-2.757,0-5-2.242-5-5c0-1.629,0.802-3.164,2.146-4.102l0.854-0.599
			v-1.04v-15.26c0-1.104,0.896-2,2-2s2,0.896,2,2v15.26v1.043l0.854,0.598c1.344,0.937,2.146,2.47,2.146,4.101
			C5.398,490.51,3.155,492.752,0.398,492.752"/>
	</g>
	<g id="cdpPicture4_1_">
		<rect id="rect97_3_" x="-80.801" y="460.752" fill="none" width="20" height="36"/>
		<path id="path99_3_" inkscape:connector-curvature="0" fill="#666666" d="M-66.467,482.012v-15.26c0-2.209-1.791-4-4-4
			s-4,1.791-4,4h-3v2h3v3h-3v2h3v3h-3v2h3v3.26c-1.813,1.266-3,3.363-3,5.74c0,3.867,3.134,7,7,7c3.867,0,7-3.133,7-7
			C-63.467,485.375-64.655,483.275-66.467,482.012 M-70.467,492.752c-2.758,0-5-2.242-5-5c0-1.629,0.802-3.164,2.146-4.102
			l0.854-0.599v-1.04v-15.26c0-1.104,0.896-2,2-2c1.104,0,2,0.896,2,2v15.26v1.043l0.854,0.598c1.344,0.937,2.146,2.47,2.146,4.101
			C-65.467,490.51-67.71,492.752-70.467,492.752"/>
	</g>
</g>
<g id="General_OK-Error">
	<g id="cdpPicture3Style1">
		<rect id="rect102_1_" x="-17.935" y="407.06" fill="none" width="36.001" height="30"/>
		<g id="g104_1_">
			<path id="path106_1_" inkscape:connector-curvature="0" fill="#DB1C24" d="M-17.935,436.56h36.001l-18-29L-17.935,436.56z
				 M-14.338,434.56l14.404-23.208l14.402,23.208H-14.338z"/>
			
				<circle id="circle108_1_" sodipodi:ry="2" sodipodi:rx="2" sodipodi:cy="26" sodipodi:cx="227.84" fill="#DB1C24" cx="0.066" cy="429.56" r="2">
			</circle>
			<path id="path110_1_" inkscape:connector-curvature="0" fill="#DB1C24" d="M0.066,418.56c-1.104,0-2,0.896-2,2
				c0,1.105,0.896,5,2,5c1.104,0,2-3.896,2-5S1.171,418.56,0.066,418.56z"/>
		</g>
	</g>
	<g id="cdpPicture3" transform="translate(138,0)">
		<rect id="rect3087_1_" x="-226.801" y="407.06" fill="none" width="36" height="30"/>
		<g id="g3089_1_">
			<path id="path3091_1_" inkscape:connector-curvature="0" fill="#00AA00" d="M-226.801,436.56h36l-18-29L-226.801,436.56z
				 M-223.206,434.56l14.404-23.208l14.405,23.208H-223.206z"/>
			
				<path id="path3097_1_" inkscape:connector-curvature="0" sodipodi:nodetypes="ccc" fill="none" stroke="#00AB00" stroke-width="1.6" d="
				M-215.159,426.315l3.511,5.698l5.953-12.873"/>
		</g>
	</g>
</g>
<g id="General_OK-Warning">
	<g id="cdpPicture2Style1">
		<rect id="rect113_12_" x="-17.935" y="350.366" fill="none" width="36" height="30"/>
		<g id="g115_7_">
			<path id="path117_12_" inkscape:connector-curvature="0" fill="#F6B31E" d="M-17.935,379.866h36l-18-29L-17.935,379.866z
				 M-14.34,377.866l14.404-23.208l14.405,23.208H-14.34z"/>
			
				<circle id="circle119_8_" sodipodi:ry="2" sodipodi:rx="2" sodipodi:cy="26" sodipodi:cx="160.097" fill="#F6B31E" cx="0.065" cy="372.866" r="2">
			</circle>
			<path id="path121_8_" inkscape:connector-curvature="0" fill="#F6B31E" d="M0.065,361.866c-1.104,0-2,0.896-2,2
				c0,1.105,0.896,5,2,5c1.105,0,2-3.896,2-5S1.171,361.866,0.065,361.866z"/>
		</g>
	</g>
	<g id="cdpPicture2_1_" transform="translate(138,0)">
		<rect id="rect3087_3_" x="-226.801" y="350.366" fill="none" width="36" height="30"/>
		<g id="g3089_3_">
			<path id="path3091_3_" inkscape:connector-curvature="0" fill="#00AA00" d="M-226.801,379.866h36l-18-29L-226.801,379.866z
				 M-223.206,377.866l14.404-23.208l14.405,23.208H-223.206z"/>
			
				<path id="path3097_3_" inkscape:connector-curvature="0" sodipodi:nodetypes="ccc" fill="none" stroke="#00AB00" stroke-width="1.6" d="
				M-215.159,369.622l3.511,5.698l5.953-12.873"/>
		</g>
	</g>
</g>
<g id="General_Gray-Error">
	<g id="cdpPicture1Style1">
		<rect id="rect102" x="-17.935" y="293.674" fill="none" width="36.001" height="30"/>
		<g id="g104">
			<path id="path106" inkscape:connector-curvature="0" fill="#DB1C24" d="M-17.935,323.174h36.001l-18-29L-17.935,323.174z
				 M-14.338,321.174l14.404-23.208l14.402,23.208H-14.338z"/>
			
				<circle id="circle108" sodipodi:ry="2" sodipodi:rx="2" sodipodi:cy="26" sodipodi:cx="227.84" fill="#DB1C24" cx="0.066" cy="316.174" r="2">
			</circle>
			<path id="path110" inkscape:connector-curvature="0" fill="#DB1C24" d="M0.066,305.174c-1.104,0-2,0.896-2,2c0,1.105,0.896,5,2,5
				c1.104,0,2-3.896,2-5S1.171,305.174,0.066,305.174z"/>
		</g>
	</g>
	<g id="cdpPicture1">
		<rect id="rect124_1_" x="-88.801" y="293.674" fill="none" width="36" height="30"/>
		<g id="g126_1_">
			<path id="path128_1_" inkscape:connector-curvature="0" fill="#666666" d="M-88.801,323.174h36l-18-29L-88.801,323.174z
				 M-85.205,321.174l14.403-23.208l14.404,23.208H-85.205z"/>
			
				<circle id="circle130_1_" sodipodi:ry="2" sodipodi:rx="2" sodipodi:cy="26" sodipodi:cx="85.339996" fill="#666666" cx="-70.801" cy="316.174" r="2">
			</circle>
			<path id="path132_1_" inkscape:connector-curvature="0" fill="#666666" d="M-70.801,305.174c-1.104,0-2,0.896-2,2
				c0,1.105,0.896,5,2,5c1.105,0,2-3.895,2-5C-68.801,306.07-69.696,305.174-70.801,305.174z"/>
		</g>
	</g>
</g>
<g id="General_Gray-Warning">
	<g id="cdpPicture0Style1">
		<rect id="rect113_11_" x="-17.935" y="236.98" fill="none" width="36" height="30"/>
		<g id="g115_3_">
			<path id="path117_11_" inkscape:connector-curvature="0" fill="#F6B31E" d="M-17.935,266.48h36l-18-29L-17.935,266.48z
				 M-14.34,264.48l14.404-23.208L14.47,264.48H-14.34z"/>
			
				<circle id="circle119_3_" sodipodi:ry="2" sodipodi:rx="2" sodipodi:cy="26" sodipodi:cx="160.097" fill="#F6B31E" cx="0.065" cy="259.48" r="2">
			</circle>
			<path id="path121_3_" inkscape:connector-curvature="0" fill="#F6B31E" d="M0.065,248.48c-1.104,0-2,0.896-2,2
				c0,1.105,0.896,5,2,5c1.105,0,2-3.896,2-5S1.171,248.48,0.065,248.48z"/>
		</g>
	</g>
	<g id="cdpPicture0">
		<rect id="rect124_3_" x="-88.801" y="236.98" fill="none" width="36" height="30"/>
		<g id="g126_3_">
			<path id="path128_3_" inkscape:connector-curvature="0" fill="#666666" d="M-88.801,266.48h36l-18-29L-88.801,266.48z
				 M-85.205,264.48l14.403-23.208l14.404,23.208H-85.205z"/>
			
				<circle id="circle130_3_" sodipodi:ry="2" sodipodi:rx="2" sodipodi:cy="26" sodipodi:cx="85.339996" fill="#666666" cx="-70.801" cy="259.48" r="2">
			</circle>
			<path id="path132_3_" inkscape:connector-curvature="0" fill="#666666" d="M-70.801,248.48c-1.104,0-2,0.896-2,2
				c0,1.105,0.896,5,2,5c1.105,0,2-3.895,2-5C-68.801,249.377-69.696,248.48-70.801,248.48z"/>
		</g>
	</g>
</g>
<g id="Help">
	<text transform="matrix(1 0 0 1 -89.1436 212.6611)" font-family="'ArialMT'" font-size="12">Style 0</text>
	<text transform="matrix(1 0 0 1 -18.2773 212.6611)" font-family="'ArialMT'" font-size="12">Style 1</text>
	<text transform="matrix(1 0 0 1 194.3208 212.6611)" font-family="'ArialMT'" font-size="12">Style 0</text>
	<text transform="matrix(1 0 0 1 265.1875 212.6611)" font-family="'ArialMT'" font-size="12">Style 1</text>
	<text transform="matrix(1 0 0 1 -160.0923 254.8145)" font-family="'ArialMT'" font-size="12">Picture 0</text>
	<text transform="matrix(1 0 0 1 -160.0923 311.5078)" font-family="'ArialMT'" font-size="12">Picture 1</text>
	<text transform="matrix(1 0 0 1 123.3721 311.5078)" font-family="'ArialMT'" font-size="12">Picture 9</text>
	<text transform="matrix(1 0 0 1 123.3721 254.8145)" font-family="'ArialMT'" font-size="12">Picture 8</text>
	<text transform="matrix(1 0 0 1 -160.0923 368.2002)" font-family="'ArialMT'" font-size="12">Picture 2</text>
	<text transform="matrix(1 0 0 1 123.3721 368.2002)" font-family="'ArialMT'" font-size="12">Picture 10</text>
	<text transform="matrix(1 0 0 1 -160.0923 424.8936)" font-family="'ArialMT'" font-size="12">Picture 3</text>
	<text transform="matrix(1 0 0 1 123.3721 424.8936)" font-family="'ArialMT'" font-size="12">P</text>
	<text transform="matrix(1 0 0 1 131.376 424.8936)" font-family="'ArialMT'" font-size="12">i</text>
	<text transform="matrix(1 0 0 1 134.042 424.8936)" font-family="'ArialMT'" font-size="12">c</text>
	<text transform="matrix(1 0 0 1 140.042 424.8936)" font-family="'ArialMT'" font-size="12">t</text>
	<text transform="matrix(1 0 0 1 143.376 424.8936)" font-family="'ArialMT'" font-size="12">u</text>
	<text transform="matrix(1 0 0 1 150.0498 424.8936)" font-family="'ArialMT'" font-size="12">r</text>
	<text transform="matrix(1 0 0 1 154.0459 424.8936)" font-family="'ArialMT'" font-size="12">e</text>
	<text transform="matrix(1 0 0 1 160.7197 424.8936)" font-family="'ArialMT'" font-size="12"> </text>
	<text transform="matrix(1 0 0 1 164.0537 424.8936)" font-family="'ArialMT'" font-size="12">1</text>
	<text transform="matrix(1 0 0 1 169.8369 424.8936)" font-family="'ArialMT'" font-size="12">1</text>
	<text transform="matrix(1 0 0 1 -160.0923 481.5859)" font-family="'ArialMT'" font-size="12">Picture 4</text>
	<text transform="matrix(1 0 0 1 123.3721 481.5859)" font-family="'ArialMT'" font-size="12">Picture 12</text>
	<text transform="matrix(1 0 0 1 -160.0923 538.2793)" font-family="'ArialMT'" font-size="12">Picture 5</text>
	<text transform="matrix(1 0 0 1 123.3721 538.2793)" font-family="'ArialMT'" font-size="12">Picture 13</text>
	<text transform="matrix(1 0 0 1 -160.0923 594.9717)" font-family="'ArialMT'" font-size="12">Picture 6</text>
	<text transform="matrix(1 0 0 1 -160.0923 651.665)" font-family="'ArialMT'" font-size="12">Picture 7</text>
</g>
</svg>
