<?xml version="1.0" encoding="utf-8"?>
<!-- Generator: Adobe Illustrator 16.0.0, SVG Export Plug-In . SVG Version: 6.00 Build 0)  -->
<!DOCTYPE svg PUBLIC "-//W3C//DTD SVG 1.1//EN" "http://www.w3.org/Graphics/SVG/1.1/DTD/svg11.dtd">
<svg version="1.1" id="svg" xmlns="http://www.w3.org/2000/svg" xmlns:xlink="http://www.w3.org/1999/xlink" x="0px" y="0px"
	 width="63px" height="63px" viewBox="0 0 63 63" enable-background="new 0 0 63 63" xml:space="preserve">
<g id="Layer1">
	<g id="back">
		<linearGradient id="SVGID_1_" gradientUnits="userSpaceOnUse" x1="-26.7856" y1="14.7144" x2="163.7858" y2="205.2858">
			<stop  offset="0" style="stop-color:#363C3C"/>
			<stop  offset="1" style="stop-color:#2E3436"/>
		</linearGradient>
		<path fill="url(#SVGID_1_)" d="M147.5,219.5c0,2.762-2.238,5-5,5h-148c-2.761,0-5-2.238-5-5V0.5c0-2.761,2.239-5,5-5h148
			c2.762,0,5,2.239,5,5V219.5z"/>
		<path fill="none" stroke="#0F0F0F" stroke-width="3" stroke-miterlimit="10" d="M147,220c0,2.762-2.238,5-5,5H-6
			c-2.761,0-5-2.238-5-5V1c0-2.761,2.239-5,5-5h148c2.762,0,5,2.239,5,5V220z"/>
	</g>
	<g id="cdpPicture2">
		<rect y="150.143" fill="none" width="63" height="63"/>
	</g>
	<g id="cdpPicture1">
		<rect y="73.043" fill="none" width="63" height="63"/>
	</g>
	<g id="cdpPicture0">
		<rect fill="none" width="63" height="63"/>
		<g>
			<path fill-rule="evenodd" clip-rule="evenodd" fill="#0A0A0A" d="M31.501,2.006c16.288,0,29.492,13.205,29.492,29.493
				c0,16.288-13.204,29.493-29.492,29.493c-16.289,0-29.494-13.205-29.494-29.493C2.007,15.211,15.212,2.006,31.501,2.006"/>
			<linearGradient id="sunkenCircle_2_" gradientUnits="userSpaceOnUse" x1="15.7666" y1="15.7666" x2="47.2336" y2="47.2336">
				<stop  offset="0" style="stop-color:#1D2021"/>
				<stop  offset="0.4337" style="stop-color:#1D2021"/>
				<stop  offset="0.6684" style="stop-color:#565B5D"/>
				<stop  offset="1" style="stop-color:#565B5D"/>
			</linearGradient>
			<path id="sunkenCircle_1_" fill="url(#sunkenCircle_2_)" d="M63,31.5C63,14.13,48.869,0,31.501,0C14.131,0,0,14.13,0,31.5
				C0,48.869,14.131,63,31.501,63C48.869,63,63,48.869,63,31.5z M2.006,31.5c0-16.288,13.205-29.493,29.495-29.493
				c16.288,0,29.492,13.205,29.492,29.493c0,16.29-13.204,29.493-29.492,29.493C15.211,60.992,2.006,47.789,2.006,31.5z"/>
			<linearGradient id="greenCircle_2_" gradientUnits="userSpaceOnUse" x1="31.4995" y1="56.0762" x2="31.4995" y2="6.9229">
				<stop  offset="0" style="stop-color:#91CB74"/>
				<stop  offset="1" style="stop-color:#63B13B"/>
			</linearGradient>
			<path id="greenCircle_1_" fill="url(#greenCircle_2_)" d="M31.499,6.922C17.926,6.922,6.922,17.923,6.922,31.5
				c0,13.573,11.004,24.577,24.577,24.577c13.576,0,24.578-11.004,24.578-24.577C56.077,17.923,45.075,6.922,31.499,6.922z
				 M31.499,53.068c-11.893,0-21.568-9.676-21.568-21.569c0-11.894,9.676-21.567,21.568-21.567c11.892,0,21.569,9.674,21.569,21.567
				C53.068,43.393,43.391,53.068,31.499,53.068z"/>
			<text transform="matrix(1 0 0 1 20.9282 36.6426)" fill="#DEFFCE" font-family="'ArialMT'" font-size="13">OK</text>
		</g>
	</g>
</g>
<g id="Styles">
	<g id="cdpPicture2Style1">
		<rect x="70.999" y="150.999" fill="none" width="63" height="63.002"/>
		<g>
			<path fill-rule="evenodd" clip-rule="evenodd" fill="#0A0A0A" d="M102.5,153.006c16.288,0,29.492,13.205,29.492,29.493
				c0,16.289-13.204,29.494-29.492,29.494s-29.494-13.205-29.494-29.494C73.006,166.211,86.212,153.006,102.5,153.006"/>
			<linearGradient id="SVGID_2_" gradientUnits="userSpaceOnUse" x1="86.7686" y1="166.7686" x2="118.2464" y2="198.2464">
				<stop  offset="0" style="stop-color:#1D2021"/>
				<stop  offset="0.4337" style="stop-color:#1D2021"/>
				<stop  offset="0.6684" style="stop-color:#565B5D"/>
				<stop  offset="1" style="stop-color:#565B5D"/>
			</linearGradient>
			<path fill="url(#SVGID_2_)" d="M133.999,182.499c0-17.369-14.131-31.5-31.499-31.5c-17.37,0-31.501,14.131-31.501,31.5
				c0,17.371,14.131,31.502,31.501,31.502C119.868,214.001,133.999,199.87,133.999,182.499z M73.006,182.499
				c0-16.288,13.204-29.493,29.494-29.493c16.288,0,29.492,13.205,29.492,29.493c0,16.289-13.204,29.494-29.492,29.494
				C86.21,211.993,73.006,198.788,73.006,182.499z"/>
			<linearGradient id="SVGID_3_" gradientUnits="userSpaceOnUse" x1="102.498" y1="207.0771" x2="102.498" y2="157.9219">
				<stop  offset="0" style="stop-color:#D70F0F"/>
				<stop  offset="1" style="stop-color:#8D0E0E"/>
			</linearGradient>
			<path fill="url(#SVGID_3_)" d="M102.498,157.922c-13.572,0-24.578,11.001-24.578,24.577c0,13.574,11.006,24.578,24.578,24.578
				c13.574,0,24.578-11.004,24.578-24.578C127.076,168.923,116.072,157.922,102.498,157.922z M102.498,204.067
				c-11.894,0-21.569-9.676-21.569-21.568c0-11.894,9.676-21.567,21.569-21.567s21.569,9.674,21.569,21.567
				C124.067,194.392,114.392,204.067,102.498,204.067z"/>
			<text transform="matrix(1 0 0 1 88.1719 181.6426)" fill="#EFB3B3" font-family="'ArialMT'" font-size="12">HIGH</text>
			<text transform="matrix(1 0 0 1 88.1719 193.9756)" fill="#EFB3B3" font-family="'ArialMT'" font-size="12">HIGH</text>
		</g>
	</g>
	<g id="cdpPicture1Style1">
		<rect x="71" y="73.041" fill="none" width="63" height="63.001"/>
		<g>
			<path fill-rule="evenodd" clip-rule="evenodd" fill="#0A0A0A" d="M102.501,75.048c16.288,0,29.492,13.205,29.492,29.493
				s-13.204,29.493-29.492,29.493s-29.494-13.205-29.494-29.493S86.213,75.048,102.501,75.048"/>
			<linearGradient id="SVGID_4_" gradientUnits="userSpaceOnUse" x1="86.7695" y1="88.8105" x2="118.2474" y2="120.2884">
				<stop  offset="0" style="stop-color:#1D2021"/>
				<stop  offset="0.4337" style="stop-color:#1D2021"/>
				<stop  offset="0.6684" style="stop-color:#565B5D"/>
				<stop  offset="1" style="stop-color:#565B5D"/>
			</linearGradient>
			<path fill="url(#SVGID_4_)" d="M134,104.541c0-17.369-14.131-31.5-31.499-31.5c-17.37,0-31.501,14.131-31.501,31.5
				c0,17.37,14.131,31.501,31.501,31.501C119.869,136.042,134,121.911,134,104.541z M73.007,104.541
				c0-16.288,13.204-29.493,29.494-29.493c16.288,0,29.492,13.205,29.492,29.493c0,16.289-13.204,29.493-29.492,29.493
				C86.211,134.034,73.007,120.83,73.007,104.541z"/>
			<linearGradient id="SVGID_5_" gradientUnits="userSpaceOnUse" x1="102.499" y1="129.1182" x2="102.499" y2="79.9639">
				<stop  offset="0" style="stop-color:#D70F0F"/>
				<stop  offset="1" style="stop-color:#8D0E0E"/>
			</linearGradient>
			<path fill="url(#SVGID_5_)" d="M102.499,79.964c-13.572,0-24.578,11.001-24.578,24.577c0,13.573,11.006,24.577,24.578,24.577
				c13.574,0,24.578-11.004,24.578-24.577C127.077,90.965,116.073,79.964,102.499,79.964z M102.499,126.109
				c-11.894,0-21.569-9.676-21.569-21.568c0-11.894,9.676-21.567,21.569-21.567s21.569,9.674,21.569,21.567
				C124.068,116.434,114.393,126.109,102.499,126.109z"/>
			<text transform="matrix(1 0 0 1 86.1729 109.6836)" fill="#EFB3B3" font-family="'ArialMT'" font-size="13">HIGH</text>
		</g>
	</g>
</g>
<g id="Help">
	<text transform="matrix(1 0 0 1 -66.1665 105.833)" font-family="'MyriadPro-Regular'" font-size="12">Picture 1</text>
	<text transform="matrix(1 0 0 1 -69.5 182.5)" font-family="'MyriadPro-Regular'" font-size="12">Picture 2</text>
	<text transform="matrix(1 0 0 1 87.5 -13.833)" font-family="'MyriadPro-Regular'" font-size="12">Style 1</text>
	<text transform="matrix(1 0 0 1 7.5005 -13.833)" font-family="'MyriadPro-Regular'" font-size="12">Style 0</text>
	<text transform="matrix(1 0 0 1 -66.1665 36.5)" font-family="'MyriadPro-Regular'" font-size="12">Picture 0</text>
</g>
</svg>
