<?xml version="1.0" encoding="UTF-8"?>
<svg id="svg2" width="411.88" height="72.896" version="1.1" viewBox="0 0 411.88 72.896" xml:space="preserve" xmlns="http://www.w3.org/2000/svg" xmlns:cc="http://creativecommons.org/ns#" xmlns:dc="http://purl.org/dc/elements/1.1/" xmlns:rdf="http://www.w3.org/1999/02/22-rdf-syntax-ns#">
<metadata id="metadata8"><rdf:RDF><cc:Work rdf:about=""><dc:format>image/svg+xml</dc:format><dc:type rdf:resource="http://purl.org/dc/dcmitype/StillImage"/></cc:Work></rdf:RDF></metadata>


<g id="Layer1" transform="matrix(1.3333 0 0 -1.3333 -18.929 91.823)"><g id="g12" transform="scale(.1)" fill="#F2F2F2"><path id="path14" d="m348.86 179.45c-70.371 0-123.8 15.02-169.39 61.25l58.633 58.652c29.297-29.335 69.058-39.082 112.06-39.082 53.43 0 82.09 20.176 82.09 57.305 0 16.309-4.57 29.961-14.308 39.121-9.137 8.438-19.586 13.008-41.051 16.27l-56.059 7.832c-39.723 5.859-69.043 18.242-89.89 38.441-22.161 22.145-33.235 52.117-33.235 91.203 0 82.739 61.25 140.73 161.59 140.73 63.816 0 110.08-15.629 149.85-54.07l-57.363-56.688c-29.312 28.016-64.461 31.922-95.137 31.922-48.191 0-71.66-26.707-71.66-58.637 0-11.726 3.926-24.105 13.711-33.219 9.106-8.476 24.106-15.636 42.989-18.242l54.738-7.832c42.336-5.859 69.07-17.59 88.601-35.828 24.746-23.461 35.84-57.328 35.84-98.363 0-89.922-74.937-140.76-172.01-140.76"/><path id="path16" d="m573.6 183.4v463.87h305.61v-80.79h-215.05v-108.82h183.1v-80.789h-183.1v-112.73h215.05v-80.743h-305.61"/><path id="path18" d="m1109.2 510.44-58.63-168.76h115.33zm108.15-327.05-27.33 82.071h-164.86l-28.021-82.071h-94.48l168.77 463.87h71.01l169.4-463.87h-94.49"/><path id="path20" d="m1545.7 545.63c-13.04 14.984-33.24 24.754-57.98 24.754-24.77 0-45.63-9.77-58.66-24.754-17.59-19.551-22.17-41.055-22.17-130.31 0-89.242 4.58-110.76 22.17-130.3 13.03-15 33.89-24.747 58.66-24.747 24.74 0 44.94 9.747 57.98 24.747 17.6 19.531 22.82 41.054 22.82 130.3 0 89.258-5.22 110.76-22.82 130.31zm67.11-315.34c-32.59-32.598-72.32-50.84-125.09-50.84-52.8 0-93.19 18.242-125.77 50.84-46.89 46.914-45.6 104.88-45.6 185.02 0 80.145-1.29 138.13 45.6 185.04 32.58 32.578 72.97 50.82 125.77 50.82 52.77 0 92.5-18.242 125.09-50.82 46.9-46.907 46.27-104.89 46.27-185.04 0-80.14 0.63-138.11-46.27-185.02"/><path id="path22" d="m2000.5 183.4-183.74 284.71v-284.71h-90.57v463.87h80.76l183.74-284.07v284.07h90.59v-463.87h-80.78"/><path id="path24" d="m2155.5 183.4h90.559v463.87h-90.559z"/><path id="path26" d="m2485.2 179.45c-50.8 0-92.5 18.242-125.06 50.84-46.94 46.914-45.63 104.88-45.63 185.02 0 80.145-1.31 138.13 45.63 185.04 32.56 32.578 74.26 50.82 125.06 50.82 86.66 0 154.45-49.516 170.7-146.6h-91.84c-9.14 37.149-32.59 65.809-78.2 65.809-24.75 0-44.96-9.117-57.99-24.11-17.6-19.531-22.79-41.699-22.79-130.96 0-89.242 5.19-111.39 22.79-130.94 13.03-15 33.24-24.102 57.99-24.102 45.61 0 69.06 28.653 78.2 65.801h91.84c-16.25-97.09-84.69-146.62-170.7-146.62"/><path id="path28" d="m2842.2 179.45c-70.39 0-123.77 15.02-169.4 61.25l58.64 58.652c29.29-29.335 69.06-39.082 112.05-39.082 53.41 0 82.09 20.176 82.09 57.305 0 16.309-4.55 29.961-14.32 39.121-9.14 8.438-19.57 13.008-41.06 16.27l-56.05 7.832c-39.73 5.859-69.02 18.242-89.9 38.441-22.13 22.145-33.22 52.117-33.22 91.203 0 82.739 61.25 140.73 161.6 140.73 63.84 0 110.07-15.629 149.84-54.07l-57.36-56.688c-29.32 28.016-64.49 31.922-95.12 31.922-48.2 0-71.66-26.707-71.66-58.637 0-11.726 3.91-24.105 13.69-33.219 9.1-8.476 24.1-15.636 43.01-18.242l54.73-7.832c42.32-5.859 69.06-17.59 88.59-35.828 24.77-23.461 35.84-57.328 35.84-98.363 0-89.922-74.94-140.76-171.99-140.76"/><path id="path30" d="m3087 608.66v-58.363h-16.19v58.363h-23.54v14.508h63.23v-14.508h-23.5"/><path id="path32" d="m3177.4 550.29v43.004l-13.67-26.797h-14.31l-13.68 26.797v-43.004h-16.21v72.871h16.21l20.82-38.906 20.84 38.906h16.21v-72.871h-16.21"/></g></g></svg>
