<?xml version="1.0" encoding="utf-8"?>
<!-- Generator: Adobe Illustrator 15.0.0, SVG Export Plug-In . SVG Version: 6.00 Build 0)  -->
<!DOCTYPE svg PUBLIC "-//W3C//DTD SVG 1.1//EN" "http://www.w3.org/Graphics/SVG/1.1/DTD/svg11.dtd">
<svg version="1.1" id="svg" xmlns="http://www.w3.org/2000/svg" xmlns:xlink="http://www.w3.org/1999/xlink" x="0px" y="0px"
	 width="192px" height="192px" viewBox="0 0 192 192" enable-background="new 0 0 192 192" xml:space="preserve">
<g id="Layer1">
	<g id="cdpBackground">
		<radialGradient id="outer_2_" cx="159.1748" cy="55.1499" r="156.7254" gradientUnits="userSpaceOnUse">
			<stop  offset="0" style="stop-color:#323B40"/>
			<stop  offset="1" style="stop-color:#212426"/>
		</radialGradient>
		
			<circle id="outer_1_" fill="url(#outer_2_)" stroke="#505152" stroke-width="0.95" stroke-miterlimit="10" cx="96" cy="96" r="95"/>
		<radialGradient id="middle_2_" cx="96" cy="96" r="87.5" gradientUnits="userSpaceOnUse">
			<stop  offset="0" style="stop-color:#DCE0E6"/>
			<stop  offset="1" style="stop-color:#343536"/>
		</radialGradient>
		<circle id="middle_1_" fill="url(#middle_2_)" cx="96" cy="96" r="87.5"/>
		<radialGradient id="inner_2_" cx="-14.5" cy="215.5" r="190.003" gradientUnits="userSpaceOnUse">
			<stop  offset="0" style="stop-color:#171717"/>
			<stop  offset="0.4171" style="stop-color:#191919"/>
			<stop  offset="0.6397" style="stop-color:#212121"/>
			<stop  offset="0.8162" style="stop-color:#2E2F2F"/>
			<stop  offset="0.9678" style="stop-color:#414242"/>
			<stop  offset="1" style="stop-color:#464747"/>
		</radialGradient>
		<circle id="inner_6_" fill="url(#inner_2_)" cx="96" cy="96" r="86.5"/>
		<path id="inner_4_" display="none" fill="none" stroke="#FFFFFF" stroke-width="1.5" stroke-miterlimit="10" d="M84.984,17.459
			c3.584-0.492,7.244-0.746,10.965-0.746c44.184,0,80,35.816,80,80c0,17.298-5.49,33.313-14.822,46.398"/>
		
			<path id="right_1_" opacity="0.4" fill="none" stroke="#FFFFFF" stroke-width="20" stroke-miterlimit="10" stroke-opacity="0.32" d="
			M132.642,33.092c21.386,12.401,35.902,35.408,36.261,61.924c0.182,13.454-3.305,26.103-9.532,36.996"/>
		
			<path id="left_1_" opacity="0.4" fill="none" stroke="#FFFFFF" stroke-width="20" stroke-miterlimit="10" stroke-opacity="0.32" d="
			M32.961,131.746c-5.818-10.277-9.208-22.122-9.379-34.766C23.216,69.917,37.693,46.108,59.47,33.308"/>
		<path id="top" display="none" fill="none" stroke="#FFFFFF" stroke-width="20" stroke-miterlimit="10" stroke-opacity="0.32" d="
			M59.47,33.308c10.512-6.179,22.725-9.793,35.79-9.97c13.613-0.184,26.402,3.388,37.382,9.754"/>
		<rect id="outline" fill="none" width="192" height="192"/>
	</g>
	<rect id="cdpTicksMinorSize" x="87.417" y="25.713" fill="none" width="1" height="5"/>
	<rect id="cdpTicksMajorSize" x="88.916" y="19.213" fill="none" width="2" height="12"/>
	<rect id="cdpTicksOffset" x="46.479" y="81.552" fill="none" width="3.999" height="2"/>
	<rect id="cdpTicksMajorNo4T_1_" x="43.596" y="79.746" fill="none" width="3.999" height="5.563"/>
	<rect id="cdpTicksMinorNo5T_1_" x="41.596" y="78.771" fill="none" width="3.999" height="5.563"/>
	<g id="cdpTicksColor_1_" enable-background="new    ">
		<text transform="matrix(1 0 0 1 218.2305 105.6328)" fill="#FFFFFF" font-family="'Arial-BoldMT'" font-size="8">1</text>
	</g>
	<g id="cdpTextSuffix">
		<rect x="53" y="156.166" fill="none" width="86" height="17.666"/>
		<text transform="matrix(1 0 0 1 77.606 166.5342)" fill="#8A8A8A" font-family="'Arial-BoldMT'" font-size="10">pixel / s</text>
	</g>
	<g id="cdpTextPrefix">
		<rect x="53" y="118" fill="none" width="86" height="38"/>
		<text transform="matrix(1 0 0 1 65.9194 148.1475)" fill="#FFFFFF" font-family="'ArialMT'" font-size="13">QUALITY</text>
		<text transform="matrix(1 0 0 1 83.4263 131.3477)" fill="#FFFFFF" font-family="'ArialMT'" font-size="13">GUI</text>
	</g>
	<g id="cdpNeedleGraphics">
		<linearGradient id="SVGID_1_" gradientUnits="userSpaceOnUse" x1="102.333" y1="68.4731" x2="90.3336" y2="68.4731">
			<stop  offset="0" style="stop-color:#FFFFFF"/>
			<stop  offset="0.1414" style="stop-color:#FAFBFB"/>
			<stop  offset="0.3029" style="stop-color:#ECEDEE"/>
			<stop  offset="0.4743" style="stop-color:#D6D8D9"/>
			<stop  offset="0.6526" style="stop-color:#B6B9BC"/>
			<stop  offset="0.8343" style="stop-color:#8D9396"/>
			<stop  offset="1" style="stop-color:#61696E"/>
		</linearGradient>
		<path display="none" fill="url(#SVGID_1_)" d="M98.678,33.313l2.289,68.09c0.037,1.091-0.834,2.229-1.934,2.229h-6
			c-1.1,0-1.969-1.139-1.934-2.229l2.285-68.03"/>
		<linearGradient id="SVGID_2_" gradientUnits="userSpaceOnUse" x1="99.4102" y1="23.6865" x2="92.9744" y2="23.6865">
			<stop  offset="0" style="stop-color:#FF0007"/>
			<stop  offset="0.1414" style="stop-color:#FA030A"/>
			<stop  offset="0.3029" style="stop-color:#EC0C13"/>
			<stop  offset="0.4743" style="stop-color:#D61C22"/>
			<stop  offset="0.6526" style="stop-color:#B63137"/>
			<stop  offset="0.8343" style="stop-color:#8D4C51"/>
			<stop  offset="1" style="stop-color:#61696E"/>
		</linearGradient>
		<path fill="url(#SVGID_2_)" d="M93.384,33.373l0.583-17.33C94.002,14.952,94.934,14,96.033,14l0,0c1.1,0,2.029,0.983,2.064,2.074
			l0.58,17.239"/>
		<rect id="cdpRectCenter_4_" x="94.66" y="95.295" fill="none" width="3" height="2.974"/>
		<rect id="cdpRectOutline_3_" x="87" y="14" fill="none" width="18" height="89.633"/>
	</g>
	<rect id="cdpNeedleCenterCW" x="94.531" y="95.244" fill="none" width="2.938" height="2.938"/>
	<rect id="cdpNeedleMin" x="22.512" y="132.512" fill="none" width="2.977" height="2.977"/>
	<rect id="cdpNeedleMax_1_" x="51.971" y="22.971" fill="none" width="4.059" height="4.059"/>
</g>
<g id="Helper__x28_not_parsed_x29_">
	<g id="scale_2_">
		
			<text transform="matrix(0.8662 0.4996 -0.4996 0.8662 117.6299 51.0977)" fill="#FFFFFF" font-family="'Arial-BoldMT'" font-size="13.9993">2</text>
		<path id="inner_3_" fill="none" stroke="#FF0007" stroke-width="4" stroke-miterlimit="10" d="M171.875,81.094
			c1.033,5.045,1.574,10.27,1.574,15.619c0,16.788-5.338,32.33-14.41,45.02"/>
		<path id="inner_1_" display="none" fill="none" stroke="#FFFFFF" stroke-width="0.9249" stroke-miterlimit="10" d="M84.984,17.459
			c3.584-0.492,7.244-0.746,10.965-0.746c44.184,0,80,35.816,80,80c0,17.298-5.49,33.313-14.822,46.398"/>
		<line fill="none" stroke="#FFFFFF" stroke-width="4" stroke-miterlimit="10" x1="128.426" y1="40.408" x2="135.922" y2="27.415"/>
		<line fill="none" stroke="#FFFFFF" stroke-width="4" stroke-miterlimit="10" x1="152.26" y1="64.245" x2="165.254" y2="56.753"/>
		
			<text transform="matrix(0.4995 0.8663 -0.8663 0.4995 137.5449 68.1431)" fill="#FFFFFF" font-family="'Arial-BoldMT'" font-size="14">3</text>
		<line fill="none" stroke="#FFFFFF" stroke-width="4" stroke-miterlimit="10" x1="160.949" y1="96.77" x2="175.949" y2="96.781"/>
		
			<text transform="matrix(-8.600000e-004 1 -1 -8.600000e-004 146.2676 92.7969)" fill="#FFFFFF" font-family="'Arial-BoldMT'" font-size="14">4</text>
		
			<line fill="none" stroke="#FFFFFF" stroke-width="4" stroke-miterlimit="10" x1="152.256" y1="129.186" x2="165.252" y2="136.678"/>
		
			<text transform="matrix(-0.4996 0.8663 -0.8663 -0.4996 141.5391 118.3945)" fill="#FFFFFF" font-family="'Arial-BoldMT'" font-size="14.0005">5</text>
	</g>
	<g id="scaleLeft">
		
			<text transform="matrix(-4.400000e-004 -1 1 -4.400000e-004 45.5952 100.791)" fill="#FFFFFF" font-family="'Arial-BoldMT'" font-size="13.9993">2</text>
		<path id="inner_8_" display="none" fill="none" stroke="#FF0007" stroke-width="4" stroke-miterlimit="10" d="M44.507,38.757
			c3.853-3.417,8.106-6.498,12.739-9.173c14.539-8.395,30.668-11.542,46.193-10.03"/>
		<path id="inner_7_" display="none" fill="none" stroke="#FFFFFF" stroke-width="0.9249" stroke-miterlimit="10" d="M84.984,17.459
			c3.584-0.492,7.244-0.746,10.965-0.746c44.184,0,80,35.816,80,80c0,17.298-5.49,33.313-14.822,46.398"/>
		<line fill="none" stroke="#FFFFFF" stroke-width="4" stroke-miterlimit="10" x1="39.706" y1="129.2" x2="26.715" y2="136.7"/>
		<line fill="none" stroke="#FFFFFF" stroke-width="4" stroke-miterlimit="10" x1="30.998" y1="96.728" x2="15.997" y2="96.732"/>
		<g enable-background="new    ">
			<text transform="matrix(-0.5 -0.866 0.866 -0.5 54.4517 125.2549)" font-family="'Arial-BoldMT'" font-size="13.9993">1</text>
		</g>
		<line fill="none" stroke="#FFFFFF" stroke-width="4" stroke-miterlimit="10" x1="39.724" y1="64.168" x2="26.738" y2="56.661"/>
		
			<text transform="matrix(0.5005 -0.8657 0.8657 0.5005 50.478 74.98)" fill="#FFFFFF" font-family="'Arial-BoldMT'" font-size="14">3</text>
		<line fill="none" stroke="#FFFFFF" stroke-width="4" stroke-miterlimit="10" x1="63.546" y1="40.381" x2="56.056" y2="27.385"/>
		
			<text transform="matrix(0.8665 -0.4993 0.4993 0.8665 67.5239 55.0815)" fill="#FFFFFF" font-family="'Arial-BoldMT'" font-size="14">4</text>
	</g>
</g>
<g id="Layer2">
	<rect id="cdpNeedleCenterCCW" x="94.531" y="94.531" fill="none" width="2.938" height="2.938"/>
	<rect id="cdpTicksOffset_1_" x="133.971" y="103.133" fill="none" width="4" height="1"/>
	<rect id="cdpTicksMajorNo4T" x="129.029" y="85.984" fill="none" width="4" height="5.563"/>
	<rect id="cdpTicksMinorNo5T" x="129.029" y="86.213" fill="none" width="4" height="1"/>
	<g id="cdpTicksColor_2_" enable-background="new    ">
		<text transform="matrix(1 0 0 1 218.2305 105.6328)" fill="#FFFFFF" font-family="'Arial-BoldMT'" font-size="8">1</text>
	</g>
	<rect id="cdpNeedleMin_1_" x="167.512" y="132.512" fill="none" width="2.977" height="2.977"/>
	<rect id="cdpNeedleMax" x="135.971" y="22.971" fill="none" width="4.059" height="4.059"/>
</g>
<g id="Layer3">
	<g id="cdpTicksColor" enable-background="new    ">
		<text transform="matrix(1 0 0 1 218.2305 105.6328)" fill="#FFFFFF" font-family="'Arial-BoldMT'" font-size="8">1</text>
	</g>
	<g id="cdpTicksNumber" enable-background="new    ">
		<text transform="matrix(1 0 0 1 218.2305 105.6328)" fill="#FFFFFF" font-family="'Arial-BoldMT'" font-size="8">1</text>
	</g>
	<rect id="cdpNeedleCenterCW_1_" x="94.531" y="94.531" fill="none" width="2.938" height="2.938"/>
	<g id="cdpNeedleGraphics_1_">
		<linearGradient id="SVGID_3_" gradientUnits="userSpaceOnUse" x1="251.2959" y1="60.415" x2="239.2959" y2="60.415">
			<stop  offset="0" style="stop-color:#FFFFFF"/>
			<stop  offset="0.1414" style="stop-color:#FAFBFB"/>
			<stop  offset="0.3029" style="stop-color:#ECEDEE"/>
			<stop  offset="0.4743" style="stop-color:#D6D8D9"/>
			<stop  offset="0.6526" style="stop-color:#B6B9BC"/>
			<stop  offset="0.8343" style="stop-color:#8D9396"/>
			<stop  offset="1" style="stop-color:#61696E"/>
		</linearGradient>
		<path fill="url(#SVGID_3_)" d="M249.93,103.384c0.037,1.102-0.834,2.25-1.934,2.25h-6c-1.1,0-1.969-1.148-1.934-2.25l2.867-86.126
			c0.035-1.101,0.967-2.062,2.066-2.062l0,0c1.1,0,2.029,0.992,2.064,2.093L249.93,103.384z"/>
		<rect id="cdpRectCenter_1_" x="243.463" y="102.134" fill="none" width="3" height="3"/>
		<rect id="cdpRectOutline_1_" x="235.963" y="15.196" fill="none" width="18" height="90.438"/>
	</g>
	<rect id="cdpNeedleMin_2_" x="47.512" y="122.512" fill="none" width="2.977" height="2.977"/>
	<rect id="cdpNeedleMax_2_" x="140.971" y="121.971" fill="none" width="4.059" height="4.059"/>
	<g id="cdpTop">
		
			<linearGradient id="glass_2_" gradientUnits="userSpaceOnUse" x1="252.1377" y1="737.6143" x2="252.1377" y2="775.5098" gradientTransform="matrix(2.2068 0 0 2.2068 -460.2549 -1640.6885)">
			<stop  offset="0.4164" style="stop-color:#FFFFFF;stop-opacity:0.95"/>
			<stop  offset="1" style="stop-color:#FFFFFF;stop-opacity:0"/>
		</linearGradient>
		<path id="glass_1_" opacity="0.45" fill="url(#glass_2_)" enable-background="new    " d="M175,60.463
			c0,23.792-30.738-10.416-78.729-10.416c-47.988,0-78.951,38.455-78.951,10.416c0-0.98,20.854-50.95,78.754-50.95
			C152.928,9.513,175,59.524,175,60.463L175,60.463z"/>
		<g id="center">
			<linearGradient id="SVGID_4_" gradientUnits="userSpaceOnUse" x1="113.5859" y1="74.6123" x2="82.1965" y2="114.0574">
				<stop  offset="0" style="stop-color:#FFFFFF"/>
				<stop  offset="0.1414" style="stop-color:#FAFBFB"/>
				<stop  offset="0.3029" style="stop-color:#ECEDEE"/>
				<stop  offset="0.4743" style="stop-color:#D6D8D9"/>
				<stop  offset="0.6526" style="stop-color:#B6B9BC"/>
				<stop  offset="0.8343" style="stop-color:#8D9396"/>
				<stop  offset="1" style="stop-color:#61696E"/>
			</linearGradient>
			<circle fill="url(#SVGID_4_)" cx="96" cy="96.713" r="10"/>
			<linearGradient id="SVGID_5_" gradientUnits="userSpaceOnUse" x1="101.3438" y1="90.7944" x2="89.3064" y2="104.1279">
				<stop  offset="0" style="stop-color:#FFFFFF"/>
				<stop  offset="0.1414" style="stop-color:#FAFBFB"/>
				<stop  offset="0.3029" style="stop-color:#ECEDEE"/>
				<stop  offset="0.4743" style="stop-color:#D6D8D9"/>
				<stop  offset="0.6526" style="stop-color:#B6B9BC"/>
				<stop  offset="0.8343" style="stop-color:#8D9396"/>
				<stop  offset="1" style="stop-color:#61696E"/>
			</linearGradient>
			<circle fill="url(#SVGID_5_)" cx="96" cy="96.713" r="7.947"/>
		</g>
		<g id="right" display="none">
			<linearGradient id="SVGID_6_" gradientUnits="userSpaceOnUse" x1="124.5859" y1="74.6123" x2="93.1964" y2="114.0576">
				<stop  offset="0" style="stop-color:#FFFFFF"/>
				<stop  offset="0.1414" style="stop-color:#FAFBFB"/>
				<stop  offset="0.3029" style="stop-color:#ECEDEE"/>
				<stop  offset="0.4743" style="stop-color:#D6D8D9"/>
				<stop  offset="0.6526" style="stop-color:#B6B9BC"/>
				<stop  offset="0.8343" style="stop-color:#8D9396"/>
				<stop  offset="1" style="stop-color:#61696E"/>
			</linearGradient>
			<circle display="inline" fill="url(#SVGID_6_)" cx="107" cy="96.713" r="10"/>
			<linearGradient id="SVGID_7_" gradientUnits="userSpaceOnUse" x1="112.3438" y1="90.7944" x2="100.3064" y2="104.128">
				<stop  offset="0" style="stop-color:#FFFFFF"/>
				<stop  offset="0.1414" style="stop-color:#FAFBFB"/>
				<stop  offset="0.3029" style="stop-color:#ECEDEE"/>
				<stop  offset="0.4743" style="stop-color:#D6D8D9"/>
				<stop  offset="0.6526" style="stop-color:#B6B9BC"/>
				<stop  offset="0.8343" style="stop-color:#8D9396"/>
				<stop  offset="1" style="stop-color:#61696E"/>
			</linearGradient>
			<circle display="inline" fill="url(#SVGID_7_)" cx="107" cy="96.713" r="7.947"/>
		</g>
		<g id="left" display="none">
			<linearGradient id="SVGID_8_" gradientUnits="userSpaceOnUse" x1="102.5859" y1="74.6123" x2="71.1965" y2="114.0574">
				<stop  offset="0" style="stop-color:#FFFFFF"/>
				<stop  offset="0.1414" style="stop-color:#FAFBFB"/>
				<stop  offset="0.3029" style="stop-color:#ECEDEE"/>
				<stop  offset="0.4743" style="stop-color:#D6D8D9"/>
				<stop  offset="0.6526" style="stop-color:#B6B9BC"/>
				<stop  offset="0.8343" style="stop-color:#8D9396"/>
				<stop  offset="1" style="stop-color:#61696E"/>
			</linearGradient>
			<circle display="inline" fill="url(#SVGID_8_)" cx="85" cy="96.713" r="10"/>
			<linearGradient id="SVGID_9_" gradientUnits="userSpaceOnUse" x1="90.3433" y1="90.7944" x2="78.306" y2="104.1279">
				<stop  offset="0" style="stop-color:#FFFFFF"/>
				<stop  offset="0.1414" style="stop-color:#FAFBFB"/>
				<stop  offset="0.3029" style="stop-color:#ECEDEE"/>
				<stop  offset="0.4743" style="stop-color:#D6D8D9"/>
				<stop  offset="0.6526" style="stop-color:#B6B9BC"/>
				<stop  offset="0.8343" style="stop-color:#8D9396"/>
				<stop  offset="1" style="stop-color:#61696E"/>
			</linearGradient>
			<circle display="inline" fill="url(#SVGID_9_)" cx="85" cy="96.713" r="7.947"/>
		</g>
		<rect id="outline_1_" fill="none" width="192" height="192"/>
	</g>
</g>
</svg>
