<?xml version="1.0" encoding="utf-8"?>
<!-- Generator: Adobe Illustrator 16.0.0, SVG Export Plug-In . SVG Version: 6.00 Build 0)  -->
<!DOCTYPE svg PUBLIC "-//W3C//DTD SVG 1.1//EN" "http://www.w3.org/Graphics/SVG/1.1/DTD/svg11.dtd">
<svg version="1.1" id="svg" xmlns="http://www.w3.org/2000/svg" xmlns:xlink="http://www.w3.org/1999/xlink" x="0px" y="0px"
	 width="40px" height="40px" viewBox="0 0 40 40" enable-background="new 0 0 40 40" xml:space="preserve">
<g id="Layer1">
	<g id="cdpBackground">
		<g display="none">
			<linearGradient id="SVGID_1_" gradientUnits="userSpaceOnUse" x1="0" y1="19.5" x2="39" y2="19.5">
				<stop  offset="0" style="stop-color:#EBEBEB"/>
				<stop  offset="0.619" style="stop-color:#ECECEC"/>
				<stop  offset="0.8417" style="stop-color:#F3F3F3"/>
				<stop  offset="1" style="stop-color:#FFFFFF"/>
			</linearGradient>
			<path display="inline" fill="url(#SVGID_1_)" d="M39,34c0,2.762-2.238,5-5,5H5c-2.761,0-5-2.238-5-5V5c0-2.761,2.239-5,5-5h29
				c2.762,0,5,2.239,5,5V34z"/>
			<path display="inline" fill="none" stroke="#BFBFBF" stroke-miterlimit="10" d="M39.5,34.5c0,2.762-2.238,5-5,5h-29
				c-2.761,0-5-2.238-5-5v-29c0-2.761,2.239-5,5-5h29c2.762,0,5,2.239,5,5V34.5z"/>
		</g>
		<g id="bakgrunn_1_">
			<linearGradient id="SVGID_2_" gradientUnits="userSpaceOnUse" x1="19.5005" y1="8.2207" x2="19.5005" y2="0.1823">
				<stop  offset="0" style="stop-color:#434648"/>
				<stop  offset="0.5654" style="stop-color:#45484A"/>
				<stop  offset="0.7691" style="stop-color:#4C4E4F"/>
				<stop  offset="0.9137" style="stop-color:#575959"/>
				<stop  offset="1" style="stop-color:#636363"/>
			</linearGradient>
			<rect fill="url(#SVGID_2_)" width="39" height="39"/>
			<rect x="0.5" y="0.5" fill="none" stroke="#303030" stroke-miterlimit="10" width="39" height="39"/>
		</g>
		<rect id="rect" fill="none" width="40" height="40"/>
	</g>
	<rect id="cdpBorderMarginBottomRight" x="34" y="34" fill="none" width="6" height="6"/>
	<rect id="cdpBorderMarginTopLeft" fill="none" width="6" height="6"/>
</g>
<g id="Styles">
	<g id="cdpBackgroundStyle2">
		<g id="bakgrunn_2_">
			<rect x="89" fill="#FFFFD2" width="39" height="39"/>
			<rect x="89.5" y="0.5" fill="none" stroke="#8E969E" stroke-miterlimit="10" width="39" height="39"/>
		</g>
		<rect id="rect_2_" x="89" fill="none" width="40" height="40"/>
	</g>
	<g id="cdpBackgroundStyle1">
		<g id="oldBack" display="none">
			<linearGradient id="SVGID_3_" gradientUnits="userSpaceOnUse" x1="44" y1="19.5" x2="83" y2="19.5">
				<stop  offset="0" style="stop-color:#EBEBEB"/>
				<stop  offset="0.619" style="stop-color:#ECECEC"/>
				<stop  offset="0.8417" style="stop-color:#F3F3F3"/>
				<stop  offset="1" style="stop-color:#FFFFFF"/>
			</linearGradient>
			<path display="inline" fill="url(#SVGID_3_)" d="M83,34c0,2.762-2.238,5-5,5H49c-2.762,0-5-2.238-5-5V5c0-2.761,2.238-5,5-5h29
				c2.762,0,5,2.239,5,5V34z"/>
			<path display="inline" fill="none" stroke="#BFBFBF" stroke-miterlimit="10" d="M83.5,34.5c0,2.762-2.238,5-5,5h-29
				c-2.762,0-5-2.238-5-5v-29c0-2.761,2.238-5,5-5h29c2.762,0,5,2.239,5,5V34.5z"/>
		</g>
		<g id="back">
			<linearGradient id="SVGID_4_" gradientUnits="userSpaceOnUse" x1="64" y1="9.0098" x2="64" y2="1.1775">
				<stop  offset="0.2117" style="stop-color:#242729"/>
				<stop  offset="0.7932" style="stop-color:#3A3D3E"/>
			</linearGradient>
			<rect x="45" y="1" fill="url(#SVGID_4_)" width="38" height="38"/>
			<rect x="45" y="1" fill="none" stroke="#B3B3B3" stroke-width="2" stroke-miterlimit="10" width="38" height="38"/>
		</g>
		<rect id="rect_1_" x="44" fill="none" width="40" height="40"/>
	</g>
</g>
</svg>
