<?xml version="1.0" encoding="utf-8"?>
<!-- Generator: Adobe Illustrator 16.0.0, SVG Export Plug-In . SVG Version: 6.00 Build 0)  -->
<!DOCTYPE svg PUBLIC "-//W3C//DTD SVG 1.1//EN" "http://www.w3.org/Graphics/SVG/1.1/DTD/svg11.dtd">
<svg version="1.1" id="svg" xmlns="http://www.w3.org/2000/svg" xmlns:xlink="http://www.w3.org/1999/xlink" x="0px" y="0px"
	 width="115px" height="30px" viewBox="0 0 115 30" enable-background="new 0 0 115 30" xml:space="preserve">
<g id="Layer1">
	<g id="cdpButtonChecked">
		<rect id="rect_4_" y="110" fill="none" width="115" height="30"/>
		<g>
			<g>
				<linearGradient id="SVGID_1_" gradientUnits="userSpaceOnUse" x1="57.5005" y1="139.502" x2="57.5005" y2="110.498">
					<stop  offset="0" style="stop-color:#0B1623"/>
					<stop  offset="0.6198" style="stop-color:#1F3C4C"/>
					<stop  offset="0.6344" style="stop-color:#213E4F"/>
					<stop  offset="0.6442" style="stop-color:#294758"/>
					<stop  offset="0.6524" style="stop-color:#375667"/>
					<stop  offset="0.6563" style="stop-color:#406071"/>
				</linearGradient>
				<path fill="url(#SVGID_1_)" d="M5,139.502c-2.482,0-4.502-2.005-4.502-4.469v-20.066c0-2.464,2.02-4.469,4.502-4.469h105
					c2.482,0,4.502,2.005,4.502,4.469v20.066c0,2.464-2.02,4.469-4.502,4.469H5z"/>
				<g>
					<path d="M110,110.996c2.207,0,4.003,1.781,4.003,3.971v20.066c0,2.189-1.796,3.97-4.003,3.97H5c-2.207,0-4.003-1.78-4.003-3.97
						v-20.066c0-2.189,1.796-3.971,4.003-3.971H110 M110,110H5c-2.75,0-5,2.234-5,4.967v20.066C0,137.766,2.25,140,5,140h105
						c2.75,0,5-2.234,5-4.967v-20.066C115,112.234,112.75,110,110,110L110,110z"/>
				</g>
			</g>
			<g>
				<path fill-rule="evenodd" clip-rule="evenodd" fill="#A5A5A5" d="M15.778,118.32c4.045,0,7.329,3.281,7.329,7.328
					c0,4.045-3.284,7.327-7.329,7.327c-4.046,0-7.327-3.282-7.327-7.327C8.451,121.602,11.732,118.32,15.778,118.32"/>
				<path fill-rule="evenodd" clip-rule="evenodd" fill="#333333" d="M15.778,118.32c4.045,0,7.329,3.281,7.329,7.328
					c0,4.045-3.284,7.327-7.329,7.327c-4.046,0-7.327-3.282-7.327-7.327C8.451,121.602,11.732,118.32,15.778,118.32"/>
			</g>
			<linearGradient id="SVGID_2_" gradientUnits="userSpaceOnUse" x1="11.5327" y1="121.4033" x2="20.0229" y2="129.8935">
				<stop  offset="0" style="stop-color:#1F3C4C"/>
				<stop  offset="0.4337" style="stop-color:#1F3C4C"/>
				<stop  offset="0.6684" style="stop-color:#406071"/>
				<stop  offset="1" style="stop-color:#406071"/>
			</linearGradient>
			<path fill="url(#SVGID_2_)" d="M24.277,125.648c0-4.688-3.813-8.5-8.5-8.5c-4.687,0-8.5,3.813-8.5,8.5c0,4.685,3.813,8.5,8.5,8.5
				C20.465,134.148,24.277,130.333,24.277,125.648z M8.45,125.648c0-4.047,3.282-7.328,7.327-7.328c4.046,0,7.328,3.281,7.328,7.328
				c0,4.045-3.282,7.327-7.328,7.327C11.732,132.976,8.45,129.693,8.45,125.648z"/>
			
				<radialGradient id="SVGID_3_" cx="-16.7485" cy="112.4492" r="8.2844" gradientTransform="matrix(0.8903 0 0 0.8903 30.688 25.5347)" gradientUnits="userSpaceOnUse">
				<stop  offset="0" style="stop-color:#0AE937"/>
				<stop  offset="0.1462" style="stop-color:#0AE033"/>
				<stop  offset="0.3811" style="stop-color:#0AC928"/>
				<stop  offset="0.6754" style="stop-color:#0BA217"/>
				<stop  offset="1" style="stop-color:#0B7000"/>
			</radialGradient>
			<circle fill="url(#SVGID_3_)" cx="15.777" cy="125.648" r="7.376"/>
		</g>
	</g>
	<g id="cdpButtonMouseOver">
		<g>
			<g id="ramme_7_">
				<linearGradient id="SVGID_4_" gradientUnits="userSpaceOnUse" x1="56.9995" y1="75.4834" x2="56.9995" y2="104.1837">
					<stop  offset="0" style="stop-color:#FFFFFF"/>
					<stop  offset="0.4917" style="stop-color:#CCD5DB"/>
					<stop  offset="0.8123" style="stop-color:#AFBEC6"/>
					<stop  offset="1" style="stop-color:#9CA9B0"/>
				</linearGradient>
				<path fill="url(#SVGID_4_)" d="M114,100.5c0,1.933-1.567,3.5-3.5,3.5H3.5c-1.933,0-3.5-1.567-3.5-3.5v-22
					C0,76.567,1.567,75,3.5,75h107c1.933,0,3.5,1.567,3.5,3.5V100.5z"/>
				<path fill="#8C979F" d="M111,75c1.654,0,3,1.346,3,3v22c0,1.654-1.346,3-3,3H4c-1.654,0-3-1.346-3-3V78c0-1.654,1.346-3,3-3H111
					 M111,74H4c-2.2,0-4,1.8-4,4v22c0,2.2,1.8,4,4,4h107c2.2,0,4-1.8,4-4V78C115,75.8,113.2,74,111,74L111,74z"/>
			</g>
			<linearGradient id="SVGID_5_" gradientUnits="userSpaceOnUse" x1="57.3003" y1="77.2412" x2="57.3003" y2="89.4236">
				<stop  offset="0" style="stop-color:#FFFFFF"/>
				<stop  offset="1" style="stop-color:#E3E3E2"/>
			</linearGradient>
			<path fill="url(#SVGID_5_)" d="M113.25,84.186v-5.57c0-1.654-1.346-3-3-3H4.351c-1.654,0-3,1.346-3,3v5.57H113.25z"/>
			<g>
				<path fill="#B6E1F9" d="M4.47,102C3.096,102,2,100.944,2,99.62V78.379C2,77.056,3.096,76,4.47,76h106.062
					c1.373,0,2.469,1.056,2.469,2.379V99.62c0,1.324-1.096,2.38-2.469,2.38H4 M4.47,103h106.062c1.916,0,3.469-1.513,3.469-3.38
					V78.379c0-1.866-1.553-3.379-3.469-3.379H4.47C2.554,75,1,76.513,1,78.379V99.62C1,101.487,2.554,103,4.47,103L4.47,103z"/>
			</g>
		</g>
		<rect y="74" fill="none" width="115" height="30"/>
	</g>
	<g id="cdpButtonPressed">
		<g>
			<g id="ramme_4_">
				<linearGradient id="SVGID_6_" gradientUnits="userSpaceOnUse" x1="56.9995" y1="38.4834" x2="56.9995" y2="67.1837">
					<stop  offset="0" style="stop-color:#969596"/>
					<stop  offset="0.0113" style="stop-color:#9E9D9E"/>
					<stop  offset="0.0294" style="stop-color:#B5B4B5"/>
					<stop  offset="0.0517" style="stop-color:#DADADA"/>
					<stop  offset="0.0708" style="stop-color:#FFFFFF"/>
					<stop  offset="0.8123" style="stop-color:#A5B2BA"/>
					<stop  offset="1" style="stop-color:#879298"/>
				</linearGradient>
				<path fill="url(#SVGID_6_)" d="M114,63.5c0,1.933-1.567,3.5-3.5,3.5H3.5C1.567,67,0,65.433,0,63.5v-22C0,39.567,1.567,38,3.5,38
					h107c1.933,0,3.5,1.567,3.5,3.5V63.5z"/>
				<path fill="#8C979F" d="M111,38c1.654,0,3,1.346,3,3v22c0,1.654-1.346,3-3,3H4c-1.654,0-3-1.346-3-3V41c0-1.654,1.346-3,3-3H111
					 M111,37H4c-2.2,0-4,1.8-4,4v22c0,2.2,1.8,4,4,4h107c2.2,0,4-1.8,4-4V41C115,38.8,113.2,37,111,37L111,37z"/>
			</g>
			<linearGradient id="SVGID_7_" gradientUnits="userSpaceOnUse" x1="51.3599" y1="76.3848" x2="58.0792" y2="49.7005">
				<stop  offset="0" style="stop-color:#FFFFFF"/>
				<stop  offset="0.1881" style="stop-color:#FBFCFC"/>
				<stop  offset="0.3824" style="stop-color:#EEF2F3"/>
				<stop  offset="0.5794" style="stop-color:#DAE1E5"/>
				<stop  offset="0.7772" style="stop-color:#BDC9D0"/>
				<stop  offset="0.8585" style="stop-color:#AFBEC6"/>
				<stop  offset="1" style="stop-color:#5E666A"/>
			</linearGradient>
			<path fill="url(#SVGID_7_)" d="M4.47,65C3.096,65,2,63.944,2,62.62V41.379C2,40.056,3.096,39,4.47,39h106.062
				c1.373,0,2.469,1.056,2.469,2.379V62.62c0,1.324-1.096,2.38-2.469,2.38H4 M4.47,66h106.062c1.916,0,3.469-1.513,3.469-3.38
				V41.379c0-1.866-1.553-3.379-3.469-3.379H4.47C2.554,38,1,39.513,1,41.379V62.62C1,64.487,2.554,66,4.47,66L4.47,66z"/>
			<g display="none">
				<g display="inline">
					<path fill-rule="evenodd" clip-rule="evenodd" fill="#A5A5A5" d="M15.778,45.172c4.045,0,7.329,3.281,7.329,7.328
						c0,4.045-3.284,7.327-7.329,7.327c-4.046,0-7.327-3.282-7.327-7.327C8.451,48.453,11.732,45.172,15.778,45.172"/>
					<path fill-rule="evenodd" clip-rule="evenodd" fill="#333333" d="M15.778,45.172c4.045,0,7.329,3.281,7.329,7.328
						c0,4.045-3.284,7.327-7.329,7.327c-4.046,0-7.327-3.282-7.327-7.327C8.451,48.453,11.732,45.172,15.778,45.172"/>
				</g>
				<linearGradient id="SVGID_8_" gradientUnits="userSpaceOnUse" x1="11.5327" y1="48.2549" x2="20.0238" y2="56.746">
					<stop  offset="0" style="stop-color:#D1D1D1"/>
					<stop  offset="0.4337" style="stop-color:#D1D1D1"/>
					<stop  offset="0.6684" style="stop-color:#EAEAEA"/>
					<stop  offset="1" style="stop-color:#EAEAEA"/>
				</linearGradient>
				<path display="inline" fill="url(#SVGID_8_)" d="M24.277,52.5c0-4.688-3.813-8.5-8.5-8.5c-4.687,0-8.5,3.813-8.5,8.5
					c0,4.685,3.813,8.5,8.5,8.5C20.465,61,24.277,57.185,24.277,52.5z M8.45,52.5c0-4.047,3.282-7.328,7.327-7.328
					c4.046,0,7.328,3.281,7.328,7.328c0,4.045-3.282,7.327-7.328,7.327C11.732,59.827,8.45,56.545,8.45,52.5z"/>
				
					<radialGradient id="SVGID_9_" cx="52.4111" cy="35.8271" r="4.1235" gradientTransform="matrix(1.7887 0 0 1.7886 -77.9707 -11.5801)" gradientUnits="userSpaceOnUse">
					<stop  offset="0" style="stop-color:#F2F2F2"/>
					<stop  offset="0.2216" style="stop-color:#EEEEEE"/>
					<stop  offset="0.4549" style="stop-color:#E1E1E1"/>
					<stop  offset="0.6935" style="stop-color:#CCCCCC"/>
					<stop  offset="0.9344" style="stop-color:#AFAFAF"/>
					<stop  offset="1" style="stop-color:#A6A6A6"/>
				</radialGradient>
				<circle display="inline" fill="url(#SVGID_9_)" cx="15.777" cy="52.5" r="7.375"/>
			</g>
			<g>
				<linearGradient id="SVGID_10_" gradientUnits="userSpaceOnUse" x1="11.5327" y1="48.2549" x2="20.0238" y2="56.746">
					<stop  offset="0" style="stop-color:#D1D1D1"/>
					<stop  offset="0.4337" style="stop-color:#D1D1D1"/>
					<stop  offset="0.6684" style="stop-color:#EAEAEA"/>
					<stop  offset="1" style="stop-color:#EAEAEA"/>
				</linearGradient>
				<path opacity="0.8" fill="url(#SVGID_10_)" d="M24.277,52.5c0-4.688-3.813-8.5-8.5-8.5c-4.687,0-8.5,3.813-8.5,8.5
					c0,4.685,3.813,8.5,8.5,8.5C20.465,61,24.277,57.185,24.277,52.5z M8.45,52.5c0-4.047,3.282-7.328,7.327-7.328
					c4.046,0,7.328,3.281,7.328,7.328c0,4.045-3.282,7.327-7.328,7.327C11.732,59.827,8.45,56.545,8.45,52.5z"/>
				
					<radialGradient id="SVGID_11_" cx="52.4111" cy="35.8271" r="4.1235" gradientTransform="matrix(1.7887 0 0 1.7886 -77.9707 -11.5801)" gradientUnits="userSpaceOnUse">
					<stop  offset="0" style="stop-color:#F2F2F2"/>
					<stop  offset="0.2216" style="stop-color:#EEEEEE"/>
					<stop  offset="0.4549" style="stop-color:#E1E1E1"/>
					<stop  offset="0.6935" style="stop-color:#CCCCCC"/>
					<stop  offset="0.9344" style="stop-color:#AFAFAF"/>
					<stop  offset="1" style="stop-color:#A6A6A6"/>
				</radialGradient>
				<circle opacity="0.6" fill="url(#SVGID_11_)" cx="15.777" cy="52.5" r="7.375"/>
			</g>
		</g>
		<rect y="37" fill="none" width="115" height="30"/>
	</g>
	<g id="cdpButton">
		<rect id="rect_2_" fill="none" width="115" height="30"/>
		<g>
			<linearGradient id="SVGID_12_" gradientUnits="userSpaceOnUse" x1="57.5005" y1="29.502" x2="57.5005" y2="0.499">
				<stop  offset="0" style="stop-color:#0B1623"/>
				<stop  offset="0.6198" style="stop-color:#1F3C4C"/>
				<stop  offset="0.6344" style="stop-color:#213E4F"/>
				<stop  offset="0.6442" style="stop-color:#294758"/>
				<stop  offset="0.6524" style="stop-color:#375667"/>
				<stop  offset="0.6563" style="stop-color:#406071"/>
			</linearGradient>
			<path fill="url(#SVGID_12_)" d="M5,29.502c-2.482,0-4.502-2.005-4.502-4.469V4.967c0-2.464,2.02-4.468,4.502-4.468h105
				c2.482,0,4.502,2.004,4.502,4.468v20.066c0,2.464-2.02,4.469-4.502,4.469H5z"/>
			<g>
				<path d="M110,0.997c2.207,0,4.003,1.781,4.003,3.97v20.066c0,2.189-1.796,3.97-4.003,3.97H5c-2.207,0-4.003-1.78-4.003-3.97
					V4.967c0-2.189,1.796-3.97,4.003-3.97H110 M110,0H5C2.25,0,0,2.235,0,4.967v20.066C0,27.766,2.25,30,5,30h105
					c2.75,0,5-2.234,5-4.967V4.967C115,2.235,112.75,0,110,0L110,0z"/>
			</g>
		</g>
		<g>
			<g>
				<path fill-rule="evenodd" clip-rule="evenodd" fill="#A5A5A5" d="M15.778,8.32c4.045,0,7.329,3.281,7.329,7.328
					c0,4.045-3.284,7.327-7.329,7.327c-4.046,0-7.327-3.282-7.327-7.327C8.451,11.601,11.732,8.32,15.778,8.32"/>
				<path fill-rule="evenodd" clip-rule="evenodd" fill="#333333" d="M15.778,8.32c4.045,0,7.329,3.281,7.329,7.328
					c0,4.045-3.284,7.327-7.329,7.327c-4.046,0-7.327-3.282-7.327-7.327C8.451,11.601,11.732,8.32,15.778,8.32"/>
			</g>
			<linearGradient id="SVGID_13_" gradientUnits="userSpaceOnUse" x1="11.5327" y1="11.4028" x2="20.0234" y2="19.8935">
				<stop  offset="0" style="stop-color:#1F3C4C"/>
				<stop  offset="0.4337" style="stop-color:#1F3C4C"/>
				<stop  offset="0.6684" style="stop-color:#406071"/>
				<stop  offset="1" style="stop-color:#406071"/>
			</linearGradient>
			<path fill="url(#SVGID_13_)" d="M24.277,15.648c0-4.687-3.813-8.5-8.5-8.5c-4.687,0-8.5,3.813-8.5,8.5c0,4.685,3.813,8.5,8.5,8.5
				C20.465,24.148,24.277,20.333,24.277,15.648z M8.45,15.648c0-4.047,3.282-7.328,7.327-7.328c4.046,0,7.328,3.281,7.328,7.328
				c0,4.045-3.282,7.327-7.328,7.327C11.732,22.976,8.45,19.693,8.45,15.648z"/>
			
				<radialGradient id="SVGID_14_" cx="52.4111" cy="15.2236" r="4.1235" gradientTransform="matrix(1.7887 0 0 1.7886 -77.9707 -11.5801)" gradientUnits="userSpaceOnUse">
				<stop  offset="0" style="stop-color:#BFBFBF"/>
				<stop  offset="0.1544" style="stop-color:#BBBBBB"/>
				<stop  offset="0.317" style="stop-color:#AEAEAE"/>
				<stop  offset="0.4834" style="stop-color:#999999"/>
				<stop  offset="0.6525" style="stop-color:#7C7C7C"/>
				<stop  offset="0.8235" style="stop-color:#565656"/>
				<stop  offset="0.9939" style="stop-color:#282828"/>
				<stop  offset="1" style="stop-color:#262626"/>
			</radialGradient>
			<circle fill="url(#SVGID_14_)" cx="15.777" cy="15.648" r="7.375"/>
		</g>
	</g>
	<text id="cdpText" transform="matrix(1 0 0 1 41.8994 19.2422)" fill="#FFFFFF" font-family="'ArialMT'" font-size="14">Stop</text>
	<rect id="cdpBorderMarginBottomRight" x="111" y="26" fill="none" width="4" height="4"/>
	<rect id="cdpBorderMarginTopLeft" fill="none" width="24.5" height="24.5"/>
	<text id="text_1_" transform="matrix(1 0 0 1 41.8994 129.2422)" fill="#FFFFFF" font-family="'ArialMT'" font-size="14">Stop</text>
</g>
<g id="Styles">
	<g id="cdpButtonStyle1">
		<rect id="rect_1_" x="134" fill="none" width="115" height="30"/>
		<g>
			<linearGradient id="SVGID_15_" gradientUnits="userSpaceOnUse" x1="191.5" y1="29.502" x2="191.5" y2="0.4985">
				<stop  offset="0" style="stop-color:#0B1623"/>
				<stop  offset="0.6198" style="stop-color:#1F3C4C"/>
				<stop  offset="0.6344" style="stop-color:#213E4F"/>
				<stop  offset="0.6442" style="stop-color:#294758"/>
				<stop  offset="0.6524" style="stop-color:#375667"/>
				<stop  offset="0.6563" style="stop-color:#406071"/>
			</linearGradient>
			<path fill="url(#SVGID_15_)" d="M139,29.502c-2.482,0-4.502-2.005-4.502-4.469V4.967c0-2.464,2.02-4.469,4.502-4.469h105
				c2.482,0,4.502,2.005,4.502,4.469v20.066c0,2.464-2.02,4.469-4.502,4.469H139z"/>
			<g>
				<path d="M244,0.996c2.207,0,4.003,1.781,4.003,3.971v20.066c0,2.189-1.796,3.97-4.003,3.97H139c-2.207,0-4.003-1.78-4.003-3.97
					V4.967c0-2.189,1.796-3.971,4.003-3.971H244 M244,0H139c-2.75,0-5,2.234-5,4.967v20.066c0,2.732,2.25,4.967,5,4.967h105
					c2.75,0,5-2.234,5-4.967V4.967C249,2.234,246.75,0,244,0L244,0z"/>
			</g>
		</g>
		<g>
			<g>
				<path fill-rule="evenodd" clip-rule="evenodd" fill="#A5A5A5" d="M149.778,8.32c4.045,0,7.329,3.281,7.329,7.328
					c0,4.045-3.284,7.327-7.329,7.327c-4.046,0-7.327-3.282-7.327-7.327C142.451,11.602,145.732,8.32,149.778,8.32"/>
				<path fill-rule="evenodd" clip-rule="evenodd" fill="#333333" d="M149.778,8.32c4.045,0,7.329,3.281,7.329,7.328
					c0,4.045-3.284,7.327-7.329,7.327c-4.046,0-7.327-3.282-7.327-7.327C142.451,11.602,145.732,8.32,149.778,8.32"/>
			</g>
			<linearGradient id="SVGID_16_" gradientUnits="userSpaceOnUse" x1="145.5322" y1="11.4028" x2="154.0229" y2="19.8935">
				<stop  offset="0" style="stop-color:#1F3C4C"/>
				<stop  offset="0.4337" style="stop-color:#1F3C4C"/>
				<stop  offset="0.6684" style="stop-color:#406071"/>
				<stop  offset="1" style="stop-color:#406071"/>
			</linearGradient>
			<path fill="url(#SVGID_16_)" d="M158.277,15.648c0-4.688-3.813-8.5-8.5-8.5c-4.687,0-8.5,3.813-8.5,8.5
				c0,4.685,3.813,8.5,8.5,8.5C154.465,24.148,158.277,20.333,158.277,15.648z M142.45,15.648c0-4.047,3.282-7.328,7.327-7.328
				c4.046,0,7.328,3.281,7.328,7.328c0,4.045-3.282,7.327-7.328,7.327C145.732,22.976,142.45,19.693,142.45,15.648z"/>
			
				<radialGradient id="SVGID_17_" cx="133.7627" cy="-11.105" r="8.2849" gradientTransform="matrix(0.8903 0 0 0.8903 30.688 25.5347)" gradientUnits="userSpaceOnUse">
				<stop  offset="0" style="stop-color:#0AE937"/>
				<stop  offset="0.1462" style="stop-color:#0AE033"/>
				<stop  offset="0.3811" style="stop-color:#0AC928"/>
				<stop  offset="0.6754" style="stop-color:#0BA217"/>
				<stop  offset="1" style="stop-color:#0B7000"/>
			</radialGradient>
			<circle fill="url(#SVGID_17_)" cx="149.777" cy="15.648" r="7.376"/>
		</g>
	</g>
	<text id="text_2_" transform="matrix(1 0 0 1 175.7998 19.9082)" fill="#FFFFFF" font-family="'ArialMT'" font-size="14">Stop</text>
</g>
</svg>
