<?xml version="1.0" encoding="utf-8"?>
<!-- Generator: Adobe Illustrator 16.0.0, SVG Export Plug-In . SVG Version: 6.00 Build 0)  -->
<!DOCTYPE svg PUBLIC "-//W3C//DTD SVG 1.1//EN" "http://www.w3.org/Graphics/SVG/1.1/DTD/svg11.dtd">
<svg version="1.1" id="svg" xmlns="http://www.w3.org/2000/svg" xmlns:xlink="http://www.w3.org/1999/xlink" x="0px" y="0px"
	 width="30px" height="30px" viewBox="0 0 30 30" enable-background="new 0 0 30 30" xml:space="preserve">
<g id="background">
	<g display="none">
		<linearGradient id="SVGID_1_" gradientUnits="userSpaceOnUse" x1="-5.5" y1="34.5" x2="82.5" y2="34.5">
			<stop  offset="0" style="stop-color:#EBEBEB"/>
			<stop  offset="0.619" style="stop-color:#ECECEC"/>
			<stop  offset="0.8417" style="stop-color:#F3F3F3"/>
			<stop  offset="1" style="stop-color:#FFFFFF"/>
		</linearGradient>
		<path display="inline" fill="url(#SVGID_1_)" d="M82.5,70c0,2.762-2.238,5-5,5h-78c-2.761,0-5-2.238-5-5V-1c0-2.761,2.239-5,5-5
			h78c2.762,0,5,2.239,5,5V70z"/>
		<path display="inline" fill="none" stroke="#BFBFBF" stroke-miterlimit="10" d="M83,69.5c0,2.762-2.238,5-5,5H0
			c-2.761,0-5-2.238-5-5v-71c0-2.761,2.239-5,5-5h78c2.762,0,5,2.239,5,5V69.5z"/>
	</g>
	<g id="bakgrunn_2_">
		<linearGradient id="SVGID_2_" gradientUnits="userSpaceOnUse" x1="38.5" y1="11.0732" x2="38.5" y2="-5.6221">
			<stop  offset="0" style="stop-color:#434648"/>
			<stop  offset="0.5654" style="stop-color:#45484A"/>
			<stop  offset="0.7691" style="stop-color:#4C4E4F"/>
			<stop  offset="0.9137" style="stop-color:#575959"/>
			<stop  offset="1" style="stop-color:#636363"/>
		</linearGradient>
		<path fill="url(#SVGID_2_)" d="M82.5,70c0,2.762-2.238,5-5,5h-78c-2.761,0-5-2.238-5-5V-1c0-2.761,2.239-5,5-5h78
			c2.762,0,5,2.239,5,5V70z"/>
		<path fill="none" stroke="#8E969E" stroke-miterlimit="10" d="M83,69.5c0,2.762-2.238,5-5,5H0c-2.761,0-5-2.238-5-5v-71
			c0-2.761,2.239-5,5-5h78c2.762,0,5,2.239,5,5V69.5z"/>
	</g>
	<rect id="rect" x="-6" y="-7" fill="none" width="90.75" height="83.502"/>
</g>
<g id="Layer1">
	<g id="cdpButton">
		<rect fill="none" width="30" height="30"/>
		<g>
			<linearGradient id="SVGID_3_" gradientUnits="userSpaceOnUse" x1="14.9995" y1="0" x2="14.9995" y2="30.0005">
				<stop  offset="0" style="stop-color:#2D2D2E"/>
				<stop  offset="1" style="stop-color:#585C5E"/>
			</linearGradient>
			<circle fill="url(#SVGID_3_)" cx="15" cy="15" r="15"/>
			<circle fill="#363C40" cx="15" cy="15" r="12.5"/>
			<circle display="none" opacity="0.8" fill="#FFFFFF" cx="15" cy="15" r="12.5"/>
			<circle display="none" opacity="0" fill="#1D1D1B" cx="15" cy="15" r="12.5"/>
		</g>
	</g>
	<g id="cdpButtonChecked">
		<rect fill="none" width="30" height="30"/>
		<g>
			<linearGradient id="SVGID_4_" gradientUnits="userSpaceOnUse" x1="14.9995" y1="0" x2="14.9995" y2="30.0005">
				<stop  offset="0" style="stop-color:#2D2D2E"/>
				<stop  offset="1" style="stop-color:#585C5E"/>
			</linearGradient>
			<circle fill="url(#SVGID_4_)" cx="15" cy="15" r="15"/>
			<circle fill="#363C40" cx="15" cy="15" r="12.5"/>
			<path display="none" fill-rule="evenodd" clip-rule="evenodd" fill="#333333" d="M15,2.5c6.903,0,12.5,5.597,12.5,12.5
				S21.903,27.5,15,27.5S2.5,21.903,2.5,15S8.097,2.5,15,2.5"/>
			<linearGradient id="SVGID_5_" gradientUnits="userSpaceOnUse" x1="15.0005" y1="27.5" x2="15.0005" y2="2.5005">
				<stop  offset="0" style="stop-color:#292929"/>
				<stop  offset="1" style="stop-color:#424243"/>
			</linearGradient>
			<circle display="none" fill="url(#SVGID_5_)" cx="15" cy="15" r="12.5"/>
			<linearGradient id="SVGID_6_" gradientUnits="userSpaceOnUse" x1="2.5" y1="15" x2="27.5" y2="15">
				<stop  offset="0" style="stop-color:#585C5E"/>
				<stop  offset="1" style="stop-color:#2D2D2E"/>
			</linearGradient>
			<circle display="none" opacity="0.1" fill="url(#SVGID_6_)" cx="15" cy="15" r="12.5"/>
			<circle fill="none" cx="15" cy="15" r="8"/>
			
				<radialGradient id="SVGID_7_" cx="-12.3843" cy="-11.8315" r="8.2847" gradientTransform="matrix(0.9656 0 0 0.9656 26.9583 26.4253)" gradientUnits="userSpaceOnUse">
				<stop  offset="0" style="stop-color:#0AE937"/>
				<stop  offset="0.1462" style="stop-color:#0AE033"/>
				<stop  offset="0.3811" style="stop-color:#0AC928"/>
				<stop  offset="0.6754" style="stop-color:#0BA217"/>
				<stop  offset="1" style="stop-color:#0B7000"/>
			</radialGradient>
			<circle fill="url(#SVGID_7_)" cx="15" cy="15" r="8"/>
		</g>
	</g>
	<text id="cdpText" transform="matrix(1 0 0 1 40.75 19.4082)" fill="#FFFFFF" font-family="'ArialMT'" font-size="14">Stop</text>
</g>
<g id="Styles">
	<g id="cdpButtonCheckedStyle1">
		<rect y="36.75" fill="none" width="30" height="30"/>
		<g>
			<linearGradient id="SVGID_8_" gradientUnits="userSpaceOnUse" x1="14.9995" y1="36.75" x2="14.9995" y2="66.75">
				<stop  offset="0" style="stop-color:#2D2D2E"/>
				<stop  offset="1" style="stop-color:#585C5E"/>
			</linearGradient>
			<circle fill="url(#SVGID_8_)" cx="15" cy="51.75" r="15"/>
			<circle fill="#363C40" cx="15" cy="51.75" r="12.5"/>
			<circle display="none" opacity="0.8" fill="#FFFFFF" cx="15" cy="51.75" r="12.5"/>
			
				<radialGradient id="SVGID_9_" cx="38.252" cy="23.4082" r="4.1235" gradientTransform="matrix(1.94 0 0 1.9403 -59.21 6.3293)" gradientUnits="userSpaceOnUse">
				<stop  offset="0" style="stop-color:#80D3F1"/>
				<stop  offset="0.0103" style="stop-color:#7ED2F0"/>
				<stop  offset="0.2384" style="stop-color:#51B7D7"/>
				<stop  offset="0.4577" style="stop-color:#2EA2C4"/>
				<stop  offset="0.6633" style="stop-color:#1592B6"/>
				<stop  offset="0.8497" style="stop-color:#0589AE"/>
				<stop  offset="1" style="stop-color:#0086AB"/>
			</radialGradient>
			<circle display="none" fill="url(#SVGID_9_)" cx="15" cy="51.75" r="8"/>
			
				<radialGradient id="SVGID_10_" cx="-12.3843" cy="26.2266" r="8.2849" gradientTransform="matrix(0.9656 0 0 0.9656 26.9583 26.4253)" gradientUnits="userSpaceOnUse">
				<stop  offset="0" style="stop-color:#03C3F3"/>
				<stop  offset="0.1621" style="stop-color:#03BBEA"/>
				<stop  offset="0.4225" style="stop-color:#02A4D3"/>
				<stop  offset="0.7468" style="stop-color:#027FAD"/>
				<stop  offset="1" style="stop-color:#015D8A"/>
			</radialGradient>
			<circle fill="url(#SVGID_10_)" cx="15" cy="51.75" r="8"/>
		</g>
	</g>
</g>
</svg>
