<?xml version="1.0" encoding="UTF-8" standalone="no"?>
<!DOCTYPE svg PUBLIC "-//W3C//DTD SVG 1.1//EN" "http://www.w3.org/Graphics/SVG/1.1/DTD/svg11.dtd">
<!-- Generated by Microsoft Visio, SVG Export latch beam.svg Latch Beam -->
<svg xmlns="http://www.w3.org/2000/svg" xmlns:xlink="http://www.w3.org/1999/xlink" xmlns:ev="http://www.w3.org/2001/xml-events"
		xmlns:v="http://schemas.microsoft.com/visio/2003/SVGExtensions/" width="8.26772in" height="11.6929in"
		viewBox="0 0 595.276 841.89" xml:space="preserve" color-interpolation-filters="sRGB" class="st5">
	<v:documentProperties v:langID="1044" v:metric="true" v:viewMarkup="false">
		<v:userDefs>
			<v:ud v:nameU="msvNoAutoConnect" v:val="VT0(1):26"/>
			<v:ud v:nameU="visTLShowProps" v:prompt="" v:val="VT0(0):26"/>
		</v:userDefs>
	</v:documentProperties>

	<style type="text/css">
	<![CDATA[
		.st1 {fill:#ffc000}
		.st2 {stroke:#000000;stroke-linecap:round;stroke-linejoin:round;stroke-width:0.25}
		.st3 {fill:#ffc000;stroke:#000000;stroke-linecap:round;stroke-linejoin:round;stroke-width:0.25}
		.st4 {fill:#7f6000;stroke:#000000;stroke-linecap:round;stroke-linejoin:round;stroke-width:0.25}
		.st5 {fill:none;fill-rule:evenodd;font-size:12px;overflow:visible;stroke-linecap:square;stroke-miterlimit:3}
	]]>
	</style>

	<g v:mID="61" v:index="8" v:groupContext="foregroundPage">
		<v:userDefs>
			<v:ud v:nameU="visNavType" v:val="VT0(1):26"/>
		</v:userDefs>
		<title>Latch Beam</title>
		<v:pageProperties v:drawingScale="0.0393701" v:pageScale="0.0393701" v:drawingUnits="24" v:shadowOffsetX="8.50394"
				v:shadowOffsetY="-8.50394"/>
		<g id="group1014-1" transform="translate(273.839,-402.854)" v:mID="1014" v:groupContext="group">
			<v:userDefs>
				<v:ud v:nameU="visNavOrder" v:val="VT0(1000):26"/>
			</v:userDefs>
			<title>Sheet.1014</title>
			<g id="group1015-2" v:mID="1015" v:groupContext="group">
				<v:userDefs>
					<v:ud v:nameU="visNavOrder" v:val="VT0(864000):26"/>
				</v:userDefs>
				<title>Sheet.1015</title>
				<g id="shape1016-3" v:mID="1016" v:groupContext="shape" transform="translate(0,-13.8282)">
					<title>Sheet.1016</title>
					<v:userDefs>
						<v:ud v:nameU="visNavOrder" v:val="VT0(842000):26"/>
					</v:userDefs>
					<path d="M44.65 841.22 L45.33 840.63 L32.57 833.91 L29.91 832.51 L26.9 830.92 A10.2509 5.69496 180 0 0 24.28
								 830.28 L22.82 830.11 L17.37 829.49 L1.73 827.71 L0.93 828.41 L0 829.22 L11.26 836.03 L13.71 837.52
								 L16.16 838.99 A10.2509 5.69496 -180 0 0 19.14 839.87 L22.66 840.16 L27.13 840.52 L43.88 841.89 L44.65
								 841.22 Z" class="st1"/>
					<path d="M44.65 841.22 L45.33 840.63 L32.57 833.91 L29.91 832.51 L26.9 830.92 A10.2509 5.69496 180 0 0 24.28
								 830.28 L22.82 830.11 L17.37 829.49 L1.73 827.71 L0.93 828.41 L0 829.22 L11.26 836.03 L13.71 837.52
								 L16.16 838.99 A10.2509 5.69496 -180 0 0 19.14 839.87 L22.66 840.16 L27.13 840.52 L43.88 841.89 L44.65
								 841.22" class="st2"/>
					<path d="M24.28 830.28 A10.2509 5.69496 -180 0 0 22.82 830.11" class="st2"/>
				</g>
				<g id="shape1017-7" v:mID="1017" v:groupContext="shape" transform="translate(0.0110269,-8.40501)">
					<title>Sheet.1017</title>
					<v:userDefs>
						<v:ud v:nameU="visNavOrder" v:val="VT0(861000):26"/>
					</v:userDefs>
					<path d="M19.13 834.4 L19.13 837.14 L19.13 834.4 ZM16.14 833.53 L16.14 836.26 L16.14 833.53 ZM43.87 836.42 L36.14
								 835.79 L22.65 834.69 L19.13 834.4 A10.2509 5.69496 0 0 1 16.14 833.53 L13.71 832.06 L13.71 832.05
								 L7.66 828.39 L1.64 824.75 L1.64 824.75 L0.01 823.77 L0.01 829.21 L0 829.22 L0.01 829.23 L0.01 829.24
								 L0.02 829.23 L13.7 837.51 L13.7 837.52 L16.14 838.99 A10.2509 5.69496 -180 0 0 19.13 839.87 L22.65
								 840.16 L43.87 841.89 L45.32 840.63 L45.32 835.16 L43.87 836.42 Z" class="st3"/>
				</g>
				<g id="shape1018-9" v:mID="1018" v:groupContext="shape" transform="translate(885.772,828.018) rotate(90)">
					<title>Sheet.1018</title>
					<v:userDefs>
						<v:ud v:nameU="visNavOrder" v:val="VT0(862000):26"/>
					</v:userDefs>
					<path d="M0 841.89 L5.47 841.89" class="st2"/>
				</g>
				<g id="shape1019-12" v:mID="1019" v:groupContext="shape" transform="translate(34.6067,0)">
					<title>Sheet.1019</title>
					<v:userDefs>
						<v:ud v:nameU="visNavOrder" v:val="VT0(863000):26"/>
					</v:userDefs>
					<path d="M0 841.89 L0 841.89" class="st2"/>
				</g>
			</g>
			<g id="group1020-15" transform="translate(39.6434,-13.8719)" v:mID="1020" v:groupContext="group">
				<v:userDefs>
					<v:ud v:nameU="visNavOrder" v:val="VT0(865000):26"/>
				</v:userDefs>
				<title>Sheet.1020</title>
				<g id="shape1021-16" v:mID="1021" v:groupContext="shape">
					<title>Sheet.1021</title>
					<v:userDefs>
						<v:ud v:nameU="visNavOrder" v:val="VT0(739000):26"/>
					</v:userDefs>
					<path d="M4.37 838.98 L4.37 839.45 a1.55082 0.861566 0 1 1 -3.06667 0.255844 a1.55082 0.861566 0 0 1 -2.44249E-15
								 -0.222957 L1.31 838.98 A2.84317 1.57954 -180 1 0 4.37 838.98 Z" class="st3"/>
				</g>
				<g id="shape1022-18" v:mID="1022" v:groupContext="shape" transform="translate(1.30539,-10.0516)">
					<title>Sheet.1022</title>
					<v:userDefs>
						<v:ud v:nameU="visNavOrder" v:val="VT0(741000):26"/>
					</v:userDefs>
					<path d="M3.07 841.17 a1.55082 0.861566 -180 1 0 -3.06667 -0.255846 L0 841.14 a1.55082 0.861566 -180 0 0 3.06667
								 0.0328881 Z" class="st4"/>
				</g>
				<g id="shape1023-20" v:mID="1023" v:groupContext="shape" transform="translate(1.29235,-1.43594)">
					<title>Sheet.1023</title>
					<v:userDefs>
						<v:ud v:nameU="visNavOrder" v:val="VT0(743000):26"/>
					</v:userDefs>
					<path d="M3.08 840.41 L3.08 832.56 a1.55082 0.861566 0 0 1 -3.06667 -0.0328872 L0.01 840.42 L0.01 840.92 a1.55082
								 0.861566 -180 0 0 9.07807E-12 0.222957 a1.55082 0.861566 -180 1 0 3.06667 -0.255846 L3.08 840.41
								 ZM0.01 832.52 L0.01 832.3 a1.55082 0.861566 -180 0 0 -1.31006E-14 0.222958 Z" class="st3"/>
				</g>
			</g>
			<g id="group1024-22" transform="translate(-4.54636E-14,-24.9741)" v:mID="1024" v:groupContext="group">
				<v:userDefs>
					<v:ud v:nameU="visNavOrder" v:val="VT0(866000):26"/>
				</v:userDefs>
				<title>Sheet.1024</title>
				<g id="shape1025-23" v:mID="1025" v:groupContext="shape">
					<title>Sheet.1025</title>
					<v:userDefs>
						<v:ud v:nameU="visNavOrder" v:val="VT0(739000):26"/>
					</v:userDefs>
					<path d="M4.37 838.98 L4.37 839.45 a1.55082 0.861566 0 1 1 -3.06667 0.255844 a1.55082 0.861566 0 0 1 -2.44249E-15
								 -0.222957 L1.31 838.98 A2.84317 1.57954 -180 1 0 4.37 838.98 Z" class="st3"/>
				</g>
				<g id="shape1026-25" v:mID="1026" v:groupContext="shape" transform="translate(1.30539,-10.0516)">
					<title>Sheet.1026</title>
					<v:userDefs>
						<v:ud v:nameU="visNavOrder" v:val="VT0(741000):26"/>
					</v:userDefs>
					<path d="M3.07 841.17 a1.55082 0.861566 -180 1 0 -3.06667 -0.255846 L0 841.14 a1.55082 0.861566 -180 0 0 3.06667
								 0.0328881 Z" class="st4"/>
				</g>
				<g id="shape1027-27" v:mID="1027" v:groupContext="shape" transform="translate(1.29235,-1.43594)">
					<title>Sheet.1027</title>
					<v:userDefs>
						<v:ud v:nameU="visNavOrder" v:val="VT0(743000):26"/>
					</v:userDefs>
					<path d="M3.08 840.41 L3.08 832.56 a1.55082 0.861566 0 0 1 -3.06667 -0.0328872 L0.01 840.42 L0.01 840.92 a1.55082
								 0.861566 -180 0 0 9.07807E-12 0.222957 a1.55082 0.861566 -180 1 0 3.06667 -0.255846 L3.08 840.41
								 ZM0.01 832.52 L0.01 832.3 a1.55082 0.861566 -180 0 0 -1.31006E-14 0.222958 Z" class="st3"/>
				</g>
			</g>
		</g>
	</g>
</svg>
