<?xml version="1.0" encoding="utf-8"?>
<!-- Generator: Adobe Illustrator 15.0.1, SVG Export Plug-In . SVG Version: 6.00 Build 0)  -->
<!DOCTYPE svg PUBLIC "-//W3C//DTD SVG 1.1//EN" "http://www.w3.org/Graphics/SVG/1.1/DTD/svg11.dtd">
<svg version="1.1" id="svg" xmlns="http://www.w3.org/2000/svg" xmlns:xlink="http://www.w3.org/1999/xlink" x="0px" y="0px"
	 width="64px" height="64px" viewBox="0 0 64 64" enable-background="new 0 0 64 64" xml:space="preserve">
<g id="Layer1">
	<g id="cdpPicture" transform="translate(0.5453906,-0.7268238)" inkscape:label="Layer 1" inkscape:groupmode="layer">
		<g id="g7359_1_" transform="matrix(0.2133333,0,0,0.2133333,435.0838,313.44288)">
			<g id="g7202_1_" transform="matrix(0.8598167,0,0,0.8598167,428.32231,-379.91446)">
				
					<linearGradient id="path7204_2_" gradientUnits="userSpaceOnUse" x1="1786.6431" y1="-1393.6558" x2="1900.1987" y2="-1393.6558" gradientTransform="matrix(0 0.5636 0.5636 0 -1913.1738 -2269.9473)">
					<stop  offset="0" style="stop-color:#F4F4F4"/>
					<stop  offset="1" style="stop-color:#262626"/>
				</linearGradient>
				
					<path id="path7204_1_" sodipodi:type="arc" sodipodi:ry="56.781116" sodipodi:rx="56.781116" sodipodi:cy="566.00861" sodipodi:cx="230.72961" inkscape:label="#path8454" fill="url(#path7204_2_)" d="
					M-2698.641-914.083c-96.353,0-174.456-78.103-174.456-174.456c0-96.353,78.103-174.456,174.456-174.456
					s174.456,78.103,174.456,174.456C-2524.185-992.185-2602.287-914.083-2698.641-914.083z"/>
				<g id="g7206_1_" transform="matrix(2.6067686,0,0,2.6067686,-3062.803,-2023.9629)">
					
						<linearGradient id="path7208_2_" gradientUnits="userSpaceOnUse" x1="1367.7117" y1="-2209.1238" x2="1406.7134" y2="-2209.1238" gradientTransform="matrix(0.4782 0 0 -0.4782 -553.3423 -664.3433)">
						<stop  offset="0" style="stop-color:#262626"/>
						<stop  offset="0.5535" style="stop-color:#9E9D9D"/>
						<stop  offset="1" style="stop-color:#FFFFFF"/>
					</linearGradient>
					
						<path id="path7208_1_" sodipodi:end="2.0943951" sodipodi:start="1.0471976" sodipodi:type="arc" sodipodi:ry="66.695282" sodipodi:rx="66.695282" sodipodi:cy="423.60516" sodipodi:cx="112.66094" fill="url(#path7208_2_)" d="
						M173.046,416.472c-20.636,11.915-46.059,11.915-66.695,0l33.348-57.76L173.046,416.472z"/>
					
						<linearGradient id="path7210_2_" gradientUnits="userSpaceOnUse" x1="2149.7129" y1="164.6051" x2="2188.7141" y2="164.6051" gradientTransform="matrix(0.1238 0.4619 0.4619 -0.1238 -244.7757 -642.9048)">
						<stop  offset="0" style="stop-color:#262626"/>
						<stop  offset="0.5535" style="stop-color:#9E9D9D"/>
						<stop  offset="1" style="stop-color:#FFFFFF"/>
					</linearGradient>
					
						<path id="path7210_1_" inkscape:transform-center-y="16.673795" inkscape:transform-center-x="33.347635" sodipodi:end="1.8325957" sodipodi:start="1.3089969" sodipodi:type="arc" sodipodi:ry="66.695282" sodipodi:rx="66.695282" sodipodi:cy="423.60516" sodipodi:cx="112.66094" fill="url(#path7210_2_)" d="
						M81.939,392.059c-5.853-10.14-8.935-21.639-8.935-33.348h66.695L81.939,392.059z"/>
					
						<linearGradient id="path7212_2_" gradientUnits="userSpaceOnUse" x1="-1129.757" y1="-2068.5149" x2="-1090.7557" y2="-2068.5149" gradientTransform="matrix(0.1238 -0.4619 -0.4619 -0.1238 -653.7687 -372.9046)">
						<stop  offset="0" style="stop-color:#262626"/>
						<stop  offset="0.5535" style="stop-color:#9E9D9D"/>
						<stop  offset="1" style="stop-color:#FFFFFF"/>
					</linearGradient>
					
						<path id="path7212_1_" inkscape:transform-center-y="16.673849" inkscape:transform-center-x="-33.34764" sodipodi:end="1.8325957" sodipodi:start="1.3089969" sodipodi:type="arc" sodipodi:ry="66.695282" sodipodi:rx="66.695282" sodipodi:cy="423.60516" sodipodi:cx="112.66094" fill="url(#path7212_2_)" d="
						M206.394,358.712c0,11.709-3.082,23.207-8.935,33.348l-57.76-33.348H206.394z"/>
					
						<linearGradient id="path7214_2_" gradientUnits="userSpaceOnUse" x1="-865.1583" y1="1114.0333" x2="-865.1583" y2="1180.7325" gradientTransform="matrix(-0.4782 0 0 0.4782 -274.0201 -240.7259)">
						<stop  offset="0" style="stop-color:#F4F4F4"/>
						<stop  offset="1" style="stop-color:#262626"/>
					</linearGradient>
					
						<path id="path7214_1_" inkscape:transform-center-y="-33.402436" inkscape:transform-center-x="-2.4633892e-05" sodipodi:end="2.6179939" sodipodi:start="0.52359878" sodipodi:type="arc" sodipodi:ry="66.695282" sodipodi:rx="66.695282" sodipodi:cy="423.60516" sodipodi:cx="112.66094" fill="url(#path7214_2_)" d="
						M81.939,325.364c18.418-31.9,59.208-42.83,91.108-24.412c10.138,5.853,18.557,14.274,24.412,24.412l-57.76,33.348
						L81.939,325.364z"/>
				</g>
				
					<path id="path7216_1_" sodipodi:type="arc" sodipodi:ry="56.781116" sodipodi:rx="56.781116" sodipodi:cy="566.00861" sodipodi:cx="230.72961" fill="none" stroke="#000000" stroke-width="2.0301" stroke-linecap="round" stroke-linejoin="round" d="
					M-2855.051-1088.539c0-86.381,70.029-156.408,156.41-156.408c86.381,0,156.408,70.026,156.408,156.408
					s-70.026,156.408-156.408,156.408C-2785.022-932.131-2855.051-1002.157-2855.051-1088.539z"/>
			</g>
			<g id="g7226_1_" transform="matrix(0.9200672,0,0,0.9200672,-2065.5105,-2006.7661)">
				
					<linearGradient id="path7228_2_" gradientUnits="userSpaceOnUse" x1="2650.3403" y1="-4602.9165" x2="2650.3403" y2="-4660.4697" gradientTransform="matrix(0.4804 0 0 -0.4804 -1085.1335 -1643.7784)">
					<stop  offset="0" style="stop-color:#FFFFFF;stop-opacity:0.8916"/>
					<stop  offset="1" style="stop-color:#FFFFFF;stop-opacity:0"/>
				</linearGradient>
				<path id="path7228_1_" sodipodi:nodetypes="cssss" fill="url(#path7228_2_)" d="M321.072,690.939
					c0,40.39-51.843-17.682-132.782-17.682c-80.949,0-133.175,65.286-133.175,17.682c0-1.667,35.171-85.685,132.837-85.685
					C283.846,605.254,321.072,689.347,321.072,690.939z"/>
				<g id="g7230_1_" transform="matrix(1.8045881,0,0,1.8045881,-112.0731,4.9051958)">
				</g>
				<rect id="rect7232_1_" x="29.997" y="592.358" fill="none" width="317.145" height="317.148"/>
			</g>
			
				<radialGradient id="path7306_2_" cx="1505.0273" cy="-7435.2764" r="56.7834" gradientTransform="matrix(0.4968 0 0 -0.4968 -2639.7134 -5009.7026)" gradientUnits="userSpaceOnUse">
				<stop  offset="0" style="stop-color:#578F61;stop-opacity:0.8783"/>
				<stop  offset="0.6326" style="stop-color:#47693A"/>
				<stop  offset="1" style="stop-color:#1A4810"/>
			</radialGradient>
			
				<path id="path7306_1_" sodipodi:type="arc" sodipodi:ry="56.781116" sodipodi:rx="56.781116" sodipodi:cy="566.00861" sodipodi:cx="230.72961" fill="url(#path7306_2_)" d="
				M-1759.781-1315.859c0,73.032-59.203,132.234-132.234,132.234s-132.234-59.203-132.234-132.234s59.203-132.234,132.234-132.234
				S-1759.781-1388.89-1759.781-1315.859z"/>
			<g id="g7347_1_" transform="matrix(0.9376161,0,0,0.9376161,-2068.8198,-2019.9441)">
				
					<linearGradient id="path7349_2_" gradientUnits="userSpaceOnUse" x1="2549.4521" y1="-4429.8691" x2="2549.4521" y2="-4487.4155" gradientTransform="matrix(0.4896 0 0 -0.4896 -1060.1202 -1601.3972)">
					<stop  offset="0" style="stop-color:#FFFFFF;stop-opacity:0.8916"/>
					<stop  offset="1" style="stop-color:#FFFFFF;stop-opacity:0"/>
				</linearGradient>
				<path id="path7349_1_" sodipodi:nodetypes="cssss" fill="url(#path7349_2_)" d="M321.072,690.939
					c0,40.395-51.839-17.683-132.787-17.683c-80.937,0-133.17,65.285-133.17,17.683c0-1.665,35.174-85.683,132.838-85.683
					C283.84,605.256,321.072,689.347,321.072,690.939z"/>
				<g id="g7351_1_" transform="matrix(1.8045881,0,0,1.8045881,-112.0731,4.9051958)">
				</g>
				<rect id="rect7353_1_" x="29.997" y="592.357" fill="none" width="317.146" height="317.149"/>
			</g>
		</g>
		<rect x="-0.545" y="0.727" fill="none" width="64" height="64"/>
	</g>
</g>
<g id="Styles">
	<g id="cdpPictureStyle2" transform="translate(0.5453906,-0.7268238)" inkscape:label="Layer 1" inkscape:groupmode="layer">
		<g id="g7359_3_" transform="matrix(0.2133333,0,0,0.2133333,435.0838,313.44288)">
			<g id="g7202_3_" transform="matrix(0.8598167,0,0,0.8598167,428.32231,-379.91446)">
				
					<linearGradient id="path7204_4_" gradientUnits="userSpaceOnUse" x1="1785.4133" y1="84.205" x2="1898.969" y2="84.205" gradientTransform="matrix(0 0.5636 0.5636 0 -1913.1738 -2269.9473)">
					<stop  offset="0" style="stop-color:#F4F4F4"/>
					<stop  offset="1" style="stop-color:#262626"/>
				</linearGradient>
				
					<path id="path7204_3_" sodipodi:type="arc" sodipodi:ry="56.781116" sodipodi:rx="56.781116" sodipodi:cy="566.00861" sodipodi:cx="230.72961" inkscape:label="#path8454" fill="url(#path7204_4_)" d="
					M-1865.721-914.775c-96.353,0-174.456-78.103-174.456-174.456s78.103-174.456,174.456-174.456
					c96.353,0,174.456,78.103,174.456,174.456S-1769.367-914.775-1865.721-914.775z"/>
				<g id="g7206_3_" transform="matrix(2.6067686,0,0,2.6067686,-3062.803,-2023.9629)">
					
						<linearGradient id="path7208_4_" gradientUnits="userSpaceOnUse" x1="2035.8878" y1="-2208.5681" x2="2074.8896" y2="-2208.5681" gradientTransform="matrix(0.4782 0 0 -0.4782 -553.3423 -664.3434)">
						<stop  offset="0" style="stop-color:#262626"/>
						<stop  offset="0.5535" style="stop-color:#9E9D9D"/>
						<stop  offset="1" style="stop-color:#FFFFFF"/>
					</linearGradient>
					
						<path id="path7208_3_" sodipodi:end="2.0943951" sodipodi:start="1.0471976" sodipodi:type="arc" sodipodi:ry="66.695282" sodipodi:rx="66.695282" sodipodi:cy="423.60516" sodipodi:cx="112.66094" fill="url(#path7208_4_)" d="
						M492.568,416.206c-20.636,11.915-46.059,11.915-66.695,0l33.348-57.76L492.568,416.206z"/>
					
						<linearGradient id="path7210_4_" gradientUnits="userSpaceOnUse" x1="2322.158" y1="810.1416" x2="2361.1592" y2="810.1416" gradientTransform="matrix(0.1238 0.4619 0.4619 -0.1238 -244.7757 -642.9048)">
						<stop  offset="0" style="stop-color:#262626"/>
						<stop  offset="0.5535" style="stop-color:#9E9D9D"/>
						<stop  offset="1" style="stop-color:#FFFFFF"/>
					</linearGradient>
					
						<path id="path7210_3_" inkscape:transform-center-y="16.673795" inkscape:transform-center-x="33.347635" sodipodi:end="1.8325957" sodipodi:start="1.3089969" sodipodi:type="arc" sodipodi:ry="66.695282" sodipodi:rx="66.695282" sodipodi:cy="423.60516" sodipodi:cx="112.66094" fill="url(#path7210_4_)" d="
						M401.46,391.794c-5.853-10.14-8.935-21.639-8.935-33.348h66.695L401.46,391.794z"/>
					
						<linearGradient id="path7212_4_" gradientUnits="userSpaceOnUse" x1="-956.2406" y1="-2713.7646" x2="-917.2393" y2="-2713.7646" gradientTransform="matrix(0.1238 -0.4619 -0.4619 -0.1238 -653.7687 -372.9046)">
						<stop  offset="0" style="stop-color:#262626"/>
						<stop  offset="0.5535" style="stop-color:#9E9D9D"/>
						<stop  offset="1" style="stop-color:#FFFFFF"/>
					</linearGradient>
					
						<path id="path7212_3_" inkscape:transform-center-y="16.673849" inkscape:transform-center-x="-33.34764" sodipodi:end="1.8325957" sodipodi:start="1.3089969" sodipodi:type="arc" sodipodi:ry="66.695282" sodipodi:rx="66.695282" sodipodi:cy="423.60516" sodipodi:cx="112.66094" fill="url(#path7212_4_)" d="
						M525.916,358.446c0,11.709-3.082,23.207-8.935,33.348l-57.76-33.348H525.916z"/>
					
						<linearGradient id="path7214_4_" gradientUnits="userSpaceOnUse" x1="-1533.3344" y1="1113.4778" x2="-1533.3344" y2="1180.178" gradientTransform="matrix(-0.4782 0 0 0.4782 -274.0201 -240.7259)">
						<stop  offset="0" style="stop-color:#F4F4F4"/>
						<stop  offset="1" style="stop-color:#262626"/>
					</linearGradient>
					
						<path id="path7214_3_" inkscape:transform-center-y="-33.402436" inkscape:transform-center-x="-2.4633892e-05" sodipodi:end="2.6179939" sodipodi:start="0.52359878" sodipodi:type="arc" sodipodi:ry="66.695282" sodipodi:rx="66.695282" sodipodi:cy="423.60516" sodipodi:cx="112.66094" fill="url(#path7214_4_)" d="
						M401.46,325.098c18.418-31.9,59.208-42.83,91.108-24.412c10.138,5.853,18.557,14.274,24.412,24.412l-57.76,33.348
						L401.46,325.098z"/>
				</g>
				
					<path id="path7216_3_" sodipodi:type="arc" sodipodi:ry="56.781116" sodipodi:rx="56.781116" sodipodi:cy="566.00861" sodipodi:cx="230.72961" fill="none" stroke="#000000" stroke-width="2.0301" stroke-linecap="round" stroke-linejoin="round" d="
					M-2022.129-1089.231c0-86.381,70.026-156.408,156.408-156.408s156.408,70.026,156.408,156.408s-70.026,156.408-156.408,156.408
					S-2022.129-1002.849-2022.129-1089.231z"/>
			</g>
			<g id="g7226_3_" transform="matrix(0.9200672,0,0,0.9200672,-2065.5105,-2006.7661)">
				
					<linearGradient id="path7228_4_" gradientUnits="userSpaceOnUse" x1="4270.6084" y1="-4601.5708" x2="4270.6084" y2="-4659.1235" gradientTransform="matrix(0.4804 0 0 -0.4804 -1085.1335 -1643.7786)">
					<stop  offset="0" style="stop-color:#FFFFFF;stop-opacity:0.8916"/>
					<stop  offset="1" style="stop-color:#FFFFFF;stop-opacity:0"/>
				</linearGradient>
				<path id="path7228_3_" sodipodi:nodetypes="cssss" fill="url(#path7228_4_)" d="M1099.448,690.292
					c0,40.39-51.843-17.682-132.782-17.682c-80.949,0-133.175,65.286-133.175,17.682c0-1.667,35.171-85.685,132.836-85.685
					C1062.223,604.607,1099.448,688.7,1099.448,690.292z"/>
				<g id="g7230_3_" transform="matrix(1.8045881,0,0,1.8045881,-112.0731,4.9051958)">
				</g>
				<rect id="rect7232_3_" x="808.371" y="591.711" fill="none" width="317.148" height="317.148"/>
			</g>
			
				<radialGradient id="path7306_4_" cx="2946.5688" cy="-7434.0771" r="56.7832" gradientTransform="matrix(0.4968 0 0 -0.4968 -2639.7134 -5009.7031)" gradientUnits="userSpaceOnUse">
				<stop  offset="0" style="stop-color:#7799B5"/>
				<stop  offset="0.6326" style="stop-color:#344A7C"/>
				<stop  offset="1" style="stop-color:#11193E"/>
			</radialGradient>
			
				<path id="path7306_3_" sodipodi:type="arc" sodipodi:ry="56.781116" sodipodi:rx="56.781116" sodipodi:cy="566.00861" sodipodi:cx="230.72961" fill="url(#path7306_4_)" d="
				M-1043.622-1316.454c0,73.032-59.203,132.234-132.234,132.234s-132.234-59.203-132.234-132.234s59.203-132.234,132.234-132.234
				S-1043.622-1389.486-1043.622-1316.454z"/>
			<g id="g7347_3_" transform="matrix(0.9376161,0,0,0.9376161,-2068.8198,-2019.9441)">
				
					<linearGradient id="path7349_4_" gradientUnits="userSpaceOnUse" x1="4109.5254" y1="-4428.5728" x2="4109.5254" y2="-4486.1191" gradientTransform="matrix(0.4896 0 0 -0.4896 -1060.1202 -1601.3973)">
					<stop  offset="0" style="stop-color:#FFFFFF;stop-opacity:0.8916"/>
					<stop  offset="1" style="stop-color:#FFFFFF;stop-opacity:0"/>
				</linearGradient>
				<path id="path7349_3_" sodipodi:nodetypes="cssss" fill="url(#path7349_4_)" d="M1084.88,690.304
					c0,40.395-51.839-17.683-132.787-17.683c-80.937,0-133.167,65.285-133.167,17.683c0-1.665,35.172-85.683,132.835-85.683
					C1047.648,604.621,1084.88,688.712,1084.88,690.304z"/>
				<g id="g7351_3_" transform="matrix(1.8045881,0,0,1.8045881,-112.0731,4.9051958)">
				</g>
				<rect id="rect7353_3_" x="793.802" y="591.722" fill="none" width="317.149" height="317.149"/>
			</g>
		</g>
		<rect x="152.235" y="0.727" fill="none" width="64" height="64"/>
	</g>
	<g id="cdpPictureStyle1" transform="translate(0.5453906,-0.7268238)" inkscape:label="Layer 1" inkscape:groupmode="layer">
		<g id="g7359" transform="matrix(0.2133333,0,0,0.2133333,435.0838,313.44288)">
			<g id="g7202" transform="matrix(0.8598167,0,0,0.8598167,428.32231,-379.91446)">
				
					<linearGradient id="path7204_5_" gradientUnits="userSpaceOnUse" x1="1833.7496" y1="-684.5983" x2="1947.3053" y2="-684.5983" gradientTransform="matrix(0 0.5636 0.5636 0 -1888.5957 -2294.5254)">
					<stop  offset="0" style="stop-color:#F4F4F4"/>
					<stop  offset="1" style="stop-color:#262626"/>
				</linearGradient>
				
					<path id="path7204" sodipodi:type="arc" sodipodi:ry="56.781116" sodipodi:rx="56.781116" sodipodi:cy="566.00861" sodipodi:cx="230.72961" inkscape:label="#path8454" fill="url(#path7204_5_)" d="
					M-2274.437-912.113c-96.353,0-174.456-78.103-174.456-174.456s78.103-174.456,174.456-174.456s174.456,78.103,174.456,174.456
					S-2178.084-912.113-2274.437-912.113z"/>
				<g id="g7206" transform="matrix(2.6067686,0,0,2.6067686,-3062.803,-2023.9629)">
					
						<linearGradient id="path7208_5_" gradientUnits="userSpaceOnUse" x1="1724.7437" y1="-2227.4355" x2="1763.7454" y2="-2227.4355" gradientTransform="matrix(0.4782 0 0 -0.4782 -561.3433 -672.3434)">
						<stop  offset="0" style="stop-color:#262626"/>
						<stop  offset="0.5535" style="stop-color:#9E9D9D"/>
						<stop  offset="1" style="stop-color:#FFFFFF"/>
					</linearGradient>
					
						<path id="path7208" sodipodi:end="2.0943951" sodipodi:start="1.0471976" sodipodi:type="arc" sodipodi:ry="66.695282" sodipodi:rx="66.695282" sodipodi:cy="423.60516" sodipodi:cx="112.66094" fill="url(#path7208_5_)" d="
						M335.778,417.227c-20.636,11.915-46.059,11.915-66.695,0l33.348-57.76L335.778,417.227z"/>
					
						<linearGradient id="path7210_5_" gradientUnits="userSpaceOnUse" x1="2256.0649" y1="476.1618" x2="2295.0662" y2="476.1618" gradientTransform="matrix(0.1238 0.4619 0.4619 -0.1238 -239.1194 -652.7031)">
						<stop  offset="0" style="stop-color:#262626"/>
						<stop  offset="0.5535" style="stop-color:#9E9D9D"/>
						<stop  offset="1" style="stop-color:#FFFFFF"/>
					</linearGradient>
					
						<path id="path7210" inkscape:transform-center-y="16.673795" inkscape:transform-center-x="33.347635" sodipodi:end="1.8325957" sodipodi:start="1.3089969" sodipodi:type="arc" sodipodi:ry="66.695282" sodipodi:rx="66.695282" sodipodi:cy="423.60516" sodipodi:cx="112.66094" fill="url(#path7210_5_)" d="
						M244.67,392.815c-5.853-10.14-8.935-21.639-8.935-33.348h66.695L244.67,392.815z"/>
					
						<linearGradient id="path7212_5_" gradientUnits="userSpaceOnUse" x1="-1026.4541" y1="-2414.3477" x2="-987.4528" y2="-2414.3477" gradientTransform="matrix(0.1238 -0.4619 -0.4619 -0.1238 -663.568 -367.2473)">
						<stop  offset="0" style="stop-color:#262626"/>
						<stop  offset="0.5535" style="stop-color:#9E9D9D"/>
						<stop  offset="1" style="stop-color:#FFFFFF"/>
					</linearGradient>
					
						<path id="path7212" inkscape:transform-center-y="16.673849" inkscape:transform-center-x="-33.34764" sodipodi:end="1.8325957" sodipodi:start="1.3089969" sodipodi:type="arc" sodipodi:ry="66.695282" sodipodi:rx="66.695282" sodipodi:cy="423.60516" sodipodi:cx="112.66094" fill="url(#path7212_5_)" d="
						M369.126,359.467c0,11.709-3.082,23.207-8.935,33.348l-57.76-33.348H369.126z"/>
					
						<linearGradient id="path7214_5_" gradientUnits="userSpaceOnUse" x1="-1188.719" y1="1098.8851" x2="-1188.719" y2="1165.5844" gradientTransform="matrix(-0.4782 0 0 0.4782 -266.0161 -232.7254)">
						<stop  offset="0" style="stop-color:#F4F4F4"/>
						<stop  offset="1" style="stop-color:#262626"/>
					</linearGradient>
					
						<path id="path7214" inkscape:transform-center-y="-33.402436" inkscape:transform-center-x="-2.4633892e-05" sodipodi:end="2.6179939" sodipodi:start="0.52359878" sodipodi:type="arc" sodipodi:ry="66.695282" sodipodi:rx="66.695282" sodipodi:cy="423.60516" sodipodi:cx="112.66094" fill="url(#path7214_5_)" d="
						M244.67,326.119c18.418-31.9,59.208-42.829,91.108-24.412c10.138,5.853,18.557,14.274,24.412,24.412l-57.76,33.348
						L244.67,326.119z"/>
				</g>
				
					<path id="path7216" sodipodi:type="arc" sodipodi:ry="56.781116" sodipodi:rx="56.781116" sodipodi:cy="566.00861" sodipodi:cx="230.72961" fill="none" stroke="#000000" stroke-width="2.0301" stroke-linecap="round" stroke-linejoin="round" d="
					M-2430.845-1086.569c0-86.381,70.026-156.41,156.408-156.41c86.381,0,156.408,70.029,156.408,156.41
					s-70.026,156.408-156.408,156.408C-2360.819-930.161-2430.845-1000.188-2430.845-1086.569z"/>
			</g>
			<g id="g7226" transform="matrix(0.9200672,0,0,0.9200672,-2065.5105,-2006.7661)">
				
					<linearGradient id="path7228_5_" gradientUnits="userSpaceOnUse" x1="3516.3076" y1="-4647.5229" x2="3516.3076" y2="-4705.0747" gradientTransform="matrix(0.4804 0 0 -0.4804 -1104.7164 -1663.3615)">
					<stop  offset="0" style="stop-color:#FFFFFF;stop-opacity:0.8916"/>
					<stop  offset="1" style="stop-color:#FFFFFF;stop-opacity:0"/>
				</linearGradient>
				<path id="path7228" sodipodi:nodetypes="cssss" fill="url(#path7228_5_)" d="M717.496,692.78
					c0,40.39-51.843-17.682-132.782-17.682c-80.949,0-133.175,65.286-133.175,17.682c0-1.667,35.171-85.683,132.837-85.683
					C680.271,607.097,717.496,691.188,717.496,692.78z"/>
				<g id="g7230" transform="matrix(1.8045881,0,0,1.8045881,-112.0731,4.9051958)">
				</g>
				<rect id="rect7232" x="426.419" y="594.201" fill="none" width="317.148" height="317.145"/>
			</g>
			
				<radialGradient id="path7306_5_" cx="2276.6992" cy="-7476.1846" r="56.7832" gradientTransform="matrix(0.4968 0 0 -0.4968 -2658.3445 -5028.334)" gradientUnits="userSpaceOnUse">
				<stop  offset="0" style="stop-color:#BC6084;stop-opacity:0.9569"/>
				<stop  offset="0.6326" style="stop-color:#943F35"/>
				<stop  offset="1" style="stop-color:#580E00"/>
			</radialGradient>
			
				<path id="path7306" sodipodi:type="arc" sodipodi:ry="56.781116" sodipodi:rx="56.781116" sodipodi:cy="566.00861" sodipodi:cx="230.72961" fill="url(#path7306_5_)" d="
				M-1395.043-1314.165c0,73.032-59.203,132.234-132.234,132.234s-132.234-59.203-132.234-132.234s59.203-132.234,132.234-132.234
				S-1395.043-1387.197-1395.043-1314.165z"/>
			<g id="g7347" transform="matrix(0.9376161,0,0,0.9376161,-2068.8198,-2019.9441)">
				
					<linearGradient id="path7349_5_" gradientUnits="userSpaceOnUse" x1="3383.9939" y1="-4473.5454" x2="3383.9939" y2="-4531.0918" gradientTransform="matrix(0.4896 0 0 -0.4896 -1079.7029 -1620.9701)">
					<stop  offset="0" style="stop-color:#FFFFFF;stop-opacity:0.8916"/>
					<stop  offset="1" style="stop-color:#FFFFFF;stop-opacity:0"/>
				</linearGradient>
				<path id="path7349" sodipodi:nodetypes="cssss" fill="url(#path7349_5_)" d="M710.077,692.745
					c0,40.396-51.839-17.683-132.786-17.683c-80.937,0-133.167,65.285-133.167,17.683c0-1.665,35.171-85.683,132.835-85.683
					C672.845,607.062,710.077,691.154,710.077,692.745z"/>
				<g id="g7351" transform="matrix(1.8045881,0,0,1.8045881,-112.0731,4.9051958)">
				</g>
				<rect id="rect7353" x="419" y="594.166" fill="none" width="317.149" height="317.146"/>
			</g>
		</g>
		<rect x="77.455" y="0.727" fill="none" width="64" height="64"/>
	</g>
</g>
<defs>
	
	
		<inkscape:perspective  id="perspective3978" inkscape:vp_x="0 : 32 : 1" inkscape:vp_y="0 : 1000 : 0" inkscape:vp_z="64 : 32 : 1" sodipodi:type="inkscape:persp3d" inkscape:persp3d-origin="32 : 21.333333 : 1">
		</inkscape:perspective>
</defs>
<sodipodi:namedview  id="base" inkscape:zoom="0.6875" inkscape:pageshadow="2" inkscape:pageopacity="0.0" inkscape:grid-bbox="true" inkscape:document-units="px" inkscape:current-layer="g7359" inkscape:window-width="964" inkscape:window-y="238" inkscape:window-height="675" inkscape:window-x="1501" inkscape:cx="-107.31715" inkscape:cy="31.841607" pagecolor="#ffffff" bordercolor="#666666" showgrid="true" borderopacity="1.0">
	</sodipodi:namedview>
</svg>
