<?xml version="1.0" encoding="utf-8"?>
<!-- Generator: Adobe Illustrator 15.0.1, SVG Export Plug-In . SVG Version: 6.00 Build 0)  -->
<!DOCTYPE svg PUBLIC "-//W3C//DTD SVG 1.1//EN" "http://www.w3.org/Graphics/SVG/1.1/DTD/svg11.dtd">
<svg version="1.1" id="svg" xmlns="http://www.w3.org/2000/svg" xmlns:xlink="http://www.w3.org/1999/xlink" x="0px" y="0px"
	 width="200px" height="100px" viewBox="0 0 200 100" enable-background="new 0 0 200 100" xml:space="preserve">
<g id="Styles">
	<g id="cdpBackgroundStyle1">
		<rect x="235" fill="none" width="200" height="100"/>
		<g id="outer_background_3_">
			<linearGradient id="SVGID_1_" gradientUnits="userSpaceOnUse" x1="334.5" y1="100" x2="334.5" y2="1.0005">
				<stop  offset="0" style="stop-color:#434648"/>
				<stop  offset="0.5639" style="stop-color:#45484A"/>
				<stop  offset="0.767" style="stop-color:#4C4E4F"/>
				<stop  offset="0.9112" style="stop-color:#575959"/>
				<stop  offset="1" style="stop-color:#636363"/>
			</linearGradient>
			<rect x="235" y="1" fill="url(#SVGID_1_)" width="199" height="99"/>
			<rect x="235.5" y="0.5" fill="none" stroke="#191919" stroke-miterlimit="10" width="199" height="99"/>
		</g>
		<g id="title_2_">
			<linearGradient id="SVGID_2_" gradientUnits="userSpaceOnUse" x1="335" y1="41" x2="335" y2="0">
				<stop  offset="0.5132" style="stop-color:#161A1A"/>
				<stop  offset="0.6611" style="stop-color:#181C1C"/>
				<stop  offset="0.7144" style="stop-color:#1E2223"/>
				<stop  offset="0.7281" style="stop-color:#212526"/>
			</linearGradient>
			<rect x="235" fill="url(#SVGID_2_)" width="200" height="41"/>
			<linearGradient id="SVGID_3_" gradientUnits="userSpaceOnUse" x1="406.1563" y1="0.7002" x2="406.1563" y2="35.5106">
				<stop  offset="0.1667" style="stop-color:#53595E"/>
				<stop  offset="0.2998" style="stop-color:#3B4045"/>
				<stop  offset="0.4222" style="stop-color:#2B3035"/>
				<stop  offset="0.5175" style="stop-color:#262A30"/>
			</linearGradient>
			<polygon fill="url(#SVGID_3_)" stroke="#0D0D0D" stroke-miterlimit="10" points="406.15,25.687 397.277,34.556 391.838,29.117 
				400.706,20.239 391.838,11.37 397.277,5.921 406.15,14.79 415.023,5.931 420.472,11.37 411.602,20.239 420.476,29.117 
				415.024,34.556 			"/>
		</g>
	</g>
	<g id="cdpTitleTextStyle1">
		<text transform="matrix(1 0 0 1 289.0254 25.9985)" fill="#FFFFFF" font-family="'ArialMT'" font-size="17.9551">A window</text>
	</g>
</g>
<g id="Layer1">
	<rect id="cdpBorderMarginTopLeft" x="-0.5" fill="none" width="1" height="42"/>
	<rect id="cdpBorderMarginBottomRight" x="148" y="99" fill="none" width="51.976" height="1"/>
	<rect id="cdpExitRect" x="152.976" y="3.921" fill="none" width="34.524" height="32.579"/>
	<g id="cdpBackground">
		<rect fill="none" width="200" height="100"/>
		<g id="outer">
			<linearGradient id="SVGID_4_" gradientUnits="userSpaceOnUse" x1="100.0005" y1="100" x2="100.0005" y2="4.882813e-004">
				<stop  offset="0" style="stop-color:#434648"/>
				<stop  offset="0.5654" style="stop-color:#45484A"/>
				<stop  offset="0.7691" style="stop-color:#4C4E4F"/>
				<stop  offset="0.9137" style="stop-color:#575959"/>
				<stop  offset="1" style="stop-color:#636363"/>
			</linearGradient>
			<rect fill="url(#SVGID_4_)" width="200" height="100"/>
			<rect x="-0.5" y="0.5" fill="none" stroke="#19191A" stroke-miterlimit="10" width="200" height="100"/>
		</g>
		<g id="title0">
			<linearGradient id="SVGID_5_" gradientUnits="userSpaceOnUse" x1="99.5005" y1="42" x2="99.5005" y2="1">
				<stop  offset="0.5132" style="stop-color:#161A1A"/>
				<stop  offset="0.6611" style="stop-color:#181C1C"/>
				<stop  offset="0.7144" style="stop-color:#1E2223"/>
				<stop  offset="0.7281" style="stop-color:#212526"/>
			</linearGradient>
			<rect y="1" fill="url(#SVGID_5_)" width="199" height="41"/>
			<g>
				<g>
					<g>
						<linearGradient id="SVGID_6_" gradientUnits="userSpaceOnUse" x1="171.1445" y1="0.6392" x2="171.1445" y2="35.5369">
							<stop  offset="0.1667" style="stop-color:#53595E"/>
							<stop  offset="0.2998" style="stop-color:#3B4045"/>
							<stop  offset="0.4222" style="stop-color:#2B3035"/>
							<stop  offset="0.5175" style="stop-color:#262A30"/>
						</linearGradient>
						<polygon fill="url(#SVGID_6_)" stroke="#0D0D0D" stroke-miterlimit="10" points="171.139,25.688 162.243,34.58 156.79,29.127 
							165.681,20.227 156.79,11.336 162.243,5.873 171.139,14.764 180.034,5.883 185.496,11.336 176.604,20.227 185.5,29.127 
							180.035,34.58 						"/>
					</g>
				</g>
			</g>
		</g>
	</g>
	<g id="cdpTitleText">
		<text transform="matrix(1 0 0 1 54 26)" fill="#FFFFFF" font-family="'ArialMT'" font-size="18">A window</text>
	</g>
</g>
</svg>
