<?xml version="1.0" encoding="utf-8"?>
<!-- Generator: Adobe Illustrator 16.0.0, SVG Export Plug-In . SVG Version: 6.00 Build 0)  -->
<!DOCTYPE svg PUBLIC "-//W3C//DTD SVG 1.1//EN" "http://www.w3.org/Graphics/SVG/1.1/DTD/svg11.dtd">
<svg version="1.1" id="svg" xmlns="http://www.w3.org/2000/svg" xmlns:xlink="http://www.w3.org/1999/xlink" x="0px" y="0px"
	 width="30px" height="30px" viewBox="0 0 30 30" enable-background="new 0 0 30 30" xml:space="preserve">
<g id="Layer1">
	<g id="bakgrunn_1_" display="none">
		<linearGradient id="SVGID_1_" gradientUnits="userSpaceOnUse" x1="101.5" y1="-17.0347" x2="101.5" y2="-31.6688">
			<stop  offset="0" style="stop-color:#DAE3E8"/>
			<stop  offset="0.8587" style="stop-color:#DAE3E8"/>
			<stop  offset="1" style="stop-color:#DAE3E8"/>
		</linearGradient>
		<path display="inline" fill="url(#SVGID_1_)" d="M212.5,34c0,2.762-2.238,5-5,5h-212c-2.761,0-5-2.238-5-5v-61
			c0-2.761,2.239-5,5-5h212c2.762,0,5,2.239,5,5V34z"/>
		<path display="inline" fill="none" stroke="#8E969E" stroke-miterlimit="10" d="M213,33.5c0,2.762-2.238,5-5,5H-4
			c-2.761,0-5-2.238-5-5v-61c0-2.761,2.239-5,5-5h212c2.762,0,5,2.239,5,5V33.5z"/>
	</g>
	<g id="bakgrunn_2_">
		<linearGradient id="SVGID_2_" gradientUnits="userSpaceOnUse" x1="105" y1="-14.9268" x2="105" y2="-31.6221">
			<stop  offset="0" style="stop-color:#434648"/>
			<stop  offset="0.5654" style="stop-color:#45484A"/>
			<stop  offset="0.7691" style="stop-color:#4C4E4F"/>
			<stop  offset="0.9137" style="stop-color:#575959"/>
			<stop  offset="1" style="stop-color:#636363"/>
		</linearGradient>
		<path fill="url(#SVGID_2_)" d="M219.5,44c0,2.762-2.238,5-5,5h-219c-2.761,0-5-2.238-5-5v-71c0-2.761,2.239-5,5-5h219
			c2.762,0,5,2.239,5,5V44z"/>
		<path fill="none" stroke="#8E969E" stroke-miterlimit="10" d="M220,43.5c0,2.762-2.238,5-5,5H-4c-2.761,0-5-2.238-5-5v-71
			c0-2.761,2.239-5,5-5h219c2.762,0,5,2.239,5,5V43.5z"/>
	</g>
	<g id="cdpPicture">
		<rect fill="none" width="30" height="30"/>
		<g>
			<linearGradient id="SVGID_3_" gradientUnits="userSpaceOnUse" x1="14.9995" y1="0" x2="14.9995" y2="30.0005">
				<stop  offset="0" style="stop-color:#2D2D2E"/>
				<stop  offset="1" style="stop-color:#585C5E"/>
			</linearGradient>
			<circle fill="url(#SVGID_3_)" cx="15" cy="15" r="15"/>
			
				<radialGradient id="SVGID_4_" cx="38.3701" cy="4.3672" r="6.4429" gradientTransform="matrix(1.94 0 0 1.9403 -59.4377 6.5259)" gradientUnits="userSpaceOnUse">
				<stop  offset="0" style="stop-color:#BDBDBD"/>
				<stop  offset="0.1483" style="stop-color:#B5B5B5"/>
				<stop  offset="0.3718" style="stop-color:#A1A1A1"/>
				<stop  offset="0.6427" style="stop-color:#7F7F7F"/>
				<stop  offset="0.9485" style="stop-color:#505050"/>
				<stop  offset="1" style="stop-color:#474747"/>
			</radialGradient>
			<circle fill="url(#SVGID_4_)" cx="15" cy="15" r="12.5"/>
		</g>
	</g>
	<text id="cdpText" transform="matrix(1 0 0 1 0 -12.4243)" fill="#FFFFFF" font-family="'ArialMT'" font-size="14">Sunken</text>
</g>
<g id="Styles">
	<g id="cdpPicture0Style1">
		<rect x="34" fill="none" width="30" height="30"/>
		<g>
			<linearGradient id="SVGID_5_" gradientUnits="userSpaceOnUse" x1="49" y1="0" x2="49" y2="30.0005">
				<stop  offset="0" style="stop-color:#2D2D2E"/>
				<stop  offset="1" style="stop-color:#585C5E"/>
			</linearGradient>
			<circle fill="url(#SVGID_5_)" cx="49" cy="15" r="15"/>
			
				<radialGradient id="SVGID_6_" cx="55.8965" cy="4.3672" r="6.4429" gradientTransform="matrix(1.94 0 0 1.9403 -59.4377 6.5259)" gradientUnits="userSpaceOnUse">
				<stop  offset="0" style="stop-color:#D4FFD4"/>
				<stop  offset="0.0898" style="stop-color:#B5F7B9"/>
				<stop  offset="0.2648" style="stop-color:#7EE88B"/>
				<stop  offset="0.4356" style="stop-color:#51DC64"/>
				<stop  offset="0.5982" style="stop-color:#2ED345"/>
				<stop  offset="0.7506" style="stop-color:#15CC30"/>
				<stop  offset="0.8887" style="stop-color:#05C823"/>
				<stop  offset="1" style="stop-color:#00C71E"/>
			</radialGradient>
			<circle display="none" fill="url(#SVGID_6_)" cx="49" cy="15" r="12.5"/>
			
				<radialGradient id="SVGID_7_" cx="14.6172" cy="-11.5918" r="12.1396" gradientTransform="matrix(1.0297 0 0 1.0272 33.9488 26.9375)" gradientUnits="userSpaceOnUse">
				<stop  offset="0" style="stop-color:#0AE937"/>
				<stop  offset="0.1462" style="stop-color:#0AE033"/>
				<stop  offset="0.3811" style="stop-color:#0AC928"/>
				<stop  offset="0.6754" style="stop-color:#0BA217"/>
				<stop  offset="1" style="stop-color:#0B7000"/>
			</radialGradient>
			<ellipse fill="url(#SVGID_7_)" cx="49" cy="15.031" rx="12.5" ry="12.469"/>
		</g>
	</g>
	<g id="cdpPicture0Style2">
		<rect x="67.125" y="0" fill="none" width="30" height="30"/>
		<g>
			<linearGradient id="SVGID_8_" gradientUnits="userSpaceOnUse" x1="82.125" y1="-9.765625e-004" x2="82.125" y2="29.9995">
				<stop  offset="0" style="stop-color:#2D2D2E"/>
				<stop  offset="1" style="stop-color:#585C5E"/>
			</linearGradient>
			<circle fill="url(#SVGID_8_)" cx="82.125" cy="14.999" r="15"/>
			
				<radialGradient id="SVGID_9_" cx="72.9707" cy="4.3667" r="6.4431" gradientTransform="matrix(1.94 0 0 1.9403 -59.4377 6.5259)" gradientUnits="userSpaceOnUse">
				<stop  offset="0" style="stop-color:#F6F0BC"/>
				<stop  offset="0.1783" style="stop-color:#F1E88B"/>
				<stop  offset="0.3674" style="stop-color:#EDE25E"/>
				<stop  offset="0.5496" style="stop-color:#E9DC3B"/>
				<stop  offset="0.7204" style="stop-color:#E7D822"/>
				<stop  offset="0.8752" style="stop-color:#E6D612"/>
				<stop  offset="1" style="stop-color:#E5D50D"/>
			</radialGradient>
			<path display="none" fill="url(#SVGID_9_)" d="M82.125,2.5c-6.901,0-12.5,5.594-12.5,12.5c0,6.907,5.599,12.5,12.5,12.5
				c6.903,0,12.5-5.594,12.5-12.5C94.625,8.093,89.028,2.5,82.125,2.5z"/>
			
				<radialGradient id="SVGID_10_" cx="-58.3105" cy="21.1143" r="30.1675" gradientTransform="matrix(0.4144 0 0 0.4144 106.2873 6.281)" gradientUnits="userSpaceOnUse">
				<stop  offset="0" style="stop-color:#FAF174"/>
				<stop  offset="0.1843" style="stop-color:#F2E86C"/>
				<stop  offset="0.4803" style="stop-color:#DCD156"/>
				<stop  offset="0.8492" style="stop-color:#B9AB32"/>
				<stop  offset="1" style="stop-color:#A99922"/>
			</radialGradient>
			<circle fill="url(#SVGID_10_)" cx="82.125" cy="15.03" r="12.5"/>
		</g>
	</g>
	<g id="cdpPicture0Style3">
		<rect x="101.625" y="0" fill="none" width="30" height="30"/>
		<g>
			<linearGradient id="SVGID_11_" gradientUnits="userSpaceOnUse" x1="116.625" y1="-9.765625e-004" x2="116.625" y2="29.9995">
				<stop  offset="0" style="stop-color:#2D2D2E"/>
				<stop  offset="1" style="stop-color:#585C5E"/>
			</linearGradient>
			<circle fill="url(#SVGID_11_)" cx="116.625" cy="14.999" r="15"/>
			
				<radialGradient id="SVGID_12_" cx="90.7539" cy="4.3667" r="6.4431" gradientTransform="matrix(1.94 0 0 1.9403 -59.4377 6.5259)" gradientUnits="userSpaceOnUse">
				<stop  offset="0" style="stop-color:#FFE254"/>
				<stop  offset="0.1471" style="stop-color:#FADB51"/>
				<stop  offset="0.363" style="stop-color:#EDC749"/>
				<stop  offset="0.621" style="stop-color:#D6A73B"/>
				<stop  offset="0.9095" style="stop-color:#B87B29"/>
				<stop  offset="1" style="stop-color:#AD6B22"/>
			</radialGradient>
			<path fill="url(#SVGID_12_)" d="M116.625,2.5c-6.901,0-12.5,5.594-12.5,12.5c0,6.907,5.599,12.5,12.5,12.5
				c6.903,0,12.5-5.594,12.5-12.5C129.125,8.093,123.528,2.5,116.625,2.5z"/>
		</g>
	</g>
	<g id="cdpPicture0Style4">
		<rect x="136.375" y="0" fill="none" width="30" height="30"/>
		<g>
			<linearGradient id="SVGID_13_" gradientUnits="userSpaceOnUse" x1="151.375" y1="-9.765625e-004" x2="151.375" y2="29.9995">
				<stop  offset="0" style="stop-color:#2D2D2E"/>
				<stop  offset="1" style="stop-color:#585C5E"/>
			</linearGradient>
			<circle fill="url(#SVGID_13_)" cx="151.375" cy="14.999" r="15"/>
			
				<radialGradient id="SVGID_14_" cx="108.666" cy="4.3667" r="6.4431" gradientTransform="matrix(1.94 0 0 1.9403 -59.4377 6.5259)" gradientUnits="userSpaceOnUse">
				<stop  offset="0" style="stop-color:#F8A693"/>
				<stop  offset="0.1333" style="stop-color:#F38478"/>
				<stop  offset="0.3329" style="stop-color:#ED5754"/>
				<stop  offset="0.525" style="stop-color:#E83438"/>
				<stop  offset="0.7051" style="stop-color:#E51B23"/>
				<stop  offset="0.8684" style="stop-color:#E30B17"/>
				<stop  offset="1" style="stop-color:#E20613"/>
			</radialGradient>
			<path display="none" fill="url(#SVGID_14_)" d="M151.375,2.5c-6.901,0-12.5,5.594-12.5,12.5c0,6.907,5.599,12.5,12.5,12.5
				c6.903,0,12.5-5.594,12.5-12.5C163.875,8.093,158.278,2.5,151.375,2.5z"/>
			
				<radialGradient id="SVGID_15_" cx="108.8115" cy="21.1152" r="30.1665" gradientTransform="matrix(0.4144 0 0 0.4144 106.2873 6.281)" gradientUnits="userSpaceOnUse">
				<stop  offset="0" style="stop-color:#F16357"/>
				<stop  offset="0.2031" style="stop-color:#EB5A51"/>
				<stop  offset="0.5294" style="stop-color:#DB4341"/>
				<stop  offset="0.9361" style="stop-color:#C21D27"/>
				<stop  offset="1" style="stop-color:#BD1622"/>
			</radialGradient>
			<circle display="none" fill="url(#SVGID_15_)" cx="151.375" cy="15.03" r="12.5"/>
			<g>
				<radialGradient id="SVGID_16_" cx="151.375" cy="15.333" r="12.5" gradientUnits="userSpaceOnUse">
					<stop  offset="0" style="stop-color:#C72626"/>
					<stop  offset="1" style="stop-color:#800F0F"/>
				</radialGradient>
				<circle fill="url(#SVGID_16_)" cx="151.375" cy="15.333" r="12.5"/>
				
					<radialGradient id="SVGID_17_" cx="-584.1074" cy="152.8428" r="30.1665" gradientTransform="matrix(0.4144 0 0 0.4144 393.4036 -47.999)" gradientUnits="userSpaceOnUse">
					<stop  offset="0" style="stop-color:#FF2E41"/>
					<stop  offset="0.2676" style="stop-color:#FF2142;stop-opacity:0.7324"/>
					<stop  offset="1" style="stop-color:#FF0045;stop-opacity:0"/>
				</radialGradient>
				<circle fill="url(#SVGID_17_)" cx="151.375" cy="15.333" r="12.5"/>
			</g>
		</g>
	</g>
	<g id="cdpPicture0Style5">
		<rect x="171" y="0" fill="none" width="30" height="30"/>
		<g>
			<linearGradient id="SVGID_18_" gradientUnits="userSpaceOnUse" x1="186" y1="-9.765625e-004" x2="186" y2="29.9995">
				<stop  offset="0" style="stop-color:#2D2D2E"/>
				<stop  offset="1" style="stop-color:#585C5E"/>
			</linearGradient>
			<circle fill="url(#SVGID_18_)" cx="186" cy="14.999" r="15"/>
			
				<radialGradient id="SVGID_19_" cx="126.5146" cy="4.3667" r="6.4431" gradientTransform="matrix(1.94 0 0 1.9403 -59.4377 6.5259)" gradientUnits="userSpaceOnUse">
				<stop  offset="0" style="stop-color:#DAF0F5"/>
				<stop  offset="0.1048" style="stop-color:#B5E2F2"/>
				<stop  offset="0.2769" style="stop-color:#7FCEED"/>
				<stop  offset="0.4448" style="stop-color:#51BDE9"/>
				<stop  offset="0.6048" style="stop-color:#2EAFE6"/>
				<stop  offset="0.7547" style="stop-color:#15A6E4"/>
				<stop  offset="0.8906" style="stop-color:#05A0E2"/>
				<stop  offset="1" style="stop-color:#009EE2"/>
			</radialGradient>
			<path display="none" fill="url(#SVGID_19_)" d="M186,2.5c-6.901,0-12.5,5.594-12.5,12.5c0,6.907,5.599,12.5,12.5,12.5
				c6.903,0,12.5-5.594,12.5-12.5C198.5,8.093,192.903,2.5,186,2.5z"/>
			
				<radialGradient id="SVGID_20_" cx="192.373" cy="21.1152" r="30.167" gradientTransform="matrix(0.4144 0 0 0.4144 106.2873 6.281)" gradientUnits="userSpaceOnUse">
				<stop  offset="0" style="stop-color:#3BC5EB"/>
				<stop  offset="0.1471" style="stop-color:#39BCE4"/>
				<stop  offset="0.3834" style="stop-color:#33A5D1"/>
				<stop  offset="0.6794" style="stop-color:#2A7EB1"/>
				<stop  offset="1" style="stop-color:#1E4D89"/>
			</radialGradient>
			<circle fill="url(#SVGID_20_)" cx="186" cy="15.03" r="12.5"/>
		</g>
	</g>
</g>
</svg>
