<?xml version="1.0" encoding="utf-8"?>
<!-- Generator: Adobe Illustrator 21.0.2, SVG Export Plug-In . SVG Version: 6.00 Build 0)  -->
<svg version="1.1" id="svg" xmlns="http://www.w3.org/2000/svg" xmlns:xlink="http://www.w3.org/1999/xlink" x="0px" y="0px"
	 viewBox="0 0 62 250" enable-background="new 0 0 62 250" xml:space="preserve">
<g id="Layer1">
	<path fill="#3A3A3A" d="M62,243.3c0,3.7-0.3,6.7-0.7,6.7H0.7c-0.4,0-0.7-3-0.7-6.7V6.7C0,3,0.3,0,0.7,0h60.5C61.7,0,62,3,62,6.7
		V243.3z"/>
	<g display="none">
		
			<polygon display="inline" fill="#FFFFFF" stroke="#000000" stroke-width="0.75" stroke-linecap="round" stroke-linejoin="round" stroke-miterlimit="10" points="
			93.4,108.3 85.6,92.7 101.3,92.7 		"/>
		
			<text transform="matrix(1 0 0 1 80.0002 89.8332)" display="inline" fill="#FFFFFF" font-family="'MyriadPro-Regular'" font-size="12px">0.650</text>
		<g display="inline">
			<path fill="#3A3A3A" d="M113.7,127H82.3c-0.7,0-1.3,0.6-1.3,1.3v11c0,0.7,0.6,1.3,1.3,1.3h31.4c0.7,0,1.3-0.6,1.3-1.3v-11
				C115,127.5,114.4,127,113.7,127z"/>
			<text transform="matrix(1 0 0 1 83.6668 137.6663)" fill="#FFFFFF" font-family="'MyriadPro-Regular'" font-size="12px">0.600</text>
		</g>
		<g display="inline">
			<path fill="#FFFFFF" stroke="#000000" stroke-width="0.5" stroke-miterlimit="10" d="M96.8,113.3c0.3,0,0.6,0.2,0.7,0.4l6.2,12.4
				c0.1,0.2,0.1,0.5,0,0.8c-0.1,0.2-0.4,0.4-0.7,0.4H90.6c-0.3,0-0.5-0.1-0.7-0.4c-0.1-0.2-0.2-0.5,0-0.8l6.2-12.4
				C96.3,113.5,96.5,113.3,96.8,113.3z M101.8,125.7l-4.9-9.9l-4.9,9.9H101.8z"/>
		</g>
	</g>
	<g id="Knob" display="none">
		<g display="inline">
			<g>
				<path fill="#3A3A3A" d="M47.7,4.5v31.4c0,0.7,0.6,1.3,1.3,1.3h11c0.7,0,1.3-0.6,1.3-1.3V4.5c0-0.7-0.6-1.3-1.3-1.3H49
					C48.3,3.2,47.7,3.8,47.7,4.5z"/>
				
					<text transform="matrix(4.489659e-11 -1 1 4.489659e-11 58.4386 34.5645)" display="none" fill="#FFFFFF" font-family="'MyriadPro-Regular'" font-size="12px">0.600</text>
			</g>
			<g>
				<path fill="#FFFFFF" stroke="#000000" stroke-width="0.5" stroke-miterlimit="10" d="M34.1,20.2c0-0.3,0.2-0.6,0.4-0.7l12.4-6.2
					c0.2-0.1,0.5-0.1,0.8,0c0.2,0.1,0.4,0.4,0.4,0.7v12.4c0,0.3-0.1,0.5-0.4,0.7c-0.2,0.1-0.5,0.2-0.8,0l-12.4-6.2
					C34.3,20.8,34.1,20.5,34.1,20.2z M46.5,15.3l-9.9,4.9l9.9,4.9V15.3z"/>
			</g>
		</g>
		<rect x="32.4" y="2.7" display="inline" fill="none" width="29.6" height="35"/>
	</g>
	<g id="cdpKnob">
		<g>
			<g>
				<path fill="#3A3A3A" d="M55-3.3v47.1c0,1.1,0.9,1.9,1.9,1.9h16.5c1.1,0,1.9-0.9,1.9-1.9V-3.3c0-1.1-0.9-1.9-1.9-1.9H56.9
					C55.9-5.3,55-4.4,55-3.3z"/>
				
					<text transform="matrix(4.489659e-11 -1 1 4.489659e-11 58.4386 34.5645)" display="none" fill="#FFFFFF" font-family="'MyriadPro-Regular'" font-size="12px">0.600</text>
			</g>
			<g>
				<path fill="#FFFFFF" stroke="#000000" stroke-width="0.5" stroke-miterlimit="10" d="M34.5,20.2c0-0.5,0.3-0.9,0.7-1.1l18.6-9.3
					c0.4-0.2,0.8-0.2,1.2,0.1c0.3,0.2,0.6,0.6,0.6,1v18.6c0,0.4-0.2,0.8-0.6,1c-0.4,0.2-0.8,0.2-1.2,0.1l-18.6-9.3
					C34.8,21.1,34.5,20.7,34.5,20.2z M53.2,12.8l-14.8,7.4l14.8,7.4V12.8z"/>
			</g>
			<polygon fill="#3A3A3A" stroke="#000000" stroke-width="0.5" stroke-miterlimit="10" points="53.2,12.8 38.4,20.2 53.2,27.6 			
				"/>
		</g>
		<rect x="32" y="-6" fill="none" width="44.4" height="52.5"/>
	</g>
	<rect id="cdpRail" fill="none" width="62" height="250"/>
</g>
<g id="Styles">
	<g id="cdpKnobStyleOld" display="none">
		<g display="inline">
			
				<polygon fill="#FFFFFF" stroke="#000000" stroke-width="0.75" stroke-linecap="round" stroke-linejoin="round" stroke-miterlimit="10" points="
				29.1,24.3 13.4,32.1 13.4,16.5 			"/>
			
				<text transform="matrix(4.489659e-11 -1 1 4.489659e-11 10.6055 37.7314)" fill="#FFFFFF" font-family="'MyriadPro-Regular'" font-size="12px">0.650</text>
		</g>
		<rect x="0.4" y="6.8" display="inline" fill="none" width="29.6" height="35"/>
	</g>
	<g id="cdpKnobStyle1">
		<g>
			
				<polygon fill="#FFFFFF" stroke="#000000" stroke-width="0.75" stroke-linecap="round" stroke-linejoin="round" stroke-miterlimit="10" points="
				13.6,24.3 -9.9,36.1 -9.9,12.6 			"/>
			
				<text transform="matrix(4.489660e-11 -1 1 4.489660e-11 -14.1121 44.4395)" display="none" fill="#FFFFFF" font-family="'MyriadPro-Regular'" font-size="18px">0.650</text>
		</g>
		<rect x="-29.4" y="-1.9" fill="none" width="44.4" height="52.5"/>
	</g>
	<rect id="cdpRailStyle1" fill="none" width="62" height="250"/>
</g>
</svg>
