<?xml version="1.0" encoding="utf-8"?>
<!-- Generator: Adobe Illustrator 15.0.1, SVG Export Plug-In . SVG Version: 6.00 Build 0)  -->
<!DOCTYPE svg PUBLIC "-//W3C//DTD SVG 1.1//EN" "http://www.w3.org/Graphics/SVG/1.1/DTD/svg11.dtd">
<svg version="1.1" id="svg" xmlns="http://www.w3.org/2000/svg" xmlns:xlink="http://www.w3.org/1999/xlink" x="0px" y="0px"
	 width="128.887px" height="88.75px" viewBox="0 0 128.887 88.75" enable-background="new 0 0 128.887 88.75" xml:space="preserve">
<g id="Drawings__x28_not_parsed_x29_">
	<linearGradient id="bakgrunn_3_" gradientUnits="userSpaceOnUse" x1="64.3872" y1="19.0098" x2="64.3872" y2="0.6654">
		<stop  offset="0" style="stop-color:#434648"/>
		<stop  offset="0.5654" style="stop-color:#45484A"/>
		<stop  offset="0.7691" style="stop-color:#4C4E4F"/>
		<stop  offset="0.9137" style="stop-color:#575959"/>
		<stop  offset="1" style="stop-color:#636363"/>
	</linearGradient>
	<rect id="bakgrunn_2_" x="-0.113" y="0.25" fill="url(#bakgrunn_3_)" width="129" height="89"/>
	<linearGradient id="bakgrunn_4_" gradientUnits="userSpaceOnUse" x1="167.8872" y1="19.0098" x2="167.8872" y2="0.6654">
		<stop  offset="0" style="stop-color:#434648"/>
		<stop  offset="0.5654" style="stop-color:#45484A"/>
		<stop  offset="0.7691" style="stop-color:#4C4E4F"/>
		<stop  offset="0.9137" style="stop-color:#575959"/>
		<stop  offset="1" style="stop-color:#636363"/>
	</linearGradient>
	<rect id="bakgrunn_1_" x="136.887" y="0.25" fill="url(#bakgrunn_4_)" width="62" height="89"/>
	<linearGradient id="gradient_1_" gradientUnits="userSpaceOnUse" x1="19.8872" y1="36.75" x2="119.8872" y2="36.75">
		<stop  offset="0" style="stop-color:#000000"/>
		<stop  offset="1" style="stop-color:#303030"/>
	</linearGradient>
	<rect id="gradient" x="19.887" y="6.25" fill="url(#gradient_1_)" width="100" height="61"/>
	<g id="numbers">
		<text transform="matrix(1 0 0 1 3.8872 70.583)" fill="#FFFFFF" font-family="'MyriadPro-Regular'" font-size="12">1</text>
		<text transform="matrix(1 0 0 1 4.2207 40.583)" fill="#FFFFFF" font-family="'MyriadPro-Regular'" font-size="12">2</text>
		<text transform="matrix(1 0 0 1 3.5537 10.25)" fill="#FFFFFF" font-family="'MyriadPro-Regular'" font-size="12">3</text>
		<text transform="matrix(1 0 0 1 13.8872 84.9165)" fill="#FFFFFF" font-family="'MyriadPro-Regular'" font-size="12">16:00</text>
		<text transform="matrix(1 0 0 1 53.2202 85.5835)" fill="#FFFFFF" font-family="'MyriadPro-Regular'" font-size="12">16:01</text>
		<text transform="matrix(1 0 0 1 98.8867 85.5835)" fill="#FFFFFF" font-family="'MyriadPro-Regular'" font-size="12">16:02</text>
	</g>
	<g id="scale_1_">
		<line fill="#FFFFFF" stroke="#FFFFFF" stroke-miterlimit="10" x1="14.887" y1="51.75" x2="16.887" y2="51.75"/>
		<line fill="none" stroke="#FFFFFF" stroke-width="2" stroke-miterlimit="10" x1="17.887" y1="66.25" x2="12.887" y2="66.25"/>
		<line fill="#FFFFFF" stroke="#FFFFFF" stroke-width="2" stroke-miterlimit="10" x1="17.887" y1="37.25" x2="12.887" y2="37.25"/>
		<line fill="none" stroke="#FFFFFF" stroke-width="2" stroke-miterlimit="10" x1="17.887" y1="7.25" x2="12.887" y2="7.25"/>
		<line fill="#FFFFFF" stroke="#FFFFFF" stroke-miterlimit="10" x1="14.887" y1="21.75" x2="16.887" y2="21.75"/>
		<line fill="#FFFFFF" stroke="#FFFFFF" stroke-miterlimit="10" x1="94.387" y1="71.25" x2="94.387" y2="69.25"/>
		
			<line fill="#FFFFFF" stroke="#FFFFFF" stroke-width="2" stroke-miterlimit="10" x1="118.887" y1="69.25" x2="118.887" y2="74.25"/>
		<line fill="#FFFFFF" stroke="#FFFFFF" stroke-width="2" stroke-miterlimit="10" x1="68.887" y1="69.25" x2="68.887" y2="74.25"/>
		<line fill="#FFFFFF" stroke="#FFFFFF" stroke-width="2" stroke-miterlimit="10" x1="20.887" y1="69.25" x2="20.887" y2="74.25"/>
		<line fill="#FFFFFF" stroke="#FFFFFF" stroke-miterlimit="10" x1="45.387" y1="71.25" x2="45.387" y2="69.25"/>
		<line fill="#FFFFFF" stroke="#FFFFFF" stroke-width="2" stroke-miterlimit="10" x1="19.887" y1="69.25" x2="119.887" y2="69.25"/>
		<line fill="#FFFFFF" stroke="#FFFFFF" stroke-width="2" stroke-miterlimit="10" x1="17.887" y1="6.25" x2="17.887" y2="67.25"/>
	</g>
	<g id="grid">
		<line fill="#F0F7FF" stroke="#666666" stroke-miterlimit="10" x1="45.387" y1="67.25" x2="45.387" y2="6.25"/>
		<line fill="#A7B7CF" stroke="#666666" stroke-width="2" stroke-miterlimit="10" x1="68.887" y1="67.25" x2="68.887" y2="6.25"/>
		<line fill="none" stroke="#666666" stroke-miterlimit="10" x1="94.387" y1="67.25" x2="94.387" y2="6.25"/>
		<line fill="#FFF5B3" stroke="#666666" stroke-width="2" stroke-miterlimit="10" x1="19.887" y1="37.25" x2="119.887" y2="37.25"/>
		<line fill="#FFF5B3" stroke="#666666" stroke-miterlimit="10" x1="19.887" y1="21.75" x2="119.887" y2="21.75"/>
		<line fill="none" stroke="#666666" stroke-miterlimit="10" x1="19.887" y1="51.75" x2="119.887" y2="51.75"/>
	</g>
	<path id="curve" fill="none" stroke="#045D8A" stroke-width="2" stroke-miterlimit="10" d="M19.887,37.25
		c0,0,10.001-51.25,25,0.125c15,51.375,25,0.125,25,0.125s11.501-56.005,24.5,0.123c13,56.127,25.5,0.127,25.5,0.127"/>
</g>
<g id="Layer1">
	<text id="cdpBackStart" transform="matrix(1 0 0 1 140.2207 13.5835)" font-family="'ArialMT'" font-size="12">BackStart</text>
	<text id="cdpBackEnd" transform="matrix(1 0 0 1 140.2207 27.8335)" fill="#303030" font-family="'ArialMT'" font-size="12">BackEnd</text>
	<text id="cdpGrid" transform="matrix(1 0 0 1 140.2207 42.0835)" fill="#666666" font-family="'ArialMT'" font-size="12">Grid</text>
	<text id="cdpCurve" transform="matrix(1 0 0 1 140.2207 56.3335)" fill="#045D8A" font-family="'ArialMT'" font-size="12">Curve</text>
	<text id="cdpText" transform="matrix(1 0 0 1 140.5542 70.5835)" fill="#FFFFFF" font-family="'ArialMT'" font-size="12">Text</text>
</g>
</svg>
