<?xml version="1.0" encoding="utf-8"?>
<!-- Generator: Adobe Illustrator 15.0.1, SVG Export Plug-In . SVG Version: 6.00 Build 0)  -->
<!DOCTYPE svg PUBLIC "-//W3C//DTD SVG 1.1//EN" "http://www.w3.org/Graphics/SVG/1.1/DTD/svg11.dtd">
<svg version="1.1" id="svg" xmlns="http://www.w3.org/2000/svg" xmlns:xlink="http://www.w3.org/1999/xlink" x="0px" y="0px"
	 width="40px" height="200px" viewBox="0 0 40 200" enable-background="new 0 0 40 200" xml:space="preserve">
<g id="Styles">
	
		<linearGradient id="cdpRailStyle1_1_" gradientUnits="userSpaceOnUse" x1="204" y1="-245.1484" x2="204" y2="-251.1104" gradientTransform="matrix(0 -1 1 0 308 304)">
		<stop  offset="0.0208" style="stop-color:#151A1C"/>
		<stop  offset="0.2895" style="stop-color:#39484F"/>
		<stop  offset="0.7325" style="stop-color:#39484F"/>
		<stop  offset="1" style="stop-color:#151A1C"/>
	</linearGradient>
	<rect id="cdpRailStyle1" x="57" fill="url(#cdpRailStyle1_1_)" width="6" height="200"/>
	<g id="cdpKnobStyle1">
		<g>
			
				<radialGradient id="SVGID_1_" cx="214.3398" cy="80.2095" r="10.255" fx="214.5117" fy="77.2872" gradientTransform="matrix(0 0.9486 -1 0 141.7344 -98.5383)" gradientUnits="userSpaceOnUse">
				<stop  offset="0" style="stop-color:#F9F9F9"/>
				<stop  offset="1" style="stop-color:#3FA2DA"/>
			</radialGradient>
			<path fill="url(#SVGID_1_)" d="M70.728,103.823c1.501,0.825,1.501,2.177,0,3.002l-4.542,2.498
				c-1.501,0.825-3.958,2.177-5.459,3.002l-4.769,2.498c-1.501,0.825-2.958,0.099-2.958-1.614v-4.77c0-1.713,0-4.518,0-6.23V97.44
				c0-1.713,1.457-2.439,2.958-1.614l4.654,2.498c1.501,0.826,4.015,2.177,5.517,3.002L70.728,103.823z"/>
			<path fill="none" stroke="#045D8A" d="M70.728,103.823c1.501,0.825,1.501,2.177,0,3.002l-4.542,2.498
				c-1.501,0.825-3.958,2.177-5.459,3.002l-4.519,2.498c-1.501,0.825-2.708,0.099-2.708-1.614v-4.77c0-1.713,0-4.518,0-6.23V97.44
				c0-1.713,1.207-2.439,2.708-1.614l4.529,2.498c1.501,0.826,3.952,2.177,5.454,3.002L70.728,103.823z"/>
		</g>
		<rect x="51.457" y="94.325" fill="none" width="22" height="22"/>
	</g>
</g>
<g id="Layer1">
	
		<linearGradient id="cdpRail_1_" gradientUnits="userSpaceOnUse" x1="45" y1="77.8516" x2="45" y2="71.8896" gradientTransform="matrix(0 -1 1 0 -55 145)">
		<stop  offset="0.0208" style="stop-color:#14191C"/>
		<stop  offset="0.2895" style="stop-color:#39484F"/>
		<stop  offset="0.7325" style="stop-color:#39484F"/>
		<stop  offset="1" style="stop-color:#14191C"/>
	</linearGradient>
	<rect id="cdpRail" x="17" fill="url(#cdpRail_1_)" width="6" height="200"/>
	<g id="KnobBlue__x28_not_in_use_x29_" display="none">
		<g display="inline">
			<linearGradient id="SVGID_2_" gradientUnits="userSpaceOnUse" x1="16.7964" y1="99.0859" x2="30.0662" y2="124.5064">
				<stop  offset="0" style="stop-color:#FFFFFF"/>
				<stop  offset="1" style="stop-color:#A5A7AA"/>
			</linearGradient>
			<path fill="url(#SVGID_2_)" d="M20,117.973c-7.03,0-12.75-5.72-12.75-12.75s5.72-12.75,12.75-12.75s12.75,5.72,12.75,12.75
				S27.03,117.973,20,117.973z"/>
			<path fill="#6E6F70" d="M20,92.723c6.893,0,12.5,5.607,12.5,12.5s-5.607,12.5-12.5,12.5s-12.5-5.607-12.5-12.5
				S13.107,92.723,20,92.723 M20,92.223c-7.178,0-13,5.82-13,13s5.822,13,13,13c7.18,0,13-5.82,13-13S27.18,92.223,20,92.223
				L20,92.223z"/>
		</g>
		<g display="inline">
			
				<linearGradient id="SVGID_3_" gradientUnits="userSpaceOnUse" x1="290.3818" y1="305.7939" x2="277.3819" y2="276.3112" gradientTransform="matrix(0 -1 1 0 -274.7227 390.7227)">
				<stop  offset="0" style="stop-color:#FFFFFF"/>
				<stop  offset="1" style="stop-color:#A5A7AA"/>
			</linearGradient>
			<circle fill="url(#SVGID_3_)" cx="20" cy="105.223" r="9"/>
		</g>
		<g display="inline">
			<radialGradient id="SVGID_4_" cx="18.0903" cy="101.3896" r="6.1823" gradientUnits="userSpaceOnUse">
				<stop  offset="0" style="stop-color:#D1EBF9"/>
				<stop  offset="1" style="stop-color:#3DA2DB"/>
			</radialGradient>
			<path fill="url(#SVGID_4_)" d="M20,112.223c-3.86,0-7-3.141-7-7s3.14-7,7-7c3.859,0,7,3.141,7,7S23.859,112.223,20,112.223z"/>
			<g>
				<path fill="#0580B7" d="M20,98.723c3.584,0,6.5,2.916,6.5,6.5s-2.916,6.5-6.5,6.5s-6.5-2.916-6.5-6.5S16.416,98.723,20,98.723
					 M20,97.723c-4.143,0-7.5,3.357-7.5,7.5s3.357,7.5,7.5,7.5c4.141,0,7.5-3.357,7.5-7.5S24.141,97.723,20,97.723L20,97.723z"/>
			</g>
		</g>
		<rect x="7" y="92.223" display="inline" fill="none" width="26" height="26"/>
	</g>
	<g id="cdpKnobDisabled" opacity="0.3">
		<g>
			
				<radialGradient id="SVGID_5_" cx="158.4668" cy="88.21" r="10.2553" fx="158.6387" fy="85.2876" gradientTransform="matrix(0 0.9486 -1 0 195.7344 -44.5383)" gradientUnits="userSpaceOnUse">
				<stop  offset="0" style="stop-color:#F9F9F9"/>
				<stop  offset="1" style="stop-color:#3FA2DA"/>
			</radialGradient>
			<path fill="url(#SVGID_5_)" d="M116.727,104.823c1.501,0.825,1.501,2.177,0,3.002l-4.541,2.498
				c-1.501,0.825-3.958,2.177-5.459,3.002l-4.77,2.498c-1.5,0.825-2.957,0.099-2.957-1.614v-4.77c0-1.713,0-4.518,0-6.23v-4.77
				c0-1.713,1.457-2.439,2.957-1.613l4.655,2.498c1.501,0.826,4.016,2.178,5.517,3.003L116.727,104.823z"/>
			<path fill="none" stroke="#045D8A" d="M116.727,104.823c1.501,0.825,1.501,2.177,0,3.002l-4.541,2.498
				c-1.501,0.825-3.958,2.177-5.459,3.002l-4.52,2.498c-1.5,0.825-2.707,0.099-2.707-1.614v-4.77c0-1.713,0-4.518,0-6.23v-4.77
				c0-1.713,1.207-2.439,2.707-1.613l4.53,2.498c1.501,0.826,3.953,2.178,5.454,3.003L116.727,104.823z"/>
		</g>
		<rect x="97.456" y="95.324" fill="none" width="22" height="22"/>
	</g>
	<g id="cdpKnob">
		<g>
			
				<radialGradient id="SVGID_6_" cx="214.3398" cy="120.21" r="10.2548" fx="214.5117" fy="117.2878" gradientTransform="matrix(0 0.9486 -1 0 141.7344 -98.5383)" gradientUnits="userSpaceOnUse">
				<stop  offset="0" style="stop-color:#F9F9F9"/>
				<stop  offset="1" style="stop-color:#3FA2DA"/>
			</radialGradient>
			<path fill="url(#SVGID_6_)" d="M30.728,103.823c1.501,0.825,1.501,2.177,0,3.002l-4.542,2.498
				c-1.501,0.825-3.958,2.177-5.459,3.002l-4.769,2.498c-1.501,0.825-2.958,0.099-2.958-1.614v-4.77c0-1.713,0-4.518,0-6.23V97.44
				c0-1.713,1.457-2.439,2.958-1.614l4.654,2.498c1.501,0.826,4.015,2.177,5.517,3.002L30.728,103.823z"/>
			<path fill="none" stroke="#045D8A" d="M30.728,103.823c1.501,0.825,1.501,2.177,0,3.002l-4.542,2.498
				c-1.501,0.825-3.958,2.177-5.459,3.002l-4.519,2.498c-1.501,0.825-2.708,0.099-2.708-1.614v-4.77c0-1.713,0-4.518,0-6.23V97.44
				c0-1.713,1.207-2.439,2.708-1.614l4.529,2.498c1.501,0.826,3.952,2.177,5.454,3.002L30.728,103.823z"/>
		</g>
		<rect x="11.457" y="94.325" fill="none" width="22" height="22"/>
	</g>
	<text id="cdpTextScale" transform="matrix(1 0 0 1 123.7061 111)" fill="#FFFFFF" font-family="'Arial-BoldMT'" font-size="14">2</text>
</g>
</svg>
