<?xml version="1.0" encoding="utf-8"?>
<!-- Generator: Adobe Illustrator 15.0.1, SVG Export Plug-In . SVG Version: 6.00 Build 0)  -->
<!DOCTYPE svg PUBLIC "-//W3C//DTD SVG 1.1//EN" "http://www.w3.org/Graphics/SVG/1.1/DTD/svg11.dtd">
<svg version="1.1" id="svg" xmlns="http://www.w3.org/2000/svg" xmlns:xlink="http://www.w3.org/1999/xlink" x="0px" y="0px"
	 width="40px" height="200px" viewBox="0 0 40 200" enable-background="new 0 0 40 200" xml:space="preserve">
<g id="Styles">
	
		<linearGradient id="cdpRailStyle1_1_" gradientUnits="userSpaceOnUse" x1="204" y1="-245.1484" x2="204" y2="-251.1104" gradientTransform="matrix(0 -1 1 0 308 304)">
		<stop  offset="0.0208" style="stop-color:#151A1C"/>
		<stop  offset="0.2895" style="stop-color:#39484F"/>
		<stop  offset="0.7325" style="stop-color:#39484F"/>
		<stop  offset="1" style="stop-color:#151A1C"/>
	</linearGradient>
	<rect id="cdpRailStyle1" x="57" fill="url(#cdpRailStyle1_1_)" width="6" height="200"/>
	<g id="cdpKnobStyle1">
		<g>
			<linearGradient id="SVGID_1_" gradientUnits="userSpaceOnUse" x1="50.5" y1="105.3242" x2="69.5" y2="105.3242">
				<stop  offset="0" style="stop-color:#F8F8F8"/>
				<stop  offset="1" style="stop-color:#3EA2DA"/>
			</linearGradient>
			<path fill="url(#SVGID_1_)" d="M55,124.824c-2.481,0-4.5-2.019-4.5-4.5v-30c0-2.481,2.019-4.5,4.5-4.5h10
				c2.481,0,4.5,2.019,4.5,4.5v30c0,2.481-2.019,4.5-4.5,4.5H55z"/>
			<g>
				<path fill="#045D8A" d="M65,86.325c2.206,0,4,1.794,4,4v30c0,2.206-1.794,4-4,4H55c-2.206,0-4-1.794-4-4v-30
					c0-2.206,1.794-4,4-4H65 M65,85.325H55c-2.75,0-5,2.25-5,5v30c0,2.75,2.25,5,5,5h10c2.75,0,5-2.25,5-5v-30
					C70,87.575,67.75,85.325,65,85.325L65,85.325z"/>
			</g>
		</g>
		
			<radialGradient id="SVGID_2_" cx="58.708" cy="111.084" r="5.4606" fx="54.7092" fy="114.8026" gradientTransform="matrix(0.9999 0.0101 -0.0088 0.8721 0.9815 13.6195)" gradientUnits="userSpaceOnUse">
			<stop  offset="0" style="stop-color:#F9F9F9"/>
			<stop  offset="1" style="stop-color:#3FA2DA"/>
		</radialGradient>
		<path fill="url(#SVGID_2_)" d="M64.002,112.824h-8c-0.83,0-1.502-0.672-1.502-1.5l0,0c0-0.828,0.672-1.5,1.502-1.5l0,0h8
			c0.826,0,1.498,0.672,1.498,1.5l0,0C65.5,112.152,64.828,112.824,64.002,112.824L64.002,112.824z"/>
		
			<radialGradient id="SVGID_3_" cx="58.708" cy="105.084" r="5.4606" fx="54.7092" fy="108.8026" gradientTransform="matrix(0.9999 0.0101 -0.0088 0.8721 0.9286 12.8518)" gradientUnits="userSpaceOnUse">
			<stop  offset="0" style="stop-color:#F9F9F9"/>
			<stop  offset="1" style="stop-color:#3FA2DA"/>
		</radialGradient>
		<path fill="url(#SVGID_3_)" d="M64.002,106.824h-8c-0.83,0-1.502-0.672-1.502-1.5l0,0c0-0.828,0.672-1.5,1.502-1.5l0,0h8
			c0.826,0,1.498,0.672,1.498,1.5l0,0C65.5,106.152,64.828,106.824,64.002,106.824L64.002,106.824z"/>
		
			<radialGradient id="SVGID_4_" cx="58.708" cy="99.0845" r="5.4606" fx="54.7092" fy="102.803" gradientTransform="matrix(0.9999 0.0101 -0.0088 0.8721 0.8758 12.0842)" gradientUnits="userSpaceOnUse">
			<stop  offset="0" style="stop-color:#F9F9F9"/>
			<stop  offset="1" style="stop-color:#3FA2DA"/>
		</radialGradient>
		<path fill="url(#SVGID_4_)" d="M64.002,100.825h-8c-0.83,0-1.502-0.672-1.502-1.5l0,0c0-0.828,0.672-1.5,1.502-1.5l0,0h8
			c0.826,0,1.498,0.672,1.498,1.5l0,0C65.5,100.153,64.828,100.825,64.002,100.825L64.002,100.825z"/>
		<rect x="50" y="85.325" fill="none" width="20" height="40"/>
	</g>
</g>
<g id="Layer1">
	
		<linearGradient id="cdpRail_1_" gradientUnits="userSpaceOnUse" x1="45" y1="77.8516" x2="45" y2="71.8896" gradientTransform="matrix(0 -1 1 0 -55 145)">
		<stop  offset="0.0208" style="stop-color:#14191C"/>
		<stop  offset="0.2895" style="stop-color:#39484F"/>
		<stop  offset="0.7325" style="stop-color:#39484F"/>
		<stop  offset="1" style="stop-color:#14191C"/>
	</linearGradient>
	<rect id="cdpRail" x="17" fill="url(#cdpRail_1_)" width="6" height="200"/>
	<g id="KnobBlue__x28_not_in_use_x29_" display="none">
		<g display="inline">
			<linearGradient id="SVGID_5_" gradientUnits="userSpaceOnUse" x1="16.7964" y1="99.0859" x2="30.0662" y2="124.5064">
				<stop  offset="0" style="stop-color:#FFFFFF"/>
				<stop  offset="1" style="stop-color:#A5A7AA"/>
			</linearGradient>
			<path fill="url(#SVGID_5_)" d="M20,117.973c-7.03,0-12.75-5.72-12.75-12.75s5.72-12.75,12.75-12.75s12.75,5.72,12.75,12.75
				S27.03,117.973,20,117.973z"/>
			<path fill="#6E6F70" d="M20,92.723c6.893,0,12.5,5.607,12.5,12.5s-5.607,12.5-12.5,12.5s-12.5-5.607-12.5-12.5
				S13.107,92.723,20,92.723 M20,92.223c-7.178,0-13,5.82-13,13s5.822,13,13,13c7.18,0,13-5.82,13-13S27.18,92.223,20,92.223
				L20,92.223z"/>
		</g>
		<g display="inline">
			
				<linearGradient id="SVGID_6_" gradientUnits="userSpaceOnUse" x1="290.3818" y1="305.7939" x2="277.3819" y2="276.3112" gradientTransform="matrix(0 -1 1 0 -274.7227 390.7227)">
				<stop  offset="0" style="stop-color:#FFFFFF"/>
				<stop  offset="1" style="stop-color:#A5A7AA"/>
			</linearGradient>
			<circle fill="url(#SVGID_6_)" cx="20" cy="105.223" r="9"/>
		</g>
		<g display="inline">
			<radialGradient id="SVGID_7_" cx="18.0903" cy="101.3896" r="6.1823" gradientUnits="userSpaceOnUse">
				<stop  offset="0" style="stop-color:#D1EBF9"/>
				<stop  offset="1" style="stop-color:#3DA2DB"/>
			</radialGradient>
			<path fill="url(#SVGID_7_)" d="M20,112.223c-3.86,0-7-3.141-7-7s3.14-7,7-7c3.859,0,7,3.141,7,7S23.859,112.223,20,112.223z"/>
			<g>
				<path fill="#0580B7" d="M20,98.723c3.584,0,6.5,2.916,6.5,6.5s-2.916,6.5-6.5,6.5s-6.5-2.916-6.5-6.5S16.416,98.723,20,98.723
					 M20,97.723c-4.143,0-7.5,3.357-7.5,7.5s3.357,7.5,7.5,7.5c4.141,0,7.5-3.357,7.5-7.5S24.141,97.723,20,97.723L20,97.723z"/>
			</g>
		</g>
		<rect x="7" y="92.223" display="inline" fill="none" width="26" height="26"/>
	</g>
	<g id="cdpKnobDisable" opacity="0.3">
		<g>
			<linearGradient id="SVGID_8_" gradientUnits="userSpaceOnUse" x1="98.9561" y1="106.8242" x2="117.9561" y2="106.8242">
				<stop  offset="0" style="stop-color:#F8F8F8"/>
				<stop  offset="1" style="stop-color:#3EA2DA"/>
			</linearGradient>
			<path fill="url(#SVGID_8_)" d="M103.456,126.324c-2.481,0-4.5-2.019-4.5-4.5v-30c0-2.481,2.019-4.5,4.5-4.5h10
				c2.481,0,4.5,2.019,4.5,4.5v30c0,2.481-2.019,4.5-4.5,4.5H103.456z"/>
			<g>
				<path fill="#045D8A" d="M113.456,87.825c2.206,0,4,1.794,4,4v30c0,2.206-1.794,4-4,4h-10c-2.206,0-4-1.794-4-4v-30
					c0-2.206,1.794-4,4-4H113.456 M113.456,86.825h-10c-2.75,0-5,2.25-5,5v30c0,2.75,2.25,5,5,5h10c2.75,0,5-2.25,5-5v-30
					C118.456,89.075,116.206,86.825,113.456,86.825L113.456,86.825z"/>
			</g>
		</g>
		
			<radialGradient id="SVGID_9_" cx="107.1641" cy="112.584" r="5.4606" fx="103.1652" fy="116.3026" gradientTransform="matrix(0.9999 0.0101 -0.0088 0.8721 0.9972 13.322)" gradientUnits="userSpaceOnUse">
			<stop  offset="0" style="stop-color:#F9F9F9"/>
			<stop  offset="1" style="stop-color:#3FA2DA"/>
		</radialGradient>
		<path fill="url(#SVGID_9_)" d="M112.458,114.324h-8c-0.83,0-1.502-0.672-1.502-1.5l0,0c0-0.828,0.672-1.5,1.502-1.5l0,0h8
			c0.826,0,1.498,0.672,1.498,1.5l0,0C113.956,113.652,113.284,114.324,112.458,114.324L112.458,114.324z"/>
		
			<radialGradient id="SVGID_10_" cx="107.1641" cy="106.584" r="5.4606" fx="103.1652" fy="110.3026" gradientTransform="matrix(0.9999 0.0101 -0.0088 0.8721 0.9443 12.5543)" gradientUnits="userSpaceOnUse">
			<stop  offset="0" style="stop-color:#F9F9F9"/>
			<stop  offset="1" style="stop-color:#3FA2DA"/>
		</radialGradient>
		<path fill="url(#SVGID_10_)" d="M112.458,108.324h-8c-0.83,0-1.502-0.672-1.502-1.5l0,0c0-0.828,0.672-1.5,1.502-1.5l0,0h8
			c0.826,0,1.498,0.672,1.498,1.5l0,0C113.956,107.652,113.284,108.324,112.458,108.324L112.458,108.324z"/>
		
			<radialGradient id="SVGID_11_" cx="107.1641" cy="100.584" r="5.4606" fx="103.1652" fy="104.3026" gradientTransform="matrix(0.9999 0.0101 -0.0088 0.8721 0.8915 11.7867)" gradientUnits="userSpaceOnUse">
			<stop  offset="0" style="stop-color:#F9F9F9"/>
			<stop  offset="1" style="stop-color:#3FA2DA"/>
		</radialGradient>
		<path fill="url(#SVGID_11_)" d="M112.458,102.324h-8c-0.83,0-1.502-0.672-1.502-1.5l0,0c0-0.828,0.672-1.5,1.502-1.5l0,0h8
			c0.826,0,1.498,0.672,1.498,1.5l0,0C113.956,101.652,113.284,102.324,112.458,102.324L112.458,102.324z"/>
		<rect x="98.456" y="86.825" fill="none" width="20" height="40"/>
	</g>
	<g id="cdpKnob">
		<g>
			<linearGradient id="SVGID_12_" gradientUnits="userSpaceOnUse" x1="10.5" y1="105.3242" x2="29.5" y2="105.3242">
				<stop  offset="0" style="stop-color:#F8F8F8"/>
				<stop  offset="1" style="stop-color:#3EA2DA"/>
			</linearGradient>
			<path fill="url(#SVGID_12_)" d="M15,124.824c-2.481,0-4.5-2.019-4.5-4.5v-30c0-2.481,2.019-4.5,4.5-4.5h10
				c2.481,0,4.5,2.019,4.5,4.5v30c0,2.481-2.019,4.5-4.5,4.5H15z"/>
			<g>
				<path fill="#045D8A" d="M25,86.325c2.206,0,4,1.794,4,4v30c0,2.206-1.794,4-4,4H15c-2.206,0-4-1.794-4-4v-30
					c0-2.206,1.794-4,4-4H25 M25,85.325H15c-2.75,0-5,2.25-5,5v30c0,2.75,2.25,5,5,5h10c2.75,0,5-2.25,5-5v-30
					C30,87.575,27.75,85.325,25,85.325L25,85.325z"/>
			</g>
		</g>
		
			<radialGradient id="SVGID_13_" cx="18.708" cy="111.084" r="5.4606" fx="14.7092" fy="114.8026" gradientTransform="matrix(0.9999 0.0101 -0.0088 0.8721 0.9795 14.0235)" gradientUnits="userSpaceOnUse">
			<stop  offset="0" style="stop-color:#F9F9F9"/>
			<stop  offset="1" style="stop-color:#3FA2DA"/>
		</radialGradient>
		<path fill="url(#SVGID_13_)" d="M24.002,112.824h-8c-0.83,0-1.502-0.672-1.502-1.5l0,0c0-0.828,0.672-1.5,1.502-1.5l0,0h8
			c0.826,0,1.498,0.672,1.498,1.5l0,0C25.5,112.152,24.828,112.824,24.002,112.824L24.002,112.824z"/>
		
			<radialGradient id="SVGID_14_" cx="18.708" cy="105.084" r="5.4606" fx="14.7092" fy="108.8026" gradientTransform="matrix(0.9999 0.0101 -0.0088 0.8721 0.9266 13.2558)" gradientUnits="userSpaceOnUse">
			<stop  offset="0" style="stop-color:#F9F9F9"/>
			<stop  offset="1" style="stop-color:#3FA2DA"/>
		</radialGradient>
		<path fill="url(#SVGID_14_)" d="M24.002,106.824h-8c-0.83,0-1.502-0.672-1.502-1.5l0,0c0-0.828,0.672-1.5,1.502-1.5l0,0h8
			c0.826,0,1.498,0.672,1.498,1.5l0,0C25.5,106.152,24.828,106.824,24.002,106.824L24.002,106.824z"/>
		
			<radialGradient id="SVGID_15_" cx="18.708" cy="99.0845" r="5.4606" fx="14.7092" fy="102.803" gradientTransform="matrix(0.9999 0.0101 -0.0088 0.8721 0.8738 12.4883)" gradientUnits="userSpaceOnUse">
			<stop  offset="0" style="stop-color:#F9F9F9"/>
			<stop  offset="1" style="stop-color:#3FA2DA"/>
		</radialGradient>
		<path fill="url(#SVGID_15_)" d="M24.002,100.825h-8c-0.83,0-1.502-0.672-1.502-1.5l0,0c0-0.828,0.672-1.5,1.502-1.5l0,0h8
			c0.826,0,1.498,0.672,1.498,1.5l0,0C25.5,100.153,24.828,100.825,24.002,100.825L24.002,100.825z"/>
		<rect x="10" y="85.325" fill="none" width="20" height="40"/>
	</g>
	
		<text id="cdpTextScale" transform="matrix(1 0 0 1 130.2061 112.8242)" fill="#FFFFFF" font-family="'Arial-BoldMT'" font-size="14">2</text>
</g>
</svg>
