<?xml version="1.0" encoding="utf-8"?>
<!-- Generator: Adobe Illustrator 16.0.0, SVG Export Plug-In . SVG Version: 6.00 Build 0)  -->
<!DOCTYPE svg PUBLIC "-//W3C//DTD SVG 1.1//EN" "http://www.w3.org/Graphics/SVG/1.1/DTD/svg11.dtd">
<svg version="1.1" id="svg" xmlns="http://www.w3.org/2000/svg" xmlns:xlink="http://www.w3.org/1999/xlink" x="0px" y="0px"
	 width="141px" height="141px" viewBox="0 0 141 141" enable-background="new 0 0 141 141" xml:space="preserve">
<g id="Layer1">
	<g id="cdpBackground">
		
			<linearGradient id="SVGID_1_" gradientUnits="userSpaceOnUse" x1="-59.1602" y1="53.7754" x2="81.8398" y2="53.7754" gradientTransform="matrix(1 0 0 -1 59.1602 124.4004)">
			<stop  offset="0" style="stop-color:#363C3C"/>
			<stop  offset="1" style="stop-color:#2E3436"/>
		</linearGradient>
		<rect y="0.125" fill="url(#SVGID_1_)" width="141" height="141"/>
		<g>
			
				<linearGradient id="SVGID_2_" gradientUnits="userSpaceOnUse" x1="-59.1602" y1="53.7754" x2="81.3418" y2="53.7754" gradientTransform="matrix(1 0 0 -1 59.1602 124.4004)">
				<stop  offset="0" style="stop-color:#363C3C"/>
				<stop  offset="1" style="stop-color:#2E3436"/>
			</linearGradient>
			<polygon fill="url(#SVGID_2_)" points="0,141.125 140.502,141.125 140.502,141.125 140.502,0.125 140.501,0.125 0.001,0.125 
				0,0.125 			"/>
			<linearGradient id="lineTopMenu_1_" gradientUnits="userSpaceOnUse" x1="141" y1="70.625" x2="141" y2="70.625">
				<stop  offset="0" style="stop-color:#363C3C"/>
				<stop  offset="1" style="stop-color:#2E3436"/>
			</linearGradient>
			
				<line id="lineTopMenu" fill="url(#lineTopMenu_1_)" stroke="#191F1F" stroke-miterlimit="10" x1="141" y1="141.125" x2="141" y2="0.125"/>
		</g>
	</g>
	
		<linearGradient id="cdpBorderMarginTopLeft_1_" gradientUnits="userSpaceOnUse" x1="-59.1602" y1="119.2754" x2="-49.1602" y2="119.2754" gradientTransform="matrix(1 0 0 -1 59.1602 124.4004)">
		<stop  offset="0" style="stop-color:#363C3C"/>
		<stop  offset="1" style="stop-color:#2E3436"/>
	</linearGradient>
	<rect id="cdpBorderMarginTopLeft" y="0.125" fill="url(#cdpBorderMarginTopLeft_1_)" width="10" height="10"/>
	
		<linearGradient id="cdpBorderMarginBottomRight_1_" gradientUnits="userSpaceOnUse" x1="71.8398" y1="-11.5996" x2="81.8398" y2="-11.5996" gradientTransform="matrix(1 0 0 -1 59.1602 124.4004)">
		<stop  offset="0" style="stop-color:#363C3C"/>
		<stop  offset="1" style="stop-color:#2E3436"/>
	</linearGradient>
	<rect id="cdpBorderMarginBottomRight" x="131" y="131" fill="url(#cdpBorderMarginBottomRight_1_)" width="10" height="10"/>
</g>
<linearGradient id="SVGID_3_" gradientUnits="userSpaceOnUse" x1="91.8037" y1="82.9365" x2="125.8751" y2="48.8651" gradientTransform="matrix(1 0 0 -1 59.1602 124.4004)">
	<stop  offset="0" style="stop-color:#363C3C"/>
	<stop  offset="1" style="stop-color:#2E3436"/>
</linearGradient>
<path fill="url(#SVGID_3_)" d="M186.5,72c0,2.762-2.238,5-5,5h-27c-2.762,0-5-2.238-5-5V45c0-2.762,2.238-5,5-5h27
	c2.762,0,5,2.238,5,5V72z"/>
</svg>
