<?xml version="1.0" encoding="utf-8"?>
<!-- Generator: Adobe Illustrator 21.0.2, SVG Export Plug-In . SVG Version: 6.00 Build 0)  -->
<svg version="1.1" id="svg" xmlns="http://www.w3.org/2000/svg" xmlns:xlink="http://www.w3.org/1999/xlink" x="0px" y="0px"
	 viewBox="0 0 40 50" style="enable-background:new 0 0 40 50;" xml:space="preserve">
<style type="text/css">
	.st0{display:none;}
	.st1{display:inline;fill:url(#SVGID_1_);}
	.st2{fill:url(#SVGID_2_);}
	.st3{fill:none;stroke:#0F0F0F;stroke-width:3;stroke-miterlimit:10;}
	.st4{fill:none;}
	.st5{fill:#434648;}
	.st6{opacity:0.8;}
	.st7{fill:none;stroke:#0F0F0F;stroke-miterlimit:10;}
	.st8{opacity:0.1;}
	.st9{fill:none;stroke:#FFFFFF;stroke-miterlimit:10;}
	.st10{fill:url(#SVGID_3_);}
	.st11{fill:#363C3C;}
	.st12{fill:#1C2121;}
	.st13{fill:url(#SVGID_4_);}
	.st14{fill:none;stroke:#19191A;stroke-miterlimit:10;}
</style>
<g id="Layer1">
	<g id="back" class="st0">
		
			<linearGradient id="SVGID_1_" gradientUnits="userSpaceOnUse" x1="-9.7854" y1="57.2854" x2="52.7858" y2="-5.2858" gradientTransform="matrix(1 0 0 -1 0 52)">
			<stop  offset="0" style="stop-color:#363C3C"/>
			<stop  offset="1" style="stop-color:#2E3436"/>
		</linearGradient>
		<path class="st1" d="M56,52c0,2.8-2.2,5-5,5H-8c-2.8,0-5-2.2-5-5V0c0-2.8,2.2-5,5-5h59c2.8,0,5,2.2,5,5V52z"/>
	</g>
	<g id="cdpBackground">
		<g id="back_9_">
			
				<linearGradient id="SVGID_2_" gradientUnits="userSpaceOnUse" x1="2.4646" y1="39.5354" x2="36.5358" y2="5.4642" gradientTransform="matrix(1 0 0 -1 0 52)">
				<stop  offset="0" style="stop-color:#363C3C"/>
				<stop  offset="1" style="stop-color:#2E3436"/>
			</linearGradient>
			<path class="st2" d="M38,43c0,2.8-2.2,5-5,5H6c-2.8,0-5-2.2-5-5V16c0-2.8,2.2-5,5-5h27c2.8,0,5,2.2,5,5V43z"/>
			<path class="st3" d="M38.5,43.5c0,2.8-2.2,5-5,5h-27c-2.8,0-5-2.2-5-5v-27c0-2.8,2.2-5,5-5h27c2.8,0,5,2.2,5,5V43.5z"/>
		</g>
		<rect id="rect_1_" class="st4" width="40" height="50"/>
	</g>
	<rect id="cdpBorderMarginBottomRight" x="34" y="44" class="st4" width="6" height="6"/>
	<rect id="cdpBorderMarginTopLeft" class="st4" width="6" height="16"/>
</g>
<g id="Styles">
	<g id="cdpBackgroundStyle4">
		<g id="back_without_border_1_">
			<path class="st5" d="M39,44c0,2.8-2.2,5-5,5H5c-2.8,0-5-2.2-5-5V15c0-2.8,2.2-5,5-5h29c2.8,0,5,2.2,5,5V44z"/>
		</g>
		<g id="border_1_" class="st6">
			<path class="st7" d="M39.5,44.5c0,2.8-2.2,5-5,5h-29c-2.8,0-5-2.2-5-5v-29c0-2.8,2.2-5,5-5h29c2.8,0,5,2.2,5,5V44.5z"/>
		</g>
		<g id="back_1_" class="st8">
			<path class="st9" d="M38.5,44.5c0,2.2-1.8,4-4,4h-29c-2.2,0-4-1.8-4-4v-29c0-2.2,1.8-4,4-4h29c2.2,0,4,1.8,4,4V44.5z"/>
		</g>
		<rect id="rect_5_" class="st4" width="40" height="50"/>
	</g>
	<g id="cdpBackgroundStyle3">
		<g id="back_without_border">
			
				<linearGradient id="SVGID_3_" gradientUnits="userSpaceOnUse" x1="1.4646" y1="40.5354" x2="37.5357" y2="4.4642" gradientTransform="matrix(1 0 0 -1 0 52)">
				<stop  offset="0" style="stop-color:#363C3C"/>
				<stop  offset="1" style="stop-color:#2E3436"/>
			</linearGradient>
			<path class="st10" d="M39,44c0,2.8-2.2,5-5,5H5c-2.8,0-5-2.2-5-5V15c0-2.8,2.2-5,5-5h29c2.8,0,5,2.2,5,5V44z"/>
		</g>
		<g id="border" class="st6">
			<path class="st7" d="M39.5,44.5c0,2.8-2.2,5-5,5h-29c-2.8,0-5-2.2-5-5v-29c0-2.8,2.2-5,5-5h29c2.8,0,5,2.2,5,5V44.5z"/>
		</g>
		<g id="back_4_" class="st8">
			<path class="st9" d="M38.5,44.5c0,2.2-1.8,4-4,4h-29c-2.2,0-4-1.8-4-4v-29c0-2.2,1.8-4,4-4h29c2.2,0,4,1.8,4,4V44.5z"/>
		</g>
		<rect id="rect_4_" class="st4" width="40" height="50"/>
	</g>
	<g id="cdpBackgroundStyle2">
		<rect id="rect_3_" x="87" class="st4" width="40" height="19"/>
		<rect id="lineToCoverTopBorder_1_" x="87" y="10" class="st11" width="40" height="3"/>
		<rect id="lineToCoverUpperPartOfBorder" x="87" y="10" class="st12" width="40" height="2"/>
	</g>
	<g id="cdpBackgroundStyle1">
		<rect id="rect_2_" x="44" class="st4" width="40" height="19"/>
		<rect id="lineToCoverTopBorder" x="44" y="10" class="st11" width="40" height="3"/>
	</g>
</g>
<g>
	
		<linearGradient id="SVGID_4_" gradientUnits="userSpaceOnUse" x1="41.4167" y1="-101.8333" x2="41.4167" y2="-1.8333" gradientTransform="matrix(1 0 0 -1 0 52)">
		<stop  offset="0" style="stop-color:#434648"/>
		<stop  offset="0.5654" style="stop-color:#45484A"/>
		<stop  offset="0.7691" style="stop-color:#4C4E4F"/>
		<stop  offset="0.9137" style="stop-color:#575959"/>
		<stop  offset="1" style="stop-color:#636363"/>
	</linearGradient>
	<rect x="-58.6" y="53.8" class="st13" width="200" height="100"/>
	<rect x="-59.1" y="54.3" class="st14" width="200" height="100"/>
</g>
</svg>
