<?xml version="1.0" encoding="utf-8"?>
<!-- Generator: Adobe Illustrator 16.0.0, SVG Export Plug-In . SVG Version: 6.00 Build 0)  -->
<!DOCTYPE svg PUBLIC "-//W3C//DTD SVG 1.1//EN" "http://www.w3.org/Graphics/SVG/1.1/DTD/svg11.dtd">
<svg version="1.1" id="svg" xmlns="http://www.w3.org/2000/svg" xmlns:xlink="http://www.w3.org/1999/xlink" x="0px" y="0px"
	 width="40px" height="40px" viewBox="0 0 40 40" enable-background="new 0 0 40 40" xml:space="preserve">
<g id="Layer1">
	<g id="cdpBackground">
		<g id="back">
			<linearGradient id="SVGID_1_" gradientUnits="userSpaceOnUse" x1="2.4653" y1="2.4653" x2="36.5363" y2="36.5363">
				<stop  offset="0" style="stop-color:#363C3C"/>
				<stop  offset="1" style="stop-color:#2E3436"/>
			</linearGradient>
			<path fill="url(#SVGID_1_)" d="M38,33c0,2.762-2.238,5-5,5H6c-2.761,0-5-2.238-5-5V6c0-2.761,2.239-5,5-5h27c2.762,0,5,2.239,5,5
				V33z"/>
			<path fill="none" stroke="#0F0F0F" stroke-width="3" stroke-miterlimit="10" d="M38.5,33.5c0,2.762-2.238,5-5,5h-27
				c-2.761,0-5-2.238-5-5v-27c0-2.761,2.239-5,5-5h27c2.762,0,5,2.239,5,5V33.5z"/>
		</g>
		<rect id="rect_1_" fill="none" width="40" height="40"/>
	</g>
	<rect id="cdpBorderMarginBottomRight" x="34" y="34" fill="none" width="6" height="6"/>
	<rect id="cdpBorderMarginTopLeft" fill="none" width="6" height="6"/>
</g>
<g id="Styles">
</g>
</svg>
