<?xml version="1.0" encoding="UTF-8" standalone="no"?>
<svg
   xmlns:dc="http://purl.org/dc/elements/1.1/"
   xmlns:cc="http://creativecommons.org/ns#"
   xmlns:rdf="http://www.w3.org/1999/02/22-rdf-syntax-ns#"
   xmlns:svg="http://www.w3.org/2000/svg"
   xmlns="http://www.w3.org/2000/svg"
   xmlns:sodipodi="http://sodipodi.sourceforge.net/DTD/sodipodi-0.dtd"
   xmlns:inkscape="http://www.inkscape.org/namespaces/inkscape"
   version="1.1"
   id="svg"
   x="0px"
   y="0px"
   viewBox="0 0 50 29"
   enable-background="new 0 0 50 29"
   xml:space="preserve"
   sodipodi:docname="buttonRectangle.svg"
   inkscape:version="1.0.2 (1.0.2+r75+1)"><metadata
     id="metadata58"><rdf:RDF><cc:Work
         rdf:about=""><dc:format>image/svg+xml</dc:format><dc:type
           rdf:resource="http://purl.org/dc/dcmitype/StillImage" /></cc:Work></rdf:RDF></metadata><defs
     id="defs56" /><sodipodi:namedview
     pagecolor="#ffffff"
     bordercolor="#666666"
     borderopacity="1"
     objecttolerance="10"
     gridtolerance="10"
     guidetolerance="10"
     inkscape:pageopacity="0"
     inkscape:pageshadow="2"
     inkscape:window-width="1582"
     inkscape:window-height="1436"
     id="namedview54"
     showgrid="false"
     inkscape:zoom="5.24"
     inkscape:cx="25"
     inkscape:cy="14.5"
     inkscape:window-x="2247"
     inkscape:window-y="0"
     inkscape:window-maximized="0"
     inkscape:current-layer="svg" /><rect
     x="-31.6"
     y="-14.8"
     stroke="#000000"
     stroke-miterlimit="10"
     width="114"
     height="88.1"
     id="rect2" /><g
     id="Styles" /><g
     id="Layer1"><g
       id="cdpButtonPressed"><rect
         y="36.3"
         fill="none"
         width="50"
         height="29"
         id="rect5" /><g
         id="g14"><linearGradient
           id="SVGID_1_"
           gradientUnits="userSpaceOnUse"
           x1="25"
           y1="-33.334"
           x2="25"
           y2="-6.334"
           gradientTransform="matrix(1 0 0 -1 0 32)">
				<stop
   offset="0"
   style="stop-color:#515151"
   id="stop7" />
				<stop
   offset="1"
   style="stop-color:#2C2C2C"
   id="stop9" />
			</linearGradient><path
           fill="url(#SVGID_1_)"
           d="M50,63.3c0,1.1-0.9,2-2,2H2c-1.1,0-2-0.9-2-2v-23c0-1.1,0.9-2,2-2h46c1.1,0,2,0.9,2,2V63.3z"
           id="path12" /></g></g><g
       id="cdpButton"><rect
         fill="none"
         width="50"
         height="29"
         id="rect17" /><g
         id="g21"><path
           d="M50,27c0,1.1-0.9,2-2,2H2c-1.1,0-2-0.9-2-2V4c0-1.1,0.9-2,2-2h46c1.1,0,2,0.9,2,2V27z"
           id="path19" /></g><g
         id="g30"><linearGradient
           id="SVGID_2_"
           gradientUnits="userSpaceOnUse"
           x1="25"
           y1="5"
           x2="25"
           y2="32"
           gradientTransform="matrix(1 0 0 -1 0 32)"><stop
             offset="0"
             style="stop-color:#2C2C2C"
             id="stop23" /><stop
             offset="1"
             style="stop-color:#515151"
             id="stop25" /></linearGradient><path
           fill="url(#SVGID_2_)"
           d="M50,25c0,1.1-0.9,2-2,2H2c-1.1,0-2-0.9-2-2V2c0-1.1,0.9-2,2-2h46c1.1,0,2,0.9,2,2V25z"
           id="path28" /></g></g><g
       id="cdpButtonDisabled"><rect
         fill="none"
         width="50"
         height="29"
         id="rect33" /><g
         id="g46"><path
           d="M50,27c0,1.1-0.9,2-2,2H2c-1.1,0-2-0.9-2-2V4c0-1.1,0.9-2,2-2h46c1.1,0,2,0.9,2,2V27z"
           id="path35" /><linearGradient
           id="SVGID_3_"
           gradientUnits="userSpaceOnUse"
           x1="25"
           y1="5"
           x2="25"
           y2="32"
           gradientTransform="matrix(1 0 0 -1 0 32)"><stop
             offset="0"
             style="stop-color:#2C2C2C"
             id="stop37" /><stop
             offset="1"
             style="stop-color:#515151"
             id="stop39" /></linearGradient><path
           fill="url(#SVGID_3_)"
           d="M50,25c0,1.1-0.9,2-2,2H2c-1.1,0-2-0.9-2-2V2c0-1.1,0.9-2,2-2h46c1.1,0,2,0.9,2,2V25z"
           id="path42" /><path
           opacity="0.4"
           enable-background="new    "
           d="M50,25c0,1.1-0.9,2-2,2H2c-1.1,0-2-0.9-2-2V2c0-1.1,0.9-2,2-2h46     c1.1,0,2,0.9,2,2V25z"
           id="path44" /></g></g><text
       id="cdpText"
       transform="matrix(1 0 0 1 13.1338 18.8906)"
       fill="#BABABA"
       font-family="'ArialMT'"
       font-size="16px">SET</text></g></svg>
