<?xml version="1.0" encoding="utf-8"?>
<!-- Generator: Adobe Illustrator 21.0.2, SVG Export Plug-In . SVG Version: 6.00 Build 0)  -->
<svg version="1.1" id="svg" xmlns="http://www.w3.org/2000/svg" xmlns:xlink="http://www.w3.org/1999/xlink" x="0px" y="0px"
	 viewBox="0 0 69.307 74.064" enable-background="new 0 0 69.307 74.064" xml:space="preserve">
<g id="Layer1">
	<g id="cdpBackground">
		<rect x="0.135" y="2.532" fill="none" width="69" height="68.999"/>
		<g>
			<g>
				<path d="M67.121,37.031c0,17.943-14.545,32.488-32.486,32.488c-17.941,0-32.486-14.545-32.486-32.488
					c0-17.94,14.545-32.485,32.486-32.485C52.576,4.546,67.121,19.091,67.121,37.031"/>
				<path opacity="0.4" enable-background="new    " d="M67.121,37.031c0,17.943-14.545,32.488-32.486,32.488
					c-17.941,0-32.486-14.545-32.486-32.488c0-17.94,14.545-32.485,32.486-32.485C52.576,4.546,67.121,19.091,67.121,37.031"/>
			</g>
			
				<linearGradient id="SVGID_1_" gradientUnits="userSpaceOnUse" x1="-32.7259" y1="-1239.0664" x2="1.748" y2="-1273.5404" gradientTransform="matrix(1 0 0 -1 50.1001 -1219.2954)">
				<stop  offset="0" style="stop-color:#212223"/>
				<stop  offset="0.5529" style="stop-color:#2A2B2B"/>
				<stop  offset="0.9895" style="stop-color:#666868"/>
			</linearGradient>
			<path fill="url(#SVGID_1_)" d="M69.135,37.031c0-19.02-15.476-34.499-34.5-34.499c-19.023,0-34.5,15.48-34.5,34.499
				c0,19.024,15.477,34.5,34.5,34.5C53.658,71.531,69.135,56.055,69.135,37.031z M2.149,37.031c0-17.94,14.543-32.485,32.486-32.485
				c17.943,0,32.486,14.545,32.486,32.485c0,17.943-14.543,32.488-32.486,32.488C16.692,69.52,2.149,54.975,2.149,37.031z"/>
			
				<linearGradient id="SVGID_2_" gradientUnits="userSpaceOnUse" x1="-54.6853" y1="557.1677" x2="-112.6853" y2="557.1677" gradientTransform="matrix(1 0 0 1 118.3203 -520.1357)">
				<stop  offset="0" style="stop-color:#707070"/>
				<stop  offset="1" style="stop-color:#B2B2B2"/>
			</linearGradient>
			<circle display="none" fill="url(#SVGID_2_)" cx="34.635" cy="37.032" r="29"/>
			
				<linearGradient id="SVGID_3_" gradientUnits="userSpaceOnUse" x1="-43.5506" y1="-1243.4421" x2="-12.348" y2="-1243.4421" gradientTransform="matrix(1 0 0 -1 50.1001 -1219.2954)">
				<stop  offset="0" style="stop-color:#A6A6A6"/>
				<stop  offset="0.5" style="stop-color:#CCCCCC"/>
				<stop  offset="1" style="stop-color:#999999"/>
			</linearGradient>
			<path display="none" fill="url(#SVGID_3_)" d="M34.635,8.032c-16.017,0-28.999,12.984-28.999,28.999c0,4.397,0.789,4.217,0.789,0
				c0-14.45,13.453-27.924,28.21-27.924C39.668,9.107,39.904,8.032,34.635,8.032z"/>
		</g>
	</g>
	<g id="cdpButton" transform="translate(82.711868,-0.19491522)">
		<rect id="rect94-88_9_" x="-84.05" y="1.168" fill="none" width="71" height="71"/>
		<g display="none" enable-background="new    ">
			<path display="inline" fill="#DB1C24" d="M-67.365,54.934c0-0.875,0.131-1.609,0.393-2.203c0.195-0.438,0.462-0.83,0.8-1.178
				s0.708-0.605,1.11-0.773c0.535-0.227,1.152-0.34,1.852-0.34c1.266,0,2.278,0.393,3.038,1.178s1.14,1.877,1.14,3.275
				c0,1.387-0.377,2.472-1.131,3.255s-1.762,1.175-3.023,1.175c-1.277,0-2.293-0.39-3.047-1.169S-67.365,56.301-67.365,54.934z
				 M-65.578,54.875c0,0.973,0.225,1.71,0.674,2.212s1.02,0.753,1.711,0.753s1.259-0.249,1.702-0.747s0.665-1.245,0.665-2.241
				c0-0.984-0.216-1.719-0.647-2.203s-1.005-0.727-1.72-0.727s-1.291,0.245-1.729,0.735S-65.578,53.887-65.578,54.875z"/>
			<path display="inline" fill="#DB1C24" d="M-58.412,52.953h0.914v-0.469c0-0.523,0.056-0.914,0.167-1.172s0.316-0.468,0.615-0.63
				s0.677-0.243,1.134-0.243c0.469,0,0.928,0.07,1.377,0.211l-0.223,1.148c-0.262-0.063-0.514-0.094-0.756-0.094
				c-0.238,0-0.409,0.056-0.513,0.167s-0.155,0.325-0.155,0.642v0.439h1.23v1.295h-1.23v4.928h-1.646v-4.928h-0.914V52.953z"/>
			<path display="inline" fill="#DB1C24" d="M-54.416,52.953h0.914v-0.469c0-0.523,0.056-0.914,0.167-1.172s0.316-0.468,0.615-0.63
				s0.677-0.243,1.134-0.243c0.469,0,0.928,0.07,1.377,0.211l-0.223,1.148c-0.262-0.063-0.514-0.094-0.756-0.094
				c-0.238,0-0.409,0.056-0.513,0.167s-0.155,0.325-0.155,0.642v0.439h1.23v1.295h-1.23v4.928h-1.646v-4.928h-0.914V52.953z"/>
			<path display="inline" fill="#DB1C24" d="M-49.699,59.176v-8.59h1.646v8.59H-49.699z"/>
			<path display="inline" fill="#DB1C24" d="M-46.366,52.11v-1.523h1.646v1.523H-46.366z M-46.366,59.176v-6.223h1.646v6.223
				H-46.366z"/>
			<path display="inline" fill="#DB1C24" d="M-37.372,59.176h-1.646V56c0-0.672-0.035-1.106-0.105-1.304s-0.185-0.351-0.343-0.46
				s-0.349-0.164-0.571-0.164c-0.285,0-0.541,0.078-0.768,0.234s-0.382,0.363-0.466,0.621s-0.126,0.734-0.126,1.43v2.818h-1.646
				v-6.223h1.529v0.914c0.543-0.703,1.227-1.055,2.051-1.055c0.363,0,0.695,0.065,0.996,0.196s0.528,0.298,0.683,0.501
				s0.262,0.434,0.322,0.691s0.091,0.627,0.091,1.107V59.176z"/>
			<path display="inline" fill="#DB1C24" d="M-32.098,57.196l1.641,0.275c-0.211,0.602-0.544,1.06-0.999,1.374
				s-1.024,0.472-1.708,0.472c-1.082,0-1.883-0.354-2.402-1.061c-0.41-0.566-0.615-1.281-0.615-2.145
				c0-1.031,0.27-1.839,0.809-2.423s1.221-0.876,2.045-0.876c0.926,0,1.656,0.306,2.191,0.917s0.791,1.548,0.768,2.81h-4.125
				c0.012,0.488,0.145,0.868,0.398,1.14s0.57,0.407,0.949,0.407c0.258,0,0.475-0.07,0.65-0.211S-32.188,57.508-32.098,57.196z
				 M-32.005,55.532c-0.012-0.477-0.135-0.839-0.369-1.087s-0.52-0.372-0.855-0.372c-0.359,0-0.656,0.131-0.891,0.393
				s-0.35,0.617-0.346,1.066H-32.005z"/>
		</g>
		<g>
			<g id="g104">
				<path id="path106" inkscape:connector-curvature="0" fill="#DB1C24" d="M-62.5,42.718h27L-49,20.968L-62.5,42.718z
					 M-59.8,41.218l10.8-17.4l10.8,17.4H-59.8z"/>
				
					<circle id="circle108" sodipodi:cx="227.84" sodipodi:cy="26" sodipodi:rx="2" sodipodi:ry="2" fill="#DB1C24" cx="-49" cy="37.468" r="1.5">
				</circle>
				<path id="path110" inkscape:connector-curvature="0" fill="#DB1C24" d="M-49,29.218c-0.825,0-1.5,0.675-1.5,1.5
					s0.675,3.75,1.5,3.75c0.825,0,1.5-2.925,1.5-3.75S-48.175,29.218-49,29.218z"/>
			</g>
			<g enable-background="new    ">
				<path fill="#DB1C24" d="M-62.725,50.593c0-0.675,0.075-1.2,0.3-1.65c0.15-0.3,0.375-0.6,0.6-0.9c0.225-0.3,0.525-0.45,0.825-0.6
					c0.375-0.15,0.9-0.225,1.425-0.225c0.975,0,1.725,0.3,2.25,0.9c0.525,0.6,0.825,1.425,0.825,2.475s-0.3,1.875-0.825,2.475
					s-1.35,0.9-2.25,0.9c-0.975,0-1.725-0.3-2.25-0.9C-62.35,52.468-62.725,51.568-62.725,50.593z M-61.375,50.518
					c0,0.75,0.15,1.275,0.525,1.65s0.75,0.6,1.275,0.6s0.975-0.15,1.275-0.525c0.3-0.375,0.525-0.9,0.525-1.65
					s-0.15-1.275-0.45-1.65s-0.75-0.525-1.275-0.525c-0.525,0-0.975,0.15-1.275,0.525C-61.075,49.318-61.375,49.768-61.375,50.518z"
					/>
				<path fill="#DB1C24" d="M-56.05,49.093h0.675v-0.375c0-0.375,0.075-0.675,0.15-0.9s0.225-0.375,0.45-0.45
					c0.225-0.075,0.525-0.15,0.825-0.15c0.375,0,0.675,0.075,1.05,0.15l-0.15,0.825c-0.225-0.075-0.375-0.075-0.6-0.075
					c-0.15,0-0.3,0.075-0.375,0.15c-0.075,0.075-0.15,0.225-0.15,0.45v0.3h0.9v0.975H-54.1v3.675h-1.2v-3.675h-0.675v-0.9H-56.05z"
					/>
				<path fill="#DB1C24" d="M-53.05,49.093h0.675v-0.375c0-0.375,0.075-0.675,0.15-0.9s0.225-0.375,0.45-0.45
					c0.225-0.075,0.525-0.15,0.825-0.15c0.375,0,0.675,0.075,1.05,0.15l-0.15,0.825c-0.225-0.075-0.375-0.075-0.6-0.075
					c-0.15,0-0.3,0.075-0.375,0.15c-0.075,0.075-0.15,0.225-0.15,0.45v0.3h0.9v0.975H-51.1v3.675h-1.2v-3.675h-0.675v-0.9H-53.05z"
					/>
				<path fill="#DB1C24" d="M-49.525,53.743v-6.45h1.2v6.45H-49.525z"/>
				<path fill="#DB1C24" d="M-46.975,48.418v-1.125h1.2v1.125H-46.975z M-46.975,53.743v-4.65h1.2v4.65H-46.975z"/>
				<path fill="#DB1C24" d="M-40.225,53.743h-1.2v-2.4c0-0.525,0-0.825-0.075-0.975c-0.075-0.15-0.15-0.3-0.225-0.375
					c-0.075-0.075-0.375-0.075-0.525-0.075c-0.225,0-0.375,0.075-0.6,0.15c-0.225,0.075-0.3,0.3-0.375,0.45
					c-0.075,0.15-0.075,0.525-0.075,1.05v2.1h-1.2v-4.65h1.125v0.675c0.375-0.525,0.9-0.825,1.575-0.825
					c0.3,0,0.525,0.075,0.75,0.15c0.225,0.075,0.375,0.225,0.525,0.375c0.15,0.15,0.225,0.3,0.225,0.525s0.075,0.45,0.075,0.825
					V53.743z"/>
				<path fill="#DB1C24" d="M-36.25,52.243l1.2,0.225c-0.15,0.45-0.375,0.825-0.75,1.05s-0.75,0.375-1.275,0.375
					c-0.825,0-1.425-0.3-1.8-0.825c-0.3-0.45-0.45-0.975-0.45-1.575c0-0.75,0.225-1.35,0.6-1.8s0.9-0.675,1.5-0.675
					c0.675,0,1.275,0.225,1.65,0.675s0.6,1.125,0.6,2.1h-3.075c0,0.375,0.075,0.675,0.3,0.825s0.45,0.3,0.675,0.3
					c0.225,0,0.375-0.075,0.525-0.15C-36.4,52.693-36.325,52.468-36.25,52.243z M-36.25,51.043c0-0.375-0.075-0.6-0.3-0.825
					c-0.225-0.225-0.3-0.3-0.6-0.3s-0.525,0.075-0.675,0.3s-0.225,0.45-0.225,0.825H-36.25z"/>
			</g>
		</g>
	</g>
</g>
<g id="Styles">
	<g id="cdpButtonStyle1" transform="translate(-85.161013,3.5063238e-8)">
		<rect id="rect94-8" x="168.15" y="1.168" fill="none" width="71" height="71"/>
		<g id="cdpButton_x5F__1_">
			<rect x="169.15" y="2.168" fill="none" width="69" height="68.999"/>
			<g>
				<g>
					<path d="M236.137,36.667c0,17.943-14.545,32.488-32.486,32.488c-17.941,0-32.486-14.545-32.486-32.488
						c0-17.94,14.545-32.485,32.486-32.485C221.592,4.182,236.137,18.727,236.137,36.667"/>
					<path opacity="0.4" enable-background="new    " d="M236.137,36.667c0,17.943-14.545,32.488-32.486,32.488
						c-17.941,0-32.486-14.545-32.486-32.488c0-17.94,14.545-32.485,32.486-32.485C221.592,4.182,236.137,18.727,236.137,36.667"/>
				</g>
				
					<linearGradient id="SVGID_4_" gradientUnits="userSpaceOnUse" x1="136.2894" y1="-1238.7028" x2="170.7633" y2="-1273.1766" gradientTransform="matrix(1 0 0 -1 50.1001 -1219.2954)">
					<stop  offset="0" style="stop-color:#212223"/>
					<stop  offset="0.5529" style="stop-color:#2A2B2B"/>
					<stop  offset="0.9895" style="stop-color:#666868"/>
				</linearGradient>
				<path fill="url(#SVGID_4_)" d="M238.15,36.667c0-19.021-15.476-34.499-34.5-34.499c-19.023,0-34.5,15.48-34.5,34.499
					c0,19.023,15.477,34.5,34.5,34.5C222.674,71.167,238.15,55.692,238.15,36.667z M171.164,36.667
					c0-17.94,14.543-32.485,32.486-32.485c17.943,0,32.486,14.545,32.486,32.485c0,17.943-14.543,32.488-32.486,32.488
					C185.707,69.157,171.164,54.612,171.164,36.667z"/>
				
					<linearGradient id="SVGID_5_" gradientUnits="userSpaceOnUse" x1="114.33" y1="556.804" x2="56.33" y2="556.804" gradientTransform="matrix(1 0 0 1 118.3203 -520.1357)">
					<stop  offset="0" style="stop-color:#707070"/>
					<stop  offset="1" style="stop-color:#B2B2B2"/>
				</linearGradient>
				<circle fill="url(#SVGID_5_)" cx="203.65" cy="36.668" r="29"/>
				
					<linearGradient id="SVGID_6_" gradientUnits="userSpaceOnUse" x1="125.4648" y1="-1243.0784" x2="156.6673" y2="-1243.0784" gradientTransform="matrix(1 0 0 -1 50.1001 -1219.2954)">
					<stop  offset="0" style="stop-color:#A6A6A6"/>
					<stop  offset="0.5" style="stop-color:#CCCCCC"/>
					<stop  offset="1" style="stop-color:#999999"/>
				</linearGradient>
				<path fill="url(#SVGID_6_)" d="M203.65,7.668c-16.017,0-28.999,12.984-28.999,28.999c0,4.396,0.789,4.217,0.789,0
					c0-14.45,13.453-27.924,28.21-27.924C208.683,8.743,208.919,7.668,203.65,7.668z"/>
			</g>
		</g>
		<g id="None" enable-background="new    ">
			<g>
				<path fill="#CCCCCC" d="M187.473,42.122V31.385h1.458l5.64,8.431v-8.431h1.362v10.737h-1.458l-5.64-8.438v8.438H187.473z"/>
				<path fill="#CCCCCC" d="M197.661,38.234c0-1.44,0.4-2.508,1.201-3.201c0.669-0.576,1.484-0.864,2.446-0.864
					c1.069,0,1.943,0.351,2.622,1.051c0.679,0.701,1.018,1.669,1.018,2.904c0,1.001-0.149,1.788-0.45,2.362
					c-0.3,0.573-0.737,1.02-1.311,1.336c-0.574,0.317-1.2,0.477-1.879,0.477c-1.089,0-1.97-0.349-2.641-1.047
					C197.996,40.553,197.661,39.547,197.661,38.234z M199.016,38.234c0,0.996,0.218,1.741,0.652,2.237
					c0.435,0.495,0.981,0.743,1.641,0.743c0.654,0,1.198-0.249,1.633-0.747s0.652-1.257,0.652-2.278c0-0.961-0.219-1.69-0.655-2.186
					c-0.438-0.496-0.98-0.744-1.63-0.744c-0.659,0-1.206,0.247-1.641,0.74S199.016,37.238,199.016,38.234z"/>
				<path fill="#CCCCCC" d="M206.494,42.122v-7.778h1.187v1.106c0.571-0.854,1.396-1.282,2.476-1.282
					c0.469,0,0.899,0.084,1.292,0.253c0.394,0.168,0.688,0.39,0.883,0.662c0.195,0.274,0.332,0.599,0.41,0.975
					c0.049,0.244,0.073,0.672,0.073,1.281v4.783h-1.318v-4.731c0-0.537-0.051-0.938-0.153-1.205
					c-0.103-0.266-0.285-0.479-0.546-0.637c-0.262-0.159-0.567-0.238-0.919-0.238c-0.562,0-1.047,0.179-1.454,0.534
					c-0.408,0.357-0.611,1.033-0.611,2.029v4.248H206.494z"/>
				<path fill="#CCCCCC" d="M220.161,39.618l1.362,0.169c-0.215,0.796-0.613,1.413-1.194,1.853s-1.323,0.659-2.227,0.659
					c-1.138,0-2.039-0.351-2.706-1.051c-0.666-0.701-1-1.684-1-2.948c0-1.309,0.337-2.324,1.011-3.047s1.548-1.084,2.622-1.084
					c1.04,0,1.89,0.354,2.549,1.062c0.659,0.709,0.989,1.705,0.989,2.988c0,0.079-0.003,0.196-0.008,0.352h-5.801
					c0.049,0.855,0.291,1.51,0.726,1.963c0.435,0.455,0.977,0.682,1.626,0.682c0.483,0,0.896-0.127,1.237-0.381
					S219.961,40.174,220.161,39.618z M215.832,37.486h4.344c-0.059-0.653-0.225-1.145-0.498-1.472
					c-0.42-0.508-0.965-0.762-1.634-0.762c-0.605,0-1.114,0.203-1.526,0.608C216.105,36.266,215.876,36.808,215.832,37.486z"/>
			</g>
			<g>
				<g>
					<path fill="#212223" d="M187.473,41.722V30.985h1.458l5.64,8.431v-8.431h1.362v10.737h-1.458l-5.64-8.438v8.438H187.473z"/>
					<path fill="#212223" d="M197.661,37.834c0-1.44,0.4-2.508,1.201-3.201c0.669-0.576,1.484-0.864,2.446-0.864
						c1.069,0,1.943,0.351,2.622,1.051c0.679,0.701,1.018,1.669,1.018,2.904c0,1.001-0.149,1.788-0.45,2.362
						c-0.3,0.573-0.737,1.02-1.311,1.336c-0.574,0.317-1.2,0.477-1.879,0.477c-1.089,0-1.97-0.349-2.641-1.047
						C197.996,40.153,197.661,39.147,197.661,37.834z M199.016,37.834c0,0.996,0.218,1.741,0.652,2.237
						c0.435,0.495,0.981,0.743,1.641,0.743c0.654,0,1.198-0.249,1.633-0.747s0.652-1.257,0.652-2.278
						c0-0.961-0.219-1.69-0.655-2.186c-0.438-0.496-0.98-0.744-1.63-0.744c-0.659,0-1.206,0.247-1.641,0.74
						S199.016,36.838,199.016,37.834z"/>
					<path fill="#212223" d="M206.494,41.722v-7.778h1.187v1.106c0.571-0.854,1.396-1.282,2.476-1.282
						c0.469,0,0.899,0.084,1.292,0.253c0.394,0.168,0.688,0.39,0.883,0.662c0.195,0.274,0.332,0.599,0.41,0.975
						c0.049,0.244,0.073,0.672,0.073,1.281v4.783h-1.318v-4.731c0-0.537-0.051-0.938-0.153-1.205
						c-0.103-0.266-0.285-0.479-0.546-0.637c-0.262-0.159-0.567-0.238-0.919-0.238c-0.562,0-1.047,0.179-1.454,0.534
						c-0.408,0.357-0.611,1.033-0.611,2.029v4.248H206.494z"/>
					<path fill="#212223" d="M220.161,39.218l1.362,0.169c-0.215,0.796-0.613,1.413-1.194,1.853s-1.323,0.659-2.227,0.659
						c-1.138,0-2.039-0.351-2.706-1.051c-0.666-0.701-1-1.684-1-2.948c0-1.309,0.337-2.324,1.011-3.047s1.548-1.084,2.622-1.084
						c1.04,0,1.89,0.354,2.549,1.062c0.659,0.709,0.989,1.705,0.989,2.988c0,0.079-0.003,0.196-0.008,0.352h-5.801
						c0.049,0.855,0.291,1.51,0.726,1.963c0.435,0.455,0.977,0.682,1.626,0.682c0.483,0,0.896-0.127,1.237-0.381
						S219.961,39.774,220.161,39.218z M215.832,37.086h4.344c-0.059-0.653-0.225-1.145-0.498-1.472
						c-0.42-0.508-0.965-0.762-1.634-0.762c-0.605,0-1.114,0.203-1.526,0.608C216.105,35.866,215.876,36.408,215.832,37.086z"/>
				</g>
			</g>
		</g>
	</g>
	<g id="cdpButtonStyle2" transform="translate(82.711868,-0.19491522)">
		<rect id="rect94-88_8_" x="103.95" y="1.168" fill="none" width="71" height="71"/>
		<g display="none" enable-background="new    ">
			<path display="inline" fill="#FFFFFF" d="M116.482,56.018l1.682,0.533c-0.258,0.938-0.687,1.634-1.286,2.089
				s-1.36,0.683-2.282,0.683c-1.141,0-2.078-0.39-2.813-1.169s-1.102-1.845-1.102-3.196c0-1.43,0.369-2.54,1.107-3.331
				s1.709-1.187,2.912-1.187c1.051,0,1.904,0.311,2.561,0.932c0.391,0.367,0.684,0.895,0.879,1.582l-1.717,0.41
				c-0.102-0.445-0.313-0.797-0.636-1.055s-0.714-0.387-1.175-0.387c-0.637,0-1.153,0.229-1.55,0.686s-0.595,1.197-0.595,2.221
				c0,1.086,0.195,1.859,0.586,2.32s0.898,0.691,1.523,0.691c0.461,0,0.857-0.146,1.189-0.439S116.337,56.647,116.482,56.018z"/>
			<path display="inline" fill="#FFFFFF" d="M122.493,52.953v1.313h-1.125v2.508c0,0.508,0.011,0.804,0.032,0.888
				s0.07,0.153,0.146,0.208s0.169,0.082,0.278,0.082c0.152,0,0.373-0.053,0.662-0.158l0.141,1.277
				c-0.383,0.164-0.816,0.246-1.301,0.246c-0.297,0-0.564-0.05-0.803-0.149s-0.413-0.229-0.524-0.387s-0.188-0.372-0.231-0.642
				c-0.035-0.191-0.053-0.578-0.053-1.16v-2.713h-0.756v-1.313h0.756v-1.236l1.652-0.961v2.197H122.493z"/>
			<path display="inline" fill="#FFFFFF" d="M125.212,59.176h-1.646v-6.223h1.529v0.885c0.262-0.418,0.497-0.693,0.706-0.826
				s0.446-0.199,0.712-0.199c0.375,0,0.736,0.104,1.084,0.311l-0.51,1.436c-0.277-0.18-0.535-0.27-0.773-0.27
				c-0.23,0-0.426,0.063-0.586,0.19s-0.286,0.356-0.378,0.688s-0.138,1.027-0.138,2.086V59.176z"/>
			<path display="inline" fill="#FFFFFF" d="M128.306,59.176v-8.59h1.646v8.59H128.306z"/>
			<path display="inline" fill="#FFFFFF" d="M134.992,59.176v-8.59h3.65c0.918,0,1.585,0.077,2.001,0.231s0.749,0.429,0.999,0.823
				s0.375,0.846,0.375,1.354c0,0.645-0.189,1.177-0.568,1.597s-0.945,0.685-1.699,0.794c0.375,0.219,0.685,0.459,0.929,0.721
				s0.573,0.727,0.987,1.395l1.049,1.676h-2.074l-1.254-1.869c-0.445-0.668-0.75-1.089-0.914-1.263s-0.338-0.293-0.521-0.357
				s-0.475-0.097-0.873-0.097h-0.352v3.586H134.992z M136.726,54.219h1.283c0.832,0,1.352-0.035,1.559-0.105
				s0.369-0.191,0.486-0.363s0.176-0.387,0.176-0.645c0-0.289-0.077-0.522-0.231-0.7s-0.372-0.29-0.653-0.337
				c-0.141-0.02-0.563-0.029-1.266-0.029h-1.354V54.219z"/>
			<path display="inline" fill="#FFFFFF" d="M143.259,55.977c0-0.547,0.135-1.076,0.404-1.588s0.651-0.902,1.146-1.172
				s1.046-0.404,1.655-0.404c0.941,0,1.713,0.306,2.314,0.917s0.902,1.384,0.902,2.317c0,0.941-0.304,1.722-0.911,2.341
				s-1.372,0.929-2.294,0.929c-0.57,0-1.114-0.129-1.632-0.387s-0.911-0.636-1.181-1.134S143.259,56.692,143.259,55.977z
				 M144.947,56.065c0,0.617,0.146,1.09,0.439,1.418s0.654,0.492,1.084,0.492s0.79-0.164,1.081-0.492s0.437-0.805,0.437-1.43
				c0-0.609-0.146-1.078-0.437-1.406s-0.651-0.492-1.081-0.492s-0.791,0.164-1.084,0.492S144.947,55.448,144.947,56.065z"/>
			<path display="inline" fill="#FFFFFF" d="M150.589,55.977c0-0.547,0.135-1.076,0.404-1.588s0.651-0.902,1.146-1.172
				s1.046-0.404,1.655-0.404c0.941,0,1.713,0.306,2.314,0.917s0.902,1.384,0.902,2.317c0,0.941-0.304,1.722-0.911,2.341
				s-1.372,0.929-2.294,0.929c-0.57,0-1.114-0.129-1.632-0.387s-0.911-0.636-1.181-1.134S150.589,56.692,150.589,55.977z
				 M152.277,56.065c0,0.617,0.146,1.09,0.439,1.418s0.654,0.492,1.084,0.492s0.79-0.164,1.081-0.492s0.437-0.805,0.437-1.43
				c0-0.609-0.146-1.078-0.437-1.406s-0.651-0.492-1.081-0.492s-0.791,0.164-1.084,0.492S152.277,55.448,152.277,56.065z"/>
			<path display="inline" fill="#FFFFFF" d="M158.177,52.953h1.518v0.85c0.543-0.66,1.189-0.99,1.939-0.99
				c0.398,0,0.744,0.082,1.037,0.246s0.533,0.412,0.721,0.744c0.273-0.332,0.568-0.58,0.885-0.744s0.654-0.246,1.014-0.246
				c0.457,0,0.844,0.093,1.16,0.278s0.553,0.458,0.709,0.817c0.113,0.266,0.17,0.695,0.17,1.289v3.979h-1.646v-3.557
				c0-0.617-0.057-1.016-0.17-1.195c-0.152-0.234-0.387-0.352-0.703-0.352c-0.23,0-0.447,0.07-0.65,0.211s-0.35,0.347-0.439,0.618
				s-0.135,0.7-0.135,1.286v2.988h-1.646v-3.41c0-0.605-0.029-0.996-0.088-1.172s-0.149-0.307-0.272-0.393s-0.29-0.129-0.501-0.129
				c-0.254,0-0.482,0.068-0.686,0.205s-0.349,0.334-0.437,0.592s-0.132,0.686-0.132,1.283v3.023h-1.646V52.953z"/>
		</g>
		<g>
			<g id="screen_3_">
				<g id="g1473_3_">
					
						<path id="path1475_3_" inkscape:connector-curvature="0" fill="none" stroke="#FFFFFF" stroke-width="3" stroke-miterlimit="10" d="
						M133.775,41.368"/>
				</g>
				<g id="g1477_3_">
					
						<path id="path1479_3_" inkscape:connector-curvature="0" fill="none" stroke="#FFFFFF" stroke-width="3" stroke-linecap="round" stroke-linejoin="bevel" stroke-miterlimit="10" d="
						M145.4,41.368h-18.375c-0.9,0-1.65-0.75-1.65-1.65v-15.45c0-0.9,0.75-1.65,1.65-1.65h24.45c0.9,0,1.65,0.75,1.65,1.65v15.525
						c0,0.9-0.75,1.65-1.65,1.65L145.4,41.368"/>
				</g>
				
					<line id="line1481_3_" fill="none" stroke="#FFFFFF" stroke-width="2" stroke-linecap="round" stroke-linejoin="bevel" stroke-miterlimit="10" x1="140.075" y1="26.743" x2="129.275" y2="35.518"/>
				
					<line id="line1483_3_" fill="none" stroke="#FFFFFF" stroke-width="2" stroke-linecap="round" stroke-linejoin="bevel" stroke-miterlimit="10" x1="140.075" y1="30.043" x2="133.4" y2="35.518"/>
				
					<line id="line1485_3_" fill="none" stroke="#FFFFFF" stroke-width="2" stroke-linecap="round" stroke-linejoin="bevel" stroke-miterlimit="10" x1="136.775" y1="26.218" x2="129.125" y2="32.443"/>
			</g>
			<g enable-background="new    ">
				<path fill="#FFFFFF" d="M122.075,51.643l1.275,0.375c-0.225,0.675-0.525,1.2-0.975,1.575s-1.05,0.525-1.725,0.525
					c-0.825,0-1.575-0.3-2.1-0.9s-0.825-1.35-0.825-2.4c0-1.05,0.3-1.875,0.825-2.475c0.525-0.6,1.275-0.9,2.175-0.9
					c0.825,0,1.425,0.225,1.95,0.675c0.3,0.3,0.525,0.675,0.675,1.2l-1.275,0.3c-0.075-0.3-0.225-0.6-0.45-0.825
					c-0.225-0.225-0.525-0.3-0.9-0.3c-0.45,0-0.9,0.15-1.125,0.525c-0.225,0.375-0.45,0.9-0.45,1.65c0,0.825,0.15,1.425,0.45,1.725
					c0.3,0.3,0.675,0.525,1.125,0.525c0.375,0,0.675-0.075,0.9-0.3S122,52.093,122.075,51.643z"/>
				<path fill="#FFFFFF" d="M126.575,49.318v0.975h-0.825v1.875c0,0.375,0,0.6,0,0.675s0.075,0.15,0.075,0.15
					s0.15,0.075,0.225,0.075c0.15,0,0.3-0.075,0.525-0.15l0.075,0.975c-0.3,0.15-0.6,0.15-0.975,0.15c-0.225,0-0.45,0-0.6-0.075
					c-0.15-0.075-0.3-0.15-0.375-0.3c-0.075-0.15-0.15-0.3-0.15-0.45c0-0.15-0.075-0.45-0.075-0.9v-2.025h-0.6v-0.975h0.6v-0.9
					l1.275-0.75v1.65H126.575z"/>
				<path fill="#FFFFFF" d="M128.675,53.968h-1.2v-4.65h1.125v0.675c0.225-0.3,0.375-0.525,0.525-0.6
					c0.15-0.075,0.3-0.15,0.525-0.15c0.3,0,0.525,0.075,0.825,0.225l-0.375,1.05c-0.225-0.15-0.375-0.225-0.6-0.225
					c-0.15,0-0.3,0.075-0.45,0.15s-0.225,0.3-0.3,0.525s-0.075,0.75-0.075,1.575V53.968z"/>
				<path fill="#FFFFFF" d="M131,53.968v-6.45h1.2v6.45H131z"/>
				<path fill="#FFFFFF" d="M135.95,53.968v-6.45h2.775c0.675,0,1.2,0.075,1.5,0.15c0.3,0.075,0.525,0.3,0.75,0.6
					c0.225,0.3,0.3,0.6,0.3,1.05s-0.15,0.9-0.45,1.2c-0.3,0.3-0.675,0.525-1.275,0.6c0.3,0.15,0.525,0.375,0.675,0.525
					c0.15,0.15,0.45,0.525,0.75,1.05l0.75,1.275h-1.575l-0.975-1.425c-0.3-0.525-0.6-0.825-0.675-0.975
					c-0.075-0.15-0.225-0.225-0.375-0.3c-0.15-0.075-0.375-0.075-0.675-0.075h-0.3v2.7h-1.2V53.968z M137.3,50.293h0.975
					c0.6,0,1.05,0,1.2-0.075c0.15-0.075,0.3-0.15,0.375-0.3c0.075-0.15,0.15-0.3,0.15-0.45c0-0.225-0.075-0.375-0.15-0.525
					c-0.075-0.15-0.3-0.225-0.525-0.225c-0.075,0-0.45,0-0.975,0h-1.05L137.3,50.293L137.3,50.293z"/>
				<path fill="#FFFFFF" d="M142.175,51.568c0-0.375,0.075-0.825,0.3-1.2s0.525-0.675,0.825-0.9c0.3-0.225,0.75-0.3,1.275-0.3
					c0.675,0,1.275,0.225,1.725,0.675c0.45,0.45,0.675,1.05,0.675,1.725c0,0.675-0.225,1.275-0.675,1.725
					c-0.45,0.45-1.05,0.675-1.725,0.675c-0.45,0-0.825-0.075-1.2-0.3s-0.675-0.45-0.9-0.825S142.175,52.093,142.175,51.568z
					 M143.45,51.643c0,0.45,0.075,0.825,0.3,1.05s0.525,0.375,0.825,0.375c0.3,0,0.6-0.15,0.825-0.375s0.3-0.6,0.3-1.05
					s-0.075-0.825-0.3-1.05s-0.525-0.375-0.825-0.375c-0.3,0-0.6,0.15-0.825,0.375S143.45,51.193,143.45,51.643z"/>
				<path fill="#FFFFFF" d="M147.65,51.568c0-0.375,0.075-0.825,0.3-1.2s0.525-0.675,0.825-0.9c0.3-0.225,0.75-0.3,1.275-0.3
					c0.675,0,1.275,0.225,1.725,0.675c0.45,0.45,0.675,1.05,0.675,1.725c0,0.675-0.225,1.275-0.675,1.725
					c-0.45,0.45-1.05,0.675-1.725,0.675c-0.45,0-0.825-0.075-1.2-0.3s-0.675-0.45-0.9-0.825S147.65,52.093,147.65,51.568z
					 M148.925,51.643c0,0.45,0.075,0.825,0.3,1.05s0.525,0.375,0.825,0.375c0.3,0,0.6-0.15,0.825-0.375s0.3-0.6,0.3-1.05
					s-0.075-0.825-0.3-1.05s-0.525-0.375-0.825-0.375c-0.3,0-0.6,0.15-0.825,0.375S148.925,51.193,148.925,51.643z"/>
				<path fill="#FFFFFF" d="M153.35,49.318h1.125v0.6c0.375-0.525,0.9-0.75,1.425-0.75c0.3,0,0.525,0.075,0.75,0.15
					c0.225,0.075,0.375,0.3,0.525,0.525c0.225-0.225,0.45-0.45,0.675-0.525s0.525-0.15,0.75-0.15c0.375,0,0.6,0.075,0.9,0.225
					c0.3,0.15,0.45,0.375,0.525,0.6s0.15,0.525,0.15,0.975v3h-1.2v-2.7c0-0.45-0.075-0.75-0.15-0.9c-0.15-0.15-0.3-0.3-0.525-0.3
					c-0.15,0-0.3,0.075-0.525,0.15c-0.225,0.075-0.225,0.225-0.3,0.45c-0.075,0.225-0.075,0.525-0.075,0.975v2.25h-1.2v-2.55
					c0-0.45,0-0.75-0.075-0.9c-0.075-0.15-0.075-0.225-0.225-0.3s-0.225-0.075-0.375-0.075c-0.225,0-0.375,0.075-0.525,0.15
					c-0.15,0.075-0.225,0.225-0.3,0.45s-0.075,0.525-0.075,0.975v2.25h-1.275V49.318z"/>
			</g>
		</g>
	</g>
	<g id="cdpButtonStyle3" transform="translate(82.711868,-0.19491522)">
		<rect id="rect94-88_7_" x="181.95" y="1.168" fill="none" width="71" height="71"/>
		<g display="none" enable-background="new    ">
			<path display="inline" fill="#FFFFFF" d="M199.992,50.586h3.434c0.68,0,1.187,0.028,1.521,0.085s0.633,0.175,0.896,0.354
				s0.483,0.419,0.659,0.718s0.264,0.634,0.264,1.005c0,0.402-0.108,0.771-0.325,1.107s-0.511,0.588-0.882,0.756
				c0.523,0.152,0.926,0.412,1.207,0.779s0.422,0.799,0.422,1.295c0,0.391-0.091,0.771-0.272,1.14s-0.43,0.664-0.744,0.885
				s-0.702,0.356-1.163,0.407c-0.289,0.031-0.986,0.051-2.092,0.059h-2.924V50.586z M201.726,52.016v1.986h1.137
				c0.676,0,1.096-0.01,1.26-0.029c0.297-0.035,0.53-0.138,0.7-0.308s0.255-0.394,0.255-0.671c0-0.266-0.073-0.481-0.22-0.647
				s-0.364-0.267-0.653-0.302c-0.172-0.02-0.666-0.029-1.482-0.029H201.726z M201.726,55.432v2.297h1.605
				c0.625,0,1.021-0.018,1.189-0.053c0.258-0.047,0.468-0.161,0.63-0.343s0.243-0.425,0.243-0.729c0-0.258-0.063-0.477-0.188-0.656
				s-0.306-0.311-0.542-0.393s-0.749-0.123-1.538-0.123H201.726z"/>
			<path display="inline" fill="#FFFFFF" d="M210.216,59.176h-1.646v-6.223h1.529v0.885c0.262-0.418,0.497-0.693,0.706-0.826
				s0.446-0.199,0.712-0.199c0.375,0,0.736,0.104,1.084,0.311l-0.51,1.436c-0.277-0.18-0.535-0.27-0.773-0.27
				c-0.23,0-0.426,0.063-0.586,0.19s-0.286,0.356-0.378,0.688s-0.138,1.027-0.138,2.086V59.176z"/>
			<path display="inline" fill="#FFFFFF" d="M213.31,52.11v-1.523h1.646v1.523H213.31z M213.31,59.176v-6.223h1.646v6.223H213.31z"
				/>
			<path display="inline" fill="#FFFFFF" d="M222.351,59.176h-1.529v-0.914c-0.254,0.355-0.554,0.62-0.899,0.794
				s-0.694,0.261-1.046,0.261c-0.715,0-1.327-0.288-1.837-0.864s-0.765-1.38-0.765-2.411c0-1.055,0.248-1.856,0.744-2.405
				s1.123-0.823,1.881-0.823c0.695,0,1.297,0.289,1.805,0.867v-3.094h1.646V59.176z M217.956,55.93c0,0.664,0.092,1.145,0.275,1.441
				c0.266,0.43,0.637,0.645,1.113,0.645c0.379,0,0.701-0.161,0.967-0.483s0.398-0.804,0.398-1.444c0-0.715-0.129-1.229-0.387-1.544
				s-0.588-0.472-0.99-0.472c-0.391,0-0.718,0.155-0.981,0.466S217.956,55.313,217.956,55.93z"/>
			<path display="inline" fill="#FFFFFF" d="M223.822,59.586l1.881,0.229c0.031,0.219,0.104,0.369,0.217,0.451
				c0.156,0.117,0.402,0.176,0.738,0.176c0.43,0,0.752-0.064,0.967-0.193c0.145-0.086,0.254-0.225,0.328-0.416
				c0.051-0.137,0.076-0.389,0.076-0.756v-0.908c-0.492,0.672-1.113,1.008-1.863,1.008c-0.836,0-1.498-0.354-1.986-1.061
				c-0.383-0.559-0.574-1.254-0.574-2.086c0-1.043,0.251-1.84,0.753-2.391s1.126-0.826,1.872-0.826c0.77,0,1.404,0.338,1.904,1.014
				v-0.873h1.541v5.584c0,0.734-0.061,1.283-0.182,1.646s-0.291,0.648-0.51,0.855s-0.511,0.369-0.876,0.486
				s-0.827,0.176-1.386,0.176c-1.055,0-1.803-0.181-2.244-0.542s-0.662-0.819-0.662-1.374
				C223.816,59.731,223.818,59.664,223.822,59.586z M225.292,55.936c0,0.66,0.128,1.144,0.384,1.45s0.571,0.46,0.946,0.46
				c0.402,0,0.742-0.157,1.02-0.472s0.416-0.78,0.416-1.397c0-0.645-0.133-1.123-0.398-1.436s-0.602-0.469-1.008-0.469
				c-0.395,0-0.72,0.153-0.976,0.46S225.292,55.307,225.292,55.936z"/>
			<path display="inline" fill="#FFFFFF" d="M234.908,57.196l1.641,0.275c-0.211,0.602-0.544,1.06-0.999,1.374
				s-1.024,0.472-1.708,0.472c-1.082,0-1.883-0.354-2.402-1.061c-0.41-0.566-0.615-1.281-0.615-2.145
				c0-1.031,0.27-1.839,0.809-2.423s1.221-0.876,2.045-0.876c0.926,0,1.656,0.306,2.191,0.917s0.791,1.548,0.768,2.81h-4.125
				c0.012,0.488,0.145,0.868,0.398,1.14s0.57,0.407,0.949,0.407c0.258,0,0.475-0.07,0.65-0.211S234.818,57.508,234.908,57.196z
				 M235.001,55.532c-0.012-0.477-0.135-0.839-0.369-1.087s-0.52-0.372-0.855-0.372c-0.359,0-0.656,0.131-0.891,0.393
				s-0.35,0.617-0.346,1.066H235.001z"/>
		</g>
		<g>
			<g id="screen_2_">
				<g id="g1473_2_">
					
						<path id="path1475_2_" inkscape:connector-curvature="0" fill="none" stroke="#FFFFFF" stroke-width="3" stroke-miterlimit="10" d="
						M211.975,41.655"/>
				</g>
				<g id="g1477_2_">
					
						<path id="path1479_2_" inkscape:connector-curvature="0" fill="none" stroke="#FFFFFF" stroke-width="3" stroke-linecap="round" stroke-linejoin="bevel" stroke-miterlimit="10" d="
						M223.6,41.655h-18.375c-0.9,0-1.65-0.75-1.65-1.65v-15.45c0-0.9,0.75-1.65,1.65-1.65h24.45c0.9,0,1.65,0.75,1.65,1.65V40.08
						c0,0.9-0.75,1.65-1.65,1.65L223.6,41.655"/>
				</g>
				
					<line id="line1481_2_" fill="none" stroke="#FFFFFF" stroke-width="2" stroke-linecap="round" stroke-linejoin="bevel" stroke-miterlimit="10" x1="218.275" y1="27.03" x2="207.475" y2="35.805"/>
				
					<line id="line1483_2_" fill="none" stroke="#FFFFFF" stroke-width="2" stroke-linecap="round" stroke-linejoin="bevel" stroke-miterlimit="10" x1="218.275" y1="30.33" x2="211.6" y2="35.805"/>
				
					<line id="line1485_2_" fill="none" stroke="#FFFFFF" stroke-width="2" stroke-linecap="round" stroke-linejoin="bevel" stroke-miterlimit="10" x1="214.975" y1="26.505" x2="207.325" y2="32.73"/>
			</g>
			<g enable-background="new    ">
				<path fill="#FFFFFF" d="M204.4,47.805h2.55c0.525,0,0.9,0,1.125,0.075c0.225,0.075,0.45,0.15,0.675,0.3s0.375,0.3,0.525,0.525
					c0.15,0.225,0.225,0.45,0.225,0.75c0,0.3-0.075,0.6-0.225,0.825c-0.15,0.225-0.375,0.45-0.675,0.6c0.375,0.15,0.675,0.3,0.9,0.6
					s0.3,0.6,0.3,0.975c0,0.3-0.075,0.6-0.225,0.825c-0.15,0.225-0.3,0.525-0.525,0.675c-0.225,0.15-0.525,0.3-0.9,0.3
					c-0.225,0-0.75,0.075-1.575,0.075H204.4L204.4,47.805L204.4,47.805z M205.75,48.855v1.5h0.825c0.525,0,0.825,0,0.975,0
					c0.225,0,0.375-0.075,0.525-0.225c0.15-0.15,0.225-0.3,0.225-0.525c0-0.225-0.075-0.375-0.15-0.45
					c-0.075-0.075-0.3-0.225-0.525-0.225c-0.15,0-0.525,0-1.125,0h-0.75V48.855z M205.75,51.48v1.725h1.2c0.45,0,0.75,0,0.9-0.075
					c0.225,0,0.375-0.15,0.45-0.225c0.075-0.075,0.15-0.3,0.15-0.525c0-0.225-0.075-0.375-0.15-0.525
					c-0.075-0.15-0.225-0.225-0.375-0.3S207.4,51.48,206.8,51.48H205.75z"/>
				<path fill="#FFFFFF" d="M212.125,54.255h-1.2v-4.65h1.125v0.675c0.225-0.3,0.375-0.525,0.525-0.6
					c0.15-0.075,0.3-0.15,0.525-0.15c0.3,0,0.525,0.075,0.825,0.225l-0.375,1.05c-0.225-0.15-0.375-0.225-0.6-0.225
					c-0.15,0-0.3,0.075-0.45,0.15c-0.15,0.075-0.225,0.3-0.3,0.525c-0.075,0.225-0.075,0.75-0.075,1.575L212.125,54.255
					L212.125,54.255z"/>
				<path fill="#FFFFFF" d="M214.45,48.93v-1.125h1.2v1.125H214.45z M214.45,54.255v-4.65h1.2v4.65H214.45z"/>
				<path fill="#FFFFFF" d="M221.2,54.255h-1.125V53.58c-0.225,0.3-0.45,0.45-0.675,0.6c-0.225,0.15-0.525,0.225-0.75,0.225
					c-0.525,0-0.975-0.225-1.35-0.675s-0.6-1.05-0.6-1.8c0-0.825,0.15-1.425,0.525-1.8s0.825-0.6,1.425-0.6
					c0.525,0,0.975,0.225,1.35,0.675V47.88h1.2V54.255z M217.9,51.855c0,0.525,0.075,0.825,0.225,1.05
					c0.225,0.3,0.45,0.45,0.825,0.45c0.3,0,0.525-0.15,0.75-0.375c0.225-0.225,0.3-0.6,0.3-1.05c0-0.525-0.075-0.9-0.3-1.125
					s-0.45-0.375-0.75-0.375c-0.3,0-0.525,0.15-0.75,0.375C217.975,51.03,217.9,51.33,217.9,51.855z"/>
				<path fill="#FFFFFF" d="M222.325,54.555l1.425,0.15c0,0.15,0.075,0.3,0.15,0.375c0.15,0.075,0.3,0.15,0.525,0.15
					c0.3,0,0.6-0.075,0.75-0.15c0.075-0.075,0.225-0.15,0.225-0.3c0.075-0.075,0.075-0.3,0.075-0.6v-0.675
					c-0.375,0.525-0.825,0.75-1.425,0.75s-1.125-0.3-1.5-0.825c-0.3-0.45-0.45-0.975-0.45-1.575c0-0.75,0.225-1.35,0.6-1.8
					s0.825-0.6,1.425-0.6c0.6,0,1.05,0.225,1.425,0.75V49.53h1.125v4.2c0,0.525-0.075,0.975-0.15,1.2
					c-0.075,0.225-0.225,0.45-0.375,0.675c-0.15,0.225-0.375,0.3-0.675,0.375c-0.3,0.075-0.6,0.15-1.05,0.15
					c-0.825,0-1.35-0.15-1.65-0.375c-0.3-0.225-0.525-0.6-0.525-1.05C222.325,54.705,222.325,54.63,222.325,54.555z M223.375,51.855
					c0,0.525,0.075,0.825,0.3,1.125c0.225,0.3,0.45,0.375,0.675,0.375c0.3,0,0.525-0.15,0.75-0.375c0.225-0.225,0.3-0.6,0.3-1.05
					c0-0.45-0.075-0.825-0.3-1.05s-0.45-0.375-0.75-0.375c-0.3,0-0.525,0.15-0.75,0.375
					C223.375,51.105,223.375,51.33,223.375,51.855z"/>
				<path fill="#FFFFFF" d="M230.65,52.755l1.2,0.225c-0.15,0.45-0.375,0.825-0.75,1.05s-0.75,0.375-1.275,0.375
					c-0.825,0-1.425-0.3-1.8-0.825c-0.3-0.45-0.45-0.975-0.45-1.575c0-0.75,0.225-1.35,0.6-1.8s0.9-0.675,1.5-0.675
					c0.675,0,1.275,0.225,1.65,0.675s0.6,1.125,0.6,2.1h-3.075c0,0.375,0.075,0.675,0.3,0.825s0.45,0.3,0.675,0.3
					s0.375-0.075,0.525-0.15C230.5,53.205,230.575,52.98,230.65,52.755z M230.725,51.555c0-0.375-0.075-0.6-0.3-0.825
					c-0.225-0.225-0.375-0.3-0.675-0.3c-0.3,0-0.525,0.075-0.675,0.3c-0.15,0.225-0.225,0.45-0.225,0.825H230.725z"/>
			</g>
		</g>
	</g>
	<g id="cdpButtonStyle4" transform="translate(82.711868,-0.19491522)">
		<rect id="rect94-88_6_" x="258.95" y="1.168" fill="none" width="71" height="71"/>
		<g id="radio_6_" display="none" opacity="0.09">
			
				<path id="path375_7_" inkscape:connector-curvature="0" display="inline" fill="#FFFFFF" stroke="#FFFFFF" stroke-miterlimit="10" d="
				M308.55,21.468c-0.4,0-0.8-0.2-1-0.6c-2.7-4.7-7.8-7.7-13.2-7.7c-5.4,0-10.5,2.9-13.2,7.7c-0.3,0.5-1,0.7-1.5,0.4
				c-0.5-0.3-0.7-1-0.4-1.5c3.1-5.4,8.9-8.8,15.1-8.8s12,3.4,15.1,8.8c0.3,0.5,0.1,1.2-0.4,1.5
				C308.95,21.368,308.75,21.468,308.55,21.468L308.55,21.468z"/>
			
				<path id="path377_7_" inkscape:connector-curvature="0" display="inline" fill="#FFFFFF" stroke="#FFFFFF" stroke-miterlimit="10" d="
				M284.15,23.668c-0.2,0-0.4,0-0.5-0.2c-0.5-0.3-0.7-1-0.4-1.5c2.3-4.1,6.7-6.6,11.3-6.6c4.6,0,9,2.5,11.3,6.6
				c0.3,0.5,0.1,1.2-0.4,1.5s-1.2,0.1-1.5-0.4c-1.9-3.4-5.5-5.5-9.4-5.5s-7.5,2.1-9.4,5.5
				C284.85,23.468,284.45,23.668,284.15,23.668z"/>
			
				<path id="path381_7_" inkscape:connector-curvature="0" display="inline" fill="#FFFFFF" stroke="#FFFFFF" stroke-miterlimit="10" d="
				M300.95,25.868c-0.4,0-0.7-0.2-1-0.6c-1.2-2-3.3-3.2-5.6-3.2c-2.3,0-4.4,1.2-5.6,3.2c-0.3,0.5-1,0.7-1.5,0.4
				c-0.5-0.3-0.7-1-0.4-1.5c1.5-2.7,4.4-4.4,7.5-4.4s5.9,1.7,7.5,4.4c0.3,0.5,0.1,1.2-0.4,1.5
				C301.35,25.868,301.15,25.868,300.95,25.868L300.95,25.868z"/>
			
				<path id="path383_7_" inkscape:connector-curvature="0" display="inline" fill="#FFFFFF" stroke="#FFFFFF" stroke-miterlimit="10" d="
				M283.15,32.368c-2.8,0-5,2.3-5,5.1s2.3,5.1,5,5.1c2.8,0,5-2.3,5-5.1S285.95,32.368,283.15,32.368z M305.75,32.368
				c-2.8,0-5,2.3-5,5.1s2.3,5.1,5,5.1c2.8,0,5-2.3,5-5.1S308.55,32.368,305.75,32.368z M297.55,31.068h-6.3v5.1h6.3V31.068z
				 M294.45,45.068c-1,0-1.9,0.9-1.9,1.9s0.8,1.9,1.9,1.9c1,0,1.9-0.9,1.9-1.9C296.35,45.868,295.45,45.068,294.45,45.068z
				 M300.75,45.068c-1,0-1.9,0.9-1.9,1.9s0.8,1.9,1.9,1.9c1,0,1.9-0.9,1.9-1.9C302.65,45.868,301.75,45.068,300.75,45.068z
				 M307.05,45.068c-1,0-1.9,0.9-1.9,1.9s0.8,1.9,1.9,1.9c1,0,1.9-0.9,1.9-1.9C308.95,45.868,308.05,45.068,307.05,45.068z
				 M288.15,45.068c-1,0-1.9,0.9-1.9,1.9s0.8,1.9,1.9,1.9c1,0,1.9-0.9,1.9-1.9C290.05,45.868,289.15,45.068,288.15,45.068z
				 M281.85,45.068c-1,0-1.9,0.9-1.9,1.9s0.8,1.9,1.9,1.9c1,0,1.9-0.9,1.9-1.9C283.75,45.868,282.95,45.068,281.85,45.068z
				 M313.95,28.568v22.8h-39v-22.8h16.3l0,0c0-1.8,1.4-3.2,3.1-3.2s3.1,1.4,3.1,3.2l0,0H313.95z"/>
		</g>
		<g display="none" enable-background="new    ">
			<path display="inline" fill="#FFFFFF" d="M271.992,59.176v-8.59h3.65c0.918,0,1.585,0.077,2.001,0.231s0.749,0.429,0.999,0.823
				s0.375,0.846,0.375,1.354c0,0.645-0.189,1.177-0.568,1.597s-0.945,0.685-1.699,0.794c0.375,0.219,0.685,0.459,0.929,0.721
				s0.573,0.727,0.987,1.395l1.049,1.676h-2.074l-1.254-1.869c-0.445-0.668-0.75-1.089-0.914-1.263s-0.338-0.293-0.521-0.357
				s-0.475-0.097-0.873-0.097h-0.352v3.586H271.992z M273.726,54.219h1.283c0.832,0,1.352-0.035,1.559-0.105
				s0.369-0.191,0.486-0.363s0.176-0.387,0.176-0.645c0-0.289-0.077-0.522-0.231-0.7s-0.372-0.29-0.653-0.337
				c-0.141-0.02-0.563-0.029-1.266-0.029h-1.354V54.219z"/>
			<path display="inline" fill="#FFFFFF" d="M280.3,54.934c0-0.875,0.131-1.609,0.393-2.203c0.195-0.438,0.462-0.83,0.8-1.178
				s0.708-0.605,1.11-0.773c0.535-0.227,1.152-0.34,1.852-0.34c1.266,0,2.278,0.393,3.038,1.178s1.14,1.877,1.14,3.275
				c0,1.387-0.377,2.472-1.131,3.255s-1.762,1.175-3.023,1.175c-1.277,0-2.293-0.39-3.047-1.169S280.3,56.301,280.3,54.934z
				 M282.087,54.875c0,0.973,0.225,1.71,0.674,2.212s1.02,0.753,1.711,0.753s1.259-0.249,1.702-0.747s0.665-1.245,0.665-2.241
				c0-0.984-0.216-1.719-0.647-2.203s-1.005-0.727-1.72-0.727s-1.291,0.245-1.729,0.735S282.087,53.887,282.087,54.875z"/>
			<path display="inline" fill="#FFFFFF" d="M292.177,59.176l-3.07-8.59h1.881l2.174,6.357l2.104-6.357h1.84l-3.076,8.59H292.177z"
				/>
			<path display="inline" fill="#FFFFFF" d="M300.972,54.934c0-0.875,0.131-1.609,0.393-2.203c0.195-0.438,0.462-0.83,0.8-1.178
				s0.708-0.605,1.11-0.773c0.535-0.227,1.152-0.34,1.852-0.34c1.266,0,2.278,0.393,3.038,1.178s1.14,1.877,1.14,3.275
				c0,1.387-0.377,2.472-1.131,3.255s-1.762,1.175-3.023,1.175c-1.277,0-2.293-0.39-3.047-1.169S300.972,56.301,300.972,54.934z
				 M302.759,54.875c0,0.973,0.225,1.71,0.674,2.212s1.02,0.753,1.711,0.753s1.259-0.249,1.702-0.747s0.665-1.245,0.665-2.241
				c0-0.984-0.216-1.719-0.647-2.203s-1.005-0.727-1.72-0.727s-1.291,0.245-1.729,0.735S302.759,53.887,302.759,54.875z"/>
			<path display="inline" fill="#FFFFFF" d="M310.658,59.176v-8.59h2.783c1.055,0,1.742,0.043,2.063,0.129
				c0.492,0.129,0.904,0.409,1.236,0.841s0.498,0.989,0.498,1.673c0,0.527-0.096,0.971-0.287,1.33s-0.435,0.642-0.729,0.847
				s-0.595,0.341-0.899,0.407c-0.414,0.082-1.014,0.123-1.799,0.123h-1.131v3.24H310.658z M312.392,52.039v2.438h0.949
				c0.684,0,1.141-0.045,1.371-0.135s0.411-0.23,0.542-0.422s0.196-0.414,0.196-0.668c0-0.313-0.092-0.57-0.275-0.773
				s-0.416-0.33-0.697-0.381c-0.207-0.039-0.623-0.059-1.248-0.059H312.392z"/>
		</g>
		<g>
			<g id="screen_1_">
				<g id="g1473_1_">
					
						<path id="path1475_1_" inkscape:connector-curvature="0" fill="none" stroke="#FFFFFF" stroke-width="3" stroke-miterlimit="10" d="
						M288.938,41.38"/>
				</g>
				<g id="g1477_1_">
					
						<path id="path1479_1_" inkscape:connector-curvature="0" fill="none" stroke="#FFFFFF" stroke-width="3" stroke-linecap="round" stroke-linejoin="bevel" stroke-miterlimit="10" d="
						M300.563,41.38h-18.375c-0.9,0-1.65-0.75-1.65-1.65V24.28c0-0.9,0.75-1.65,1.65-1.65h24.45c0.9,0,1.65,0.75,1.65,1.65v15.525
						c0,0.9-0.75,1.65-1.65,1.65L300.563,41.38"/>
				</g>
				
					<line id="line1481_1_" fill="none" stroke="#FFFFFF" stroke-width="2" stroke-linecap="round" stroke-linejoin="bevel" stroke-miterlimit="10" x1="295.238" y1="26.755" x2="284.438" y2="35.53"/>
				
					<line id="line1483_1_" fill="none" stroke="#FFFFFF" stroke-width="2" stroke-linecap="round" stroke-linejoin="bevel" stroke-miterlimit="10" x1="295.238" y1="30.055" x2="288.563" y2="35.53"/>
				
					<line id="line1485_1_" fill="none" stroke="#FFFFFF" stroke-width="2" stroke-linecap="round" stroke-linejoin="bevel" stroke-miterlimit="10" x1="291.938" y1="26.23" x2="284.288" y2="32.455"/>
			</g>
			<g enable-background="new    ">
				<path fill="#FFFFFF" d="M277.613,53.98v-6.45h2.775c0.675,0,1.2,0.075,1.5,0.15c0.3,0.075,0.525,0.3,0.75,0.6
					c0.225,0.3,0.3,0.6,0.3,1.05s-0.15,0.9-0.45,1.2c-0.3,0.3-0.675,0.525-1.275,0.6c0.3,0.15,0.525,0.375,0.675,0.525
					c0.15,0.15,0.45,0.525,0.75,1.05l0.75,1.275h-1.575l-0.975-1.425c-0.3-0.525-0.6-0.825-0.675-0.975
					c-0.075-0.15-0.225-0.225-0.375-0.3c-0.15-0.075-0.375-0.075-0.675-0.075h-0.3v2.7h-1.2V53.98z M278.963,50.305h0.975
					c0.6,0,1.05,0,1.2-0.075c0.15-0.075,0.3-0.15,0.375-0.3c0.075-0.15,0.15-0.3,0.15-0.45c0-0.225-0.075-0.375-0.15-0.525
					s-0.3-0.225-0.525-0.225c-0.075,0-0.45,0-0.975,0h-1.05V50.305z"/>
				<path fill="#FFFFFF" d="M283.913,50.83c0-0.675,0.075-1.2,0.3-1.65c0.15-0.3,0.375-0.6,0.6-0.9c0.225-0.3,0.525-0.45,0.825-0.6
					c0.375-0.15,0.9-0.225,1.425-0.225c0.975,0,1.725,0.3,2.25,0.9c0.525,0.6,0.825,1.425,0.825,2.475c0,1.05-0.3,1.875-0.825,2.475
					c-0.525,0.6-1.35,0.9-2.25,0.9c-0.975,0-1.725-0.3-2.25-0.9C284.288,52.705,283.913,51.805,283.913,50.83z M285.188,50.755
					c0,0.75,0.15,1.275,0.525,1.65s0.75,0.6,1.275,0.6c0.525,0,0.975-0.15,1.275-0.525s0.525-0.9,0.525-1.65s-0.15-1.275-0.45-1.65
					c-0.3-0.375-0.75-0.525-1.275-0.525c-0.525,0-0.975,0.15-1.275,0.525S285.188,50.005,285.188,50.755z"/>
				<path fill="#FFFFFF" d="M292.763,53.98l-2.325-6.45h1.425l1.65,4.8l1.575-4.8h1.35l-2.325,6.45H292.763z"/>
				<path fill="#FFFFFF" d="M299.363,50.83c0-0.675,0.075-1.2,0.3-1.65c0.15-0.3,0.375-0.6,0.6-0.9c0.225-0.3,0.525-0.45,0.825-0.6
					c0.375-0.15,0.9-0.225,1.425-0.225c0.975,0,1.725,0.3,2.25,0.9c0.525,0.6,0.825,1.425,0.825,2.475c0,1.05-0.3,1.875-0.825,2.475
					c-0.525,0.6-1.35,0.9-2.25,0.9c-0.975,0-1.725-0.3-2.25-0.9C299.738,52.705,299.363,51.805,299.363,50.83z M300.713,50.755
					c0,0.75,0.15,1.275,0.525,1.65s0.75,0.6,1.275,0.6c0.525,0,0.975-0.15,1.275-0.525s0.525-0.9,0.525-1.65s-0.15-1.275-0.45-1.65
					s-0.75-0.525-1.275-0.525c-0.525,0-0.975,0.15-1.275,0.525S300.713,50.005,300.713,50.755z"/>
				<path fill="#FFFFFF" d="M306.638,53.98v-6.45h2.1c0.825,0,1.275,0,1.575,0.075c0.375,0.075,0.675,0.3,0.9,0.6
					c0.225,0.3,0.375,0.75,0.375,1.275c0,0.375-0.075,0.75-0.225,0.975c-0.15,0.225-0.3,0.45-0.525,0.6
					c-0.225,0.15-0.45,0.225-0.675,0.3c-0.3,0.075-0.75,0.075-1.35,0.075h-0.825v2.4h-1.35V53.98z M307.913,48.655v1.8h0.675
					c0.525,0,0.825,0,1.05-0.075c0.225-0.075,0.3-0.15,0.375-0.3s0.15-0.3,0.15-0.525c0-0.225-0.075-0.45-0.225-0.6
					s-0.3-0.225-0.525-0.3c-0.15,0-0.45-0.075-0.9-0.075h-0.6V48.655z"/>
			</g>
		</g>
	</g>
	<g id="cdpButtonStyle5" transform="translate(82.711868,-0.19491522)">
		<rect id="rect94-88_1_" x="334.95" y="1.168" fill="none" width="71" height="71"/>
		<g display="none" enable-background="new    ">
			<path display="inline" fill="#FFFFFF" d="M364.482,61.018l1.682,0.533c-0.258,0.938-0.687,1.634-1.286,2.089
				s-1.36,0.683-2.282,0.683c-1.141,0-2.078-0.39-2.813-1.169s-1.102-1.845-1.102-3.196c0-1.43,0.369-2.54,1.107-3.331
				s1.709-1.187,2.912-1.187c1.051,0,1.904,0.311,2.561,0.932c0.391,0.367,0.684,0.895,0.879,1.582l-1.717,0.41
				c-0.102-0.445-0.313-0.797-0.636-1.055s-0.714-0.387-1.175-0.387c-0.637,0-1.153,0.229-1.55,0.686s-0.595,1.197-0.595,2.221
				c0,1.086,0.195,1.859,0.586,2.32s0.898,0.691,1.523,0.691c0.461,0,0.857-0.146,1.189-0.439S364.337,61.647,364.482,61.018z"/>
			<path display="inline" fill="#FFFFFF" d="M369.585,64.176v-7.137h-2.549v-1.453h6.826v1.453h-2.543v7.137H369.585z"/>
			<path display="inline" fill="#FFFFFF" d="M374.976,55.586h3.17c0.715,0,1.26,0.055,1.635,0.164
				c0.504,0.148,0.936,0.412,1.295,0.791s0.633,0.843,0.82,1.392s0.281,1.226,0.281,2.03c0,0.707-0.088,1.316-0.264,1.828
				c-0.215,0.625-0.521,1.131-0.92,1.518c-0.301,0.293-0.707,0.521-1.219,0.686c-0.383,0.121-0.895,0.182-1.535,0.182h-3.264V55.586
				z M376.71,57.039v5.689h1.295c0.484,0,0.834-0.027,1.049-0.082c0.281-0.07,0.515-0.189,0.7-0.357s0.337-0.444,0.454-0.829
				s0.176-0.909,0.176-1.573s-0.059-1.174-0.176-1.529s-0.281-0.633-0.492-0.832s-0.479-0.334-0.803-0.404
				c-0.242-0.055-0.717-0.082-1.424-0.082H376.71z"/>
		</g>
		<g>
			<g id="radio_1_">
				<path id="path375_1_" inkscape:connector-curvature="0" fill="#FFFFFF" stroke="#FFFFFF" stroke-miterlimit="10" d="
					M381.025,25.518c-0.3,0-0.6-0.15-0.75-0.45c-2.025-3.525-5.85-5.775-9.9-5.775s-7.875,2.175-9.9,5.775
					c-0.225,0.375-0.75,0.525-1.125,0.3s-0.525-0.75-0.3-1.125c2.325-4.05,6.675-6.6,11.325-6.6c4.65,0,9,2.55,11.325,6.6
					c0.225,0.375,0.075,0.9-0.3,1.125C381.325,25.443,381.175,25.518,381.025,25.518L381.025,25.518z"/>
				<path id="path377_1_" inkscape:connector-curvature="0" fill="#FFFFFF" stroke="#FFFFFF" stroke-miterlimit="10" d="
					M362.725,27.168c-0.15,0-0.3,0-0.375-0.15c-0.375-0.225-0.525-0.75-0.3-1.125c1.725-3.075,5.025-4.95,8.475-4.95
					c3.45,0,6.75,1.875,8.475,4.95c0.225,0.375,0.075,0.9-0.3,1.125c-0.375,0.225-0.9,0.075-1.125-0.3
					c-1.425-2.55-4.125-4.125-7.05-4.125s-5.625,1.575-7.05,4.125C363.25,27.018,362.95,27.168,362.725,27.168z"/>
				<path id="path381_1_" inkscape:connector-curvature="0" fill="#FFFFFF" stroke="#FFFFFF" stroke-miterlimit="10" d="
					M375.325,28.818c-0.3,0-0.525-0.15-0.75-0.45c-0.9-1.5-2.475-2.4-4.2-2.4s-3.3,0.9-4.2,2.4c-0.225,0.375-0.75,0.525-1.125,0.3
					c-0.375-0.225-0.525-0.75-0.3-1.125c1.125-2.025,3.3-3.3,5.625-3.3c2.325,0,4.425,1.275,5.625,3.3
					c0.225,0.375,0.075,0.9-0.3,1.125C375.625,28.818,375.475,28.818,375.325,28.818L375.325,28.818z"/>
				<path id="path383_1_" inkscape:connector-curvature="0" fill="#FFFFFF" stroke="#FFFFFF" stroke-miterlimit="10" d="
					M361.975,33.693c-2.1,0-3.75,1.725-3.75,3.825c0,2.1,1.725,3.825,3.75,3.825c2.1,0,3.75-1.725,3.75-3.825
					C365.725,35.418,364.075,33.693,361.975,33.693z M378.925,33.693c-2.1,0-3.75,1.725-3.75,3.825c0,2.1,1.725,3.825,3.75,3.825
					c2.1,0,3.75-1.725,3.75-3.825C382.675,35.418,381.025,33.693,378.925,33.693z M372.775,32.718h-4.725v3.825h4.725V32.718z
					 M370.45,43.218c-0.75,0-1.425,0.675-1.425,1.425s0.6,1.425,1.425,1.425c0.75,0,1.425-0.675,1.425-1.425
					C371.875,43.818,371.2,43.218,370.45,43.218z M375.175,43.218c-0.75,0-1.425,0.675-1.425,1.425s0.6,1.425,1.425,1.425
					c0.75,0,1.425-0.675,1.425-1.425C376.6,43.818,375.925,43.218,375.175,43.218z M379.9,43.218c-0.75,0-1.425,0.675-1.425,1.425
					s0.6,1.425,1.425,1.425c0.75,0,1.425-0.675,1.425-1.425C381.325,43.818,380.65,43.218,379.9,43.218z M365.725,43.218
					c-0.75,0-1.425,0.675-1.425,1.425s0.6,1.425,1.425,1.425c0.75,0,1.425-0.675,1.425-1.425
					C367.15,43.818,366.475,43.218,365.725,43.218z M361,43.218c-0.75,0-1.425,0.675-1.425,1.425s0.6,1.425,1.425,1.425
					c0.75,0,1.425-0.675,1.425-1.425C362.425,43.818,361.825,43.218,361,43.218z M385.075,30.843v17.1h-29.25v-17.1h12.225l0,0
					c0-1.35,1.05-2.4,2.325-2.4c1.275,0,2.325,1.05,2.325,2.4l0,0H385.075z"/>
			</g>
			<g>
				<path fill="#FFFFFF" d="M365.95,55.218l1.275,0.375c-0.225,0.675-0.525,1.2-0.975,1.575s-1.05,0.525-1.725,0.525
					c-0.825,0-1.575-0.3-2.1-0.9c-0.525-0.6-0.825-1.35-0.825-2.4c0-1.05,0.3-1.875,0.825-2.475c0.525-0.6,1.275-0.9,2.175-0.9
					c0.825,0,1.425,0.225,1.95,0.675c0.3,0.3,0.525,0.675,0.675,1.2l-1.275,0.3c-0.075-0.3-0.225-0.6-0.45-0.825
					c-0.225-0.225-0.525-0.3-0.9-0.3c-0.45,0-0.9,0.15-1.125,0.525c-0.225,0.375-0.45,0.9-0.45,1.65c0,0.825,0.15,1.425,0.45,1.725
					c0.3,0.3,0.675,0.525,1.125,0.525c0.375,0,0.675-0.075,0.9-0.3C365.725,55.968,365.875,55.668,365.95,55.218z"/>
				<path fill="#FFFFFF" d="M369.775,57.543v-5.325H367.9v-1.125h5.1v1.125h-1.875v5.325H369.775z"/>
				<path fill="#FFFFFF" d="M373.825,51.093h2.4c0.525,0,0.975,0.075,1.2,0.15c0.375,0.075,0.675,0.3,0.975,0.6
					c0.3,0.3,0.45,0.6,0.6,1.05c0.15,0.45,0.225,0.9,0.225,1.5c0,0.525-0.075,0.975-0.225,1.35c-0.15,0.45-0.375,0.825-0.675,1.125
					c-0.225,0.225-0.525,0.375-0.9,0.525c-0.3,0.075-0.675,0.15-1.125,0.15h-2.475V51.093z M375.175,52.218v4.275h0.975
					c0.375,0,0.6,0,0.75-0.075c0.225-0.075,0.375-0.15,0.525-0.3c0.15-0.15,0.225-0.3,0.375-0.6c0.15-0.3,0.15-0.675,0.15-1.2
					s-0.075-0.9-0.15-1.125c-0.075-0.225-0.225-0.45-0.375-0.6c-0.15-0.15-0.375-0.225-0.6-0.3c-0.15-0.075-0.525-0.075-1.05-0.075
					H375.175z"/>
			</g>
		</g>
	</g>
	<g id="cdpButtonStyle6" transform="translate(82.711868,-0.19491522)">
		<rect id="rect94-88_2_" x="410.25" y="1.168" fill="none" width="71" height="71"/>
		<g display="none" enable-background="new    ">
			<path display="inline" fill="#FFFFFF" d="M433.294,64.176v-8.59h2.596l1.559,5.859l1.541-5.859h2.602v8.59h-1.611v-6.762
				l-1.705,6.762h-1.67l-1.699-6.762v6.762H433.294z"/>
			<path display="inline" fill="#FFFFFF" d="M444.533,59.852l-1.494-0.27c0.168-0.602,0.457-1.047,0.867-1.336
				s1.02-0.434,1.828-0.434c0.734,0,1.281,0.087,1.641,0.261s0.612,0.395,0.759,0.662s0.22,0.759,0.22,1.474l-0.018,1.922
				c0,0.547,0.026,0.95,0.079,1.21s0.151,0.538,0.296,0.835h-1.629c-0.043-0.109-0.096-0.271-0.158-0.486
				c-0.027-0.098-0.047-0.162-0.059-0.193c-0.281,0.273-0.582,0.479-0.902,0.615s-0.662,0.205-1.025,0.205
				c-0.641,0-1.146-0.174-1.515-0.521s-0.554-0.787-0.554-1.318c0-0.352,0.084-0.665,0.252-0.94s0.403-0.486,0.706-0.633
				s0.739-0.274,1.31-0.384c0.77-0.145,1.303-0.279,1.6-0.404v-0.164c0-0.316-0.078-0.542-0.234-0.677s-0.451-0.202-0.885-0.202
				c-0.293,0-0.521,0.058-0.686,0.173S444.634,59.563,444.533,59.852z M446.736,61.188c-0.211,0.07-0.545,0.154-1.002,0.252
				s-0.756,0.193-0.896,0.287c-0.215,0.152-0.322,0.346-0.322,0.58c0,0.23,0.086,0.43,0.258,0.598s0.391,0.252,0.656,0.252
				c0.297,0,0.58-0.098,0.85-0.293c0.199-0.148,0.33-0.33,0.393-0.545c0.043-0.141,0.064-0.408,0.064-0.803V61.188z"/>
			<path display="inline" fill="#FFFFFF" d="M449.976,57.11v-1.523h1.646v1.523H449.976z M449.976,64.176v-6.223h1.646v6.223
				H449.976z"/>
			<path display="inline" fill="#FFFFFF" d="M458.97,64.176h-1.646V61c0-0.672-0.035-1.106-0.105-1.304s-0.185-0.351-0.343-0.46
				s-0.349-0.164-0.571-0.164c-0.285,0-0.541,0.078-0.768,0.234s-0.382,0.363-0.466,0.621s-0.126,0.734-0.126,1.43v2.818h-1.646
				v-6.223h1.529v0.914c0.543-0.703,1.227-1.055,2.051-1.055c0.363,0,0.695,0.065,0.996,0.196s0.528,0.298,0.683,0.501
				s0.262,0.434,0.322,0.691s0.091,0.627,0.091,1.107V64.176z"/>
		</g>
		<g>
			<g id="radio_2_">
				<path id="path375_3_" inkscape:connector-curvature="0" fill="#FFFFFF" stroke="#FFFFFF" stroke-miterlimit="10" d="
					M456.4,25.518c-0.3,0-0.6-0.15-0.75-0.45c-2.025-3.525-5.85-5.775-9.9-5.775s-7.875,2.175-9.9,5.775
					c-0.225,0.375-0.75,0.525-1.125,0.3s-0.525-0.75-0.3-1.125c2.325-4.05,6.675-6.6,11.325-6.6c4.65,0,9,2.55,11.325,6.6
					c0.225,0.375,0.075,0.9-0.3,1.125C456.7,25.443,456.55,25.518,456.4,25.518L456.4,25.518z"/>
				<path id="path377_3_" inkscape:connector-curvature="0" fill="#FFFFFF" stroke="#FFFFFF" stroke-miterlimit="10" d="
					M438.025,27.168c-0.15,0-0.3,0-0.375-0.15c-0.375-0.225-0.525-0.75-0.3-1.125c1.725-3.075,5.025-4.95,8.475-4.95
					c3.45,0,6.75,1.875,8.475,4.95c0.225,0.375,0.075,0.9-0.3,1.125c-0.375,0.225-0.9,0.075-1.125-0.3
					c-1.425-2.55-4.125-4.125-7.05-4.125c-2.925,0-5.625,1.575-7.05,4.125C438.625,27.018,438.325,27.168,438.025,27.168z"/>
				<path id="path381_3_" inkscape:connector-curvature="0" fill="#FFFFFF" stroke="#FFFFFF" stroke-miterlimit="10" d="
					M450.7,28.818c-0.3,0-0.525-0.15-0.75-0.45c-0.9-1.5-2.475-2.4-4.2-2.4c-1.725,0-3.3,0.9-4.2,2.4
					c-0.225,0.375-0.75,0.525-1.125,0.3c-0.375-0.225-0.525-0.75-0.3-1.125c1.125-2.025,3.3-3.3,5.625-3.3
					c2.325,0,4.425,1.275,5.625,3.3c0.225,0.375,0.075,0.9-0.3,1.125C451,28.818,450.85,28.818,450.7,28.818L450.7,28.818z"/>
				<path id="path383_3_" inkscape:connector-curvature="0" fill="#FFFFFF" stroke="#FFFFFF" stroke-miterlimit="10" d="
					M437.275,33.693c-2.1,0-3.75,1.725-3.75,3.825c0,2.1,1.725,3.825,3.75,3.825c2.1,0,3.75-1.725,3.75-3.825
					C441.1,35.418,439.375,33.693,437.275,33.693z M454.3,33.693c-2.1,0-3.75,1.725-3.75,3.825c0,2.1,1.725,3.825,3.75,3.825
					c2.025,0,3.75-1.725,3.75-3.825C458.05,35.418,456.325,33.693,454.3,33.693z M448.15,32.718h-4.725v3.825h4.725V32.718z
					 M445.75,43.218c-0.75,0-1.425,0.675-1.425,1.425s0.6,1.425,1.425,1.425c0.75,0,1.425-0.675,1.425-1.425
					C447.175,43.818,446.575,43.218,445.75,43.218z M450.475,43.218c-0.75,0-1.425,0.675-1.425,1.425s0.6,1.425,1.425,1.425
					c0.75,0,1.425-0.675,1.425-1.425C451.9,43.818,451.3,43.218,450.475,43.218z M455.2,43.218c-0.75,0-1.425,0.675-1.425,1.425
					s0.6,1.425,1.425,1.425c0.75,0,1.425-0.675,1.425-1.425C456.625,43.818,456.025,43.218,455.2,43.218z M441.1,43.218
					c-0.75,0-1.425,0.675-1.425,1.425s0.6,1.425,1.425,1.425c0.75,0,1.425-0.675,1.425-1.425
					C442.45,43.818,441.85,43.218,441.1,43.218z M436.375,43.218c-0.75,0-1.425,0.675-1.425,1.425s0.6,1.425,1.425,1.425
					c0.75,0,1.425-0.675,1.425-1.425C437.8,43.818,437.125,43.218,436.375,43.218z M460.375,30.843v17.1h-29.25v-17.1h12.225l0,0
					c0-1.35,1.05-2.4,2.325-2.4c1.275,0,2.325,1.05,2.325,2.4l0,0H460.375z"/>
			</g>
			<g>
				<path fill="#FFFFFF" d="M436.375,57.543v-6.45h1.95l1.2,4.425l1.125-4.425h1.95v6.45h-1.2v-5.1l-1.275,5.1h-1.275l-1.275-5.1
					v5.1H436.375z"/>
				<path fill="#FFFFFF" d="M444.85,54.318l-1.125-0.225c0.15-0.45,0.375-0.75,0.675-0.975c0.3-0.225,0.75-0.3,1.35-0.3
					c0.525,0,0.975,0.075,1.2,0.225c0.225,0.15,0.45,0.3,0.6,0.525s0.15,0.6,0.15,1.125v1.425c0,0.375,0,0.75,0.075,0.9
					s0.15,0.375,0.225,0.6h-1.2c0-0.075-0.075-0.225-0.15-0.375c0-0.075,0-0.15-0.075-0.15c-0.225,0.225-0.45,0.375-0.675,0.45
					c-0.225,0.075-0.525,0.15-0.75,0.15c-0.45,0-0.825-0.15-1.125-0.375s-0.45-0.6-0.45-0.975c0-0.3,0.075-0.525,0.225-0.675
					s0.3-0.375,0.525-0.45c0.225-0.075,0.525-0.225,0.975-0.3c0.6-0.075,0.975-0.225,1.2-0.3v-0.15c0-0.225-0.075-0.375-0.15-0.525
					s-0.375-0.15-0.675-0.15c-0.225,0-0.375,0.075-0.525,0.15C445,54.018,444.925,54.093,444.85,54.318z M446.5,55.293
					c-0.15,0.075-0.375,0.15-0.75,0.225c-0.375,0.075-0.6,0.15-0.675,0.225c-0.15,0.15-0.225,0.225-0.225,0.45
					c0,0.15,0.075,0.3,0.225,0.45s0.3,0.225,0.525,0.225c0.225,0,0.45-0.075,0.6-0.225c0.15-0.075,0.225-0.225,0.3-0.375
					c0-0.075,0.075-0.3,0.075-0.6v-0.375L446.5,55.293z"/>
				<path fill="#FFFFFF" d="M448.9,52.218v-1.125h1.2v1.125H448.9z M448.9,57.543v-4.65h1.2v4.65H448.9z"/>
				<path fill="#FFFFFF" d="M455.65,57.543h-1.2v-2.4c0-0.525,0-0.825-0.075-0.975c-0.075-0.15-0.15-0.3-0.225-0.375
					c-0.075-0.075-0.225-0.15-0.45-0.15c-0.225,0-0.375,0.075-0.6,0.15c-0.225,0.075-0.3,0.3-0.375,0.45s-0.075,0.525-0.075,1.05
					v2.1h-1.2v-4.65h1.125v0.675c0.375-0.525,0.9-0.825,1.575-0.825c0.3,0,0.525,0.075,0.75,0.15
					c0.225,0.075,0.375,0.225,0.525,0.375c0.15,0.15,0.225,0.3,0.225,0.525s0.075,0.45,0.075,0.825v3.075H455.65z"/>
			</g>
		</g>
	</g>
	<g id="cdpButtonStyle7" transform="translate(82.711868,-0.19491522)">
		<rect id="rect94-88_3_" x="487.05" y="1.168" fill="none" width="71" height="71"/>
		<g display="none" enable-background="new    ">
			<path display="inline" fill="#FFFFFF" d="M507.636,61.381l1.688-0.164c0.102,0.566,0.308,0.982,0.618,1.248
				s0.729,0.398,1.257,0.398c0.559,0,0.979-0.118,1.263-0.354s0.425-0.513,0.425-0.829c0-0.203-0.06-0.376-0.179-0.519
				s-0.327-0.267-0.624-0.372c-0.203-0.07-0.666-0.195-1.389-0.375c-0.93-0.23-1.582-0.514-1.957-0.85
				c-0.527-0.473-0.791-1.049-0.791-1.729c0-0.438,0.124-0.847,0.372-1.228s0.605-0.671,1.072-0.87s1.03-0.299,1.69-0.299
				c1.078,0,1.89,0.236,2.435,0.709s0.831,1.104,0.858,1.893l-1.734,0.076c-0.074-0.441-0.233-0.759-0.478-0.952
				s-0.61-0.29-1.099-0.29c-0.504,0-0.898,0.104-1.184,0.311c-0.184,0.133-0.275,0.311-0.275,0.533c0,0.203,0.086,0.377,0.258,0.521
				c0.219,0.184,0.75,0.375,1.594,0.574s1.468,0.405,1.872,0.618s0.721,0.504,0.949,0.873s0.343,0.825,0.343,1.368
				c0,0.492-0.137,0.953-0.41,1.383s-0.66,0.749-1.16,0.958s-1.123,0.313-1.869,0.313c-1.086,0-1.92-0.251-2.502-0.753
				S507.749,62.342,507.636,61.381z"/>
			<path display="inline" fill="#FFFFFF" d="M518.921,57.953v1.313h-1.125v2.508c0,0.508,0.011,0.804,0.032,0.888
				s0.07,0.153,0.146,0.208s0.169,0.082,0.278,0.082c0.152,0,0.373-0.053,0.662-0.158l0.141,1.277
				c-0.383,0.164-0.816,0.246-1.301,0.246c-0.297,0-0.564-0.05-0.803-0.149s-0.413-0.229-0.524-0.387s-0.188-0.372-0.231-0.642
				c-0.035-0.191-0.053-0.578-0.053-1.16v-2.713h-0.756v-1.313h0.756v-1.236l1.652-0.961v2.197H518.921z"/>
			<path display="inline" fill="#FFFFFF" d="M523.667,62.196l1.641,0.275c-0.211,0.602-0.544,1.06-0.999,1.374
				s-1.024,0.472-1.708,0.472c-1.082,0-1.883-0.354-2.402-1.061c-0.41-0.566-0.615-1.281-0.615-2.145
				c0-1.031,0.27-1.839,0.809-2.423s1.221-0.876,2.045-0.876c0.926,0,1.656,0.306,2.191,0.917s0.791,1.548,0.768,2.81h-4.125
				c0.012,0.488,0.145,0.868,0.398,1.14s0.57,0.407,0.949,0.407c0.258,0,0.475-0.07,0.65-0.211S523.577,62.508,523.667,62.196z
				 M523.761,60.532c-0.012-0.477-0.135-0.839-0.369-1.087s-0.52-0.372-0.855-0.372c-0.359,0-0.656,0.131-0.891,0.393
				s-0.35,0.617-0.346,1.066H523.761z"/>
			<path display="inline" fill="#FFFFFF" d="M528.314,64.176h-1.646v-6.223h1.529v0.885c0.262-0.418,0.497-0.693,0.706-0.826
				s0.446-0.199,0.712-0.199c0.375,0,0.736,0.104,1.084,0.311l-0.51,1.436c-0.277-0.18-0.535-0.27-0.773-0.27
				c-0.23,0-0.426,0.063-0.586,0.19s-0.286,0.356-0.378,0.688s-0.138,1.027-0.138,2.086V64.176z"/>
			<path display="inline" fill="#FFFFFF" d="M537.068,64.176h-1.646V61c0-0.672-0.035-1.106-0.105-1.304s-0.185-0.351-0.343-0.46
				s-0.349-0.164-0.571-0.164c-0.285,0-0.541,0.078-0.768,0.234s-0.382,0.363-0.466,0.621s-0.126,0.734-0.126,1.43v2.818h-1.646
				v-6.223h1.529v0.914c0.543-0.703,1.227-1.055,2.051-1.055c0.363,0,0.695,0.065,0.996,0.196s0.528,0.298,0.683,0.501
				s0.262,0.434,0.322,0.691s0.091,0.627,0.091,1.107V64.176z"/>
		</g>
		<g>
			<g id="radio_3_">
				<path id="path375_4_" inkscape:connector-curvature="0" fill="#FFFFFF" stroke="#FFFFFF" stroke-miterlimit="10" d="
					M532.9,25.518c-0.3,0-0.6-0.15-0.75-0.45c-2.025-3.525-5.85-5.775-9.9-5.775c-4.05,0-7.875,2.175-9.9,5.775
					c-0.225,0.375-0.75,0.525-1.125,0.3s-0.525-0.75-0.3-1.125c2.325-4.05,6.675-6.6,11.325-6.6c4.65,0,9,2.55,11.325,6.6
					c0.225,0.375,0.075,0.9-0.3,1.125C533.2,25.443,533.05,25.518,532.9,25.518L532.9,25.518z"/>
				<path id="path377_4_" inkscape:connector-curvature="0" fill="#FFFFFF" stroke="#FFFFFF" stroke-miterlimit="10" d="
					M514.525,27.168c-0.15,0-0.3,0-0.375-0.15c-0.375-0.225-0.525-0.75-0.3-1.125c1.725-3.075,5.025-4.95,8.475-4.95
					c3.45,0,6.75,1.875,8.475,4.95c0.225,0.375,0.075,0.9-0.3,1.125c-0.375,0.225-0.9,0.075-1.125-0.3
					c-1.425-2.55-4.125-4.125-7.05-4.125c-2.925,0-5.625,1.575-7.05,4.125C515.05,27.018,514.825,27.168,514.525,27.168z"/>
				<path id="path381_4_" inkscape:connector-curvature="0" fill="#FFFFFF" stroke="#FFFFFF" stroke-miterlimit="10" d="
					M527.2,28.818c-0.3,0-0.525-0.15-0.75-0.45c-0.9-1.5-2.475-2.4-4.2-2.4c-1.725,0-3.3,0.9-4.2,2.4
					c-0.225,0.375-0.75,0.525-1.125,0.3c-0.375-0.225-0.525-0.75-0.3-1.125c1.125-2.025,3.3-3.3,5.625-3.3
					c2.325,0,4.425,1.275,5.625,3.3c0.225,0.375,0.075,0.9-0.3,1.125C527.5,28.818,527.35,28.818,527.2,28.818L527.2,28.818z"/>
				<path id="path383_4_" inkscape:connector-curvature="0" fill="#FFFFFF" stroke="#FFFFFF" stroke-miterlimit="10" d="
					M513.775,33.693c-2.1,0-3.75,1.725-3.75,3.825c0,2.1,1.725,3.825,3.75,3.825c2.1,0,3.75-1.725,3.75-3.825
					C517.6,35.418,515.875,33.693,513.775,33.693z M530.8,33.693c-2.1,0-3.75,1.725-3.75,3.825c0,2.1,1.725,3.825,3.75,3.825
					c2.1,0,3.75-1.725,3.75-3.825C534.55,35.418,532.825,33.693,530.8,33.693z M524.65,32.718h-4.725v3.825h4.725V32.718z
					 M522.25,43.218c-0.75,0-1.425,0.675-1.425,1.425s0.6,1.425,1.425,1.425c0.75,0,1.425-0.675,1.425-1.425
					C523.675,43.818,523.075,43.218,522.25,43.218z M526.975,43.218c-0.75,0-1.425,0.675-1.425,1.425s0.6,1.425,1.425,1.425
					c0.75,0,1.425-0.675,1.425-1.425C528.4,43.818,527.8,43.218,526.975,43.218z M531.7,43.218c-0.75,0-1.425,0.675-1.425,1.425
					s0.6,1.425,1.425,1.425c0.75,0,1.425-0.675,1.425-1.425C533.125,43.818,532.525,43.218,531.7,43.218z M517.6,43.218
					c-0.75,0-1.425,0.675-1.425,1.425s0.6,1.425,1.425,1.425c0.75,0,1.425-0.675,1.425-1.425
					C518.95,43.818,518.35,43.218,517.6,43.218z M512.875,43.218c-0.75,0-1.425,0.675-1.425,1.425s0.6,1.425,1.425,1.425
					c0.75,0,1.425-0.675,1.425-1.425C514.3,43.818,513.625,43.218,512.875,43.218z M536.875,30.843v17.1h-29.25v-17.1h12.3l0,0
					c0-1.35,1.05-2.4,2.325-2.4s2.325,1.05,2.325,2.4l0,0H536.875z"/>
			</g>
			<g enable-background="new    ">
				<path fill="#FFFFFF" d="M511.3,55.443l1.275-0.15c0.075,0.45,0.225,0.75,0.45,0.9c0.225,0.15,0.525,0.3,0.975,0.3
					s0.75-0.075,0.975-0.3c0.225-0.225,0.3-0.375,0.3-0.6c0-0.15-0.075-0.3-0.15-0.375c-0.075-0.075-0.225-0.225-0.45-0.3
					c-0.15-0.075-0.525-0.15-1.05-0.3c-0.675-0.15-1.2-0.375-1.5-0.6c-0.375-0.375-0.6-0.75-0.6-1.275c0-0.3,0.075-0.6,0.3-0.9
					c0.225-0.3,0.45-0.525,0.825-0.675c0.375-0.15,0.75-0.225,1.275-0.225c0.825,0,1.425,0.15,1.8,0.525s0.6,0.825,0.675,1.425
					l-1.275,0.075c-0.075-0.3-0.15-0.6-0.375-0.75s-0.45-0.225-0.825-0.225s-0.675,0.075-0.9,0.225
					c-0.15,0.075-0.225,0.225-0.225,0.375s0.075,0.3,0.225,0.375c0.15,0.15,0.6,0.3,1.2,0.45c0.6,0.15,1.125,0.3,1.425,0.45
					c0.3,0.15,0.525,0.375,0.675,0.675c0.15,0.3,0.225,0.6,0.225,1.05c0,0.375-0.075,0.75-0.3,1.05c-0.225,0.3-0.525,0.525-0.9,0.75
					c-0.375,0.225-0.825,0.225-1.425,0.225c-0.825,0-1.425-0.225-1.875-0.6S511.375,56.193,511.3,55.443z"/>
				<path fill="#FFFFFF" d="M519.775,52.893v0.975h-0.825v1.875c0,0.375,0,0.6,0,0.675s0.075,0.15,0.075,0.15
					s0.15,0.075,0.225,0.075c0.15,0,0.3-0.075,0.525-0.15l0.075,0.975c-0.3,0.15-0.6,0.15-0.975,0.15c-0.225,0-0.45,0-0.6-0.075
					c-0.15-0.075-0.3-0.15-0.375-0.3c-0.075-0.15-0.15-0.3-0.15-0.45c0-0.15-0.075-0.45-0.075-0.9v-2.025h-0.6v-0.975h0.6v-0.9
					l1.275-0.75v1.65H519.775z"/>
				<path fill="#FFFFFF" d="M523.3,56.043l1.2,0.225c-0.15,0.45-0.375,0.825-0.75,1.05s-0.75,0.375-1.275,0.375
					c-0.825,0-1.425-0.3-1.8-0.825c-0.3-0.45-0.45-0.975-0.45-1.575c0-0.75,0.225-1.35,0.6-1.8c0.375-0.45,0.9-0.675,1.5-0.675
					c0.675,0,1.275,0.225,1.65,0.675c0.375,0.45,0.6,1.125,0.6,2.1H521.5c0,0.375,0.075,0.675,0.3,0.825s0.45,0.3,0.675,0.3
					c0.225,0,0.375-0.075,0.525-0.15C523.15,56.493,523.225,56.268,523.3,56.043z M523.375,54.843c0-0.375-0.075-0.6-0.3-0.825
					s-0.375-0.3-0.675-0.3c-0.3,0-0.525,0.075-0.675,0.3s-0.225,0.45-0.225,0.825H523.375z"/>
				<path fill="#FFFFFF" d="M526.825,57.543h-1.2v-4.65h1.125v0.675c0.225-0.3,0.375-0.525,0.525-0.6
					c0.15-0.075,0.3-0.15,0.525-0.15c0.3,0,0.525,0.075,0.825,0.225l-0.375,1.05c-0.225-0.15-0.375-0.225-0.6-0.225
					c-0.15,0-0.3,0.075-0.45,0.15s-0.225,0.3-0.3,0.525s-0.075,0.75-0.075,1.575L526.825,57.543L526.825,57.543z"/>
				<path fill="#FFFFFF" d="M533.35,57.543h-1.2v-2.4c0-0.525,0-0.825-0.075-0.975c-0.075-0.15-0.15-0.3-0.225-0.375
					c-0.075-0.075-0.225-0.15-0.45-0.15s-0.375,0.075-0.6,0.15c-0.225,0.075-0.3,0.3-0.375,0.45c-0.075,0.15-0.075,0.525-0.075,1.05
					v2.1h-1.2v-4.65h1.125v0.675c0.375-0.525,0.9-0.825,1.575-0.825c0.3,0,0.525,0.075,0.75,0.15
					c0.225,0.075,0.375,0.225,0.525,0.375c0.15,0.15,0.225,0.3,0.225,0.525s0.075,0.45,0.075,0.825v3.075H533.35z"/>
			</g>
		</g>
	</g>
	<g id="cdpButtonStyle8" transform="translate(82.711868,-0.19491522)">
		<rect id="rect94-88_4_" x="563.85" y="1.168" fill="none" width="71" height="71"/>
		<g display="none" enable-background="new    ">
			<path display="inline" fill="#FFFFFF" d="M591.266,64.176v-8.59h2.596l1.559,5.859l1.541-5.859h2.602v8.59h-1.611v-6.762
				l-1.705,6.762h-1.67l-1.699-6.762v6.762H591.266z"/>
			<path display="inline" fill="#FFFFFF" d="M601.285,64.176v-8.59h2.783c1.055,0,1.742,0.043,2.063,0.129
				c0.492,0.129,0.904,0.409,1.236,0.841s0.498,0.989,0.498,1.673c0,0.527-0.096,0.971-0.287,1.33s-0.435,0.642-0.729,0.847
				s-0.595,0.341-0.899,0.407c-0.414,0.082-1.014,0.123-1.799,0.123h-1.131v3.24H601.285z M603.02,57.039v2.438h0.949
				c0.684,0,1.141-0.045,1.371-0.135s0.411-0.23,0.542-0.422s0.196-0.414,0.196-0.668c0-0.313-0.092-0.57-0.275-0.773
				s-0.416-0.33-0.697-0.381c-0.207-0.039-0.623-0.059-1.248-0.059H603.02z"/>
		</g>
		<g>
			<g id="radio_4_">
				<path id="path375_5_" inkscape:connector-curvature="0" fill="#FFFFFF" stroke="#FFFFFF" stroke-miterlimit="10" d="
					M609.9,25.493c-0.3,0-0.6-0.15-0.75-0.45c-2.025-3.525-5.85-5.775-9.9-5.775c-4.05,0-7.875,2.175-9.9,5.775
					c-0.225,0.375-0.75,0.525-1.125,0.3s-0.525-0.75-0.3-1.125c2.325-4.05,6.675-6.6,11.325-6.6c4.65,0,9,2.55,11.325,6.6
					c0.225,0.375,0.075,0.9-0.3,1.125C610.2,25.418,610.05,25.493,609.9,25.493L609.9,25.493z"/>
				<path id="path377_5_" inkscape:connector-curvature="0" fill="#FFFFFF" stroke="#FFFFFF" stroke-miterlimit="10" d="
					M591.525,27.143c-0.15,0-0.3,0-0.375-0.15c-0.375-0.225-0.525-0.75-0.3-1.125c1.725-3.075,5.025-4.95,8.475-4.95
					c3.45,0,6.75,1.875,8.475,4.95c0.225,0.375,0.075,0.9-0.3,1.125c-0.375,0.225-0.9,0.075-1.125-0.3
					c-1.425-2.55-4.125-4.125-7.05-4.125c-2.925,0-5.625,1.575-7.05,4.125C592.125,26.993,591.825,27.143,591.525,27.143z"/>
				<path id="path381_5_" inkscape:connector-curvature="0" fill="#FFFFFF" stroke="#FFFFFF" stroke-miterlimit="10" d="
					M604.2,28.793c-0.3,0-0.525-0.15-0.75-0.45c-0.9-1.5-2.475-2.4-4.2-2.4c-1.725,0-3.3,0.9-4.2,2.4
					c-0.225,0.375-0.75,0.525-1.125,0.3s-0.525-0.75-0.3-1.125c1.125-2.025,3.3-3.3,5.625-3.3c2.325,0,4.425,1.275,5.625,3.3
					c0.225,0.375,0.075,0.9-0.3,1.125C604.5,28.793,604.35,28.793,604.2,28.793L604.2,28.793z"/>
				<path id="path383_5_" inkscape:connector-curvature="0" fill="#FFFFFF" stroke="#FFFFFF" stroke-miterlimit="10" d="
					M590.775,33.668c-2.1,0-3.75,1.725-3.75,3.825c0,2.1,1.725,3.825,3.75,3.825c2.1,0,3.75-1.725,3.75-3.825
					C594.6,35.393,592.875,33.668,590.775,33.668z M607.8,33.668c-2.1,0-3.75,1.725-3.75,3.825c0,2.1,1.725,3.825,3.75,3.825
					c2.1,0,3.75-1.725,3.75-3.825C611.55,35.393,609.9,33.668,607.8,33.668z M601.65,32.693h-4.725v3.825h4.725V32.693z
					 M599.325,43.193c-0.75,0-1.425,0.675-1.425,1.425s0.6,1.425,1.425,1.425c0.75,0,1.425-0.675,1.425-1.425
					C600.675,43.793,600.075,43.193,599.325,43.193z M603.975,43.193c-0.75,0-1.425,0.675-1.425,1.425s0.6,1.425,1.425,1.425
					c0.75,0,1.425-0.675,1.425-1.425C605.4,43.793,604.8,43.193,603.975,43.193z M608.7,43.193c-0.75,0-1.425,0.675-1.425,1.425
					s0.6,1.425,1.425,1.425c0.75,0,1.425-0.675,1.425-1.425C610.125,43.793,609.525,43.193,608.7,43.193z M594.6,43.193
					c-0.75,0-1.425,0.675-1.425,1.425s0.6,1.425,1.425,1.425c0.75,0,1.425-0.675,1.425-1.425
					C596.025,43.793,595.35,43.193,594.6,43.193z M589.875,43.193c-0.75,0-1.425,0.675-1.425,1.425s0.6,1.425,1.425,1.425
					c0.75,0,1.425-0.675,1.425-1.425C591.3,43.793,590.625,43.193,589.875,43.193z M613.875,30.818v17.1h-29.25v-17.1h12.3l0,0
					c0-1.35,1.05-2.4,2.325-2.4s2.325,1.05,2.325,2.4l0,0H613.875z"/>
			</g>
			<g enable-background="new    ">
				<path fill="#FFFFFF" d="M593.25,57.518v-6.45h1.95l1.2,4.425l1.125-4.425h1.95v6.45h-1.2v-5.1l-1.275,5.1h-1.275l-1.275-5.1v5.1
					H593.25z"/>
				<path fill="#FFFFFF" d="M600.75,57.518v-6.45h2.1c0.825,0,1.275,0,1.575,0.075c0.375,0.075,0.675,0.3,0.9,0.6
					c0.225,0.3,0.375,0.75,0.375,1.275c0,0.375-0.075,0.75-0.225,0.975c-0.15,0.225-0.3,0.45-0.525,0.6s-0.45,0.225-0.675,0.3
					c-0.3,0.075-0.75,0.075-1.35,0.075H602.1v2.4h-1.35V57.518z M602.1,52.193v1.8h0.675c0.525,0,0.825,0,1.05-0.075
					c0.225-0.075,0.3-0.15,0.375-0.3c0.075-0.15,0.15-0.3,0.15-0.525c0-0.225-0.075-0.45-0.225-0.6c-0.15-0.15-0.3-0.225-0.525-0.3
					c-0.15,0-0.45-0.075-0.9-0.075h-0.6V52.193z"/>
			</g>
		</g>
	</g>
	<g id="cdpButtonStyle9" transform="translate(82.711868,-0.19491522)">
		<rect id="rect94-88_5_" x="640.85" y="1.168" fill="none" width="71" height="71"/>
		<g display="none" enable-background="new    ">
			<path display="inline" fill="#FFFFFF" d="M676.035,64.176h-1.887l-0.75-1.951h-3.434l-0.709,1.951h-1.84l3.346-8.59h1.834
				L676.035,64.176z M672.842,60.778l-1.184-3.188l-1.16,3.188H672.842z"/>
			<path display="inline" fill="#FFFFFF" d="M676.967,64.176v-8.59h5.889v1.453h-4.154v2.033h3.586v1.453h-3.586v3.65H676.967z"/>
		</g>
		<g>
			<g id="radio_5_">
				<path id="path375_6_" inkscape:connector-curvature="0" fill="#FFFFFF" stroke="#FFFFFF" stroke-miterlimit="10" d="
					M686.9,25.505c-0.3,0-0.6-0.15-0.75-0.45c-2.025-3.525-5.85-5.775-9.9-5.775c-4.05,0-7.875,2.175-9.9,5.775
					c-0.225,0.375-0.75,0.525-1.125,0.3c-0.375-0.225-0.525-0.75-0.3-1.125c2.325-4.05,6.675-6.6,11.325-6.6
					c4.65,0,9,2.55,11.325,6.6c0.225,0.375,0.075,0.9-0.3,1.125C687.2,25.43,687.05,25.505,686.9,25.505L686.9,25.505z"/>
				<path id="path377_6_" inkscape:connector-curvature="0" fill="#FFFFFF" stroke="#FFFFFF" stroke-miterlimit="10" d="
					M668.525,27.155c-0.15,0-0.3,0-0.375-0.15c-0.375-0.225-0.525-0.75-0.3-1.125c1.725-3.075,5.025-4.95,8.475-4.95
					c3.45,0,6.75,1.875,8.475,4.95c0.225,0.375,0.075,0.9-0.3,1.125c-0.375,0.225-0.9,0.075-1.125-0.3
					c-1.425-2.55-4.125-4.125-7.05-4.125c-2.925,0-5.625,1.575-7.05,4.125C669.125,27.005,668.825,27.155,668.525,27.155z"/>
				<path id="path381_6_" inkscape:connector-curvature="0" fill="#FFFFFF" stroke="#FFFFFF" stroke-miterlimit="10" d="
					M681.2,28.805c-0.3,0-0.525-0.15-0.75-0.45c-0.9-1.5-2.475-2.4-4.2-2.4c-1.725,0-3.3,0.9-4.2,2.4
					c-0.225,0.375-0.75,0.525-1.125,0.3s-0.525-0.75-0.3-1.125c1.125-2.025,3.3-3.3,5.625-3.3c2.325,0,4.425,1.275,5.625,3.3
					c0.225,0.375,0.075,0.9-0.3,1.125C681.5,28.805,681.35,28.805,681.2,28.805L681.2,28.805z"/>
				<path id="path383_6_" inkscape:connector-curvature="0" fill="#FFFFFF" stroke="#FFFFFF" stroke-miterlimit="10" d="
					M667.775,33.68c-2.1,0-3.75,1.725-3.75,3.825c0,2.1,1.725,3.825,3.75,3.825c2.1,0,3.75-1.725,3.75-3.825
					C671.6,35.405,669.875,33.68,667.775,33.68z M684.8,33.68c-2.1,0-3.75,1.725-3.75,3.825c0,2.1,1.725,3.825,3.75,3.825
					c2.1,0,3.75-1.725,3.75-3.825C688.55,35.405,686.9,33.68,684.8,33.68z M678.65,32.705h-4.725v3.825h4.725V32.705z
					 M676.325,43.205c-0.75,0-1.425,0.675-1.425,1.425s0.6,1.425,1.425,1.425c0.75,0,1.425-0.675,1.425-1.425
					C677.675,43.805,677.075,43.205,676.325,43.205z M680.975,43.205c-0.75,0-1.425,0.675-1.425,1.425s0.6,1.425,1.425,1.425
					c0.75,0,1.425-0.675,1.425-1.425C682.4,43.805,681.8,43.205,680.975,43.205z M685.7,43.205c-0.75,0-1.425,0.675-1.425,1.425
					s0.6,1.425,1.425,1.425c0.75,0,1.425-0.675,1.425-1.425C687.125,43.805,686.525,43.205,685.7,43.205z M671.6,43.205
					c-0.75,0-1.425,0.675-1.425,1.425s0.6,1.425,1.425,1.425c0.75,0,1.425-0.675,1.425-1.425
					C673.025,43.805,672.35,43.205,671.6,43.205z M666.875,43.205c-0.75,0-1.425,0.675-1.425,1.425s0.6,1.425,1.425,1.425
					c0.75,0,1.425-0.675,1.425-1.425C668.3,43.805,667.625,43.205,666.875,43.205z M690.875,30.83v17.1h-29.25v-17.1h12.3l0,0
					c0-1.35,1.05-2.4,2.325-2.4s2.325,1.05,2.325,2.4l0,0H690.875z"/>
			</g>
			<g id="af" enable-background="new    ">
				<path fill="#FFFFFF" d="M676.1,57.53h-1.425l-0.6-1.5h-2.55L671,57.53h-1.35l2.475-6.45h1.35L676.1,57.53z M673.7,54.98
					l-0.9-2.4l-0.9,2.4H673.7z"/>
				<path fill="#FFFFFF" d="M676.775,57.53v-6.45h4.425v1.125h-3.15v1.5h2.7v1.125h-2.7v2.775h-1.275V57.53z"/>
			</g>
		</g>
	</g>
	<g id="cdpButtonStyle13" transform="translate(-85.161013,3.5063238e-8)">
		<rect id="rect94-8_3_" x="889.661" y="1.168" fill="none" width="71" height="71"/>
		<g>
			<rect x="890.661" y="2.168" fill="none" width="69" height="68.999"/>
			<g>
				<g>
					<path d="M957.648,36.667c0,17.943-14.545,32.488-32.486,32.488c-17.941,0-32.486-14.545-32.486-32.488
						c0-17.94,14.545-32.485,32.486-32.485C943.103,4.182,957.648,18.727,957.648,36.667"/>
					<path opacity="0.4" enable-background="new    " d="M957.648,36.667c0,17.943-14.545,32.488-32.486,32.488
						c-17.941,0-32.486-14.545-32.486-32.488c0-17.94,14.545-32.485,32.486-32.485C943.103,4.182,957.648,18.727,957.648,36.667"/>
				</g>
				
					<linearGradient id="SVGID_7_" gradientUnits="userSpaceOnUse" x1="857.8005" y1="-1238.7028" x2="892.2744" y2="-1273.1766" gradientTransform="matrix(1 0 0 -1 50.1001 -1219.2954)">
					<stop  offset="0" style="stop-color:#212223"/>
					<stop  offset="0.5529" style="stop-color:#2A2B2B"/>
					<stop  offset="0.9895" style="stop-color:#666868"/>
				</linearGradient>
				<path fill="url(#SVGID_7_)" d="M959.661,36.667c0-19.021-15.477-34.499-34.5-34.499c-19.023,0-34.5,15.48-34.5,34.499
					c0,19.023,15.477,34.5,34.5,34.5C944.185,71.167,959.661,55.692,959.661,36.667z M892.675,36.667
					c0-17.94,14.543-32.485,32.486-32.485c17.943,0,32.486,14.545,32.486,32.485c0,17.943-14.543,32.488-32.486,32.488
					C907.218,69.157,892.675,54.612,892.675,36.667z"/>
				
					<linearGradient id="SVGID_8_" gradientUnits="userSpaceOnUse" x1="835.841" y1="556.804" x2="777.841" y2="556.804" gradientTransform="matrix(1 0 0 1 118.3203 -520.1357)">
					<stop  offset="0" style="stop-color:#707070"/>
					<stop  offset="1" style="stop-color:#B2B2B2"/>
				</linearGradient>
				<circle fill="url(#SVGID_8_)" cx="925.161" cy="36.668" r="29"/>
				
					<linearGradient id="SVGID_9_" gradientUnits="userSpaceOnUse" x1="846.9758" y1="-1243.0784" x2="878.1783" y2="-1243.0784" gradientTransform="matrix(1 0 0 -1 50.1001 -1219.2954)">
					<stop  offset="0" style="stop-color:#A6A6A6"/>
					<stop  offset="0.5" style="stop-color:#CCCCCC"/>
					<stop  offset="1" style="stop-color:#999999"/>
				</linearGradient>
				<path fill="url(#SVGID_9_)" d="M925.161,7.668c-16.018,0-28.999,12.984-28.999,28.999c0,4.396,0.789,4.217,0.789,0
					c0-14.45,13.453-27.924,28.21-27.924C930.195,8.743,930.43,7.668,925.161,7.668z"/>
			</g>
		</g>
		<g id="lars" display="none" enable-background="new    ">
			<g display="inline">
				<path fill="#CCCCCC" d="M910.366,54.122v-8.59h1.137v7.576h4.23v1.014H910.366z"/>
				<path fill="#CCCCCC" d="M916.144,54.122l3.299-8.59h1.225l3.516,8.59h-1.295l-1.002-2.602h-3.592l-0.943,2.602H916.144z
					 M918.622,50.595h2.912l-0.896-2.379c-0.273-0.723-0.477-1.316-0.609-1.781c-0.109,0.551-0.264,1.098-0.463,1.641
					L918.622,50.595z"/>
				<path fill="#CCCCCC" d="M925.109,54.122v-8.59h3.809c0.766,0,1.348,0.077,1.746,0.231s0.717,0.427,0.955,0.817
					s0.357,0.822,0.357,1.295c0,0.609-0.197,1.123-0.592,1.541s-1.004,0.684-1.828,0.797c0.301,0.145,0.529,0.287,0.686,0.428
					c0.332,0.305,0.646,0.686,0.943,1.143l1.494,2.338h-1.43l-1.137-1.787c-0.332-0.516-0.605-0.91-0.82-1.184
					s-0.407-0.465-0.577-0.574s-0.343-0.186-0.519-0.229c-0.129-0.027-0.34-0.041-0.633-0.041h-1.318v3.814H925.109z
					 M926.245,49.324h2.443c0.52,0,0.926-0.054,1.219-0.161s0.516-0.279,0.668-0.516s0.229-0.493,0.229-0.771
					c0-0.406-0.147-0.74-0.442-1.002s-0.761-0.393-1.397-0.393h-2.719V49.324z"/>
				<path fill="#CCCCCC" d="M933.37,51.363l1.072-0.094c0.051,0.43,0.169,0.782,0.354,1.058s0.474,0.498,0.864,0.668
					s0.83,0.255,1.318,0.255c0.434,0,0.816-0.064,1.148-0.193s0.579-0.306,0.741-0.53s0.243-0.47,0.243-0.735
					c0-0.27-0.078-0.505-0.234-0.706s-0.414-0.37-0.773-0.507c-0.23-0.09-0.74-0.229-1.529-0.419s-1.342-0.368-1.658-0.536
					c-0.41-0.215-0.716-0.481-0.917-0.8s-0.302-0.675-0.302-1.069c0-0.434,0.123-0.839,0.369-1.216s0.605-0.663,1.078-0.858
					s0.998-0.293,1.576-0.293c0.637,0,1.198,0.103,1.685,0.308s0.86,0.507,1.122,0.905s0.402,0.85,0.422,1.354l-1.09,0.082
					c-0.059-0.543-0.257-0.953-0.595-1.23s-0.837-0.416-1.497-0.416c-0.688,0-1.188,0.126-1.503,0.378s-0.472,0.556-0.472,0.911
					c0,0.309,0.111,0.563,0.334,0.762c0.219,0.199,0.79,0.403,1.714,0.612s1.558,0.392,1.901,0.548
					c0.5,0.23,0.869,0.522,1.107,0.876s0.357,0.761,0.357,1.222c0,0.457-0.131,0.888-0.393,1.292s-0.638,0.719-1.128,0.943
					s-1.042,0.337-1.655,0.337c-0.777,0-1.429-0.113-1.954-0.34s-0.938-0.567-1.236-1.022S933.386,51.937,933.37,51.363z"/>
			</g>
			<g display="inline">
				<g>
					<path fill="#212223" d="M910.366,53.722v-8.59h1.137v7.576h4.23v1.014H910.366z"/>
					<path fill="#212223" d="M916.144,53.722l3.299-8.59h1.225l3.516,8.59h-1.295l-1.002-2.602h-3.592l-0.943,2.602H916.144z
						 M918.622,50.195h2.912l-0.896-2.379c-0.273-0.723-0.477-1.316-0.609-1.781c-0.109,0.551-0.264,1.098-0.463,1.641
						L918.622,50.195z"/>
					<path fill="#212223" d="M925.109,53.722v-8.59h3.809c0.766,0,1.348,0.077,1.746,0.231s0.717,0.427,0.955,0.817
						s0.357,0.822,0.357,1.295c0,0.609-0.197,1.123-0.592,1.541s-1.004,0.684-1.828,0.797c0.301,0.145,0.529,0.287,0.686,0.428
						c0.332,0.305,0.646,0.686,0.943,1.143l1.494,2.338h-1.43l-1.137-1.787c-0.332-0.516-0.605-0.91-0.82-1.184
						s-0.407-0.465-0.577-0.574s-0.343-0.186-0.519-0.229c-0.129-0.027-0.34-0.041-0.633-0.041h-1.318v3.814H925.109z
						 M926.245,48.924h2.443c0.52,0,0.926-0.054,1.219-0.161s0.516-0.279,0.668-0.516s0.229-0.493,0.229-0.771
						c0-0.406-0.147-0.74-0.442-1.002s-0.761-0.393-1.397-0.393h-2.719V48.924z"/>
					<path fill="#212223" d="M933.37,50.963l1.072-0.094c0.051,0.43,0.169,0.782,0.354,1.058s0.474,0.498,0.864,0.668
						s0.83,0.255,1.318,0.255c0.434,0,0.816-0.064,1.148-0.193s0.579-0.306,0.741-0.53s0.243-0.47,0.243-0.735
						c0-0.27-0.078-0.505-0.234-0.706s-0.414-0.37-0.773-0.507c-0.23-0.09-0.74-0.229-1.529-0.419s-1.342-0.368-1.658-0.536
						c-0.41-0.215-0.716-0.481-0.917-0.8s-0.302-0.675-0.302-1.069c0-0.434,0.123-0.839,0.369-1.216s0.605-0.663,1.078-0.858
						s0.998-0.293,1.576-0.293c0.637,0,1.198,0.103,1.685,0.308s0.86,0.507,1.122,0.905s0.402,0.85,0.422,1.354l-1.09,0.082
						c-0.059-0.543-0.257-0.953-0.595-1.23s-0.837-0.416-1.497-0.416c-0.688,0-1.188,0.126-1.503,0.378s-0.472,0.556-0.472,0.911
						c0,0.309,0.111,0.563,0.334,0.762c0.219,0.199,0.79,0.403,1.714,0.612s1.558,0.392,1.901,0.548
						c0.5,0.23,0.869,0.522,1.107,0.876s0.357,0.761,0.357,1.222c0,0.457-0.131,0.888-0.393,1.292s-0.638,0.719-1.128,0.943
						s-1.042,0.337-1.655,0.337c-0.777,0-1.429-0.113-1.954-0.34s-0.938-0.567-1.236-1.022S933.386,51.537,933.37,50.963z"/>
				</g>
			</g>
		</g>
		<g id="screen_4_" enable-background="new    ">
			<g>
				<g id="path1475_6_">
					<path inkscape:connector-curvature="0" fill="none" stroke="#CCCCCC" stroke-width="3" stroke-miterlimit="10" d="
						M919.586,40.46"/>
				</g>
				<g id="path1479_6_">
					<path fill="#CCCCCC" d="M937.286,42.035l-6.085-0.075h-18.365c-1.736,0-3.149-1.413-3.149-3.149V23.36
						c0-1.737,1.413-3.15,3.149-3.15h24.45c1.737,0,3.15,1.413,3.15,3.15v15.525C940.437,40.622,939.024,42.035,937.286,42.035z
						 M912.836,23.21c-0.071,0-0.149,0.079-0.149,0.15v15.45c0,0.071,0.078,0.149,0.149,0.149h18.394l6.075,0.075
						c0.053,0,0.132-0.078,0.132-0.149V23.36c0-0.071-0.079-0.15-0.15-0.15H912.836z"/>
				</g>
				<g id="line1481_6_">
					<path fill="#CCCCCC" d="M915.087,35.61c-0.291,0-0.579-0.126-0.777-0.37c-0.348-0.428-0.283-1.058,0.146-1.406l10.8-8.775
						c0.43-0.349,1.059-0.284,1.407,0.146c0.348,0.428,0.283,1.058-0.146,1.406l-10.8,8.775
						C915.531,35.537,915.309,35.61,915.087,35.61z"/>
				</g>
				<g id="line1483_6_">
					<path fill="#CCCCCC" d="M919.212,35.61c-0.29,0-0.576-0.125-0.774-0.366c-0.35-0.427-0.288-1.057,0.14-1.407l6.675-5.475
						c0.427-0.353,1.057-0.288,1.407,0.139c0.35,0.427,0.288,1.057-0.14,1.407l-6.675,5.475
						C919.659,35.536,919.435,35.61,919.212,35.61z"/>
				</g>
				<g id="line1485_6_">
					<path fill="#CCCCCC" d="M914.938,32.535c-0.291,0-0.579-0.126-0.776-0.369c-0.349-0.429-0.284-1.059,0.145-1.407l7.649-6.225
						c0.43-0.35,1.059-0.283,1.406,0.144c0.349,0.429,0.284,1.059-0.145,1.407l-7.649,6.225
						C915.382,32.462,915.159,32.535,914.938,32.535z"/>
				</g>
				<g>
					<path fill="#CCCCCC" d="M910.366,54.522v-8.59h1.137v7.576h4.23v1.014H910.366z"/>
					<path fill="#CCCCCC" d="M916.144,54.522l3.299-8.59h1.225l3.516,8.59h-1.295l-1.002-2.602h-3.592l-0.943,2.602H916.144z
						 M918.622,50.995h2.912l-0.896-2.379c-0.273-0.723-0.477-1.316-0.609-1.781c-0.109,0.551-0.264,1.098-0.463,1.641
						L918.622,50.995z"/>
					<path fill="#CCCCCC" d="M925.109,54.522v-8.59h3.809c0.766,0,1.348,0.077,1.746,0.231s0.717,0.427,0.955,0.817
						s0.357,0.822,0.357,1.295c0,0.609-0.197,1.123-0.592,1.541s-1.004,0.684-1.828,0.797c0.301,0.145,0.529,0.287,0.686,0.428
						c0.332,0.305,0.646,0.686,0.943,1.143l1.494,2.338h-1.43l-1.137-1.787c-0.332-0.516-0.605-0.91-0.82-1.184
						s-0.407-0.465-0.577-0.574s-0.343-0.186-0.519-0.229c-0.129-0.027-0.34-0.041-0.633-0.041h-1.318v3.814H925.109z
						 M926.245,49.723h2.443c0.52,0,0.926-0.054,1.219-0.161s0.516-0.279,0.668-0.516s0.229-0.493,0.229-0.771
						c0-0.406-0.147-0.74-0.442-1.002s-0.761-0.393-1.397-0.393h-2.719V49.723z"/>
					<path fill="#CCCCCC" d="M933.37,51.762l1.072-0.094c0.051,0.43,0.169,0.782,0.354,1.058s0.474,0.498,0.864,0.668
						s0.83,0.255,1.318,0.255c0.434,0,0.816-0.064,1.148-0.193s0.579-0.306,0.741-0.53s0.243-0.47,0.243-0.735
						c0-0.27-0.078-0.505-0.234-0.706s-0.414-0.37-0.773-0.507c-0.23-0.09-0.74-0.229-1.529-0.419s-1.342-0.368-1.658-0.536
						c-0.41-0.215-0.716-0.481-0.917-0.8s-0.302-0.675-0.302-1.069c0-0.434,0.123-0.839,0.369-1.216s0.605-0.663,1.078-0.858
						s0.998-0.293,1.576-0.293c0.637,0,1.198,0.103,1.685,0.308s0.86,0.507,1.122,0.905s0.402,0.85,0.422,1.354l-1.09,0.082
						c-0.059-0.543-0.257-0.953-0.595-1.23s-0.837-0.416-1.497-0.416c-0.688,0-1.188,0.126-1.503,0.378s-0.472,0.556-0.472,0.911
						c0,0.309,0.111,0.563,0.334,0.762c0.219,0.199,0.79,0.403,1.714,0.612s1.558,0.392,1.901,0.548
						c0.5,0.23,0.869,0.522,1.107,0.876s0.357,0.761,0.357,1.222c0,0.457-0.131,0.888-0.393,1.292s-0.638,0.719-1.128,0.943
						s-1.042,0.337-1.655,0.337c-0.777,0-1.429-0.113-1.954-0.34s-0.938-0.567-1.236-1.022S933.386,52.337,933.37,51.762z"/>
				</g>
				<g>
					<path fill="#CCCCCC" d="M910.366,54.123v-8.59h1.137v7.576h4.23v1.014H910.366z"/>
					<path fill="#CCCCCC" d="M916.144,54.123l3.299-8.59h1.225l3.516,8.59h-1.295l-1.002-2.602h-3.592l-0.943,2.602H916.144z
						 M918.622,50.595h2.912l-0.896-2.379c-0.273-0.723-0.477-1.316-0.609-1.781c-0.109,0.551-0.264,1.098-0.463,1.641
						L918.622,50.595z"/>
					<path fill="#CCCCCC" d="M925.109,54.123v-8.59h3.809c0.766,0,1.348,0.077,1.746,0.231s0.717,0.427,0.955,0.817
						s0.357,0.822,0.357,1.295c0,0.609-0.197,1.123-0.592,1.541s-1.004,0.684-1.828,0.797c0.301,0.145,0.529,0.287,0.686,0.428
						c0.332,0.305,0.646,0.686,0.943,1.143l1.494,2.338h-1.43l-1.137-1.787c-0.332-0.516-0.605-0.91-0.82-1.184
						s-0.407-0.465-0.577-0.574s-0.343-0.186-0.519-0.229c-0.129-0.027-0.34-0.041-0.633-0.041h-1.318v3.814H925.109z
						 M926.245,49.324h2.443c0.52,0,0.926-0.054,1.219-0.161s0.516-0.279,0.668-0.516s0.229-0.493,0.229-0.771
						c0-0.406-0.147-0.74-0.442-1.002s-0.761-0.393-1.397-0.393h-2.719V49.324z"/>
					<path fill="#CCCCCC" d="M933.37,51.363l1.072-0.094c0.051,0.43,0.169,0.782,0.354,1.058s0.474,0.498,0.864,0.668
						s0.83,0.255,1.318,0.255c0.434,0,0.816-0.064,1.148-0.193s0.579-0.306,0.741-0.53s0.243-0.47,0.243-0.735
						c0-0.27-0.078-0.505-0.234-0.706s-0.414-0.37-0.773-0.507c-0.23-0.09-0.74-0.229-1.529-0.419
						c-0.789-0.189-1.342-0.368-1.658-0.536c-0.41-0.215-0.716-0.481-0.917-0.8s-0.302-0.675-0.302-1.069
						c0-0.434,0.123-0.839,0.369-1.216s0.605-0.663,1.078-0.858s0.998-0.293,1.576-0.293c0.637,0,1.198,0.103,1.685,0.308
						s0.86,0.507,1.122,0.905s0.402,0.85,0.422,1.354l-1.09,0.082c-0.059-0.543-0.257-0.953-0.595-1.23s-0.837-0.416-1.497-0.416
						c-0.688,0-1.188,0.126-1.503,0.378s-0.472,0.556-0.472,0.911c0,0.309,0.111,0.563,0.334,0.762
						c0.219,0.199,0.79,0.403,1.714,0.612s1.558,0.392,1.901,0.548c0.5,0.23,0.869,0.522,1.107,0.876s0.357,0.761,0.357,1.222
						c0,0.457-0.131,0.888-0.393,1.292s-0.638,0.719-1.128,0.943s-1.042,0.337-1.655,0.337c-0.777,0-1.429-0.113-1.954-0.34
						s-0.938-0.567-1.236-1.022S933.386,51.937,933.37,51.363z"/>
				</g>
			</g>
			<g>
				<g id="g1473_5_">
					<g id="path1475_5_">
						<path inkscape:connector-curvature="0" fill="none" stroke="#212223" stroke-width="3" stroke-miterlimit="10" d="
							M919.586,40.06"/>
					</g>
				</g>
				<g id="g1477_5_">
					<g id="path1479_5_">
						<path fill="#212223" d="M937.286,41.635l-6.085-0.075h-18.365c-1.736,0-3.149-1.413-3.149-3.15V22.96
							c0-1.737,1.413-3.15,3.149-3.15h24.45c1.737,0,3.15,1.413,3.15,3.15v15.525C940.437,40.222,939.024,41.635,937.286,41.635z
							 M912.836,22.81c-0.071,0-0.149,0.079-0.149,0.15v15.45c0,0.071,0.078,0.15,0.149,0.15h18.394l6.075,0.075
							c0.053,0,0.132-0.079,0.132-0.15V22.96c0-0.071-0.079-0.15-0.15-0.15H912.836z"/>
					</g>
				</g>
				<g id="line1481_5_">
					<path fill="#212223" d="M915.087,35.21c-0.291,0-0.579-0.126-0.777-0.37c-0.348-0.428-0.283-1.058,0.146-1.406l10.8-8.775
						c0.43-0.349,1.059-0.283,1.407,0.146c0.348,0.428,0.283,1.058-0.146,1.406l-10.8,8.775
						C915.531,35.137,915.309,35.21,915.087,35.21z"/>
				</g>
				<g id="line1483_5_">
					<path fill="#212223" d="M919.212,35.21c-0.29,0-0.576-0.125-0.774-0.366c-0.35-0.427-0.288-1.057,0.14-1.407l6.675-5.475
						c0.427-0.353,1.057-0.288,1.407,0.139c0.35,0.427,0.288,1.057-0.14,1.407l-6.675,5.475
						C919.659,35.136,919.435,35.21,919.212,35.21z"/>
				</g>
				<g id="line1485_5_">
					<path fill="#212223" d="M914.938,32.135c-0.291,0-0.579-0.126-0.776-0.369c-0.349-0.429-0.284-1.059,0.145-1.407l7.649-6.225
						c0.43-0.349,1.059-0.283,1.406,0.145c0.349,0.429,0.284,1.059-0.145,1.407l-7.649,6.225
						C915.382,32.062,915.159,32.135,914.938,32.135z"/>
				</g>
				<g id="lars_2_" enable-background="new    ">
					<g>
						<g>
							<path fill="#CCCCCC" d="M910.366,54.123v-8.59h1.137v7.576h4.23v1.014H910.366z"/>
							<path fill="#CCCCCC" d="M916.144,54.123l3.299-8.59h1.225l3.516,8.59h-1.295l-1.002-2.602h-3.592l-0.943,2.602H916.144z
								 M918.622,50.595h2.912l-0.896-2.379c-0.273-0.723-0.477-1.316-0.609-1.781c-0.109,0.551-0.264,1.098-0.463,1.641
								L918.622,50.595z"/>
							<path fill="#CCCCCC" d="M925.109,54.123v-8.59h3.809c0.766,0,1.348,0.077,1.746,0.231s0.717,0.427,0.955,0.817
								s0.357,0.822,0.357,1.295c0,0.609-0.197,1.123-0.592,1.541s-1.004,0.684-1.828,0.797c0.301,0.145,0.529,0.287,0.686,0.428
								c0.332,0.305,0.646,0.686,0.943,1.143l1.494,2.338h-1.43l-1.137-1.787c-0.332-0.516-0.605-0.91-0.82-1.184
								s-0.407-0.465-0.577-0.574s-0.343-0.186-0.519-0.229c-0.129-0.027-0.34-0.041-0.633-0.041h-1.318v3.814H925.109z
								 M926.245,49.324h2.443c0.52,0,0.926-0.054,1.219-0.161s0.516-0.279,0.668-0.516s0.229-0.493,0.229-0.771
								c0-0.406-0.147-0.74-0.442-1.002s-0.761-0.393-1.397-0.393h-2.719V49.324z"/>
							<path fill="#CCCCCC" d="M933.37,51.363l1.072-0.094c0.051,0.43,0.169,0.782,0.354,1.058s0.474,0.498,0.864,0.668
								s0.83,0.255,1.318,0.255c0.434,0,0.816-0.064,1.148-0.193s0.579-0.306,0.741-0.53s0.243-0.47,0.243-0.735
								c0-0.27-0.078-0.505-0.234-0.706s-0.414-0.37-0.773-0.507c-0.23-0.09-0.74-0.229-1.529-0.419
								c-0.789-0.189-1.342-0.368-1.658-0.536c-0.41-0.215-0.716-0.481-0.917-0.8s-0.302-0.675-0.302-1.069
								c0-0.434,0.123-0.839,0.369-1.216s0.605-0.663,1.078-0.858s0.998-0.293,1.576-0.293c0.637,0,1.198,0.103,1.685,0.308
								s0.86,0.507,1.122,0.905s0.402,0.85,0.422,1.354l-1.09,0.082c-0.059-0.543-0.257-0.953-0.595-1.23s-0.837-0.416-1.497-0.416
								c-0.688,0-1.188,0.126-1.503,0.378s-0.472,0.556-0.472,0.911c0,0.309,0.111,0.563,0.334,0.762
								c0.219,0.199,0.79,0.403,1.714,0.612s1.558,0.392,1.901,0.548c0.5,0.23,0.869,0.522,1.107,0.876s0.357,0.761,0.357,1.222
								c0,0.457-0.131,0.888-0.393,1.292s-0.638,0.719-1.128,0.943s-1.042,0.337-1.655,0.337c-0.777,0-1.429-0.113-1.954-0.34
								s-0.938-0.567-1.236-1.022S933.386,51.937,933.37,51.363z"/>
						</g>
					</g>
					<g>
						<g>
							<path fill="#212223" d="M910.366,53.722v-8.59h1.137v7.576h4.23v1.014H910.366z"/>
							<path fill="#212223" d="M916.144,53.722l3.299-8.59h1.225l3.516,8.59h-1.295l-1.002-2.602h-3.592l-0.943,2.602H916.144z
								 M918.622,50.195h2.912l-0.896-2.379c-0.273-0.723-0.477-1.316-0.609-1.781c-0.109,0.551-0.264,1.098-0.463,1.641
								L918.622,50.195z"/>
							<path fill="#212223" d="M925.109,53.722v-8.59h3.809c0.766,0,1.348,0.077,1.746,0.231s0.717,0.427,0.955,0.817
								s0.357,0.822,0.357,1.295c0,0.609-0.197,1.123-0.592,1.541s-1.004,0.684-1.828,0.797c0.301,0.145,0.529,0.287,0.686,0.428
								c0.332,0.305,0.646,0.686,0.943,1.143l1.494,2.338h-1.43l-1.137-1.787c-0.332-0.516-0.605-0.91-0.82-1.184
								s-0.407-0.465-0.577-0.574s-0.343-0.186-0.519-0.229c-0.129-0.027-0.34-0.041-0.633-0.041h-1.318v3.814H925.109z
								 M926.245,48.924h2.443c0.52,0,0.926-0.054,1.219-0.161s0.516-0.279,0.668-0.516s0.229-0.493,0.229-0.771
								c0-0.406-0.147-0.74-0.442-1.002s-0.761-0.393-1.397-0.393h-2.719V48.924z"/>
							<path fill="#212223" d="M933.37,50.963l1.072-0.094c0.051,0.43,0.169,0.782,0.354,1.058s0.474,0.498,0.864,0.668
								c0.391,0.17,0.83,0.255,1.318,0.255c0.434,0,0.816-0.064,1.148-0.193s0.579-0.306,0.741-0.53s0.243-0.47,0.243-0.735
								c0-0.27-0.078-0.505-0.234-0.706s-0.414-0.37-0.773-0.507c-0.23-0.09-0.74-0.229-1.529-0.419s-1.342-0.368-1.658-0.536
								c-0.41-0.215-0.716-0.481-0.917-0.8s-0.302-0.675-0.302-1.069c0-0.434,0.123-0.839,0.369-1.216s0.605-0.663,1.078-0.858
								s0.998-0.293,1.576-0.293c0.637,0,1.198,0.103,1.685,0.308s0.86,0.507,1.122,0.905s0.402,0.85,0.422,1.354l-1.09,0.082
								c-0.059-0.543-0.257-0.953-0.595-1.23s-0.837-0.416-1.497-0.416c-0.688,0-1.188,0.126-1.503,0.378s-0.472,0.556-0.472,0.911
								c0,0.309,0.111,0.563,0.334,0.762c0.219,0.199,0.79,0.403,1.714,0.612s1.558,0.392,1.901,0.548
								c0.5,0.23,0.869,0.522,1.107,0.876s0.357,0.761,0.357,1.222c0,0.457-0.131,0.888-0.393,1.292s-0.638,0.719-1.128,0.943
								s-1.042,0.337-1.655,0.337c-0.777,0-1.429-0.113-1.954-0.34s-0.938-0.567-1.236-1.022S933.386,51.537,933.37,50.963z"/>
						</g>
					</g>
				</g>
			</g>
		</g>
	</g>
</g>
</svg>
