<?xml version="1.0" encoding="utf-8"?>
<!-- Generator: Adobe Illustrator 16.0.0, SVG Export Plug-In . SVG Version: 6.00 Build 0)  -->
<!DOCTYPE svg PUBLIC "-//W3C//DTD SVG 1.1//EN" "http://www.w3.org/Graphics/SVG/1.1/DTD/svg11.dtd">
<svg version="1.1" id="svg" xmlns="http://www.w3.org/2000/svg" xmlns:xlink="http://www.w3.org/1999/xlink" x="0px" y="0px"
	 width="69.307px" height="74.064px" viewBox="0 0 69.307 74.064" enable-background="new 0 0 69.307 74.064" xml:space="preserve">
<g id="Layer1">
	
		<linearGradient id="bgMenu2_1_" gradientUnits="userSpaceOnUse" x1="-313.9905" y1="-2585.5657" x2="-53.9905" y2="-2585.5657" gradientTransform="matrix(1 0 0 -1 286.7407 -2259.5688)">
		<stop  offset="0.0073" style="stop-color:#242729"/>
		<stop  offset="0.045" style="stop-color:#282B2C"/>
		<stop  offset="0.3184" style="stop-color:#404142"/>
		<stop  offset="0.4866" style="stop-color:#494A4A"/>
		<stop  offset="0.6668" style="stop-color:#404142"/>
		<stop  offset="0.9597" style="stop-color:#282B2C"/>
		<stop  offset="1" style="stop-color:#242729"/>
	</linearGradient>
	<rect id="bgMenu2" x="-27.25" y="-3.007" fill="url(#bgMenu2_1_)" width="260" height="658.008"/>
	<g id="cdpBackground">
		<rect x="-0.25" y="2.833" fill="none" width="69" height="69"/>
		<g>
			<g>
				<path fill="#1E1E1E" d="M66.736,37.333c0,17.943-14.545,32.488-32.48,32.488c-17.942,0-32.487-14.545-32.487-32.488
					c0-17.938,14.545-32.481,32.487-32.481C52.191,4.846,66.736,19.391,66.736,37.333"/>
				<path opacity="0.4" enable-background="new    " d="M66.736,37.333c0,17.943-14.545,32.488-32.48,32.488
					c-17.942,0-32.487-14.545-32.487-32.488c0-17.938,14.545-32.481,32.487-32.481C52.191,4.846,66.736,19.391,66.736,37.333"/>
			</g>
			
				<linearGradient id="SVGID_1_" gradientUnits="userSpaceOnUse" x1="-269.7517" y1="-2279.6433" x2="-235.2782" y2="-2314.1169" gradientTransform="matrix(1 0 0 -1 286.7407 -2259.5688)">
				<stop  offset="0" style="stop-color:#212223"/>
				<stop  offset="0.5529" style="stop-color:#2A2B2B"/>
				<stop  offset="0.9895" style="stop-color:#666868"/>
			</linearGradient>
			<path fill="url(#SVGID_1_)" d="M68.75,37.333c0-19.021-15.479-34.5-34.5-34.5c-19.023,0-34.5,15.479-34.5,34.5
				c0,19.023,15.477,34.5,34.5,34.5C53.273,71.833,68.75,56.356,68.75,37.333z M1.764,37.333C1.764,19.395,16.307,4.85,34.25,4.85
				c17.938,0,32.48,14.546,32.48,32.482c0,17.943-14.543,32.488-32.48,32.488C16.307,69.821,1.764,55.276,1.764,37.333z"/>
			<circle fill="#FFFFFF" cx="34.25" cy="37.333" r="27.176"/>
			
				<linearGradient id="SVGID_2_" gradientUnits="userSpaceOnUse" x1="-278.8074" y1="-2284.8274" x2="-249.5691" y2="-2284.8274" gradientTransform="matrix(1 0 0 -1 286.7407 -2259.5688)">
				<stop  offset="0" style="stop-color:#A6A6A6"/>
				<stop  offset="0.5" style="stop-color:#CCCCCC"/>
				<stop  offset="1" style="stop-color:#999999"/>
			</linearGradient>
			<path fill="url(#SVGID_2_)" d="M34.25,10.157c-15.009,0-27.175,12.167-27.175,27.176c0,4.117,0.733,3.953,0.733,0
				c0-13.543,12.608-26.169,26.438-26.169C38.965,11.164,39.188,10.157,34.25,10.157z"/>
		</g>
	</g>
	<g id="cdpButton">
		<rect x="0.307" y="74.064" fill="none" width="69" height="69"/>
		<g>
			<rect x="20.307" y="115.898" fill="#1D1D1B" width="29" height="4.167"/>
			<rect x="33.307" y="103.731" fill="#1D1D1B" width="3" height="11.334"/>
			
				<linearGradient id="SVGID_3_" gradientUnits="userSpaceOnUse" x1="-324.2048" y1="1655.574" x2="-316.1039" y2="1661.0381" gradientTransform="matrix(1 0 0 1 354.9609 -1560.4092)">
				<stop  offset="0" style="stop-color:#FFFFFF"/>
				<stop  offset="0.0074" style="stop-color:#F6F6F6"/>
				<stop  offset="0.0477" style="stop-color:#C8C8C8"/>
				<stop  offset="0.0931" style="stop-color:#9D9D9D"/>
				<stop  offset="0.1419" style="stop-color:#777777"/>
				<stop  offset="0.195" style="stop-color:#575757"/>
				<stop  offset="0.2537" style="stop-color:#3B3B3B"/>
				<stop  offset="0.32" style="stop-color:#252525"/>
				<stop  offset="0.3974" style="stop-color:#141414"/>
				<stop  offset="0.4931" style="stop-color:#090909"/>
				<stop  offset="0.6274" style="stop-color:#020202"/>
				<stop  offset="1" style="stop-color:#000000"/>
			</linearGradient>
			<ellipse fill="url(#SVGID_3_)" cx="34.807" cy="97.897" rx="4.833" ry="4.999"/>
			
				<linearGradient id="SVGID_4_" gradientUnits="userSpaceOnUse" x1="-333.3279" y1="1672.1375" x2="-326.5199" y2="1676.7295" gradientTransform="matrix(1 0 0 1 354.9609 -1560.4092)">
				<stop  offset="0" style="stop-color:#FFFFFF"/>
				<stop  offset="0.0074" style="stop-color:#F6F6F6"/>
				<stop  offset="0.0477" style="stop-color:#C8C8C8"/>
				<stop  offset="0.0931" style="stop-color:#9D9D9D"/>
				<stop  offset="0.1419" style="stop-color:#777777"/>
				<stop  offset="0.195" style="stop-color:#575757"/>
				<stop  offset="0.2537" style="stop-color:#3B3B3B"/>
				<stop  offset="0.32" style="stop-color:#252525"/>
				<stop  offset="0.3974" style="stop-color:#141414"/>
				<stop  offset="0.4931" style="stop-color:#090909"/>
				<stop  offset="0.6274" style="stop-color:#020202"/>
				<stop  offset="1" style="stop-color:#000000"/>
			</linearGradient>
			<rect x="20.786" y="112.982" fill="url(#SVGID_4_)" width="8.5" height="2.083"/>
		</g>
	</g>
	<g id="cdpBackgroundPressed">
		<rect x="71.75" y="2.833" fill="none" width="69" height="69"/>
		<g>
			<g>
				<path fill="#1E1E1E" d="M138.736,37.333c0,17.943-14.545,32.488-32.48,32.488c-17.941,0-32.486-14.545-32.486-32.488
					c0-17.938,14.545-32.481,32.486-32.481C124.191,4.846,138.736,19.391,138.736,37.333"/>
				<path opacity="0.4" enable-background="new    " d="M138.736,37.333c0,17.943-14.545,32.488-32.48,32.488
					c-17.941,0-32.486-14.545-32.486-32.488c0-17.938,14.545-32.481,32.486-32.481C124.191,4.846,138.736,19.391,138.736,37.333"/>
			</g>
			
				<linearGradient id="SVGID_5_" gradientUnits="userSpaceOnUse" x1="-197.7556" y1="-2279.6375" x2="-163.2781" y2="-2314.1147" gradientTransform="matrix(1 0 0 -1 286.7407 -2259.5688)">
				<stop  offset="0" style="stop-color:#212223"/>
				<stop  offset="0.5529" style="stop-color:#2A2B2B"/>
				<stop  offset="0.9895" style="stop-color:#666868"/>
			</linearGradient>
			<path fill="url(#SVGID_5_)" d="M140.75,37.333c0-19.021-15.479-34.5-34.5-34.5c-19.023,0-34.5,15.479-34.5,34.5
				c0,19.023,15.477,34.5,34.5,34.5C125.273,71.833,140.75,56.356,140.75,37.333z M73.764,37.333
				c0-17.938,14.543-32.482,32.486-32.482c17.938,0,32.48,14.546,32.48,32.482c0,17.943-14.543,32.488-32.48,32.488
				C88.307,69.821,73.764,55.276,73.764,37.333z"/>
			
				<linearGradient id="SVGID_6_" gradientUnits="userSpaceOnUse" x1="-207.6663" y1="-2296.9021" x2="-153.3147" y2="-2296.9021" gradientTransform="matrix(1 0 0 -1 286.7407 -2259.5688)">
				<stop  offset="0" style="stop-color:#707070"/>
				<stop  offset="1" style="stop-color:#B2B2B2"/>
			</linearGradient>
			<circle fill="url(#SVGID_6_)" cx="106.25" cy="37.333" r="27.176"/>
		</g>
	</g>
</g>
<g id="Styles">
	<g id="cdpButtonStyle7">
		<rect x="0.306" y="557.064" fill="none" width="69" height="69"/>
	</g>
	<g id="cdpButtonStyle6">
		<rect x="0.307" y="488.064" fill="none" width="69" height="69"/>
	</g>
	<g id="cdpButtonStyle5">
		<rect x="0.307" y="419.064" fill="none" width="69" height="69"/>
	</g>
	<g id="cdpButtonStyle4">
		<rect x="0.307" y="350.064" fill="none" width="69" height="69"/>
	</g>
	<g id="cdpButtonStyle3">
		<rect x="0.307" y="281.064" fill="none" width="69" height="69"/>
	</g>
	<g id="cdpButtonStyle2">
		<g>
			<path d="M11.27,251.552h2.644c0.596,0,1.05,0.046,1.36,0.137c0.42,0.124,0.779,0.344,1.079,0.659
				c0.3,0.313,0.527,0.7,0.686,1.157c0.154,0.458,0.232,1.021,0.232,1.692c0,0.589-0.071,1.097-0.22,1.523
				c-0.179,0.521-0.435,0.94-0.767,1.265c-0.251,0.244-0.591,0.435-1.018,0.571c-0.317,0.101-0.745,0.149-1.279,0.149h-2.72
				L11.27,251.552L11.27,251.552z M12.716,252.763v4.739h1.079c0.403,0,0.695-0.021,0.874-0.066
				c0.232-0.061,0.429-0.158,0.584-0.298c0.154-0.142,0.28-0.37,0.378-0.691c0.098-0.32,0.146-0.757,0.146-1.311
				c0-0.556-0.049-0.979-0.146-1.274s-0.234-0.527-0.41-0.693s-0.396-0.276-0.669-0.337c-0.202-0.046-0.598-0.066-1.187-0.066
				L12.716,252.763L12.716,252.763z"/>
			<path d="M18.453,258.711v-7.156h1.443v7.156H18.453z"/>
			<path d="M20.909,256.382l1.404-0.137c0.085,0.472,0.256,0.818,0.518,1.04c0.258,0.222,0.605,0.332,1.047,0.332
				c0.466,0,0.814-0.099,1.053-0.295c0.235-0.197,0.354-0.428,0.354-0.691c0-0.169-0.052-0.313-0.148-0.432
				c-0.1-0.119-0.273-0.223-0.521-0.311c-0.171-0.061-0.557-0.163-1.157-0.313c-0.774-0.192-1.318-0.428-1.631-0.708
				c-0.439-0.394-0.659-0.874-0.659-1.44c0-0.362,0.104-0.703,0.31-1.021c0.207-0.316,0.505-0.559,0.896-0.725
				c0.389-0.166,0.856-0.249,1.408-0.249c0.896,0,1.572,0.195,2.027,0.591c0.453,0.394,0.692,0.92,0.715,1.577l-1.443,0.063
				c-0.063-0.368-0.194-0.633-0.398-0.793c-0.203-0.162-0.508-0.242-0.915-0.242c-0.42,0-0.749,0.086-0.984,0.26
				c-0.153,0.109-0.229,0.26-0.229,0.443c0,0.169,0.071,0.314,0.215,0.437c0.185,0.151,0.625,0.313,1.328,0.479
				s1.223,0.338,1.563,0.515c0.336,0.18,0.6,0.422,0.791,0.729c0.188,0.307,0.283,0.688,0.283,1.14c0,0.41-0.112,0.794-0.342,1.152
				c-0.228,0.358-0.55,0.624-0.967,0.798c-0.417,0.175-0.938,0.262-1.558,0.262c-0.905,0-1.602-0.209-2.086-0.627
				C21.293,257.792,21.004,257.182,20.909,256.382z"/>
			<path d="M34.4,258.711h-1.57l-0.625-1.626h-2.861l-0.591,1.626h-1.533l2.788-7.156h1.528L34.4,258.711z M31.739,255.879
				l-0.984-2.654l-0.967,2.654H31.739z"/>
			<path d="M35.171,251.552h2.861c0.564,0,0.986,0.021,1.268,0.068c0.277,0.048,0.527,0.146,0.746,0.296
				c0.221,0.149,0.404,0.351,0.551,0.601c0.146,0.248,0.219,0.525,0.219,0.837c0,0.335-0.09,0.643-0.271,0.923
				c-0.18,0.28-0.424,0.49-0.734,0.63c0.438,0.127,0.771,0.344,1.006,0.649c0.235,0.305,0.354,0.666,0.354,1.079
				c0,0.323-0.076,0.642-0.229,0.948c-0.151,0.308-0.355,0.555-0.621,0.736c-0.262,0.185-0.584,0.298-0.969,0.34
				c-0.24,0.026-0.822,0.042-1.742,0.049h-2.438L35.171,251.552L35.171,251.552z M36.616,252.744v1.655h0.945
				c0.564,0,0.914-0.008,1.051-0.024c0.246-0.027,0.441-0.113,0.582-0.256c0.145-0.143,0.215-0.328,0.215-0.56
				c0-0.224-0.063-0.401-0.186-0.54c-0.121-0.14-0.303-0.224-0.543-0.251c-0.145-0.019-0.555-0.024-1.236-0.024H36.616z
				 M36.616,255.591v1.914h1.338c0.521,0,0.852-0.015,0.99-0.044c0.217-0.039,0.391-0.135,0.523-0.285
				c0.137-0.15,0.203-0.354,0.203-0.606c0-0.215-0.051-0.397-0.156-0.547c-0.104-0.149-0.254-0.259-0.451-0.327
				c-0.195-0.068-0.625-0.104-1.279-0.104H36.616z"/>
			<path d="M42.427,258.711v-7.1h1.445v5.894h3.594v1.206H42.427z"/>
			<path d="M48.497,258.711v-7.156h5.307v1.211h-3.861v1.587h3.596v1.206h-3.596v1.946h3.998v1.206H48.497z"/>
			<path d="M55.161,251.552h2.643c0.596,0,1.049,0.046,1.361,0.137c0.42,0.124,0.777,0.344,1.08,0.659
				c0.299,0.313,0.525,0.7,0.684,1.157c0.156,0.458,0.234,1.021,0.234,1.692c0,0.589-0.074,1.097-0.223,1.523
				c-0.178,0.521-0.434,0.94-0.766,1.265c-0.252,0.244-0.59,0.435-1.016,0.571c-0.32,0.101-0.746,0.149-1.279,0.149h-2.72
				L55.161,251.552L55.161,251.552z M56.607,252.763v4.739h1.08c0.402,0,0.695-0.021,0.873-0.066
				c0.234-0.061,0.432-0.158,0.584-0.298c0.154-0.142,0.281-0.37,0.379-0.691c0.1-0.32,0.146-0.757,0.146-1.311
				c0-0.556-0.049-0.979-0.146-1.274c-0.097-0.295-0.232-0.527-0.41-0.693c-0.176-0.166-0.396-0.276-0.67-0.337
				c-0.199-0.046-0.598-0.066-1.186-0.066L56.607,252.763L56.607,252.763z"/>
		</g>
		<rect x="1.717" y="220.634" fill="none" width="69" height="69"/>
	</g>
	<g id="cdpButtonStyle1">
		<g>
			<path d="M18.216,181.859v-8.59h1.688l3.519,5.733v-5.733h1.608v8.59h-1.737l-3.463-5.604v5.604H18.216z"/>
			<path d="M26.513,177.617c0-0.875,0.131-1.609,0.393-2.203c0.195-0.438,0.465-0.83,0.803-1.178s0.708-0.605,1.107-0.773
				c0.535-0.227,1.152-0.34,1.854-0.34c1.266,0,2.275,0.396,3.038,1.181c0.76,0.782,1.14,1.877,1.14,3.272
				c0,1.387-0.377,2.472-1.131,3.255s-1.762,1.175-3.023,1.175c-1.274,0-2.293-0.39-3.047-1.169
				C26.891,180.058,26.513,178.984,26.513,177.617z M28.3,177.558c0,0.973,0.225,1.71,0.674,2.212s1.021,0.753,1.711,0.753
				c0.691,0,1.259-0.249,1.702-0.747s0.665-1.245,0.665-2.241c0-0.981-0.216-1.719-0.647-2.203c-0.431-0.481-1.005-0.727-1.72-0.727
				s-1.291,0.245-1.729,0.732C28.518,175.83,28.3,176.57,28.3,177.558z"/>
			<path d="M36.216,181.859v-8.59h1.688l3.519,5.733v-5.733h1.609v8.59h-1.738l-3.463-5.604v5.604H36.216z"/>
			<path d="M44.865,181.859v-8.59h6.366v1.453h-4.635v1.901h4.313v1.447h-4.313v2.338h4.799v1.447L44.865,181.859L44.865,181.859z"
				/>
		</g>
		<rect x="0.307" y="143.064" fill="none" width="69" height="69"/>
	</g>
	<text transform="matrix(1 0 0 1 286.8186 41.0398)" font-family="'MyriadPro-Regular'" font-size="12">when saving checked state.</text>
	<text transform="matrix(1 0 0 1 286.8186 26.6394)" font-family="'MyriadPro-Regular'" font-size="12">icons and make them 40% transparent </text>
	<text transform="matrix(1 0 0 1 286.8186 12.239)" font-family="'MyriadPro-Regular'" font-size="12">Set backWhite visible and select all </text>
</g>
</svg>
