<?xml version="1.0" encoding="utf-8"?>
<!-- Generator: Adobe Illustrator 16.0.0, SVG Export Plug-In . SVG Version: 6.00 Build 0)  -->
<!DOCTYPE svg PUBLIC "-//W3C//DTD SVG 1.1//EN" "http://www.w3.org/Graphics/SVG/1.1/DTD/svg11.dtd">
<svg version="1.1" id="svg" xmlns="http://www.w3.org/2000/svg" xmlns:xlink="http://www.w3.org/1999/xlink" x="0px" y="0px"
	 width="69.307px" height="74.064px" viewBox="0 0 69.307 74.064" enable-background="new 0 0 69.307 74.064" xml:space="preserve">
<g id="Layer1">
	
		<linearGradient id="bgMenu2_1_" gradientUnits="userSpaceOnUse" x1="-313.9905" y1="-2585.5657" x2="-53.9905" y2="-2585.5657" gradientTransform="matrix(1 0 0 -1 286.7407 -2259.5688)">
		<stop  offset="0.0073" style="stop-color:#242729"/>
		<stop  offset="0.045" style="stop-color:#282B2C"/>
		<stop  offset="0.3184" style="stop-color:#404142"/>
		<stop  offset="0.4866" style="stop-color:#494A4A"/>
		<stop  offset="0.6668" style="stop-color:#404142"/>
		<stop  offset="0.9597" style="stop-color:#282B2C"/>
		<stop  offset="1" style="stop-color:#242729"/>
	</linearGradient>
	<rect id="bgMenu2" x="-27.25" y="-3.007" fill="url(#bgMenu2_1_)" width="260" height="658.008"/>
	<g id="cdpBackground">
		<rect x="-0.25" y="2.833" fill="none" width="69" height="69"/>
		<g>
			<g>
				<path fill="#1E1E1E" d="M66.736,37.333c0,17.943-14.545,32.488-32.48,32.488c-17.942,0-32.487-14.545-32.487-32.488
					c0-17.938,14.545-32.481,32.487-32.481C52.191,4.846,66.736,19.391,66.736,37.333"/>
				<path opacity="0.4" enable-background="new    " d="M66.736,37.333c0,17.943-14.545,32.488-32.48,32.488
					c-17.942,0-32.487-14.545-32.487-32.488c0-17.938,14.545-32.481,32.487-32.481C52.191,4.846,66.736,19.391,66.736,37.333"/>
			</g>
			
				<linearGradient id="SVGID_1_" gradientUnits="userSpaceOnUse" x1="-269.7517" y1="-2279.6433" x2="-235.2782" y2="-2314.1169" gradientTransform="matrix(1 0 0 -1 286.7407 -2259.5688)">
				<stop  offset="0" style="stop-color:#212223"/>
				<stop  offset="0.5529" style="stop-color:#2A2B2B"/>
				<stop  offset="0.9895" style="stop-color:#666868"/>
			</linearGradient>
			<path fill="url(#SVGID_1_)" d="M68.75,37.333c0-19.021-15.479-34.5-34.5-34.5c-19.023,0-34.5,15.479-34.5,34.5
				c0,19.023,15.477,34.5,34.5,34.5C53.273,71.833,68.75,56.356,68.75,37.333z M1.764,37.333C1.764,19.395,16.307,4.85,34.25,4.85
				c17.938,0,32.48,14.546,32.48,32.482c0,17.943-14.543,32.488-32.48,32.488C16.307,69.821,1.764,55.276,1.764,37.333z"/>
			
				<linearGradient id="SVGID_2_" gradientUnits="userSpaceOnUse" x1="-293.5349" y1="1597.7419" x2="-347.887" y2="1597.7419" gradientTransform="matrix(1 0 0 1 354.9609 -1560.4092)">
				<stop  offset="0" style="stop-color:#707070"/>
				<stop  offset="1" style="stop-color:#B2B2B2"/>
			</linearGradient>
			<circle fill="url(#SVGID_2_)" cx="34.25" cy="37.333" r="27.176"/>
			
				<linearGradient id="SVGID_3_" gradientUnits="userSpaceOnUse" x1="-278.8074" y1="-2284.8274" x2="-249.5691" y2="-2284.8274" gradientTransform="matrix(1 0 0 -1 286.7407 -2259.5688)">
				<stop  offset="0" style="stop-color:#A6A6A6"/>
				<stop  offset="0.5" style="stop-color:#CCCCCC"/>
				<stop  offset="1" style="stop-color:#999999"/>
			</linearGradient>
			<path fill="url(#SVGID_3_)" d="M34.25,10.157c-15.009,0-27.175,12.167-27.175,27.176c0,4.117,0.733,3.953,0.733,0
				c0-13.543,12.608-26.169,26.438-26.169C38.965,11.164,39.188,10.157,34.25,10.157z"/>
		</g>
	</g>
	<g id="cdpButton">
		<rect x="0.307" y="74.064" fill="none" width="69" height="69"/>
		<g>
			<rect x="20.307" y="115.898" fill="#1D1D1B" width="29" height="4.167"/>
			<rect x="33.307" y="103.731" fill="#1D1D1B" width="3" height="11.334"/>
			
				<linearGradient id="SVGID_4_" gradientUnits="userSpaceOnUse" x1="-324.2048" y1="1655.574" x2="-316.1039" y2="1661.0381" gradientTransform="matrix(1 0 0 1 354.9609 -1560.4092)">
				<stop  offset="0" style="stop-color:#FFFFFF"/>
				<stop  offset="0.0074" style="stop-color:#F6F6F6"/>
				<stop  offset="0.0477" style="stop-color:#C8C8C8"/>
				<stop  offset="0.0931" style="stop-color:#9D9D9D"/>
				<stop  offset="0.1419" style="stop-color:#777777"/>
				<stop  offset="0.195" style="stop-color:#575757"/>
				<stop  offset="0.2537" style="stop-color:#3B3B3B"/>
				<stop  offset="0.32" style="stop-color:#252525"/>
				<stop  offset="0.3974" style="stop-color:#141414"/>
				<stop  offset="0.4931" style="stop-color:#090909"/>
				<stop  offset="0.6274" style="stop-color:#020202"/>
				<stop  offset="1" style="stop-color:#000000"/>
			</linearGradient>
			<ellipse fill="url(#SVGID_4_)" cx="34.807" cy="97.897" rx="4.833" ry="4.999"/>
			
				<linearGradient id="SVGID_5_" gradientUnits="userSpaceOnUse" x1="-333.3279" y1="1672.1375" x2="-326.5199" y2="1676.7295" gradientTransform="matrix(1 0 0 1 354.9609 -1560.4092)">
				<stop  offset="0" style="stop-color:#FFFFFF"/>
				<stop  offset="0.0074" style="stop-color:#F6F6F6"/>
				<stop  offset="0.0477" style="stop-color:#C8C8C8"/>
				<stop  offset="0.0931" style="stop-color:#9D9D9D"/>
				<stop  offset="0.1419" style="stop-color:#777777"/>
				<stop  offset="0.195" style="stop-color:#575757"/>
				<stop  offset="0.2537" style="stop-color:#3B3B3B"/>
				<stop  offset="0.32" style="stop-color:#252525"/>
				<stop  offset="0.3974" style="stop-color:#141414"/>
				<stop  offset="0.4931" style="stop-color:#090909"/>
				<stop  offset="0.6274" style="stop-color:#020202"/>
				<stop  offset="1" style="stop-color:#000000"/>
			</linearGradient>
			<rect x="20.786" y="112.982" fill="url(#SVGID_5_)" width="8.5" height="2.083"/>
		</g>
	</g>
	<g id="cdpBackgroundPressed">
		<rect x="71.75" y="2.833" fill="none" width="69" height="69"/>
		<g>
			<g>
				<path fill="#1E1E1E" d="M138.736,37.333c0,17.943-14.545,32.488-32.48,32.488c-17.941,0-32.486-14.545-32.486-32.488
					c0-17.938,14.545-32.481,32.486-32.481C124.191,4.846,138.736,19.391,138.736,37.333"/>
				<path opacity="0.4" enable-background="new    " d="M138.736,37.333c0,17.943-14.545,32.488-32.48,32.488
					c-17.941,0-32.486-14.545-32.486-32.488c0-17.938,14.545-32.481,32.486-32.481C124.191,4.846,138.736,19.391,138.736,37.333"/>
			</g>
			
				<linearGradient id="SVGID_6_" gradientUnits="userSpaceOnUse" x1="-197.7556" y1="-2279.6375" x2="-163.2781" y2="-2314.1147" gradientTransform="matrix(1 0 0 -1 286.7407 -2259.5688)">
				<stop  offset="0" style="stop-color:#212223"/>
				<stop  offset="0.5529" style="stop-color:#2A2B2B"/>
				<stop  offset="0.9895" style="stop-color:#666868"/>
			</linearGradient>
			<path fill="url(#SVGID_6_)" d="M140.75,37.333c0-19.021-15.479-34.5-34.5-34.5c-19.023,0-34.5,15.479-34.5,34.5
				c0,19.023,15.477,34.5,34.5,34.5C125.273,71.833,140.75,56.356,140.75,37.333z M73.764,37.333
				c0-17.938,14.543-32.482,32.486-32.482c17.938,0,32.48,14.546,32.48,32.482c0,17.943-14.543,32.488-32.48,32.488
				C88.307,69.821,73.764,55.276,73.764,37.333z"/>
			
				<linearGradient id="SVGID_7_" gradientUnits="userSpaceOnUse" x1="-207.6663" y1="-2296.9021" x2="-153.3147" y2="-2296.9021" gradientTransform="matrix(1 0 0 -1 286.7407 -2259.5688)">
				<stop  offset="0" style="stop-color:#707070"/>
				<stop  offset="1" style="stop-color:#B2B2B2"/>
			</linearGradient>
			<circle fill="url(#SVGID_7_)" cx="106.25" cy="37.333" r="27.176"/>
		</g>
	</g>
</g>
<g id="Styles">
	<g id="cdpButtonStyle7">
		<rect x="0.306" y="557.064" fill="none" width="69" height="69"/>
	</g>
	<g id="cdpButtonStyle6">
		<rect x="0.307" y="488.064" fill="none" width="69" height="69"/>
	</g>
	<g id="cdpButtonStyle5">
		<rect x="0.307" y="419.064" fill="none" width="69" height="69"/>
	</g>
	<g id="cdpButtonStyle4">
		<g>
			<path d="M31.429,398.427v-6.909h5.123v1.17h-3.728v1.53h3.469v1.165h-3.469v1.88h3.859v1.164H31.429z"/>
			<path d="M37.849,398.427v-6.909h2.087l1.253,4.714l1.24-4.714h2.092v6.909h-1.296v-5.438l-1.371,5.438h-1.343l-1.366-5.438v5.438
				H37.849z"/>
			<path d="M22.758,410.01V403.1h2.238c0.849,0,1.402,0.034,1.659,0.103c0.396,0.104,0.728,0.329,0.994,0.678
				c0.267,0.347,0.4,0.796,0.4,1.344c0,0.425-0.077,0.78-0.23,1.07c-0.154,0.289-0.35,0.517-0.587,0.682
				c-0.236,0.165-0.478,0.272-0.723,0.327c-0.333,0.066-0.815,0.099-1.446,0.099h-0.91v2.607H22.758z M24.153,404.268v1.96h0.763
				c0.55,0,0.917-0.034,1.103-0.108c0.186-0.072,0.331-0.185,0.437-0.34c0.104-0.152,0.157-0.331,0.157-0.537
				c0-0.251-0.074-0.458-0.222-0.621c-0.147-0.163-0.334-0.267-0.561-0.306c-0.167-0.032-0.501-0.048-1.004-0.048H24.153z"/>
			<path d="M34.709,410.01h-1.517l-0.603-1.571h-2.762l-0.57,1.571h-1.48l2.691-6.909h1.475L34.709,410.01z M32.141,407.275
				l-0.952-2.563l-0.933,2.563H32.141z"/>
			<path d="M35.463,410.01V403.1h1.357l2.828,4.612V403.1h1.295v6.909h-1.399l-2.785-4.507v4.507H35.463z"/>
			<path d="M42.42,410.01V403.1h5.121v1.168h-3.728v1.531h3.469v1.165h-3.469v1.879h3.86v1.166H42.42z"/>
			<path d="M48.895,410.01v-6.853h1.396v5.687h3.468v1.166H48.895z"/>
		</g>
		<rect x="3.758" y="366.262" fill="none" width="69" height="69"/>
	</g>
	<g id="cdpButtonStyle3">
		<rect x="2.883" y="295.698" fill="none" width="69" height="69"/>
		<g>
			<path d="M22.382,333.651v-6.907h2.936c0.738,0,1.275,0.063,1.608,0.187c0.336,0.124,0.604,0.345,0.805,0.662
				c0.2,0.317,0.301,0.681,0.301,1.089c0,0.518-0.153,0.945-0.457,1.284c-0.305,0.337-0.761,0.55-1.367,0.638
				c0.302,0.176,0.55,0.37,0.747,0.579c0.197,0.21,0.461,0.584,0.794,1.122l0.844,1.347h-1.668l-1.008-1.503
				c-0.358-0.536-0.603-0.875-0.735-1.015s-0.271-0.235-0.419-0.288c-0.148-0.051-0.382-0.077-0.702-0.077h-0.283v2.883H22.382z
				 M23.777,329.666h1.032c0.669,0,1.087-0.028,1.253-0.085c0.167-0.057,0.297-0.154,0.391-0.292
				c0.094-0.139,0.141-0.311,0.141-0.519c0-0.232-0.062-0.42-0.186-0.563c-0.124-0.143-0.299-0.232-0.525-0.271
				c-0.114-0.016-0.453-0.023-1.018-0.023h-1.088V329.666z"/>
			<path d="M35.575,333.651h-1.517l-0.603-1.568h-2.761l-0.57,1.568h-1.479l2.691-6.907h1.475L35.575,333.651z M33.008,330.919
				l-0.952-2.563l-0.933,2.563H33.008z"/>
			<path d="M36.311,326.744h2.55c0.574,0,1.012,0.044,1.314,0.132c0.404,0.12,0.751,0.332,1.04,0.637
				c0.289,0.304,0.51,0.678,0.66,1.118c0.151,0.441,0.227,0.986,0.227,1.634c0,0.567-0.071,1.059-0.213,1.47
				c-0.172,0.502-0.418,0.91-0.739,1.221c-0.242,0.235-0.568,0.419-0.979,0.551c-0.31,0.098-0.72,0.146-1.235,0.146h-2.624V326.744z
				 M37.705,327.913v4.575h1.041c0.39,0,0.672-0.021,0.844-0.066c0.227-0.057,0.414-0.152,0.563-0.287
				c0.148-0.134,0.271-0.357,0.364-0.667c0.095-0.31,0.142-0.73,0.142-1.265s-0.047-0.944-0.142-1.229
				c-0.094-0.285-0.226-0.51-0.395-0.669c-0.171-0.161-0.385-0.269-0.646-0.325c-0.196-0.045-0.578-0.066-1.146-0.066H37.705z"/>
			<path d="M43.241,333.651v-6.907h1.396v6.907H43.241z"/>
			<path d="M45.683,330.241c0-0.704,0.105-1.294,0.315-1.772c0.157-0.352,0.371-0.667,0.643-0.947
				c0.272-0.279,0.57-0.486,0.894-0.622c0.431-0.181,0.926-0.272,1.489-0.272c1.018,0,1.831,0.315,2.442,0.947
				c0.611,0.631,0.916,1.509,0.916,2.634c0,1.115-0.303,1.987-0.909,2.616c-0.605,0.631-1.415,0.945-2.431,0.945
				c-1.027,0-1.845-0.313-2.45-0.939C45.986,332.203,45.683,331.341,45.683,330.241z M47.119,330.193
				c0,0.782,0.182,1.375,0.542,1.779c0.361,0.403,0.819,0.605,1.376,0.605c0.556,0,1.013-0.2,1.369-0.602
				c0.356-0.399,0.534-1.001,0.534-1.802c0-0.792-0.174-1.383-0.521-1.772c-0.346-0.388-0.807-0.584-1.382-0.584
				s-1.038,0.197-1.39,0.592S47.119,329.398,47.119,330.193z"/>
		</g>
	</g>
	<g id="cdpButtonStyle2">
		<g>
			<path d="M11.982,248.796c0-0.685,0.103-1.261,0.308-1.728c0.153-0.342,0.362-0.65,0.627-0.924
				c0.266-0.271,0.556-0.474,0.871-0.606c0.42-0.176,0.903-0.265,1.452-0.265c0.993,0,1.787,0.307,2.382,0.922
				c0.596,0.615,0.894,1.472,0.894,2.569c0,1.086-0.296,1.939-0.887,2.553c-0.591,0.614-1.38,0.92-2.37,0.92
				c-1.002,0-1.799-0.306-2.39-0.916C12.278,250.712,11.982,249.869,11.982,248.796z M13.383,248.751
				c0,0.763,0.176,1.342,0.529,1.735c0.352,0.393,0.799,0.589,1.342,0.589c0.542,0,0.987-0.194,1.335-0.585
				c0.347-0.389,0.521-0.977,0.521-1.758c0-0.771-0.17-1.349-0.508-1.729c-0.339-0.379-0.788-0.568-1.348-0.568
				c-0.561,0-1.013,0.191-1.356,0.575C13.555,247.396,13.383,247.974,13.383,248.751z"/>
			<path d="M19.577,252.124v-6.737h2.183c0.827,0,1.366,0.035,1.617,0.101c0.386,0.102,0.709,0.322,0.97,0.66
				c0.26,0.34,0.39,0.776,0.39,1.313c0,0.412-0.075,0.762-0.225,1.043s-0.34,0.503-0.572,0.663
				c-0.231,0.163-0.466,0.269-0.705,0.321c-0.325,0.062-0.795,0.096-1.411,0.096h-0.887v2.541H19.577z M20.937,246.527v1.91h0.745
				c0.536,0,0.894-0.034,1.075-0.105c0.181-0.069,0.323-0.18,0.426-0.33c0.102-0.149,0.153-0.325,0.153-0.524
				c0-0.245-0.072-0.447-0.217-0.606c-0.144-0.159-0.326-0.26-0.546-0.298c-0.163-0.029-0.489-0.046-0.979-0.046H20.937z"/>
			<path d="M25.854,252.124v-6.737h4.995v1.141h-3.635v1.492h3.382v1.135h-3.382v1.834h3.763v1.136H25.854z"/>
			<path d="M32.135,252.124v-6.737h2.862c0.722,0,1.243,0.061,1.569,0.184c0.326,0.118,0.587,0.334,0.782,0.644
				c0.198,0.311,0.297,0.664,0.297,1.062c0,0.505-0.149,0.923-0.448,1.253c-0.296,0.329-0.74,0.537-1.33,0.621
				c0.293,0.174,0.535,0.361,0.726,0.566c0.194,0.205,0.45,0.57,0.775,1.095l0.823,1.313h-1.627l-0.984-1.465
				c-0.349-0.525-0.587-0.856-0.715-0.991c-0.129-0.136-0.266-0.229-0.409-0.28c-0.145-0.049-0.373-0.076-0.685-0.076h-0.275v2.813
				H32.135z M33.496,248.235h1.005c0.652,0,1.061-0.026,1.222-0.081c0.163-0.056,0.291-0.15,0.383-0.286
				c0.091-0.135,0.137-0.303,0.137-0.506c0-0.226-0.062-0.409-0.181-0.55c-0.122-0.138-0.291-0.225-0.513-0.263
				c-0.11-0.015-0.441-0.022-0.992-0.022h-1.061V248.235z"/>
			<path d="M45.001,252.124h-1.479l-0.588-1.53h-2.692l-0.559,1.53h-1.44l2.622-6.737h1.439L45.001,252.124z M42.496,249.458
				l-0.929-2.5l-0.91,2.5H42.496z"/>
			<path d="M46.54,252.124v-5.597h-1.998v-1.141h5.353v1.141h-1.994v5.597H46.54z"/>
			<path d="M50.326,248.796c0-0.685,0.104-1.261,0.309-1.728c0.153-0.342,0.362-0.65,0.626-0.924
				c0.265-0.271,0.557-0.474,0.87-0.606c0.421-0.176,0.905-0.265,1.453-0.265c0.991,0,1.787,0.307,2.382,0.922
				c0.596,0.615,0.894,1.472,0.894,2.569c0,1.086-0.296,1.939-0.886,2.553c-0.591,0.614-1.382,0.92-2.371,0.92
				c-1.002,0-1.798-0.306-2.389-0.916C50.622,250.712,50.326,249.869,50.326,248.796z M51.727,248.751
				c0,0.763,0.178,1.342,0.529,1.735c0.352,0.393,0.799,0.589,1.342,0.589s0.986-0.194,1.335-0.585
				c0.349-0.389,0.521-0.977,0.521-1.758c0-0.771-0.17-1.349-0.508-1.729c-0.338-0.379-0.787-0.568-1.349-0.568
				c-0.56,0-1.012,0.191-1.356,0.575C51.9,247.396,51.727,247.974,51.727,248.751z"/>
			<path d="M57.925,252.124v-6.737h2.864c0.72,0,1.243,0.061,1.568,0.184c0.328,0.118,0.589,0.334,0.785,0.644
				c0.195,0.311,0.293,0.664,0.293,1.062c0,0.505-0.148,0.923-0.444,1.253c-0.298,0.329-0.744,0.537-1.334,0.621
				c0.294,0.174,0.536,0.361,0.729,0.566s0.45,0.57,0.773,1.095l0.822,1.313h-1.626l-0.982-1.465
				c-0.351-0.525-0.589-0.856-0.718-0.991c-0.129-0.136-0.264-0.229-0.407-0.28c-0.146-0.049-0.374-0.076-0.687-0.076h-0.275v2.813
				H57.925z M59.286,248.235h1.007c0.652,0,1.06-0.026,1.223-0.081c0.162-0.056,0.289-0.15,0.38-0.286
				c0.092-0.135,0.139-0.303,0.139-0.506c0-0.226-0.06-0.409-0.183-0.55c-0.119-0.138-0.29-0.225-0.512-0.263
				c-0.11-0.015-0.44-0.022-0.991-0.022h-1.063V248.235z"/>
			<path d="M22.975,263.415v-6.735h2.183c0.827,0,1.366,0.033,1.617,0.102c0.386,0.101,0.709,0.321,0.97,0.659
				c0.261,0.338,0.391,0.776,0.391,1.312c0,0.413-0.075,0.761-0.225,1.044c-0.15,0.281-0.341,0.504-0.573,0.664
				c-0.23,0.159-0.466,0.265-0.704,0.317c-0.324,0.065-0.795,0.097-1.411,0.097h-0.887v2.541H22.975z M24.334,257.82v1.911h0.745
				c0.536,0,0.894-0.034,1.076-0.106c0.18-0.072,0.322-0.18,0.425-0.329c0.102-0.151,0.154-0.326,0.154-0.525
				c0-0.244-0.072-0.446-0.216-0.605c-0.145-0.16-0.327-0.26-0.547-0.299c-0.163-0.032-0.489-0.046-0.979-0.046H24.334z"/>
			<path d="M34.627,263.415h-1.48l-0.588-1.528h-2.692l-0.556,1.528h-1.443l2.624-6.735h1.438L34.627,263.415z M32.124,260.751
				l-0.929-2.5l-0.91,2.5H32.124z"/>
			<path d="M35.364,263.415v-6.735h1.323l2.756,4.498v-4.498h1.263v6.735h-1.364l-2.714-4.392v4.392H35.364z"/>
			<path d="M42.145,263.415v-6.735h4.995v1.141h-3.636v1.492h3.384v1.136h-3.384v1.834h3.764v1.133H42.145z"/>
			<path d="M48.459,263.415v-6.68h1.359v5.547h3.38v1.133H48.459z"/>
		</g>
		<rect x="3.482" y="218.844" fill="none" width="69" height="69"/>
	</g>
	<g id="cdpButtonStyle1">
		<g>
			<path d="M22.511,175.792v-6.73h1.322l2.755,4.494v-4.494h1.263v6.73h-1.364l-2.713-4.39v4.39H22.511z"/>
			<path d="M29.011,172.468c0-0.686,0.103-1.261,0.308-1.727c0.153-0.342,0.361-0.649,0.626-0.922
				c0.265-0.273,0.555-0.476,0.87-0.606c0.419-0.177,0.903-0.267,1.451-0.267c0.992,0,1.785,0.308,2.38,0.924
				c0.597,0.615,0.894,1.471,0.894,2.566c0,1.086-0.296,1.936-0.886,2.549c-0.59,0.615-1.38,0.922-2.369,0.922
				c-1,0-1.796-0.306-2.387-0.916C29.307,174.38,29.011,173.539,29.011,172.468z M30.412,172.422c0,0.763,0.176,1.34,0.528,1.734
				c0.352,0.393,0.799,0.59,1.341,0.59c0.542,0,0.986-0.195,1.333-0.586c0.347-0.39,0.521-0.976,0.521-1.756
				c0-0.772-0.169-1.348-0.508-1.727c-0.338-0.379-0.787-0.57-1.347-0.57c-0.561,0-1.012,0.193-1.355,0.578
				C30.584,171.069,30.412,171.648,30.412,172.422z"/>
			<path d="M36.615,175.792v-6.73h1.322l2.755,4.494v-4.494h1.263v6.73h-1.363l-2.714-4.39v4.39H36.615z"/>
			<path d="M43.391,175.792v-6.73h4.991v1.139H44.75v1.492h3.379v1.134H44.75v1.832h3.761v1.134H43.391z"/>
		</g>
		<rect x="1.01" y="137.927" fill="none" width="69" height="69"/>
	</g>
	<text transform="matrix(1 0 0 1 286.8186 41.0398)" font-family="'MyriadPro-Regular'" font-size="12">when saving checked state.</text>
	<text transform="matrix(1 0 0 1 286.8186 26.6394)" font-family="'MyriadPro-Regular'" font-size="12">icons and make them 40% transparent </text>
	<text transform="matrix(1 0 0 1 286.8186 12.239)" font-family="'MyriadPro-Regular'" font-size="12">Set backWhite visible and select all </text>
</g>
</svg>
