<?xml version="1.0" encoding="utf-8"?>
<!-- Generator: Adobe Illustrator 16.0.0, SVG Export Plug-In . SVG Version: 6.00 Build 0)  -->
<!DOCTYPE svg PUBLIC "-//W3C//DTD SVG 1.1//EN" "http://www.w3.org/Graphics/SVG/1.1/DTD/svg11.dtd">
<svg version="1.1" id="svg" xmlns="http://www.w3.org/2000/svg" xmlns:xlink="http://www.w3.org/1999/xlink" x="0px" y="0px"
	 width="69.307px" height="74.064px" viewBox="0 0 69.307 74.064" enable-background="new 0 0 69.307 74.064" xml:space="preserve">
<g id="Layer1">
	
		<linearGradient id="bgMenu2_1_" gradientUnits="userSpaceOnUse" x1="-728.1111" y1="4723.5762" x2="-468.1111" y2="4723.5762" gradientTransform="matrix(1 0 0 1 700.8613 -4397.5791)">
		<stop  offset="0.0073" style="stop-color:#242729"/>
		<stop  offset="0.045" style="stop-color:#282B2C"/>
		<stop  offset="0.3184" style="stop-color:#404142"/>
		<stop  offset="0.4866" style="stop-color:#494A4A"/>
		<stop  offset="0.6668" style="stop-color:#404142"/>
		<stop  offset="0.9597" style="stop-color:#282B2C"/>
		<stop  offset="1" style="stop-color:#242729"/>
	</linearGradient>
	<rect id="bgMenu2" x="-27.25" y="-3.007" display="none" fill="url(#bgMenu2_1_)" width="260" height="658.008"/>
	<g id="cdpBackground">
		<rect x="-111.464" y="7.585" fill="none" width="169.625" height="58.896"/>
		<g>
			
				<linearGradient id="SVGID_1_" gradientUnits="userSpaceOnUse" x1="-571.6941" y1="4991.4834" x2="-462.7301" y2="5100.4478" gradientTransform="matrix(1 0 0 1 490.3213 -5008.9355)">
				<stop  offset="0" style="stop-color:#212223"/>
				<stop  offset="0.5529" style="stop-color:#2A2B2B"/>
				<stop  offset="0.9895" style="stop-color:#666868"/>
			</linearGradient>
			<path fill="url(#SVGID_1_)" d="M57.923,57.458c0,4.979-4.057,9.021-9.063,9.021h-151.503c-5.006,0-9.063-4.041-9.063-9.021
				V16.606c0-4.979,4.057-9.021,9.063-9.021H48.867c5.006,0,9.063,4.043,9.063,9.021L57.923,57.458L57.923,57.458z"/>
			<path d="M55.282,55.278c0,4.736-3.988,8.572-8.91,8.572H-100.15c-4.922,0-8.912-3.836-8.912-8.572V18.786
				c0-4.729,3.99-8.572,8.912-8.572H46.372c4.922,0,8.91,3.845,8.91,8.572V55.278L55.282,55.278z"/>
			
				<linearGradient id="SVGID_2_" gradientUnits="userSpaceOnUse" x1="-363.554" y1="-1539.9773" x2="-518.5598" y2="-1539.9773" gradientTransform="matrix(1 0 0 -1 414.1211 -1502.9458)">
				<stop  offset="0" style="stop-color:#5A5A5A"/>
				<stop  offset="1" style="stop-color:#B2B2B2"/>
			</linearGradient>
			<path fill="url(#SVGID_2_)" d="M50.566,52.053c0,4.4-3.897,7.979-8.717,7.979H-95.709c-4.817,0-8.729-3.571-8.729-7.979V22.016
				c0-4.41,3.905-7.984,8.729-7.984H41.853c4.813,0,8.715,3.576,8.715,7.984L50.566,52.053L50.566,52.053z"/>
		</g>
	</g>
	<g id="cdpButton">
		<rect x="-110.875" y="93.884" fill="none" width="169.625" height="58.896"/>
		<g>
			<path d="M-49.062,129.289v-11.907h2.339l4.874,7.953v-7.953h2.234v11.907h-2.413l-4.801-7.769v7.769H-49.062z"/>
			<path d="M-37.56,123.405c0-1.213,0.185-2.229,0.544-3.054c0.271-0.604,0.646-1.151,1.109-1.636
				c0.468-0.479,0.979-0.839,1.539-1.07c0.739-0.313,1.597-0.473,2.563-0.473c1.758,0,3.159,0.544,4.215,1.635
				c1.056,1.089,1.577,2.604,1.577,4.54c0,1.923-0.521,3.428-1.563,4.513c-1.045,1.086-2.442,1.629-4.192,1.629
				c-1.771,0-3.179-0.54-4.224-1.617C-37.035,126.791-37.56,125.301-37.56,123.405z M-35.08,123.324
				c0,1.354,0.312,2.371,0.934,3.066c0.622,0.693,1.414,1.043,2.372,1.043s1.745-0.347,2.36-1.035
				c0.608-0.688,0.922-1.728,0.922-3.104c0-1.362-0.303-2.387-0.897-3.058c-0.599-0.672-1.393-1.007-2.384-1.007
				s-1.79,0.34-2.396,1.021C-34.777,120.928-35.08,121.957-35.08,123.324z"/>
			<path d="M-24.107,129.289v-11.907h2.339l4.875,7.953v-7.953h2.233v11.907h-2.413l-4.801-7.769v7.769H-24.107z"/>
			<path d="M-12.117,129.289v-11.907h8.83v2.017h-6.428v2.642h5.979v2.009h-5.979v3.239h6.649v2.007L-12.117,129.289
				L-12.117,129.289z"/>
		</g>
	</g>
	<g id="cdpBackgroundPressed">
		<rect x="84.256" y="7.585" fill="none" width="169.625" height="58.896"/>
		<g>
			
				<linearGradient id="SVGID_3_" gradientUnits="userSpaceOnUse" x1="-375.6907" y1="4991.4854" x2="-266.7275" y2="5100.4492" gradientTransform="matrix(1 0 0 1 490.3213 -5008.9355)">
				<stop  offset="0" style="stop-color:#212223"/>
				<stop  offset="0.5529" style="stop-color:#2A2B2B"/>
				<stop  offset="0.9895" style="stop-color:#666868"/>
			</linearGradient>
			<path fill="url(#SVGID_3_)" d="M253.923,57.458c0,4.979-4.057,9.021-9.063,9.021H93.359c-5.006,0-9.063-4.041-9.063-9.021V16.606
				c0-4.979,4.057-9.021,9.063-9.021H244.87c5.006,0,9.063,4.043,9.063,9.021L253.923,57.458L253.923,57.458z"/>
			<path d="M251.282,55.278c0,4.736-3.988,8.572-8.91,8.572H95.851c-4.922,0-8.912-3.836-8.912-8.572V18.786
				c0-4.729,3.99-8.572,8.912-8.572h146.521c4.922,0,8.91,3.845,8.91,8.572V55.278L251.282,55.278z"/>
			
				<linearGradient id="SVGID_4_" gradientUnits="userSpaceOnUse" x1="-322.5603" y1="-1539.9778" x2="-167.5535" y2="-1539.9778" gradientTransform="matrix(1 0 0 -1 414.1211 -1502.9458)">
				<stop  offset="0" style="stop-color:#5A5A5A"/>
				<stop  offset="1" style="stop-color:#B2B2B2"/>
			</linearGradient>
			<path fill="url(#SVGID_4_)" d="M246.566,52.053c0,4.4-3.897,7.979-8.717,7.979H100.29c-4.816,0-8.729-3.571-8.729-7.979V22.016
				c0-4.41,3.906-7.984,8.729-7.984h137.563c4.813,0,8.715,3.576,8.715,7.984L246.566,52.053L246.566,52.053z"/>
		</g>
	</g>
</g>
<g id="Styles">
	<g id="cdpButtonStyle3">
		<rect x="-110.754" y="325.397" fill="none" width="169.625" height="58.896"/>
		<g>
			<path d="M-84.939,340.193h4.04c0.914,0,1.608,0.063,2.084,0.213c0.649,0.18,1.204,0.521,1.646,0.995
				c0.459,0.497,0.807,1.086,1.062,1.785c0.237,0.698,0.356,1.554,0.356,2.581c0,0.905-0.112,1.687-0.341,2.327
				c-0.28,0.799-0.67,1.445-1.171,1.938c-0.395,0.387-0.9,0.668-1.563,0.88c-0.484,0.149-1.146,0.232-1.959,0.232h-4.159
				L-84.939,340.193L-84.939,340.193z M-82.731,342.046v7.26h1.662c0.612,0,1.062-0.029,1.328-0.105
				c0.354-0.094,0.661-0.24,0.896-0.457c0.235-0.216,0.438-0.564,0.578-1.055c0.146-0.487,0.229-1.157,0.229-2.02
				c0-0.842-0.081-1.497-0.229-1.947c-0.145-0.438-0.354-0.812-0.638-1.063c-0.263-0.249-0.604-0.413-1.008-0.507
				c-0.314-0.076-0.915-0.104-1.82-0.104L-82.731,342.046L-82.731,342.046z"/>
			<path d="M-74.33,345.736c0-1.122,0.177-2.056,0.496-2.804c0.263-0.563,0.603-1.072,1.021-1.501
				c0.437-0.445,0.906-0.777,1.429-0.993c0.668-0.298,1.456-0.438,2.354-0.438c1.613,0,2.897,0.516,3.88,1.502
				c0.962,1.01,1.444,2.396,1.444,4.176c0,1.776-0.479,3.161-1.438,4.146c-0.972,1.005-2.255,1.498-3.863,1.498
				c-1.628,0-2.918-0.491-3.873-1.475C-73.852,348.848-74.33,347.477-74.33,345.736z M-72.047,345.655
				c0,1.244,0.277,2.183,0.854,2.829c0.573,0.632,1.313,0.955,2.184,0.955c0.893,0,1.605-0.321,2.174-0.949
				c0.566-0.643,0.846-1.591,0.846-2.855c0-1.262-0.271-2.191-0.823-2.809c-0.554-0.628-1.277-0.926-2.191-0.926
				c-0.911,0-1.643,0.301-2.198,0.938C-71.775,343.455-72.047,344.394-72.047,345.655z"/>
			<path d="M-54.97,347.118l2.15,0.687c-0.332,1.188-0.883,2.082-1.653,2.661c-0.754,0.576-1.729,0.856-2.905,0.856
				c-1.44,0-2.646-0.491-3.585-1.475c-0.935-1-1.397-2.362-1.397-4.086c0-1.826,0.47-3.237,1.408-4.25
				c0.938-0.997,2.182-1.517,3.711-1.517c1.345,0,2.427,0.406,3.271,1.188c0.492,0.479,0.862,1.141,1.108,2.021l-2.188,0.53
				c-0.128-0.564-0.393-1.019-0.811-1.35c-0.401-0.331-0.912-0.489-1.498-0.489c-0.813,0-1.458,0.282-1.974,0.865
				c-0.499,0.581-0.749,1.521-0.749,2.839c0,1.385,0.243,2.356,0.734,2.946c0.492,0.604,1.147,0.889,1.945,0.889
				c0.586,0,1.085-0.192,1.514-0.563C-55.455,348.511-55.162,347.922-54.97,347.118z"/>
			<path d="M-50.905,351.146v-10.953h2.226v4.86l4.456-4.86h2.979l-4.128,4.267l4.354,6.688h-2.864L-46.893,346l-1.782,1.832v3.315
				L-50.905,351.146L-50.905,351.146z"/>
			<path d="M-39.951,351.146v-10.953h2.225v10.953H-39.951z"/>
			<path d="M-35.605,351.146v-10.953h2.157l4.48,7.308v-7.308h2.063v10.953h-2.232l-4.409-7.146v7.146H-35.605z"/>
			<path d="M-19.48,347.118v-1.846h4.76v4.366c-0.463,0.45-1.118,0.837-2.006,1.18c-0.885,0.342-1.763,0.504-2.667,0.504
				c-1.146,0-2.146-0.239-2.997-0.717c-0.855-0.479-1.491-1.165-1.925-2.063c-0.434-0.882-0.634-1.858-0.634-2.907
				c0-1.146,0.234-2.159,0.714-3.034c0.477-0.896,1.175-1.573,2.097-2.045c0.699-0.361,1.581-0.555,2.626-0.555
				c1.363,0,2.422,0.296,3.176,0.865c0.771,0.57,1.262,1.347,1.479,2.355l-2.195,0.419c-0.146-0.544-0.442-0.979-0.856-1.273
				c-0.436-0.313-0.973-0.467-1.603-0.467c-0.977,0-1.729,0.296-2.305,0.919c-0.571,0.608-0.865,1.521-0.865,2.717
				c0,1.301,0.298,2.279,0.875,2.938c0.577,0.64,1.325,0.968,2.276,0.968c0.462,0,0.927-0.095,1.392-0.267
				c0.466-0.188,0.856-0.411,1.193-0.665v-1.395L-19.48,347.118L-19.48,347.118z"/>
			<path d="M-8.414,351.146v-10.953h2.209v4.305h4.34v-4.305h2.207v10.953h-2.207v-4.796h-4.34v4.796H-8.414z"/>
			<path d="M2.631,351.146v-10.953h8.111v1.853H4.84v2.432h5.504v1.845H4.84v2.983h6.119v1.846L2.631,351.146L2.631,351.146z"/>
			<path d="M22.711,351.146h-2.408l-0.951-2.494h-4.379l-0.906,2.494h-2.34l4.267-10.953h2.334L22.711,351.146z M18.644,346.806
				l-1.508-4.063l-1.482,4.063H18.644z"/>
			<path d="M23.875,340.193h4.035c0.914,0,1.608,0.063,2.084,0.213c0.649,0.18,1.205,0.521,1.661,0.995
				c0.46,0.497,0.812,1.086,1.046,1.785c0.237,0.698,0.356,1.554,0.356,2.581c0,0.905-0.113,1.687-0.338,2.327
				c-0.271,0.799-0.668,1.445-1.17,1.938c-0.377,0.387-0.904,0.668-1.563,0.88c-0.479,0.149-1.125,0.232-1.959,0.232h-4.153
				L23.875,340.193L23.875,340.193z M26.099,342.046v7.26h1.646c0.612,0,1.063-0.029,1.327-0.105
				c0.373-0.094,0.662-0.24,0.898-0.457c0.23-0.216,0.434-0.564,0.578-1.055c0.16-0.486,0.225-1.157,0.225-2.02
				c0-0.842-0.063-1.497-0.225-1.947c-0.146-0.438-0.357-0.812-0.621-1.063c-0.279-0.249-0.621-0.413-1.025-0.507
				c-0.313-0.076-0.914-0.104-1.815-0.104L26.099,342.046L26.099,342.046z"/>
			<path d="M-63.812,369.504v-10.949h4.664c1.169,0,2.014,0.102,2.55,0.303c0.537,0.185,0.95,0.534,1.272,1.048
				c0.319,0.497,0.476,1.072,0.476,1.729c0,0.818-0.238,1.502-0.719,2.023c-0.479,0.541-1.215,0.879-2.171,1.018
				c0.477,0.287,0.88,0.586,1.18,0.922c0.316,0.335,0.742,0.926,1.261,1.785l1.349,2.131H-56.6l-1.602-2.373
				c-0.568-0.86-0.951-1.403-1.163-1.609c-0.213-0.224-0.438-0.387-0.668-0.457c-0.234-0.087-0.604-0.122-1.12-0.122h-0.438v4.563
				h-2.225L-63.812,369.504L-63.812,369.504z M-61.587,363.181h1.637c1.059,0,1.725-0.038,1.979-0.131
				c0.26-0.099,0.474-0.242,0.613-0.468c0.161-0.222,0.226-0.484,0.226-0.815c0-0.365-0.102-0.67-0.281-0.897
				c-0.202-0.227-0.479-0.361-0.83-0.417c-0.188-0.038-0.73-0.049-1.613-0.049h-1.729L-61.587,363.181L-61.587,363.181z"/>
			<path d="M-53.216,364.095c0-1.104,0.181-2.06,0.516-2.808c0.247-0.561,0.587-1.056,1.021-1.501
				c0.42-0.441,0.895-0.772,1.411-0.992c0.688-0.277,1.475-0.423,2.354-0.423c1.608,0,2.918,0.495,3.88,1.502
				c0.962,0.989,1.46,2.385,1.46,4.177c0,1.764-0.495,3.146-1.45,4.146c-0.955,0.988-2.238,1.498-3.848,1.498
				c-1.646,0-2.938-0.491-3.896-1.491C-52.721,367.204-53.216,365.835-53.216,364.095z M-50.933,364.028
				c0,1.229,0.295,2.183,0.868,2.813c0.573,0.646,1.296,0.95,2.183,0.95c0.873,0,1.595-0.306,2.157-0.944
				c0.567-0.626,0.857-1.591,0.857-2.86c0-1.258-0.284-2.19-0.822-2.804c-0.555-0.611-1.295-0.926-2.192-0.926
				c-0.911,0-1.653,0.313-2.219,0.936C-50.644,361.81-50.933,362.767-50.933,364.028z"/>
			<path d="M-38.392,369.504v-9.103h-3.247v-1.852h8.694v1.852h-3.239v9.103H-38.392z"/>
			<path d="M-22.762,369.504h-2.407l-0.969-2.479h-4.378l-0.906,2.479h-2.341l4.271-10.949h2.333L-22.762,369.504z M-26.845,365.181
				l-1.508-4.076l-1.479,4.076H-26.845z"/>
			<path d="M-20.271,369.504v-9.103h-3.247v-1.852h8.712v1.852h-3.257v9.103H-20.271z"/>
			<path d="M-13.459,369.504v-10.949h2.225v10.949H-13.459z"/>
			<path d="M-9.582,364.095c0-1.104,0.156-2.06,0.492-2.808c0.245-0.561,0.59-1.056,1.021-1.501
				c0.437-0.441,0.906-0.772,1.412-0.992c0.684-0.277,1.473-0.423,2.369-0.423c1.608,0,2.896,0.495,3.881,1.502
				c0.961,0.989,1.439,2.385,1.439,4.177c0,1.764-0.479,3.146-1.435,4.146c-0.973,0.988-2.256,1.498-3.865,1.498
				c-1.627,0-2.918-0.491-3.891-1.491C-9.105,367.204-9.582,365.835-9.582,364.095z M-7.3,364.028c0,1.229,0.276,2.183,0.854,2.813
				c0.574,0.646,1.297,0.95,2.182,0.95c0.894,0,1.607-0.306,2.177-0.944c0.565-0.626,0.844-1.591,0.844-2.86
				c0-1.258-0.271-2.19-0.822-2.804c-0.554-0.612-1.279-0.926-2.192-0.926c-0.912,0-1.642,0.313-2.201,0.936
				C-7.026,361.812-7.3,362.767-7.3,364.028z"/>
			<path d="M2.784,369.504v-10.949h2.157l4.484,7.318v-7.318h2.059v10.949h-2.23l-4.41-7.145v7.145H2.784z"/>
		</g>
	</g>
	<g id="cdpButtonStyle2">
		<rect x="-107.574" y="239.532" fill="none" width="169.625" height="58.896"/>
		<g>
			<path d="M-49.268,260.896l2.242,0.712c-0.349,1.25-0.916,2.179-1.72,2.784c-0.801,0.605-1.813,0.91-3.043,0.91
				c-1.521,0-2.771-0.521-3.75-1.563c-0.979-1.039-1.469-2.46-1.469-4.263c0-1.905,0.492-3.388,1.479-4.438
				c0.98-1.058,2.273-1.582,3.884-1.582c1.396,0,2.539,0.413,3.414,1.238c0.521,0.489,0.908,1.191,1.172,2.108l-2.289,0.547
				c-0.137-0.595-0.418-1.063-0.85-1.405c-0.433-0.343-0.951-0.517-1.564-0.517c-0.851,0-1.538,0.306-2.065,0.913
				c-0.524,0.607-0.793,1.599-0.793,2.962c0,1.447,0.265,2.479,0.781,3.095c0.521,0.613,1.196,0.922,2.03,0.922
				c0.611,0,1.144-0.191,1.586-0.586C-49.78,262.349-49.461,261.736-49.268,260.896z"/>
			<path d="M-45.057,253.655h2.313v6.203c0,0.982,0.027,1.621,0.086,1.913c0.103,0.47,0.335,0.846,0.707,1.13
				c0.371,0.283,0.886,0.426,1.527,0.426c0.655,0,1.149-0.134,1.483-0.397c0.332-0.271,0.529-0.603,0.603-0.988
				c0.065-0.392,0.104-1.039,0.104-1.944v-6.336h2.313v6.021c0,1.375-0.063,2.347-0.188,2.914c-0.125,0.563-0.354,1.047-0.69,1.438
				c-0.337,0.396-0.785,0.702-1.349,0.938c-0.563,0.229-1.301,0.348-2.203,0.348c-1.098,0-1.924-0.126-2.487-0.379
				c-0.565-0.253-1.013-0.581-1.341-0.984c-0.327-0.397-0.545-0.823-0.647-1.27c-0.147-0.656-0.228-1.625-0.228-2.906
				L-45.057,253.655L-45.057,253.655z"/>
			<path d="M-33.479,265.108v-11.453h4.863c1.227,0,2.112,0.104,2.672,0.313c0.555,0.205,0.994,0.566,1.328,1.098
				c0.332,0.525,0.5,1.128,0.5,1.806c0,0.858-0.255,1.568-0.759,2.133c-0.506,0.561-1.263,0.91-2.267,1.06
				c0.5,0.292,0.912,0.611,1.238,0.961c0.32,0.352,0.764,0.97,1.313,1.858l1.397,2.23h-2.771l-1.672-2.492
				c-0.595-0.892-1-1.448-1.22-1.685c-0.221-0.23-0.451-0.392-0.694-0.478c-0.245-0.09-0.634-0.133-1.164-0.133h-0.47v4.781H-33.479
				L-33.479,265.108z M-31.166,258.498h1.711c1.108,0,1.802-0.051,2.078-0.146c0.274-0.095,0.492-0.255,0.647-0.479
				c0.152-0.229,0.229-0.521,0.229-0.858c0-0.387-0.104-0.695-0.31-0.938c-0.207-0.233-0.496-0.387-0.871-0.445
				c-0.188-0.025-0.75-0.039-1.688-0.039h-1.806v2.906H-31.166z"/>
			<path d="M-22.518,261.381l2.25-0.223c0.136,0.759,0.41,1.313,0.824,1.664c0.41,0.354,0.973,0.53,1.676,0.53
				c0.744,0,1.306-0.156,1.685-0.474c0.377-0.313,0.565-0.688,0.565-1.104c0-0.271-0.08-0.501-0.237-0.688
				c-0.16-0.189-0.438-0.354-0.832-0.496c-0.271-0.094-0.89-0.264-1.853-0.5c-1.24-0.312-2.108-0.688-2.608-1.133
				c-0.703-0.634-1.056-1.397-1.056-2.309c0-0.583,0.164-1.129,0.496-1.638c0.326-0.509,0.808-0.896,1.43-1.16
				c0.621-0.267,1.373-0.396,2.255-0.396c1.438,0,2.521,0.313,3.245,0.941c0.726,0.63,1.104,1.476,1.146,2.521l-2.313,0.104
				c-0.104-0.589-0.313-1.014-0.637-1.271c-0.326-0.26-0.813-0.391-1.469-0.391c-0.673,0-1.195,0.142-1.574,0.414
				c-0.246,0.181-0.367,0.414-0.367,0.711c0,0.271,0.109,0.505,0.345,0.695c0.291,0.243,1,0.5,2.125,0.768s1.957,0.539,2.495,0.822
				c0.539,0.284,0.962,0.672,1.267,1.164c0.309,0.49,0.457,1.104,0.457,1.822c0,0.656-0.185,1.271-0.547,1.846
				c-0.366,0.571-0.881,0.999-1.547,1.275c-0.668,0.276-1.498,0.418-2.492,0.418c-1.448,0-2.562-0.335-3.336-1.004
				C-21.905,263.637-22.367,262.662-22.518,261.381z"/>
			<path d="M-11.728,259.451c0-1.167,0.174-2.146,0.521-2.938c0.262-0.583,0.615-1.105,1.065-1.569
				c0.449-0.465,0.939-0.809,1.479-1.031c0.713-0.302,1.535-0.449,2.473-0.449c1.688,0,3.033,0.521,4.051,1.566
				c1.013,1.047,1.521,2.503,1.521,4.366c0,1.85-0.504,3.297-1.508,4.341c-1.006,1.044-2.351,1.565-4.031,1.565
				c-1.699,0-3.059-0.521-4.063-1.563C-11.226,262.707-11.728,261.275-11.728,259.451z M-9.345,259.373
				c0,1.297,0.3,2.276,0.896,2.945c0.601,0.669,1.357,1.004,2.279,1.004s1.68-0.332,2.271-0.996c0.59-0.66,0.887-1.656,0.887-2.984
				c0-1.313-0.288-2.292-0.862-2.938c-0.576-0.646-1.34-0.97-2.293-0.97s-1.724,0.327-2.306,0.979
				C-9.054,257.07-9.345,258.055-9.345,259.373z"/>
			<path d="M1.194,265.108v-11.453h4.867c1.224,0,2.107,0.104,2.668,0.313c0.556,0.205,0.998,0.566,1.332,1.098
				c0.332,0.525,0.5,1.128,0.5,1.806c0,0.858-0.254,1.568-0.762,2.133c-0.508,0.561-1.264,0.91-2.269,1.06
				c0.5,0.292,0.912,0.611,1.238,0.961c0.32,0.352,0.765,0.97,1.313,1.858l1.399,2.229h-2.76l-1.678-2.492
				c-0.594-0.892-1-1.448-1.219-1.685c-0.22-0.231-0.451-0.392-0.693-0.478c-0.242-0.09-0.635-0.133-1.16-0.133H3.499v4.781
				L1.194,265.108L1.194,265.108z M3.506,258.498h1.711c1.109,0,1.805-0.051,2.078-0.146c0.274-0.095,0.492-0.255,0.647-0.479
				c0.156-0.229,0.23-0.521,0.23-0.858c0-0.387-0.104-0.695-0.312-0.938c-0.207-0.233-0.495-0.387-0.87-0.445
				c-0.188-0.025-0.75-0.039-1.688-0.039H3.497v2.906H3.506z"/>
			<path d="M-47.408,284.307l-2.729-11.453h2.367l1.728,7.867l2.094-7.867h2.75l2.013,8l1.758-8h2.328l-2.78,11.453h-2.453
				l-2.281-8.563l-2.271,8.563H-47.408z"/>
			<path d="M-34.002,284.307v-11.453h2.313v11.453H-34.002z"/>
			<path d="M-29.463,284.307v-11.453h2.25l4.688,7.647v-7.647h2.146v11.453h-2.319l-4.613-7.47v7.47H-29.463z"/>
			<path d="M-10.603,280.096l2.238,0.711c-0.346,1.25-0.912,2.18-1.717,2.784c-0.801,0.604-1.813,0.91-3.043,0.91
				c-1.521,0-2.771-0.521-3.75-1.563c-0.979-1.039-1.47-2.46-1.47-4.263c0-1.905,0.492-3.388,1.479-4.44
				c0.984-1.055,2.276-1.582,3.887-1.582c1.396,0,2.539,0.414,3.414,1.242c0.521,0.488,0.906,1.19,1.172,2.107l-2.289,0.548
				c-0.137-0.595-0.418-1.063-0.852-1.405c-0.432-0.344-0.949-0.518-1.563-0.518c-0.854,0-1.54,0.307-2.066,0.914
				c-0.524,0.605-0.793,1.598-0.793,2.961c0,1.445,0.261,2.479,0.781,3.095c0.52,0.614,1.197,0.923,2.031,0.923
				c0.609,0,1.144-0.195,1.586-0.586C-11.117,281.55-10.797,280.935-10.603,280.096z"/>
			<path d="M-6.369,284.307v-11.453h2.313v4.509h4.531v-4.509h2.313v11.453H0.475V279.3h-4.531v5.009L-6.369,284.307L-6.369,284.307
				z"/>
		</g>
	</g>
	<g id="cdpButtonStyle1">
		<rect x="-107.947" y="162.238" fill="none" width="169.625" height="58.896"/>
		<g>
			<path d="M-64.586,184.088l2.25-0.219c0.135,0.756,0.407,1.312,0.821,1.662c0.414,0.355,0.976,0.529,1.679,0.529
				c0.744,0,1.306-0.154,1.686-0.474c0.377-0.313,0.564-0.686,0.564-1.104c0-0.271-0.08-0.502-0.238-0.689
				c-0.157-0.188-0.438-0.354-0.832-0.496c-0.271-0.094-0.888-0.26-1.853-0.5c-1.239-0.309-2.108-0.686-2.608-1.133
				c-0.701-0.629-1.056-1.396-1.056-2.307c0-0.584,0.165-1.131,0.494-1.639c0.331-0.509,0.81-0.896,1.433-1.16
				c0.622-0.267,1.374-0.396,2.254-0.396c1.438,0,2.521,0.314,3.246,0.943c0.729,0.631,1.105,1.475,1.146,2.521l-2.313,0.104
				c-0.102-0.59-0.313-1.015-0.64-1.271c-0.323-0.258-0.813-0.387-1.465-0.387c-0.673,0-1.196,0.137-1.578,0.412
				c-0.243,0.178-0.364,0.414-0.364,0.713c0,0.271,0.111,0.502,0.344,0.691c0.292,0.243,1,0.5,2.125,0.77
				c1.125,0.266,1.957,0.539,2.496,0.822c0.539,0.281,0.961,0.672,1.269,1.162c0.307,0.492,0.456,1.104,0.456,1.823
				c0,0.654-0.185,1.271-0.547,1.847c-0.364,0.569-0.882,0.996-1.549,1.272c-0.667,0.279-1.498,0.418-2.49,0.418
				c-1.447,0-2.562-0.334-3.336-1.004C-63.972,186.345-64.435,185.369-64.586,184.088z"/>
			<path d="M-53.329,187.814v-11.453h3.711c1.405,0,2.322,0.061,2.75,0.174c0.655,0.174,1.206,0.547,1.646,1.121
				c0.441,0.572,0.664,1.316,0.664,2.229c0,0.702-0.128,1.295-0.384,1.771c-0.255,0.479-0.58,0.854-0.975,1.131
				c-0.396,0.271-0.793,0.451-1.197,0.543c-0.554,0.105-1.354,0.164-2.396,0.164h-1.51v4.316L-53.329,187.814L-53.329,187.814z
				 M-51.016,178.299v3.25h1.269c0.91,0,1.521-0.061,1.827-0.18c0.308-0.119,0.549-0.311,0.724-0.563
				c0.176-0.254,0.265-0.554,0.265-0.892c0-0.418-0.123-0.764-0.366-1.031c-0.244-0.271-0.557-0.438-0.932-0.508
				c-0.274-0.055-0.831-0.078-1.664-0.078L-51.016,178.299L-51.016,178.299z"/>
			<path d="M-43.126,182.158c0-1.166,0.174-2.145,0.521-2.938c0.261-0.582,0.614-1.104,1.064-1.568
				c0.449-0.465,0.941-0.812,1.479-1.029c0.714-0.305,1.536-0.453,2.472-0.453c1.688,0,3.037,0.521,4.052,1.568
				s1.521,2.504,1.521,4.365c0,1.854-0.504,3.297-1.509,4.342c-1.007,1.043-2.351,1.563-4.03,1.563
				c-1.701,0-3.061-0.521-4.063-1.561C-42.624,185.412-43.126,183.982-43.126,182.158z M-40.743,182.08
				c0,1.297,0.301,2.277,0.896,2.947c0.602,0.67,1.358,1.004,2.28,1.004c0.923,0,1.679-0.332,2.271-0.994
				c0.591-0.664,0.887-1.66,0.887-2.988c0-1.313-0.286-2.291-0.86-2.938c-0.576-0.646-1.341-0.969-2.294-0.969
				c-0.952,0-1.724,0.326-2.307,0.979C-40.452,179.777-40.743,180.763-40.743,182.08z"/>
			<path d="M-30.68,182.158c0-1.166,0.176-2.145,0.521-2.938c0.262-0.582,0.616-1.104,1.064-1.568
				c0.448-0.465,0.942-0.812,1.479-1.029c0.715-0.305,1.536-0.453,2.471-0.453c1.688,0,3.038,0.521,4.054,1.568
				c1.014,1.047,1.521,2.504,1.521,4.365c0,1.854-0.503,3.297-1.508,4.342c-1.005,1.043-2.352,1.563-4.029,1.563
				c-1.703,0-3.06-0.521-4.063-1.561C-30.177,185.412-30.68,183.982-30.68,182.158z M-28.298,182.08c0,1.297,0.3,2.277,0.896,2.947
				c0.602,0.67,1.357,1.004,2.279,1.004s1.68-0.332,2.271-0.994c0.593-0.664,0.889-1.66,0.889-2.988
				c0-1.313-0.287-2.291-0.862-2.938c-0.574-0.646-1.34-0.969-2.293-0.969c-0.951,0-1.723,0.326-2.306,0.979
				C-28.007,179.777-28.298,180.763-28.298,182.08z"/>
			<path d="M-17.704,187.814v-11.355h2.313v9.431h5.75v1.932L-17.704,187.814L-17.704,187.814z"/>
			<path d="M-8.062,187.814v-11.453h2.313v11.453H-8.062z"/>
			<path d="M-3.523,187.814v-11.453h2.25l4.688,7.646v-7.645h2.146v11.451H3.242l-4.616-7.469v7.469L-3.523,187.814L-3.523,187.814z
				"/>
			<path d="M13.335,183.603v-1.931h4.981v4.563c-0.481,0.473-1.188,0.885-2.104,1.238c-0.92,0.354-1.854,0.532-2.793,0.532
				c-1.197,0-2.24-0.25-3.134-0.754c-0.894-0.502-1.563-1.223-2.01-2.153c-0.446-0.937-0.673-1.951-0.673-3.054
				c0-1.188,0.25-2.252,0.75-3.18c0.5-0.93,1.229-1.641,2.193-2.135c0.732-0.381,1.646-0.568,2.742-0.568
				c1.422,0,2.529,0.299,3.332,0.896c0.799,0.6,1.313,1.422,1.543,2.477l-2.298,0.43c-0.161-0.563-0.466-1.008-0.909-1.331
				c-0.443-0.324-1.002-0.486-1.668-0.486c-1.014,0-1.813,0.317-2.41,0.961c-0.6,0.643-0.896,1.592-0.896,2.854
				c0,1.355,0.303,2.38,0.905,3.06c0.604,0.682,1.396,1.021,2.375,1.021c0.482,0,0.97-0.098,1.457-0.284
				c0.484-0.189,0.902-0.423,1.254-0.689v-1.453h-2.643v-0.01h0.002v-0.003H13.335z"/>
			<path d="M-51.567,195.562h4.229c0.951,0,1.681,0.071,2.181,0.221c0.672,0.195,1.247,0.551,1.729,1.057
				c0.479,0.507,0.847,1.123,1.097,1.854c0.25,0.73,0.375,1.637,0.375,2.707c0,0.94-0.117,1.756-0.354,2.438
				c-0.286,0.834-0.693,1.511-1.229,2.021c-0.399,0.395-0.941,0.695-1.625,0.914c-0.514,0.16-1.191,0.242-2.048,0.242h-4.354
				V195.562z M-49.255,197.5v7.586h1.729c0.646,0,1.11-0.037,1.396-0.108c0.375-0.095,0.688-0.252,0.937-0.478
				c0.245-0.227,0.447-0.596,0.604-1.104c0.154-0.513,0.231-1.211,0.231-2.099c0-0.889-0.077-1.563-0.231-2.039
				c-0.155-0.477-0.375-0.844-0.655-1.106c-0.279-0.269-0.64-0.443-1.068-0.539c-0.321-0.07-0.955-0.107-1.896-0.107L-49.255,197.5
				L-49.255,197.5z"/>
			<path d="M-40.005,207.015v-11.453h8.49v1.938h-6.181v2.539h5.75v1.931h-5.75v3.116h6.396v1.931L-40.005,207.015L-40.005,207.015z
				"/>
			<path d="M-26.411,207.015l-4.095-11.453h2.509l2.896,8.479l2.808-8.479h2.452l-4.104,11.453H-26.411z"/>
			<path d="M-18.731,207.015v-11.453h2.313v11.453H-18.731z"/>
			<path d="M-6.886,202.804l2.241,0.711c-0.346,1.25-0.915,2.18-1.715,2.782c-0.803,0.605-1.813,0.91-3.043,0.91
				c-1.521,0-2.771-0.52-3.75-1.561c-0.979-1.039-1.471-2.461-1.471-4.265c0-1.903,0.491-3.387,1.479-4.438
				c0.983-1.055,2.275-1.582,3.884-1.582c1.399,0,2.539,0.414,3.414,1.242c0.521,0.487,0.909,1.188,1.174,2.106l-2.289,0.547
				c-0.139-0.594-0.418-1.063-0.851-1.405c-0.432-0.342-0.952-0.517-1.563-0.517c-0.854,0-1.539,0.306-2.064,0.914
				c-0.527,0.607-0.793,1.599-0.793,2.961c0,1.447,0.261,2.479,0.779,3.095c0.521,0.612,1.195,0.922,2.03,0.922
				c0.61,0,1.144-0.191,1.586-0.586C-7.398,204.258-7.081,203.642-6.886,202.804z"/>
			<path d="M-2.661,207.015v-11.453h8.492v1.938H-0.35v2.539H5.4v1.931h-5.75v3.116h6.396v1.931L-2.661,207.015L-2.661,207.015z"/>
		</g>
	</g>
</g>
</svg>
