<?xml version="1.0" encoding="utf-8"?>
<!-- Generator: Adobe Illustrator 16.0.0, SVG Export Plug-In . SVG Version: 6.00 Build 0)  -->
<!DOCTYPE svg PUBLIC "-//W3C//DTD SVG 1.1//EN" "http://www.w3.org/Graphics/SVG/1.1/DTD/svg11.dtd">
<svg version="1.1" id="svg" xmlns="http://www.w3.org/2000/svg" xmlns:xlink="http://www.w3.org/1999/xlink" x="0px" y="0px"
	 width="69px" height="69px" viewBox="0 0 69 69" enable-background="new 0 0 69 69" xml:space="preserve">
<g id="Layer1">
	<g id="cdpBackground">
		<rect id="outline_2_" fill="none" width="69" height="69"/>
		<g>
			<g>
				<circle fill-rule="evenodd" clip-rule="evenodd" fill="#1E1E1E" cx="34.5" cy="34.5" r="32.5"/>
			</g>
			<g>
				<linearGradient id="SVGID_1_" gradientUnits="userSpaceOnUse" x1="10.1172" y1="10.1172" x2="58.8841" y2="58.8841">
					<stop  offset="0.5529" style="stop-color:#000000;stop-opacity:0.2"/>
					<stop  offset="0.9895" style="stop-color:#FFFFFF;stop-opacity:0.05"/>
				</linearGradient>
				<path fill="url(#SVGID_1_)" d="M34.5,2C52.449,2,67,16.551,67,34.5S52.449,67,34.5,67S2,52.449,2,34.5S16.551,2,34.5,2 M34.5,0
					C15.477,0,0,15.477,0,34.5S15.477,69,34.5,69S69,53.523,69,34.5S53.523,0,34.5,0L34.5,0z"/>
			</g>
			<g>
				<linearGradient id="SVGID_2_" gradientUnits="userSpaceOnUse" x1="34.5005" y1="58.665" x2="34.5005" y2="10.3354">
					<stop  offset="0" style="stop-color:#FFFFFF"/>
					<stop  offset="1" style="stop-color:#C0C0C0"/>
				</linearGradient>
				<path fill="url(#SVGID_2_)" d="M34.5,10.335c-13.346,0-24.166,10.82-24.166,24.165c0,13.348,10.82,24.165,24.166,24.165
					S58.666,47.848,58.666,34.5C58.666,21.155,47.846,10.335,34.5,10.335z M34.539,12.35h-0.078c0.014,0,0.026-0.001,0.039-0.001
					S34.525,12.35,34.539,12.35z M36.467,56.56L34.5,52.625l-1.967,3.935c-10.646-0.942-19.15-9.444-20.093-20.091l3.936-1.968
					l-3.936-1.968c0.942-10.647,9.444-19.15,20.091-20.092l1.969,3.936l1.969-3.936c10.646,0.942,19.148,9.445,20.091,20.092
					l-3.936,1.968l3.936,1.968C55.617,47.115,47.113,55.617,36.467,56.56z"/>
			</g>
		</g>
	</g>
	<g id="cdpNeedleGraphics_2_">
		<rect id="cdpRectOutline_2_" x="93.253" y="-0.4" fill="none" width="3.4" height="14.8"/>
		<rect id="cdpRectCenter_2_" x="93.473" y="12.739" fill="none" width="2.961" height="1.657"/>
		
			<linearGradient id="SVGID_3_" gradientUnits="userSpaceOnUse" x1="93.3994" y1="17.1387" x2="93.3994" y2="7.8031" gradientTransform="matrix(0.7071 0.7071 -0.7071 0.7071 37.2266 -64.8598)">
			<stop  offset="0" style="stop-color:#FFFFFF"/>
			<stop  offset="1" style="stop-color:#C0C0C0"/>
		</linearGradient>
		<path fill="url(#SVGID_3_)" d="M94.215,6.333c-0.169,0.808-0.337,1.617-0.446,2.426c-0.137,1.012-0.215,2.025-0.262,3.037
			c-0.02,0.006-0.036,0.015-0.054,0.022v1.756h3v-1.756c-0.016-0.006-0.032-0.015-0.051-0.02c-0.05-1.014-0.128-2.027-0.265-3.04
			c-0.109-0.808-0.277-1.618-0.444-2.425c-0.112-0.406-0.198-0.81-0.324-1.214c-0.117-0.394-0.242-0.788-0.403-1.182h-0.021
			c-0.162,0.395-0.29,0.788-0.407,1.183C94.411,5.524,94.325,5.929,94.215,6.333z"/>
	</g>
	<rect id="cdpNeedleMax_1_" x="32.5" y="17" fill="none" width="4" height="4"/>
	<rect id="cdpNeedleMin_2_" x="32.5" y="17" fill="none" width="4" height="4"/>
	<rect id="cdpNeedleCenterCW" x="32.5" y="32.5" fill="none" width="4" height="4"/>
</g>
<g id="Layer2">
	<g id="cdpTop">
		<rect id="outline_1_" fill="none" width="69" height="69"/>
		<linearGradient id="SVGID_4_" gradientUnits="userSpaceOnUse" x1="31.5" y1="34.5" x2="37.5" y2="34.5">
			<stop  offset="0" style="stop-color:#FFFFFF"/>
			<stop  offset="1" style="stop-color:#C0C0C0"/>
		</linearGradient>
		<circle fill="url(#SVGID_4_)" cx="34.5" cy="34.5" r="3"/>
	</g>
	<g id="cdpNeedleGraphics_1_">
		<rect id="cdpRectOutline_1_" x="97.67" y="-0.4" fill="none" width="3.4" height="14.8"/>
		<rect id="cdpRectCenter_1_" x="97.89" y="12.739" fill="none" width="2.961" height="1.657"/>
		
			<linearGradient id="SVGID_5_" gradientUnits="userSpaceOnUse" x1="95.0459" y1="14.5527" x2="95.0459" y2="1.721" gradientTransform="matrix(0.7071 0.7071 -0.7071 0.7071 37.2266 -64.8598)">
			<stop  offset="0" style="stop-color:#FFFFFF"/>
			<stop  offset="1" style="stop-color:#C0C0C0"/>
		</linearGradient>
		<path fill="url(#SVGID_5_)" d="M98.632,3.196c-0.169,1.158-0.337,2.318-0.446,3.478c-0.137,1.451-0.215,2.902-0.262,4.353
			c-0.02,0.009-0.036,0.021-0.054,0.032v2.517h3v-2.517c-0.016-0.009-0.032-0.021-0.051-0.029c-0.05-1.453-0.128-2.905-0.265-4.357
			c-0.109-1.158-0.277-2.318-0.444-3.476c-0.112-0.582-0.198-1.16-0.324-1.74c-0.117-0.565-0.242-1.129-0.403-1.694h-0.021
			c-0.162,0.565-0.29,1.129-0.407,1.696C98.828,2.036,98.742,2.616,98.632,3.196z"/>
	</g>
	<rect id="cdpNeedleCenterCW_1_" x="32.5" y="32.5" fill="none" width="4" height="4"/>
	<rect id="cdpNeedleMin" x="32.5" y="17" fill="none" width="4" height="4"/>
	<rect id="cdpNeedleMax" x="32.5" y="17" fill="none" width="4" height="4"/>
</g>
<g id="Helper">
	<linearGradient id="SVGID_6_" gradientUnits="userSpaceOnUse" x1="33.6558" y1="37.5215" x2="33.6558" y2="24.5337">
		<stop  offset="0" style="stop-color:#FFFFFF"/>
		<stop  offset="1" style="stop-color:#C0C0C0"/>
	</linearGradient>
	<path fill="url(#SVGID_6_)" d="M37.8,29.745c-0.765,0.602-1.504,1.228-2.224,1.873c-0.271-0.081-0.555-0.137-0.853-0.137
		c-0.294,0-0.57,0.054-0.839,0.133c-1.076-1.005-2.171-1.991-3.309-2.933c-0.906-0.754-1.856-1.466-2.807-2.176
		c-0.493-0.339-0.97-0.692-1.475-1.019c-0.5-0.33-1.006-0.655-1.539-0.952c0.297,0.534,0.622,1.04,0.951,1.54
		c0.327,0.504,0.68,0.981,1.019,1.474c0.71,0.951,1.422,1.9,2.177,2.807c0.942,1.138,1.928,2.232,2.933,3.308
		c-0.078,0.269-0.133,0.546-0.133,0.839c0,1.669,1.353,3.021,3.021,3.021c1.668,0,3.021-1.352,3.021-3.021
		c0-0.298-0.057-0.581-0.137-0.853c0.645-0.721,1.271-1.459,1.872-2.224c0.577-0.728,1.11-1.5,1.642-2.272
		c0.506-0.8,1.02-1.593,1.434-2.483c-0.89,0.415-1.682,0.928-2.482,1.434C39.3,28.635,38.527,29.167,37.8,29.745z"/>
</g>
</svg>
