<?xml version="1.0" encoding="utf-8"?>
<!-- Generator: Adobe Illustrator 21.0.2, SVG Export Plug-In . SVG Version: 6.00 Build 0)  -->
<svg version="1.1" id="svg" xmlns="http://www.w3.org/2000/svg" xmlns:xlink="http://www.w3.org/1999/xlink" x="0px" y="0px"
	 viewBox="0 0 192 192" enable-background="new 0 0 192 192" xml:space="preserve">
<g id="Styles">
	<g id="cdpBackgroundStyle1">
		
			<radialGradient id="outer_2_" cx="126.5342" cy="-667.5479" r="156.7254" gradientTransform="matrix(1 0 0 -1 236.6406 -612.3984)" gradientUnits="userSpaceOnUse">
			<stop  offset="0" style="stop-color:#323B40"/>
			<stop  offset="1" style="stop-color:#212426"/>
		</radialGradient>
		
			<circle id="outer_4_" fill="url(#outer_2_)" stroke="#505152" stroke-width="0.95" stroke-miterlimit="10" cx="300" cy="96" r="95"/>
		
			<radialGradient id="middle_2_" cx="63.3594" cy="-708.3984" r="87.5" gradientTransform="matrix(1 0 0 -1 236.6406 -612.3984)" gradientUnits="userSpaceOnUse">
			<stop  offset="0" style="stop-color:#DCE0E6"/>
			<stop  offset="1" style="stop-color:#343536"/>
		</radialGradient>
		<circle id="middle_3_" fill="url(#middle_2_)" cx="300" cy="96" r="87.5"/>
		
			<radialGradient id="inner_11_" cx="-47.1406" cy="-827.8984" r="190.003" gradientTransform="matrix(1 0 0 -1 236.6406 -612.3984)" gradientUnits="userSpaceOnUse">
			<stop  offset="0" style="stop-color:#171717"/>
			<stop  offset="0.4171" style="stop-color:#191919"/>
			<stop  offset="0.6397" style="stop-color:#212121"/>
			<stop  offset="0.8162" style="stop-color:#2E2F2F"/>
			<stop  offset="0.9678" style="stop-color:#414242"/>
			<stop  offset="1" style="stop-color:#464747"/>
		</radialGradient>
		<circle id="inner_9_" fill="url(#inner_11_)" cx="300" cy="96" r="86.5"/>
		<path id="inner_2_" display="none" fill="none" stroke="#FFFFFF" stroke-width="1.5" stroke-miterlimit="10" d="M289,17.5
			c3.6-0.5,7.2-0.7,11-0.7c44.2,0,80,35.8,80,80c0,17.3-5.5,33.3-14.8,46.4"/>
		<rect id="rect_2_" x="204" fill="none" width="192" height="192"/>
	</g>
	<g id="cdpTextScaleStyle1" enable-background="new    ">
		<text transform="matrix(1 0 0 1 295.9805 46.4063)" fill="#FFFFFF" font-family="'Arial-BoldMT'" font-size="13.9993">1</text>
	</g>
	<g id="cdpTicksNumberStyle1" enable-background="new    ">
		<text transform="matrix(1 0 0 1 295.9805 46.4063)" fill="#FFFFFF" font-family="'Arial-BoldMT'" font-size="13.9993">1</text>
	</g>
	<g id="scale">
		
			<text transform="matrix(0.8662 0.4996 -0.4996 0.8662 321.6312 51.0906)" fill="#FFFFFF" font-family="'Arial-BoldMT'" font-size="13.9958">2</text>
		<path id="inner_5_" fill="none" stroke="#FF0007" stroke-width="4" stroke-miterlimit="10" d="M375.9,81.1c1,5,1.6,10.3,1.6,15.6
			c0,16.8-5.3,32.3-14.4,45"/>
		<path id="inner_10_" display="none" fill="none" stroke="#FFFFFF" stroke-width="0.9249" stroke-miterlimit="10" d="M289,17.5
			c3.6-0.5,7.2-0.7,11-0.7c44.2,0,80,35.8,80,80c0,17.3-5.5,33.3-14.8,46.4"/>
		<line fill="none" stroke="#FFFFFF" stroke-width="4" stroke-miterlimit="10" x1="300" y1="31.7" x2="300" y2="16.7"/>
		<line fill="none" stroke="#FFFFFF" stroke-width="4" stroke-miterlimit="10" x1="332.4" y1="40.4" x2="339.9" y2="27.4"/>
		<g display="none" enable-background="new    ">
			
				<text transform="matrix(1 0 0 1 295.9805 46.4063)" display="inline" fill="#FFFFFF" font-family="'Arial-BoldMT'" font-size="13.9993">1</text>
		</g>
		<line fill="none" stroke="#FFFFFF" stroke-width="4" stroke-miterlimit="10" x1="356.3" y1="64.2" x2="369.3" y2="56.8"/>
		
			<text transform="matrix(0.4995 0.8663 -0.8663 0.4995 341.5445 68.1425)" fill="#FFFFFF" font-family="'Arial-BoldMT'" font-size="14">3</text>
		<line fill="none" stroke="#FFFFFF" stroke-width="4" stroke-miterlimit="10" x1="364.9" y1="96.8" x2="379.9" y2="96.8"/>
		
			<text transform="matrix(-8.600000e-04 1 -1 -8.600000e-04 350.2674 92.7949)" fill="#FFFFFF" font-family="'Arial-BoldMT'" font-size="14">4</text>
		<line fill="none" stroke="#FFFFFF" stroke-width="4" stroke-miterlimit="10" x1="356.3" y1="129.2" x2="369.3" y2="136.7"/>
		
			<text transform="matrix(-0.4996 0.8663 -0.8663 -0.4996 345.5463 118.3975)" fill="#FFFFFF" font-family="'Arial-BoldMT'" font-size="14.003">5</text>
	</g>
	<g id="cdpTextSuffixStyle1">
		<rect x="257" y="156.2" fill="none" width="86" height="17.7"/>
		<text transform="matrix(1 0 0 1 281.6055 166.5332)" fill="#8A8A8A" font-family="'Arial-BoldMT'" font-size="10">pixel / s</text>
	</g>
	<g id="cdpTextPrefixStyle1">
		<rect x="257" y="118" fill="none" width="86" height="38"/>
		<text transform="matrix(1 0 0 1 269.9199 148.1475)" fill="#FFFFFF" font-family="'ArialMT'" font-size="13">QUALITY</text>
		<text transform="matrix(1 0 0 1 287.4258 131.3477)" fill="#FFFFFF" font-family="'ArialMT'" font-size="13">GUI</text>
	</g>
	<g id="cdpNeedle1Style1">
		
			<linearGradient id="SVGID_1_" gradientUnits="userSpaceOnUse" x1="70.2466" y1="-679.8924" x2="57.0301" y2="-679.8924" gradientTransform="matrix(1 0 0 -1 236.6406 -612.3984)">
			<stop  offset="0" style="stop-color:#FFFFFF"/>
			<stop  offset="0.1414" style="stop-color:#FAFBFB"/>
			<stop  offset="0.3029" style="stop-color:#ECEDEE"/>
			<stop  offset="0.4743" style="stop-color:#D6D8D9"/>
			<stop  offset="0.6526" style="stop-color:#B6B9BC"/>
			<stop  offset="0.8343" style="stop-color:#8D9396"/>
			<stop  offset="1" style="stop-color:#61696E"/>
		</linearGradient>
		<path fill="url(#SVGID_1_)" d="M305.4,110.5c0,1.1-0.9,2.2-2.1,2.2h-6.6c-1.2,0-2.2-1.1-2.1-2.2l3.2-86.1c0-1.1,1.1-2.1,2.3-2.1
			l0,0c1.2,0,2.2,1,2.3,2.1L305.4,110.5z"/>
		<g display="none">
			
				<linearGradient id="SVGID_2_" gradientUnits="userSpaceOnUse" x1="79.83" y1="-688.4188" x2="50.4385" y2="-725.3534" gradientTransform="matrix(1 0 0 -1 236.6406 -612.3984)">
				<stop  offset="0" style="stop-color:#FFFFFF"/>
				<stop  offset="0.1414" style="stop-color:#FAFBFB"/>
				<stop  offset="0.3029" style="stop-color:#ECEDEE"/>
				<stop  offset="0.4743" style="stop-color:#D6D8D9"/>
				<stop  offset="0.6526" style="stop-color:#B6B9BC"/>
				<stop  offset="0.8343" style="stop-color:#8D9396"/>
				<stop  offset="1" style="stop-color:#61696E"/>
			</linearGradient>
			<ellipse display="inline" fill="url(#SVGID_2_)" cx="300" cy="96.7" rx="9.9" ry="9"/>
			
				<linearGradient id="SVGID_3_" gradientUnits="userSpaceOnUse" x1="68.3961" y1="-703.5367" x2="57.0554" y2="-716.0986" gradientTransform="matrix(1 0 0 -1 236.6406 -612.3984)">
				<stop  offset="0" style="stop-color:#FFFFFF"/>
				<stop  offset="0.1414" style="stop-color:#FAFBFB"/>
				<stop  offset="0.3029" style="stop-color:#ECEDEE"/>
				<stop  offset="0.4743" style="stop-color:#D6D8D9"/>
				<stop  offset="0.6526" style="stop-color:#B6B9BC"/>
				<stop  offset="0.8343" style="stop-color:#8D9396"/>
				<stop  offset="1" style="stop-color:#61696E"/>
			</linearGradient>
			<ellipse display="inline" fill="url(#SVGID_3_)" cx="300" cy="96.7" rx="7.9" ry="7.2"/>
		</g>
		<rect id="cdpRectCenter" x="298.3" y="95.2" fill="none" width="3.3" height="3"/>
		<rect id="cdpRectOutline" x="290" y="22.3" fill="none" width="19.8" height="90.4"/>
	</g>
	<g id="cdpTopStyle1">
		
			<linearGradient id="glass_2_" gradientUnits="userSpaceOnUse" x1="-576.3747" y1="-951.684" x2="-576.3747" y2="-989.5803" gradientTransform="matrix(2.2068 0 0 -2.2068 1572.1036 -2113.1018)">
			<stop  offset="0.4164" style="stop-color:#FFFFFF;stop-opacity:0.95"/>
			<stop  offset="1" style="stop-color:#FFFFFF;stop-opacity:0"/>
		</linearGradient>
		<path id="glass_3_" opacity="0.45" fill="url(#glass_2_)" enable-background="new    " d="M379,60.5c0,23.8-30.7-10.4-78.7-10.4
			c-48,0-79,38.5-79,10.4c0-1,20.9-51,78.8-51C356.9,9.5,379,59.5,379,60.5L379,60.5z"/>
		<rect id="rect_1_" x="204" fill="none" width="192" height="192"/>
		<g>
			
				<linearGradient id="SVGID_4_" gradientUnits="userSpaceOnUse" x1="79.1877" y1="-689.2211" x2="50.9382" y2="-724.7203" gradientTransform="matrix(1 0 0 -1 236.6406 -612.3984)">
				<stop  offset="0" style="stop-color:#FFFFFF"/>
				<stop  offset="0.1414" style="stop-color:#FAFBFB"/>
				<stop  offset="0.3029" style="stop-color:#ECEDEE"/>
				<stop  offset="0.4743" style="stop-color:#D6D8D9"/>
				<stop  offset="0.6526" style="stop-color:#B6B9BC"/>
				<stop  offset="0.8343" style="stop-color:#8D9396"/>
				<stop  offset="1" style="stop-color:#61696E"/>
			</linearGradient>
			<circle fill="url(#SVGID_4_)" cx="300" cy="96.7" r="9"/>
			
				<linearGradient id="SVGID_5_" gradientUnits="userSpaceOnUse" x1="68.1683" y1="-703.7847" x2="57.3323" y2="-715.7875" gradientTransform="matrix(1 0 0 -1 236.6406 -612.3984)">
				<stop  offset="0" style="stop-color:#FFFFFF"/>
				<stop  offset="0.1414" style="stop-color:#FAFBFB"/>
				<stop  offset="0.3029" style="stop-color:#ECEDEE"/>
				<stop  offset="0.4743" style="stop-color:#D6D8D9"/>
				<stop  offset="0.6526" style="stop-color:#B6B9BC"/>
				<stop  offset="0.8343" style="stop-color:#8D9396"/>
				<stop  offset="1" style="stop-color:#61696E"/>
			</linearGradient>
			<circle fill="url(#SVGID_5_)" cx="300" cy="96.7" r="7.2"/>
		</g>
	</g>
</g>
<g id="Layer1">
	<g display="none">
		
			<radialGradient id="outer_3_" cx="-77.4658" cy="-667.5479" r="156.7254" gradientTransform="matrix(1 0 0 -1 236.6406 -612.3984)" gradientUnits="userSpaceOnUse">
			<stop  offset="0" style="stop-color:#323B40"/>
			<stop  offset="1" style="stop-color:#212426"/>
		</radialGradient>
		
			<circle id="outer_1_" display="inline" fill="url(#outer_3_)" stroke="#505152" stroke-width="0.95" stroke-miterlimit="10" cx="96" cy="96" r="95"/>
		
			<radialGradient id="middle_4_" cx="-140.6406" cy="-708.3984" r="87.5" gradientTransform="matrix(1 0 0 -1 236.6406 -612.3984)" gradientUnits="userSpaceOnUse">
			<stop  offset="0" style="stop-color:#DCE0E6"/>
			<stop  offset="1" style="stop-color:#343536"/>
		</radialGradient>
		<circle id="middle_1_" display="inline" fill="url(#middle_4_)" cx="96" cy="96" r="87.5"/>
		
			<radialGradient id="inner_12_" cx="-251.1406" cy="-827.8984" r="190.003" gradientTransform="matrix(1 0 0 -1 236.6406 -612.3984)" gradientUnits="userSpaceOnUse">
			<stop  offset="0" style="stop-color:#171717"/>
			<stop  offset="0.4171" style="stop-color:#191919"/>
			<stop  offset="0.6397" style="stop-color:#212121"/>
			<stop  offset="0.8162" style="stop-color:#2E2F2F"/>
			<stop  offset="0.9678" style="stop-color:#414242"/>
			<stop  offset="1" style="stop-color:#464747"/>
		</radialGradient>
		<circle id="inner_6_" display="inline" fill="url(#inner_12_)" cx="96" cy="96" r="86.5"/>
		<path id="inner_4_" fill="none" stroke="#FFFFFF" stroke-width="1.5" stroke-miterlimit="10" d="M85,17.5c3.6-0.5,7.2-0.7,11-0.7
			c44.2,0,80,35.8,80,80c0,17.3-5.5,33.3-14.8,46.4"/>
		<rect id="outline" display="inline" fill="none" width="192" height="192"/>
	</g>
	<g id="cdpBackground">
		<rect fill="none" width="192" height="192"/>
		
			<linearGradient id="sunkenCircle_1_" gradientUnits="userSpaceOnUse" x1="48.0506" y1="7.0506" x2="143.9501" y2="102.9501" gradientTransform="matrix(1 0 0 1 0 41)">
			<stop  offset="0" style="stop-color:#1D2021"/>
			<stop  offset="0.4337" style="stop-color:#1D2021"/>
			<stop  offset="0.6684" style="stop-color:#565B5D"/>
			<stop  offset="1" style="stop-color:#565B5D"/>
		</linearGradient>
		<path id="sunkenCircle" fill="url(#sunkenCircle_1_)" d="M192,96c0-53-43-96-96-96S0,43,0,96s43,96,96,96S192,149,192,96z M6,96
			C6,46.3,46.3,6,96,6s90,40.3,90,90s-40.3,90-90,90S6,145.7,6,96z"/>
		<path fill="#0A0A0A" d="M96,3c51.3,0,93,41.7,93,93s-41.7,93-93,93S3,147.3,3,96S44.7,3,96,3"/>
	</g>
	<rect id="cdpTicksMinorSize" x="95.4" y="16.7" fill="none" width="1" height="5"/>
	<rect id="cdpTicksMajorSize" x="94.4" y="18.2" fill="none" width="3" height="12"/>
	<rect id="cdpTicksOffset" x="93.9" y="14.8" fill="none" width="4" height="10"/>
	<rect id="cdpTicksMajorNo9T" x="93.9" y="16.7" fill="none" width="4" height="5.6"/>
	<rect id="cdpTicksMinorNo3T" x="93.9" y="16.7" fill="none" width="4" height="5.6"/>
	<g id="cdpTicksColor" enable-background="new    ">
		<text transform="matrix(1 0 0 1 91.981 46.4063)" fill="#FFFFFF" font-family="'Arial-BoldMT'" font-size="10">1</text>
		
			<text transform="matrix(1 0 0 1 91.981 46.4063)" fill="none" stroke="#FFFFFF" stroke-miterlimit="10" font-family="'Arial-BoldMT'" font-size="10">1</text>
	</g>
	<g id="cdpTicksNumber" enable-background="new    ">
		<text transform="matrix(1 0 0 1 91.981 46.4063)" fill="#FFFFFF" font-family="'Arial-BoldMT'" font-size="10">1</text>
		
			<text transform="matrix(1 0 0 1 91.981 46.4063)" fill="none" stroke="#FFFFFF" stroke-miterlimit="10" font-family="'Arial-BoldMT'" font-size="10">1</text>
	</g>
	<g id="scaleLeft">
		
			<text transform="matrix(-4.400000e-04 -1 1 -4.400000e-04 45.5947 100.7891)" fill="#FFFFFF" font-family="'Arial-BoldMT'" font-size="13.9993">2</text>
		<path id="inner_8_" display="none" fill="none" stroke="#FF0007" stroke-width="4" stroke-miterlimit="10" d="M44.5,38.8
			c3.9-3.4,8.1-6.5,12.7-9.2c14.5-8.4,30.7-11.5,46.2-10"/>
		<path id="inner_7_" display="none" fill="none" stroke="#FFFFFF" stroke-width="0.9249" stroke-miterlimit="10" d="M85,17.5
			c3.6-0.5,7.2-0.7,11-0.7c44.2,0,80,35.8,80,80c0,17.3-5.5,33.3-14.8,46.4"/>
		<line fill="none" stroke="#FFFFFF" stroke-width="4" stroke-miterlimit="10" x1="39.7" y1="129.2" x2="26.7" y2="136.7"/>
		<line fill="none" stroke="#FFFFFF" stroke-width="4" stroke-miterlimit="10" x1="31" y1="96.7" x2="16" y2="96.7"/>
		<g enable-background="new    ">
			
				<text transform="matrix(-0.5 -0.866 0.866 -0.5 54.4518 125.2546)" fill="#FFFFFF" font-family="'Arial-BoldMT'" font-size="13.9993">1</text>
		</g>
		<line fill="none" stroke="#FFFFFF" stroke-width="4" stroke-miterlimit="10" x1="39.7" y1="64.2" x2="26.7" y2="56.7"/>
		
			<text transform="matrix(0.5005 -0.8657 0.8657 0.5005 50.4781 74.9787)" fill="#FFFFFF" font-family="'Arial-BoldMT'" font-size="13.998">3</text>
		<line fill="none" stroke="#FFFFFF" stroke-width="4" stroke-miterlimit="10" x1="63.5" y1="40.4" x2="56.1" y2="27.4"/>
		
			<text transform="matrix(0.8664 -0.4993 0.4993 0.8664 67.5234 55.0801)" fill="#FFFFFF" font-family="'Arial-BoldMT'" font-size="14.0009">4</text>
		<line fill="none" stroke="#FFFFFF" stroke-width="4" stroke-miterlimit="10" x1="96" y1="31.7" x2="96" y2="16.7"/>
		
			<text transform="matrix(1 -4.900000e-04 4.900000e-04 1 91.9282 46.3887)" fill="#FFFFFF" font-family="'Arial-BoldMT'" font-size="14.0005">5</text>
	</g>
	<g id="scale_2_">
		
			<text transform="matrix(0.8662 0.4996 -0.4996 0.8662 117.6313 51.0935)" fill="#FFFFFF" font-family="'Arial-BoldMT'" font-size="13.9958">2</text>
		<path id="inner_3_" fill="none" stroke="#FF0007" stroke-width="4" stroke-miterlimit="10" d="M171.9,81.1c1,5,1.6,10.3,1.6,15.6
			c0,16.8-5.3,32.3-14.4,45"/>
		<path id="inner_1_" display="none" fill="none" stroke="#FFFFFF" stroke-width="0.9249" stroke-miterlimit="10" d="M85,17.5
			c3.6-0.5,7.2-0.7,11-0.7c44.2,0,80,35.8,80,80c0,17.3-5.5,33.3-14.8,46.4"/>
		<line fill="none" stroke="#FFFFFF" stroke-width="4" stroke-miterlimit="10" x1="95.9" y1="31.7" x2="95.9" y2="16.7"/>
		<line fill="none" stroke="#FFFFFF" stroke-width="4" stroke-miterlimit="10" x1="128.4" y1="40.4" x2="135.9" y2="27.4"/>
		<g enable-background="new    ">
			<text transform="matrix(1 0 0 1 91.981 46.4063)" font-family="'Arial-BoldMT'" font-size="13.9993">1</text>
		</g>
		<line fill="none" stroke="#FFFFFF" stroke-width="4" stroke-miterlimit="10" x1="152.3" y1="64.2" x2="165.3" y2="56.8"/>
		
			<text transform="matrix(0.4995 0.8663 -0.8663 0.4995 137.5445 68.1425)" fill="#FFFFFF" font-family="'Arial-BoldMT'" font-size="14">3</text>
		<line fill="none" stroke="#FFFFFF" stroke-width="4" stroke-miterlimit="10" x1="160.9" y1="96.8" x2="175.9" y2="96.8"/>
		
			<text transform="matrix(-8.600000e-04 1 -1 -8.600000e-04 146.2674 92.7949)" fill="#FFFFFF" font-family="'Arial-BoldMT'" font-size="14">4</text>
		<line fill="none" stroke="#FFFFFF" stroke-width="4" stroke-miterlimit="10" x1="152.3" y1="129.2" x2="165.3" y2="136.7"/>
		
			<text transform="matrix(-0.4996 0.8663 -0.8663 -0.4996 141.5367 118.3941)" fill="#FFFFFF" font-family="'Arial-BoldMT'" font-size="14.003">5</text>
	</g>
	<g id="cdpTextSuffix">
		<rect x="53" y="156.2" fill="none" width="86" height="17.7"/>
		<text transform="matrix(1 0 0 1 77.606 166.5332)" fill="#8A8A8A" font-family="'Arial-BoldMT'" font-size="10">pixel / s</text>
	</g>
	<g id="cdpTextPrefix">
		<rect x="53" y="118" fill="none" width="86" height="38"/>
		<text transform="matrix(1 0 0 1 65.9194 148.1475)" fill="#FFFFFF" font-family="'ArialMT'" font-size="13">QUALITY</text>
		<text transform="matrix(1 0 0 1 83.4263 131.3477)" fill="#FFFFFF" font-family="'ArialMT'" font-size="13">GUI</text>
	</g>
	<g id="cdpNeedle1_1_">
		
			<linearGradient id="SVGID_6_" gradientUnits="userSpaceOnUse" x1="-133.7529" y1="-679.8924" x2="-146.9687" y2="-679.8924" gradientTransform="matrix(1 0 0 -1 236.6406 -612.3984)">
			<stop  offset="0" style="stop-color:#FFFFFF"/>
			<stop  offset="0.1414" style="stop-color:#FAFBFB"/>
			<stop  offset="0.3029" style="stop-color:#ECEDEE"/>
			<stop  offset="0.4743" style="stop-color:#D6D8D9"/>
			<stop  offset="0.6526" style="stop-color:#B6B9BC"/>
			<stop  offset="0.8343" style="stop-color:#8D9396"/>
			<stop  offset="1" style="stop-color:#61696E"/>
		</linearGradient>
		<path fill="url(#SVGID_6_)" d="M101.4,110.5c0,1.1-0.9,2.2-2.1,2.2h-6.6c-1.2,0-2.2-1.1-2.1-2.2l3.2-86.1c0-1.1,1.1-2.1,2.3-2.1
			l0,0c1.2,0,2.2,1,2.3,2.1L101.4,110.5z"/>
		<g display="none">
			
				<linearGradient id="SVGID_7_" gradientUnits="userSpaceOnUse" x1="-124.1697" y1="-688.4186" x2="-153.5608" y2="-725.3522" gradientTransform="matrix(1 0 0 -1 236.6406 -612.3984)">
				<stop  offset="0" style="stop-color:#FFFFFF"/>
				<stop  offset="0.1414" style="stop-color:#FAFBFB"/>
				<stop  offset="0.3029" style="stop-color:#ECEDEE"/>
				<stop  offset="0.4743" style="stop-color:#D6D8D9"/>
				<stop  offset="0.6526" style="stop-color:#B6B9BC"/>
				<stop  offset="0.8343" style="stop-color:#8D9396"/>
				<stop  offset="1" style="stop-color:#61696E"/>
			</linearGradient>
			<ellipse display="inline" fill="url(#SVGID_7_)" cx="96" cy="96.7" rx="9.9" ry="9"/>
			
				<linearGradient id="SVGID_8_" gradientUnits="userSpaceOnUse" x1="-135.6034" y1="-703.5363" x2="-146.9445" y2="-716.0986" gradientTransform="matrix(1 0 0 -1 236.6406 -612.3984)">
				<stop  offset="0" style="stop-color:#FFFFFF"/>
				<stop  offset="0.1414" style="stop-color:#FAFBFB"/>
				<stop  offset="0.3029" style="stop-color:#ECEDEE"/>
				<stop  offset="0.4743" style="stop-color:#D6D8D9"/>
				<stop  offset="0.6526" style="stop-color:#B6B9BC"/>
				<stop  offset="0.8343" style="stop-color:#8D9396"/>
				<stop  offset="1" style="stop-color:#61696E"/>
			</linearGradient>
			<ellipse display="inline" fill="url(#SVGID_8_)" cx="96" cy="96.7" rx="7.9" ry="7.2"/>
		</g>
		<rect id="cdpRectCenter_4_" x="94.3" y="95.2" fill="none" width="3.3" height="3"/>
		<rect id="cdpRectOutline_4_" x="86" y="22.3" fill="none" width="19.8" height="90.4"/>
	</g>
	<g id="cdpNeedleType1T_1_" display="none">
		
			<linearGradient id="SVGID_9_" gradientUnits="userSpaceOnUse" x1="-118.3906" y1="-679.8924" x2="-130.3876" y2="-679.8924" gradientTransform="matrix(1 0 0 -1 236.6406 -612.3984)">
			<stop  offset="0" style="stop-color:#FFFFFF"/>
			<stop  offset="0.1414" style="stop-color:#FAFBFB"/>
			<stop  offset="0.3029" style="stop-color:#ECEDEE"/>
			<stop  offset="0.4743" style="stop-color:#D6D8D9"/>
			<stop  offset="0.6526" style="stop-color:#B6B9BC"/>
			<stop  offset="0.8343" style="stop-color:#8D9396"/>
			<stop  offset="1" style="stop-color:#61696E"/>
		</linearGradient>
		<path display="inline" fill="url(#SVGID_9_)" d="M116.9,110.5c0,1.1-0.8,2.2-1.9,2.2h-6c-1.1,0-2-1.1-1.9-2.2l2.9-86.1
			c0-1.1,1-2.1,2.1-2.1l0,0c1.1,0,2,1,2.1,2.1L116.9,110.5z"/>
		<g display="inline">
			
				<linearGradient id="SVGID_10_" gradientUnits="userSpaceOnUse" x1="-108.814" y1="-689.2232" x2="-137.0651" y2="-724.7243" gradientTransform="matrix(1 0 0 -1 236.6406 -612.3984)">
				<stop  offset="0" style="stop-color:#FFFFFF"/>
				<stop  offset="0.1414" style="stop-color:#FAFBFB"/>
				<stop  offset="0.3029" style="stop-color:#ECEDEE"/>
				<stop  offset="0.4743" style="stop-color:#D6D8D9"/>
				<stop  offset="0.6526" style="stop-color:#B6B9BC"/>
				<stop  offset="0.8343" style="stop-color:#8D9396"/>
				<stop  offset="1" style="stop-color:#61696E"/>
			</linearGradient>
			<circle fill="url(#SVGID_10_)" cx="112" cy="96.7" r="9"/>
			
				<linearGradient id="SVGID_11_" gradientUnits="userSpaceOnUse" x1="-119.8323" y1="-703.7853" x2="-130.6672" y2="-715.787" gradientTransform="matrix(1 0 0 -1 236.6406 -612.3984)">
				<stop  offset="0" style="stop-color:#FFFFFF"/>
				<stop  offset="0.1414" style="stop-color:#FAFBFB"/>
				<stop  offset="0.3029" style="stop-color:#ECEDEE"/>
				<stop  offset="0.4743" style="stop-color:#D6D8D9"/>
				<stop  offset="0.6526" style="stop-color:#B6B9BC"/>
				<stop  offset="0.8343" style="stop-color:#8D9396"/>
				<stop  offset="1" style="stop-color:#61696E"/>
			</linearGradient>
			<circle fill="url(#SVGID_11_)" cx="112" cy="96.7" r="7.2"/>
		</g>
		<rect id="cdpRectCenter_2_" x="110.4" y="95.2" display="inline" fill="none" width="3" height="3"/>
		<rect id="cdpRectOutline_2_" x="102.9" y="22.3" display="inline" fill="none" width="18" height="90.4"/>
	</g>
	<rect id="cdpNeedleMax" x="159.3" y="132.4" fill="none" width="4.1" height="4.1"/>
	<rect id="cdpNeedleMin" x="29.1" y="132.9" fill="none" width="3" height="3"/>
	<rect id="cdpNeedleCenterCW" x="94.5" y="95.2" fill="none" width="2.9" height="2.9"/>
	<g id="cdpTop">
		
			<linearGradient id="glass_4_" gradientUnits="userSpaceOnUse" x1="-668.8161" y1="-951.684" x2="-668.8162" y2="-989.5795" gradientTransform="matrix(2.2068 0 0 -2.2068 1572.1036 -2113.1018)">
			<stop  offset="0.4164" style="stop-color:#FFFFFF;stop-opacity:0.95"/>
			<stop  offset="1" style="stop-color:#FFFFFF;stop-opacity:0"/>
		</linearGradient>
		<path id="glass_1_" display="none" opacity="0.45" fill="url(#glass_4_)" enable-background="new    " d="M175,60.5
			C175,84.3,144.3,50,96.3,50c-48,0-79,38.5-79,10.4c0-1,20.9-51,78.8-51C152.9,9.5,175,59.5,175,60.5L175,60.5z"/>
		<g>
			
				<linearGradient id="SVGID_12_" gradientUnits="userSpaceOnUse" x1="-124.8131" y1="-689.222" x2="-153.0646" y2="-724.7237" gradientTransform="matrix(1 0 0 -1 236.6406 -612.3984)">
				<stop  offset="0" style="stop-color:#FFFFFF"/>
				<stop  offset="0.1414" style="stop-color:#FAFBFB"/>
				<stop  offset="0.3029" style="stop-color:#ECEDEE"/>
				<stop  offset="0.4743" style="stop-color:#D6D8D9"/>
				<stop  offset="0.6526" style="stop-color:#B6B9BC"/>
				<stop  offset="0.8343" style="stop-color:#8D9396"/>
				<stop  offset="1" style="stop-color:#61696E"/>
			</linearGradient>
			<circle fill="url(#SVGID_12_)" cx="96" cy="96.7" r="9"/>
			
				<linearGradient id="SVGID_13_" gradientUnits="userSpaceOnUse" x1="-135.8337" y1="-703.7869" x2="-146.6686" y2="-715.7884" gradientTransform="matrix(1 0 0 -1 236.6406 -612.3984)">
				<stop  offset="0" style="stop-color:#FFFFFF"/>
				<stop  offset="0.1414" style="stop-color:#FAFBFB"/>
				<stop  offset="0.3029" style="stop-color:#ECEDEE"/>
				<stop  offset="0.4743" style="stop-color:#D6D8D9"/>
				<stop  offset="0.6526" style="stop-color:#B6B9BC"/>
				<stop  offset="0.8343" style="stop-color:#8D9396"/>
				<stop  offset="1" style="stop-color:#61696E"/>
			</linearGradient>
			<circle fill="url(#SVGID_13_)" cx="96" cy="96.7" r="7.2"/>
		</g>
		<rect id="outline_1_" fill="none" width="192" height="192"/>
	</g>
</g>
<g id="Layer2">
	<g id="cdpNeedleType1T_2_">
		
			<linearGradient id="SVGID_14_" gradientUnits="userSpaceOnUse" x1="-134.3906" y1="-679.8924" x2="-146.3906" y2="-679.8924" gradientTransform="matrix(1 0 0 -1 236.6406 -612.3984)">
			<stop  offset="0" style="stop-color:#FFFFFF"/>
			<stop  offset="5.500000e-03" style="stop-color:#FFFFFD"/>
			<stop  offset="0.85" style="stop-color:#FF5500"/>
			<stop  offset="1" style="stop-color:#FF5500"/>
		</linearGradient>
		<path fill="url(#SVGID_14_)" d="M100.9,110.5c0,1.1-0.8,2.2-1.9,2.2h-6c-1.1,0-2-1.1-1.9-2.2l2.9-86.1c0-1.1,1-2.1,2.1-2.1l0,0
			c1.1,0,2,1,2.1,2.1L100.9,110.5z"/>
		<g display="none">
			
				<linearGradient id="SVGID_15_" gradientUnits="userSpaceOnUse" x1="-124.8131" y1="-689.222" x2="-153.0646" y2="-724.7237" gradientTransform="matrix(1 0 0 -1 236.6406 -612.3984)">
				<stop  offset="0" style="stop-color:#FFFFFF"/>
				<stop  offset="0.1414" style="stop-color:#FAFBFB"/>
				<stop  offset="0.3029" style="stop-color:#ECEDEE"/>
				<stop  offset="0.4743" style="stop-color:#D6D8D9"/>
				<stop  offset="0.6526" style="stop-color:#B6B9BC"/>
				<stop  offset="0.8343" style="stop-color:#8D9396"/>
				<stop  offset="1" style="stop-color:#61696E"/>
			</linearGradient>
			<circle display="inline" fill="url(#SVGID_15_)" cx="96" cy="96.7" r="9"/>
			
				<linearGradient id="SVGID_16_" gradientUnits="userSpaceOnUse" x1="-135.8337" y1="-703.7868" x2="-146.6683" y2="-715.7881" gradientTransform="matrix(1 0 0 -1 236.6406 -612.3984)">
				<stop  offset="0" style="stop-color:#FFFFFF"/>
				<stop  offset="0.1414" style="stop-color:#FAFBFB"/>
				<stop  offset="0.3029" style="stop-color:#ECEDEE"/>
				<stop  offset="0.4743" style="stop-color:#D6D8D9"/>
				<stop  offset="0.6526" style="stop-color:#B6B9BC"/>
				<stop  offset="0.8343" style="stop-color:#8D9396"/>
				<stop  offset="1" style="stop-color:#61696E"/>
			</linearGradient>
			<circle display="inline" fill="url(#SVGID_16_)" cx="96" cy="96.7" r="7.2"/>
		</g>
		<rect id="cdpRectCenter_5_" x="94.4" y="95.2" fill="none" width="3" height="3"/>
		<rect id="cdpRectOutline_5_" x="86.9" y="22.3" fill="none" width="18" height="90.4"/>
	</g>
	<rect id="cdpNeedleMax_1_" x="159.3" y="132.4" fill="none" width="4.1" height="4.1"/>
	<rect id="cdpNeedleMin_1_" x="29.1" y="132.9" fill="none" width="3" height="3"/>
	<rect id="cdpNeedleCenterCW_1_" x="94.5" y="95.2" fill="none" width="2.9" height="2.9"/>
	<g id="cdpNeedle1">
		
			<linearGradient id="SVGID_17_" gradientUnits="userSpaceOnUse" x1="-134.3906" y1="-679.8924" x2="-146.3912" y2="-679.8924" gradientTransform="matrix(1 0 0 -1 236.6406 -612.3984)">
			<stop  offset="0" style="stop-color:#FFFFFF"/>
			<stop  offset="5.500000e-03" style="stop-color:#FFFFFD"/>
			<stop  offset="0.675" style="stop-color:#FF5500"/>
			<stop  offset="1" style="stop-color:#FF5500"/>
		</linearGradient>
		<path fill="url(#SVGID_17_)" d="M100.9,110.5c0,1.1-0.8,2.2-1.9,2.2h-6c-1.1,0-2-1.1-1.9-2.2l2.9-86.1c0-1.1,1-2.1,2.1-2.1l0,0
			c1.1,0,2,1,2.1,2.1L100.9,110.5z"/>
		<g display="none">
			
				<linearGradient id="SVGID_18_" gradientUnits="userSpaceOnUse" x1="-124.8131" y1="-689.222" x2="-153.0646" y2="-724.7237" gradientTransform="matrix(1 0 0 -1 236.6406 -612.3984)">
				<stop  offset="0" style="stop-color:#FFFFFF"/>
				<stop  offset="0.1414" style="stop-color:#FAFBFB"/>
				<stop  offset="0.3029" style="stop-color:#ECEDEE"/>
				<stop  offset="0.4743" style="stop-color:#D6D8D9"/>
				<stop  offset="0.6526" style="stop-color:#B6B9BC"/>
				<stop  offset="0.8343" style="stop-color:#8D9396"/>
				<stop  offset="1" style="stop-color:#61696E"/>
			</linearGradient>
			<circle display="inline" fill="url(#SVGID_18_)" cx="96" cy="96.7" r="9"/>
			
				<linearGradient id="SVGID_19_" gradientUnits="userSpaceOnUse" x1="-135.8337" y1="-703.7869" x2="-146.6686" y2="-715.7884" gradientTransform="matrix(1 0 0 -1 236.6406 -612.3984)">
				<stop  offset="0" style="stop-color:#FFFFFF"/>
				<stop  offset="0.1414" style="stop-color:#FAFBFB"/>
				<stop  offset="0.3029" style="stop-color:#ECEDEE"/>
				<stop  offset="0.4743" style="stop-color:#D6D8D9"/>
				<stop  offset="0.6526" style="stop-color:#B6B9BC"/>
				<stop  offset="0.8343" style="stop-color:#8D9396"/>
				<stop  offset="1" style="stop-color:#61696E"/>
			</linearGradient>
			<circle display="inline" fill="url(#SVGID_19_)" cx="96" cy="96.7" r="7.2"/>
		</g>
		<rect id="cdpRectCenter_1_" x="94.4" y="95.2" fill="none" width="3" height="3"/>
		<rect id="cdpRectOutline_1_" x="86.9" y="22.3" fill="none" width="18" height="90.4"/>
	</g>
</g>
</svg>
