<?xml version="1.0" encoding="UTF-8"?>
<svg width="1200pt" height="1200pt" version="1.1" viewBox="0 0 1200 1200" xmlns="http://www.w3.org/2000/svg">
 <g>
  <path d="m982.2 943.43c2.625 7.8555 9.9375 12.844 17.793 12.844 1.9492 0 3.957-0.32031 5.9258-0.97656 9.8047-3.2617 15.133-13.895 11.867-23.719l-3.7891-11.398 44.867-89.719c6.457-12.938 9.8867-27.449 9.8867-41.906v-82.633c0-10.086-1.6133-20.062-4.8203-29.645l-22.012-66.055c-3.6953-11.102 1.3867-23.398 11.852-28.633 6.0938-3.0547 12.898-3.3203 19.199-0.86328 6.3203 2.4766 11.117 7.3516 13.5 13.707l31.367 83.605c4.7461 12.715 7.1641 26.008 7.1641 39.527v77.832c0 6.1484-0.50781 12.375-1.5391 18.488l-35.699 214.29c-0.16797 1.0117-0.26172 2.043-0.26172 3.0742v112.5c0 10.352 8.3828 18.75 18.75 18.75s18.75-8.3984 18.75-18.75v-110.95l35.457-212.76c1.3477-8.1523 2.043-16.441 2.043-24.652v-77.832c0-18.02-3.207-35.738-9.543-52.668l-31.371-83.645c-6.0742-16.199-18.805-29.117-34.914-35.438-16.086-6.3008-34.199-5.4922-49.668 2.2305-27.02 13.52-40.219 45.336-30.656 74.023l22.012 66.055c1.9141 5.7617 2.8906 11.742 2.8906 17.797v82.633c0 8.6797-2.043 17.383-5.9258 25.164l-28.086 56.176-2.8672-8.5859 6.168-30.844c8.4766-42.375-17.699-83.773-59.664-94.258-19.707-4.9141-39.523 6.5234-45.133 26.082l-28.895 101.18c-2.8867 10.047-4.3477 20.453-4.3477 30.914v114.75c0 17.383 4.125 34.781 11.887 50.305l10.82 21.656c9.6914 19.371 14.793 41.047 14.793 62.664 0 10.352 8.3828 18.75 18.75 18.75s18.75-8.3984 18.75-18.75c0-27.414-6.4883-54.883-18.75-79.426l-10.82-21.676c-5.1914-10.348-7.9297-21.938-7.9297-33.523v-114.75c0-6.9922 0.97656-13.914 2.8867-20.605l28.914-101.2c22.445 5.625 36.488 27.805 31.949 50.512l-7.1445 35.719c-0.63672 3.1875-0.42969 6.5078 0.60156 9.6016z"/>
  <path d="m242.77 868.43c1.0508-3.0938 1.2383-6.4141 0.60156-9.6016l-7.125-35.738c-4.5391-22.707 9.5078-44.887 31.949-50.492l28.93 101.2c1.8945 6.6719 2.8711 13.609 2.8711 20.586v114.75c0 11.586-2.7383 23.176-7.9297 33.543l-10.82 21.656c-12.262 24.543-18.75 52.012-18.75 79.426 0 10.352 8.3828 18.75 18.75 18.75s18.75-8.3984 18.75-18.75c0-21.617 5.1016-43.293 14.793-62.664l10.82-21.637c7.7617-15.543 11.887-32.941 11.887-50.324v-114.75c0-10.48-1.4609-20.867-4.3125-30.898l-28.93-101.2c-5.5703-19.52-25.387-30.977-45.133-26.082-41.926 10.48-68.117 51.883-59.645 94.238l6.168 30.844-2.8672 8.5859-28.086-56.176c-3.9023-7.7617-5.9453-16.461-5.9453-25.141v-82.633c0-6.0547 0.97656-12.039 2.8672-17.773l22.051-66.074c9.543-28.688-3.6367-60.508-30.676-74.023-15.449-7.7266-33.562-8.5508-49.668-2.2305-16.105 6.3164-28.836 19.234-34.91 35.434-3.6172 9.6953 1.2734 20.512 10.969 24.148 9.6953 3.6367 20.492-1.2578 24.148-10.949 2.3828-6.3555 7.1797-11.23 13.5-13.707 6.3203-2.457 13.125-2.1953 19.199 0.86328 10.461 5.2305 15.543 17.531 11.867 28.613l-22.051 66.074c-3.1836 9.5625-4.7969 19.539-4.7969 29.625v82.633c0 14.457 3.4297 28.969 9.8828 41.926l44.867 89.719-3.7891 11.398c-3.2617 9.8242 2.043 20.438 11.867 23.719 1.9727 0.63672 3.9609 0.9375 5.9297 0.9375 7.8555 0 15.188-4.9883 17.793-12.844z"/>
  <path d="m76.539 813.88c-1.0312-6.1133-1.5391-12.34-1.5391-18.488v-77.832c0-13.52 2.418-26.812 7.1641-39.508l5.457-14.551c3.6172-9.6953-1.2734-20.492-10.969-24.148-9.6953-3.6016-20.531 1.2578-24.148 10.969l-5.457 14.57c-6.3398 16.93-9.5469 34.648-9.5469 52.668v77.832c0 8.2109 0.69531 16.5 2.043 24.656l35.457 212.75v110.95c0 10.352 8.3828 18.75 18.75 18.75s18.75-8.3984 18.75-18.75v-112.5c0-1.0312-0.09375-2.0625-0.26172-3.0938z"/>
  <path d="m423.9 659.77c-6.375 8.1562-4.9297 19.949 3.2422 26.324 49.969 39.055 109.76 59.68 172.86 59.68 155.08 0 281.25-126.17 281.25-281.25 0-155.08-126.17-281.25-281.25-281.25-155.08 0-281.25 126.17-281.25 281.25 0 58.914 18.242 115.48 52.742 163.59 6.0391 8.3984 17.719 10.352 26.176 4.293 8.3984-6.0391 10.352-17.758 4.293-26.176-17.344-24.188-29.793-50.867-37.312-78.918l63.883 6.3945c25.219 2.5117 45.73 21.73 49.895 46.727l17.363 104.16c-15.957-7.6328-31.273-16.895-45.582-28.07-8.1719-6.3906-19.93-4.9102-26.305 3.2461zm280.31 24.77 17.363-104.1c4.1641-24.992 24.676-44.195 49.895-46.727l63.789-6.375c-18.621 69.566-67.164 126.81-131.05 157.2zm-188.79-110.27c-6.9375-41.645-41.117-73.668-83.156-77.867l-74.664-7.4609c-0.78516-8.082-1.3477-16.203-1.3477-24.414 0-39.133 9.4883-76.012 25.949-108.82l138.77-25.969c52.727-9.8633 106.22-9.8828 158.96 0.039063l39.414 7.4062c10.18 1.9492 19.969-4.7812 21.883-14.961 1.9297-10.18-4.7812-19.969-14.961-21.883l-39.414-7.4062c-57.355-10.781-115.48-10.781-172.76-0.039063l-104.21 19.5c44.719-55.762 113.27-91.613 190.12-91.613 134.4 0 243.75 109.35 243.75 243.75 0 8.2305-0.42969 16.367-1.2383 24.414l-74.793 7.4805c-42.02 4.1992-76.199 36.227-83.156 77.867l-20.887 125.27c-20.344 5.5117-41.625 8.7383-63.695 8.7383-21.805 0-43.125-2.9805-63.656-8.5508z"/>
  <path d="m679.55 441.23c3.6562 3.6562 8.457 5.4922 13.258 5.4922s9.6016-1.8359 13.258-5.4922c7.332-7.332 7.332-19.199 0-26.512-58.48-58.48-153.66-58.48-212.14 0-7.332 7.3125-7.332 19.18 0 26.512 7.332 7.332 19.18 7.332 26.512 0 43.875-43.859 115.23-43.859 159.11 0z"/>
  <path d="m626.51 494.27c3.6562 3.6562 8.457 5.4922 13.258 5.4922s9.6016-1.8359 13.258-5.4766c7.332-7.332 7.332-19.18 0-26.531-28.312-28.352-77.738-28.352-106.05 0-7.332 7.332-7.332 19.199 0 26.531 7.332 7.3125 19.18 7.3125 26.512 0 14.176-14.191 38.848-14.191 53.023-0.015625z"/>
  <path d="m618.75 539.53c0 10.355-8.3945 18.75-18.75 18.75s-18.75-8.3945-18.75-18.75 8.3945-18.75 18.75-18.75 18.75 8.3945 18.75 18.75"/>
  <path d="m195.02 316.03c-3.5625 9.7305 1.4258 20.492 11.137 24.055 2.1367 0.78906 4.3125 1.1641 6.4688 1.1641 7.6328 0 14.812-4.707 17.586-12.301 28.949-78.938 83.906-147.9 154.73-194.18 8.6797-5.6641 11.117-17.27 5.4375-25.949-5.6641-8.6797-17.27-11.117-25.949-5.4375-77.531 50.645-137.7 126.19-169.41 212.64z"/>
  <path d="m135.71 314.27c2.1367 0.78906 4.3125 1.1641 6.4688 1.1641 7.6328 0 14.812-4.707 17.586-12.301 34.48-93.977 99.898-176.08 184.2-231.17 8.6797-5.6641 11.117-17.27 5.4375-25.949-5.6445-8.6797-17.27-11.102-25.949-5.4375-91.012 59.477-161.66 148.12-198.88 249.64-3.5586 9.7109 1.4297 20.473 11.141 24.055z"/>
  <path d="m815.06 134.76c70.82 46.293 125.77 115.24 154.73 194.18 2.7734 7.5938 9.957 12.301 17.586 12.301 2.1367 0 4.3125-0.375 6.4688-1.1641 9.7109-3.5625 14.699-14.344 11.137-24.055-31.688-86.457-91.855-162-169.41-212.66-8.6641-5.6641-20.289-3.2266-25.949 5.4375-5.6797 8.6992-3.2422 20.305 5.4375 25.969z"/>
  <path d="m856.01 71.945c84.301 55.105 149.72 137.2 184.2 231.17 2.7734 7.5938 9.957 12.301 17.586 12.301 2.1367 0 4.3125-0.375 6.4688-1.1641 9.7305-3.5625 14.699-14.344 11.137-24.055-37.215-101.5-107.85-190.14-198.88-249.64-8.6641-5.6445-20.289-3.2266-25.949 5.4375-5.6602 8.6641-3.2422 20.289 5.4375 25.953z"/>
  <path d="m880.54 683.64c49.535-63.355 75.711-139.12 75.711-219.11 0-196.45-159.8-356.25-356.25-356.25s-356.25 159.8-356.25 356.25 159.8 356.25 356.25 356.25c81.898 0 161.95-28.555 225.34-80.398 8.0234-6.5625 9.207-18.355 2.6641-26.383-6.582-8.043-18.375-9.2266-26.383-2.6445-56.719 46.387-128.32 71.926-201.6 71.926-175.76 0-318.75-142.99-318.75-318.75s142.99-318.75 318.75-318.75 318.75 142.99 318.75 318.75c0 71.531-23.438 139.31-67.762 196.01-6.375 8.1562-4.9297 19.949 3.2266 26.324 8.1211 6.375 19.934 4.9141 26.309-3.2227z"/>
 </g>
</svg>
