<?xml version="1.0" encoding="utf-8"?>
<!-- Generator: Adobe Illustrator 16.0.0, SVG Export Plug-In . SVG Version: 6.00 Build 0)  -->
<!DOCTYPE svg PUBLIC "-//W3C//DTD SVG 1.1//EN" "http://www.w3.org/Graphics/SVG/1.1/DTD/svg11.dtd">
<svg version="1.1" id="svg" xmlns="http://www.w3.org/2000/svg" xmlns:xlink="http://www.w3.org/1999/xlink" x="0px" y="0px"
	 width="71px" height="71px" viewBox="0 0 71 71" enable-background="new 0 0 71 71" xml:space="preserve">
<g id="Layer1">
	<linearGradient id="SVGID_1_" gradientUnits="userSpaceOnUse" x1="137.5" y1="85.1064" x2="137.5" y2="-14.1064">
		<stop  offset="0.2117" style="stop-color:#242729"/>
		<stop  offset="0.7932" style="stop-color:#3A3D3E"/>
	</linearGradient>
	<path fill="url(#SVGID_1_)" stroke="#B3B3B3" stroke-width="2" stroke-miterlimit="10" d="M287.5,76.188
		c0,4.926-6.583,8.918-14.702,8.918H2.202c-8.122,0-14.702-3.992-14.702-8.918V-5.19c0-4.925,6.58-8.917,14.702-8.917h270.596
		c8.119,0,14.702,3.992,14.702,8.917V76.188z"/>
	<g id="cdpPicture0">
		<rect x="0.021" fill="none" width="70.979" height="70.895"/>
		<linearGradient id="SVGID_2_" gradientUnits="userSpaceOnUse" x1="10.4097" y1="10.4741" x2="60.5687" y2="60.6331">
			<stop  offset="0" style="stop-color:#E6E6E6"/>
			<stop  offset="1" style="stop-color:#616161"/>
		</linearGradient>
		<path fill="url(#SVGID_2_)" d="M70.979,35.554C70.979,55.127,55.09,71,35.487,71C15.889,71,0,55.127,0,35.554
			C0,15.979,15.889,0.106,35.487,0.106C55.09,0.106,70.979,15.979,70.979,35.554z"/>
		<g>
			<linearGradient id="SVGID_3_" gradientUnits="userSpaceOnUse" x1="12.5303" y1="12.4678" x2="58.4908" y2="58.4283">
				<stop  offset="0" style="stop-color:#C72626"/>
				<stop  offset="1" style="stop-color:#800F0F"/>
			</linearGradient>
			<circle fill="url(#SVGID_3_)" cx="35.511" cy="35.448" r="32.5"/>
			
				<radialGradient id="SVGID_4_" cx="-498.8838" cy="154.5332" r="30.1677" gradientTransform="matrix(1.0939 0 0 1.0939 581.2397 -133.5972)" gradientUnits="userSpaceOnUse">
				<stop  offset="0" style="stop-color:#FF2E41"/>
				<stop  offset="0.2676" style="stop-color:#FF2142;stop-opacity:0.7324"/>
				<stop  offset="1" style="stop-color:#FF0045;stop-opacity:0"/>
			</radialGradient>
			<circle opacity="0.9" fill="url(#SVGID_4_)" cx="35.511" cy="35.446" r="33"/>
		</g>
		<path id="Exl_mark_1_" opacity="0.8" fill="#FFFFFF" d="M31.65,40.409l-1.128-16.907c-0.213-3.291-0.316-5.653-0.316-7.092
			c0-1.951,0.513-3.477,1.534-4.569c1.025-1.092,2.371-1.641,4.042-1.641c2.021,0,3.375,0.7,4.058,2.097
			c0.683,1.403,1.023,3.421,1.023,6.058c0,1.548-0.082,3.126-0.246,4.725l-1.518,17.398c-0.164,2.071-0.519,3.662-1.059,4.767
			c-0.542,1.106-1.437,1.659-2.683,1.659c-1.27,0-2.151-0.534-2.645-1.604C32.217,44.229,31.863,42.599,31.65,40.409z
			 M35.567,63.633c-1.432,0-2.686-0.466-3.759-1.392c-1.069-0.931-1.603-2.23-1.603-3.9c0-1.46,0.513-2.699,1.534-3.726
			c1.025-1.021,2.278-1.535,3.758-1.535c1.485,0,2.747,0.515,3.795,1.535c1.046,1.026,1.569,2.266,1.569,3.726
			c0,1.647-0.529,2.94-1.589,3.882C38.217,63.165,36.982,63.633,35.567,63.633z"/>
		
			<linearGradient id="glass_4_" gradientUnits="userSpaceOnUse" x1="515.1738" y1="-987.9395" x2="515.1738" y2="-1052.877" gradientTransform="matrix(0.4896 -0.0055 -0.0054 -0.4862 -222.3824 -482.9731)">
			<stop  offset="0" style="stop-color:#FFFFFF"/>
			<stop  offset="0.9403" style="stop-color:#FFFFFF;stop-opacity:0.4358"/>
			<stop  offset="1" style="stop-color:#FFFFFF;stop-opacity:0.4"/>
		</linearGradient>
		<path id="glass_10_" sodipodi:nodetypes="cssss" opacity="0.2" fill="url(#glass_4_)" d="M65.08,21.881
			c0.103,9.057-11.581-3.837-29.594-3.639C17.477,18.441,6.02,33.209,5.898,22.534C5.895,22.162,13.507,3.238,35.239,2.999
			C56.576,2.763,65.076,21.524,65.08,21.881z"/>
	</g>
	<g id="cdpPicture1">
		<rect x="0.021" fill="none" width="70.979" height="70.895"/>
		<linearGradient id="SVGID_5_" gradientUnits="userSpaceOnUse" x1="10.4097" y1="10.4741" x2="60.5687" y2="60.6331">
			<stop  offset="0" style="stop-color:#E6E6E6"/>
			<stop  offset="1" style="stop-color:#616161"/>
		</linearGradient>
		<path fill="url(#SVGID_5_)" d="M70.979,35.554C70.979,55.127,55.09,71,35.487,71C15.889,71,0,55.127,0,35.554
			C0,15.979,15.889,0.106,35.487,0.106C55.09,0.106,70.979,15.979,70.979,35.554z"/>
		<g>
			<linearGradient id="SVGID_6_" gradientUnits="userSpaceOnUse" x1="12.5303" y1="12.4678" x2="58.4908" y2="58.4283">
				<stop  offset="0" style="stop-color:#C72626"/>
				<stop  offset="1" style="stop-color:#800F0F"/>
			</linearGradient>
			<circle fill="url(#SVGID_6_)" cx="35.511" cy="35.448" r="32.5"/>
			
				<radialGradient id="SVGID_7_" cx="-498.8838" cy="154.5332" r="30.1677" gradientTransform="matrix(1.0939 0 0 1.0939 581.2397 -133.5972)" gradientUnits="userSpaceOnUse">
				<stop  offset="0" style="stop-color:#FF2E41"/>
				<stop  offset="0.2676" style="stop-color:#FF2142;stop-opacity:0.7324"/>
				<stop  offset="1" style="stop-color:#FF0045;stop-opacity:0"/>
			</radialGradient>
			<circle opacity="0.9" fill="url(#SVGID_7_)" cx="35.511" cy="35.446" r="33"/>
		</g>
		<path id="Exl_mark_2_" opacity="0.8" fill="#FFFFFF" d="M31.65,40.409l-1.128-16.907c-0.213-3.291-0.316-5.653-0.316-7.092
			c0-1.951,0.513-3.477,1.534-4.569c1.025-1.092,2.371-1.641,4.042-1.641c2.021,0,3.375,0.7,4.058,2.097
			c0.683,1.403,1.023,3.421,1.023,6.058c0,1.548-0.082,3.126-0.246,4.725l-1.518,17.398c-0.164,2.071-0.519,3.662-1.059,4.767
			c-0.542,1.106-1.437,1.659-2.683,1.659c-1.27,0-2.151-0.534-2.645-1.604C32.217,44.229,31.863,42.599,31.65,40.409z
			 M35.567,63.633c-1.432,0-2.686-0.466-3.759-1.392c-1.069-0.931-1.603-2.23-1.603-3.9c0-1.46,0.513-2.699,1.534-3.726
			c1.025-1.021,2.278-1.535,3.758-1.535c1.485,0,2.747,0.515,3.795,1.535c1.046,1.026,1.569,2.266,1.569,3.726
			c0,1.647-0.529,2.94-1.589,3.882C38.217,63.165,36.982,63.633,35.567,63.633z"/>
		
			<linearGradient id="glass_5_" gradientUnits="userSpaceOnUse" x1="515.1738" y1="-987.9395" x2="515.1738" y2="-1052.877" gradientTransform="matrix(0.4896 -0.0055 -0.0054 -0.4862 -222.3824 -482.9731)">
			<stop  offset="0" style="stop-color:#FFFFFF"/>
			<stop  offset="0.9403" style="stop-color:#FFFFFF;stop-opacity:0.4358"/>
			<stop  offset="1" style="stop-color:#FFFFFF;stop-opacity:0.4"/>
		</linearGradient>
		<path id="glass_3_" sodipodi:nodetypes="cssss" opacity="0.2" fill="url(#glass_5_)" d="M65.08,21.881
			c0.103,9.057-11.581-3.837-29.594-3.639C17.477,18.441,6.02,33.209,5.898,22.534C5.895,22.162,13.507,3.238,35.239,2.999
			C56.576,2.763,65.076,21.524,65.08,21.881z"/>
	</g>
	<g id="cdpPicture2">
		<rect x="0.021" fill="none" width="70.979" height="70.895"/>
		<linearGradient id="SVGID_8_" gradientUnits="userSpaceOnUse" x1="10.4097" y1="10.4741" x2="60.5687" y2="60.6331">
			<stop  offset="0" style="stop-color:#E6E6E6"/>
			<stop  offset="1" style="stop-color:#616161"/>
		</linearGradient>
		<path fill="url(#SVGID_8_)" d="M70.979,35.554C70.979,55.127,55.09,71,35.487,71C15.889,71,0,55.127,0,35.554
			C0,15.979,15.889,0.106,35.487,0.106C55.09,0.106,70.979,15.979,70.979,35.554z"/>
		<g>
			<linearGradient id="SVGID_9_" gradientUnits="userSpaceOnUse" x1="12.5303" y1="12.4678" x2="58.4908" y2="58.4283">
				<stop  offset="0" style="stop-color:#C72626"/>
				<stop  offset="1" style="stop-color:#800F0F"/>
			</linearGradient>
			<circle fill="url(#SVGID_9_)" cx="35.511" cy="35.448" r="32.5"/>
			
				<radialGradient id="SVGID_10_" cx="-498.8838" cy="154.5332" r="30.1677" gradientTransform="matrix(1.0939 0 0 1.0939 581.2397 -133.5972)" gradientUnits="userSpaceOnUse">
				<stop  offset="0" style="stop-color:#FF2E41"/>
				<stop  offset="0.2676" style="stop-color:#FF2142;stop-opacity:0.7324"/>
				<stop  offset="1" style="stop-color:#FF0045;stop-opacity:0"/>
			</radialGradient>
			<circle opacity="0.9" fill="url(#SVGID_10_)" cx="35.511" cy="35.446" r="33"/>
		</g>
		<path id="Temp_icon_1_" opacity="0.8" fill="#FFFFFF" d="M41.892,38.933v-2.157h4.255v-2.129h-4.255v-4.254h4.255v-2.129h-4.255
			v-4.25h4.255v-2.129h-4.255v-4.25h4.255v-2.129h-4.255v-2.127c0-3.524-2.856-6.381-6.378-6.381c-3.524,0-6.381,2.857-6.381,6.381
			v25.555c-4.122,2.265-6.914,6.64-6.914,11.671c0,7.34,5.952,13.292,13.295,13.292c7.34,0,13.29-5.952,13.29-13.292
			C48.803,45.572,46.012,41.197,41.892,38.933z M35.513,60.697c-5.57,0-10.101-4.528-10.101-10.094c0-4.11,2.455-7.776,6.253-9.344
			l0.66-0.274V13.378c0-1.759,1.431-3.187,3.188-3.187c1.758,0,3.185,1.428,3.185,3.187v27.607l0.66,0.274
			c3.801,1.567,6.251,5.233,6.251,9.344C45.609,56.169,41.081,60.697,35.513,60.697z"/>
		
			<linearGradient id="glass_6_" gradientUnits="userSpaceOnUse" x1="515.1738" y1="-987.9395" x2="515.1738" y2="-1052.877" gradientTransform="matrix(0.4896 -0.0055 -0.0054 -0.4862 -222.3824 -482.9731)">
			<stop  offset="0" style="stop-color:#FFFFFF"/>
			<stop  offset="0.9403" style="stop-color:#FFFFFF;stop-opacity:0.4358"/>
			<stop  offset="1" style="stop-color:#FFFFFF;stop-opacity:0.4"/>
		</linearGradient>
		<path id="glass_1_" sodipodi:nodetypes="cssss" opacity="0.2" fill="url(#glass_6_)" d="M65.08,21.881
			c0.103,9.057-11.581-3.837-29.594-3.639C17.477,18.441,6.02,33.209,5.898,22.534C5.895,22.162,13.507,3.238,35.239,2.999
			C56.576,2.763,65.076,21.524,65.08,21.881z"/>
	</g>
	<g id="cdpPicture3">
		<rect x="0.021" fill="none" width="70.979" height="70.895"/>
		<linearGradient id="SVGID_11_" gradientUnits="userSpaceOnUse" x1="10.4097" y1="10.4741" x2="60.5687" y2="60.6331">
			<stop  offset="0" style="stop-color:#E6E6E6"/>
			<stop  offset="1" style="stop-color:#616161"/>
		</linearGradient>
		<path fill="url(#SVGID_11_)" d="M70.979,35.554C70.979,55.127,55.09,71,35.487,71C15.889,71,0,55.127,0,35.554
			C0,15.979,15.889,0.106,35.487,0.106C55.09,0.106,70.979,15.979,70.979,35.554z"/>
		<g>
			<linearGradient id="SVGID_12_" gradientUnits="userSpaceOnUse" x1="12.5303" y1="12.4678" x2="58.4908" y2="58.4283">
				<stop  offset="0" style="stop-color:#C72626"/>
				<stop  offset="1" style="stop-color:#800F0F"/>
			</linearGradient>
			<circle fill="url(#SVGID_12_)" cx="35.511" cy="35.448" r="32.5"/>
			
				<radialGradient id="SVGID_13_" cx="-498.8838" cy="154.5332" r="30.1677" gradientTransform="matrix(1.0939 0 0 1.0939 581.2397 -133.5972)" gradientUnits="userSpaceOnUse">
				<stop  offset="0" style="stop-color:#FF2E41"/>
				<stop  offset="0.2676" style="stop-color:#FF2142;stop-opacity:0.7324"/>
				<stop  offset="1" style="stop-color:#FF0045;stop-opacity:0"/>
			</radialGradient>
			<circle opacity="0.9" fill="url(#SVGID_13_)" cx="35.511" cy="35.446" r="33"/>
		</g>
		<path id="Filter_icon_4_" opacity="0.8" fill="#FFFFFF" d="M40.54,37.456H30.481v-4.021H40.54V37.456z M28.473,33.436H18.41v4.021
			h10.063V33.436z M52.61,33.436H42.553v4.021H52.61V33.436z M63.962,35.446L35.51,63.896L7.061,35.446L35.51,6.999L63.962,35.446z
			 M56.258,37.456h-1.64v-4.021h1.64L35.51,12.69L14.763,33.436H16.4v4.021h-1.637L35.51,58.204L56.258,37.456z"/>
		
			<linearGradient id="glass_7_" gradientUnits="userSpaceOnUse" x1="515.1738" y1="-987.9395" x2="515.1738" y2="-1052.877" gradientTransform="matrix(0.4896 -0.0055 -0.0054 -0.4862 -222.3824 -482.9731)">
			<stop  offset="0" style="stop-color:#FFFFFF"/>
			<stop  offset="0.9403" style="stop-color:#FFFFFF;stop-opacity:0.4358"/>
			<stop  offset="1" style="stop-color:#FFFFFF;stop-opacity:0.4"/>
		</linearGradient>
		<path id="glass_2_" sodipodi:nodetypes="cssss" opacity="0.2" fill="url(#glass_7_)" d="M65.08,21.881
			c0.103,9.057-11.581-3.837-29.594-3.639C17.477,18.441,6.02,33.209,5.898,22.534C5.895,22.162,13.507,3.238,35.239,2.999
			C56.576,2.763,65.076,21.524,65.08,21.881z"/>
	</g>
</g>
<g id="Help">
	<text transform="matrix(1 0 0 1 96.5 -20.833)" font-family="'MyriadPro-Regular'" font-size="12">Picture 1</text>
	<text transform="matrix(1 0 0 1 11.5005 -20.833)" font-family="'MyriadPro-Regular'" font-size="12">Picture 0</text>
	<text transform="matrix(1 0 0 1 -58.1665 40.5)" font-family="'MyriadPro-Regular'" font-size="12">Style 0</text>
</g>
</svg>
