<?xml version="1.0" encoding="utf-8"?>
<!-- Generator: Adobe Illustrator 21.0.2, SVG Export Plug-In . SVG Version: 6.00 Build 0)  -->
<svg version="1.1" id="Layer_1" xmlns="http://www.w3.org/2000/svg" xmlns:xlink="http://www.w3.org/1999/xlink" x="0px" y="0px"
	 viewBox="0 0 841.9 595.3" enable-background="new 0 0 841.9 595.3" xml:space="preserve">
<g id="Help">
	<text transform="matrix(1 0 0 1 244.2354 73.239)" font-family="'ArialMT'" font-size="12px">Style 0</text>
	<text transform="matrix(1 0 0 1 315.1016 73.239)" font-family="'ArialMT'" font-size="12px">Style 1</text>
	<text transform="matrix(1 0 0 1 527.6997 73.239)" font-family="'ArialMT'" font-size="12px">Style 0</text>
	<text transform="matrix(1 0 0 1 598.5659 73.239)" font-family="'ArialMT'" font-size="12px">Style 1</text>
	<text transform="matrix(1 0 0 1 173.2866 115.3923)" font-family="'ArialMT'" font-size="12px">Picture 0</text>
	<text transform="matrix(1 0 0 1 173.2866 172.0847)" font-family="'ArialMT'" font-size="12px">Picture 1</text>
	<text transform="matrix(1 0 0 1 456.7515 172.0847)" font-family="'ArialMT'" font-size="12px">Picture 9</text>
	<text transform="matrix(1 0 0 1 456.7515 115.3923)" font-family="'ArialMT'" font-size="12px">Picture 8</text>
	<text transform="matrix(1 0 0 1 173.2866 228.7781)" font-family="'ArialMT'" font-size="12px">Picture 2</text>
	<text transform="matrix(1 0 0 1 456.7515 228.7781)" font-family="'ArialMT'" font-size="12px">Picture 10</text>
	<text transform="matrix(1 0 0 1 173.2866 285.4714)" font-family="'ArialMT'" font-size="12px">Picture 3</text>
	<text transform="matrix(1 0 0 1 456.7515 285.4714)" font-family="'ArialMT'" font-size="12px">Picture 11</text>
	<text transform="matrix(1 0 0 1 173.2866 342.1628)" font-family="'ArialMT'" font-size="12px">Picture 4</text>
	<text transform="matrix(1 0 0 1 456.7515 342.1628)" font-family="'ArialMT'" font-size="12px">Picture 12</text>
	<text transform="matrix(1 0 0 1 173.2866 398.8562)" font-family="'ArialMT'" font-size="12px">Picture 5</text>
	<text transform="matrix(1 0 0 1 456.7515 398.8562)" font-family="'ArialMT'" font-size="12px">Picture 13</text>
	<text transform="matrix(1 0 0 1 173.2866 455.5496)" font-family="'ArialMT'" font-size="12px">Picture 6</text>
	<text transform="matrix(1 0 0 1 173.2866 512.2419)" font-family="'ArialMT'" font-size="12px">Picture 7</text>
	<text transform="matrix(1 0 0 1 456.7515 455.5496)" font-family="'ArialMT'" font-size="12px">Picture 14</text>
	<text transform="matrix(1 0 0 1 456.7515 512.2419)" font-family="'ArialMT'" font-size="12px">Picture 15</text>
</g>
<g id="Styles">
	<g id="cdpPicture15Style1">
		<rect x="598.9" y="491.4" fill="none" width="36" height="36"/>
		<g>
			<path fill="#DB1C24" d="M616.9,525.1c-8.6,0-15.7-7-15.7-15.7s7-15.7,15.7-15.7s15.7,7,15.7,15.7
				C632.6,518,625.5,525.1,616.9,525.1z M616.9,495.9c-7.5,0-13.5,6.1-13.5,13.5c0,7.5,6.1,13.5,13.5,13.5c7.5,0,13.5-6.1,13.5-13.5
				C630.4,501.9,624.4,495.9,616.9,495.9z"/>
			<polygon fill="#DB1C24" points="621.9,510.4 624.9,501.4 615.9,504.4 617.9,506.4 608.9,515.4 610.9,517.4 619.9,508.4 			"/>
		</g>
	</g>
	<g id="cdpPicture14Style1">
		<rect x="598.9" y="434.7" fill="none" width="36" height="36"/>
		<g>
			<path fill="#F6B31E" d="M616.9,468.4c-8.6,0-15.7-7-15.7-15.7s7-15.7,15.7-15.7s15.7,7,15.7,15.7S625.5,468.4,616.9,468.4z
				 M616.9,439.2c-7.5,0-13.5,6.1-13.5,13.5c0,7.5,6.1,13.5,13.5,13.5c7.5,0,13.5-6.1,13.5-13.5
				C630.4,445.3,624.4,439.2,616.9,439.2z"/>
			<polygon fill="#F6B31E" points="621.9,453.7 624.9,444.7 615.9,447.7 617.9,449.7 608.9,458.7 610.9,460.7 619.9,451.7 			"/>
		</g>
	</g>
	<g id="cdpPicture13Style1">
		<rect id="rect113_8_" x="598.9" y="381" fill="none" width="36" height="30"/>
		<g id="g115_8_">
			<path id="path117_8_" fill="#DB1C24" d="M598.9,410.5h36l-18-29L598.9,410.5z M602.5,408.5l14.4-23.2l14.4,23.2H602.5z"/>
			<path fill="#DB1C24" d="M621.2,401c0,2.4-1.9,4.3-4.3,4.3c-2.3,0-4.3-1.9-4.3-4.3c0-3,4.3-5.5,4.3-8.5
				C616.9,395.5,621.2,398,621.2,401z"/>
		</g>
	</g>
	<g id="cdpPicture12Style1">
		<rect id="rect113_18_" x="598.9" y="324.3" fill="none" width="36" height="30"/>
		<g id="g115_10_">
			<path id="path117_18_" fill="#F6B31E" d="M598.9,353.8h36l-18-29L598.9,353.8z M602.5,351.8l14.4-23.2l14.4,23.2H602.5z"/>
			<path fill="#F6B31E" d="M621.2,344.3c0,2.4-1.9,4.3-4.3,4.3c-2.3,0-4.3-1.9-4.3-4.3c0-3,4.3-5.5,4.3-8.5
				C616.9,338.8,621.2,341.3,621.2,344.3z"/>
		</g>
	</g>
	<g id="cdpPicture11Style1">
		<rect id="rect113_7_" x="598.9" y="267.6" fill="none" width="36" height="30"/>
		<g>
			<path id="path117_7_" fill="#DB1C24" d="M598.9,297.1h36l-18-29L598.9,297.1z M602.5,295.1l14.4-23.2l14.4,23.2H602.5z"/>
			<circle id="circle119_5_" fill="#DB1C24" cx="616.9" cy="285.3" r="1.6"/>
			<path id="path121_5_" fill="#DB1C24" d="M616.9,276.7c-0.9,0-1.6,0.7-1.6,1.6c0,0.9,0.7,3.9,1.6,3.9s1.6-3,1.6-3.9
				C618.5,277.4,617.8,276.7,616.9,276.7z"/>
			<path fill="#DB1C24" d="M613.2,290.4c0.6,1.4-0.1,3-1.5,3.5c-1.4,0.5-3-0.1-3.5-1.5c-0.7-1.8,1.2-4.3,0.5-6.1
				C609.4,288.1,612.5,288.6,613.2,290.4z"/>
			<path fill="#DB1C24" d="M619.5,290.4c0.6,1.4-0.1,3-1.5,3.5s-3-0.1-3.5-1.5c-0.7-1.8,1.2-4.3,0.5-6.1
				C615.7,288.1,618.8,288.6,619.5,290.4z"/>
			<path fill="#DB1C24" d="M625.9,290.4c0.6,1.4-0.1,3-1.5,3.5s-3-0.1-3.5-1.5c-0.7-1.8,1.2-4.3,0.5-6.1
				C622,288.1,625.2,288.6,625.9,290.4z"/>
		</g>
	</g>
	<g id="cdpPicture10Style1">
		<rect id="rect113_14_" x="598.9" y="210.9" fill="none" width="36" height="30"/>
		<g>
			<path id="path117_14_" fill="#F6B31E" d="M598.9,240.4h36l-18-29L598.9,240.4z M602.5,238.4l14.4-23.2l14.4,23.2H602.5z"/>
			<circle id="circle119_10_" fill="#F6B31E" cx="616.9" cy="228.6" r="1.6"/>
			<path id="path121_10_" fill="#F6B31E" d="M616.9,220c-0.9,0-1.6,0.7-1.6,1.6c0,0.9,0.7,3.9,1.6,3.9s1.6-3,1.6-3.9
				C618.5,220.7,617.8,220,616.9,220z"/>
			<path fill="#F6B31E" d="M613.2,233.7c0.6,1.4-0.1,3-1.5,3.5c-1.4,0.6-3-0.1-3.5-1.5c-0.7-1.8,1.2-4.3,0.5-6.1
				C609.4,231.4,612.5,231.9,613.2,233.7z"/>
			<path fill="#F6B31E" d="M619.5,233.7c0.6,1.4-0.1,3-1.5,3.5c-1.4,0.6-3-0.1-3.5-1.5c-0.7-1.8,1.2-4.3,0.5-6.1
				C615.7,231.4,618.8,231.9,619.5,233.7z"/>
			<path fill="#F6B31E" d="M625.9,233.7c0.6,1.4-0.1,3-1.5,3.5c-1.4,0.6-3-0.1-3.5-1.5c-0.7-1.8,1.2-4.3,0.5-6.1
				C622,231.4,625.2,231.9,625.9,233.7z"/>
		</g>
	</g>
	<g id="cdpPicture9Style1">
		<rect id="rect62" x="598.9" y="151.3" fill="none" width="36" height="36"/>
		<g id="g64">
			<path id="path66" fill="#DB1C24" d="M616.9,153.3l-16,16l16,16l16-16L616.9,153.3z M604.7,170.3h4.2v-2h-4.2l12.2-12.2l12.2,12.2
				h-4.2v2h4.2l-12.2,12.2L604.7,170.3z"/>
			<rect id="rect68" x="613.9" y="168.3" fill="#DB1C24" width="6" height="2"/>
		</g>
	</g>
	<g id="cdpPicture8Style1">
		<rect id="rect71_2_" x="598.9" y="94.6" fill="none" width="36" height="36"/>
		<g id="g80_2_">
			<path id="path82_2_" fill="#F6B31E" d="M616.9,96.6l-16,16l16,16l16-16L616.9,96.6z M604.7,113.6h4.2v-2h-4.2l12.2-12.2
				l12.2,12.2h-4.2v2h4.2l-12.2,12.2L604.7,113.6z"/>
			<rect id="rect84_2_" x="613.9" y="111.6" fill="#F6B31E" width="6" height="2"/>
		</g>
	</g>
	<g id="cdpPicture7Style1">
		<rect x="315.4" y="491.4" fill="none" width="36" height="36"/>
		<g>
			<path fill="#DB1C24" d="M349.7,525.7h-32.6v-32.6h32.6V525.7z M347.6,495.2h-28.3v28.3h28.3L347.6,495.2L347.6,495.2z"/>
			<path fill="#DB1C24" d="M344.4,520.2c-1.6,0-3-0.6-3.9-1.5c-0.9,1-2.2,1.5-3.6,1.5l0,0c-1.4,0-2.7-0.6-3.5-1.5
				c-0.9,0.9-2.2,1.5-3.5,1.5c-1.4,0-2.7-0.6-3.6-1.5c-0.9,1-2.3,1.5-3.9,1.5c0,0,0,0,0,0c-2.1,0-3.8-1-4.6-2.6l1.5-0.8
				c0.6,1.2,2,1.7,3.1,1.7c0,0,0,0,0,0c1.1,0,2.5-0.4,3.1-1.7l0.8-1.5l0.8,1.5c0.5,1,1.6,1.7,2.8,1.7c1.2,0,2.3-0.6,2.8-1.7l0.8-1.5
				l0.8,1.5c0.5,1,1.6,1.7,2.8,1.7l0,0c1.2,0,2.3-0.6,2.8-1.7l0.8-1.5l0.8,1.5c0.6,1.2,2,1.7,3.2,1.7s2.6-0.4,3.2-1.7l1.5,0.8
				C348.3,519.2,346.5,520.2,344.4,520.2z"/>
			<circle id="circle108_4_" fill="#DB1C24" cx="333.4" cy="509.7" r="2"/>
			<path id="path110_4_" fill="#DB1C24" d="M333.4,498.7c-1.1,0-2,0.9-2,2s0.9,5,2,5s2-3.9,2-5S334.5,498.7,333.4,498.7z"/>
		</g>
	</g>
	<g id="cdpPicture6Style1">
		<rect x="315.4" y="434.7" fill="none" width="36" height="36"/>
		<g>
			<path fill="#F6B31E" d="M349.7,469h-32.6v-32.6h32.6V469z M347.6,438.5h-28.3v28.3h28.3L347.6,438.5L347.6,438.5z"/>
			<path fill="#F6B31E" d="M344.4,463.5c-1.6,0-3-0.6-3.9-1.5c-0.9,1-2.2,1.5-3.6,1.5l0,0c-1.4,0-2.7-0.6-3.5-1.5
				c-0.9,0.9-2.2,1.5-3.5,1.5c-1.4,0-2.7-0.6-3.6-1.5c-0.9,1-2.3,1.5-3.9,1.5c0,0,0,0,0,0c-2.1,0-3.8-1-4.6-2.6l1.5-0.8
				c0.6,1.2,2,1.7,3.1,1.7c0,0,0,0,0,0c1.1,0,2.5-0.4,3.1-1.7l0.8-1.5l0.8,1.5c0.5,1,1.6,1.7,2.8,1.7c1.2,0,2.3-0.6,2.8-1.7l0.8-1.5
				l0.8,1.5c0.5,1,1.6,1.7,2.8,1.7l0,0c1.2,0,2.3-0.6,2.8-1.7l0.8-1.5l0.8,1.5c0.6,1.2,2,1.7,3.2,1.7s2.6-0.4,3.2-1.7l1.5,0.8
				C348.3,462.5,346.5,463.5,344.4,463.5z"/>
			<circle id="circle108_9_" fill="#F6B31E" cx="333.4" cy="453" r="2"/>
			<path id="path110_9_" fill="#F6B31E" d="M333.4,442c-1.1,0-2,0.9-2,2s0.9,5,2,5s2-3.9,2-5C335.4,442.9,334.5,442,333.4,442z"/>
		</g>
	</g>
	<g id="cdpPicture5Style1">
		<rect id="rect87" x="323.4" y="378" fill="none" width="20" height="36"/>
		<path id="path89" fill="#DB1C24" d="M337.8,399.3V384c0-2.2-1.8-4-4-4c-2.2,0-4,1.8-4,4h-3v2h3v3h-3v2h3v3h-3v2h3v3.3
			c-1.8,1.3-3,3.4-3,5.7c0,3.9,3.1,7,7,7c3.9,0,7-3.1,7-7C340.8,402.6,339.6,400.5,337.8,399.3 M333.8,410c-2.8,0-5-2.2-5-5
			c0-1.6,0.8-3.2,2.1-4.1l0.9-0.6v-1V384c0-1.1,0.9-2,2-2s2,0.9,2,2v15.3v1l0.9,0.6c1.3,0.9,2.1,2.5,2.1,4.1
			C338.8,407.8,336.5,410,333.8,410"/>
	</g>
	<g id="cdpPicture4Style1">
		<rect id="rect92_1_" x="323.4" y="321.3" fill="none" width="20" height="36"/>
		<path id="path94_1_" fill="#F6B31E" d="M337.8,342.6v-15.3c0-2.2-1.8-4-4-4c-2.2,0-4,1.8-4,4h-3v2h3v3h-3v2h3v3h-3v2h3v3.3
			c-1.8,1.3-3,3.4-3,5.7c0,3.9,3.1,7,7,7c3.9,0,7-3.1,7-7C340.8,346,339.6,343.9,337.8,342.6 M333.8,353.3c-2.8,0-5-2.2-5-5
			c0-1.6,0.8-3.2,2.1-4.1l0.9-0.6v-1v-15.3c0-1.1,0.9-2,2-2s2,0.9,2,2v15.3v1l0.9,0.6c1.3,0.9,2.1,2.5,2.1,4.1
			C338.8,351.1,336.5,353.3,333.8,353.3"/>
	</g>
	<g id="cdpPicture3Style1">
		<rect id="rect102_1_" x="315.4" y="267.6" fill="none" width="36" height="30"/>
		<g id="g104_1_">
			<path id="path106_1_" fill="#DB1C24" d="M315.4,297.1h36l-18-29L315.4,297.1z M319,295.1l14.4-23.2l14.4,23.2H319z"/>
			<circle id="circle108_1_" fill="#DB1C24" cx="333.4" cy="290.1" r="2"/>
			<path id="path110_1_" fill="#DB1C24" d="M333.4,279.1c-1.1,0-2,0.9-2,2s0.9,5,2,5s2-3.9,2-5S334.5,279.1,333.4,279.1z"/>
		</g>
	</g>
	<g id="cdpPicture2Style1">
		<rect id="rect113_12_" x="315.4" y="210.9" fill="none" width="36" height="30"/>
		<g id="g115_7_">
			<path id="path117_12_" fill="#F6B31E" d="M315.4,240.4h36l-18-29L315.4,240.4z M319,238.4l14.4-23.2l14.4,23.2H319z"/>
			<circle id="circle119_8_" fill="#F6B31E" cx="333.4" cy="233.4" r="2"/>
			<path id="path121_8_" fill="#F6B31E" d="M333.4,222.4c-1.1,0-2,0.9-2,2s0.9,5,2,5s2-3.9,2-5S334.5,222.4,333.4,222.4z"/>
		</g>
	</g>
	<g id="cdpPicture1Style1">
		<rect id="rect102" x="315.4" y="154.3" fill="none" width="36" height="30"/>
		<g id="g104">
			<path id="path106" fill="#DB1C24" d="M315.4,183.8h36l-18-29L315.4,183.8z M319,181.8l14.4-23.2l14.4,23.2H319z"/>
			<circle id="circle108" fill="#DB1C24" cx="333.4" cy="176.8" r="2"/>
			<path id="path110" fill="#DB1C24" d="M333.4,165.8c-1.1,0-2,0.9-2,2c0,1.1,0.9,5,2,5s2-3.9,2-5S334.5,165.8,333.4,165.8z"/>
		</g>
	</g>
	<g id="cdpPicture0Style1">
		<rect id="rect113_11_" x="315.4" y="97.6" fill="none" width="36" height="30"/>
		<g id="g115_3_">
			<path id="path117_11_" fill="#F6B31E" d="M315.4,127.1h36l-18-29L315.4,127.1z M319,125.1l14.4-23.2l14.4,23.2H319z"/>
			<circle id="circle119_3_" fill="#F6B31E" cx="333.4" cy="120.1" r="2"/>
			<path id="path121_3_" fill="#F6B31E" d="M333.4,109.1c-1.1,0-2,0.9-2,2s0.9,5,2,5s2-3.9,2-5S334.5,109.1,333.4,109.1z"/>
		</g>
	</g>
</g>
<g id="Layer1">
	<g id="cdpPicture15">
		<rect x="528" y="491.4" fill="none" width="36" height="36"/>
		<g>
			<path fill="#666666" d="M546,525.1c-8.6,0-15.7-7-15.7-15.7s7-15.7,15.7-15.7s15.7,7,15.7,15.7C561.7,518,554.7,525.1,546,525.1z
				 M546,495.9c-7.5,0-13.5,6.1-13.5,13.5c0,7.5,6.1,13.5,13.5,13.5c7.5,0,13.5-6.1,13.5-13.5C559.6,501.9,553.5,495.9,546,495.9z"
				/>
			<polygon fill="#666666" points="551.1,510.4 554.1,501.4 545,504.4 547,506.4 538,515.4 540,517.4 549,508.4 			"/>
		</g>
	</g>
	<g id="cdpPicture14">
		<rect x="528" y="434.7" fill="none" width="36" height="36"/>
		<g>
			<path fill="#666666" d="M546,468.4c-8.6,0-15.7-7-15.7-15.7s7-15.7,15.7-15.7s15.7,7,15.7,15.7S554.7,468.4,546,468.4z
				 M546,439.2c-7.5,0-13.5,6.1-13.5,13.5c0,7.5,6.1,13.5,13.5,13.5c7.5,0,13.5-6.1,13.5-13.5C559.6,445.3,553.5,439.2,546,439.2z"
				/>
			<polygon fill="#666666" points="551.1,453.7 554.1,444.7 545,447.7 547,449.7 538,458.7 540,460.7 549,451.7 			"/>
		</g>
	</g>
	<g id="cdpPicture13">
		<rect id="rect113_2_" x="528" y="381" fill="none" width="36" height="30"/>
		<g id="g115_2_">
			<path id="path117_2_" fill="#666666" d="M528,410.5h36l-18-29L528,410.5z M531.6,408.5l14.4-23.2l14.4,23.2H531.6z"/>
			<path fill="#666666" d="M550.3,401c0,2.4-1.9,4.3-4.3,4.3s-4.3-1.9-4.3-4.3c0-3,4.3-5.5,4.3-8.5C546,395.5,550.3,398,550.3,401z"
				/>
		</g>
	</g>
	<g id="cdpPicture12">
		<rect id="rect113_17_" x="528" y="324.3" fill="none" width="36" height="30"/>
		<g id="g115_9_">
			<path id="path117_17_" fill="#666666" d="M528,353.8h36l-18-29L528,353.8z M531.6,351.8l14.4-23.2l14.4,23.2H531.6z"/>
			<path fill="#666666" d="M550.3,344.3c0,2.4-1.9,4.3-4.3,4.3s-4.3-1.9-4.3-4.3c0-3,4.3-5.5,4.3-8.5
				C546,338.8,550.3,341.3,550.3,344.3z"/>
		</g>
	</g>
	<g id="cdpPicture11">
		<rect id="rect113_3_" x="528" y="267.6" fill="none" width="36" height="30"/>
		<g>
			<path id="path117_3_" fill="#666666" d="M528,297.1h36l-18-29L528,297.1z M531.6,295.1l14.4-23.2l14.4,23.2H531.6z"/>
			<circle id="circle119_2_" fill="#666666" cx="546" cy="285.3" r="1.6"/>
			<path id="path121_2_" fill="#666666" d="M546,276.7c-0.9,0-1.6,0.7-1.6,1.6c0,0.9,0.7,3.9,1.6,3.9s1.6-3,1.6-3.9
				C547.6,277.4,546.9,276.7,546,276.7z"/>
			<path fill="#666666" d="M542.3,290.4c0.6,1.4-0.1,3-1.5,3.5s-3-0.1-3.5-1.5c-0.7-1.8,1.2-4.3,0.5-6.1
				C538.5,288.1,541.6,288.6,542.3,290.4z"/>
			<path fill="#666666" d="M548.7,290.4c0.6,1.4-0.1,3-1.5,3.5c-1.4,0.5-3-0.1-3.5-1.5c-0.7-1.8,1.2-4.3,0.5-6.1
				C544.8,288.1,548,288.6,548.7,290.4z"/>
			<path fill="#666666" d="M555,290.4c0.6,1.4-0.1,3-1.5,3.5c-1.4,0.5-3-0.1-3.5-1.5c-0.7-1.8,1.2-4.3,0.5-6.1
				C551.2,288.1,554.3,288.6,555,290.4z"/>
		</g>
	</g>
	<g id="cdpPicture10">
		<rect id="rect113_13_" x="528" y="210.9" fill="none" width="36" height="30"/>
		<g>
			<path id="path117_13_" fill="#666666" d="M528,240.4h36l-18-29L528,240.4z M531.6,238.4l14.4-23.2l14.4,23.2H531.6z"/>
			<circle id="circle119_9_" fill="#666666" cx="546" cy="228.6" r="1.6"/>
			<path id="path121_9_" fill="#666666" d="M546,220c-0.9,0-1.6,0.7-1.6,1.6c0,0.9,0.7,3.9,1.6,3.9s1.6-3,1.6-3.9
				C547.6,220.7,546.9,220,546,220z"/>
			<path fill="#666666" d="M542.3,233.7c0.6,1.4-0.1,3-1.5,3.5c-1.4,0.6-3-0.1-3.5-1.5c-0.7-1.8,1.2-4.3,0.5-6.1
				C538.5,231.4,541.6,231.9,542.3,233.7z"/>
			<path fill="#666666" d="M548.7,233.7c0.6,1.4-0.1,3-1.5,3.5c-1.4,0.6-3-0.1-3.5-1.5c-0.7-1.8,1.2-4.3,0.5-6.1
				C544.8,231.4,548,231.9,548.7,233.7z"/>
			<path fill="#666666" d="M555,233.7c0.6,1.4-0.1,3-1.5,3.5c-1.4,0.6-3-0.1-3.5-1.5c-0.7-1.8,1.2-4.3,0.5-6.1
				C551.2,231.4,554.3,231.9,555,233.7z"/>
		</g>
	</g>
	<g id="cdpPicture9">
		<rect id="rect150" x="528" y="151.3" fill="none" width="36" height="36"/>
		<g id="g159">
			<path fill="#666666" d="M546,153.3l-16,16l16,16l16-16L546,153.3z M533.9,170.3h4.2v-2h-4.2l12.2-12.2l12.2,12.2H554v2h4.2
				L546,182.4L533.9,170.3z"/>
			<rect id="rect163" x="543" y="168.3" fill="#666666" width="6" height="2"/>
		</g>
	</g>
	<g id="cdpPicture8">
		<rect id="rect150_1_" x="528" y="94.6" fill="none" width="36" height="36"/>
		<g id="g159_1_">
			<path fill="#666666" d="M546,96.6l-16,16l16,16l16-16L546,96.6z M533.9,113.6h4.2v-2h-4.2L546,99.4l12.2,12.2H554v2h4.2
				L546,125.7L533.9,113.6z"/>
			<rect id="rect163_1_" x="543" y="111.6" fill="#666666" width="6" height="2"/>
		</g>
	</g>
	<g id="cdpPicture7">
		<rect x="244.6" y="491.4" fill="none" width="36" height="36"/>
		<g>
			<path fill="#666666" d="M278.9,525.7h-32.6v-32.6h32.6V525.7z M276.8,495.2h-28.3v28.3h28.3V495.2z"/>
			<path fill="#666666" d="M273.5,520.2c-1.6,0-3-0.6-3.9-1.5c-0.9,1-2.2,1.5-3.6,1.5l0,0c-1.4,0-2.7-0.6-3.5-1.5
				c-0.9,0.9-2.2,1.5-3.5,1.5c-1.4,0-2.7-0.6-3.6-1.5c-0.9,1-2.3,1.5-3.9,1.5l0,0c-2.1,0-3.8-1-4.6-2.6l1.5-0.8
				c0.6,1.2,2,1.7,3.1,1.7l0,0c1.1,0,2.5-0.4,3.1-1.7l0.8-1.5l0.8,1.5c0.5,1,1.6,1.7,2.8,1.7c1.2,0,2.3-0.6,2.8-1.7l0.8-1.5l0.8,1.5
				c0.5,1,1.6,1.7,2.8,1.7l0,0c1.2,0,2.3-0.6,2.8-1.7l0.8-1.5l0.8,1.5c0.6,1.2,2,1.7,3.2,1.7s2.6-0.4,3.2-1.7l1.5,0.8
				C277.5,519.2,275.7,520.2,273.5,520.2z"/>
			<circle id="circle108_2_" fill="#666666" cx="262.6" cy="509.7" r="2"/>
			<path id="path110_2_" fill="#666666" d="M262.6,498.7c-1.1,0-2,0.9-2,2s0.9,5,2,5s2-3.9,2-5S263.7,498.7,262.6,498.7z"/>
		</g>
	</g>
	<g id="cdpPicture6">
		<rect x="244.6" y="434.7" fill="none" width="36" height="36"/>
		<g>
			<path fill="#666666" d="M278.9,469h-32.6v-32.6h32.6V469z M276.8,438.5h-28.3v28.3h28.3V438.5z"/>
			<path fill="#666666" d="M273.5,463.5c-1.6,0-3-0.6-3.9-1.5c-0.9,1-2.2,1.5-3.6,1.5l0,0c-1.4,0-2.7-0.6-3.5-1.5
				c-0.9,0.9-2.2,1.5-3.5,1.5c-1.4,0-2.7-0.6-3.6-1.5c-0.9,1-2.3,1.5-3.9,1.5l0,0c-2.1,0-3.8-1-4.6-2.6l1.5-0.8
				c0.6,1.2,2,1.7,3.1,1.7l0,0c1.1,0,2.5-0.4,3.1-1.7l0.8-1.5l0.8,1.5c0.5,1,1.6,1.7,2.8,1.7c1.2,0,2.3-0.6,2.8-1.7l0.8-1.5l0.8,1.5
				c0.5,1,1.6,1.7,2.8,1.7l0,0c1.2,0,2.3-0.6,2.8-1.7l0.8-1.5l0.8,1.5c0.6,1.2,2,1.7,3.2,1.7s2.6-0.4,3.2-1.7l1.5,0.8
				C277.5,462.5,275.7,463.5,273.5,463.5z"/>
			<circle id="circle108_8_" fill="#666666" cx="262.6" cy="453" r="2"/>
			<path id="path110_8_" fill="#666666" d="M262.6,442c-1.1,0-2,0.9-2,2s0.9,5,2,5s2-3.9,2-5C264.6,442.9,263.7,442,262.6,442z"/>
		</g>
	</g>
	<g id="cdpPicture5">
		<rect id="rect97_1_" x="252.6" y="378" fill="none" width="20" height="36"/>
		<path id="path99_1_" fill="#666666" d="M266.9,399.3V384c0-2.2-1.8-4-4-4s-4,1.8-4,4h-3v2h3v3h-3v2h3v3h-3v2h3v3.3
			c-1.8,1.3-3,3.4-3,5.7c0,3.9,3.1,7,7,7c3.9,0,7-3.1,7-7C269.9,402.6,268.7,400.5,266.9,399.3 M262.9,410c-2.8,0-5-2.2-5-5
			c0-1.6,0.8-3.2,2.1-4.1l0.9-0.6v-1V384c0-1.1,0.9-2,2-2s2,0.9,2,2v15.3v1l0.9,0.6c1.3,0.9,2.1,2.5,2.1,4.1
			C267.9,407.8,265.7,410,262.9,410"/>
	</g>
	<g id="cdpPicture4">
		<rect id="rect97_3_" x="252.6" y="321.3" fill="none" width="20" height="36"/>
		<path id="path99_3_" fill="#666666" d="M266.9,342.6v-15.3c0-2.2-1.8-4-4-4s-4,1.8-4,4h-3v2h3v3h-3v2h3v3h-3v2h3v3.3
			c-1.8,1.3-3,3.4-3,5.7c0,3.9,3.1,7,7,7c3.9,0,7-3.1,7-7C269.9,346,268.7,343.9,266.9,342.6 M262.9,353.3c-2.8,0-5-2.2-5-5
			c0-1.6,0.8-3.2,2.1-4.1l0.9-0.6v-1v-15.3c0-1.1,0.9-2,2-2s2,0.9,2,2v15.3v1l0.9,0.6c1.3,0.9,2.1,2.5,2.1,4.1
			C267.9,351.1,265.7,353.3,262.9,353.3"/>
	</g>
	<g id="cdpPicture3">
		<rect id="rect3087_1_" x="244.6" y="267.6" fill="none" width="36" height="30"/>
		<g id="g3089_1_">
			<path id="path3091_1_" fill="#00AA00" d="M244.6,297.1h36l-18-29L244.6,297.1z M248.2,295.1l14.4-23.2l14.4,23.2H248.2z"/>
			<path id="path3097_1_" fill="none" stroke="#00AB00" stroke-width="1.6" d="M256.2,286.9l3.5,5.7l6-12.9"/>
		</g>
	</g>
	<g id="cdpPicture2">
		<rect id="rect3087_3_" x="244.6" y="210.9" fill="none" width="36" height="30"/>
		<g id="g3089_3_">
			<path id="path3091_3_" fill="#00AA00" d="M244.6,240.4h36l-18-29L244.6,240.4z M248.2,238.4l14.4-23.2l14.4,23.2H248.2z"/>
			<path id="path3097_3_" fill="none" stroke="#00AB00" stroke-width="1.6" d="M256.2,230.2l3.5,5.7l6-12.9"/>
		</g>
	</g>
	<g id="cdpPicture1">
		<rect id="rect124_1_" x="244.6" y="154.3" fill="none" width="36" height="30"/>
		<g id="g126_1_">
			<path id="path128_1_" fill="#666666" d="M244.6,183.8h36l-18-29L244.6,183.8z M248.2,181.8l14.4-23.2l14.4,23.2H248.2z"/>
			<circle id="circle130_1_" fill="#666666" cx="262.6" cy="176.8" r="2"/>
			<path id="path132_1_" fill="#666666" d="M262.6,165.8c-1.1,0-2,0.9-2,2c0,1.1,0.9,5,2,5c1.1,0,2-3.9,2-5
				C264.6,166.6,263.7,165.8,262.6,165.8z"/>
		</g>
	</g>
	<g id="cdpPicture0">
		<rect id="rect124_3_" x="244.6" y="97.6" fill="none" width="36" height="30"/>
		<g id="g126_3_">
			<path id="path128_3_" fill="#666666" d="M244.6,127.1h36l-18-29L244.6,127.1z M248.2,125.1l14.4-23.2l14.4,23.2H248.2z"/>
			<circle id="circle130_3_" fill="#666666" cx="262.6" cy="120.1" r="2"/>
			<path id="path132_3_" fill="#666666" d="M262.6,109.1c-1.1,0-2,0.9-2,2s0.9,5,2,5c1.1,0,2-3.9,2-5S263.7,109.1,262.6,109.1z"/>
		</g>
	</g>
</g>
</svg>
