<?xml version="1.0" encoding="utf-8"?>
<!-- Generator: Adobe Illustrator 16.0.0, SVG Export Plug-In . SVG Version: 6.00 Build 0)  -->
<!DOCTYPE svg PUBLIC "-//W3C//DTD SVG 1.1//EN" "http://www.w3.org/Graphics/SVG/1.1/DTD/svg11.dtd">
<svg version="1.1" id="svg" xmlns="http://www.w3.org/2000/svg" xmlns:xlink="http://www.w3.org/1999/xlink" x="0px" y="0px"
	 width="63px" height="63px" viewBox="0 0 63 63" enable-background="new 0 0 63 63" xml:space="preserve">
<g id="Layer1">
	<g id="back">
		<linearGradient id="SVGID_1_" gradientUnits="userSpaceOnUse" x1="38.2139" y1="-50.2856" x2="690.7857" y2="602.2862">
			<stop  offset="0" style="stop-color:#363C3C"/>
			<stop  offset="1" style="stop-color:#2E3436"/>
		</linearGradient>
		<path fill="url(#SVGID_1_)" d="M739.5,551.5c0,2.762-2.238,5-5,5h-740c-2.761,0-5-2.238-5-5V0.5c0-2.761,2.239-5,5-5h740
			c2.762,0,5,2.239,5,5V551.5z"/>
		<path fill="none" stroke="#0F0F0F" stroke-width="3" stroke-miterlimit="10" d="M739,552c0,2.762-2.238,5-5,5H-6
			c-2.761,0-5-2.238-5-5V1c0-2.761,2.239-5,5-5h740c2.762,0,5,2.239,5,5V552z"/>
	</g>
	<g id="cdpPicture4">
		<rect fill="none" width="63" height="63"/>
		<g>
			<path fill-rule="evenodd" clip-rule="evenodd" fill="#0A0A0A" d="M31.501,2.006c16.288,0,29.492,13.205,29.492,29.493
				c0,16.288-13.204,29.493-29.492,29.493c-16.289,0-29.494-13.205-29.494-29.493C2.007,15.211,15.212,2.006,31.501,2.006"/>
			<linearGradient id="sunkenCircle_15_" gradientUnits="userSpaceOnUse" x1="15.7666" y1="15.7666" x2="47.2336" y2="47.2336">
				<stop  offset="0" style="stop-color:#1D2021"/>
				<stop  offset="0.4337" style="stop-color:#1D2021"/>
				<stop  offset="0.6684" style="stop-color:#565B5D"/>
				<stop  offset="1" style="stop-color:#565B5D"/>
			</linearGradient>
			<path id="sunkenCircle" fill="url(#sunkenCircle_15_)" d="M63,31.5C63,14.13,48.869,0,31.501,0C14.131,0,0,14.13,0,31.5
				C0,48.869,14.131,63,31.501,63C48.869,63,63,48.869,63,31.5z M2.006,31.5c0-16.288,13.205-29.493,29.495-29.493
				c16.288,0,29.492,13.205,29.492,29.493c0,16.29-13.204,29.493-29.492,29.493C15.211,60.992,2.006,47.789,2.006,31.5z"/>
			<linearGradient id="greenCircle_15_" gradientUnits="userSpaceOnUse" x1="31.4995" y1="56.0762" x2="31.4995" y2="6.9229">
				<stop  offset="0" style="stop-color:#B0B0B0"/>
				<stop  offset="1" style="stop-color:#8D8D8D"/>
			</linearGradient>
			<path id="greenCircle" fill="url(#greenCircle_15_)" d="M31.499,6.922C17.926,6.922,6.922,17.923,6.922,31.5
				c0,13.573,11.004,24.577,24.577,24.577c13.576,0,24.578-11.004,24.578-24.577C56.077,17.923,45.075,6.922,31.499,6.922z
				 M31.499,53.068c-11.893,0-21.568-9.676-21.568-21.569c0-11.894,9.676-21.567,21.568-21.567c11.892,0,21.569,9.674,21.569,21.567
				C53.068,43.393,43.391,53.068,31.499,53.068z"/>
			<text transform="matrix(1 0 0 1 27.9282 36.6426)" fill="#FFFFFF" font-family="'ArialMT'" font-size="14">?</text>
		</g>
	</g>
	<g id="cdpPicture3">
		<rect x="-2.501" y="281.545" fill="none" width="110" height="110.001"/>
		<g>
			<path fill-rule="evenodd" clip-rule="evenodd" fill="#0A0A0A" d="M52.501,285.047c28.439,0,51.494,23.057,51.494,51.498
				c0,28.439-23.055,51.496-51.494,51.496S1.003,364.984,1.003,336.545C1.003,308.104,24.062,285.047,52.501,285.047"/>
			<linearGradient id="SVGID_2_" gradientUnits="userSpaceOnUse" x1="25.0317" y1="309.0781" x2="79.9937" y2="364.0401">
				<stop  offset="0" style="stop-color:#1D2021"/>
				<stop  offset="0.4337" style="stop-color:#1D2021"/>
				<stop  offset="0.6684" style="stop-color:#565B5D"/>
				<stop  offset="1" style="stop-color:#565B5D"/>
			</linearGradient>
			<path fill="url(#SVGID_2_)" d="M107.499,336.545c0-30.327-24.673-55-54.998-55c-30.329,0-55.002,24.673-55.002,55
				c0,30.328,24.673,55.001,55.002,55.001C82.826,391.546,107.499,366.873,107.499,336.545z M1.003,336.545
				c0-28.441,23.055-51.498,51.498-51.498c28.439,0,51.494,23.057,51.494,51.498c0,28.439-23.055,51.496-51.494,51.496
				C24.058,388.041,1.003,364.984,1.003,336.545z"/>
			<linearGradient id="SVGID_3_" gradientUnits="userSpaceOnUse" x1="52.4971" y1="379.457" x2="52.4971" y2="293.6299">
				<stop  offset="0" style="stop-color:#D70F0F"/>
				<stop  offset="1" style="stop-color:#8D0E0E"/>
			</linearGradient>
			<path fill="url(#SVGID_3_)" d="M52.497,293.63c-23.697,0-42.914,19.21-42.914,42.915c0,23.699,19.217,42.912,42.914,42.912
				c23.701,0,42.914-19.213,42.914-42.912C95.411,312.84,76.198,293.63,52.497,293.63z M52.497,374.202
				c-20.767,0-37.66-16.895-37.66-37.657c0-20.769,16.894-37.659,37.66-37.659s37.661,16.891,37.661,37.659
				C90.158,357.308,73.264,374.202,52.497,374.202z"/>
			<text transform="matrix(1 0 0 1 21.9912 341.5781)" display="none" fill="#EFB3B3" font-family="'ArialMT'" font-size="13">STOPPED</text>
			<g>
				<path fill="#EFB3B3" d="M22.575,338.588l1.162-0.102c0.055,0.466,0.183,0.848,0.384,1.146c0.201,0.298,0.513,0.539,0.937,0.724
					c0.423,0.184,0.898,0.276,1.428,0.276c0.47,0,0.885-0.07,1.244-0.21c0.36-0.14,0.628-0.331,0.804-0.574
					c0.175-0.243,0.263-0.509,0.263-0.797c0-0.292-0.084-0.547-0.254-0.765c-0.169-0.218-0.448-0.401-0.838-0.549
					c-0.249-0.098-0.802-0.249-1.656-0.454c-0.855-0.205-1.454-0.399-1.797-0.581c-0.444-0.232-0.775-0.521-0.993-0.866
					s-0.327-0.731-0.327-1.159c0-0.469,0.134-0.908,0.4-1.316s0.655-0.719,1.168-0.93c0.512-0.212,1.081-0.318,1.707-0.318
					c0.689,0,1.299,0.111,1.825,0.334c0.527,0.222,0.932,0.549,1.216,0.98c0.283,0.432,0.436,0.92,0.457,1.467l-1.181,0.088
					c-0.063-0.588-0.278-1.032-0.645-1.332c-0.366-0.301-0.906-0.451-1.622-0.451c-0.745,0-1.287,0.137-1.628,0.409
					c-0.341,0.273-0.511,0.603-0.511,0.987c0,0.334,0.12,0.609,0.361,0.825c0.237,0.216,0.856,0.437,1.856,0.663
					c1.001,0.227,1.688,0.425,2.061,0.594c0.541,0.25,0.941,0.566,1.199,0.949c0.259,0.383,0.388,0.824,0.388,1.323
					c0,0.495-0.142,0.962-0.426,1.399c-0.283,0.438-0.69,0.779-1.222,1.022s-1.129,0.364-1.793,0.364
					c-0.843,0-1.548-0.122-2.117-0.367c-0.569-0.246-1.016-0.615-1.34-1.108C22.763,339.768,22.592,339.211,22.575,338.588z"/>
				<path fill="#EFB3B3" d="M34.033,341.578v-8.207h-3.066v-1.099h7.376v1.099h-3.078v8.207H34.033z"/>
				<path fill="#EFB3B3" d="M39.232,337.046c0-1.545,0.414-2.754,1.244-3.628c0.829-0.874,1.899-1.311,3.212-1.311
					c0.858,0,1.633,0.205,2.323,0.615c0.689,0.411,1.216,0.983,1.577,1.718c0.362,0.734,0.543,1.566,0.543,2.497
					c0,0.944-0.19,1.788-0.571,2.533s-0.921,1.309-1.619,1.691s-1.451,0.574-2.26,0.574c-0.876,0-1.659-0.211-2.349-0.635
					c-0.689-0.423-1.212-1-1.567-1.732S39.232,337.862,39.232,337.046z M40.502,337.064c0,1.122,0.301,2.005,0.904,2.65
					c0.603,0.646,1.359,0.969,2.27,0.969c0.927,0,1.689-0.326,2.288-0.979c0.599-0.651,0.898-1.576,0.898-2.773
					c0-0.758-0.128-1.419-0.384-1.983c-0.257-0.565-0.631-1.003-1.124-1.314c-0.493-0.311-1.046-0.466-1.66-0.466
					c-0.872,0-1.622,0.299-2.25,0.897C40.815,334.664,40.502,335.664,40.502,337.064z"/>
				<path fill="#EFB3B3" d="M49.719,341.578v-9.306h3.511c0.617,0,1.09,0.029,1.415,0.089c0.457,0.076,0.84,0.221,1.149,0.435
					c0.309,0.214,0.558,0.514,0.746,0.898c0.188,0.385,0.282,0.809,0.282,1.27c0,0.791-0.252,1.461-0.756,2.009
					c-0.503,0.548-1.413,0.822-2.729,0.822H50.95v3.783H49.719z M50.95,336.697h2.406c0.795,0,1.36-0.148,1.694-0.445
					c0.335-0.296,0.502-0.713,0.502-1.25c0-0.39-0.099-0.723-0.295-1c-0.197-0.277-0.456-0.46-0.778-0.549
					c-0.207-0.055-0.59-0.082-1.148-0.082H50.95V336.697z"/>
				<path fill="#EFB3B3" d="M58.391,341.578v-9.306h3.511c0.617,0,1.09,0.029,1.415,0.089c0.457,0.076,0.84,0.221,1.149,0.435
					c0.309,0.214,0.558,0.514,0.746,0.898c0.188,0.385,0.282,0.809,0.282,1.27c0,0.791-0.252,1.461-0.756,2.009
					c-0.503,0.548-1.413,0.822-2.729,0.822h-2.387v3.783H58.391z M59.622,336.697h2.406c0.795,0,1.36-0.148,1.694-0.445
					c0.335-0.296,0.502-0.713,0.502-1.25c0-0.39-0.099-0.723-0.295-1c-0.197-0.277-0.456-0.46-0.778-0.549
					c-0.207-0.055-0.59-0.082-1.148-0.082h-2.381V336.697z"/>
				<path fill="#EFB3B3" d="M67.087,341.578v-9.306h6.729v1.099h-5.497v2.85h5.148v1.092h-5.148v3.168h5.713v1.098H67.087z"/>
				<path fill="#EFB3B3" d="M75.732,341.578v-9.306h3.206c0.724,0,1.275,0.044,1.656,0.134c0.533,0.122,0.988,0.345,1.365,0.666
					c0.491,0.415,0.857,0.944,1.102,1.59c0.243,0.646,0.364,1.383,0.364,2.213c0,0.706-0.082,1.332-0.247,1.879
					c-0.165,0.545-0.377,0.997-0.635,1.354c-0.259,0.357-0.541,0.64-0.848,0.845s-0.677,0.36-1.11,0.467
					c-0.435,0.105-0.933,0.158-1.495,0.158H75.732z M76.964,340.48h1.987c0.613,0,1.095-0.058,1.444-0.172
					c0.349-0.114,0.627-0.275,0.834-0.482c0.292-0.292,0.52-0.685,0.683-1.178s0.244-1.091,0.244-1.793
					c0-0.974-0.159-1.722-0.479-2.244c-0.32-0.522-0.708-0.873-1.165-1.051c-0.33-0.127-0.861-0.189-1.594-0.189h-1.955V340.48z"/>
			</g>
		</g>
	</g>
	<g id="cdpPicture2">
		<rect x="-2.5" y="155.26" fill="none" width="110" height="110"/>
		<g>
			<path fill-rule="evenodd" clip-rule="evenodd" fill="#0A0A0A" d="M52.502,158.762c28.439,0,51.494,23.057,51.494,51.498
				c0,28.438-23.055,51.494-51.494,51.494c-28.441,0-51.498-23.057-51.498-51.494C1.004,181.818,24.061,158.762,52.502,158.762"/>
			<linearGradient id="sunkenCircle_16_" gradientUnits="userSpaceOnUse" x1="25.0298" y1="182.7891" x2="79.9723" y2="237.7316">
				<stop  offset="0" style="stop-color:#1D2021"/>
				<stop  offset="0.4337" style="stop-color:#1D2021"/>
				<stop  offset="0.6684" style="stop-color:#565B5D"/>
				<stop  offset="1" style="stop-color:#565B5D"/>
			</linearGradient>
			<path id="sunkenCircle_10_" fill="url(#sunkenCircle_16_)" d="M107.5,210.26c0-30.327-24.673-55-54.998-55
				c-30.329,0-55.002,24.673-55.002,55s24.673,55,55.002,55C82.827,265.26,107.5,240.587,107.5,210.26z M1.003,210.26
				c0-28.441,23.057-51.498,51.499-51.498c28.439,0,51.494,23.057,51.494,51.498s-23.055,51.494-51.494,51.494
				C24.06,261.754,1.003,238.701,1.003,210.26z"/>
			<linearGradient id="greenCircle_16_" gradientUnits="userSpaceOnUse" x1="52.499" y1="253.1709" x2="52.499" y2="167.3457">
				<stop  offset="0" style="stop-color:#B0B0B0"/>
				<stop  offset="1" style="stop-color:#8D8D8D"/>
			</linearGradient>
			<path id="greenCircle_10_" fill="url(#greenCircle_16_)" d="M52.498,167.346c-23.698,0-42.912,19.21-42.912,42.914
				c0,23.697,19.214,42.911,42.912,42.911c23.705,0,42.914-19.214,42.914-42.911C95.412,186.556,76.203,167.346,52.498,167.346z
				 M52.498,247.919c-20.765,0-37.659-16.895-37.659-37.659c0-20.769,16.894-37.659,37.659-37.659
				c20.764,0,37.661,16.891,37.661,37.659C90.159,231.024,73.262,247.919,52.498,247.919z"/>
			<text transform="matrix(1 0 0 1 48.7559 215.5586)" fill="#FFFFFF" font-family="'ArialMT'" font-size="14">?</text>
		</g>
	</g>
	<g id="cdpPicture1">
		<rect y="73.043" fill="none" width="63" height="63"/>
		<g>
			<path fill-rule="evenodd" clip-rule="evenodd" fill="#0A0A0A" d="M31.501,75.049c16.288,0,29.492,13.205,29.492,29.493
				s-13.204,29.493-29.492,29.493c-16.289,0-29.494-13.205-29.494-29.493S15.212,75.049,31.501,75.049"/>
			<linearGradient id="sunkenCircle_17_" gradientUnits="userSpaceOnUse" x1="15.7671" y1="88.8096" x2="47.2341" y2="120.2765">
				<stop  offset="0" style="stop-color:#1D2021"/>
				<stop  offset="0.4337" style="stop-color:#1D2021"/>
				<stop  offset="0.6684" style="stop-color:#565B5D"/>
				<stop  offset="1" style="stop-color:#565B5D"/>
			</linearGradient>
			<path id="sunkenCircle_3_" fill="url(#sunkenCircle_17_)" d="M63,104.542c0-17.369-14.131-31.5-31.499-31.5
				C14.131,73.042,0,87.173,0,104.542c0,17.37,14.131,31.501,31.501,31.501C48.869,136.043,63,121.912,63,104.542z M2.006,104.542
				c0-16.288,13.205-29.493,29.495-29.493c16.288,0,29.492,13.205,29.492,29.493c0,16.29-13.204,29.493-29.492,29.493
				C15.211,134.035,2.006,120.832,2.006,104.542z"/>
			<linearGradient id="greenCircle_17_" gradientUnits="userSpaceOnUse" x1="31.4995" y1="129.1191" x2="31.4995" y2="79.9648">
				<stop  offset="0" style="stop-color:#B0B0B0"/>
				<stop  offset="1" style="stop-color:#8D8D8D"/>
			</linearGradient>
			<path id="greenCircle_3_" fill="url(#greenCircle_17_)" d="M31.499,79.965c-13.573,0-24.577,11.001-24.577,24.577
				c0,13.573,11.004,24.577,24.577,24.577c13.576,0,24.578-11.004,24.578-24.577C56.077,90.966,45.075,79.965,31.499,79.965z
				 M31.499,126.111c-11.893,0-21.568-9.676-21.568-21.569s9.676-21.567,21.568-21.567c11.892,0,21.569,9.674,21.569,21.567
				S43.391,126.111,31.499,126.111z"/>
			<text transform="matrix(1 0 0 1 27.9282 109.6846)" fill="#FFFFFF" font-family="'ArialMT'" font-size="14">?</text>
		</g>
	</g>
	<g id="cdpPicture0">
		<rect x="-2.5" y="403.833" fill="none" width="110" height="110"/>
		<g>
			<path fill-rule="evenodd" clip-rule="evenodd" fill="#0A0A0A" d="M52.502,407.335c28.439,0,51.494,23.057,51.494,51.498
				c0,28.438-23.055,51.494-51.494,51.494c-28.441,0-51.498-23.057-51.498-51.494C1.004,430.392,24.061,407.335,52.502,407.335"/>
			<linearGradient id="sunkenCircle_18_" gradientUnits="userSpaceOnUse" x1="25.0288" y1="431.3613" x2="79.9713" y2="486.3038">
				<stop  offset="0" style="stop-color:#1D2021"/>
				<stop  offset="0.4337" style="stop-color:#1D2021"/>
				<stop  offset="0.6684" style="stop-color:#565B5D"/>
				<stop  offset="1" style="stop-color:#565B5D"/>
			</linearGradient>
			<path id="sunkenCircle_5_" fill="url(#sunkenCircle_18_)" d="M107.5,458.833c0-30.327-24.673-55-54.998-55
				c-30.329,0-55.002,24.673-55.002,55s24.673,55,55.002,55C82.827,513.833,107.5,489.16,107.5,458.833z M1.003,458.833
				c0-28.441,23.057-51.498,51.499-51.498c28.439,0,51.494,23.057,51.494,51.498s-23.055,51.494-51.494,51.494
				C24.06,510.327,1.003,487.274,1.003,458.833z"/>
			<linearGradient id="greenCircle_18_" gradientUnits="userSpaceOnUse" x1="52.499" y1="501.7441" x2="52.499" y2="415.9189">
				<stop  offset="0" style="stop-color:#B0B0B0"/>
				<stop  offset="1" style="stop-color:#8D8D8D"/>
			</linearGradient>
			<path id="greenCircle_5_" fill="url(#greenCircle_18_)" d="M52.498,415.919c-23.698,0-42.912,19.21-42.912,42.914
				c0,23.697,19.214,42.911,42.912,42.911c23.705,0,42.914-19.214,42.914-42.911C95.412,435.129,76.203,415.919,52.498,415.919z
				 M52.498,496.492c-20.765,0-37.659-16.895-37.659-37.659c0-20.769,16.894-37.659,37.659-37.659
				c20.764,0,37.661,16.891,37.661,37.659C90.159,479.598,73.262,496.492,52.498,496.492z"/>
			<text transform="matrix(1 0 0 1 17.8716 464.1318)" display="none" fill="#FFFFFF" font-family="'ArialMT'" font-size="14">DISABLED</text>
			<g>
				<path fill="#FFFFFF" d="M18.952,464.132V454.11h3.452c0.78,0,1.375,0.048,1.785,0.144c0.574,0.132,1.064,0.371,1.47,0.718
					c0.528,0.446,0.924,1.018,1.186,1.713c0.262,0.694,0.393,1.488,0.393,2.382c0,0.761-0.089,1.436-0.267,2.023
					s-0.406,1.074-0.684,1.46c-0.278,0.385-0.583,0.688-0.913,0.908c-0.331,0.222-0.729,0.389-1.196,0.503
					c-0.467,0.114-1.004,0.171-1.61,0.171H18.952z M20.278,462.949h2.14c0.661,0,1.18-0.062,1.556-0.185s0.675-0.296,0.899-0.52
					c0.314-0.314,0.559-0.737,0.735-1.268c0.175-0.531,0.263-1.175,0.263-1.932c0-1.048-0.172-1.854-0.516-2.416
					c-0.344-0.563-0.762-0.94-1.254-1.132c-0.355-0.137-0.928-0.205-1.716-0.205h-2.105V462.949z"/>
				<path fill="#FFFFFF" d="M29.288,464.132V454.11h1.326v10.021H29.288z"/>
				<path fill="#FFFFFF" d="M32.501,460.912l1.251-0.109c0.059,0.501,0.197,0.913,0.414,1.233c0.216,0.322,0.553,0.582,1.008,0.779
					c0.456,0.199,0.969,0.298,1.538,0.298c0.507,0,0.952-0.075,1.341-0.226c0.387-0.15,0.675-0.356,0.864-0.619
					c0.188-0.262,0.284-0.548,0.284-0.857c0-0.314-0.092-0.589-0.273-0.824c-0.184-0.234-0.484-0.432-0.902-0.591
					c-0.27-0.104-0.864-0.268-1.785-0.489c-0.92-0.221-1.565-0.429-1.935-0.625c-0.479-0.251-0.835-0.562-1.069-0.934
					c-0.235-0.371-0.353-0.787-0.353-1.247c0-0.506,0.144-0.979,0.431-1.419c0.287-0.439,0.707-0.773,1.258-1.001
					c0.552-0.228,1.164-0.342,1.839-0.342c0.743,0,1.398,0.12,1.966,0.358c0.567,0.24,1.004,0.592,1.309,1.057
					c0.306,0.465,0.47,0.991,0.492,1.579l-1.271,0.096c-0.068-0.634-0.299-1.112-0.693-1.436s-0.977-0.485-1.747-0.485
					c-0.802,0-1.386,0.146-1.753,0.441c-0.367,0.293-0.551,0.647-0.551,1.063c0,0.36,0.13,0.656,0.39,0.889
					c0.255,0.232,0.922,0.471,1.999,0.715c1.078,0.243,1.818,0.456,2.219,0.639c0.584,0.269,1.014,0.609,1.293,1.021
					c0.277,0.413,0.416,0.888,0.416,1.426c0,0.533-0.152,1.035-0.457,1.508c-0.307,0.471-0.744,0.838-1.316,1.1
					c-0.572,0.263-1.216,0.394-1.932,0.394c-0.906,0-1.666-0.132-2.279-0.396s-1.094-0.662-1.443-1.192
					C32.703,462.183,32.52,461.582,32.501,460.912z"/>
				<path fill="#FFFFFF" d="M41.189,464.132l3.85-10.021h1.429l4.102,10.021h-1.511l-1.169-3.035h-4.19l-1.102,3.035H41.189z
					 M44.082,460.017h3.397l-1.046-2.775c-0.319-0.843-0.557-1.536-0.711-2.078c-0.128,0.643-0.309,1.28-0.541,1.914L44.082,460.017
					z"/>
				<path fill="#FFFFFF" d="M51.574,464.132V454.11h3.76c0.766,0,1.38,0.102,1.843,0.305c0.462,0.202,0.824,0.515,1.087,0.936
					c0.262,0.422,0.393,0.863,0.393,1.323c0,0.429-0.116,0.832-0.349,1.21s-0.583,0.684-1.053,0.916
					c0.606,0.178,1.072,0.48,1.398,0.909s0.488,0.935,0.488,1.518c0,0.47-0.099,0.905-0.297,1.31
					c-0.198,0.402-0.443,0.714-0.735,0.933c-0.291,0.219-0.657,0.384-1.097,0.495c-0.44,0.112-0.979,0.168-1.617,0.168H51.574z
					 M52.9,458.321h2.167c0.589,0,1.01-0.039,1.266-0.116c0.337-0.101,0.591-0.267,0.762-0.499s0.256-0.524,0.256-0.875
					c0-0.333-0.079-0.625-0.239-0.879c-0.159-0.252-0.387-0.426-0.683-0.52c-0.297-0.093-0.806-0.14-1.525-0.14H52.9V458.321z
					 M52.9,462.949h2.495c0.429,0,0.729-0.016,0.902-0.048c0.306-0.055,0.561-0.146,0.766-0.273s0.374-0.313,0.506-0.557
					c0.133-0.244,0.198-0.525,0.198-0.845c0-0.374-0.096-0.698-0.287-0.974c-0.191-0.276-0.457-0.47-0.796-0.582
					c-0.34-0.111-0.829-0.167-1.467-0.167H52.9V462.949z"/>
				<path fill="#FFFFFF" d="M60.913,464.132V454.11h1.326v8.839h4.936v1.183H60.913z"/>
				<path fill="#FFFFFF" d="M68.781,464.132V454.11h7.246v1.183h-5.92v3.069h5.544v1.176h-5.544v3.411h6.152v1.183H68.781z"/>
				<path fill="#FFFFFF" d="M78.092,464.132V454.11h3.452c0.779,0,1.374,0.048,1.784,0.144c0.574,0.132,1.064,0.371,1.47,0.718
					c0.529,0.446,0.925,1.018,1.187,1.713c0.262,0.694,0.393,1.488,0.393,2.382c0,0.761-0.089,1.436-0.267,2.023
					s-0.405,1.074-0.684,1.46c-0.277,0.385-0.582,0.688-0.912,0.908c-0.331,0.222-0.729,0.389-1.196,0.503
					c-0.468,0.114-1.004,0.171-1.61,0.171H78.092z M79.418,462.949h2.14c0.661,0,1.18-0.062,1.556-0.185s0.676-0.296,0.898-0.52
					c0.314-0.314,0.56-0.737,0.735-1.268c0.175-0.531,0.263-1.175,0.263-1.932c0-1.048-0.172-1.854-0.516-2.416
					c-0.345-0.563-0.763-0.94-1.255-1.132c-0.355-0.137-0.927-0.205-1.716-0.205h-2.105V462.949z"/>
			</g>
		</g>
	</g>
</g>
<g id="Styles">
	<g id="cdpPicture_x5F_Style3">
		<rect x="214.001" y="-0.001" fill="none" width="63" height="63.002"/>
		<g>
			<path fill-rule="evenodd" clip-rule="evenodd" fill="#0A0A0A" d="M245.502,2.006c16.288,0,29.492,13.205,29.492,29.493
				c0,16.289-13.204,29.494-29.492,29.494s-29.494-13.205-29.494-29.494C216.008,15.211,229.214,2.006,245.502,2.006"/>
			<linearGradient id="SVGID_4_" gradientUnits="userSpaceOnUse" x1="229.7705" y1="15.769" x2="261.2484" y2="47.2469">
				<stop  offset="0" style="stop-color:#1D2021"/>
				<stop  offset="0.4337" style="stop-color:#1D2021"/>
				<stop  offset="0.6684" style="stop-color:#565B5D"/>
				<stop  offset="1" style="stop-color:#565B5D"/>
			</linearGradient>
			<path fill="url(#SVGID_4_)" d="M277.001,31.499c0-17.369-14.131-31.5-31.499-31.5c-17.37,0-31.501,14.131-31.501,31.5
				c0,17.371,14.131,31.502,31.501,31.502C262.87,63.001,277.001,48.87,277.001,31.499z M216.008,31.499
				c0-16.288,13.204-29.493,29.494-29.493c16.288,0,29.492,13.205,29.492,29.493c0,16.289-13.204,29.494-29.492,29.494
				C229.212,60.993,216.008,47.788,216.008,31.499z"/>
			<linearGradient id="SVGID_5_" gradientUnits="userSpaceOnUse" x1="245.5" y1="56.0771" x2="245.5" y2="6.9224">
				<stop  offset="0" style="stop-color:#D70F0F"/>
				<stop  offset="1" style="stop-color:#8D0E0E"/>
			</linearGradient>
			<path fill="url(#SVGID_5_)" d="M245.5,6.922c-13.572,0-24.578,11.001-24.578,24.577c0,13.574,11.006,24.578,24.578,24.578
				c13.574,0,24.578-11.004,24.578-24.578C270.078,17.923,259.074,6.922,245.5,6.922z M245.5,53.067
				c-11.894,0-21.569-9.676-21.569-21.568c0-11.894,9.676-21.567,21.569-21.567s21.569,9.674,21.569,21.567
				C267.069,43.392,257.394,53.067,245.5,53.067z"/>
			<text transform="matrix(1 0 0 1 231.1738 30.6426)" fill="#EFB3B3" font-family="'ArialMT'" font-size="12">LOW</text>
			<text transform="matrix(1 0 0 1 231.1738 42.9756)" fill="#EFB3B3" font-family="'ArialMT'" font-size="12">LOW</text>
		</g>
	</g>
	<g id="cdpPicture_x5F_Style2">
		<rect x="142.334" y="0" fill="none" width="63" height="63.001"/>
		<g>
			<path fill-rule="evenodd" clip-rule="evenodd" fill="#0A0A0A" d="M173.835,2.006c16.288,0,29.492,13.205,29.492,29.493
				c0,16.289-13.204,29.494-29.492,29.494S144.341,47.788,144.341,31.5C144.341,15.211,157.547,2.006,173.835,2.006"/>
			<linearGradient id="SVGID_6_" gradientUnits="userSpaceOnUse" x1="158.1035" y1="15.7695" x2="189.5813" y2="47.2474">
				<stop  offset="0" style="stop-color:#1D2021"/>
				<stop  offset="0.4337" style="stop-color:#1D2021"/>
				<stop  offset="0.6684" style="stop-color:#565B5D"/>
				<stop  offset="1" style="stop-color:#565B5D"/>
			</linearGradient>
			<path fill="url(#SVGID_6_)" d="M205.334,31.5c0-17.369-14.131-31.5-31.499-31.5c-17.37,0-31.501,14.131-31.501,31.5
				c0,17.371,14.131,31.501,31.501,31.501C191.203,63.001,205.334,48.87,205.334,31.5z M144.341,31.5
				c0-16.288,13.204-29.493,29.494-29.493c16.288,0,29.492,13.205,29.492,29.493c0,16.289-13.204,29.494-29.492,29.494
				C157.545,60.993,144.341,47.788,144.341,31.5z"/>
			<linearGradient id="SVGID_7_" gradientUnits="userSpaceOnUse" x1="173.833" y1="56.0771" x2="173.833" y2="6.9229">
				<stop  offset="0" style="stop-color:#D70F0F"/>
				<stop  offset="1" style="stop-color:#8D0E0E"/>
			</linearGradient>
			<path fill="url(#SVGID_7_)" d="M173.833,6.922c-13.572,0-24.578,11.001-24.578,24.577c0,13.574,11.006,24.578,24.578,24.578
				c13.574,0,24.578-11.004,24.578-24.578C198.411,17.923,187.407,6.922,173.833,6.922z M173.833,53.067
				c-11.894,0-21.569-9.676-21.569-21.568c0-11.894,9.676-21.567,21.569-21.567s21.569,9.674,21.569,21.567
				C195.402,43.392,185.727,53.067,173.833,53.067z"/>
			<text transform="matrix(1 0 0 1 158.5068 36.6426)" fill="#EFB3B3" font-family="'ArialMT'" font-size="13">LOW</text>
		</g>
	</g>
	<g id="cdpPicture_x5F_Style1">
		<rect x="72.334" y="0" fill="none" width="63" height="63"/>
		<g>
			<path fill-rule="evenodd" clip-rule="evenodd" fill="#0A0A0A" d="M103.835,2.006c16.288,0,29.492,13.205,29.492,29.493
				s-13.204,29.493-29.492,29.493c-16.289,0-29.494-13.205-29.494-29.493S87.546,2.006,103.835,2.006"/>
			<linearGradient id="sunkenCircle_19_" gradientUnits="userSpaceOnUse" x1="88.1016" y1="15.7671" x2="119.568" y2="47.2336">
				<stop  offset="0" style="stop-color:#1D2021"/>
				<stop  offset="0.4337" style="stop-color:#1D2021"/>
				<stop  offset="0.6684" style="stop-color:#565B5D"/>
				<stop  offset="1" style="stop-color:#565B5D"/>
			</linearGradient>
			<path id="sunkenCircle_1_" fill="url(#sunkenCircle_19_)" d="M135.334,31.499c0-17.369-14.131-31.5-31.499-31.5
				c-17.37,0-31.501,14.131-31.501,31.5C72.334,48.869,86.465,63,103.835,63C121.203,63,135.334,48.869,135.334,31.499z
				 M74.34,31.499c0-16.288,13.205-29.493,29.495-29.493c16.288,0,29.492,13.205,29.492,29.493c0,16.29-13.204,29.493-29.492,29.493
				C87.545,60.992,74.34,47.789,74.34,31.499z"/>
			<linearGradient id="greenCircle_19_" gradientUnits="userSpaceOnUse" x1="103.834" y1="56.0762" x2="103.834" y2="6.9224">
				<stop  offset="0" style="stop-color:#91CB74"/>
				<stop  offset="1" style="stop-color:#63B13B"/>
			</linearGradient>
			<path id="greenCircle_1_" fill="url(#greenCircle_19_)" d="M103.833,6.922c-13.573,0-24.577,11.001-24.577,24.577
				c0,13.573,11.004,24.577,24.577,24.577c13.576,0,24.578-11.004,24.578-24.577C128.411,17.923,117.409,6.922,103.833,6.922z
				 M103.833,53.068c-11.893,0-21.568-9.676-21.568-21.569S91.94,9.932,103.833,9.932c11.892,0,21.569,9.674,21.569,21.567
				S115.725,53.068,103.833,53.068z"/>
			<text transform="matrix(1 0 0 1 93.2617 36.6416)" fill="#DEFFCE" font-family="'ArialMT'" font-size="13">OK</text>
		</g>
	</g>
	<g id="cdpPicture1Style2">
		<rect x="142.333" y="73.041" fill="none" width="63" height="63.001"/>
		<g>
			<path fill-rule="evenodd" clip-rule="evenodd" fill="#0A0A0A" d="M173.834,75.048c16.288,0,29.492,13.205,29.492,29.493
				s-13.204,29.493-29.492,29.493s-29.494-13.205-29.494-29.493S157.546,75.048,173.834,75.048"/>
			<linearGradient id="SVGID_8_" gradientUnits="userSpaceOnUse" x1="158.1016" y1="88.8105" x2="189.5799" y2="120.2889">
				<stop  offset="0" style="stop-color:#1D2021"/>
				<stop  offset="0.4337" style="stop-color:#1D2021"/>
				<stop  offset="0.6684" style="stop-color:#565B5D"/>
				<stop  offset="1" style="stop-color:#565B5D"/>
			</linearGradient>
			<path fill="url(#SVGID_8_)" d="M205.333,104.541c0-17.369-14.131-31.5-31.499-31.5c-17.37,0-31.501,14.131-31.501,31.5
				c0,17.37,14.131,31.501,31.501,31.501C191.202,136.042,205.333,121.911,205.333,104.541z M144.34,104.541
				c0-16.288,13.204-29.493,29.494-29.493c16.288,0,29.492,13.205,29.492,29.493c0,16.289-13.204,29.493-29.492,29.493
				C157.544,134.034,144.34,120.83,144.34,104.541z"/>
			<linearGradient id="SVGID_9_" gradientUnits="userSpaceOnUse" x1="173.832" y1="129.1182" x2="173.832" y2="79.9639">
				<stop  offset="0" style="stop-color:#D70F0F"/>
				<stop  offset="1" style="stop-color:#8D0E0E"/>
			</linearGradient>
			<path fill="url(#SVGID_9_)" d="M173.832,79.964c-13.572,0-24.578,11.001-24.578,24.577c0,13.573,11.006,24.577,24.578,24.577
				c13.574,0,24.578-11.004,24.578-24.577C198.41,90.965,187.406,79.964,173.832,79.964z M173.832,126.109
				c-11.894,0-21.569-9.676-21.569-21.568c0-11.894,9.676-21.567,21.569-21.567s21.569,9.674,21.569,21.567
				C195.401,116.434,185.726,126.109,173.832,126.109z"/>
			<text transform="matrix(1 0 0 1 157.5059 109.6836)" fill="#EFB3B3" font-family="'ArialMT'" font-size="13">HIGH</text>
		</g>
	</g>
	<g id="cdpPicture1Style1">
		<rect x="72.334" y="73.042" fill="none" width="63" height="63.001"/>
		<g>
			<path fill-rule="evenodd" clip-rule="evenodd" fill="#0A0A0A" d="M103.835,75.049c16.288,0,29.492,13.205,29.492,29.492
				c0,16.289-13.204,29.494-29.492,29.494c-16.289,0-29.494-13.205-29.494-29.494C74.341,88.254,87.546,75.049,103.835,75.049"/>
			<linearGradient id="sunkenCircle_20_" gradientUnits="userSpaceOnUse" x1="88.1016" y1="88.8086" x2="119.5685" y2="120.2756">
				<stop  offset="0" style="stop-color:#1D2021"/>
				<stop  offset="0.4337" style="stop-color:#1D2021"/>
				<stop  offset="0.6684" style="stop-color:#565B5D"/>
				<stop  offset="1" style="stop-color:#565B5D"/>
			</linearGradient>
			<path id="sunkenCircle_2_" fill="url(#sunkenCircle_20_)" d="M135.334,104.541c0-17.369-14.131-31.5-31.499-31.5
				c-17.37,0-31.501,14.131-31.501,31.5c0,17.371,14.131,31.502,31.501,31.502C121.203,136.043,135.334,121.912,135.334,104.541z
				 M74.34,104.541c0-16.287,13.205-29.492,29.495-29.492c16.288,0,29.492,13.205,29.492,29.492
				c0,16.291-13.204,29.494-29.492,29.494C87.545,134.035,74.34,120.832,74.34,104.541z"/>
			<linearGradient id="greenCircle_20_" gradientUnits="userSpaceOnUse" x1="103.834" y1="129.1191" x2="103.834" y2="79.9648">
				<stop  offset="0" style="stop-color:#91CB74"/>
				<stop  offset="1" style="stop-color:#63B13B"/>
			</linearGradient>
			<path id="greenCircle_2_" fill="url(#greenCircle_20_)" d="M103.833,79.965c-13.573,0-24.577,11-24.577,24.576
				c0,13.574,11.004,24.578,24.577,24.578c13.576,0,24.578-11.004,24.578-24.578C128.411,90.965,117.409,79.965,103.833,79.965z
				 M103.833,126.111c-11.893,0-21.568-9.676-21.568-21.57c0-11.893,9.676-21.566,21.568-21.566
				c11.892,0,21.569,9.674,21.569,21.566C125.402,116.436,115.725,126.111,103.833,126.111z"/>
			<text transform="matrix(1 0 0 1 93.2617 109.6836)" fill="#DEFFCE" font-family="'ArialMT'" font-size="13">OK</text>
		</g>
	</g>
	<g id="cdpPicture2Style5">
		<rect x="608.47" y="154.497" fill="none" width="110" height="110.002"/>
		<g>
			<path fill-rule="evenodd" clip-rule="evenodd" fill="#0A0A0A" d="M663.472,157.999c28.439,0,51.494,23.057,51.494,51.498
				c0,28.439-23.055,51.496-51.494,51.496s-51.498-23.057-51.498-51.496C611.974,181.056,635.032,157.999,663.472,157.999"/>
			<linearGradient id="SVGID_10_" gradientUnits="userSpaceOnUse" x1="636.0029" y1="182.0303" x2="690.9644" y2="236.9918">
				<stop  offset="0" style="stop-color:#1D2021"/>
				<stop  offset="0.4337" style="stop-color:#1D2021"/>
				<stop  offset="0.6684" style="stop-color:#565B5D"/>
				<stop  offset="1" style="stop-color:#565B5D"/>
			</linearGradient>
			<path fill="url(#SVGID_10_)" d="M718.47,209.497c0-30.327-24.673-55-54.998-55c-30.329,0-55.002,24.673-55.002,55
				c0,30.329,24.673,55.002,55.002,55.002C693.797,264.499,718.47,239.826,718.47,209.497z M611.974,209.497
				c0-28.441,23.055-51.498,51.498-51.498c28.439,0,51.494,23.057,51.494,51.498c0,28.439-23.055,51.496-51.494,51.496
				C635.028,260.993,611.974,237.937,611.974,209.497z"/>
			<linearGradient id="SVGID_11_" gradientUnits="userSpaceOnUse" x1="663.4678" y1="252.4092" x2="663.4678" y2="166.583">
				<stop  offset="0" style="stop-color:#D70F0F"/>
				<stop  offset="1" style="stop-color:#8D0E0E"/>
			</linearGradient>
			<path fill="url(#SVGID_11_)" d="M663.468,166.583c-23.697,0-42.914,19.21-42.914,42.914c0,23.699,19.217,42.912,42.914,42.912
				c23.701,0,42.914-19.213,42.914-42.912C706.382,185.793,687.169,166.583,663.468,166.583z M663.468,247.154
				c-20.767,0-37.66-16.895-37.66-37.657c0-20.769,16.894-37.659,37.66-37.659s37.661,16.891,37.661,37.659
				C701.129,230.26,684.234,247.154,663.468,247.154z"/>
			<text transform="matrix(1 0 0 1 641.1992 214.5293)" fill="#EFB3B3" font-family="'ArialMT'" font-size="13">ERROR</text>
		</g>
	</g>
	<g id="cdpPicture2Style4">
		<rect x="484.831" y="154.879" fill="none" width="110" height="110.001"/>
		<g>
			<path fill-rule="evenodd" clip-rule="evenodd" fill="#0A0A0A" d="M539.833,158.381c28.439,0,51.494,23.057,51.494,51.498
				c0,28.439-23.055,51.496-51.494,51.496s-51.498-23.057-51.498-51.496C488.335,181.438,511.394,158.381,539.833,158.381"/>
			<linearGradient id="SVGID_12_" gradientUnits="userSpaceOnUse" x1="512.3643" y1="182.4131" x2="567.3253" y2="237.3741">
				<stop  offset="0" style="stop-color:#1D2021"/>
				<stop  offset="0.4337" style="stop-color:#1D2021"/>
				<stop  offset="0.6684" style="stop-color:#565B5D"/>
				<stop  offset="1" style="stop-color:#565B5D"/>
			</linearGradient>
			<path fill="url(#SVGID_12_)" d="M594.831,209.879c0-30.327-24.673-55-54.998-55c-30.329,0-55.002,24.673-55.002,55
				c0,30.328,24.673,55.001,55.002,55.001C570.158,264.88,594.831,240.207,594.831,209.879z M488.335,209.879
				c0-28.441,23.055-51.498,51.498-51.498c28.439,0,51.494,23.057,51.494,51.498c0,28.439-23.055,51.496-51.494,51.496
				C511.39,261.375,488.335,238.318,488.335,209.879z"/>
			<linearGradient id="SVGID_13_" gradientUnits="userSpaceOnUse" x1="539.8291" y1="252.791" x2="539.8291" y2="166.9639">
				<stop  offset="0" style="stop-color:#D70F0F"/>
				<stop  offset="1" style="stop-color:#8D0E0E"/>
			</linearGradient>
			<path fill="url(#SVGID_13_)" d="M539.829,166.964c-23.697,0-42.914,19.21-42.914,42.915c0,23.699,19.217,42.912,42.914,42.912
				c23.701,0,42.914-19.213,42.914-42.912C582.743,186.174,563.53,166.964,539.829,166.964z M539.829,247.536
				c-20.767,0-37.66-16.895-37.66-37.657c0-20.769,16.894-37.659,37.66-37.659s37.661,16.891,37.661,37.659
				C577.49,230.642,560.596,247.536,539.829,247.536z"/>
			<text transform="matrix(1 0 0 1 509.3232 214.9121)" display="none" fill="#EFB3B3" font-family="'ArialMT'" font-size="13">STOPPED</text>
			<g>
				<path fill="#EFB3B3" d="M509.907,211.922l1.162-0.102c0.055,0.466,0.183,0.848,0.384,1.146c0.201,0.298,0.513,0.539,0.937,0.724
					c0.423,0.184,0.898,0.276,1.428,0.276c0.47,0,0.885-0.07,1.244-0.21c0.36-0.14,0.628-0.331,0.804-0.574
					c0.175-0.243,0.263-0.509,0.263-0.797c0-0.292-0.084-0.547-0.254-0.765c-0.169-0.218-0.448-0.401-0.838-0.549
					c-0.249-0.098-0.802-0.249-1.656-0.454c-0.855-0.205-1.454-0.399-1.797-0.581c-0.444-0.232-0.775-0.521-0.993-0.866
					s-0.327-0.731-0.327-1.159c0-0.469,0.134-0.908,0.4-1.316s0.655-0.719,1.168-0.93c0.512-0.212,1.081-0.318,1.707-0.318
					c0.689,0,1.299,0.111,1.825,0.334c0.527,0.222,0.932,0.549,1.216,0.98c0.283,0.432,0.436,0.92,0.457,1.467l-1.181,0.088
					c-0.063-0.588-0.278-1.032-0.645-1.332c-0.366-0.301-0.906-0.451-1.622-0.451c-0.745,0-1.287,0.137-1.628,0.409
					c-0.341,0.273-0.511,0.603-0.511,0.987c0,0.334,0.12,0.609,0.361,0.825c0.237,0.216,0.856,0.437,1.856,0.663
					c1.001,0.227,1.688,0.425,2.061,0.594c0.541,0.25,0.941,0.566,1.199,0.949c0.259,0.383,0.388,0.824,0.388,1.323
					c0,0.495-0.142,0.962-0.426,1.399c-0.283,0.438-0.69,0.779-1.222,1.022s-1.129,0.364-1.793,0.364
					c-0.843,0-1.548-0.122-2.117-0.367c-0.569-0.246-1.016-0.615-1.34-1.108C510.095,213.102,509.924,212.545,509.907,211.922z"/>
				<path fill="#EFB3B3" d="M521.365,214.912v-8.207h-3.066v-1.099h7.376v1.099h-3.078v8.207H521.365z"/>
				<path fill="#EFB3B3" d="M526.564,210.38c0-1.545,0.414-2.754,1.244-3.628c0.829-0.874,1.899-1.311,3.212-1.311
					c0.858,0,1.633,0.205,2.323,0.615c0.689,0.411,1.216,0.983,1.577,1.718c0.362,0.734,0.543,1.566,0.543,2.497
					c0,0.944-0.19,1.788-0.571,2.533s-0.921,1.309-1.619,1.691s-1.451,0.574-2.26,0.574c-0.876,0-1.659-0.211-2.349-0.635
					c-0.689-0.423-1.212-1-1.567-1.732S526.564,211.196,526.564,210.38z M527.834,210.398c0,1.122,0.301,2.005,0.904,2.65
					c0.603,0.646,1.359,0.969,2.27,0.969c0.927,0,1.689-0.326,2.288-0.979c0.599-0.651,0.898-1.576,0.898-2.773
					c0-0.758-0.128-1.419-0.384-1.983c-0.257-0.565-0.631-1.003-1.124-1.314c-0.493-0.311-1.046-0.466-1.66-0.466
					c-0.872,0-1.622,0.299-2.25,0.897C528.147,207.998,527.834,208.998,527.834,210.398z"/>
				<path fill="#EFB3B3" d="M537.051,214.912v-9.306h3.511c0.617,0,1.09,0.029,1.415,0.089c0.457,0.076,0.84,0.221,1.149,0.435
					c0.309,0.214,0.558,0.514,0.746,0.898c0.188,0.385,0.282,0.809,0.282,1.27c0,0.791-0.252,1.461-0.756,2.009
					c-0.503,0.548-1.413,0.822-2.729,0.822h-2.387v3.783H537.051z M538.282,210.031h2.406c0.795,0,1.36-0.148,1.694-0.445
					c0.335-0.296,0.502-0.713,0.502-1.25c0-0.39-0.099-0.723-0.295-1c-0.197-0.277-0.456-0.46-0.778-0.549
					c-0.207-0.055-0.59-0.082-1.148-0.082h-2.381V210.031z"/>
				<path fill="#EFB3B3" d="M545.723,214.912v-9.306h3.511c0.617,0,1.09,0.029,1.415,0.089c0.457,0.076,0.84,0.221,1.149,0.435
					c0.309,0.214,0.558,0.514,0.746,0.898c0.188,0.385,0.282,0.809,0.282,1.27c0,0.791-0.252,1.461-0.756,2.009
					c-0.503,0.548-1.413,0.822-2.729,0.822h-2.387v3.783H545.723z M546.954,210.031h2.406c0.795,0,1.36-0.148,1.694-0.445
					c0.335-0.296,0.502-0.713,0.502-1.25c0-0.39-0.099-0.723-0.295-1c-0.197-0.277-0.456-0.46-0.778-0.549
					c-0.207-0.055-0.59-0.082-1.148-0.082h-2.381V210.031z"/>
				<path fill="#EFB3B3" d="M554.419,214.912v-9.306h6.729v1.099h-5.497v2.85h5.148v1.092h-5.148v3.168h5.713v1.098H554.419z"/>
				<path fill="#EFB3B3" d="M563.064,214.912v-9.306h3.206c0.724,0,1.275,0.044,1.656,0.134c0.533,0.122,0.988,0.345,1.365,0.666
					c0.491,0.415,0.857,0.944,1.102,1.59c0.243,0.646,0.364,1.383,0.364,2.213c0,0.706-0.082,1.332-0.247,1.879
					c-0.165,0.545-0.377,0.997-0.635,1.354c-0.259,0.357-0.541,0.64-0.848,0.845s-0.677,0.36-1.11,0.467
					c-0.435,0.105-0.933,0.158-1.495,0.158H563.064z M564.296,213.814h1.987c0.613,0,1.095-0.058,1.444-0.172
					c0.349-0.114,0.627-0.275,0.834-0.482c0.292-0.292,0.52-0.685,0.683-1.178s0.244-1.091,0.244-1.793
					c0-0.974-0.159-1.722-0.479-2.244c-0.32-0.522-0.708-0.873-1.165-1.051c-0.33-0.127-0.861-0.189-1.594-0.189h-1.955V213.814z"/>
			</g>
		</g>
	</g>
	<g id="cdpPicture2Style3">
		<rect x="361.833" y="154.499" fill="none" width="110" height="110.001"/>
		<g>
			<path fill-rule="evenodd" clip-rule="evenodd" fill="#0A0A0A" d="M416.835,158.001c28.439,0,51.494,23.057,51.494,51.498
				c0,28.439-23.055,51.496-51.494,51.496s-51.498-23.057-51.498-51.496C365.337,181.058,388.396,158.001,416.835,158.001"/>
			<linearGradient id="SVGID_14_" gradientUnits="userSpaceOnUse" x1="389.3662" y1="182.0322" x2="444.3277" y2="236.9937">
				<stop  offset="0" style="stop-color:#1D2021"/>
				<stop  offset="0.4337" style="stop-color:#1D2021"/>
				<stop  offset="0.6684" style="stop-color:#565B5D"/>
				<stop  offset="1" style="stop-color:#565B5D"/>
			</linearGradient>
			<path fill="url(#SVGID_14_)" d="M471.833,209.499c0-30.327-24.673-55-54.998-55c-30.329,0-55.002,24.673-55.002,55
				c0,30.328,24.673,55.001,55.002,55.001C447.16,264.5,471.833,239.827,471.833,209.499z M365.337,209.499
				c0-28.441,23.055-51.498,51.498-51.498c28.439,0,51.494,23.057,51.494,51.498c0,28.439-23.055,51.496-51.494,51.496
				C388.392,260.995,365.337,237.938,365.337,209.499z"/>
			<linearGradient id="SVGID_15_" gradientUnits="userSpaceOnUse" x1="416.8311" y1="252.4111" x2="416.8311" y2="166.584">
				<stop  offset="0" style="stop-color:#D70F0F"/>
				<stop  offset="1" style="stop-color:#8D0E0E"/>
			</linearGradient>
			<path fill="url(#SVGID_15_)" d="M416.831,166.584c-23.697,0-42.914,19.21-42.914,42.915c0,23.699,19.217,42.912,42.914,42.912
				c23.701,0,42.914-19.213,42.914-42.912C459.745,185.794,440.532,166.584,416.831,166.584z M416.831,247.156
				c-20.767,0-37.66-16.895-37.66-37.657c0-20.769,16.894-37.659,37.66-37.659s37.661,16.891,37.661,37.659
				C454.492,230.262,437.598,247.156,416.831,247.156z"/>
			<text transform="matrix(1 0 0 1 383.3252 214.5322)" display="none" fill="#EFB3B3" font-family="'ArialMT'" font-size="13">STOPPING</text>
			<g>
				<path fill="#EFB3B3" d="M383.909,211.542l1.162-0.102c0.055,0.466,0.183,0.848,0.384,1.146c0.201,0.298,0.513,0.539,0.937,0.724
					c0.423,0.184,0.898,0.276,1.428,0.276c0.47,0,0.885-0.07,1.244-0.21c0.36-0.14,0.628-0.331,0.804-0.574
					c0.175-0.243,0.263-0.509,0.263-0.797c0-0.292-0.084-0.547-0.254-0.765c-0.169-0.218-0.448-0.401-0.838-0.549
					c-0.249-0.098-0.802-0.249-1.656-0.454c-0.855-0.205-1.454-0.399-1.797-0.581c-0.444-0.232-0.775-0.521-0.993-0.866
					s-0.327-0.731-0.327-1.159c0-0.469,0.134-0.908,0.4-1.316s0.655-0.719,1.168-0.93c0.512-0.212,1.081-0.318,1.707-0.318
					c0.69,0,1.299,0.111,1.825,0.334c0.527,0.222,0.932,0.549,1.216,0.98c0.283,0.432,0.436,0.92,0.457,1.467l-1.181,0.088
					c-0.063-0.588-0.278-1.032-0.645-1.332c-0.366-0.301-0.906-0.451-1.622-0.451c-0.745,0-1.287,0.137-1.628,0.409
					c-0.341,0.273-0.511,0.603-0.511,0.987c0,0.334,0.12,0.609,0.361,0.825c0.237,0.216,0.856,0.437,1.856,0.663
					c1.001,0.227,1.688,0.425,2.061,0.594c0.541,0.25,0.941,0.566,1.199,0.949c0.259,0.383,0.388,0.824,0.388,1.323
					c0,0.495-0.142,0.962-0.426,1.399c-0.283,0.438-0.69,0.779-1.222,1.022s-1.129,0.364-1.793,0.364
					c-0.843,0-1.548-0.122-2.117-0.367c-0.569-0.246-1.016-0.615-1.34-1.108C384.097,212.722,383.926,212.165,383.909,211.542z"/>
				<path fill="#EFB3B3" d="M395.367,214.532v-8.207h-3.066v-1.099h7.376v1.099h-3.078v8.207H395.367z"/>
				<path fill="#EFB3B3" d="M400.566,210c0-1.545,0.414-2.754,1.244-3.628c0.829-0.874,1.899-1.311,3.212-1.311
					c0.858,0,1.633,0.205,2.323,0.615c0.689,0.411,1.216,0.983,1.577,1.718c0.362,0.734,0.543,1.566,0.543,2.497
					c0,0.944-0.19,1.788-0.571,2.533s-0.921,1.309-1.619,1.691s-1.451,0.574-2.26,0.574c-0.876,0-1.659-0.211-2.349-0.635
					c-0.689-0.423-1.212-1-1.567-1.732S400.566,210.816,400.566,210z M401.836,210.019c0,1.122,0.301,2.005,0.904,2.65
					c0.603,0.646,1.359,0.969,2.27,0.969c0.927,0,1.689-0.326,2.288-0.979c0.599-0.651,0.898-1.576,0.898-2.773
					c0-0.758-0.128-1.419-0.384-1.983c-0.257-0.565-0.631-1.003-1.124-1.314c-0.493-0.311-1.046-0.466-1.66-0.466
					c-0.872,0-1.622,0.299-2.25,0.897C402.149,207.618,401.836,208.618,401.836,210.019z"/>
				<path fill="#EFB3B3" d="M411.053,214.532v-9.306h3.511c0.617,0,1.09,0.029,1.415,0.089c0.457,0.076,0.84,0.221,1.149,0.435
					c0.309,0.214,0.558,0.514,0.746,0.898c0.188,0.385,0.282,0.809,0.282,1.27c0,0.791-0.252,1.461-0.756,2.009
					c-0.503,0.548-1.413,0.822-2.729,0.822h-2.387v3.783H411.053z M412.284,209.651h2.406c0.795,0,1.36-0.148,1.694-0.445
					c0.335-0.296,0.502-0.713,0.502-1.25c0-0.39-0.099-0.723-0.295-1c-0.197-0.277-0.456-0.46-0.778-0.549
					c-0.207-0.055-0.59-0.082-1.148-0.082h-2.381V209.651z"/>
				<path fill="#EFB3B3" d="M419.725,214.532v-9.306h3.511c0.617,0,1.09,0.029,1.415,0.089c0.457,0.076,0.84,0.221,1.149,0.435
					c0.309,0.214,0.558,0.514,0.746,0.898c0.188,0.385,0.282,0.809,0.282,1.27c0,0.791-0.252,1.461-0.756,2.009
					c-0.503,0.548-1.413,0.822-2.729,0.822h-2.387v3.783H419.725z M420.956,209.651h2.406c0.795,0,1.36-0.148,1.694-0.445
					c0.335-0.296,0.502-0.713,0.502-1.25c0-0.39-0.099-0.723-0.295-1c-0.197-0.277-0.456-0.46-0.778-0.549
					c-0.207-0.055-0.59-0.082-1.148-0.082h-2.381V209.651z"/>
				<path fill="#EFB3B3" d="M428.605,214.532v-9.306h1.231v9.306H428.605z"/>
				<path fill="#EFB3B3" d="M431.995,214.532v-9.306h1.264l4.888,7.306v-7.306h1.181v9.306h-1.264l-4.888-7.313v7.313H431.995z"/>
				<path fill="#EFB3B3" d="M445.751,210.882v-1.092l3.942-0.006v3.453c-0.605,0.482-1.229,0.846-1.873,1.089
					c-0.643,0.243-1.303,0.364-1.98,0.364c-0.914,0-1.744-0.195-2.491-0.587s-1.311-0.957-1.691-1.698
					c-0.381-0.74-0.571-1.567-0.571-2.481c0-0.905,0.188-1.751,0.567-2.536s0.924-1.367,1.635-1.748s1.53-0.572,2.457-0.572
					c0.673,0,1.281,0.109,1.825,0.327c0.543,0.218,0.97,0.521,1.278,0.911c0.31,0.39,0.544,0.897,0.705,1.523l-1.111,0.305
					c-0.14-0.474-0.313-0.847-0.521-1.117c-0.207-0.271-0.503-0.487-0.889-0.65c-0.385-0.163-0.813-0.244-1.282-0.244
					c-0.563,0-1.05,0.085-1.46,0.257c-0.41,0.171-0.741,0.396-0.993,0.676s-0.447,0.586-0.587,0.921
					c-0.237,0.575-0.355,1.199-0.355,1.872c0,0.829,0.143,1.523,0.428,2.082c0.286,0.559,0.702,0.974,1.248,1.244
					s1.125,0.406,1.739,0.406c0.533,0,1.054-0.103,1.562-0.308s0.893-0.425,1.155-0.657v-1.733H445.751z"/>
			</g>
		</g>
	</g>
	<g id="cdpPicture2Style2">
		<rect x="241.166" y="154.501" fill="none" width="110" height="110"/>
		<g>
			<path fill-rule="evenodd" clip-rule="evenodd" fill="#0A0A0A" d="M296.168,158.003c28.439,0,51.494,23.057,51.494,51.496
				s-23.055,51.496-51.494,51.496c-28.441,0-51.498-23.057-51.498-51.496S267.727,158.003,296.168,158.003"/>
			<linearGradient id="sunkenCircle_21_" gradientUnits="userSpaceOnUse" x1="268.6943" y1="182.0283" x2="323.6368" y2="236.9708">
				<stop  offset="0" style="stop-color:#1D2021"/>
				<stop  offset="0.4337" style="stop-color:#1D2021"/>
				<stop  offset="0.6684" style="stop-color:#565B5D"/>
				<stop  offset="1" style="stop-color:#565B5D"/>
			</linearGradient>
			<path id="sunkenCircle_4_" fill="url(#sunkenCircle_21_)" d="M351.166,209.499c0-30.327-24.673-55-54.998-55
				c-30.329,0-55.002,24.673-55.002,55c0,30.328,24.673,55.002,55.002,55.002C326.493,264.501,351.166,239.827,351.166,209.499z
				 M244.668,209.499c0-28.439,23.057-51.496,51.5-51.496c28.439,0,51.494,23.057,51.494,51.496
				c0,28.442-23.055,51.496-51.494,51.496C267.725,260.995,244.668,237.941,244.668,209.499z"/>
			<linearGradient id="greenCircle_21_" gradientUnits="userSpaceOnUse" x1="296.165" y1="252.4111" x2="296.165" y2="166.5859">
				<stop  offset="0" style="stop-color:#91CB74"/>
				<stop  offset="1" style="stop-color:#63B13B"/>
			</linearGradient>
			<path id="greenCircle_4_" fill="url(#greenCircle_21_)" d="M296.164,166.586c-23.699,0-42.912,19.208-42.912,42.913
				c0,23.699,19.213,42.912,42.912,42.912c23.705,0,42.914-19.213,42.914-42.912C339.078,185.794,319.869,166.586,296.164,166.586z
				 M296.164,247.159c-20.765,0-37.659-16.894-37.659-37.66s16.895-37.657,37.659-37.657c20.764,0,37.661,16.891,37.661,37.657
				S316.928,247.159,296.164,247.159z"/>
			<text transform="matrix(1 0 0 1 267.2324 214.5322)" fill="#DEFFCE" font-family="'ArialMT'" font-size="13">RUNNING</text>
		</g>
	</g>
	<g id="cdpPicture2Style1">
		<rect x="118.834" y="154.501" fill="none" width="110" height="110"/>
		<g>
			<path fill-rule="evenodd" clip-rule="evenodd" fill="#0A0A0A" d="M173.836,158.003c28.439,0,51.494,23.057,51.494,51.496
				s-23.055,51.496-51.494,51.496c-28.441,0-51.498-23.057-51.498-51.496S145.395,158.003,173.836,158.003"/>
			<linearGradient id="sunkenCircle_22_" gradientUnits="userSpaceOnUse" x1="146.3623" y1="182.0283" x2="201.3048" y2="236.9708">
				<stop  offset="0" style="stop-color:#1D2021"/>
				<stop  offset="0.4337" style="stop-color:#1D2021"/>
				<stop  offset="0.6684" style="stop-color:#565B5D"/>
				<stop  offset="1" style="stop-color:#565B5D"/>
			</linearGradient>
			<path id="sunkenCircle_6_" fill="url(#sunkenCircle_22_)" d="M228.834,209.499c0-30.327-24.673-55-54.998-55
				c-30.329,0-55.002,24.673-55.002,55c0,30.328,24.673,55.002,55.002,55.002C204.161,264.501,228.834,239.827,228.834,209.499z
				 M122.336,209.499c0-28.439,23.057-51.496,51.5-51.496c28.439,0,51.494,23.057,51.494,51.496
				c0,28.442-23.055,51.496-51.494,51.496C145.393,260.995,122.336,237.941,122.336,209.499z"/>
			<linearGradient id="greenCircle_22_" gradientUnits="userSpaceOnUse" x1="173.833" y1="252.4111" x2="173.833" y2="166.5859">
				<stop  offset="0" style="stop-color:#91CB74"/>
				<stop  offset="1" style="stop-color:#63B13B"/>
			</linearGradient>
			<path id="greenCircle_6_" fill="url(#greenCircle_22_)" d="M173.832,166.586c-23.699,0-42.912,19.208-42.912,42.913
				c0,23.699,19.213,42.912,42.912,42.912c23.705,0,42.914-19.213,42.914-42.912C216.746,185.794,197.537,166.586,173.832,166.586z
				 M173.832,247.159c-20.765,0-37.659-16.894-37.659-37.66s16.895-37.657,37.659-37.657c20.764,0,37.661,16.891,37.661,37.657
				S194.596,247.159,173.832,247.159z"/>
			<text transform="matrix(1 0 0 1 141.2891 214.5322)" display="none" fill="#DEFFCE" font-family="'ArialMT'" font-size="13">STARTING</text>
			<g id="textPaths">
				<path fill="#DEFFCE" d="M141.736,211.542l1.162-0.102c0.055,0.466,0.184,0.848,0.385,1.146c0.201,0.298,0.512,0.539,0.936,0.724
					c0.424,0.184,0.898,0.276,1.428,0.276c0.471,0,0.885-0.07,1.244-0.21c0.361-0.14,0.629-0.331,0.805-0.574
					c0.174-0.243,0.262-0.509,0.262-0.797c0-0.292-0.084-0.547-0.254-0.765c-0.168-0.218-0.447-0.401-0.838-0.549
					c-0.248-0.098-0.801-0.249-1.656-0.454s-1.453-0.399-1.797-0.581c-0.443-0.232-0.775-0.521-0.992-0.866
					c-0.219-0.345-0.328-0.731-0.328-1.159c0-0.469,0.135-0.908,0.4-1.316c0.268-0.408,0.656-0.719,1.168-0.93
					c0.512-0.212,1.082-0.318,1.707-0.318c0.689,0,1.299,0.111,1.826,0.334c0.527,0.222,0.932,0.549,1.215,0.98
					s0.436,0.92,0.457,1.467l-1.18,0.088c-0.064-0.588-0.279-1.032-0.645-1.332c-0.367-0.301-0.906-0.451-1.623-0.451
					c-0.744,0-1.287,0.137-1.627,0.409c-0.342,0.273-0.512,0.603-0.512,0.987c0,0.334,0.121,0.609,0.361,0.825
					c0.238,0.216,0.857,0.437,1.857,0.663s1.688,0.425,2.061,0.594c0.541,0.25,0.941,0.566,1.199,0.949s0.387,0.824,0.387,1.323
					c0,0.495-0.141,0.962-0.426,1.399c-0.283,0.438-0.689,0.779-1.221,1.022s-1.129,0.364-1.793,0.364
					c-0.844,0-1.549-0.122-2.117-0.367c-0.57-0.246-1.016-0.615-1.34-1.108S141.754,212.165,141.736,211.542z"/>
				<path fill="#DEFFCE" d="M153.195,214.532v-8.207h-3.066v-1.099h7.375v1.099h-3.078v8.207H153.195z"/>
				<path fill="#DEFFCE" d="M157.746,214.532l3.574-9.306h1.326l3.809,9.306h-1.402l-1.086-2.818h-3.891l-1.021,2.818H157.746z
					 M160.432,210.711h3.154l-0.971-2.577c-0.297-0.783-0.518-1.426-0.66-1.93c-0.119,0.597-0.285,1.189-0.502,1.777
					L160.432,210.711z"/>
				<path fill="#DEFFCE" d="M167.459,214.532v-9.306h4.127c0.828,0,1.459,0.084,1.891,0.251s0.777,0.462,1.035,0.885
					c0.258,0.424,0.387,0.892,0.387,1.403c0,0.66-0.213,1.217-0.641,1.669c-0.428,0.453-1.088,0.741-1.98,0.863
					c0.326,0.157,0.572,0.312,0.742,0.464c0.359,0.33,0.701,0.743,1.021,1.237l1.619,2.533h-1.549l-1.23-1.936
					c-0.361-0.559-0.656-0.986-0.889-1.283c-0.234-0.296-0.441-0.503-0.627-0.621c-0.184-0.119-0.371-0.201-0.561-0.248
					c-0.141-0.029-0.369-0.045-0.686-0.045h-1.428v4.133H167.459z M168.691,209.333h2.646c0.563,0,1.002-0.058,1.32-0.174
					c0.316-0.116,0.559-0.303,0.723-0.559c0.166-0.256,0.248-0.534,0.248-0.835c0-0.44-0.16-0.802-0.479-1.085
					c-0.32-0.284-0.824-0.426-1.514-0.426h-2.945V209.333z"/>
				<path fill="#DEFFCE" d="M179.197,214.532v-8.207h-3.066v-1.099h7.375v1.099h-3.078v8.207H179.197z"/>
				<path fill="#DEFFCE" d="M184.979,214.532v-9.306h1.232v9.306H184.979z"/>
				<path fill="#DEFFCE" d="M188.369,214.532v-9.306h1.264l4.887,7.306v-7.306h1.182v9.306h-1.264l-4.889-7.313v7.313H188.369z"/>
				<path fill="#DEFFCE" d="M202.125,210.882v-1.092l3.941-0.006v3.453c-0.605,0.482-1.229,0.846-1.873,1.089
					c-0.643,0.243-1.303,0.364-1.98,0.364c-0.914,0-1.744-0.195-2.49-0.587c-0.748-0.392-1.311-0.957-1.691-1.698
					c-0.381-0.74-0.572-1.567-0.572-2.481c0-0.905,0.189-1.751,0.568-2.536s0.924-1.367,1.635-1.748s1.529-0.572,2.457-0.572
					c0.672,0,1.281,0.109,1.824,0.327s0.971,0.521,1.279,0.911s0.543,0.897,0.705,1.523l-1.111,0.305
					c-0.141-0.474-0.313-0.847-0.521-1.117c-0.207-0.271-0.502-0.487-0.889-0.65c-0.385-0.163-0.813-0.244-1.281-0.244
					c-0.563,0-1.051,0.085-1.461,0.257c-0.41,0.171-0.74,0.396-0.992,0.676s-0.447,0.586-0.588,0.921
					c-0.236,0.575-0.355,1.199-0.355,1.872c0,0.829,0.143,1.523,0.428,2.082c0.287,0.559,0.703,0.974,1.248,1.244
					c0.547,0.271,1.125,0.406,1.74,0.406c0.533,0,1.053-0.103,1.561-0.308s0.893-0.425,1.156-0.657v-1.733H202.125z"/>
			</g>
		</g>
	</g>
	<g id="cdpPicture3Style3">
		<rect x="359.604" y="281.926" fill="none" width="110" height="110"/>
		<g>
			<path fill-rule="evenodd" clip-rule="evenodd" fill="#0A0A0A" d="M414.606,285.428c28.439,0,51.494,23.057,51.494,51.496
				s-23.055,51.496-51.494,51.496c-28.441,0-51.498-23.057-51.498-51.496S386.165,285.428,414.606,285.428"/>
			<linearGradient id="sunkenCircle_23_" gradientUnits="userSpaceOnUse" x1="387.1328" y1="309.4531" x2="442.0753" y2="364.3956">
				<stop  offset="0" style="stop-color:#1D2021"/>
				<stop  offset="0.4337" style="stop-color:#1D2021"/>
				<stop  offset="0.6684" style="stop-color:#565B5D"/>
				<stop  offset="1" style="stop-color:#565B5D"/>
			</linearGradient>
			<path id="sunkenCircle_8_" fill="url(#sunkenCircle_23_)" d="M469.604,336.924c0-30.327-24.673-55-54.998-55
				c-30.329,0-55.002,24.673-55.002,55c0,30.328,24.673,55.002,55.002,55.002C444.932,391.926,469.604,367.252,469.604,336.924z
				 M363.106,336.924c0-28.439,23.057-51.496,51.5-51.496c28.439,0,51.494,23.057,51.494,51.496
				c0,28.442-23.055,51.496-51.494,51.496C386.163,388.42,363.106,365.366,363.106,336.924z"/>
			<linearGradient id="greenCircle_23_" gradientUnits="userSpaceOnUse" x1="414.6035" y1="379.8359" x2="414.6035" y2="294.0107">
				<stop  offset="0" style="stop-color:#91CB74"/>
				<stop  offset="1" style="stop-color:#63B13B"/>
			</linearGradient>
			<path id="greenCircle_8_" fill="url(#greenCircle_23_)" d="M414.603,294.011c-23.699,0-42.912,19.208-42.912,42.913
				c0,23.699,19.213,42.912,42.912,42.912c23.705,0,42.914-19.213,42.914-42.912C457.517,313.219,438.308,294.011,414.603,294.011z
				 M414.603,374.584c-20.765,0-37.659-16.894-37.659-37.66s16.895-37.657,37.659-37.657c20.764,0,37.661,16.891,37.661,37.657
				S435.366,374.584,414.603,374.584z"/>
			<text transform="matrix(1 0 0 1 400.8809 342.1182)" fill="#DEFFCE" font-family="'ArialMT'" font-size="13">AHC</text>
		</g>
	</g>
	<g id="cdpPicture3Style2">
		<rect x="241.165" y="281.544" fill="none" width="110" height="110"/>
		<g>
			<path fill-rule="evenodd" clip-rule="evenodd" fill="#0A0A0A" d="M296.167,285.046c28.439,0,51.494,23.057,51.494,51.496
				s-23.055,51.496-51.494,51.496c-28.441,0-51.498-23.057-51.498-51.496S267.726,285.046,296.167,285.046"/>
			<linearGradient id="sunkenCircle_24_" gradientUnits="userSpaceOnUse" x1="268.6943" y1="309.0713" x2="323.6368" y2="364.0138">
				<stop  offset="0" style="stop-color:#1D2021"/>
				<stop  offset="0.4337" style="stop-color:#1D2021"/>
				<stop  offset="0.6684" style="stop-color:#565B5D"/>
				<stop  offset="1" style="stop-color:#565B5D"/>
			</linearGradient>
			<path id="sunkenCircle_9_" fill="url(#sunkenCircle_24_)" d="M351.165,336.542c0-30.327-24.673-55-54.998-55
				c-30.329,0-55.002,24.673-55.002,55c0,30.328,24.673,55.002,55.002,55.002C326.492,391.544,351.165,366.87,351.165,336.542z
				 M244.667,336.542c0-28.439,23.057-51.496,51.5-51.496c28.439,0,51.494,23.057,51.494,51.496
				c0,28.442-23.055,51.496-51.494,51.496C267.724,388.038,244.667,364.984,244.667,336.542z"/>
			<linearGradient id="greenCircle_24_" gradientUnits="userSpaceOnUse" x1="296.1641" y1="379.4541" x2="296.1641" y2="293.6289">
				<stop  offset="0" style="stop-color:#91CB74"/>
				<stop  offset="1" style="stop-color:#63B13B"/>
			</linearGradient>
			<path id="greenCircle_9_" fill="url(#greenCircle_24_)" d="M296.163,293.629c-23.699,0-42.912,19.208-42.912,42.913
				c0,23.699,19.213,42.912,42.912,42.912c23.705,0,42.914-19.213,42.914-42.912C339.077,312.837,319.868,293.629,296.163,293.629z
				 M296.163,374.202c-20.765,0-37.659-16.894-37.659-37.66s16.895-37.657,37.659-37.657c20.764,0,37.661,16.891,37.661,37.657
				S316.927,374.202,296.163,374.202z"/>
			<g>
				<path fill="#DEFFCE" d="M264.245,338.746l1.162-0.102c0.055,0.466,0.183,0.848,0.384,1.146c0.201,0.298,0.513,0.539,0.937,0.724
					c0.423,0.184,0.898,0.276,1.428,0.276c0.47,0,0.885-0.07,1.244-0.21c0.36-0.14,0.628-0.331,0.804-0.574
					c0.175-0.243,0.263-0.509,0.263-0.797c0-0.292-0.084-0.547-0.254-0.765c-0.169-0.218-0.448-0.401-0.838-0.549
					c-0.249-0.098-0.802-0.249-1.656-0.454c-0.855-0.205-1.454-0.399-1.797-0.581c-0.444-0.232-0.775-0.521-0.993-0.866
					s-0.327-0.731-0.327-1.159c0-0.469,0.134-0.908,0.4-1.316s0.655-0.719,1.168-0.93c0.512-0.212,1.081-0.318,1.707-0.318
					c0.69,0,1.299,0.111,1.825,0.334c0.527,0.222,0.932,0.549,1.216,0.98c0.283,0.432,0.436,0.92,0.457,1.467l-1.181,0.088
					c-0.063-0.588-0.278-1.032-0.645-1.332c-0.366-0.301-0.906-0.451-1.622-0.451c-0.745,0-1.287,0.137-1.628,0.409
					c-0.341,0.273-0.511,0.603-0.511,0.987c0,0.334,0.12,0.609,0.361,0.825c0.237,0.216,0.856,0.437,1.856,0.663
					c1.001,0.227,1.688,0.425,2.061,0.594c0.541,0.25,0.941,0.566,1.199,0.949c0.259,0.383,0.388,0.824,0.388,1.323
					c0,0.495-0.142,0.962-0.426,1.399c-0.283,0.438-0.69,0.779-1.222,1.022s-1.129,0.364-1.793,0.364
					c-0.843,0-1.548-0.122-2.117-0.367c-0.569-0.246-1.016-0.615-1.34-1.108C264.433,339.926,264.262,339.369,264.245,338.746z"/>
				<path fill="#DEFFCE" d="M275.957,341.736v-3.941l-3.587-5.364h1.498l1.835,2.806c0.338,0.524,0.653,1.05,0.945,1.574
					c0.279-0.486,0.618-1.035,1.016-1.645l1.803-2.735h1.435l-3.713,5.364v3.941H275.957z"/>
				<path fill="#DEFFCE" d="M281.994,341.736v-9.306h1.264l4.888,7.306v-7.306h1.181v9.306h-1.264l-4.888-7.313v7.313H281.994z"/>
				<path fill="#DEFFCE" d="M298.035,338.474l1.231,0.312c-0.258,1.011-0.723,1.782-1.393,2.313
					c-0.671,0.531-1.491,0.796-2.46,0.796c-1.003,0-1.819-0.204-2.447-0.612c-0.629-0.408-1.106-0.999-1.435-1.774
					c-0.328-0.773-0.492-1.605-0.492-2.494c0-0.969,0.186-1.814,0.556-2.536s0.896-1.27,1.58-1.644
					c0.684-0.375,1.436-0.563,2.257-0.563c0.932,0,1.714,0.237,2.349,0.711c0.635,0.475,1.077,1.141,1.327,2l-1.213,0.285
					c-0.216-0.677-0.528-1.17-0.939-1.479c-0.41-0.309-0.927-0.463-1.549-0.463c-0.715,0-1.313,0.171-1.793,0.514
					s-0.818,0.803-1.013,1.381c-0.194,0.577-0.292,1.173-0.292,1.787c0,0.791,0.115,1.481,0.346,2.072
					c0.231,0.59,0.59,1.031,1.076,1.323s1.014,0.438,1.581,0.438c0.689,0,1.273-0.199,1.752-0.598
					C297.542,339.847,297.866,339.257,298.035,338.474z"/>
				<path fill="#DEFFCE" d="M300.822,341.736v-9.306h1.231v3.821h4.837v-3.821h1.231v9.306h-1.231v-4.387h-4.837v4.387H300.822z"/>
				<path fill="#DEFFCE" d="M310.192,341.736v-9.306h4.126c0.829,0,1.46,0.084,1.892,0.251s0.776,0.462,1.034,0.885
					c0.259,0.424,0.388,0.892,0.388,1.403c0,0.66-0.214,1.217-0.642,1.669c-0.427,0.453-1.087,0.741-1.98,0.863
					c0.326,0.157,0.573,0.312,0.743,0.464c0.359,0.33,0.7,0.743,1.021,1.237l1.619,2.533h-1.549l-1.231-1.936
					c-0.36-0.559-0.656-0.986-0.889-1.283c-0.233-0.296-0.441-0.503-0.625-0.621c-0.185-0.119-0.372-0.201-0.563-0.248
					c-0.14-0.029-0.368-0.045-0.686-0.045h-1.428v4.133H310.192z M311.424,336.537h2.646c0.563,0,1.003-0.058,1.32-0.174
					s0.559-0.303,0.724-0.559s0.248-0.534,0.248-0.835c0-0.44-0.16-0.802-0.479-1.085c-0.319-0.284-0.824-0.426-1.514-0.426h-2.945
					V336.537z"/>
				<path fill="#DEFFCE" d="M319.188,337.204c0-1.545,0.414-2.754,1.244-3.628c0.829-0.874,1.899-1.311,3.212-1.311
					c0.858,0,1.633,0.205,2.323,0.615c0.689,0.411,1.216,0.983,1.577,1.718c0.362,0.734,0.543,1.566,0.543,2.497
					c0,0.944-0.19,1.788-0.571,2.533s-0.921,1.309-1.619,1.691s-1.451,0.574-2.26,0.574c-0.876,0-1.659-0.211-2.349-0.635
					c-0.689-0.423-1.212-1-1.567-1.732S319.188,338.021,319.188,337.204z M320.457,337.223c0,1.122,0.301,2.005,0.904,2.65
					c0.603,0.646,1.359,0.969,2.27,0.969c0.927,0,1.689-0.326,2.288-0.979c0.599-0.651,0.898-1.576,0.898-2.773
					c0-0.758-0.128-1.419-0.384-1.983c-0.257-0.565-0.631-1.003-1.124-1.314c-0.493-0.311-1.046-0.466-1.66-0.466
					c-0.872,0-1.622,0.299-2.25,0.897C320.771,334.822,320.457,335.822,320.457,337.223z"/>
			</g>
		</g>
	</g>
	<g id="cdpPicture3Style1">
		<rect x="116.56" y="281.542" fill="none" width="110" height="110"/>
		<g>
			<path fill-rule="evenodd" clip-rule="evenodd" fill="#0A0A0A" d="M171.562,285.044c28.439,0,51.494,23.057,51.494,51.496
				s-23.055,51.496-51.494,51.496c-28.441,0-51.498-23.057-51.498-51.496S143.12,285.044,171.562,285.044"/>
			<linearGradient id="sunkenCircle_25_" gradientUnits="userSpaceOnUse" x1="144.0889" y1="309.0693" x2="199.0314" y2="364.0118">
				<stop  offset="0" style="stop-color:#1D2021"/>
				<stop  offset="0.4337" style="stop-color:#1D2021"/>
				<stop  offset="0.6684" style="stop-color:#565B5D"/>
				<stop  offset="1" style="stop-color:#565B5D"/>
			</linearGradient>
			<path id="sunkenCircle_7_" fill="url(#sunkenCircle_25_)" d="M226.56,336.54c0-30.327-24.673-55-54.998-55
				c-30.329,0-55.002,24.673-55.002,55c0,30.328,24.673,55.002,55.002,55.002C201.887,391.542,226.56,366.868,226.56,336.54z
				 M120.062,336.54c0-28.439,23.057-51.496,51.5-51.496c28.439,0,51.494,23.057,51.494,51.496
				c0,28.442-23.055,51.496-51.494,51.496C143.118,388.036,120.062,364.982,120.062,336.54z"/>
			<linearGradient id="greenCircle_25_" gradientUnits="userSpaceOnUse" x1="171.5586" y1="379.4521" x2="171.5586" y2="293.627">
				<stop  offset="0" style="stop-color:#91CB74"/>
				<stop  offset="1" style="stop-color:#63B13B"/>
			</linearGradient>
			<path id="greenCircle_7_" fill="url(#greenCircle_25_)" d="M171.558,293.627c-23.699,0-42.912,19.208-42.912,42.913
				c0,23.699,19.213,42.912,42.912,42.912c23.705,0,42.914-19.213,42.914-42.912C214.472,312.835,195.263,293.627,171.558,293.627z
				 M171.558,374.2c-20.765,0-37.659-16.894-37.659-37.66s16.895-37.657,37.659-37.657c20.764,0,37.661,16.891,37.661,37.657
				S192.321,374.2,171.558,374.2z"/>
			<text transform="matrix(1 0 0 1 146.0234 341.7363)" fill="#DEFFCE" font-family="'ArialMT'" font-size="13">NORMAL</text>
		</g>
	</g>
	<g id="cdpPicture0Style4">
		<rect x="484.831" y="403.832" fill="none" width="110" height="110"/>
		<g>
			<path fill-rule="evenodd" clip-rule="evenodd" fill="#0A0A0A" d="M539.833,407.334c28.439,0,51.494,23.057,51.494,51.496
				s-23.055,51.496-51.494,51.496c-28.441,0-51.498-23.057-51.498-51.496S511.392,407.334,539.833,407.334"/>
			<linearGradient id="sunkenCircle_26_" gradientUnits="userSpaceOnUse" x1="512.3604" y1="431.3604" x2="567.3033" y2="486.3033">
				<stop  offset="0" style="stop-color:#1D2021"/>
				<stop  offset="0.4337" style="stop-color:#1D2021"/>
				<stop  offset="0.6684" style="stop-color:#565B5D"/>
				<stop  offset="1" style="stop-color:#565B5D"/>
			</linearGradient>
			<path id="sunkenCircle_13_" fill="url(#sunkenCircle_26_)" d="M594.831,458.83c0-30.327-24.673-55-54.998-55
				c-30.329,0-55.002,24.673-55.002,55c0,30.328,24.673,55.002,55.002,55.002C570.158,513.832,594.831,489.158,594.831,458.83z
				 M488.333,458.83c0-28.439,23.057-51.496,51.5-51.496c28.439,0,51.494,23.057,51.494,51.496
				c0,28.442-23.055,51.496-51.494,51.496C511.39,510.326,488.333,487.272,488.333,458.83z"/>
			<linearGradient id="greenCircle_26_" gradientUnits="userSpaceOnUse" x1="539.8301" y1="501.7422" x2="539.8301" y2="415.917">
				<stop  offset="0" style="stop-color:#91CB74"/>
				<stop  offset="1" style="stop-color:#63B13B"/>
			</linearGradient>
			<path id="greenCircle_13_" fill="url(#greenCircle_26_)" d="M539.829,415.917c-23.699,0-42.912,19.208-42.912,42.913
				c0,23.699,19.213,42.912,42.912,42.912c23.705,0,42.914-19.213,42.914-42.912C582.743,435.125,563.534,415.917,539.829,415.917z
				 M539.829,496.49c-20.765,0-37.659-16.894-37.659-37.66s16.895-37.657,37.659-37.657c20.764,0,37.661,16.891,37.661,37.657
				S560.593,496.49,539.829,496.49z"/>
			<text transform="matrix(1 0 0 1 521.7686 464.0244)" fill="#DEFFCE" font-family="'ArialMT'" font-size="13">AOPS</text>
		</g>
	</g>
	<g id="cdpPicture0Style3">
		<rect x="359.604" y="403.832" fill="none" width="110" height="110"/>
		<g>
			<path fill-rule="evenodd" clip-rule="evenodd" fill="#0A0A0A" d="M414.606,407.334c28.439,0,51.494,23.057,51.494,51.496
				s-23.055,51.496-51.494,51.496c-28.441,0-51.498-23.057-51.498-51.496S386.165,407.334,414.606,407.334"/>
			<linearGradient id="sunkenCircle_27_" gradientUnits="userSpaceOnUse" x1="387.1338" y1="431.3604" x2="442.0768" y2="486.3033">
				<stop  offset="0" style="stop-color:#1D2021"/>
				<stop  offset="0.4337" style="stop-color:#1D2021"/>
				<stop  offset="0.6684" style="stop-color:#565B5D"/>
				<stop  offset="1" style="stop-color:#565B5D"/>
			</linearGradient>
			<path id="sunkenCircle_14_" fill="url(#sunkenCircle_27_)" d="M469.604,458.83c0-30.327-24.673-55-54.998-55
				c-30.329,0-55.002,24.673-55.002,55c0,30.328,24.673,55.002,55.002,55.002C444.932,513.832,469.604,489.158,469.604,458.83z
				 M363.106,458.83c0-28.439,23.057-51.496,51.5-51.496c28.439,0,51.494,23.057,51.494,51.496
				c0,28.442-23.055,51.496-51.494,51.496C386.163,510.326,363.106,487.272,363.106,458.83z"/>
			<linearGradient id="greenCircle_27_" gradientUnits="userSpaceOnUse" x1="414.6035" y1="501.7422" x2="414.6035" y2="415.917">
				<stop  offset="0" style="stop-color:#91CB74"/>
				<stop  offset="1" style="stop-color:#63B13B"/>
			</linearGradient>
			<path id="greenCircle_14_" fill="url(#greenCircle_27_)" d="M414.603,415.917c-23.699,0-42.912,19.208-42.912,42.913
				c0,23.699,19.213,42.912,42.912,42.912c23.705,0,42.914-19.213,42.914-42.912C457.517,435.125,438.308,415.917,414.603,415.917z
				 M414.603,496.49c-20.765,0-37.659-16.894-37.659-37.66s16.895-37.657,37.659-37.657c20.764,0,37.661,16.891,37.661,37.657
				S435.366,496.49,414.603,496.49z"/>
			<text transform="matrix(1 0 0 1 400.8809 464.0244)" fill="#DEFFCE" font-family="'ArialMT'" font-size="13">AHC</text>
		</g>
	</g>
	<g id="cdpPicture0Style2">
		<rect x="241.164" y="403.834" fill="none" width="110" height="110"/>
		<g>
			<path fill-rule="evenodd" clip-rule="evenodd" fill="#0A0A0A" d="M296.166,407.336c28.439,0,51.494,23.057,51.494,51.496
				s-23.055,51.496-51.494,51.496c-28.441,0-51.498-23.057-51.498-51.496S267.725,407.336,296.166,407.336"/>
			<linearGradient id="sunkenCircle_28_" gradientUnits="userSpaceOnUse" x1="268.6943" y1="431.3623" x2="323.6373" y2="486.3053">
				<stop  offset="0" style="stop-color:#1D2021"/>
				<stop  offset="0.4337" style="stop-color:#1D2021"/>
				<stop  offset="0.6684" style="stop-color:#565B5D"/>
				<stop  offset="1" style="stop-color:#565B5D"/>
			</linearGradient>
			<path id="sunkenCircle_11_" fill="url(#sunkenCircle_28_)" d="M351.164,458.832c0-30.327-24.673-55-54.998-55
				c-30.329,0-55.002,24.673-55.002,55c0,30.328,24.673,55.002,55.002,55.002C326.491,513.834,351.164,489.16,351.164,458.832z
				 M244.666,458.832c0-28.439,23.057-51.496,51.5-51.496c28.439,0,51.494,23.057,51.494,51.496
				c0,28.442-23.055,51.496-51.494,51.496C267.723,510.328,244.666,487.274,244.666,458.832z"/>
			<linearGradient id="greenCircle_28_" gradientUnits="userSpaceOnUse" x1="296.1631" y1="501.7441" x2="296.1631" y2="415.9189">
				<stop  offset="0" style="stop-color:#91CB74"/>
				<stop  offset="1" style="stop-color:#63B13B"/>
			</linearGradient>
			<path id="greenCircle_11_" fill="url(#greenCircle_28_)" d="M296.162,415.919c-23.699,0-42.912,19.208-42.912,42.913
				c0,23.699,19.213,42.912,42.912,42.912c23.705,0,42.914-19.213,42.914-42.912C339.076,435.127,319.867,415.919,296.162,415.919z
				 M296.162,496.492c-20.765,0-37.659-16.894-37.659-37.66s16.895-37.657,37.659-37.657c20.764,0,37.661,16.891,37.661,37.657
				S316.926,496.492,296.162,496.492z"/>
			<text transform="matrix(1 0 0 1 267.2715 464.0283)" display="none" fill="#DEFFCE" font-family="'ArialMT'" font-size="13">TENSION</text>
			<g>
				<path fill="#DEFFCE" d="M270.643,464.028v-8.207h-3.066v-1.099h7.376v1.099h-3.078v8.207H270.643z"/>
				<path fill="#DEFFCE" d="M276.241,464.028v-9.306h6.729v1.099h-5.497v2.85h5.148v1.092h-5.148v3.168h5.713v1.098H276.241z"/>
				<path fill="#DEFFCE" d="M284.874,464.028v-9.306h1.264l4.888,7.306v-7.306h1.181v9.306h-1.264l-4.888-7.313v7.313H284.874z"/>
				<path fill="#DEFFCE" d="M293.856,461.038l1.162-0.102c0.055,0.466,0.183,0.848,0.384,1.146c0.201,0.298,0.513,0.539,0.937,0.724
					c0.423,0.184,0.898,0.276,1.428,0.276c0.47,0,0.885-0.07,1.244-0.21c0.36-0.14,0.628-0.331,0.804-0.574
					c0.175-0.243,0.263-0.509,0.263-0.797c0-0.292-0.084-0.547-0.254-0.765c-0.169-0.218-0.448-0.401-0.838-0.549
					c-0.249-0.098-0.802-0.249-1.656-0.454c-0.855-0.205-1.454-0.399-1.797-0.581c-0.444-0.232-0.775-0.521-0.993-0.866
					s-0.327-0.731-0.327-1.159c0-0.469,0.134-0.908,0.4-1.316s0.655-0.719,1.168-0.93c0.512-0.212,1.081-0.318,1.707-0.318
					c0.69,0,1.299,0.111,1.825,0.334c0.527,0.222,0.932,0.549,1.216,0.98c0.283,0.432,0.436,0.92,0.457,1.467l-1.181,0.088
					c-0.063-0.588-0.278-1.032-0.645-1.332c-0.366-0.301-0.906-0.451-1.622-0.451c-0.745,0-1.287,0.137-1.628,0.409
					c-0.341,0.273-0.511,0.603-0.511,0.987c0,0.334,0.12,0.609,0.361,0.825c0.237,0.216,0.856,0.437,1.856,0.663
					c1.001,0.227,1.688,0.425,2.061,0.594c0.541,0.25,0.941,0.566,1.199,0.949c0.259,0.383,0.388,0.824,0.388,1.323
					c0,0.495-0.142,0.962-0.426,1.399c-0.283,0.438-0.69,0.779-1.222,1.022s-1.129,0.364-1.793,0.364
					c-0.843,0-1.548-0.122-2.117-0.367c-0.569-0.246-1.016-0.615-1.34-1.108C294.044,462.218,293.873,461.661,293.856,461.038z"/>
				<path fill="#DEFFCE" d="M303.157,464.028v-9.306h1.231v9.306H303.157z"/>
				<path fill="#DEFFCE" d="M306.185,459.496c0-1.545,0.414-2.754,1.244-3.628c0.829-0.874,1.899-1.311,3.212-1.311
					c0.858,0,1.633,0.205,2.323,0.615c0.689,0.411,1.216,0.983,1.577,1.718c0.362,0.734,0.543,1.566,0.543,2.497
					c0,0.944-0.19,1.788-0.571,2.533s-0.921,1.309-1.619,1.691s-1.451,0.574-2.26,0.574c-0.876,0-1.659-0.211-2.349-0.635
					c-0.689-0.423-1.212-1-1.567-1.732S306.185,460.313,306.185,459.496z M307.454,459.515c0,1.122,0.301,2.005,0.904,2.65
					c0.603,0.646,1.359,0.969,2.27,0.969c0.927,0,1.689-0.326,2.288-0.979c0.599-0.651,0.898-1.576,0.898-2.773
					c0-0.758-0.128-1.419-0.384-1.983c-0.257-0.565-0.631-1.003-1.124-1.314c-0.493-0.311-1.046-0.466-1.66-0.466
					c-0.872,0-1.622,0.299-2.25,0.897C307.768,457.114,307.454,458.114,307.454,459.515z"/>
				<path fill="#DEFFCE" d="M316.658,464.028v-9.306h1.264l4.888,7.306v-7.306h1.181v9.306h-1.264l-4.888-7.313v7.313H316.658z"/>
			</g>
		</g>
	</g>
	<g id="cdpPicture0Style1">
		<rect x="116.56" y="403.834" fill="none" width="110" height="110"/>
		<g>
			<path fill-rule="evenodd" clip-rule="evenodd" fill="#0A0A0A" d="M171.562,407.336c28.439,0,51.494,23.057,51.494,51.496
				s-23.055,51.496-51.494,51.496c-28.441,0-51.498-23.057-51.498-51.496S143.12,407.336,171.562,407.336"/>
			<linearGradient id="sunkenCircle_29_" gradientUnits="userSpaceOnUse" x1="144.0889" y1="431.3623" x2="199.0314" y2="486.3048">
				<stop  offset="0" style="stop-color:#1D2021"/>
				<stop  offset="0.4337" style="stop-color:#1D2021"/>
				<stop  offset="0.6684" style="stop-color:#565B5D"/>
				<stop  offset="1" style="stop-color:#565B5D"/>
			</linearGradient>
			<path id="sunkenCircle_12_" fill="url(#sunkenCircle_29_)" d="M226.56,458.832c0-30.327-24.673-55-54.998-55
				c-30.329,0-55.002,24.673-55.002,55c0,30.328,24.673,55.002,55.002,55.002C201.887,513.834,226.56,489.16,226.56,458.832z
				 M120.062,458.832c0-28.439,23.057-51.496,51.5-51.496c28.439,0,51.494,23.057,51.494,51.496
				c0,28.442-23.055,51.496-51.494,51.496C143.118,510.328,120.062,487.274,120.062,458.832z"/>
			<linearGradient id="greenCircle_29_" gradientUnits="userSpaceOnUse" x1="171.5586" y1="501.7441" x2="171.5586" y2="415.9189">
				<stop  offset="0" style="stop-color:#91CB74"/>
				<stop  offset="1" style="stop-color:#63B13B"/>
			</linearGradient>
			<path id="greenCircle_12_" fill="url(#greenCircle_29_)" d="M171.558,415.919c-23.699,0-42.912,19.208-42.912,42.913
				c0,23.699,19.213,42.912,42.912,42.912c23.705,0,42.914-19.213,42.914-42.912C214.472,435.127,195.263,415.919,171.558,415.919z
				 M171.558,496.492c-20.765,0-37.659-16.894-37.659-37.66s16.895-37.657,37.659-37.657c20.764,0,37.661,16.891,37.661,37.657
				S192.321,496.492,171.558,496.492z"/>
			<text transform="matrix(1 0 0 1 149.5215 464.0283)" display="none" fill="#DEFFCE" font-family="'ArialMT'" font-size="13">SPEED</text>
			<g>
				<path fill="#DEFFCE" d="M150.105,461.038l1.162-0.102c0.055,0.466,0.183,0.848,0.384,1.146c0.201,0.298,0.513,0.539,0.937,0.724
					c0.423,0.184,0.898,0.276,1.428,0.276c0.47,0,0.885-0.07,1.244-0.21c0.36-0.14,0.628-0.331,0.804-0.574
					c0.175-0.243,0.263-0.509,0.263-0.797c0-0.292-0.084-0.547-0.254-0.765c-0.169-0.218-0.448-0.401-0.838-0.549
					c-0.249-0.098-0.802-0.249-1.656-0.454c-0.855-0.205-1.454-0.399-1.797-0.581c-0.444-0.232-0.775-0.521-0.993-0.866
					s-0.327-0.731-0.327-1.159c0-0.469,0.134-0.908,0.4-1.316s0.655-0.719,1.168-0.93c0.512-0.212,1.081-0.318,1.707-0.318
					c0.69,0,1.299,0.111,1.825,0.334c0.527,0.222,0.932,0.549,1.216,0.98c0.283,0.432,0.436,0.92,0.457,1.467l-1.181,0.088
					c-0.063-0.588-0.278-1.032-0.645-1.332c-0.366-0.301-0.906-0.451-1.622-0.451c-0.745,0-1.287,0.137-1.628,0.409
					c-0.341,0.273-0.511,0.603-0.511,0.987c0,0.334,0.12,0.609,0.361,0.825c0.237,0.216,0.856,0.437,1.856,0.663
					c1.001,0.227,1.688,0.425,2.061,0.594c0.541,0.25,0.941,0.566,1.199,0.949c0.259,0.383,0.388,0.824,0.388,1.323
					c0,0.495-0.142,0.962-0.426,1.399c-0.283,0.438-0.69,0.779-1.222,1.022s-1.129,0.364-1.793,0.364
					c-0.843,0-1.548-0.122-2.117-0.367c-0.569-0.246-1.016-0.615-1.34-1.108C150.293,462.218,150.122,461.661,150.105,461.038z"/>
				<path fill="#DEFFCE" d="M159.195,464.028v-9.306h3.511c0.617,0,1.09,0.029,1.415,0.089c0.457,0.076,0.84,0.221,1.149,0.435
					c0.309,0.214,0.558,0.514,0.746,0.898c0.188,0.385,0.282,0.809,0.282,1.27c0,0.791-0.252,1.461-0.756,2.009
					c-0.503,0.548-1.413,0.822-2.729,0.822h-2.387v3.783H159.195z M160.427,459.147h2.406c0.795,0,1.36-0.148,1.694-0.445
					c0.335-0.296,0.502-0.713,0.502-1.25c0-0.39-0.099-0.723-0.295-1c-0.197-0.277-0.456-0.46-0.778-0.549
					c-0.207-0.055-0.59-0.082-1.148-0.082h-2.381V459.147z"/>
				<path fill="#DEFFCE" d="M167.893,464.028v-9.306h6.729v1.099h-5.497v2.85h5.148v1.092h-5.148v3.168h5.713v1.098H167.893z"/>
				<path fill="#DEFFCE" d="M176.563,464.028v-9.306h6.729v1.099h-5.497v2.85h5.148v1.092h-5.148v3.168h5.713v1.098H176.563z"/>
				<path fill="#DEFFCE" d="M185.21,464.028v-9.306h3.206c0.724,0,1.275,0.044,1.656,0.134c0.533,0.122,0.988,0.345,1.365,0.666
					c0.491,0.415,0.857,0.944,1.102,1.59c0.243,0.646,0.364,1.383,0.364,2.213c0,0.706-0.082,1.332-0.247,1.879
					c-0.165,0.545-0.377,0.997-0.635,1.354s-0.541,0.64-0.848,0.845s-0.677,0.36-1.11,0.467c-0.435,0.105-0.933,0.158-1.495,0.158
					H185.21z M186.441,462.931h1.987c0.613,0,1.095-0.058,1.444-0.172c0.349-0.114,0.627-0.275,0.834-0.482
					c0.292-0.292,0.52-0.685,0.683-1.178s0.244-1.091,0.244-1.793c0-0.974-0.159-1.722-0.479-2.244
					c-0.32-0.522-0.708-0.873-1.165-1.051c-0.33-0.127-0.861-0.189-1.594-0.189h-1.955V462.931z"/>
			</g>
		</g>
	</g>
</g>
<g id="Help">
	<text transform="matrix(1 0 0 1 -66.1665 209.5)" font-family="'MyriadPro-Regular'" font-size="12">Picture 2</text>
	<text transform="matrix(1 0 0 1 -66.1665 105.833)" font-family="'MyriadPro-Regular'" font-size="12">Picture 1</text>
	<text transform="matrix(1 0 0 1 87.5 -13.833)" font-family="'MyriadPro-Regular'" font-size="12">Style 1</text>
	<text transform="matrix(1 0 0 1 158.5078 -13.833)" font-family="'MyriadPro-Regular'" font-size="12">Style 2</text>
	<text transform="matrix(1 0 0 1 231.1738 -13.833)" font-family="'MyriadPro-Regular'" font-size="12">Style 3</text>
	<text transform="matrix(1 0 0 1 304.1738 -13.833)" font-family="'MyriadPro-Regular'" font-size="12">Style 4</text>
	<text transform="matrix(1 0 0 1 7.5005 -13.833)" font-family="'MyriadPro-Regular'" font-size="12">Style 0</text>
	<text transform="matrix(1 0 0 1 -66.1665 36.5)" font-family="'MyriadPro-Regular'" font-size="12">Picture 0</text>
</g>
</svg>
