<?xml version="1.0" encoding="UTF-8" standalone="no"?>
<!-- Generator: Adobe Illustrator 15.0.0, SVG Export Plug-In . SVG Version: 6.00 Build 0)  -->

<svg
   xmlns:dc="http://purl.org/dc/elements/1.1/"
   xmlns:cc="http://creativecommons.org/ns#"
   xmlns:rdf="http://www.w3.org/1999/02/22-rdf-syntax-ns#"
   xmlns:svg="http://www.w3.org/2000/svg"
   xmlns="http://www.w3.org/2000/svg"
   xmlns:sodipodi="http://sodipodi.sourceforge.net/DTD/sodipodi-0.dtd"
   xmlns:inkscape="http://www.inkscape.org/namespaces/inkscape"
   version="1.1"
   id="svg"
   x="0px"
   y="0px"
   width="860.14893"
   height="164.06415"
   viewBox="0 0 860.14892 164.06415"
   enable-background="new 0 0 63 63"
   xml:space="preserve"
   inkscape:version="0.91 r13725"
   sodipodi:docname="pictureWinchModeNew.svg"><metadata
     id="metadata261"><rdf:RDF><cc:Work
         rdf:about=""><dc:format>image/svg+xml</dc:format><dc:type
           rdf:resource="http://purl.org/dc/dcmitype/StillImage" /><dc:title></dc:title></cc:Work></rdf:RDF></metadata><defs
     id="defs259" /><sodipodi:namedview
     pagecolor="#ffffff"
     bordercolor="#666666"
     borderopacity="1"
     objecttolerance="10"
     gridtolerance="10"
     guidetolerance="10"
     inkscape:pageopacity="0"
     inkscape:pageshadow="2"
     inkscape:window-width="1917"
     inkscape:window-height="596"
     id="namedview257"
     showgrid="false"
     inkscape:zoom="1.2432572"
     inkscape:cx="445.08394"
     inkscape:cy="65.018576"
     inkscape:window-x="222"
     inkscape:window-y="247"
     inkscape:window-maximized="0"
     inkscape:current-layer="svg"
     fit-margin-top="10"
     fit-margin-left="10"
     fit-margin-right="10"
     fit-margin-bottom="10" /><g
     id="Layer1"
     transform="translate(108.98877,32.949189)"><g
       id="back"
       transform="matrix(1.0017535,0,0,0.22369227,-0.63827831,-3.8171747)"><linearGradient
         id="SVGID_1_"
         gradientUnits="userSpaceOnUse"
         x1="11.2354"
         y1="116.8057"
         x2="663.80652"
         y2="-535.7655"
         gradientTransform="matrix(1,0,0,-1,26.98,66.5195)"><stop
           offset="0"
           style="stop-color:#363C3C"
           id="stop6" /><stop
           offset="1"
           style="stop-color:#2E3436"
           id="stop8" /></linearGradient><path
         d="m 739.5,551.5 c 0,2.762 -2.238,5 -5,5 l -740,0 c -2.761,0 -5,-2.238 -5,-5 l 0,-551 c 0,-2.761 2.239,-5 5,-5 l 740,0 c 2.762,0 5,2.239 5,5 l 0,551 z"
         id="path10"
         style="fill:url(#SVGID_1_)"
         inkscape:connector-curvature="0" /><path
         stroke-miterlimit="10"
         d="m 739,552 c 0,2.762 -2.238,5 -5,5 l -740,0 c -2.761,0 -5,-2.238 -5,-5 L -11,1 c 0,-2.761 2.239,-5 5,-5 l 740,0 c 2.762,0 5,2.239 5,5 l 0,551 z"
         id="path12"
         inkscape:connector-curvature="0"
         style="fill:none;stroke:#0f0f0f;stroke-width:3;stroke-miterlimit:10" /></g><g
       id="cdpPicture0"
       transform="translate(0,-402)"><rect
         x="-2.5"
         y="403.83401"
         width="110"
         height="110"
         id="rect15"
         style="fill:none" /><g
         id="g17"><path
           d="m 52.502,407.336 c 28.439,0 51.494,23.057 51.494,51.498 0,28.438 -23.055,51.492 -51.494,51.492 -28.441,0 -51.498,-23.057 -51.498,-51.492 0,-28.441 23.057,-51.498 51.498,-51.498"
           id="path19"
           inkscape:connector-curvature="0"
           style="fill:#0a0a0a" /><linearGradient
           id="sunkenCircle_2_"
           gradientUnits="userSpaceOnUse"
           x1="-1.9512"
           y1="-364.8418"
           x2="52.991402"
           y2="-419.78439"
           gradientTransform="matrix(1,0,0,-1,26.98,66.5195)"><stop
             offset="0"
             style="stop-color:#1D2021"
             id="stop22" /><stop
             offset="0.4337"
             style="stop-color:#1D2021"
             id="stop24" /><stop
             offset="0.6684"
             style="stop-color:#565B5D"
             id="stop26" /><stop
             offset="1"
             style="stop-color:#565B5D"
             id="stop28" /></linearGradient><path
           id="sunkenCircle_1_"
           d="m 107.5,458.834 c 0,-30.328 -24.673,-55 -54.998,-55 -30.329,0 -55.002,24.672 -55.002,55 0,30.326 24.673,55 55.002,55 30.325,0 54.998,-24.674 54.998,-55 z m -106.497,0 c 0,-28.441 23.057,-51.498 51.499,-51.498 28.439,0 51.494,23.057 51.494,51.498 0,28.439 -23.055,51.492 -51.494,51.492 -28.442,0 -51.499,-23.053 -51.499,-51.492 z"
           style="fill:url(#sunkenCircle_2_)"
           inkscape:connector-curvature="0" /><linearGradient
           id="greenCircle_2_"
           gradientUnits="userSpaceOnUse"
           x1="25.518999"
           y1="-435.22461"
           x2="25.518999"
           y2="-349.40039"
           gradientTransform="matrix(1,0,0,-1,26.98,66.5195)"><stop
             offset="0"
             style="stop-color:#B0B0B0"
             id="stop32" /><stop
             offset="1"
             style="stop-color:#8D8D8D"
             id="stop34" /></linearGradient><path
           id="greenCircle_1_"
           d="m 52.498,415.92 c -23.698,0 -42.912,19.209 -42.912,42.914 0,23.695 19.214,42.91 42.912,42.91 23.705,0 42.914,-19.215 42.914,-42.91 0,-23.705 -19.209,-42.914 -42.914,-42.914 z m 0,80.572 c -20.765,0 -37.659,-16.895 -37.659,-37.658 0,-20.77 16.894,-37.66 37.659,-37.66 20.764,0 37.661,16.891 37.661,37.66 0,20.764 -16.897,37.658 -37.661,37.658 z"
           style="fill:url(#greenCircle_2_)"
           inkscape:connector-curvature="0" /><text
           id="_x3F_"
           transform="translate(48.8711,464.1318)"
           font-size="14"
           style="font-size:14px;font-family:ArialMT;fill:#ffffff">?</text>
<g
           display="none"
           id="g38"
           style="display:none"><path
             display="inline"
             d="m 18.952,464.133 0,-10.023 3.452,0 c 0.78,0 1.375,0.049 1.785,0.145 0.574,0.133 1.064,0.371 1.47,0.719 0.528,0.445 0.924,1.018 1.186,1.713 0.262,0.693 0.393,1.488 0.393,2.381 0,0.762 -0.089,1.438 -0.267,2.023 -0.178,0.588 -0.406,1.074 -0.684,1.461 -0.278,0.385 -0.583,0.688 -0.913,0.906 -0.331,0.223 -0.729,0.391 -1.196,0.504 -0.467,0.113 -1.004,0.172 -1.61,0.172 l -3.616,0 0,-0.001 z m 1.326,-1.184 2.14,0 c 0.661,0 1.18,-0.063 1.556,-0.186 0.376,-0.123 0.675,-0.295 0.899,-0.52 0.314,-0.314 0.559,-0.736 0.735,-1.268 0.175,-0.531 0.263,-1.176 0.263,-1.932 0,-1.049 -0.172,-1.855 -0.516,-2.416 -0.344,-0.564 -0.762,-0.941 -1.254,-1.133 -0.355,-0.137 -0.928,-0.205 -1.716,-0.205 l -2.105,0 0,7.658 -0.002,0 z"
             id="path40"
             inkscape:connector-curvature="0"
             style="display:inline;fill:#ffffff" /><path
             display="inline"
             d="m 29.288,464.133 0,-10.023 1.326,0 0,10.021 -1.326,0 0,0.002 z"
             id="path42"
             inkscape:connector-curvature="0"
             style="display:inline;fill:#ffffff" /><path
             display="inline"
             d="m 32.501,460.912 1.251,-0.109 c 0.059,0.502 0.197,0.914 0.414,1.232 0.216,0.322 0.553,0.582 1.008,0.779 0.456,0.199 0.969,0.299 1.538,0.299 0.507,0 0.952,-0.076 1.341,-0.227 0.387,-0.15 0.676,-0.355 0.864,-0.619 0.188,-0.262 0.284,-0.547 0.284,-0.857 0,-0.313 -0.092,-0.588 -0.273,-0.822 -0.184,-0.234 -0.484,-0.434 -0.902,-0.592 -0.27,-0.104 -0.863,-0.268 -1.784,-0.488 -0.921,-0.223 -1.565,-0.43 -1.935,-0.625 -0.479,-0.252 -0.836,-0.563 -1.07,-0.936 -0.234,-0.371 -0.353,-0.787 -0.353,-1.246 0,-0.506 0.144,-0.979 0.431,-1.42 0.287,-0.438 0.707,-0.771 1.258,-1 0.553,-0.229 1.164,-0.342 1.84,-0.342 0.742,0 1.398,0.119 1.966,0.357 0.567,0.24 1.004,0.592 1.31,1.057 0.306,0.465 0.47,0.992 0.492,1.58 l -1.271,0.096 c -0.068,-0.635 -0.299,-1.113 -0.693,-1.436 -0.395,-0.324 -0.977,-0.486 -1.747,-0.486 -0.802,0 -1.386,0.146 -1.753,0.441 -0.367,0.293 -0.551,0.646 -0.551,1.063 0,0.361 0.13,0.656 0.391,0.891 0.254,0.23 0.922,0.471 1.998,0.715 1.078,0.242 1.818,0.455 2.219,0.639 0.584,0.268 1.015,0.609 1.293,1.021 0.277,0.412 0.416,0.887 0.416,1.426 0,0.533 -0.151,1.035 -0.457,1.508 -0.307,0.471 -0.744,0.838 -1.315,1.1 -0.571,0.264 -1.216,0.395 -1.933,0.395 -0.905,0 -1.666,-0.133 -2.278,-0.396 -0.613,-0.264 -1.095,-0.662 -1.442,-1.191 -0.355,-0.535 -0.538,-1.137 -0.557,-1.807 z"
             id="path44"
             inkscape:connector-curvature="0"
             style="display:inline;fill:#ffffff" /><path
             display="inline"
             d="m 41.189,464.133 3.85,-10.021 1.429,0 4.103,10.021 -1.512,0 -1.168,-3.035 -4.191,0 -1.103,3.035 -1.408,0 z m 2.893,-4.115 3.396,0 -1.045,-2.775 c -0.32,-0.844 -0.558,-1.537 -0.711,-2.078 -0.129,0.643 -0.31,1.279 -0.541,1.914 l -1.099,2.939 z"
             id="path46"
             inkscape:connector-curvature="0"
             style="display:inline;fill:#ffffff" /><path
             display="inline"
             d="m 51.574,464.133 0,-10.023 3.76,0 c 0.766,0 1.38,0.104 1.844,0.305 0.461,0.203 0.823,0.516 1.086,0.938 0.262,0.422 0.394,0.863 0.394,1.322 0,0.43 -0.116,0.832 -0.349,1.211 -0.233,0.377 -0.584,0.684 -1.054,0.916 0.606,0.178 1.072,0.479 1.397,0.908 0.326,0.43 0.488,0.936 0.488,1.518 0,0.471 -0.099,0.906 -0.297,1.311 -0.197,0.402 -0.443,0.713 -0.734,0.934 -0.291,0.219 -0.657,0.383 -1.098,0.494 -0.439,0.111 -0.979,0.168 -1.617,0.168 l -3.82,0 0,-0.002 z m 1.326,-5.813 2.166,0 c 0.59,0 1.011,-0.039 1.267,-0.115 0.337,-0.102 0.591,-0.268 0.763,-0.5 0.17,-0.23 0.256,-0.523 0.256,-0.875 0,-0.332 -0.08,-0.625 -0.24,-0.879 -0.158,-0.252 -0.387,-0.426 -0.682,-0.52 -0.298,-0.092 -0.807,-0.139 -1.525,-0.139 l -2.005,0 0,3.028 z m 0,4.629 2.494,0 c 0.43,0 0.729,-0.016 0.902,-0.049 0.307,-0.055 0.561,-0.145 0.766,-0.271 0.205,-0.126 0.375,-0.314 0.506,-0.559 0.134,-0.244 0.199,-0.523 0.199,-0.844 0,-0.375 -0.097,-0.699 -0.287,-0.975 -0.191,-0.275 -0.457,-0.471 -0.797,-0.582 -0.34,-0.111 -0.828,-0.166 -1.467,-0.166 l -2.316,0 0,3.446 z"
             id="path48"
             inkscape:connector-curvature="0"
             style="display:inline;fill:#ffffff" /><path
             display="inline"
             d="m 60.913,464.133 0,-10.023 1.325,0 0,8.84 4.937,0 0,1.184 -6.262,0 z"
             id="path50"
             inkscape:connector-curvature="0"
             style="display:inline;fill:#ffffff" /><path
             display="inline"
             d="m 68.781,464.133 0,-10.023 7.246,0 0,1.184 -5.92,0 0,3.068 5.543,0 0,1.176 -5.543,0 0,3.412 6.151,0 0,1.184 -7.477,0 0,-0.001 z"
             id="path52"
             inkscape:connector-curvature="0"
             style="display:inline;fill:#ffffff" /><path
             display="inline"
             d="m 78.092,464.133 0,-10.023 3.452,0 c 0.779,0 1.374,0.049 1.784,0.145 0.574,0.133 1.064,0.371 1.47,0.719 0.529,0.445 0.925,1.018 1.187,1.713 0.263,0.693 0.394,1.488 0.394,2.381 0,0.762 -0.089,1.438 -0.267,2.023 -0.178,0.588 -0.405,1.074 -0.684,1.461 -0.277,0.385 -0.582,0.688 -0.912,0.906 -0.332,0.223 -0.729,0.391 -1.197,0.504 -0.467,0.113 -1.004,0.172 -1.609,0.172 l -3.618,0 0,-0.001 z m 1.326,-1.184 2.141,0 c 0.66,0 1.18,-0.063 1.555,-0.186 0.377,-0.123 0.677,-0.295 0.898,-0.52 0.314,-0.314 0.561,-0.736 0.735,-1.268 0.174,-0.532 0.263,-1.176 0.263,-1.932 0,-1.049 -0.172,-1.855 -0.516,-2.416 -0.346,-0.564 -0.764,-0.941 -1.256,-1.133 -0.354,-0.137 -0.926,-0.205 -1.715,-0.205 l -2.105,0 0,7.66 z"
             id="path54"
             inkscape:connector-curvature="0"
             style="display:inline;fill:#ffffff" /></g></g></g></g><g
     id="Styles"
     transform="translate(108.98877,-369.05081)"><g
       id="cdpPicture0Style5"><rect
         x="603.27002"
         y="403.82999"
         width="110"
         height="110"
         id="rect58"
         style="fill:none" /><g
         id="g60"><path
           d="m 658.271,407.332 c 28.439,0 51.494,23.057 51.494,51.496 0,28.439 -23.055,51.496 -51.494,51.496 -28.439,0 -51.496,-23.057 -51.496,-51.496 0,-28.439 23.057,-51.496 51.496,-51.496"
           id="path62"
           inkscape:connector-curvature="0"
           style="fill:#0a0a0a" /><linearGradient
           id="sunkenCircle_3_"
           gradientUnits="userSpaceOnUse"
           x1="603.82031"
           y1="-364.83841"
           x2="658.76331"
           y2="-419.7814"
           gradientTransform="matrix(1,0,0,-1,26.98,66.5195)"><stop
             offset="0"
             style="stop-color:#1D2021"
             id="stop65" /><stop
             offset="0.4337"
             style="stop-color:#1D2021"
             id="stop67" /><stop
             offset="0.6684"
             style="stop-color:#565B5D"
             id="stop69" /><stop
             offset="1"
             style="stop-color:#565B5D"
             id="stop71" /></linearGradient><path
           id="sunkenCircle_13_"
           d="m 713.27,458.828 c 0,-30.326 -24.672,-55 -54.998,-55 -30.328,0 -55.002,24.674 -55.002,55 0,30.328 24.674,55.002 55.002,55.002 30.326,0 54.998,-24.674 54.998,-55.002 z m -106.499,0 c 0,-28.439 23.059,-51.496 51.5,-51.496 28.439,0 51.494,23.057 51.494,51.496 0,28.441 -23.055,51.496 -51.494,51.496 -28.441,0 -51.5,-23.054 -51.5,-51.496 z"
           style="fill:url(#sunkenCircle_3_)"
           inkscape:connector-curvature="0" /><linearGradient
           id="greenCircle_3_"
           gradientUnits="userSpaceOnUse"
           x1="631.28912"
           y1="-435.2207"
           x2="631.28912"
           y2="-349.39651"
           gradientTransform="matrix(1,0,0,-1,26.98,66.5195)"><stop
             offset="0"
             style="stop-color:#91CB74"
             id="stop75" /><stop
             offset="1"
             style="stop-color:#63B13B"
             id="stop77" /></linearGradient><path
           id="greenCircle_13_"
           d="m 658.268,415.916 c -23.697,0 -42.912,19.207 -42.912,42.912 0,23.699 19.215,42.912 42.912,42.912 23.705,0 42.914,-19.213 42.914,-42.912 0,-23.705 -19.209,-42.912 -42.914,-42.912 z m 0,80.572 c -20.764,0 -37.658,-16.895 -37.658,-37.66 0,-20.765 16.895,-37.656 37.658,-37.656 20.766,0 37.662,16.891 37.662,37.656 0,20.765 -16.897,37.66 -37.662,37.66 z"
           style="fill:url(#greenCircle_3_)"
           inkscape:connector-curvature="0" /><text
           transform="translate(640.208,464.0234)"
           font-size="13"
           id="text80"
           style="font-size:13px;font-family:ArialMT;fill:#deffce">AOPS</text>
</g></g><g
       id="cdpPicture0Style4"><rect
         x="478.043"
         y="403.82999"
         width="110"
         height="110"
         id="rect83"
         style="fill:none" /><g
         id="g85"><path
           d="m 533.045,407.332 c 28.439,0 51.494,23.057 51.494,51.496 0,28.439 -23.055,51.496 -51.494,51.496 -28.44,0 -51.498,-23.057 -51.498,-51.496 0,-28.439 23.057,-51.496 51.498,-51.496"
           id="path87"
           inkscape:connector-curvature="0"
           style="fill:#0a0a0a" /><linearGradient
           id="sunkenCircle_4_"
           gradientUnits="userSpaceOnUse"
           x1="478.59381"
           y1="-364.83841"
           x2="533.53668"
           y2="-419.78119"
           gradientTransform="matrix(1,0,0,-1,26.98,66.5195)"><stop
             offset="0"
             style="stop-color:#1D2021"
             id="stop90" /><stop
             offset="0.4337"
             style="stop-color:#1D2021"
             id="stop92" /><stop
             offset="0.6684"
             style="stop-color:#565B5D"
             id="stop94" /><stop
             offset="1"
             style="stop-color:#565B5D"
             id="stop96" /></linearGradient><path
           id="sunkenCircle_14_"
           d="m 588.043,458.828 c 0,-30.326 -24.672,-55 -54.998,-55 -30.328,0 -55.002,24.674 -55.002,55 0,30.328 24.674,55.002 55.002,55.002 30.326,0 54.998,-24.674 54.998,-55.002 z m -106.498,0 c 0,-28.439 23.058,-51.496 51.5,-51.496 28.439,0 51.494,23.057 51.494,51.496 0,28.441 -23.055,51.496 -51.494,51.496 -28.442,0 -51.5,-23.054 -51.5,-51.496 z"
           style="fill:url(#sunkenCircle_4_)"
           inkscape:connector-curvature="0" /><linearGradient
           id="greenCircle_4_"
           gradientUnits="userSpaceOnUse"
           x1="506.06451"
           y1="-435.2207"
           x2="506.06451"
           y2="-349.39651"
           gradientTransform="matrix(1,0,0,-1,26.98,66.5195)"><stop
             offset="0"
             style="stop-color:#91CB74"
             id="stop100" /><stop
             offset="1"
             style="stop-color:#63B13B"
             id="stop102" /></linearGradient><path
           id="greenCircle_14_"
           d="m 533.043,415.916 c -23.699,0 -42.912,19.207 -42.912,42.912 0,23.699 19.213,42.912 42.912,42.912 23.705,0 42.914,-19.213 42.914,-42.912 0,-23.705 -19.209,-42.912 -42.914,-42.912 z m 0,80.572 c -20.766,0 -37.66,-16.895 -37.66,-37.66 0,-20.765 16.896,-37.656 37.66,-37.656 20.764,0 37.66,16.891 37.66,37.656 0,20.765 -16.898,37.66 -37.66,37.66 z"
           style="fill:url(#greenCircle_4_)"
           inkscape:connector-curvature="0" /><text
           transform="translate(519.3203,464.0234)"
           font-size="13"
           id="text105"
           style="font-size:13px;font-family:ArialMT;fill:#deffce">AHC</text>
</g></g><g
       id="cdpPicture0Style3"><rect
         x="359.604"
         y="403.832"
         width="110"
         height="110"
         id="rect108"
         style="fill:none" /><g
         id="g110"><path
           d="m 414.605,407.334 c 28.439,0 51.494,23.057 51.494,51.496 0,28.439 -23.055,51.496 -51.494,51.496 -28.441,0 -51.498,-23.057 -51.498,-51.496 0,-28.439 23.057,-51.496 51.498,-51.496"
           id="path112"
           inkscape:connector-curvature="0"
           style="fill:#0a0a0a" /><linearGradient
           id="sunkenCircle_6_"
           gradientUnits="userSpaceOnUse"
           x1="360.1543"
           y1="-364.84079"
           x2="415.09729"
           y2="-419.78381"
           gradientTransform="matrix(1,0,0,-1,26.98,66.5195)"><stop
             offset="0"
             style="stop-color:#1D2021"
             id="stop115" /><stop
             offset="0.4337"
             style="stop-color:#1D2021"
             id="stop117" /><stop
             offset="0.6684"
             style="stop-color:#565B5D"
             id="stop119" /><stop
             offset="1"
             style="stop-color:#565B5D"
             id="stop121" /></linearGradient><path
           id="sunkenCircle_11_"
           d="m 469.604,458.83 c 0,-30.326 -24.673,-55 -54.998,-55 -30.329,0 -55.002,24.674 -55.002,55 0,30.328 24.673,55.002 55.002,55.002 30.325,0 54.998,-24.674 54.998,-55.002 z m -106.499,0 c 0,-28.439 23.057,-51.496 51.5,-51.496 28.439,0 51.494,23.057 51.494,51.496 0,28.441 -23.055,51.496 -51.494,51.496 -28.443,0 -51.5,-23.055 -51.5,-51.496 z"
           style="fill:url(#sunkenCircle_6_)"
           inkscape:connector-curvature="0" /><linearGradient
           id="greenCircle_6_"
           gradientUnits="userSpaceOnUse"
           x1="387.62299"
           y1="-435.22269"
           x2="387.62299"
           y2="-349.39841"
           gradientTransform="matrix(1,0,0,-1,26.98,66.5195)"><stop
             offset="0"
             style="stop-color:#91CB74"
             id="stop125" /><stop
             offset="1"
             style="stop-color:#63B13B"
             id="stop127" /></linearGradient><path
           id="greenCircle_11_"
           d="m 414.602,415.918 c -23.699,0 -42.912,19.207 -42.912,42.912 0,23.699 19.213,42.912 42.912,42.912 23.705,0 42.914,-19.213 42.914,-42.912 0,-23.705 -19.209,-42.912 -42.914,-42.912 z m 0,80.572 c -20.766,0 -37.659,-16.895 -37.659,-37.66 0,-20.765 16.896,-37.656 37.659,-37.656 20.763,0 37.66,16.891 37.66,37.656 0,20.765 -16.897,37.66 -37.66,37.66 z"
           style="fill:url(#greenCircle_6_)"
           inkscape:connector-curvature="0" /><g
           id="Tension"
           display="none"
           style="display:none"><path
             display="inline"
             d="m 389.082,464.025 0,-8.207 -3.065,0 0,-1.098 7.376,0 0,1.098 -3.078,0 0,8.207 -1.233,0 z"
             id="path131"
             inkscape:connector-curvature="0"
             style="display:inline;fill:#deffce" /><path
             display="inline"
             d="m 394.681,464.025 0,-9.305 6.729,0 0,1.098 -5.498,0 0,2.852 5.148,0 0,1.092 -5.148,0 0,3.168 5.713,0 0,1.098 -6.944,0 0,-0.003 z"
             id="path133"
             inkscape:connector-curvature="0"
             style="display:inline;fill:#deffce" /><path
             display="inline"
             d="m 403.313,464.025 0,-9.305 1.265,0 4.887,7.305 0,-7.305 1.182,0 0,9.305 -1.264,0 -4.889,-7.313 0,7.313 -1.181,0 z"
             id="path135"
             inkscape:connector-curvature="0"
             style="display:inline;fill:none" /><path
             display="inline"
             d="m 412.295,461.035 1.162,-0.102 c 0.055,0.467 0.184,0.848 0.385,1.146 0.201,0.298 0.513,0.539 0.937,0.725 0.423,0.184 0.897,0.275 1.429,0.275 0.469,0 0.885,-0.07 1.244,-0.211 0.359,-0.139 0.627,-0.33 0.803,-0.572 0.176,-0.244 0.264,-0.51 0.264,-0.797 0,-0.293 -0.084,-0.549 -0.254,-0.766 -0.17,-0.219 -0.448,-0.4 -0.838,-0.549 -0.25,-0.098 -0.803,-0.25 -1.656,-0.455 -0.855,-0.205 -1.454,-0.398 -1.797,-0.58 -0.444,-0.232 -0.775,-0.521 -0.993,-0.867 -0.218,-0.344 -0.327,-0.73 -0.327,-1.158 0,-0.469 0.135,-0.908 0.4,-1.316 0.265,-0.408 0.654,-0.719 1.168,-0.93 0.512,-0.211 1.08,-0.318 1.707,-0.318 0.689,0 1.299,0.111 1.824,0.334 0.527,0.223 0.933,0.549 1.217,0.98 0.283,0.432 0.436,0.92 0.457,1.467 l -1.182,0.088 c -0.063,-0.588 -0.277,-1.031 -0.645,-1.332 -0.366,-0.301 -0.906,-0.451 -1.622,-0.451 -0.745,0 -1.287,0.137 -1.628,0.41 -0.342,0.273 -0.512,0.602 -0.512,0.986 0,0.334 0.121,0.609 0.361,0.824 0.237,0.217 0.855,0.438 1.855,0.664 1.002,0.227 1.689,0.426 2.062,0.594 0.541,0.25 0.941,0.566 1.199,0.949 0.259,0.383 0.388,0.824 0.388,1.322 0,0.496 -0.142,0.963 -0.426,1.4 -0.283,0.438 -0.689,0.777 -1.222,1.021 -0.532,0.242 -1.13,0.363 -1.794,0.363 -0.842,0 -1.547,-0.121 -2.116,-0.367 -0.569,-0.246 -1.017,-0.615 -1.34,-1.107 -0.322,-0.488 -0.492,-1.047 -0.51,-1.67 z"
             id="path137"
             inkscape:connector-curvature="0"
             style="display:inline;fill:#deffce" /><path
             display="inline"
             d="m 421.597,464.025 0,-9.305 1.231,0 0,9.305 -1.231,0 z"
             id="path139"
             inkscape:connector-curvature="0"
             style="display:inline;fill:#deffce" /><path
             display="inline"
             d="m 424.625,459.494 c 0,-1.545 0.414,-2.754 1.244,-3.629 0.828,-0.873 1.898,-1.311 3.211,-1.311 0.858,0 1.633,0.205 2.323,0.615 0.688,0.412 1.216,0.982 1.577,1.719 0.361,0.732 0.543,1.564 0.543,2.496 0,0.943 -0.189,1.789 -0.57,2.533 -0.382,0.744 -0.922,1.309 -1.619,1.691 -0.699,0.381 -1.451,0.574 -2.261,0.574 -0.876,0 -1.659,-0.211 -2.349,-0.635 -0.69,-0.424 -1.213,-1 -1.567,-1.732 -0.354,-0.732 -0.532,-1.504 -0.532,-2.321 z m 1.269,0.02 c 0,1.121 0.301,2.004 0.903,2.648 0.604,0.646 1.359,0.971 2.271,0.971 0.927,0 1.688,-0.326 2.288,-0.98 0.6,-0.65 0.898,-1.576 0.898,-2.771 0,-0.76 -0.129,-1.42 -0.385,-1.984 -0.257,-0.564 -0.631,-1.002 -1.123,-1.313 -0.494,-0.313 -1.047,-0.467 -1.66,-0.467 -0.873,0 -1.623,0.299 -2.25,0.896 -0.629,0.597 -0.942,1.597 -0.942,3 z"
             id="path141"
             inkscape:connector-curvature="0"
             style="display:inline;fill:#deffce" /><path
             display="inline"
             d="m 435.098,464.025 0,-9.305 1.264,0 4.889,7.305 0,-7.305 1.181,0 0,9.305 -1.265,0 -4.888,-7.313 0,7.313 -1.181,0 z"
             id="path143"
             inkscape:connector-curvature="0"
             style="display:inline;fill:#deffce" /></g><text
           transform="translate(379.667,464.667)"
           display="none"
           font-size="14"
           id="text145"
           style="font-size:14px;font-family:ArialMT;display:none;fill:#deffce">SYNCHRO</text>
<g
           id="SYNCHRO"><path
             d="m 380.296,461.447 1.251,-0.109 c 0.06,0.501 0.197,0.912 0.414,1.234 0.216,0.32 0.552,0.58 1.008,0.779 0.456,0.197 0.969,0.297 1.538,0.297 0.506,0 0.952,-0.075 1.34,-0.226 0.388,-0.151 0.676,-0.356 0.864,-0.618 0.189,-0.263 0.284,-0.549 0.284,-0.858 0,-0.314 -0.091,-0.589 -0.273,-0.823 -0.183,-0.235 -0.483,-0.433 -0.902,-0.592 -0.269,-0.104 -0.863,-0.268 -1.784,-0.488 -0.921,-0.222 -1.565,-0.43 -1.935,-0.626 -0.479,-0.251 -0.835,-0.562 -1.069,-0.933 -0.235,-0.372 -0.353,-0.788 -0.353,-1.248 0,-0.506 0.144,-0.979 0.431,-1.418 0.287,-0.44 0.706,-0.774 1.258,-1.002 0.552,-0.228 1.164,-0.342 1.839,-0.342 0.743,0 1.397,0.119 1.966,0.359 0.566,0.238 1.003,0.591 1.309,1.056 0.306,0.465 0.47,0.991 0.492,1.579 l -1.271,0.096 c -0.068,-0.634 -0.3,-1.112 -0.693,-1.436 -0.395,-0.323 -0.977,-0.485 -1.747,-0.485 -0.802,0 -1.387,0.147 -1.753,0.44 -0.367,0.295 -0.551,0.648 -0.551,1.063 0,0.36 0.13,0.656 0.39,0.889 0.255,0.232 0.922,0.471 1.999,0.714 1.078,0.244 1.817,0.457 2.219,0.64 0.583,0.269 1.014,0.609 1.292,1.022 0.278,0.412 0.417,0.887 0.417,1.425 0,0.533 -0.152,1.036 -0.458,1.507 -0.306,0.473 -0.744,0.839 -1.315,1.102 -0.572,0.262 -1.216,0.393 -1.932,0.393 -0.907,0 -1.667,-0.132 -2.279,-0.396 -0.613,-0.265 -1.094,-0.662 -1.443,-1.193 -0.351,-0.531 -0.535,-1.132 -0.553,-1.802 z"
             id="path148"
             inkscape:connector-curvature="0"
             style="fill:#deffce" /><path
             d="m 392.908,464.667 0,-4.245 -3.862,-5.776 1.613,0 1.976,3.021 c 0.364,0.565 0.704,1.13 1.019,1.695 0.301,-0.524 0.665,-1.114 1.094,-1.771 l 1.941,-2.946 1.545,0 -3.999,5.776 0,4.245 -1.327,0 z"
             id="path150"
             inkscape:connector-curvature="0"
             style="fill:#deffce" /><path
             d="m 399.409,464.667 0,-10.021 1.36,0 5.264,7.868 0,-7.868 1.271,0 0,10.021 -1.36,0 -5.264,-7.875 0,7.875 -1.271,0 z"
             id="path152"
             inkscape:connector-curvature="0"
             style="fill:#deffce" /><path
             d="m 416.684,461.153 1.326,0.335 c -0.278,1.089 -0.778,1.92 -1.5,2.492 -0.723,0.571 -1.605,0.857 -2.649,0.857 -1.08,0 -1.958,-0.22 -2.636,-0.66 -0.676,-0.439 -1.191,-1.076 -1.545,-1.91 -0.353,-0.834 -0.529,-1.729 -0.529,-2.687 0,-1.044 0.199,-1.954 0.598,-2.731 0.399,-0.776 0.967,-1.367 1.703,-1.77 0.735,-0.404 1.546,-0.605 2.43,-0.605 1.003,0 1.846,0.255 2.529,0.766 0.683,0.511 1.16,1.229 1.429,2.153 l -1.306,0.308 c -0.232,-0.729 -0.569,-1.26 -1.012,-1.593 -0.443,-0.333 -0.998,-0.499 -1.668,-0.499 -0.771,0 -1.414,0.185 -1.932,0.554 -0.517,0.369 -0.88,0.864 -1.09,1.487 -0.21,0.621 -0.314,1.263 -0.314,1.924 0,0.853 0.124,1.596 0.373,2.232 0.248,0.635 0.634,1.11 1.158,1.425 0.524,0.315 1.092,0.472 1.702,0.472 0.743,0 1.372,-0.214 1.887,-0.643 0.515,-0.429 0.863,-1.064 1.046,-1.907 z"
             id="path154"
             inkscape:connector-curvature="0"
             style="fill:#deffce" /><path
             d="m 419.685,464.667 0,-10.021 1.326,0 0,4.115 5.209,0 0,-4.115 1.326,0 0,10.021 -1.326,0 0,-4.724 -5.209,0 0,4.724 -1.326,0 z"
             id="path156"
             inkscape:connector-curvature="0"
             style="fill:#deffce" /><path
             d="m 429.774,464.667 0,-10.021 4.443,0 c 0.894,0 1.572,0.09 2.037,0.271 0.465,0.18 0.836,0.497 1.114,0.953 0.278,0.456 0.417,0.959 0.417,1.511 0,0.711 -0.23,1.311 -0.69,1.798 -0.46,0.487 -1.171,0.798 -2.133,0.93 0.351,0.169 0.617,0.335 0.8,0.499 0.388,0.355 0.754,0.8 1.101,1.333 l 1.743,2.728 -1.668,0 -1.326,-2.085 c -0.388,-0.602 -0.706,-1.062 -0.957,-1.381 -0.251,-0.319 -0.476,-0.542 -0.673,-0.67 -0.199,-0.128 -0.4,-0.217 -0.605,-0.267 -0.15,-0.032 -0.396,-0.048 -0.738,-0.048 l -1.538,0 0,4.45 -1.327,0 z m 1.327,-5.599 2.851,0 c 0.606,0 1.08,-0.063 1.422,-0.188 0.342,-0.126 0.602,-0.326 0.779,-0.602 0.178,-0.276 0.267,-0.576 0.267,-0.899 0,-0.474 -0.172,-0.863 -0.517,-1.169 -0.344,-0.306 -0.887,-0.458 -1.63,-0.458 l -3.172,0 0,3.316 z"
             id="path158"
             inkscape:connector-curvature="0"
             style="fill:#deffce" /><path
             d="m 439.461,459.786 c 0,-1.663 0.446,-2.966 1.34,-3.907 0.894,-0.94 2.046,-1.411 3.459,-1.411 0.925,0 1.759,0.221 2.502,0.663 0.743,0.442 1.309,1.059 1.699,1.85 0.389,0.79 0.584,1.687 0.584,2.689 0,1.017 -0.205,1.926 -0.615,2.728 -0.41,0.802 -0.991,1.409 -1.743,1.821 -0.752,0.413 -1.563,0.619 -2.434,0.619 -0.943,0 -1.786,-0.228 -2.529,-0.684 -0.743,-0.456 -1.306,-1.078 -1.688,-1.866 -0.382,-0.788 -0.575,-1.622 -0.575,-2.502 z m 1.367,0.021 c 0,1.208 0.324,2.159 0.975,2.854 0.648,0.695 1.464,1.043 2.443,1.043 0.998,0 1.819,-0.351 2.465,-1.053 0.645,-0.702 0.967,-1.697 0.967,-2.987 0,-0.815 -0.138,-1.528 -0.414,-2.136 -0.275,-0.609 -0.679,-1.08 -1.209,-1.416 -0.531,-0.334 -1.127,-0.502 -1.788,-0.502 -0.938,0 -1.747,0.322 -2.423,0.967 -0.678,0.645 -1.016,1.721 -1.016,3.23 z"
             id="path160"
             inkscape:connector-curvature="0"
             style="fill:#deffce" /></g></g></g><g
       id="cdpPicture0Style2"><rect
         x="235"
         y="403.832"
         width="110"
         height="110"
         id="rect163"
         style="fill:none" /><g
         id="g165"><path
           d="m 290.002,407.334 c 28.438,0 51.494,23.057 51.494,51.496 0,28.439 -23.056,51.496 -51.494,51.496 -28.441,0 -51.498,-23.057 -51.498,-51.496 0,-28.439 23.056,-51.496 51.498,-51.496"
           id="path167"
           inkscape:connector-curvature="0"
           style="fill:#0a0a0a" /><linearGradient
           id="sunkenCircle_7_"
           gradientUnits="userSpaceOnUse"
           x1="235.5498"
           y1="-364.83981"
           x2="290.49231"
           y2="-419.78229"
           gradientTransform="matrix(1,0,0,-1,26.98,66.5195)"><stop
             offset="0"
             style="stop-color:#1D2021"
             id="stop170" /><stop
             offset="0.4337"
             style="stop-color:#1D2021"
             id="stop172" /><stop
             offset="0.6684"
             style="stop-color:#565B5D"
             id="stop174" /><stop
             offset="1"
             style="stop-color:#565B5D"
             id="stop176" /></linearGradient><path
           id="sunkenCircle_12_"
           d="m 345,458.83 c 0,-30.326 -24.674,-55 -54.998,-55 -30.33,0 -55.002,24.674 -55.002,55 0,30.328 24.672,55.002 55.002,55.002 30.324,0 54.998,-24.674 54.998,-55.002 z m -106.498,0 c 0,-28.439 23.057,-51.496 51.5,-51.496 28.438,0 51.494,23.057 51.494,51.496 0,28.441 -23.056,51.496 -51.494,51.496 -28.444,0 -51.5,-23.055 -51.5,-51.496 z"
           style="fill:url(#sunkenCircle_7_)"
           inkscape:connector-curvature="0" /><linearGradient
           id="greenCircle_7_"
           gradientUnits="userSpaceOnUse"
           x1="263.0195"
           y1="-435.22269"
           x2="263.0195"
           y2="-349.39841"
           gradientTransform="matrix(1,0,0,-1,26.98,66.5195)"><stop
             offset="0"
             style="stop-color:#91CB74"
             id="stop180" /><stop
             offset="1"
             style="stop-color:#63B13B"
             id="stop182" /></linearGradient><path
           id="greenCircle_12_"
           d="m 289.998,415.918 c -23.699,0 -42.912,19.207 -42.912,42.912 0,23.699 19.213,42.912 42.912,42.912 23.705,0 42.914,-19.213 42.914,-42.912 0,-23.705 -19.209,-42.912 -42.914,-42.912 z m 0,80.572 c -20.766,0 -37.66,-16.895 -37.66,-37.66 0,-20.765 16.896,-37.656 37.66,-37.656 20.764,0 37.66,16.891 37.66,37.656 0,20.765 -16.898,37.66 -37.66,37.66 z"
           style="fill:url(#greenCircle_7_)"
           inkscape:connector-curvature="0" /><g
           id="g185"><path
             d="m 268.545,461.035 1.162,-0.102 c 0.055,0.467 0.183,0.848 0.383,1.146 0.201,0.299 0.514,0.539 0.938,0.725 0.424,0.184 0.898,0.275 1.428,0.275 0.471,0 0.885,-0.07 1.244,-0.211 0.36,-0.139 0.629,-0.33 0.805,-0.572 0.174,-0.244 0.263,-0.51 0.263,-0.797 0,-0.293 -0.084,-0.549 -0.255,-0.766 -0.168,-0.219 -0.447,-0.4 -0.838,-0.549 -0.248,-0.098 -0.801,-0.25 -1.655,-0.455 -0.854,-0.205 -1.454,-0.398 -1.797,-0.58 -0.444,-0.232 -0.775,-0.521 -0.993,-0.867 -0.219,-0.344 -0.327,-0.73 -0.327,-1.158 0,-0.469 0.134,-0.908 0.399,-1.316 0.267,-0.408 0.656,-0.719 1.168,-0.93 0.513,-0.211 1.082,-0.318 1.707,-0.318 0.691,0 1.3,0.111 1.826,0.334 0.526,0.223 0.932,0.549 1.215,0.98 0.283,0.431 0.437,0.92 0.457,1.467 l -1.18,0.088 c -0.063,-0.588 -0.279,-1.031 -0.646,-1.332 -0.367,-0.301 -0.906,-0.451 -1.622,-0.451 -0.745,0 -1.287,0.137 -1.628,0.41 -0.341,0.273 -0.511,0.602 -0.511,0.986 0,0.334 0.119,0.609 0.36,0.824 0.237,0.217 0.856,0.438 1.856,0.664 1.001,0.227 1.688,0.426 2.061,0.594 0.541,0.25 0.941,0.566 1.199,0.949 0.259,0.383 0.389,0.824 0.389,1.322 0,0.496 -0.143,0.963 -0.427,1.4 -0.282,0.438 -0.69,0.777 -1.222,1.021 -0.532,0.242 -1.129,0.363 -1.793,0.363 -0.844,0 -1.549,-0.121 -2.117,-0.367 -0.568,-0.246 -1.016,-0.615 -1.34,-1.107 -0.322,-0.488 -0.492,-1.047 -0.509,-1.67 z"
             id="path187"
             inkscape:connector-curvature="0"
             style="fill:#deffce" /><path
             d="m 277.635,464.025 0,-9.305 3.511,0 c 0.617,0 1.09,0.029 1.415,0.088 0.457,0.076 0.84,0.221 1.148,0.436 0.31,0.215 0.559,0.514 0.746,0.898 0.188,0.385 0.282,0.809 0.282,1.27 0,0.791 -0.252,1.461 -0.756,2.01 -0.503,0.547 -1.413,0.82 -2.729,0.82 l -2.387,0 0,3.783 -1.23,0 0,0 z m 1.232,-4.88 2.405,0 c 0.795,0 1.36,-0.148 1.694,-0.445 0.334,-0.295 0.502,-0.713 0.502,-1.25 0,-0.389 -0.1,-0.723 -0.295,-1 -0.197,-0.275 -0.457,-0.459 -0.778,-0.549 -0.207,-0.055 -0.59,-0.082 -1.147,-0.082 l -2.381,0 0,3.326 0,0 z"
             id="path189"
             inkscape:connector-curvature="0"
             style="fill:#deffce" /><path
             d="m 286.332,464.025 0,-9.305 6.729,0 0,1.098 -5.497,0 0,2.852 5.148,0 0,1.092 -5.148,0 0,3.168 5.713,0 0,1.098 -6.945,0 0,-0.003 z"
             id="path191"
             inkscape:connector-curvature="0"
             style="fill:#deffce" /><path
             d="m 295.002,464.025 0,-9.305 6.729,0 0,1.098 -5.497,0 0,2.852 5.148,0 0,1.092 -5.148,0 0,3.168 5.713,0 0,1.098 -6.945,0 0,-0.003 z"
             id="path193"
             inkscape:connector-curvature="0"
             style="fill:#deffce" /><path
             d="m 303.649,464.025 0,-9.305 3.206,0 c 0.725,0 1.275,0.043 1.656,0.133 0.533,0.123 0.988,0.346 1.365,0.666 0.49,0.416 0.856,0.945 1.102,1.59 0.243,0.646 0.363,1.383 0.363,2.213 0,0.707 -0.082,1.332 -0.246,1.879 -0.165,0.547 -0.377,0.998 -0.635,1.355 -0.258,0.355 -0.541,0.639 -0.849,0.844 -0.307,0.205 -0.677,0.361 -1.11,0.467 -0.435,0.105 -0.933,0.158 -1.494,0.158 l -3.358,0 z m 1.232,-1.095 1.986,0 c 0.613,0 1.096,-0.059 1.444,-0.172 0.349,-0.115 0.627,-0.275 0.834,-0.482 0.292,-0.293 0.521,-0.686 0.683,-1.178 0.163,-0.494 0.244,-1.092 0.244,-1.793 0,-0.975 -0.158,-1.723 -0.479,-2.244 -0.32,-0.523 -0.709,-0.873 -1.166,-1.051 -0.329,-0.127 -0.86,-0.189 -1.594,-0.189 l -1.955,0 0,7.109 0.003,0 z"
             id="path195"
             inkscape:connector-curvature="0"
             style="fill:#deffce" /></g></g></g><g
       id="cdpPicture0Style1"><rect
         x="115.939"
         y="403.832"
         width="110"
         height="110"
         id="rect198"
         style="fill:none" /><g
         id="g200"><path
           d="m 170.941,407.334 c 28.439,0 51.494,23.057 51.494,51.498 0,28.438 -23.055,51.492 -51.494,51.492 -28.441,0 -51.498,-23.057 -51.498,-51.492 0,-28.441 23.057,-51.498 51.498,-51.498"
           id="path202"
           inkscape:connector-curvature="0"
           style="fill:#0a0a0a" /><linearGradient
           id="sunkenCircle_8_"
           gradientUnits="userSpaceOnUse"
           x1="116.4883"
           y1="-364.83939"
           x2="171.43089"
           y2="-419.78201"
           gradientTransform="matrix(1,0,0,-1,26.98,66.5195)"><stop
             offset="0"
             style="stop-color:#1D2021"
             id="stop205" /><stop
             offset="0.4337"
             style="stop-color:#1D2021"
             id="stop207" /><stop
             offset="0.6684"
             style="stop-color:#565B5D"
             id="stop209" /><stop
             offset="1"
             style="stop-color:#565B5D"
             id="stop211" /></linearGradient><path
           id="sunkenCircle_5_"
           d="m 225.939,458.832 c 0,-30.328 -24.673,-55 -54.998,-55 -30.329,0 -55.002,24.672 -55.002,55 0,30.326 24.673,55 55.002,55 30.326,0 54.998,-24.674 54.998,-55 z m -106.497,0 c 0,-28.441 23.058,-51.498 51.499,-51.498 28.439,0 51.494,23.057 51.494,51.498 0,28.439 -23.055,51.492 -51.494,51.492 -28.441,0 -51.499,-23.053 -51.499,-51.492 z"
           style="fill:url(#sunkenCircle_8_)"
           inkscape:connector-curvature="0" /><linearGradient
           id="greenCircle_8_"
           gradientUnits="userSpaceOnUse"
           x1="143.959"
           y1="-435.22269"
           x2="143.959"
           y2="-349.39841"
           gradientTransform="matrix(1,0,0,-1,26.98,66.5195)"><stop
             offset="0"
             style="stop-color:#B0B0B0"
             id="stop215" /><stop
             offset="1"
             style="stop-color:#8D8D8D"
             id="stop217" /></linearGradient><path
           id="greenCircle_5_"
           d="m 170.938,415.918 c -23.698,0 -42.912,19.209 -42.912,42.914 0,23.695 19.214,42.91 42.912,42.91 23.705,0 42.914,-19.215 42.914,-42.91 0,-23.705 -19.209,-42.914 -42.914,-42.914 z m 0,80.572 c -20.766,0 -37.659,-16.895 -37.659,-37.658 0,-20.77 16.894,-37.66 37.659,-37.66 20.764,0 37.661,16.891 37.661,37.66 0,20.764 -16.898,37.658 -37.661,37.658 z"
           style="fill:url(#greenCircle_8_)"
           inkscape:connector-curvature="0" /><g
           id="g220"><path
             d="m 137.392,464.131 0,-10.023 3.452,0 c 0.779,0 1.375,0.049 1.785,0.145 0.574,0.133 1.063,0.371 1.47,0.719 0.528,0.445 0.924,1.018 1.187,1.713 0.262,0.693 0.393,1.488 0.393,2.381 0,0.762 -0.09,1.438 -0.268,2.023 -0.178,0.588 -0.406,1.074 -0.684,1.461 -0.278,0.385 -0.583,0.688 -0.913,0.906 -0.331,0.223 -0.729,0.391 -1.196,0.504 -0.467,0.113 -1.004,0.172 -1.609,0.172 l -3.617,0 0,-0.001 z m 1.325,-1.184 2.141,0 c 0.661,0 1.18,-0.063 1.557,-0.186 0.375,-0.123 0.674,-0.295 0.898,-0.52 0.314,-0.314 0.559,-0.736 0.734,-1.268 0.175,-0.532 0.264,-1.176 0.264,-1.932 0,-1.049 -0.172,-1.855 -0.516,-2.416 -0.344,-0.564 -0.763,-0.941 -1.254,-1.133 -0.355,-0.137 -0.929,-0.205 -1.717,-0.205 l -2.105,0 0,7.658 -0.002,0 z"
             id="path222"
             inkscape:connector-curvature="0"
             style="fill:#ffffff" /><path
             d="m 147.728,464.131 0,-10.023 1.325,0 0,10.021 -1.325,0 0,0.002 z"
             id="path224"
             inkscape:connector-curvature="0"
             style="fill:#ffffff" /><path
             d="m 150.94,460.91 1.251,-0.109 c 0.059,0.502 0.197,0.914 0.414,1.232 0.216,0.322 0.553,0.582 1.008,0.779 0.456,0.199 0.969,0.299 1.538,0.299 0.507,0 0.952,-0.076 1.341,-0.227 0.387,-0.15 0.676,-0.355 0.864,-0.619 0.188,-0.262 0.284,-0.547 0.284,-0.857 0,-0.313 -0.092,-0.588 -0.273,-0.822 -0.184,-0.234 -0.484,-0.434 -0.902,-0.592 -0.27,-0.104 -0.863,-0.268 -1.784,-0.488 -0.921,-0.223 -1.565,-0.43 -1.935,-0.625 -0.479,-0.252 -0.836,-0.563 -1.07,-0.936 -0.234,-0.371 -0.353,-0.787 -0.353,-1.246 0,-0.506 0.144,-0.979 0.431,-1.42 0.287,-0.438 0.707,-0.771 1.258,-1 0.553,-0.229 1.164,-0.342 1.84,-0.342 0.742,0 1.398,0.119 1.966,0.357 0.567,0.24 1.004,0.592 1.31,1.057 0.306,0.465 0.47,0.992 0.492,1.58 l -1.271,0.096 c -0.068,-0.635 -0.299,-1.113 -0.693,-1.436 -0.395,-0.324 -0.977,-0.486 -1.747,-0.486 -0.802,0 -1.386,0.146 -1.753,0.441 -0.367,0.293 -0.551,0.646 -0.551,1.063 0,0.361 0.13,0.656 0.391,0.891 0.254,0.23 0.922,0.471 1.998,0.715 1.078,0.242 1.818,0.455 2.219,0.639 0.584,0.268 1.015,0.609 1.293,1.021 0.277,0.412 0.416,0.887 0.416,1.426 0,0.533 -0.151,1.035 -0.457,1.508 -0.307,0.471 -0.744,0.838 -1.315,1.1 -0.571,0.264 -1.216,0.395 -1.933,0.395 -0.905,0 -1.666,-0.133 -2.278,-0.396 -0.613,-0.264 -1.095,-0.662 -1.442,-1.191 -0.354,-0.535 -0.538,-1.137 -0.557,-1.807 z"
             id="path226"
             inkscape:connector-curvature="0"
             style="fill:#ffffff" /><path
             d="m 159.629,464.131 3.85,-10.021 1.429,0 4.103,10.021 -1.512,0 -1.168,-3.035 -4.19,0 -1.103,3.035 -1.409,0 z m 2.892,-4.115 3.396,0 -1.045,-2.775 c -0.32,-0.844 -0.558,-1.537 -0.711,-2.078 -0.129,0.643 -0.31,1.279 -0.541,1.914 l -1.099,2.939 z"
             id="path228"
             inkscape:connector-curvature="0"
             style="fill:#ffffff" /><path
             d="m 170.014,464.131 0,-10.023 3.76,0 c 0.766,0 1.38,0.104 1.844,0.305 0.461,0.203 0.823,0.516 1.086,0.938 0.262,0.422 0.394,0.863 0.394,1.322 0,0.43 -0.116,0.832 -0.349,1.211 -0.233,0.377 -0.584,0.684 -1.054,0.916 0.606,0.178 1.072,0.479 1.397,0.908 0.326,0.43 0.488,0.936 0.488,1.518 0,0.471 -0.099,0.906 -0.297,1.311 -0.197,0.402 -0.443,0.713 -0.734,0.934 -0.291,0.219 -0.657,0.383 -1.098,0.494 -0.439,0.111 -0.979,0.168 -1.617,0.168 l -3.82,0 0,-0.002 z m 1.326,-5.813 2.166,0 c 0.59,0 1.011,-0.039 1.267,-0.115 0.337,-0.102 0.591,-0.268 0.763,-0.5 0.17,-0.23 0.256,-0.523 0.256,-0.875 0,-0.332 -0.08,-0.625 -0.24,-0.879 -0.158,-0.252 -0.387,-0.426 -0.682,-0.52 -0.298,-0.092 -0.807,-0.139 -1.525,-0.139 l -2.004,0 0,3.028 z m 0,4.629 2.494,0 c 0.43,0 0.729,-0.016 0.902,-0.049 0.307,-0.055 0.561,-0.145 0.766,-0.271 0.205,-0.126 0.375,-0.314 0.506,-0.559 0.134,-0.244 0.199,-0.523 0.199,-0.844 0,-0.375 -0.097,-0.699 -0.287,-0.975 -0.191,-0.275 -0.457,-0.471 -0.797,-0.582 -0.34,-0.111 -0.828,-0.166 -1.467,-0.166 l -2.316,0 0,3.446 z"
             id="path230"
             inkscape:connector-curvature="0"
             style="fill:#ffffff" /><path
             d="m 179.353,464.131 0,-10.023 1.325,0 0,8.84 4.937,0 0,1.184 -6.262,0 z"
             id="path232"
             inkscape:connector-curvature="0"
             style="fill:#ffffff" /><path
             d="m 187.221,464.131 0,-10.023 7.246,0 0,1.184 -5.92,0 0,3.068 5.543,0 0,1.176 -5.543,0 0,3.412 6.151,0 0,1.184 -7.477,0 0,-0.001 z"
             id="path234"
             inkscape:connector-curvature="0"
             style="fill:#ffffff" /><path
             d="m 196.531,464.131 0,-10.023 3.452,0 c 0.779,0 1.374,0.049 1.784,0.145 0.574,0.133 1.064,0.371 1.47,0.719 0.529,0.445 0.925,1.018 1.187,1.713 0.263,0.693 0.394,1.488 0.394,2.381 0,0.762 -0.089,1.438 -0.267,2.023 -0.178,0.588 -0.405,1.074 -0.684,1.461 -0.277,0.385 -0.582,0.688 -0.912,0.906 -0.332,0.223 -0.729,0.391 -1.197,0.504 -0.467,0.113 -1.004,0.172 -1.609,0.172 l -3.618,0 0,-0.001 z m 1.326,-1.184 2.141,0 c 0.66,0 1.18,-0.063 1.555,-0.186 0.377,-0.123 0.677,-0.295 0.898,-0.52 0.314,-0.314 0.561,-0.736 0.735,-1.268 0.174,-0.532 0.263,-1.176 0.263,-1.932 0,-1.049 -0.172,-1.855 -0.516,-2.416 -0.346,-0.564 -0.764,-0.941 -1.256,-1.133 -0.354,-0.137 -0.926,-0.205 -1.715,-0.205 l -2.105,0 0,7.66 z"
             id="path236"
             inkscape:connector-curvature="0"
             style="fill:#ffffff" /></g></g></g></g><g
     id="Help"
     transform="matrix(1.6132,0,0,1.4764805,114.83988,43.884028)"><text
       transform="translate(87.5,-13.832)"
       font-size="12"
       id="text243"
       style="font-size:12px;font-family:MyriadPro-Regular">Style 1</text>
<text
       transform="translate(158.5078,-13.832)"
       font-size="12"
       id="text245"
       style="font-size:12px;font-family:MyriadPro-Regular">Style 2</text>
<text
       transform="translate(231.1738,-13.832)"
       font-size="12"
       id="text247"
       style="font-size:12px;font-family:MyriadPro-Regular">Style 3</text>
<text
       transform="translate(304.1738,-13.832)"
       font-size="12"
       id="text249"
       style="font-size:12px;font-family:MyriadPro-Regular">Style 4</text>
<text
       transform="translate(7.5005,-13.832)"
       font-size="12"
       id="text251"
       style="font-size:12px;font-family:MyriadPro-Regular">Style 0</text>
<text
       transform="translate(-66.1665,36.5)"
       font-size="12"
       id="text253"
       style="font-size:12px;font-family:MyriadPro-Regular">Picture 0</text>
<text
       style="font-size:12px;font-family:MyriadPro-Regular"
       id="text4389"
       font-size="12"
       x="384.75928"
       y="-13.832">Style 5</text>
</g><text
     display="none"
     font-size="14"
     id="text255"
     style="font-size:14px;font-family:ArialMT;display:none;fill:#ffffff"
     x="126.94086"
     y="497.25388">DISABLED</text>
</svg>