<?xml version="1.0" encoding="utf-8"?>
<!-- Generator: Adobe Illustrator 21.0.2, SVG Export Plug-In . SVG Version: 6.00 Build 0)  -->
<svg version="1.1" id="svg" xmlns="http://www.w3.org/2000/svg" xmlns:xlink="http://www.w3.org/1999/xlink" x="0px" y="0px"
	 viewBox="0 0 27 27" style="enable-background:new 0 0 27 27;" xml:space="preserve">
<style type="text/css">
	.st0{display:none;fill:url(#SVGID_1_);}
	.st1{fill:none;}
	.st2{fill:url(#SVGID_2_);}
	.st3{fill:#111111;}
	.st4{opacity:0.5;fill:url(#SVGID_3_);enable-background:new    ;}
	.st5{opacity:0.1;fill:url(#SVGID_4_);enable-background:new    ;}
</style>
<linearGradient id="SVGID_1_" gradientUnits="userSpaceOnUse" x1="-790.2057" y1="13.1516" x2="-790.0895" y2="13.1516" gradientTransform="matrix(0 -258.2002 258.2002 0 -3382.252 -204002.7656)">
	<stop  offset="0" style="stop-color:#1A1A1A"/>
	<stop  offset="1" style="stop-color:#030303"/>
</linearGradient>
<rect x="-1.5" y="-1.5" class="st0" width="30" height="30"/>
<g id="Layer1">
	<g id="cdpPicture2">
		<rect class="st1" width="27" height="27"/>
		
			<linearGradient id="SVGID_2_" gradientUnits="userSpaceOnUse" x1="-792.2593" y1="20.5174" x2="-791.2593" y2="20.5174" gradientTransform="matrix(0 -27 27 0 -540.4707 -21364.0039)">
			<stop  offset="0" style="stop-color:#FBAB2C"/>
			<stop  offset="1" style="stop-color:#C67D24"/>
			<stop  offset="1" style="stop-color:#D27D28"/>
		</linearGradient>
		<path class="st2" d="M25,0H2C0.9,0,0,0.9,0,2v23c0,1.1,0.9,2,2,2h23c1.1,0,2-0.9,2-2V2C27,0.9,26.1,0,25,0z"/>
		<g>
			<path class="st3" d="M10.1,8.5c0.6-0.1,1.6-0.2,2.5-0.2c1.4,0,2.3,0.2,3,0.8c0.6,0.4,0.9,1.1,0.9,1.9c0,1-0.7,2-1.8,2.4v0
				c1,0.3,2.2,1.1,2.2,2.7c0,0.9-0.4,1.6-0.9,2.2c-0.8,0.7-2,1-3.7,1c-1,0-1.7-0.1-2.2-0.1L10.1,8.5L10.1,8.5z M11.5,13h1.3
				c1.5,0,2.3-0.8,2.3-1.8c0-1.3-1-1.8-2.4-1.8c-0.6,0-1,0-1.2,0.1L11.5,13L11.5,13z M11.5,18.1c0.3,0,0.7,0.1,1.2,0.1
				c1.4,0,2.8-0.5,2.8-2.1c0-1.5-1.3-2.1-2.8-2.1h-1.2L11.5,18.1L11.5,18.1z"/>
		</g>
	</g>
	<g id="cdpPicture1">
		<rect class="st1" width="27" height="27"/>
		
			<linearGradient id="SVGID_3_" gradientUnits="userSpaceOnUse" x1="-792.2593" y1="20.5174" x2="-791.2593" y2="20.5174" gradientTransform="matrix(0 -27 27 0 -540.4707 -21364.0039)">
			<stop  offset="0" style="stop-color:#B0B0B0"/>
			<stop  offset="1" style="stop-color:#8B8B8B"/>
		</linearGradient>
		<path class="st4" d="M25,0H2C0.9,0,0,0.9,0,2v23c0,1.1,0.9,2,2,2h23c1.1,0,2-0.9,2-2V2C27,0.9,26.1,0,25,0z"/>
		<g>
			<path class="st3" d="M10.1,8.5c0.6-0.1,1.6-0.2,2.5-0.2c1.4,0,2.3,0.2,3,0.8c0.6,0.4,0.9,1.1,0.9,1.9c0,1-0.7,2-1.8,2.4v0
				c1,0.3,2.2,1.1,2.2,2.7c0,0.9-0.4,1.6-0.9,2.2c-0.8,0.7-2,1-3.7,1c-1,0-1.7-0.1-2.2-0.1L10.1,8.5L10.1,8.5z M11.5,13h1.3
				c1.5,0,2.3-0.8,2.3-1.8c0-1.3-1-1.8-2.4-1.8c-0.6,0-1,0-1.2,0.1L11.5,13L11.5,13z M11.5,18.1c0.3,0,0.7,0.1,1.2,0.1
				c1.4,0,2.8-0.5,2.8-2.1c0-1.5-1.3-2.1-2.8-2.1h-1.2L11.5,18.1L11.5,18.1z"/>
		</g>
	</g>
	<g id="cdpPicture0">
		<rect class="st1" width="27" height="27"/>
		
			<linearGradient id="SVGID_4_" gradientUnits="userSpaceOnUse" x1="-792.2593" y1="20.5174" x2="-791.2593" y2="20.5174" gradientTransform="matrix(0 -27 27 0 -540.4707 -21364.0039)">
			<stop  offset="0" style="stop-color:#B0B0B0"/>
			<stop  offset="1" style="stop-color:#8B8B8B"/>
		</linearGradient>
		<path class="st5" d="M25,0H2C0.9,0,0,0.9,0,2v23c0,1.1,0.9,2,2,2h23c1.1,0,2-0.9,2-2V2C27,0.9,26.1,0,25,0z"/>
		<g>
			<path class="st3" d="M10.1,8.5c0.6-0.1,1.6-0.2,2.5-0.2c1.4,0,2.3,0.2,3,0.8c0.6,0.4,0.9,1.1,0.9,1.9c0,1-0.7,2-1.8,2.4v0
				c1,0.3,2.2,1.1,2.2,2.7c0,0.9-0.4,1.6-0.9,2.2c-0.8,0.7-2,1-3.7,1c-1,0-1.7-0.1-2.2-0.1L10.1,8.5L10.1,8.5z M11.5,13h1.3
				c1.5,0,2.3-0.8,2.3-1.8c0-1.3-1-1.8-2.4-1.8c-0.6,0-1,0-1.2,0.1L11.5,13L11.5,13z M11.5,18.1c0.3,0,0.7,0.1,1.2,0.1
				c1.4,0,2.8-0.5,2.8-2.1c0-1.5-1.3-2.1-2.8-2.1h-1.2L11.5,18.1L11.5,18.1z"/>
		</g>
	</g>
</g>
</svg>
