<?xml version="1.0" encoding="utf-8"?>
<!-- Generator: Adobe Illustrator 15.1.0, SVG Export Plug-In . SVG Version: 6.00 Build 0)  -->
<!DOCTYPE svg PUBLIC "-//W3C//DTD SVG 1.1//EN" "http://www.w3.org/Graphics/SVG/1.1/DTD/svg11.dtd">
<svg version="1.1" id="svg" xmlns="http://www.w3.org/2000/svg" xmlns:xlink="http://www.w3.org/1999/xlink" x="0px" y="0px"
	 width="63px" height="63px" viewBox="0 0 63 63" enable-background="new 0 0 63 63" xml:space="preserve">
<g id="Layer1">
	<g id="back">
		
			<linearGradient id="SVGID_1_" gradientUnits="userSpaceOnUse" x1="29.8154" y1="89.4463" x2="682.3865" y2="-563.1248" gradientTransform="matrix(1 0 0 -1 8.3999 39.1602)">
			<stop  offset="0" style="stop-color:#363C3C"/>
			<stop  offset="1" style="stop-color:#2E3436"/>
		</linearGradient>
		<path fill="url(#SVGID_1_)" d="M739.5,551.5c0,2.762-2.238,5-5,5h-740c-2.761,0-5-2.238-5-5V0.5c0-2.761,2.239-5,5-5h740
			c2.762,0,5,2.239,5,5V551.5z"/>
		<path fill="none" stroke="#0F0F0F" stroke-width="3" stroke-miterlimit="10" d="M739,552c0,2.762-2.238,5-5,5H-6
			c-2.761,0-5-2.238-5-5V1c0-2.761,2.239-5,5-5h740c2.762,0,5,2.239,5,5V552z"/>
	</g>
	<g id="cdpPicture2">
		<rect x="-2.5" y="155.26" fill="none" width="110" height="110"/>
		<g>
			<path fill="#0A0A0A" d="M52.502,158.762c28.439,0,51.494,23.057,51.494,51.498c0,28.438-23.055,51.494-51.494,51.494
				c-28.441,0-51.498-23.057-51.498-51.494C1.004,181.818,24.061,158.762,52.502,158.762"/>
			
				<linearGradient id="sunkenCircle_5_" gradientUnits="userSpaceOnUse" x1="16.6304" y1="-143.6284" x2="71.5728" y2="-198.5709" gradientTransform="matrix(1 0 0 -1 8.3999 39.1602)">
				<stop  offset="0" style="stop-color:#1D2021"/>
				<stop  offset="0.4337" style="stop-color:#1D2021"/>
				<stop  offset="0.6684" style="stop-color:#565B5D"/>
				<stop  offset="1" style="stop-color:#565B5D"/>
			</linearGradient>
			<path id="sunkenCircle_10_" fill="url(#sunkenCircle_5_)" d="M107.5,210.26c0-30.326-24.673-55-54.998-55
				c-30.329,0-55.002,24.674-55.002,55c0,30.327,24.673,55,55.002,55C82.827,265.26,107.5,240.587,107.5,210.26z M1.003,210.26
				c0-28.441,23.057-51.498,51.499-51.498c28.439,0,51.494,23.057,51.494,51.498s-23.055,51.494-51.494,51.494
				C24.06,261.754,1.003,238.701,1.003,210.26z"/>
			
				<linearGradient id="greenCircle_3_" gradientUnits="userSpaceOnUse" x1="44.0996" y1="-214.0107" x2="44.0996" y2="-128.1855" gradientTransform="matrix(1 0 0 -1 8.3999 39.1602)">
				<stop  offset="0" style="stop-color:#B0B0B0"/>
				<stop  offset="1" style="stop-color:#8D8D8D"/>
			</linearGradient>
			<path id="greenCircle_10_" fill="url(#greenCircle_3_)" d="M52.498,167.346c-23.698,0-42.912,19.211-42.912,42.914
				c0,23.697,19.214,42.911,42.912,42.911c23.705,0,42.914-19.214,42.914-42.911C95.412,186.557,76.203,167.346,52.498,167.346z
				 M52.498,247.919c-20.765,0-37.659-16.896-37.659-37.659c0-20.769,16.894-37.658,37.659-37.658
				c20.764,0,37.661,16.891,37.661,37.658C90.159,231.023,73.262,247.919,52.498,247.919z"/>
			<g id="comError">
				
					<line fill="none" stroke="#FF0000" stroke-width="4" stroke-miterlimit="10" x1="-2.665" y1="155.632" x2="107.334" y2="265.15"/>
				
					<line fill="none" stroke="#FF0000" stroke-width="4" stroke-miterlimit="10" x1="-2.782" y1="265.097" x2="107.288" y2="155.577"/>
			</g>
		</g>
	</g>
	<g id="cdpPicture1">
		<rect y="73.043" fill="none" width="63" height="63"/>
		<g>
			<path fill="#0A0A0A" d="M31.501,75.049c16.288,0,29.492,13.205,29.492,29.493s-13.204,29.493-29.492,29.493
				c-16.289,0-29.494-13.205-29.494-29.493S15.212,75.049,31.501,75.049"/>
			
				<linearGradient id="sunkenCircle_7_" gradientUnits="userSpaceOnUse" x1="7.3682" y1="-49.6484" x2="38.8352" y2="-81.1153" gradientTransform="matrix(1 0 0 -1 8.3999 39.1602)">
				<stop  offset="0" style="stop-color:#1D2021"/>
				<stop  offset="0.4337" style="stop-color:#1D2021"/>
				<stop  offset="0.6684" style="stop-color:#565B5D"/>
				<stop  offset="1" style="stop-color:#565B5D"/>
			</linearGradient>
			<path id="sunkenCircle_3_" fill="url(#sunkenCircle_7_)" d="M63,104.542c0-17.369-14.131-31.5-31.499-31.5
				C14.131,73.042,0,87.173,0,104.542c0,17.37,14.131,31.501,31.501,31.501C48.869,136.043,63,121.912,63,104.542z M2.006,104.542
				c0-16.288,13.205-29.493,29.495-29.493c16.288,0,29.492,13.205,29.492,29.493c0,16.29-13.204,29.493-29.492,29.493
				C15.211,134.035,2.006,120.832,2.006,104.542z"/>
			
				<linearGradient id="greyCircle_2_" gradientUnits="userSpaceOnUse" x1="23.0996" y1="-89.959" x2="23.0996" y2="-40.8047" gradientTransform="matrix(1 0 0 -1 8.3999 39.1602)">
				<stop  offset="0" style="stop-color:#B0B0B0"/>
				<stop  offset="1" style="stop-color:#8D8D8D"/>
			</linearGradient>
			<path id="greyCircle_1_" fill="url(#greyCircle_2_)" d="M31.499,79.965c-13.573,0-24.577,11.001-24.577,24.577
				c0,13.573,11.004,24.577,24.577,24.577c13.576,0,24.578-11.004,24.578-24.577C56.077,90.966,45.075,79.965,31.499,79.965z
				 M31.499,126.111c-11.893,0-21.568-9.676-21.568-21.569s9.676-21.567,21.568-21.567c11.892,0,21.569,9.674,21.569,21.567
				S43.391,126.111,31.499,126.111z"/>
			<g id="comError_1_">
				<line fill="none" stroke="#FF0000" stroke-width="4" stroke-miterlimit="10" x1="0.033" y1="73.059" x2="63.033" y2="136.059"/>
				
					<line fill="none" stroke="#FF0000" stroke-width="4" stroke-miterlimit="10" x1="-0.034" y1="136.027" x2="63.008" y2="73.026"/>
			</g>
		</g>
	</g>
	<g id="cdpPicture0">
		<rect fill="none" width="63" height="63"/>
		<g>
			<path fill="#0A0A0A" d="M31.501,2.006c16.288,0,29.492,13.205,29.492,29.493S47.789,60.992,31.501,60.992
				c-16.289,0-29.494-13.205-29.494-29.493S15.212,2.006,31.501,2.006"/>
			
				<linearGradient id="sunkenCircle_8_" gradientUnits="userSpaceOnUse" x1="7.3672" y1="23.394" x2="38.8342" y2="-8.073" gradientTransform="matrix(1 0 0 -1 8.3999 39.1602)">
				<stop  offset="0" style="stop-color:#1D2021"/>
				<stop  offset="0.4337" style="stop-color:#1D2021"/>
				<stop  offset="0.6684" style="stop-color:#565B5D"/>
				<stop  offset="1" style="stop-color:#565B5D"/>
			</linearGradient>
			<path id="sunkenCircle" fill="url(#sunkenCircle_8_)" d="M63,31.5C63,14.13,48.869,0,31.501,0C14.131,0,0,14.13,0,31.5
				C0,48.869,14.131,63,31.501,63C48.869,63,63,48.869,63,31.5z M2.006,31.5c0-16.288,13.205-29.493,29.495-29.493
				c16.288,0,29.492,13.205,29.492,29.493c0,16.29-13.204,29.493-29.492,29.493C15.211,60.992,2.006,47.789,2.006,31.5z"/>
			
				<linearGradient id="greyCircle_3_" gradientUnits="userSpaceOnUse" x1="23.0996" y1="-16.917" x2="23.0996" y2="32.2388" gradientTransform="matrix(1 0 0 -1 8.3999 39.1602)">
				<stop  offset="0" style="stop-color:#B0B0B0"/>
				<stop  offset="1" style="stop-color:#8D8D8D"/>
			</linearGradient>
			<path id="greyCircle" fill="url(#greyCircle_3_)" d="M31.499,6.922C17.926,6.922,6.922,17.923,6.922,31.5
				c0,13.573,11.004,24.577,24.577,24.577c13.576,0,24.578-11.004,24.578-24.577C56.077,17.923,45.075,6.922,31.499,6.922z
				 M31.499,53.068c-11.893,0-21.568-9.676-21.568-21.569c0-11.894,9.676-21.567,21.568-21.567c11.892,0,21.569,9.674,21.569,21.567
				C53.068,43.393,43.391,53.068,31.499,53.068z"/>
			<g id="comError_2_">
				<line fill="none" stroke="#FF0000" stroke-width="4" stroke-miterlimit="10" x1="0" y1="0" x2="63" y2="63"/>
				<line fill="none" stroke="#FF0000" stroke-width="4" stroke-miterlimit="10" x1="-0.067" y1="62.969" x2="62.975" y2="-0.032"/>
			</g>
		</g>
	</g>
</g>
<g id="Styles">
	<g id="cdpPicture2Style5">
		<rect x="608.471" y="154.497" fill="none" width="110" height="110.002"/>
		<g>
			<path fill="#0A0A0A" d="M663.473,157.999c28.438,0,51.494,23.058,51.494,51.498c0,28.438-23.057,51.496-51.494,51.496
				c-28.439,0-51.498-23.058-51.498-51.496C611.975,181.057,635.031,157.999,663.473,157.999"/>
			
				<linearGradient id="SVGID_2_" gradientUnits="userSpaceOnUse" x1="627.6045" y1="-142.8691" x2="682.566" y2="-197.8307" gradientTransform="matrix(1 0 0 -1 8.3999 39.1602)">
				<stop  offset="0" style="stop-color:#1D2021"/>
				<stop  offset="0.4337" style="stop-color:#1D2021"/>
				<stop  offset="0.6684" style="stop-color:#565B5D"/>
				<stop  offset="1" style="stop-color:#565B5D"/>
			</linearGradient>
			<path fill="url(#SVGID_2_)" d="M718.471,209.497c0-30.327-24.674-55-54.998-55c-30.33,0-55.002,24.673-55.002,55
				c0,30.329,24.672,55.002,55.002,55.002C693.797,264.499,718.471,239.826,718.471,209.497z M611.975,209.497
				c0-28.44,23.055-51.498,51.498-51.498c28.438,0,51.494,23.058,51.494,51.498c0,28.438-23.057,51.496-51.494,51.496
				C635.027,260.993,611.975,237.938,611.975,209.497z"/>
			
				<linearGradient id="SVGID_3_" gradientUnits="userSpaceOnUse" x1="655.0693" y1="-213.249" x2="655.0693" y2="-127.4229" gradientTransform="matrix(1 0 0 -1 8.3999 39.1602)">
				<stop  offset="0" style="stop-color:#D70F0F"/>
				<stop  offset="1" style="stop-color:#8D0E0E"/>
			</linearGradient>
			<path fill="url(#SVGID_3_)" d="M663.469,166.583c-23.697,0-42.914,19.21-42.914,42.914c0,23.698,19.217,42.912,42.914,42.912
				c23.701,0,42.914-19.214,42.914-42.912C706.383,185.793,687.17,166.583,663.469,166.583z M663.469,247.154
				c-20.768,0-37.66-16.896-37.66-37.657c0-20.769,16.893-37.659,37.66-37.659c20.766,0,37.66,16.891,37.66,37.659
				C701.129,230.26,684.234,247.154,663.469,247.154z"/>
			<g enable-background="new    ">
				<path fill="#EFB3B3" d="M642.228,214.529v-9.306h6.729v1.099h-5.497v2.85h5.148v1.092h-5.148v3.168h5.713v1.098H642.228z"/>
				<path fill="#EFB3B3" d="M650.893,214.529v-9.306h4.125c0.83,0,1.461,0.084,1.893,0.251s0.775,0.462,1.034,0.885
					c0.259,0.424,0.388,0.892,0.388,1.403c0,0.66-0.215,1.217-0.642,1.669c-0.427,0.453-1.087,0.741-1.98,0.863
					c0.325,0.157,0.573,0.312,0.743,0.464c0.359,0.33,0.699,0.743,1.021,1.237l1.619,2.533h-1.549l-1.232-1.936
					c-0.359-0.559-0.655-0.986-0.889-1.283c-0.232-0.296-0.44-0.503-0.625-0.621c-0.184-0.119-0.371-0.201-0.562-0.248
					c-0.14-0.029-0.368-0.045-0.686-0.045h-1.429v4.133H650.893z M652.123,209.33h2.647c0.563,0,1.003-0.058,1.32-0.174
					s0.559-0.303,0.724-0.559s0.248-0.534,0.248-0.835c0-0.44-0.16-0.802-0.479-1.085c-0.319-0.284-0.824-0.426-1.515-0.426h-2.945
					V209.33z"/>
				<path fill="#EFB3B3" d="M660.28,214.529v-9.306h4.126c0.83,0,1.46,0.084,1.892,0.251s0.776,0.462,1.034,0.885
					c0.259,0.424,0.388,0.892,0.388,1.403c0,0.66-0.214,1.217-0.642,1.669c-0.427,0.453-1.087,0.741-1.98,0.863
					c0.326,0.157,0.574,0.312,0.743,0.464c0.36,0.33,0.7,0.743,1.022,1.237l1.618,2.533h-1.549l-1.231-1.936
					c-0.359-0.559-0.656-0.986-0.889-1.283c-0.232-0.296-0.441-0.503-0.625-0.621c-0.185-0.119-0.371-0.201-0.563-0.248
					c-0.139-0.029-0.367-0.045-0.686-0.045h-1.428v4.133H660.28z M661.512,209.33h2.646c0.563,0,1.004-0.058,1.32-0.174
					c0.318-0.116,0.559-0.303,0.725-0.559c0.164-0.256,0.247-0.534,0.247-0.835c0-0.44-0.159-0.802-0.479-1.085
					c-0.319-0.284-0.824-0.426-1.514-0.426h-2.945V209.33z"/>
				<path fill="#EFB3B3" d="M669.275,209.997c0-1.545,0.414-2.754,1.244-3.628c0.829-0.874,1.899-1.311,3.211-1.311
					c0.859,0,1.634,0.205,2.324,0.615c0.689,0.411,1.215,0.983,1.577,1.718c0.361,0.734,0.542,1.566,0.542,2.497
					c0,0.944-0.189,1.788-0.57,2.533s-0.921,1.309-1.619,1.691s-1.451,0.574-2.26,0.574c-0.876,0-1.658-0.211-2.349-0.635
					c-0.69-0.423-1.212-1-1.567-1.732S669.275,210.813,669.275,209.997z M670.545,210.016c0,1.122,0.301,2.005,0.904,2.65
					c0.603,0.646,1.359,0.969,2.27,0.969c0.926,0,1.689-0.326,2.288-0.979c0.599-0.651,0.897-1.576,0.897-2.773
					c0-0.758-0.127-1.419-0.384-1.983c-0.256-0.565-0.63-1.003-1.123-1.314c-0.493-0.311-1.046-0.466-1.66-0.466
					c-0.872,0-1.622,0.299-2.25,0.897C670.858,207.615,670.545,208.615,670.545,210.016z"/>
				<path fill="#EFB3B3" d="M679.78,214.529v-9.306h4.126c0.83,0,1.46,0.084,1.892,0.251s0.776,0.462,1.034,0.885
					c0.259,0.424,0.388,0.892,0.388,1.403c0,0.66-0.214,1.217-0.642,1.669c-0.427,0.453-1.087,0.741-1.98,0.863
					c0.326,0.157,0.574,0.312,0.743,0.464c0.36,0.33,0.7,0.743,1.022,1.237l1.618,2.533h-1.549l-1.231-1.936
					c-0.359-0.559-0.656-0.986-0.889-1.283c-0.232-0.296-0.441-0.503-0.625-0.621c-0.185-0.119-0.371-0.201-0.563-0.248
					c-0.139-0.029-0.367-0.045-0.686-0.045h-1.428v4.133H679.78z M681.012,209.33h2.646c0.563,0,1.004-0.058,1.32-0.174
					c0.318-0.116,0.559-0.303,0.725-0.559c0.164-0.256,0.247-0.534,0.247-0.835c0-0.44-0.159-0.802-0.479-1.085
					c-0.319-0.284-0.824-0.426-1.514-0.426h-2.945V209.33z"/>
			</g>
		</g>
	</g>
	<g id="cdpPicture2Style4">
		<rect x="484.83" y="154.879" fill="none" width="110" height="110.001"/>
		<g>
			<path fill="#0A0A0A" d="M539.832,158.381c28.439,0,51.494,23.057,51.494,51.498c0,28.439-23.055,51.496-51.494,51.496
				c-28.438,0-51.496-23.057-51.496-51.496C488.336,181.438,511.395,158.381,539.832,158.381"/>
			
				<linearGradient id="SVGID_4_" gradientUnits="userSpaceOnUse" x1="503.9648" y1="-143.2524" x2="558.926" y2="-198.2136" gradientTransform="matrix(1 0 0 -1 8.3999 39.1602)">
				<stop  offset="0" style="stop-color:#1D2021"/>
				<stop  offset="0.4337" style="stop-color:#1D2021"/>
				<stop  offset="0.6684" style="stop-color:#565B5D"/>
				<stop  offset="1" style="stop-color:#565B5D"/>
			</linearGradient>
			<path fill="url(#SVGID_4_)" d="M594.83,209.879c0-30.327-24.672-55-54.998-55c-30.328,0-55.002,24.673-55.002,55
				c0,30.328,24.674,55.001,55.002,55.001C570.158,264.88,594.83,240.207,594.83,209.879z M488.336,209.879
				c0-28.441,23.055-51.498,51.496-51.498c28.439,0,51.494,23.057,51.494,51.498c0,28.439-23.055,51.496-51.494,51.496
				C511.391,261.375,488.336,238.318,488.336,209.879z"/>
			
				<linearGradient id="SVGID_5_" gradientUnits="userSpaceOnUse" x1="531.4287" y1="-213.6309" x2="531.4287" y2="-127.8037" gradientTransform="matrix(1 0 0 -1 8.3999 39.1602)">
				<stop  offset="0" style="stop-color:#B0B0B0"/>
				<stop  offset="1" style="stop-color:#8D8D8D"/>
			</linearGradient>
			<path fill="url(#SVGID_5_)" d="M539.828,166.964c-23.695,0-42.914,19.21-42.914,42.915c0,23.699,19.219,42.912,42.914,42.912
				c23.701,0,42.914-19.213,42.914-42.912C582.742,186.174,563.529,166.964,539.828,166.964z M539.828,247.536
				c-20.766,0-37.658-16.896-37.658-37.657c0-20.77,16.893-37.659,37.658-37.659c20.768,0,37.662,16.892,37.662,37.659
				C577.49,230.643,560.596,247.536,539.828,247.536z"/>
			
				<text transform="matrix(1 0 0 1 509.3232 214.9121)" display="none" fill="#EFB3B3" enable-background="new    " font-family="'ArialMT'" font-size="13">STOPPED</text>
			<g>
				<g>
					<path fill="#FFFFFF" d="M509.906,211.922l1.162-0.102c0.055,0.466,0.184,0.848,0.385,1.146s0.514,0.539,0.938,0.724
						c0.422,0.185,0.896,0.276,1.428,0.276c0.469,0,0.885-0.069,1.244-0.21c0.359-0.14,0.627-0.331,0.803-0.574
						c0.176-0.242,0.264-0.509,0.264-0.797c0-0.292-0.084-0.547-0.254-0.765s-0.447-0.401-0.838-0.55
						c-0.25-0.098-0.803-0.248-1.656-0.453c-0.855-0.205-1.453-0.399-1.797-0.581c-0.443-0.231-0.775-0.521-0.992-0.866
						c-0.219-0.345-0.328-0.73-0.328-1.159c0-0.469,0.135-0.907,0.4-1.315s0.654-0.719,1.168-0.93
						c0.512-0.213,1.08-0.318,1.707-0.318c0.689,0,1.299,0.111,1.824,0.334c0.527,0.222,0.934,0.549,1.217,0.979
						c0.283,0.433,0.436,0.921,0.457,1.468l-1.182,0.088c-0.063-0.588-0.277-1.032-0.645-1.332
						c-0.365-0.301-0.906-0.451-1.623-0.451c-0.744,0-1.285,0.137-1.627,0.408c-0.342,0.273-0.512,0.604-0.512,0.988
						c0,0.334,0.121,0.608,0.361,0.824c0.238,0.216,0.855,0.438,1.855,0.663c1.002,0.228,1.689,0.425,2.063,0.594
						c0.541,0.25,0.939,0.566,1.199,0.949c0.258,0.383,0.387,0.824,0.387,1.323c0,0.494-0.143,0.962-0.426,1.398
						c-0.283,0.438-0.689,0.779-1.223,1.022c-0.531,0.243-1.129,0.364-1.793,0.364c-0.842,0-1.547-0.123-2.117-0.367
						c-0.568-0.246-1.016-0.615-1.34-1.108C510.096,213.102,509.924,212.545,509.906,211.922z"/>
					<path fill="#FFFFFF" d="M521.365,214.912v-8.207h-3.066v-1.1h7.377v1.1h-3.078v8.207H521.365z"/>
					<path fill="#FFFFFF" d="M526.564,210.38c0-1.545,0.414-2.754,1.244-3.628c0.828-0.874,1.898-1.311,3.211-1.311
						c0.859,0,1.633,0.205,2.324,0.615c0.688,0.41,1.215,0.982,1.576,1.717s0.543,1.566,0.543,2.498c0,0.943-0.189,1.787-0.57,2.533
						c-0.381,0.744-0.922,1.309-1.619,1.69c-0.699,0.382-1.451,0.573-2.26,0.573c-0.877,0-1.66-0.211-2.35-0.635
						c-0.689-0.423-1.213-1-1.566-1.731C526.742,211.971,526.564,211.195,526.564,210.38z M527.834,210.398
						c0,1.121,0.301,2.004,0.904,2.649s1.359,0.97,2.27,0.97c0.928,0,1.689-0.326,2.289-0.979c0.598-0.651,0.896-1.576,0.896-2.772
						c0-0.759-0.127-1.42-0.383-1.983c-0.258-0.565-0.631-1.003-1.125-1.314c-0.492-0.311-1.045-0.466-1.66-0.466
						c-0.871,0-1.621,0.299-2.25,0.896C528.146,207.998,527.834,208.998,527.834,210.398z"/>
					<path fill="#FFFFFF" d="M537.051,214.912v-9.307h3.512c0.617,0,1.09,0.029,1.414,0.09c0.457,0.076,0.84,0.221,1.148,0.435
						c0.311,0.214,0.559,0.515,0.746,0.897c0.189,0.386,0.283,0.81,0.283,1.271c0,0.791-0.252,1.461-0.756,2.009
						c-0.504,0.549-1.414,0.822-2.73,0.822h-2.387v3.783H537.051z M538.281,210.031h2.406c0.795,0,1.361-0.148,1.695-0.445
						c0.334-0.296,0.502-0.713,0.502-1.25c0-0.391-0.1-0.723-0.295-1c-0.197-0.277-0.457-0.46-0.779-0.549
						c-0.207-0.055-0.59-0.082-1.148-0.082h-2.381V210.031z"/>
					<path fill="#FFFFFF" d="M545.723,214.912v-9.307h3.512c0.617,0,1.09,0.029,1.414,0.09c0.457,0.076,0.84,0.221,1.15,0.435
						c0.309,0.214,0.557,0.515,0.744,0.897c0.189,0.386,0.283,0.81,0.283,1.271c0,0.791-0.252,1.461-0.756,2.009
						c-0.504,0.549-1.414,0.822-2.729,0.822h-2.389v3.783H545.723z M546.953,210.031h2.406c0.795,0,1.361-0.148,1.695-0.445
						c0.334-0.296,0.502-0.713,0.502-1.25c0-0.391-0.1-0.723-0.295-1c-0.197-0.277-0.457-0.46-0.779-0.549
						c-0.207-0.055-0.59-0.082-1.148-0.082h-2.381V210.031z"/>
					<path fill="#FFFFFF" d="M554.42,214.912v-9.307h6.729v1.1h-5.498v2.85h5.148v1.092h-5.148v3.168h5.713v1.099L554.42,214.912
						L554.42,214.912z"/>
					<path fill="#FFFFFF" d="M563.064,214.912v-9.307h3.205c0.725,0,1.275,0.045,1.656,0.135c0.533,0.121,0.988,0.345,1.365,0.666
						c0.49,0.414,0.857,0.943,1.102,1.59s0.365,1.383,0.365,2.213c0,0.706-0.082,1.332-0.248,1.879
						c-0.164,0.545-0.377,0.997-0.635,1.354c-0.26,0.357-0.541,0.641-0.848,0.846s-0.678,0.359-1.111,0.467
						c-0.434,0.105-0.932,0.158-1.494,0.158H563.064z M564.297,213.814h1.986c0.613,0,1.096-0.059,1.443-0.172
						c0.35-0.115,0.627-0.275,0.834-0.482c0.293-0.292,0.52-0.686,0.684-1.178c0.162-0.493,0.244-1.092,0.244-1.793
						c0-0.975-0.16-1.723-0.479-2.244c-0.32-0.522-0.709-0.873-1.166-1.051c-0.33-0.127-0.861-0.189-1.594-0.189h-1.955v7.109
						H564.297z"/>
				</g>
			</g>
		</g>
	</g>
	<g id="cdpPicture2Style3">
		<rect x="361.832" y="154.499" fill="none" width="110" height="110.001"/>
		<g>
			<path fill="#0A0A0A" d="M416.836,158.001c28.438,0,51.492,23.058,51.492,51.498c0,28.438-23.055,51.496-51.492,51.496
				c-28.439,0-51.498-23.058-51.498-51.496C365.338,181.059,388.396,158.001,416.836,158.001"/>
			
				<linearGradient id="SVGID_6_" gradientUnits="userSpaceOnUse" x1="380.9668" y1="-142.8711" x2="435.9284" y2="-197.8327" gradientTransform="matrix(1 0 0 -1 8.3999 39.1602)">
				<stop  offset="0" style="stop-color:#1D2021"/>
				<stop  offset="0.4337" style="stop-color:#1D2021"/>
				<stop  offset="0.6684" style="stop-color:#565B5D"/>
				<stop  offset="1" style="stop-color:#565B5D"/>
			</linearGradient>
			<path fill="url(#SVGID_6_)" d="M471.832,209.499c0-30.327-24.672-55-54.996-55c-30.33,0-55.004,24.673-55.004,55
				c0,30.328,24.674,55.001,55.004,55.001C447.16,264.5,471.832,239.827,471.832,209.499z M365.338,209.499
				c0-28.44,23.055-51.498,51.498-51.498c28.438,0,51.492,23.058,51.492,51.498c0,28.438-23.055,51.496-51.492,51.496
				C388.393,260.995,365.338,237.938,365.338,209.499z"/>
			
				<linearGradient id="SVGID_7_" gradientUnits="userSpaceOnUse" x1="408.4307" y1="-213.251" x2="408.4307" y2="-127.4238" gradientTransform="matrix(1 0 0 -1 8.3999 39.1602)">
				<stop  offset="0" style="stop-color:#91CB74"/>
				<stop  offset="1" style="stop-color:#63B13B"/>
			</linearGradient>
			<path fill="url(#SVGID_7_)" d="M416.83,166.584c-23.695,0-42.914,19.21-42.914,42.915c0,23.699,19.219,42.912,42.914,42.912
				c23.701,0,42.914-19.213,42.914-42.912C459.744,185.794,440.531,166.584,416.83,166.584z M416.83,247.156
				c-20.766,0-37.658-16.896-37.658-37.657c0-20.769,16.893-37.659,37.658-37.659c20.768,0,37.662,16.891,37.662,37.659
				C454.492,230.262,437.598,247.156,416.83,247.156z"/>
			
				<text transform="matrix(1 0 0 1 383.3252 214.5322)" display="none" fill="#EFB3B3" enable-background="new    " font-family="'ArialMT'" font-size="13">STOPPING</text>
			<g>
				<path fill="#DEFFCE" d="M383.908,211.542l1.162-0.103c0.055,0.467,0.184,0.849,0.385,1.146s0.514,0.539,0.938,0.725
					c0.422,0.184,0.896,0.275,1.428,0.275c0.469,0,0.885-0.07,1.244-0.21s0.627-0.331,0.803-0.574s0.264-0.509,0.264-0.797
					c0-0.292-0.084-0.547-0.254-0.765c-0.17-0.219-0.447-0.401-0.838-0.549c-0.25-0.099-0.803-0.25-1.656-0.455
					c-0.855-0.204-1.453-0.398-1.797-0.58c-0.443-0.232-0.775-0.521-0.992-0.866c-0.219-0.345-0.328-0.731-0.328-1.159
					c0-0.469,0.135-0.908,0.4-1.316c0.266-0.407,0.654-0.719,1.168-0.93c0.512-0.212,1.08-0.318,1.707-0.318
					c0.689,0,1.299,0.111,1.824,0.334c0.527,0.223,0.934,0.55,1.217,0.98c0.283,0.432,0.436,0.92,0.457,1.467l-1.182,0.088
					c-0.063-0.588-0.277-1.031-0.645-1.332c-0.365-0.301-0.906-0.451-1.621-0.451c-0.746,0-1.287,0.138-1.629,0.41
					s-0.512,0.603-0.512,0.986c0,0.334,0.121,0.609,0.361,0.825c0.238,0.216,0.857,0.437,1.857,0.663s1.688,0.425,2.061,0.594
					c0.541,0.25,0.941,0.566,1.199,0.949s0.387,0.824,0.387,1.322c0,0.496-0.141,0.963-0.426,1.399
					c-0.283,0.438-0.689,0.779-1.221,1.022c-0.533,0.242-1.131,0.363-1.793,0.363c-0.844,0-1.549-0.121-2.117-0.367
					c-0.57-0.245-1.018-0.614-1.34-1.107C384.098,212.723,383.926,212.165,383.908,211.542z"/>
				<path fill="#DEFFCE" d="M395.367,214.532v-8.207h-3.066v-1.099h7.377v1.099H396.6v8.207H395.367z"/>
				<path fill="#DEFFCE" d="M400.566,210c0-1.545,0.414-2.754,1.244-3.628c0.828-0.874,1.898-1.312,3.211-1.312
					c0.859,0,1.633,0.205,2.324,0.615c0.688,0.411,1.215,0.983,1.576,1.719c0.361,0.733,0.543,1.565,0.543,2.496
					c0,0.944-0.189,1.788-0.57,2.533s-0.922,1.309-1.619,1.691c-0.699,0.382-1.451,0.574-2.26,0.574c-0.877,0-1.66-0.211-2.35-0.635
					s-1.213-1-1.566-1.732C400.744,211.59,400.566,210.816,400.566,210z M401.836,210.02c0,1.121,0.301,2.004,0.904,2.649
					s1.359,0.97,2.27,0.97c0.928,0,1.689-0.326,2.289-0.979c0.598-0.651,0.896-1.576,0.896-2.773c0-0.758-0.127-1.419-0.383-1.983
					c-0.258-0.564-0.631-1.002-1.125-1.313c-0.492-0.312-1.045-0.466-1.66-0.466c-0.871,0-1.621,0.299-2.25,0.896
					C402.148,207.618,401.836,208.618,401.836,210.02z"/>
				<path fill="#DEFFCE" d="M411.053,214.532v-9.306h3.512c0.617,0,1.09,0.028,1.414,0.088c0.457,0.076,0.84,0.222,1.15,0.436
					c0.309,0.214,0.557,0.514,0.744,0.898c0.189,0.385,0.283,0.809,0.283,1.27c0,0.791-0.252,1.461-0.756,2.009
					s-1.414,0.822-2.729,0.822h-2.389v3.783H411.053z M412.283,209.65h2.406c0.795,0,1.361-0.147,1.695-0.444
					c0.334-0.296,0.502-0.713,0.502-1.25c0-0.39-0.1-0.724-0.295-1c-0.197-0.276-0.457-0.46-0.779-0.549
					c-0.207-0.056-0.59-0.082-1.148-0.082h-2.381V209.65L412.283,209.65z"/>
				<path fill="#DEFFCE" d="M419.725,214.532v-9.306h3.512c0.617,0,1.09,0.028,1.414,0.088c0.457,0.076,0.84,0.222,1.15,0.436
					c0.309,0.214,0.557,0.514,0.746,0.898c0.188,0.385,0.281,0.809,0.281,1.27c0,0.791-0.252,1.461-0.756,2.009
					s-1.414,0.822-2.729,0.822h-2.389v3.783H419.725z M420.955,209.65h2.406c0.795,0,1.361-0.147,1.695-0.444
					c0.334-0.296,0.502-0.713,0.502-1.25c0-0.39-0.1-0.724-0.295-1c-0.197-0.276-0.457-0.46-0.779-0.549
					c-0.207-0.056-0.59-0.082-1.146-0.082h-2.383V209.65L420.955,209.65z"/>
				<path fill="#DEFFCE" d="M428.605,214.532v-9.306h1.23v9.306H428.605z"/>
				<path fill="#DEFFCE" d="M431.994,214.532v-9.306h1.266l4.887,7.306v-7.306h1.182v9.306h-1.264l-4.889-7.313v7.313H431.994z"/>
				<path fill="#DEFFCE" d="M445.752,210.882v-1.092l3.941-0.006v3.452c-0.605,0.482-1.229,0.847-1.873,1.09
					c-0.643,0.242-1.303,0.363-1.98,0.363c-0.914,0-1.744-0.194-2.49-0.586c-0.748-0.393-1.313-0.957-1.691-1.698
					c-0.381-0.74-0.57-1.567-0.57-2.481c0-0.904,0.188-1.751,0.566-2.535c0.379-0.785,0.924-1.367,1.635-1.748
					c0.711-0.382,1.529-0.572,2.457-0.572c0.674,0,1.281,0.108,1.824,0.326c0.543,0.219,0.971,0.521,1.279,0.912
					c0.309,0.389,0.543,0.896,0.705,1.522l-1.111,0.305c-0.141-0.474-0.313-0.847-0.521-1.116c-0.207-0.271-0.502-0.488-0.889-0.65
					c-0.385-0.163-0.813-0.244-1.283-0.244c-0.563,0-1.049,0.085-1.459,0.257c-0.41,0.171-0.74,0.396-0.992,0.677
					c-0.252,0.279-0.447,0.586-0.588,0.92c-0.236,0.575-0.355,1.199-0.355,1.873c0,0.828,0.143,1.522,0.428,2.082
					c0.287,0.559,0.703,0.973,1.248,1.243c0.547,0.271,1.125,0.406,1.74,0.406c0.533,0,1.053-0.103,1.561-0.308
					c0.51-0.205,0.895-0.426,1.156-0.657v-1.733L445.752,210.882L445.752,210.882z"/>
			</g>
		</g>
	</g>
	<g id="cdpPicture2Style2">
		<rect x="241.166" y="154.501" fill="none" width="110" height="110"/>
		<g>
			<path fill="#0A0A0A" d="M296.168,158.003c28.439,0,51.494,23.058,51.494,51.496s-23.055,51.496-51.494,51.496
				c-28.441,0-51.498-23.058-51.498-51.496S267.727,158.003,296.168,158.003"/>
			
				<linearGradient id="sunkenCircle_9_" gradientUnits="userSpaceOnUse" x1="260.2949" y1="-142.8677" x2="315.2375" y2="-197.8102" gradientTransform="matrix(1 0 0 -1 8.3999 39.1602)">
				<stop  offset="0" style="stop-color:#1D2021"/>
				<stop  offset="0.4337" style="stop-color:#1D2021"/>
				<stop  offset="0.6684" style="stop-color:#565B5D"/>
				<stop  offset="1" style="stop-color:#565B5D"/>
			</linearGradient>
			<path id="sunkenCircle_4_" fill="url(#sunkenCircle_9_)" d="M351.166,209.499c0-30.327-24.674-55-54.998-55
				c-30.329,0-55.002,24.673-55.002,55c0,30.328,24.673,55.002,55.002,55.002C326.492,264.501,351.166,239.827,351.166,209.499z
				 M244.668,209.499c0-28.438,23.057-51.496,51.5-51.496c28.439,0,51.494,23.058,51.494,51.496
				c0,28.442-23.055,51.496-51.494,51.496C267.725,260.995,244.668,237.941,244.668,209.499z"/>
			
				<linearGradient id="greenCircle_5_" gradientUnits="userSpaceOnUse" x1="287.7656" y1="-213.251" x2="287.7656" y2="-127.4258" gradientTransform="matrix(1 0 0 -1 8.3999 39.1602)">
				<stop  offset="0" style="stop-color:#91CB74"/>
				<stop  offset="1" style="stop-color:#63B13B"/>
			</linearGradient>
			<path id="greenCircle_4_" fill="url(#greenCircle_5_)" d="M296.164,166.586c-23.699,0-42.912,19.208-42.912,42.913
				c0,23.699,19.213,42.912,42.912,42.912c23.705,0,42.914-19.213,42.914-42.912C339.078,185.794,319.869,166.586,296.164,166.586z
				 M296.164,247.159c-20.766,0-37.659-16.894-37.659-37.66s16.896-37.657,37.659-37.657s37.66,16.891,37.66,37.657
				S316.928,247.159,296.164,247.159z"/>
			<g enable-background="new    ">
				<path fill="#DEFFCE" d="M268.254,214.532v-9.306h4.127c0.829,0,1.459,0.084,1.891,0.251s0.777,0.462,1.035,0.885
					c0.258,0.424,0.387,0.892,0.387,1.403c0,0.66-0.213,1.217-0.641,1.669c-0.428,0.453-1.088,0.741-1.98,0.863
					c0.326,0.157,0.573,0.312,0.742,0.464c0.36,0.33,0.701,0.743,1.022,1.237l1.618,2.533h-1.549l-1.23-1.936
					c-0.36-0.559-0.656-0.986-0.889-1.283c-0.233-0.296-0.441-0.503-0.626-0.621c-0.184-0.119-0.371-0.201-0.562-0.248
					c-0.14-0.029-0.368-0.045-0.686-0.045h-1.428v4.133H268.254z M269.486,209.333h2.646c0.563,0,1.003-0.058,1.32-0.174
					s0.559-0.303,0.724-0.559s0.247-0.534,0.247-0.835c0-0.44-0.159-0.802-0.479-1.085c-0.32-0.284-0.824-0.426-1.514-0.426h-2.945
					V209.333z"/>
				<path fill="#DEFFCE" d="M283.73,205.227h1.23v5.376c0,0.936-0.105,1.679-0.316,2.229c-0.212,0.55-0.594,0.998-1.146,1.343
					c-0.552,0.345-1.277,0.517-2.174,0.517c-0.871,0-1.585-0.149-2.139-0.45c-0.555-0.301-0.951-0.735-1.188-1.305
					s-0.355-1.347-0.355-2.333v-5.376h1.231v5.37c0,0.809,0.075,1.404,0.226,1.787s0.408,0.678,0.774,0.885
					c0.366,0.208,0.813,0.312,1.343,0.312c0.905,0,1.551-0.205,1.936-0.616c0.385-0.41,0.578-1.199,0.578-2.367V205.227z"/>
				<path fill="#DEFFCE" d="M286.999,214.532v-9.306h1.263l4.889,7.306v-7.306h1.18v9.306h-1.263l-4.888-7.313v7.313H286.999z"/>
				<path fill="#DEFFCE" d="M296.387,214.532v-9.306h1.264l4.888,7.306v-7.306h1.181v9.306h-1.264l-4.887-7.313v7.313H296.387z"/>
				<path fill="#DEFFCE" d="M305.998,214.532v-9.306h1.23v9.306H305.998z"/>
				<path fill="#DEFFCE" d="M309.387,214.532v-9.306h1.264l4.888,7.306v-7.306h1.181v9.306h-1.264l-4.887-7.313v7.313H309.387z"/>
				<path fill="#DEFFCE" d="M323.143,210.882v-1.092l3.941-0.006v3.453c-0.604,0.482-1.229,0.846-1.872,1.089
					s-1.304,0.364-1.98,0.364c-0.914,0-1.745-0.195-2.491-0.587c-0.747-0.392-1.311-0.957-1.691-1.698
					c-0.381-0.74-0.572-1.567-0.572-2.481c0-0.905,0.189-1.751,0.568-2.536s0.924-1.367,1.635-1.748s1.529-0.572,2.457-0.572
					c0.672,0,1.281,0.109,1.824,0.327c0.544,0.218,0.971,0.521,1.279,0.911s0.544,0.897,0.705,1.523l-1.111,0.305
					c-0.14-0.474-0.313-0.847-0.521-1.117s-0.503-0.487-0.889-0.65s-0.813-0.244-1.282-0.244c-0.563,0-1.049,0.085-1.46,0.257
					c-0.411,0.171-0.741,0.396-0.993,0.676s-0.447,0.586-0.588,0.921c-0.236,0.575-0.355,1.199-0.355,1.872
					c0,0.829,0.144,1.523,0.429,2.082c0.286,0.559,0.702,0.974,1.247,1.244c0.547,0.271,1.126,0.406,1.74,0.406
					c0.533,0,1.053-0.103,1.561-0.308s0.894-0.425,1.156-0.657v-1.733H323.143z"/>
			</g>
		</g>
	</g>
	<g id="cdpPicture2Style1">
		<rect x="118.834" y="154.501" fill="none" width="110" height="110"/>
		<g>
			<path fill="#0A0A0A" d="M173.836,158.003c28.439,0,51.494,23.058,51.494,51.496s-23.055,51.496-51.494,51.496
				c-28.441,0-51.498-23.058-51.498-51.496S145.395,158.003,173.836,158.003"/>
			
				<linearGradient id="sunkenCircle_11_" gradientUnits="userSpaceOnUse" x1="137.9629" y1="-142.8677" x2="192.9054" y2="-197.8102" gradientTransform="matrix(1 0 0 -1 8.3999 39.1602)">
				<stop  offset="0" style="stop-color:#1D2021"/>
				<stop  offset="0.4337" style="stop-color:#1D2021"/>
				<stop  offset="0.6684" style="stop-color:#565B5D"/>
				<stop  offset="1" style="stop-color:#565B5D"/>
			</linearGradient>
			<path id="sunkenCircle_6_" fill="url(#sunkenCircle_11_)" d="M228.834,209.499c0-30.327-24.673-55-54.998-55
				c-30.329,0-55.002,24.673-55.002,55c0,30.328,24.673,55.002,55.002,55.002C204.161,264.501,228.834,239.827,228.834,209.499z
				 M122.336,209.499c0-28.438,23.057-51.496,51.5-51.496c28.439,0,51.494,23.058,51.494,51.496
				c0,28.442-23.055,51.496-51.494,51.496C145.393,260.995,122.336,237.941,122.336,209.499z"/>
			
				<linearGradient id="greenCircle_7_" gradientUnits="userSpaceOnUse" x1="165.4336" y1="-213.251" x2="165.4336" y2="-127.4258" gradientTransform="matrix(1 0 0 -1 8.3999 39.1602)">
				<stop  offset="0" style="stop-color:#91CB74"/>
				<stop  offset="1" style="stop-color:#63B13B"/>
			</linearGradient>
			<path id="greenCircle_6_" fill="url(#greenCircle_7_)" d="M173.832,166.586c-23.699,0-42.912,19.208-42.912,42.913
				c0,23.699,19.213,42.912,42.912,42.912c23.705,0,42.914-19.213,42.914-42.912C216.746,185.794,197.537,166.586,173.832,166.586z
				 M173.832,247.159c-20.766,0-37.659-16.894-37.659-37.66s16.896-37.657,37.659-37.657s37.661,16.891,37.661,37.657
				S194.596,247.159,173.832,247.159z"/>
			
				<text transform="matrix(1 0 0 1 141.2891 214.5322)" display="none" fill="#DEFFCE" enable-background="new    " font-family="'ArialMT'" font-size="13">STARTING</text>
			<g id="textPaths">
				<path fill="#DEFFCE" d="M141.736,211.542l1.162-0.103c0.055,0.467,0.184,0.849,0.385,1.146s0.512,0.539,0.936,0.725
					c0.424,0.184,0.898,0.275,1.428,0.275c0.472,0,0.885-0.07,1.244-0.21c0.361-0.14,0.629-0.331,0.805-0.574
					c0.175-0.243,0.263-0.509,0.263-0.797c0-0.292-0.084-0.547-0.254-0.765c-0.168-0.219-0.447-0.401-0.838-0.549
					c-0.248-0.099-0.802-0.25-1.656-0.455c-0.854-0.204-1.453-0.398-1.797-0.58c-0.442-0.232-0.774-0.521-0.992-0.866
					c-0.219-0.345-0.328-0.731-0.328-1.159c0-0.469,0.136-0.908,0.4-1.316c0.268-0.407,0.655-0.719,1.168-0.93
					c0.512-0.212,1.082-0.318,1.707-0.318c0.688,0,1.299,0.111,1.825,0.334c0.527,0.223,0.933,0.55,1.216,0.98
					c0.282,0.432,0.437,0.92,0.456,1.467l-1.18,0.088c-0.063-0.588-0.279-1.031-0.645-1.332c-0.367-0.301-0.906-0.451-1.623-0.451
					c-0.744,0-1.287,0.138-1.627,0.41c-0.342,0.272-0.512,0.603-0.512,0.986c0,0.334,0.121,0.609,0.361,0.825
					c0.237,0.216,0.856,0.437,1.856,0.663s1.688,0.425,2.062,0.594c0.541,0.25,0.94,0.566,1.198,0.949
					c0.259,0.383,0.388,0.824,0.388,1.322c0,0.496-0.142,0.963-0.427,1.399c-0.282,0.438-0.688,0.779-1.221,1.022
					c-0.532,0.242-1.129,0.363-1.793,0.363c-0.845,0-1.55-0.121-2.117-0.367c-0.569-0.245-1.017-0.614-1.34-1.107
					C141.923,212.72,141.754,212.165,141.736,211.542z"/>
				<path fill="#DEFFCE" d="M153.195,214.532v-8.207h-3.066v-1.099h7.375v1.099h-3.078v8.207H153.195z"/>
				<path fill="#DEFFCE" d="M157.746,214.532l3.574-9.306h1.326l3.809,9.306h-1.402l-1.086-2.818h-3.891l-1.021,2.818H157.746z
					 M160.432,210.711h3.154l-0.971-2.577c-0.297-0.782-0.518-1.426-0.66-1.93c-0.119,0.597-0.285,1.188-0.502,1.776
					L160.432,210.711z"/>
				<path fill="#DEFFCE" d="M167.459,214.532v-9.306h4.127c0.828,0,1.459,0.084,1.891,0.25c0.433,0.168,0.777,0.463,1.035,0.885
					c0.258,0.425,0.387,0.893,0.387,1.404c0,0.659-0.213,1.217-0.641,1.668c-0.428,0.453-1.088,0.741-1.98,0.863
					c0.326,0.157,0.572,0.313,0.742,0.464c0.359,0.33,0.701,0.743,1.021,1.237l1.619,2.533h-1.549l-1.23-1.936
					c-0.361-0.56-0.656-0.986-0.889-1.283c-0.234-0.297-0.441-0.504-0.627-0.621c-0.184-0.119-0.371-0.201-0.561-0.248
					c-0.142-0.029-0.369-0.045-0.687-0.045h-1.429v4.133L167.459,214.532L167.459,214.532z M168.691,209.333h2.646
					c0.563,0,1.002-0.058,1.32-0.174c0.315-0.116,0.559-0.304,0.723-0.56c0.166-0.256,0.248-0.533,0.248-0.834
					c0-0.44-0.16-0.803-0.479-1.086s-0.823-0.426-1.514-0.426h-2.945v3.079H168.691z"/>
				<path fill="#DEFFCE" d="M179.197,214.532v-8.207h-3.066v-1.099h7.375v1.099h-3.078v8.207H179.197z"/>
				<path fill="#DEFFCE" d="M184.979,214.532v-9.306h1.232v9.306H184.979z"/>
				<path fill="#DEFFCE" d="M188.369,214.532v-9.306h1.264l4.887,7.306v-7.306h1.183v9.306h-1.265l-4.889-7.313v7.313H188.369z"/>
				<path fill="#DEFFCE" d="M202.125,210.882v-1.092l3.941-0.006v3.452c-0.605,0.482-1.229,0.847-1.873,1.09
					c-0.644,0.242-1.303,0.363-1.98,0.363c-0.914,0-1.744-0.194-2.49-0.586c-0.748-0.393-1.311-0.957-1.69-1.698
					c-0.382-0.74-0.572-1.567-0.572-2.481c0-0.904,0.188-1.751,0.567-2.535c0.379-0.785,0.925-1.367,1.636-1.748
					c0.711-0.382,1.528-0.572,2.457-0.572c0.672,0,1.28,0.108,1.823,0.326c0.543,0.219,0.972,0.521,1.279,0.912
					c0.309,0.389,0.543,0.896,0.705,1.522l-1.111,0.305c-0.141-0.474-0.313-0.847-0.521-1.116c-0.207-0.271-0.502-0.488-0.889-0.65
					c-0.386-0.163-0.813-0.244-1.281-0.244c-0.563,0-1.051,0.085-1.461,0.257c-0.41,0.171-0.74,0.396-0.992,0.677
					c-0.252,0.279-0.446,0.586-0.588,0.92c-0.235,0.575-0.354,1.199-0.354,1.873c0,0.828,0.143,1.522,0.428,2.082
					c0.287,0.559,0.703,0.973,1.248,1.243c0.547,0.271,1.125,0.406,1.74,0.406c0.533,0,1.053-0.103,1.561-0.308
					s0.893-0.426,1.156-0.657v-1.733L202.125,210.882L202.125,210.882z"/>
			</g>
		</g>
	</g>
	<g id="cdpPicture1Style3">
		<rect x="214.001" y="73.026" fill="none" width="63" height="63.002"/>
		<g>
			<path fill="#0A0A0A" d="M245.502,75.033c16.288,0,29.492,13.205,29.492,29.493c0,16.289-13.204,29.494-29.492,29.494
				s-29.494-13.205-29.494-29.494C216.008,88.238,229.214,75.033,245.502,75.033"/>
			
				<linearGradient id="SVGID_8_" gradientUnits="userSpaceOnUse" x1="221.3711" y1="-49.6357" x2="252.849" y2="-81.1137" gradientTransform="matrix(1 0 0 -1 8.3999 39.1602)">
				<stop  offset="0" style="stop-color:#1D2021"/>
				<stop  offset="0.4337" style="stop-color:#1D2021"/>
				<stop  offset="0.6684" style="stop-color:#565B5D"/>
				<stop  offset="1" style="stop-color:#565B5D"/>
			</linearGradient>
			<path fill="url(#SVGID_8_)" d="M277.001,104.526c0-17.369-14.131-31.5-31.499-31.5c-17.37,0-31.501,14.131-31.501,31.5
				c0,17.371,14.131,31.502,31.501,31.502C262.87,136.028,277.001,121.897,277.001,104.526z M216.008,104.526
				c0-16.288,13.204-29.493,29.494-29.493c16.288,0,29.492,13.205,29.492,29.493c0,16.289-13.204,29.494-29.492,29.494
				C229.212,134.021,216.008,120.815,216.008,104.526z"/>
			
				<linearGradient id="SVGID_9_" gradientUnits="userSpaceOnUse" x1="237.1006" y1="-89.9443" x2="237.1006" y2="-40.7891" gradientTransform="matrix(1 0 0 -1 8.3999 39.1602)">
				<stop  offset="0" style="stop-color:#D70F0F"/>
				<stop  offset="1" style="stop-color:#8D0E0E"/>
			</linearGradient>
			<path fill="url(#SVGID_9_)" d="M245.5,79.949c-13.572,0-24.578,11.001-24.578,24.577c0,13.574,11.006,24.578,24.578,24.578
				c13.574,0,24.578-11.004,24.578-24.578C270.078,90.95,259.074,79.949,245.5,79.949z M245.5,126.094
				c-11.895,0-21.568-9.676-21.568-21.567c0-11.894,9.676-21.567,21.568-21.567s21.568,9.674,21.568,21.567
				S257.395,126.094,245.5,126.094z"/>
		</g>
	</g>
	<g id="cdpPicture1Style2">
		<rect x="142.333" y="73.041" fill="none" width="63" height="63.001"/>
		<g>
			<path fill="#0A0A0A" d="M173.834,75.048c16.288,0,29.492,13.205,29.492,29.493s-13.204,29.493-29.492,29.493
				s-29.494-13.205-29.494-29.493S157.546,75.048,173.834,75.048"/>
			
				<linearGradient id="SVGID_10_" gradientUnits="userSpaceOnUse" x1="149.7031" y1="-49.6494" x2="181.1814" y2="-81.1278" gradientTransform="matrix(1 0 0 -1 8.3999 39.1602)">
				<stop  offset="0" style="stop-color:#1D2021"/>
				<stop  offset="0.4337" style="stop-color:#1D2021"/>
				<stop  offset="0.6684" style="stop-color:#565B5D"/>
				<stop  offset="1" style="stop-color:#565B5D"/>
			</linearGradient>
			<path fill="url(#SVGID_10_)" d="M205.333,104.541c0-17.369-14.131-31.5-31.499-31.5c-17.37,0-31.501,14.131-31.501,31.5
				c0,17.37,14.131,31.501,31.501,31.501C191.202,136.042,205.333,121.911,205.333,104.541z M144.34,104.541
				c0-16.288,13.204-29.493,29.494-29.493c16.288,0,29.492,13.205,29.492,29.493c0,16.289-13.204,29.493-29.492,29.493
				C157.544,134.034,144.34,120.83,144.34,104.541z"/>
			
				<linearGradient id="SVGID_11_" gradientUnits="userSpaceOnUse" x1="165.4326" y1="-89.958" x2="165.4326" y2="-40.8037" gradientTransform="matrix(1 0 0 -1 8.3999 39.1602)">
				<stop  offset="0" style="stop-color:#D70F0F"/>
				<stop  offset="1" style="stop-color:#8D0E0E"/>
			</linearGradient>
			<path fill="url(#SVGID_11_)" d="M173.832,79.964c-13.572,0-24.578,11.001-24.578,24.577c0,13.573,11.006,24.577,24.578,24.577
				c13.574,0,24.578-11.004,24.578-24.577C198.41,90.965,187.406,79.964,173.832,79.964z M173.832,126.109
				c-11.895,0-21.568-9.676-21.568-21.568c0-11.895,9.676-21.566,21.568-21.566s21.568,9.674,21.568,21.566
				S185.727,126.109,173.832,126.109z"/>
			<g enable-background="new    ">
				<path fill="#EFB3B3" d="M158.547,109.684v-9.306h1.231v3.821h4.837v-3.821h1.231v9.306h-1.231v-4.387h-4.837v4.387H158.547z"/>
				<path fill="#EFB3B3" d="M168.106,109.684v-9.306h1.231v9.306H168.106z"/>
				<path fill="#EFB3B3" d="M175.863,106.033v-1.092l3.941-0.006v3.453c-0.604,0.482-1.229,0.846-1.872,1.089
					s-1.304,0.364-1.98,0.364c-0.914,0-1.745-0.195-2.491-0.587c-0.747-0.392-1.311-0.957-1.691-1.698
					c-0.381-0.74-0.572-1.567-0.572-2.481c0-0.905,0.189-1.751,0.568-2.536s0.924-1.367,1.635-1.748s1.529-0.572,2.457-0.572
					c0.672,0,1.281,0.109,1.824,0.327c0.544,0.218,0.971,0.521,1.279,0.911s0.544,0.897,0.705,1.523l-1.111,0.305
					c-0.14-0.474-0.313-0.847-0.521-1.117s-0.503-0.487-0.889-0.65s-0.813-0.244-1.282-0.244c-0.563,0-1.049,0.085-1.46,0.257
					c-0.411,0.171-0.741,0.396-0.993,0.676s-0.447,0.586-0.588,0.921c-0.236,0.575-0.355,1.199-0.355,1.872
					c0,0.829,0.144,1.523,0.429,2.082c0.286,0.559,0.702,0.974,1.247,1.244c0.547,0.271,1.126,0.406,1.74,0.406
					c0.533,0,1.053-0.103,1.561-0.308s0.894-0.425,1.156-0.657v-1.733H175.863z"/>
				<path fill="#EFB3B3" d="M181.658,109.684v-9.306h1.232v3.821h4.836v-3.821h1.232v9.306h-1.232v-4.387h-4.836v4.387H181.658z"/>
			</g>
		</g>
	</g>
	<g id="cdpPicture1Style1">
		<rect x="72.334" y="73.042" fill="none" width="63" height="63.001"/>
		<g>
			<path fill="#0A0A0A" d="M103.835,75.049c16.288,0,29.492,13.205,29.492,29.492c0,16.289-13.204,29.494-29.492,29.494
				c-16.289,0-29.494-13.205-29.494-29.494C74.341,88.254,87.546,75.049,103.835,75.049"/>
			
				<linearGradient id="sunkenCircle_12_" gradientUnits="userSpaceOnUse" x1="79.7021" y1="-49.6479" x2="111.169" y2="-81.1149" gradientTransform="matrix(1 0 0 -1 8.3999 39.1602)">
				<stop  offset="0" style="stop-color:#1D2021"/>
				<stop  offset="0.4337" style="stop-color:#1D2021"/>
				<stop  offset="0.6684" style="stop-color:#565B5D"/>
				<stop  offset="1" style="stop-color:#565B5D"/>
			</linearGradient>
			<path id="sunkenCircle_2_" fill="url(#sunkenCircle_12_)" d="M135.334,104.541c0-17.369-14.131-31.5-31.499-31.5
				c-17.37,0-31.501,14.131-31.501,31.5c0,17.371,14.131,31.502,31.501,31.502C121.203,136.043,135.334,121.912,135.334,104.541z
				 M74.34,104.541c0-16.287,13.205-29.492,29.495-29.492c16.288,0,29.492,13.205,29.492,29.492
				c0,16.291-13.204,29.494-29.492,29.494C87.545,134.035,74.34,120.832,74.34,104.541z"/>
			
				<linearGradient id="greenCircle_8_" gradientUnits="userSpaceOnUse" x1="95.4336" y1="-89.959" x2="95.4336" y2="-40.8047" gradientTransform="matrix(1 0 0 -1 8.3999 39.1602)">
				<stop  offset="0" style="stop-color:#91CB74"/>
				<stop  offset="1" style="stop-color:#63B13B"/>
			</linearGradient>
			<path id="greenCircle_2_" fill="url(#greenCircle_8_)" d="M103.833,79.965c-13.573,0-24.577,11-24.577,24.576
				c0,13.574,11.004,24.578,24.577,24.578c13.576,0,24.578-11.004,24.578-24.578C128.411,90.965,117.409,79.965,103.833,79.965z
				 M103.833,126.111c-11.894,0-21.567-9.676-21.567-21.57c0-11.893,9.676-21.566,21.567-21.566s21.569,9.674,21.569,21.566
				C125.402,116.436,115.725,126.111,103.833,126.111z"/>
			<g enable-background="new    ">
				<path fill="#DEFFCE" d="M93.891,105.151c0-1.545,0.414-2.754,1.244-3.628c0.829-0.874,1.899-1.311,3.211-1.311
					c0.859,0,1.634,0.205,2.324,0.615c0.689,0.411,1.215,0.983,1.577,1.718c0.361,0.734,0.542,1.566,0.542,2.497
					c0,0.944-0.189,1.788-0.57,2.533s-0.921,1.309-1.619,1.691s-1.451,0.574-2.26,0.574c-0.876,0-1.658-0.211-2.349-0.635
					c-0.69-0.423-1.212-1-1.567-1.732S93.891,105.968,93.891,105.151z M95.16,105.17c0,1.122,0.301,2.005,0.904,2.65
					c0.603,0.646,1.359,0.969,2.27,0.969c0.926,0,1.689-0.326,2.288-0.979c0.599-0.651,0.897-1.576,0.897-2.773
					c0-0.758-0.127-1.419-0.384-1.983c-0.256-0.565-0.63-1.003-1.123-1.314c-0.493-0.311-1.046-0.466-1.66-0.466
					c-0.872,0-1.622,0.299-2.25,0.897C95.474,102.77,95.16,103.77,95.16,105.17z"/>
				<path fill="#DEFFCE" d="M104.326,109.684v-9.306h1.23v4.614l4.621-4.614h1.67l-3.904,3.771l4.076,5.535h-1.625l-3.314-4.71
					l-1.523,1.485v3.225H104.326z"/>
			</g>
		</g>
	</g>
	<g id="cdpPicture0Style3">
		<rect x="214.001" y="-0.001" fill="none" width="63" height="63.002"/>
		<g>
			<path fill="#0A0A0A" d="M245.502,2.006c16.288,0,29.492,13.205,29.492,29.493c0,16.289-13.204,29.494-29.492,29.494
				s-29.494-13.205-29.494-29.494C216.008,15.211,229.214,2.006,245.502,2.006"/>
			
				<linearGradient id="SVGID_12_" gradientUnits="userSpaceOnUse" x1="221.3711" y1="23.3921" x2="252.849" y2="-8.0858" gradientTransform="matrix(1 0 0 -1 8.3999 39.1602)">
				<stop  offset="0" style="stop-color:#1D2021"/>
				<stop  offset="0.4337" style="stop-color:#1D2021"/>
				<stop  offset="0.6684" style="stop-color:#565B5D"/>
				<stop  offset="1" style="stop-color:#565B5D"/>
			</linearGradient>
			<path fill="url(#SVGID_12_)" d="M277.001,31.499c0-17.369-14.131-31.5-31.499-31.5c-17.37,0-31.501,14.131-31.501,31.5
				c0,17.371,14.131,31.502,31.501,31.502C262.87,63.001,277.001,48.87,277.001,31.499z M216.008,31.499
				c0-16.288,13.204-29.493,29.494-29.493c16.288,0,29.492,13.205,29.492,29.493c0,16.289-13.204,29.494-29.492,29.494
				C229.212,60.993,216.008,47.788,216.008,31.499z"/>
			
				<linearGradient id="SVGID_13_" gradientUnits="userSpaceOnUse" x1="237.1006" y1="-16.917" x2="237.1006" y2="32.2388" gradientTransform="matrix(1 0 0 -1 8.3999 39.1602)">
				<stop  offset="0" style="stop-color:#D70F0F"/>
				<stop  offset="1" style="stop-color:#8D0E0E"/>
			</linearGradient>
			<path fill="url(#SVGID_13_)" d="M245.5,6.922c-13.572,0-24.578,11.001-24.578,24.577c0,13.574,11.006,24.578,24.578,24.578
				c13.574,0,24.578-11.004,24.578-24.578C270.078,17.923,259.074,6.922,245.5,6.922z M245.5,53.066
				c-11.895,0-21.568-9.676-21.568-21.567c0-11.894,9.676-21.567,21.568-21.567s21.568,9.674,21.568,21.567
				C267.068,43.393,257.395,53.066,245.5,53.066z"/>
			<g enable-background="new    ">
				<path fill="#EFB3B3" d="M232.053,30.643v-8.59h1.137v7.576h4.23v1.014H232.053z"/>
				<path fill="#EFB3B3" d="M238.428,26.459c0-1.426,0.383-2.542,1.148-3.349s1.754-1.21,2.965-1.21
					c0.793,0,1.508,0.189,2.145,0.568s1.122,0.907,1.456,1.585s0.501,1.446,0.501,2.306c0,0.871-0.176,1.65-0.527,2.338
					s-0.85,1.208-1.494,1.562s-1.34,0.53-2.086,0.53c-0.809,0-1.531-0.195-2.168-0.586s-1.119-0.924-1.447-1.6
					S238.428,27.213,238.428,26.459z M239.6,26.477c0,1.035,0.278,1.851,0.835,2.446s1.255,0.894,2.095,0.894
					c0.855,0,1.56-0.301,2.112-0.902s0.829-1.455,0.829-2.561c0-0.699-0.118-1.31-0.354-1.831s-0.582-0.926-1.037-1.213
					s-0.966-0.431-1.532-0.431c-0.805,0-1.497,0.276-2.077,0.829S239.6,25.184,239.6,26.477z"/>
				<path fill="#EFB3B3" d="M249.607,30.643l-2.279-8.59h1.166l1.307,5.631c0.141,0.59,0.262,1.176,0.363,1.758
					c0.219-0.918,0.348-1.447,0.387-1.588l1.635-5.801h1.371l1.23,4.348c0.309,1.078,0.531,2.092,0.668,3.041
					c0.109-0.543,0.252-1.166,0.428-1.869l1.348-5.52h1.143l-2.355,8.59h-1.096l-1.811-6.545c-0.152-0.547-0.242-0.883-0.27-1.008
					c-0.09,0.395-0.174,0.73-0.252,1.008l-1.822,6.545H249.607z"/>
			</g>
			<g enable-background="new    ">
				<path fill="#EFB3B3" d="M232.053,42.976v-8.59h1.137v7.576h4.23v1.014H232.053z"/>
				<path fill="#EFB3B3" d="M238.428,38.792c0-1.426,0.383-2.542,1.148-3.349s1.754-1.21,2.965-1.21
					c0.793,0,1.508,0.189,2.145,0.568s1.122,0.907,1.456,1.585s0.501,1.446,0.501,2.306c0,0.871-0.176,1.65-0.527,2.338
					s-0.85,1.208-1.494,1.562s-1.34,0.53-2.086,0.53c-0.809,0-1.531-0.195-2.168-0.586s-1.119-0.924-1.447-1.6
					S238.428,39.546,238.428,38.792z M239.6,38.81c0,1.035,0.278,1.851,0.835,2.446s1.255,0.894,2.095,0.894
					c0.855,0,1.56-0.301,2.112-0.902s0.829-1.455,0.829-2.561c0-0.699-0.118-1.31-0.354-1.831s-0.582-0.926-1.037-1.213
					s-0.966-0.431-1.532-0.431c-0.805,0-1.497,0.276-2.077,0.829S239.6,37.517,239.6,38.81z"/>
				<path fill="#EFB3B3" d="M249.607,42.976l-2.279-8.59h1.166l1.307,5.631c0.141,0.59,0.262,1.176,0.363,1.758
					c0.219-0.918,0.348-1.447,0.387-1.588l1.635-5.801h1.371l1.23,4.348c0.309,1.078,0.531,2.092,0.668,3.041
					c0.109-0.543,0.252-1.166,0.428-1.869l1.348-5.52h1.143l-2.355,8.59h-1.096l-1.811-6.545c-0.152-0.547-0.242-0.883-0.27-1.008
					c-0.09,0.395-0.174,0.73-0.252,1.008l-1.822,6.545H249.607z"/>
			</g>
		</g>
	</g>
	<g id="cdpPicture0Style2">
		<rect x="142.334" fill="none" width="63" height="63.001"/>
		<g>
			<path fill="#0A0A0A" d="M173.835,2.006c16.288,0,29.492,13.205,29.492,29.493c0,16.289-13.204,29.494-29.492,29.494
				S144.341,47.788,144.341,31.5C144.341,15.211,157.547,2.006,173.835,2.006"/>
			
				<linearGradient id="SVGID_14_" gradientUnits="userSpaceOnUse" x1="149.7041" y1="23.3911" x2="181.1819" y2="-8.0868" gradientTransform="matrix(1 0 0 -1 8.3999 39.1602)">
				<stop  offset="0" style="stop-color:#1D2021"/>
				<stop  offset="0.4337" style="stop-color:#1D2021"/>
				<stop  offset="0.6684" style="stop-color:#565B5D"/>
				<stop  offset="1" style="stop-color:#565B5D"/>
			</linearGradient>
			<path fill="url(#SVGID_14_)" d="M205.334,31.5c0-17.369-14.131-31.5-31.499-31.5c-17.37,0-31.501,14.131-31.501,31.5
				c0,17.371,14.131,31.501,31.501,31.501C191.203,63.001,205.334,48.87,205.334,31.5z M144.341,31.5
				c0-16.288,13.204-29.493,29.494-29.493c16.288,0,29.492,13.205,29.492,29.493c0,16.289-13.204,29.494-29.492,29.494
				C157.545,60.993,144.341,47.788,144.341,31.5z"/>
			
				<linearGradient id="SVGID_15_" gradientUnits="userSpaceOnUse" x1="165.4336" y1="-16.917" x2="165.4336" y2="32.2388" gradientTransform="matrix(1 0 0 -1 8.3999 39.1602)">
				<stop  offset="0" style="stop-color:#D70F0F"/>
				<stop  offset="1" style="stop-color:#8D0E0E"/>
			</linearGradient>
			<path fill="url(#SVGID_15_)" d="M173.833,6.922c-13.571,0-24.578,11.001-24.578,24.577c0,13.574,11.007,24.578,24.578,24.578
				c13.574,0,24.578-11.004,24.578-24.578C198.411,17.923,187.407,6.922,173.833,6.922z M173.833,53.066
				c-11.894,0-21.569-9.676-21.569-21.567c0-11.894,9.676-21.567,21.569-21.567s21.569,9.674,21.569,21.567
				C195.402,43.393,185.727,53.066,173.833,53.066z"/>
			<g enable-background="new    ">
				<path fill="#EFB3B3" d="M159.459,36.643v-9.306h1.231v8.208h4.583v1.098H159.459z"/>
				<path fill="#EFB3B3" d="M166.365,32.11c0-1.545,0.414-2.754,1.244-3.628s1.9-1.311,3.212-1.311c0.858,0,1.634,0.205,2.323,0.615
					c0.689,0.411,1.216,0.983,1.577,1.718c0.362,0.734,0.543,1.566,0.543,2.497c0,0.944-0.19,1.788-0.571,2.533
					s-0.92,1.309-1.619,1.691c-0.697,0.383-1.451,0.574-2.26,0.574c-0.875,0-1.658-0.211-2.348-0.635
					c-0.69-0.423-1.213-1-1.568-1.732S166.365,32.927,166.365,32.11z M167.635,32.129c0,1.122,0.302,2.005,0.904,2.65
					c0.604,0.646,1.359,0.969,2.27,0.969c0.927,0,1.689-0.326,2.288-0.979c0.599-0.651,0.898-1.576,0.898-2.773
					c0-0.758-0.128-1.419-0.384-1.983c-0.256-0.565-0.631-1.003-1.124-1.314c-0.493-0.311-1.046-0.466-1.659-0.466
					c-0.872,0-1.622,0.299-2.251,0.897C167.949,29.729,167.635,30.729,167.635,32.129z"/>
				<path fill="#EFB3B3" d="M178.477,36.643l-2.469-9.306h1.263l1.415,6.101c0.152,0.639,0.284,1.273,0.395,1.904
					c0.236-0.995,0.376-1.568,0.418-1.721l1.771-6.284h1.485l1.333,4.71c0.334,1.168,0.576,2.266,0.724,3.295
					c0.118-0.589,0.272-1.264,0.464-2.025l1.459-5.979h1.238l-2.552,9.306h-1.187l-1.962-7.09c-0.165-0.593-0.263-0.957-0.292-1.092
					c-0.098,0.427-0.188,0.791-0.273,1.092l-1.974,7.09H178.477z"/>
			</g>
		</g>
	</g>
	<g id="cdpPicture0Style1">
		<rect x="72.334" fill="none" width="63" height="63"/>
		<g>
			<path fill="#0A0A0A" d="M103.835,2.006c16.288,0,29.492,13.205,29.492,29.493s-13.204,29.493-29.492,29.493
				c-16.289,0-29.494-13.205-29.494-29.493S87.546,2.006,103.835,2.006"/>
			
				<linearGradient id="sunkenCircle_13_" gradientUnits="userSpaceOnUse" x1="79.7021" y1="23.3936" x2="111.1685" y2="-8.073" gradientTransform="matrix(1 0 0 -1 8.3999 39.1602)">
				<stop  offset="0" style="stop-color:#1D2021"/>
				<stop  offset="0.4337" style="stop-color:#1D2021"/>
				<stop  offset="0.6684" style="stop-color:#565B5D"/>
				<stop  offset="1" style="stop-color:#565B5D"/>
			</linearGradient>
			<path id="sunkenCircle_1_" fill="url(#sunkenCircle_13_)" d="M135.334,31.499c0-17.369-14.131-31.5-31.499-31.5
				c-17.37,0-31.501,14.131-31.501,31.5C72.334,48.869,86.465,63,103.835,63C121.203,63,135.334,48.869,135.334,31.499z
				 M74.34,31.499c0-16.288,13.205-29.493,29.495-29.493c16.288,0,29.492,13.205,29.492,29.493c0,16.29-13.204,29.493-29.492,29.493
				C87.545,60.992,74.34,47.789,74.34,31.499z"/>
			
				<linearGradient id="greenCircle_9_" gradientUnits="userSpaceOnUse" x1="95.4336" y1="-16.916" x2="95.4336" y2="32.2388" gradientTransform="matrix(1 0 0 -1 8.3999 39.1602)">
				<stop  offset="0" style="stop-color:#91CB74"/>
				<stop  offset="1" style="stop-color:#63B13B"/>
			</linearGradient>
			<path id="greenCircle_1_" fill="url(#greenCircle_9_)" d="M103.833,6.922c-13.573,0-24.577,11.001-24.577,24.577
				c0,13.573,11.004,24.577,24.577,24.577c13.576,0,24.578-11.004,24.578-24.577C128.411,17.923,117.409,6.922,103.833,6.922z
				 M103.833,53.068c-11.894,0-21.567-9.676-21.567-21.569c0-11.893,9.674-21.567,21.567-21.567
				c11.892,0,21.569,9.674,21.569,21.567C125.402,43.393,115.725,53.068,103.833,53.068z"/>
			<g enable-background="new    ">
				<path fill="#DEFFCE" d="M93.891,32.109c0-1.545,0.414-2.754,1.244-3.628c0.829-0.874,1.899-1.311,3.211-1.311
					c0.859,0,1.634,0.205,2.324,0.615c0.689,0.411,1.215,0.983,1.577,1.718c0.361,0.734,0.542,1.566,0.542,2.497
					c0,0.944-0.189,1.788-0.57,2.533s-0.921,1.309-1.619,1.691S99.148,36.8,98.34,36.8c-0.876,0-1.658-0.211-2.349-0.635
					c-0.69-0.423-1.212-1-1.567-1.732S93.891,32.926,93.891,32.109z M95.16,32.128c0,1.122,0.301,2.005,0.904,2.65
					c0.603,0.646,1.359,0.969,2.27,0.969c0.926,0,1.689-0.326,2.288-0.979c0.599-0.651,0.897-1.576,0.897-2.773
					c0-0.758-0.127-1.419-0.384-1.983c-0.256-0.565-0.63-1.003-1.123-1.314c-0.493-0.311-1.046-0.466-1.66-0.466
					c-0.872,0-1.622,0.299-2.25,0.897C95.474,29.728,95.16,30.728,95.16,32.128z"/>
				<path fill="#DEFFCE" d="M104.326,36.642v-9.306h1.23v4.614l4.621-4.614h1.67l-3.904,3.771l4.076,5.535h-1.625l-3.314-4.71
					l-1.523,1.485v3.225H104.326z"/>
			</g>
		</g>
	</g>
</g>
<g id="Help">
	<text transform="matrix(1 0 0 1 -66.1665 209.5)" font-family="'MyriadPro-Regular'" font-size="12">Picture 2</text>
	<text transform="matrix(1 0 0 1 -66.1665 105.833)" font-family="'MyriadPro-Regular'" font-size="12">Picture 1</text>
	<text transform="matrix(1 0 0 1 87.5 -13.833)" font-family="'MyriadPro-Regular'" font-size="12">Style 1</text>
	<text transform="matrix(1 0 0 1 158.5078 -13.833)" font-family="'MyriadPro-Regular'" font-size="12">Style 2</text>
	<text transform="matrix(1 0 0 1 231.1738 -13.833)" font-family="'MyriadPro-Regular'" font-size="12">Style 3</text>
	<text transform="matrix(1 0 0 1 304.1738 -13.833)" font-family="'MyriadPro-Regular'" font-size="12">Style 4</text>
	<text transform="matrix(1 0 0 1 7.5005 -13.833)" font-family="'MyriadPro-Regular'" font-size="12">Style 0</text>
	<text transform="matrix(1 0 0 1 -66.1665 36.5)" font-family="'MyriadPro-Regular'" font-size="12">Picture 0</text>
</g>
<text transform="matrix(1 0 0 1 405.0156 -45.3164)" fill="#EFB3B3" font-family="'ArialMT'" font-size="12">HIGH</text>
<text transform="matrix(1 0 0 1 230.1738 114.6836)" fill="#EFB3B3" font-family="'ArialMT'" font-size="12">HIGH</text>
<text transform="matrix(1 0 0 1 230.1738 101.8779)" fill="#EFB3B3" font-family="'ArialMT'" font-size="12">HIGH</text>
</svg>
