<?xml version="1.0" encoding="utf-8"?>
<!-- Generator: Adobe Illustrator 21.0.2, SVG Export Plug-In . SVG Version: 6.00 Build 0)  -->
<svg version="1.1"
	 id="svg" inkscape:version="0.48.5 r10040" sodipodi:docname="picturePumpDisplayIcons.svg" xmlns:cc="http://creativecommons.org/ns#" xmlns:dc="http://purl.org/dc/elements/1.1/" xmlns:inkscape="http://www.inkscape.org/namespaces/inkscape" xmlns:rdf="http://www.w3.org/1999/02/22-rdf-syntax-ns#" xmlns:sodipodi="http://sodipodi.sourceforge.net/DTD/sodipodi-0.dtd" xmlns:svg="http://www.w3.org/2000/svg"
	 xmlns="http://www.w3.org/2000/svg" xmlns:xlink="http://www.w3.org/1999/xlink" x="0px" y="0px" viewBox="0 0 411.9 348.7"
	 enable-background="new 0 0 411.9 348.7" xml:space="preserve">
<g id="Layer1" transform="translate(84.740719,46.069328)">
	<g id="cdpPicture0">
		<rect id="rect45" x="0" y="3" fill="none" width="36" height="30"/>
		<g id="g47">
			<path id="path49" inkscape:connector-curvature="0" fill="#666666" d="M0,32.5h36l-18-29L0,32.5z M3.6,30.5L18,7.3l14.4,23.2H3.6
				z"/>
			<path id="path49_1_" inkscape:connector-curvature="0" fill="#0A0A0A" d="M3.6,30.5L18,7.3l14.4,23.2H3.6z"/>
			
				<circle id="circle51" sodipodi:cx="18" sodipodi:cy="25.5" sodipodi:rx="2" sodipodi:ry="2" fill="#666666" cx="18" cy="25.5" r="2">
			</circle>
			<path id="path53" inkscape:connector-curvature="0" fill="#666666" d="M18,14.5c-1.1,0-2,0.9-2,2c0,1.1,0.9,5,2,5
				c1.1,0,2-3.9,2-5C20,15.4,19.1,14.5,18,14.5z"/>
			<g id="comError">
				
					<line id="line56" fill="none" stroke="#FF0000" stroke-width="2" stroke-miterlimit="10" x1="10.8" y1="17.4" x2="25.2" y2="29.4"/>
				
					<line id="line58" fill="none" stroke="#FF0000" stroke-width="2" stroke-miterlimit="10" x1="10.8" y1="29.4" x2="25.2" y2="17.4"/>
			</g>
		</g>
	</g>
</g>
<g id="Styles" transform="translate(84.740719,46.069328)">
	<g id="cdpPicture2Style1">
		
			<linearGradient id="path157_1_" gradientUnits="userSpaceOnUse" x1="-25.8006" y1="655.7704" x2="6.1994" y2="655.7704" gradientTransform="matrix(1 0 0 1 93.1406 -501.7705)">
			<stop  offset="0" style="stop-color:#FFFFFF"/>
			<stop  offset="1" style="stop-color:#C0C0C0"/>
		</linearGradient>
		<path id="path157" inkscape:connector-curvature="0" display="none" fill="url(#path157_1_)" d="M83.3,138l-16,16l16,16l16-16
			L83.3,138z M71.2,155h4.2v-2h-4.2l12.2-12.2L95.5,153h-4.2v2h4.2l-12.2,12.2L71.2,155z"/>
	</g>
	<g id="cdpPicture2Style2">
		
			<linearGradient id="path78_1_" gradientUnits="userSpaceOnUse" x1="51.2894" y1="657.2704" x2="83.2894" y2="657.2704" gradientTransform="matrix(1 0 0 1 93.1406 -501.7705)">
			<stop  offset="0" style="stop-color:#FFFFFF"/>
			<stop  offset="1" style="stop-color:#C0C0C0"/>
		</linearGradient>
		<path id="path78" inkscape:connector-curvature="0" display="none" fill="url(#path78_1_)" d="M160.4,139.5l-16,16l16,16l16-16
			L160.4,139.5z M148.3,156.5h4.2v-2h-4.2l12.2-12.2l12.2,12.2h-4.2v2h4.2l-12.2,12.2L148.3,156.5z"/>
	</g>
	<g id="cdpPicture0Style5" transform="translate(276,0)">
		<rect id="rect3849" x="67.3" y="3.5" fill="none" width="36" height="30"/>
		<g id="g3851">
			<path id="path3853" inkscape:connector-curvature="0" fill="#666666" d="M67.3,33h36l-18-29L67.3,33z M70.9,31L85.3,7.8L99.7,31
				H70.9z"/>
			<path id="path3853_1_" inkscape:connector-curvature="0" fill="#0A0A0A" d="M70.9,31L85.3,7.8L99.7,31H70.9z"/>
		</g>
	</g>
	<g id="cdpPicture0Style4" transform="translate(138,0)">
		<rect id="rect3087" x="142.1" y="3.5" fill="none" width="36" height="30"/>
		<g id="g3089">
			<path id="path3091" inkscape:connector-curvature="0" fill="#0AAA00" d="M142.1,33h36l-18-29L142.1,33z M145.7,31l14.4-23.2
				L174.5,31H145.7z"/>
			<path id="path3091_1_" inkscape:connector-curvature="0" fill="#0A0A0A" d="M145.7,31l14.4-23.2L174.5,31H145.7z"/>
			
				<path id="path3097" inkscape:connector-curvature="0" sodipodi:nodetypes="ccc" fill="none" stroke="#00AB00" stroke-width="1.6" d="
				M153.7,22.8l3.5,5.7l6-12.9"/>
		</g>
	</g>
	<g id="cdpPicture0Style3">
		<rect id="rect102" x="209.8" y="3.5" fill="none" width="36" height="30"/>
		<g id="g104">
			<path id="path106" inkscape:connector-curvature="0" fill="#DB1C24" d="M209.8,33h36l-18-29L209.8,33z M213.4,31l14.4-23.2
				L242.2,31H213.4z"/>
			<path id="path106_1_" inkscape:connector-curvature="0" fill="#0A0A0A" d="M213.4,31l14.4-23.2L242.2,31H213.4z"/>
			
				<circle id="circle108" sodipodi:cx="227.84" sodipodi:cy="26" sodipodi:rx="2" sodipodi:ry="2" fill="#DB1C24" cx="227.8" cy="26" r="2">
			</circle>
			<path id="path110" inkscape:connector-curvature="0" fill="#DB1C24" d="M227.8,15c-1.1,0-2,0.9-2,2c0,1.1,0.9,5,2,5s2-3.9,2-5
				S228.9,15,227.8,15z"/>
		</g>
	</g>
	<g id="cdpPicture0Style2">
		<rect id="rect113" x="142.1" y="3.5" fill="none" width="36" height="30"/>
		<g id="g115">
			<path id="path117" inkscape:connector-curvature="0" fill="#F6B31E" d="M142.1,33h36l-18-29L142.1,33z M145.7,31l14.4-23.2
				L174.5,31H145.7z"/>
			<path id="path117_1_" inkscape:connector-curvature="0" fill="#0A0A0A" d="M145.7,31l14.4-23.2L174.5,31H145.7z"/>
			
				<circle id="circle119" sodipodi:cx="160.097" sodipodi:cy="26" sodipodi:rx="2" sodipodi:ry="2" fill="#F6B31E" cx="160.1" cy="26" r="2">
			</circle>
			<path id="path121" inkscape:connector-curvature="0" fill="#F6B31E" d="M160.1,15c-1.1,0-2,0.9-2,2c0,1.1,0.9,5,2,5
				c1.1,0,2-3.9,2-5S161.2,15,160.1,15z"/>
		</g>
	</g>
	<g id="cdpPicture0Style1">
		<rect id="rect124" x="67.3" y="3.5" display="none" fill="none" width="36" height="30"/>
		<g id="g126">
			<path id="path128" inkscape:connector-curvature="0" fill="#666666" d="M67.3,33h36l-18-29L67.3,33z M70.9,31L85.3,7.8L99.7,31
				H70.9z"/>
			<path id="path128_1_" inkscape:connector-curvature="0" fill="#0A0A0A" d="M70.9,31L85.3,7.8L99.7,31H70.9z"/>
			
				<circle id="circle130" sodipodi:cx="85.339996" sodipodi:cy="26" sodipodi:rx="2" sodipodi:ry="2" fill="#666666" cx="85.3" cy="26" r="2">
			</circle>
			<path id="path132" inkscape:connector-curvature="0" fill="#666666" d="M85.3,15c-1.1,0-2,0.9-2,2c0,1.1,0.9,5,2,5
				c1.1,0,2-3.9,2-5C87.3,15.9,86.4,15,85.3,15z"/>
		</g>
	</g>
</g>
<g id="Help" transform="translate(84.740719,46.069328)">
	<text id="text139" transform="matrix(1 0 0 1 61 -27.333)" font-family="'ArialMT'" font-size="12px">Style 1</text>
	<text id="text141" transform="matrix(1 0 0 1 136.0762 -27.333)" font-family="'ArialMT'" font-size="12px">Style 2</text>
	<text id="text143" transform="matrix(1 0 0 1 -5.9995 -27.333)" font-family="'ArialMT'" font-size="12px">Style 0</text>
	<text id="text145" transform="matrix(1 0 0 1 -75.6665 23)" font-family="'ArialMT'" font-size="12px">Picture 0</text>
</g>
<text id="text147" transform="matrix(1 0 0 1 303.8169 18.7363)" font-family="'ArialMT'" font-size="12px">Style 3</text>
<text id="text3886" transform="matrix(1 0 0 1 365.8169 18.7363)" font-family="'ArialMT'" font-size="12px">Style 4</text>
<text id="text3859" transform="matrix(1 0 0 1 427.8169 18.7363)" font-family="'ArialMT'" font-size="12px">Style 5</text>
</svg>
