<?xml version="1.0" encoding="utf-8"?>
<!-- Generator: Adobe Illustrator 21.0.2, SVG Export Plug-In . SVG Version: 6.00 Build 0)  -->
<svg version="1.1" id="svg" xmlns="http://www.w3.org/2000/svg" xmlns:xlink="http://www.w3.org/1999/xlink" x="0px" y="0px"
	 viewBox="0 0 585 499.3" enable-background="new 0 0 585 499.3" xml:space="preserve">
<g id="Layer1">
	<g id="Layer_2" display="none">
		<rect y="-0.3" display="inline" fill="#5A5B5B" stroke="#000000" stroke-miterlimit="10" width="585" height="499.8"/>
	</g>
	
		<g id="svg4295" inkscape:version="0.91 r13725" sodipodi:docname="winch2D_fulldrum.svg" xmlns:cc="http://creativecommons.org/ns#" xmlns:dc="http://purl.org/dc/elements/1.1/" xmlns:inkscape="http://www.inkscape.org/namespaces/inkscape" xmlns:rdf="http://www.w3.org/1999/02/22-rdf-syntax-ns#" xmlns:sodipodi="http://sodipodi.sourceforge.net/DTD/sodipodi-0.dtd" xmlns:svg="http://www.w3.org/2000/svg">
		
			<g id="spoolingDevice" transform="translate(-0.06735803,-96.282858)" inkscape:groupmode="layer" inkscape:label="Winch" display="none">
			
				<linearGradient id="rect4850_1_" gradientUnits="userSpaceOnUse" x1="601.1031" y1="-429.2443" x2="601.1031" y2="-403.4911" gradientTransform="matrix(1.272639e-10 -2.8346 2.8346 1.272639e-10 1291.4359 2063.187)">
				<stop  offset="0" style="stop-color:#BFBFA3"/>
				<stop  offset="0.2242" style="stop-color:#D5D5C1"/>
				<stop  offset="0.5866" style="stop-color:#FEFFFA"/>
				<stop  offset="0.6699" style="stop-color:#FBFCF5"/>
				<stop  offset="0.7646" style="stop-color:#F1F1E8"/>
				<stop  offset="0.865" style="stop-color:#E0E1D1"/>
				<stop  offset="0.9686" style="stop-color:#C9C9B1"/>
				<stop  offset="1" style="stop-color:#C1C1A6"/>
			</linearGradient>
			
				<path id="rect4850" inkscape:connector-curvature="0" display="inline" fill="url(#rect4850_1_)" stroke="#A7A7A7" stroke-width="0.245" stroke-opacity="0.7514" d="
				M76.8,496.8c23.6,0,47.3,0,70.9,0c0-91.7,0-183.3,0-275c-24.3,0-48.7,0-73,0c0,91.7,0,183.3,0,275h1
				C75.8,496.8,76.8,496.8,76.8,496.8z"/>
			
				<linearGradient id="rect4846_1_" gradientUnits="userSpaceOnUse" x1="550.6692" y1="-434.8228" x2="550.8447" y2="-419.3416" gradientTransform="matrix(1.272639e-10 -2.8346 2.8346 1.272639e-10 1294.6495 2063.187)">
				<stop  offset="0" style="stop-color:#6A6A58"/>
				<stop  offset="0.2293" style="stop-color:#BFBFA3"/>
				<stop  offset="0.4927" style="stop-color:#CECEC3"/>
				<stop  offset="1" style="stop-color:#FEFFFA"/>
			</linearGradient>
			
				<rect id="rect4846" x="70.4" y="493.9" display="inline" fill="url(#rect4846_1_)" stroke="#A7A7A7" stroke-width="0.245" stroke-opacity="0.7514" width="82.2" height="15.6"/>
			
				<linearGradient id="path4487_1_" gradientUnits="userSpaceOnUse" x1="492.3719" y1="-434.802" x2="492.5472" y2="-419.3407" gradientTransform="matrix(1.272639e-10 -2.8346 2.8346 1.272639e-10 1294.6495 1613.1869)">
				<stop  offset="0" style="stop-color:#6A6A58"/>
				<stop  offset="0.2293" style="stop-color:#BFBFA3"/>
				<stop  offset="0.4927" style="stop-color:#CECEC3"/>
				<stop  offset="1" style="stop-color:#FEFFFA"/>
			</linearGradient>
			
				<path id="path4487" inkscape:connector-curvature="0" sodipodi:nodetypes="czcczcc" display="inline" fill="url(#path4487_1_)" stroke="#000000" stroke-width="0.345" stroke-opacity="0.7514" d="
				M70.4,224.8c0,0-1.1-0.3-1.1-7.8c0.1-7.5,1.1-7.8,1.1-7.8h82.2c0,0,1.7,0.6,1.7,7.8c0,7.3-1.7,7.7-1.7,7.7L70.4,224.8L70.4,224.8
				z"/>
			
				<linearGradient id="rect74439_1_" gradientUnits="userSpaceOnUse" x1="550.6872" y1="-434.802" x2="550.8624" y2="-419.3407" gradientTransform="matrix(1.272639e-10 -2.8346 2.8346 1.272639e-10 1294.6495 2063.187)">
				<stop  offset="0" style="stop-color:#6A6A58"/>
				<stop  offset="0.2293" style="stop-color:#BFBFA3"/>
				<stop  offset="0.4927" style="stop-color:#CECEC3"/>
				<stop  offset="1" style="stop-color:#FEFFFA"/>
			</linearGradient>
			
				<path id="rect74439" inkscape:connector-curvature="0" sodipodi:nodetypes="czcczcc" display="inline" fill="url(#rect74439_1_)" stroke="#000000" stroke-width="0.345" stroke-opacity="0.7514" d="
				M70.4,509.5c0,0-1.1-0.3-1.1-7.8c0.1-7.5,1.1-7.8,1.1-7.8h82.2c0,0,1.7,0.6,1.7,7.8c0,7.3-1.7,7.7-1.7,7.7L70.4,509.5L70.4,509.5
				z"/>
		</g>
		
			<linearGradient id="spoolingDisk_1_" gradientUnits="userSpaceOnUse" x1="379.6911" y1="-420.8021" x2="379.9182" y2="-400.7667" gradientTransform="matrix(1.272639e-10 -2.8346 2.8346 1.272639e-10 1239.698 1357.2057)">
			<stop  offset="0" style="stop-color:#6A6A58"/>
			<stop  offset="0.2293" style="stop-color:#BFBFA3"/>
			<stop  offset="0.4927" style="stop-color:#CECEC3"/>
			<stop  offset="1" style="stop-color:#FEFFFA"/>
		</linearGradient>
		
			<path id="spoolingDisk" inkscape:connector-curvature="0" sodipodi:nodetypes="czcczcc" fill="url(#spoolingDisk_1_)" stroke="#000000" stroke-width="0.345" stroke-opacity="0.7514" d="
			M57,291.6c-1.3,0-0.9-1.6,2.9-2.4c2.2-0.4,9.3-2,9.4-8.5c0.1-5.4-7.2-7.5-10.5-9.1s-2.7-2.7-1.4-2.7c2.6,0,108.3,0,108.3,0
			s2.7,0.6-4.1,2.3c-2.3,0.6-7.1,3.7-7.1,9.5c0,5.6,3,8.1,6.8,8.7c6.7,1.2,4.5,2.1,4.5,2.1S57.9,291.6,57,291.6z"/>
		
			<linearGradient id="wire_4_" gradientUnits="userSpaceOnUse" x1="717.98" y1="-540.4304" x2="720.4644" y2="-540.4307" gradientTransform="matrix(-2.545277e-10 2.8346 4.4283 3.976308e-10 2625.5374 -1755.8173)">
			<stop  offset="0" style="stop-color:#BEBEB1"/>
			<stop  offset="0.6145" style="stop-color:#949484"/>
			<stop  offset="1" style="stop-color:#191915"/>
		</linearGradient>
		<path id="wire_1_" fill="url(#wire_4_)" stroke="#3E3F3F" stroke-width="0.5" d="M405.9,275.3v11H71.2c0,0-12.3,0-12.4-5.5
			c-0.2-5.5,12.1-5.5,12.1-5.5H405.9z"/>
		
			<radialGradient id="outerCircle_1_" cx="504.4942" cy="91.8953" r="120.349" gradientTransform="matrix(-0.9971 0 0 -0.9971 908.9312 316.2288)" gradientUnits="userSpaceOnUse">
			<stop  offset="0" style="stop-color:#FEFFFA"/>
			<stop  offset="0.5272" style="stop-color:#DDDDCC"/>
			<stop  offset="1" style="stop-color:#BFBFA3"/>
		</radialGradient>
		<circle id="outerCircle" fill="url(#outerCircle_1_)" stroke="#000000" stroke-miterlimit="10" cx="405.9" cy="224.6" r="120"/>
		<g id="innerCirlce">
			
				<circle id="circle_1_" opacity="0.15" stroke="#000000" stroke-miterlimit="10" enable-background="new    " cx="405.9" cy="224.6" r="52.5"/>
			
				<circle id="circle_2_" fill="none" stroke="#000000" stroke-miterlimit="10" stroke-dasharray="4,4" cx="405.9" cy="224.6" r="52.5"/>
		</g>
		<g id="innerWire">
			<path id="wire_2_" opacity="0.15" stroke="#000000" stroke-width="0.75" stroke-dasharray="4,4" enable-background="new    " d="
				M405.9,277.1v7.4h-104l-3.9-7.4H405.9z"/>
			<path id="wire_3_" fill="none" stroke="#000000" stroke-width="0.75" stroke-dasharray="4,4" d="M405.9,277.1v7.4h-104l-3.9-7.4
				H405.9z"/>
		</g>
		<g id="lineCenter">
			<g>
				
					<line fill="none" stroke="#BE2626" stroke-width="3" stroke-miterlimit="10" stroke-dasharray="13.9396,13.9396" x1="405.9" y1="371.5" x2="405.9" y2="78.5"/>
			</g>
		</g>
		<g id="arrowWireAnchor">
			<line fill="none" stroke="#0000C8" stroke-width="2" stroke-miterlimit="10" x1="489.1" y1="393.3" x2="413.3" y2="288.2"/>
			<polygon fill="#0000C8" points="425.3,291.3 408.1,280.8 412.8,300.4 			"/>
		</g>
		<g enable-background="new    ">
			<path fill="#FFFFFF" d="M412.6,422.2L408,405h2.3l2.6,11.3c0.3,1.2,0.5,2.4,0.7,3.5c0.4-1.8,0.7-2.9,0.8-3.2l3.3-11.6h2.7
				l2.5,8.7c0.6,2.2,1.1,4.2,1.3,6.1c0.2-1.1,0.5-2.3,0.9-3.7l2.7-11h2.3l-4.7,17.2h-2.2l-3.6-13.1c-0.3-1.1-0.5-1.8-0.5-2
				c-0.2,0.8-0.3,1.5-0.5,2l-3.6,13.1L412.6,422.2L412.6,422.2z"/>
			<path fill="#FFFFFF" d="M432.7,422.2V405h2.3v17.2H432.7z"/>
			<path fill="#FFFFFF" d="M439,422.2V405h7.6c1.5,0,2.7,0.2,3.5,0.5s1.4,0.9,1.9,1.6s0.7,1.6,0.7,2.6c0,1.2-0.4,2.2-1.2,3.1
				s-2,1.4-3.7,1.6c0.6,0.3,1.1,0.6,1.4,0.9c0.7,0.6,1.3,1.4,1.9,2.3l3,4.7h-2.9l-2.3-3.6c-0.7-1-1.2-1.8-1.6-2.4s-0.8-0.9-1.2-1.1
				s-0.7-0.4-1-0.5s-0.7-0.1-1.3-0.1h-2.6v7.6H439z M441.2,412.6h4.9c1,0,1.9-0.1,2.4-0.3s1-0.6,1.3-1s0.5-1,0.5-1.5
				c0-0.8-0.3-1.5-0.9-2s-1.5-0.8-2.8-0.8h-5.4V412.6z"/>
			<path fill="#FFFFFF" d="M456.3,422.2V405h12.4v2h-10.1v5.3h9.5v2h-9.5v5.8h10.5v2h-12.8V422.2z"/>
			<path fill="#FFFFFF" d="M479,422.2V405h12.4v2h-10.1v5.3h9.5v2h-9.5v5.8h10.5v2H479V422.2z"/>
			<path fill="#FFFFFF" d="M494.9,422.2V405h2.3l9,13.5V405h2.2v17.2h-2.3l-9-13.5v13.5H494.9z"/>
			<path fill="#FFFFFF" d="M512.3,422.2V405h5.9c1.3,0,2.4,0.1,3.1,0.2c1,0.2,1.8,0.6,2.5,1.2c0.9,0.8,1.6,1.7,2,2.9
				s0.7,2.6,0.7,4.1c0,1.3-0.2,2.5-0.5,3.5s-0.7,1.8-1.2,2.5s-1,1.2-1.6,1.6s-1.3,0.7-2.1,0.9s-1.7,0.3-2.8,0.3H512.3z M514.6,420.2
				h3.7c1.1,0,2-0.1,2.7-0.3s1.2-0.5,1.5-0.9c0.5-0.5,1-1.3,1.3-2.2s0.5-2,0.5-3.3c0-1.8-0.3-3.2-0.9-4.1s-1.3-1.6-2.2-1.9
				c-0.6-0.2-1.6-0.4-2.9-0.4h-3.6L514.6,420.2L514.6,420.2z"/>
			<path fill="#FFFFFF" d="M379.3,451l6.6-17.2h2.4l7,17.2h-2.6l-2-5.2h-7.2l-1.9,5.2H379.3z M384.2,443.9h5.8l-1.8-4.8
				c-0.5-1.4-1-2.6-1.2-3.6c-0.2,1.1-0.5,2.2-0.9,3.3L384.2,443.9z"/>
			<path fill="#FFFFFF" d="M397.1,451v-17.2h2.3l9,13.5v-13.5h2.2V451h-2.3l-9-13.5V451H397.1z"/>
			<path fill="#FFFFFF" d="M426.8,445l2.3,0.6c-0.5,1.9-1.3,3.3-2.6,4.3s-2.8,1.5-4.5,1.5c-1.9,0-3.4-0.4-4.5-1.1s-2-1.8-2.6-3.3
				s-0.9-3-0.9-4.6c0-1.8,0.3-3.3,1-4.7s1.7-2.3,2.9-3s2.7-1,4.2-1c1.7,0,3.2,0.4,4.3,1.3s2,2.1,2.4,3.7l-2.2,0.5
				c-0.4-1.3-1-2.2-1.7-2.7s-1.7-0.9-2.9-0.9c-1.3,0-2.4,0.3-3.3,0.9s-1.5,1.5-1.9,2.5s-0.5,2.2-0.5,3.3c0,1.5,0.2,2.7,0.6,3.8
				s1.1,1.9,2,2.4s1.9,0.8,2.9,0.8c1.3,0,2.4-0.4,3.2-1.1S426.4,446.4,426.8,445z"/>
			<path fill="#FFFFFF" d="M431.9,451v-17.2h2.3v7.1h8.9v-7.1h2.3V451h-2.3v-8.1h-8.9v8.1H431.9z"/>
			<path fill="#FFFFFF" d="M448.5,442.6c0-2.9,0.8-5.1,2.3-6.7s3.5-2.4,5.9-2.4c1.6,0,3,0.4,4.3,1.1s2.2,1.8,2.9,3.2s1,2.9,1,4.6
				s-0.4,3.3-1.1,4.7s-1.7,2.4-3,3.1s-2.7,1.1-4.2,1.1c-1.6,0-3.1-0.4-4.3-1.2s-2.2-1.8-2.9-3.2S448.5,444.1,448.5,442.6z
				 M450.8,442.7c0,2.1,0.6,3.7,1.7,4.9s2.5,1.8,4.2,1.8s3.1-0.6,4.2-1.8s1.7-2.9,1.7-5.1c0-1.4-0.2-2.6-0.7-3.7s-1.2-1.9-2.1-2.4
				s-1.9-0.9-3.1-0.9c-1.6,0-3,0.6-4.2,1.7S450.8,440.1,450.8,442.7z"/>
			<path fill="#FFFFFF" d="M467.9,451v-17.2h7.6c1.5,0,2.7,0.2,3.5,0.5s1.4,0.9,1.9,1.6s0.7,1.6,0.7,2.6c0,1.2-0.4,2.2-1.2,3.1
				s-2,1.4-3.7,1.6c0.6,0.3,1.1,0.6,1.4,0.9c0.7,0.6,1.3,1.4,1.9,2.3l3,4.7h-2.9l-2.3-3.6c-0.7-1-1.2-1.8-1.6-2.4s-0.8-0.9-1.2-1.1
				s-0.7-0.4-1-0.5s-0.7-0.1-1.3-0.1h-2.6v7.6H467.9z M470.1,441.4h4.9c1,0,1.9-0.1,2.4-0.3s1-0.6,1.3-1s0.5-1,0.5-1.5
				c0-0.8-0.3-1.5-0.9-2s-1.5-0.8-2.8-0.8h-5.4V441.4z"/>
			<path fill="#FFFFFF" d="M491.8,451v-17.2h6.5c1.1,0,2,0.1,2.6,0.2c0.8,0.1,1.6,0.4,2.1,0.8s1,0.9,1.4,1.7s0.5,1.5,0.5,2.3
				c0,1.5-0.5,2.7-1.4,3.7s-2.6,1.5-5,1.5h-4.4v7H491.8z M494.1,442h4.4c1.5,0,2.5-0.3,3.1-0.8s0.9-1.3,0.9-2.3
				c0-0.7-0.2-1.3-0.5-1.8s-0.8-0.8-1.4-1c-0.4-0.1-1.1-0.2-2.1-0.2h-4.4V442z"/>
			<path fill="#FFFFFF" d="M507.2,442.6c0-2.9,0.8-5.1,2.3-6.7s3.5-2.4,5.9-2.4c1.6,0,3,0.4,4.3,1.1s2.2,1.8,2.9,3.2s1,2.9,1,4.6
				s-0.4,3.3-1.1,4.7s-1.7,2.4-3,3.1s-2.7,1.1-4.2,1.1c-1.6,0-3.1-0.4-4.3-1.2s-2.2-1.8-2.9-3.2S507.2,444.1,507.2,442.6z
				 M509.5,442.7c0,2.1,0.6,3.7,1.7,4.9c1.1,1.2,2.5,1.8,4.2,1.8s3.1-0.6,4.2-1.8s1.7-2.9,1.7-5.1c0-1.4-0.2-2.6-0.7-3.7
				s-1.2-1.9-2.1-2.4s-1.9-0.9-3.1-0.9c-1.6,0-3,0.6-4.2,1.7S509.5,440.1,509.5,442.7z"/>
			<path fill="#FFFFFF" d="M526.9,451v-17.2h2.3V451H526.9z"/>
			<path fill="#FFFFFF" d="M533.2,451v-17.2h2.3l9,13.5v-13.5h2.2V451h-2.3l-9-13.5V451H533.2z"/>
			<path fill="#FFFFFF" d="M554.9,451v-15.2h-5.7v-2h13.6v2h-5.7V451H554.9z"/>
		</g>
		
			<text transform="matrix(1 0 0 1 407.7657 422.2002)" display="none" fill="#FFFFFF" enable-background="new    " font-family="'ArialMT'" font-size="24px">WIRE END </text>
		
			<text transform="matrix(1 0 0 1 379.0657 451.0002)" display="none" fill="#FFFFFF" enable-background="new    " font-family="'ArialMT'" font-size="24px">ANCHOR POINT</text>
		<text transform="matrix(1 0 0 1 324.6319 61.9233)" fill="#FFFFFF" font-family="'ArialMT'" font-size="24px">WINCH DRUM</text>
		<g enable-background="new    ">
			<path fill="#FFFFFF" d="M49.9,207.7l2.1-0.2c0.1,0.9,0.3,1.6,0.7,2.1s0.9,1,1.7,1.3s1.7,0.5,2.6,0.5c0.9,0,1.6-0.1,2.3-0.4
				s1.2-0.6,1.5-1.1s0.5-0.9,0.5-1.5c0-0.5-0.2-1-0.5-1.4s-0.8-0.7-1.5-1c-0.5-0.2-1.5-0.5-3.1-0.8s-2.7-0.7-3.3-1.1
				c-0.8-0.4-1.4-1-1.8-1.6s-0.6-1.3-0.6-2.1c0-0.9,0.2-1.7,0.7-2.4s1.2-1.3,2.2-1.7s2-0.6,3.2-0.6c1.3,0,2.4,0.2,3.4,0.6
				s1.7,1,2.2,1.8s0.8,1.7,0.8,2.7l-2.2,0.2c-0.1-1.1-0.5-1.9-1.2-2.5s-1.7-0.8-3-0.8c-1.4,0-2.4,0.3-3,0.8s-0.9,1.1-0.9,1.8
				c0,0.6,0.2,1.1,0.7,1.5c0.4,0.4,1.6,0.8,3.4,1.2s3.1,0.8,3.8,1.1c1,0.5,1.7,1,2.2,1.8s0.7,1.5,0.7,2.4s-0.3,1.8-0.8,2.6
				s-1.3,1.4-2.3,1.9s-2.1,0.7-3.3,0.7c-1.6,0-2.9-0.2-3.9-0.7s-1.9-1.1-2.5-2S49.9,208.9,49.9,207.7z"/>
			<path fill="#FFFFFF" d="M66.7,213.3v-17.2h6.5c1.1,0,2,0.1,2.6,0.2c0.8,0.1,1.6,0.4,2.1,0.8s1,0.9,1.4,1.7s0.5,1.5,0.5,2.3
				c0,1.5-0.5,2.7-1.4,3.7s-2.6,1.5-5,1.5H69v7H66.7z M69,204.2h4.4c1.5,0,2.5-0.3,3.1-0.8s0.9-1.3,0.9-2.3c0-0.7-0.2-1.3-0.5-1.8
				s-0.8-0.8-1.4-1c-0.4-0.1-1.1-0.2-2.1-0.2H69V204.2z"/>
			<path fill="#FFFFFF" d="M82,204.9c0-2.9,0.8-5.1,2.3-6.7s3.5-2.4,5.9-2.4c1.6,0,3,0.4,4.3,1.1s2.2,1.8,2.9,3.2s1,2.9,1,4.6
				c0,1.7-0.4,3.3-1.1,4.7s-1.7,2.4-3,3.1s-2.7,1.1-4.2,1.1c-1.6,0-3.1-0.4-4.3-1.2s-2.2-1.8-2.9-3.2S82,206.4,82,204.9z
				 M84.3,204.9c0,2.1,0.6,3.7,1.7,4.9s2.5,1.8,4.2,1.8s3.1-0.6,4.2-1.8s1.7-2.9,1.7-5.1c0-1.4-0.2-2.6-0.7-3.7s-1.2-1.9-2.1-2.4
				s-1.9-0.9-3.1-0.9c-1.6,0-3,0.6-4.2,1.7S84.3,202.3,84.3,204.9z"/>
			<path fill="#FFFFFF" d="M100.7,204.9c0-2.9,0.8-5.1,2.3-6.7s3.5-2.4,5.9-2.4c1.6,0,3,0.4,4.3,1.1s2.2,1.8,2.9,3.2s1,2.9,1,4.6
				c0,1.7-0.4,3.3-1.1,4.7s-1.7,2.4-3,3.1s-2.7,1.1-4.2,1.1c-1.6,0-3.1-0.4-4.3-1.2s-2.2-1.8-2.9-3.2S100.7,206.4,100.7,204.9z
				 M103,204.9c0,2.1,0.6,3.7,1.7,4.9s2.5,1.8,4.2,1.8s3.1-0.6,4.2-1.8s1.7-2.9,1.7-5.1c0-1.4-0.2-2.6-0.7-3.7s-1.2-1.9-2.1-2.4
				s-1.9-0.9-3.1-0.9c-1.6,0-3,0.6-4.2,1.7S103,202.3,103,204.9z"/>
			<path fill="#FFFFFF" d="M119.9,213.3v-17.2h2.3v15.2h8.5v2H119.9z"/>
			<path fill="#FFFFFF" d="M133.8,213.3v-17.2h2.3v17.2H133.8z"/>
			<path fill="#FFFFFF" d="M140,213.3v-17.2h2.3l9,13.5v-13.5h2.2v17.2h-2.3l-9-13.5v13.5H140z"/>
			<path fill="#FFFFFF" d="M165.4,206.5v-2h7.3v6.4c-1.1,0.9-2.3,1.6-3.5,2s-2.4,0.7-3.7,0.7c-1.7,0-3.2-0.4-4.6-1.1
				s-2.4-1.8-3.1-3.1s-1.1-2.9-1.1-4.6c0-1.7,0.3-3.2,1-4.7s1.7-2.5,3-3.2s2.8-1.1,4.5-1.1c1.2,0,2.4,0.2,3.4,0.6s1.8,1,2.4,1.7
				s1,1.7,1.3,2.8l-2.1,0.6c-0.3-0.9-0.6-1.6-1-2.1s-0.9-0.9-1.6-1.2s-1.5-0.5-2.4-0.5c-1,0-1.9,0.2-2.7,0.5s-1.4,0.7-1.8,1.2
				s-0.8,1.1-1.1,1.7c-0.4,1.1-0.7,2.2-0.7,3.5c0,1.5,0.3,2.8,0.8,3.8s1.3,1.8,2.3,2.3s2.1,0.8,3.2,0.8c1,0,1.9-0.2,2.9-0.6
				s1.6-0.8,2.1-1.2v-3.2L165.4,206.5L165.4,206.5z"/>
			<path fill="#FFFFFF" d="M68.7,242.1v-17.2h5.9c1.3,0,2.4,0.1,3.1,0.2c1,0.2,1.8,0.6,2.5,1.2c0.9,0.8,1.6,1.7,2,2.9
				s0.7,2.6,0.7,4.1c0,1.3-0.2,2.5-0.5,3.5s-0.7,1.8-1.2,2.5s-1,1.2-1.6,1.6s-1.3,0.7-2.1,0.9s-1.7,0.3-2.8,0.3H68.7z M71,240h3.7
				c1.1,0,2-0.1,2.7-0.3s1.2-0.5,1.5-0.9c0.5-0.5,1-1.3,1.3-2.2s0.5-2,0.5-3.3c0-1.8-0.3-3.2-0.9-4.1s-1.3-1.6-2.2-1.9
				c-0.6-0.2-1.6-0.4-2.9-0.4H71V240z"/>
			<path fill="#FFFFFF" d="M86.1,242.1v-17.2h12.4v2H88.3v5.3h9.5v2h-9.5v5.8h10.5v2L86.1,242.1L86.1,242.1z"/>
			<path fill="#FFFFFF" d="M106.9,242.1l-6.7-17.2h2.5l4.5,12.5c0.4,1,0.7,1.9,0.9,2.8c0.3-0.9,0.6-1.9,0.9-2.8l4.6-12.5h2.3
				l-6.7,17.2H106.9z"/>
			<path fill="#FFFFFF" d="M118.4,242.1v-17.2h2.3v17.2H118.4z"/>
			<path fill="#FFFFFF" d="M137,236l2.3,0.6c-0.5,1.9-1.3,3.3-2.6,4.3s-2.8,1.5-4.5,1.5c-1.9,0-3.4-0.4-4.5-1.1
				c-1.2-0.8-2-1.8-2.6-3.3s-0.9-3-0.9-4.6c0-1.8,0.3-3.3,1-4.7s1.7-2.3,2.9-3c1.3-0.7,2.7-1,4.2-1c1.7,0,3.2,0.4,4.3,1.3
				s2,2.1,2.4,3.7l-2.2,0.5c-0.4-1.3-1-2.2-1.7-2.7s-1.7-0.9-2.9-0.9c-1.3,0-2.4,0.3-3.3,0.9c-0.9,0.6-1.5,1.5-1.9,2.5
				s-0.5,2.2-0.5,3.3c0,1.5,0.2,2.7,0.6,3.8s1.1,1.9,2,2.4s1.9,0.8,2.9,0.8c1.3,0,2.4-0.4,3.2-1.1S136.6,237.5,137,236z"/>
			<path fill="#FFFFFF" d="M142.1,242.1v-17.2h12.4v2h-10.1v5.3h9.5v2h-9.5v5.8h10.5v2L142.1,242.1L142.1,242.1z"/>
		</g>
		
			<text transform="matrix(1 0 0 1 48.4203 61.9233)" display="none" fill="#FFFFFF" enable-background="new    " font-family="'ArialMT'" font-size="24px">SPOOLING</text>
		
			<text transform="matrix(1 0 0 1 66.4203 90.7233)" display="none" fill="#FFFFFF" enable-background="new    " font-family="'ArialMT'" font-size="24px">DEVICE</text>
	</g>
	<path fill="none" stroke="#000000" stroke-width="0.345" d="M55.9,297.9"/>
	<path fill="none" stroke="#000000" stroke-width="0.345" d="M55.7,263.1"/>
</g>
</svg>
