<?xml version="1.0" encoding="utf-8"?>
<!-- Generator: Adobe Illustrator 16.0.0, SVG Export Plug-In . SVG Version: 6.00 Build 0)  -->
<!DOCTYPE svg PUBLIC "-//W3C//DTD SVG 1.1//EN" "http://www.w3.org/Graphics/SVG/1.1/DTD/svg11.dtd">
<svg version="1.1" id="svg" xmlns="http://www.w3.org/2000/svg" xmlns:xlink="http://www.w3.org/1999/xlink" x="0px" y="0px"
	 width="110px" height="110px" viewBox="0 0 110 110" enable-background="new 0 0 110 110" xml:space="preserve">
<g id="Layer1">
	<g id="back">
		
			<linearGradient id="SVGID_1_" gradientUnits="userSpaceOnUse" x1="6.5366" y1="3304.0713" x2="509.8629" y2="3807.3984" gradientTransform="matrix(1 0 0 1 106.2998 -3430.1016)">
			<stop  offset="0" style="stop-color:#363C3C"/>
			<stop  offset="1" style="stop-color:#2E3436"/>
		</linearGradient>
		<path fill="url(#SVGID_1_)" d="M739.5,253.447c0,1.281-2.238,2.32-5,2.32h-740c-2.761,0-5-1.039-5-2.32V-2.18
			c0-1.281,2.239-2.32,5-2.32h740c2.762,0,5,1.039,5,2.32V253.447z"/>
		<path fill="none" stroke="#0F0F0F" stroke-width="3" stroke-miterlimit="10" d="M739,253.682c0,1.28-2.238,2.318-5,2.318H-6
			c-2.761,0-5-1.038-5-2.318V-1.948c0-1.281,2.239-2.32,5-2.32h740c2.762,0,5,1.039,5,2.32V253.682z"/>
	</g>
	<g id="cdpPicture0">
		<rect x="-1" y="7.38" fill="none" width="110" height="110"/>
		<g>
			<path fill="#0A0A0A" d="M54.002,10.882c28.439,0,51.494,23.057,51.494,51.498c0,28.438-23.055,51.494-51.494,51.494
				c-28.441,0-51.498-23.058-51.498-51.494C2.504,33.938,25.561,10.882,54.002,10.882"/>
			
				<linearGradient id="sunkenCircle_1_" gradientUnits="userSpaceOnUse" x1="-79.771" y1="3465.0098" x2="-24.829" y2="3519.9517" gradientTransform="matrix(1 0 0 1 106.2998 -3430.1016)">
				<stop  offset="0" style="stop-color:#1D2021"/>
				<stop  offset="0.4337" style="stop-color:#1D2021"/>
				<stop  offset="0.6684" style="stop-color:#565B5D"/>
				<stop  offset="1" style="stop-color:#565B5D"/>
			</linearGradient>
			<path id="sunkenCircle_10_" fill="url(#sunkenCircle_1_)" d="M109,62.38c0-30.326-24.673-55-54.998-55
				C23.673,7.38-1,32.054-1,62.38c0,30.327,24.673,55,55.002,55C84.327,117.38,109,92.707,109,62.38z M2.503,62.38
				c0-28.441,23.057-51.498,51.499-51.498c28.439,0,51.494,23.057,51.494,51.498c0,28.44-23.055,51.494-51.494,51.494
				C25.56,113.874,2.503,90.82,2.503,62.38z"/>
			
				<linearGradient id="greenCircle_1_" gradientUnits="userSpaceOnUse" x1="-52.3003" y1="3535.3926" x2="-52.3003" y2="3449.5684" gradientTransform="matrix(1 0 0 1 106.2998 -3430.1016)">
				<stop  offset="0" style="stop-color:#B0B0B0"/>
				<stop  offset="1" style="stop-color:#8D8D8D"/>
			</linearGradient>
			<path id="greenCircle_10_" fill="url(#greenCircle_1_)" d="M53.998,19.466c-23.698,0-42.912,19.211-42.912,42.914
				c0,23.697,19.214,42.911,42.912,42.911c23.705,0,42.914-19.214,42.914-42.911C96.912,38.677,77.703,19.466,53.998,19.466z
				 M53.998,100.039c-20.766,0-37.659-16.896-37.659-37.659c0-20.769,16.894-37.658,37.659-37.658
				c20.764,0,37.661,16.891,37.661,37.658C91.659,83.145,74.762,100.039,53.998,100.039z"/>
			<text transform="matrix(1 0 0 1 50.2559 67.6797)" fill="#FFFFFF" font-family="'ArialMT'" font-size="14">?</text>
		</g>
	</g>
</g>
<g id="Styles">
	<g id="cdpPicture0Style1">
		<rect x="121.534" y="33.47" fill="none" width="169.627" height="58.893"/>
		<g>
			
				<linearGradient id="SVGID_2_" gradientUnits="userSpaceOnUse" x1="104.5742" y1="2258.7363" x2="274.2041" y2="2258.7363" gradientTransform="matrix(1 0 0 1 16.96 -2195.8203)">
				<stop  offset="0" style="stop-color:#1D2021"/>
				<stop  offset="0.3602" style="stop-color:#1D2021"/>
				<stop  offset="0.6684" style="stop-color:#565B5D"/>
				<stop  offset="1" style="stop-color:#565B5D"/>
			</linearGradient>
			<path fill="url(#SVGID_2_)" d="M291.161,83.342c0,4.979-4.057,9.021-9.062,9.021H130.595c-5.004,0-9.061-4.042-9.061-9.021
				V42.491c0-4.979,4.057-9.021,9.061-9.021h151.508c5.005,0,9.062,4.043,9.062,9.021L291.161,83.342L291.161,83.342z"/>
			<path fill="#0A0A0A" d="M288.521,81.164c0,4.735-3.988,8.572-8.91,8.572H133.087c-4.922,0-8.912-3.837-8.912-8.572V44.67
				c0-4.733,3.99-8.572,8.912-8.572H279.61c4.922,0,8.91,3.838,8.91,8.572V81.164L288.521,81.164z"/>
			<path fill="none" stroke="#9D9D9D" stroke-width="3" stroke-miterlimit="10" d="M283.491,77.229c0,4.207-3.887,7.614-8.678,7.614
				H137.883c-4.795,0-8.682-3.407-8.682-7.614V48.573c0-4.207,3.887-7.617,8.682-7.617h136.934c4.791,0,8.678,3.411,8.678,7.617
				L283.491,77.229L283.491,77.229z"/>
			<g>
				<path fill="#C8C8C8" d="M167.304,56.42l2.109-0.205c0.127,0.709,0.385,1.229,0.772,1.561c0.389,0.332,0.912,0.498,1.571,0.498
					c0.698,0,1.225-0.147,1.578-0.443c0.354-0.295,0.531-0.641,0.531-1.036c0-0.254-0.074-0.47-0.224-0.648
					c-0.148-0.178-0.409-0.333-0.779-0.465c-0.255-0.088-0.833-0.244-1.736-0.469c-1.162-0.288-1.978-0.642-2.446-1.062
					c-0.659-0.591-0.989-1.311-0.989-2.161c0-0.547,0.155-1.059,0.466-1.534c0.31-0.477,0.757-0.839,1.34-1.088
					c0.584-0.249,1.288-0.374,2.113-0.374c1.348,0,2.362,0.295,3.043,0.886c0.682,0.591,1.039,1.379,1.073,2.366l-2.168,0.095
					c-0.093-0.552-0.292-0.948-0.597-1.19c-0.306-0.241-0.764-0.362-1.374-0.362c-0.629,0-1.123,0.129-1.479,0.388
					c-0.23,0.166-0.345,0.388-0.345,0.667c0,0.254,0.107,0.471,0.322,0.652c0.273,0.229,0.938,0.469,1.992,0.718
					s1.835,0.507,2.34,0.773c0.506,0.266,0.901,0.63,1.187,1.091c0.286,0.462,0.429,1.031,0.429,1.711
					c0,0.615-0.171,1.191-0.513,1.729s-0.825,0.936-1.45,1.197c-0.625,0.261-1.404,0.392-2.337,0.392
					c-1.357,0-2.399-0.313-3.127-0.941C167.88,58.536,167.445,57.621,167.304,56.42z"/>
				<path fill="#C8C8C8" d="M177.858,59.914V49.177h3.479c1.318,0,2.178,0.054,2.578,0.161c0.615,0.161,1.13,0.512,1.545,1.051
					c0.415,0.54,0.623,1.237,0.623,2.091c0,0.659-0.12,1.213-0.359,1.663s-0.543,0.802-0.911,1.059
					c-0.369,0.256-0.743,0.426-1.124,0.509c-0.519,0.103-1.268,0.153-2.249,0.153h-1.413v4.051H177.858z M180.026,50.993v3.047
					h1.186c0.854,0,1.426-0.056,1.715-0.168c0.287-0.112,0.514-0.288,0.677-0.527c0.164-0.239,0.245-0.518,0.245-0.835
					c0-0.391-0.114-0.713-0.344-0.967s-0.52-0.413-0.871-0.476c-0.26-0.049-0.779-0.073-1.561-0.073H180.026z"/>
				<path fill="#C8C8C8" d="M187.424,54.611c0-1.094,0.163-2.012,0.49-2.754c0.244-0.547,0.577-1.038,1-1.472
					c0.422-0.435,0.885-0.757,1.388-0.967c0.669-0.283,1.44-0.425,2.314-0.425c1.582,0,2.848,0.491,3.798,1.472
					c0.949,0.981,1.424,2.346,1.424,4.094c0,1.733-0.471,3.09-1.413,4.069s-2.202,1.469-3.779,1.469
					c-1.597,0-2.866-0.487-3.809-1.462C187.895,57.662,187.424,56.32,187.424,54.611z M189.657,54.538
					c0,1.216,0.28,2.138,0.843,2.765c0.561,0.628,1.273,0.941,2.139,0.941c0.863,0,1.573-0.312,2.127-0.934
					c0.555-0.623,0.832-1.557,0.832-2.802c0-1.23-0.271-2.148-0.81-2.754c-0.54-0.605-1.257-0.908-2.149-0.908
					c-0.895,0-1.614,0.307-2.161,0.919C189.931,52.379,189.657,53.303,189.657,54.538z"/>
				<path fill="#C8C8C8" d="M199.092,54.611c0-1.094,0.163-2.012,0.49-2.754c0.244-0.547,0.577-1.038,1-1.472
					c0.422-0.435,0.885-0.757,1.388-0.967c0.669-0.283,1.44-0.425,2.314-0.425c1.582,0,2.848,0.491,3.798,1.472
					c0.949,0.981,1.424,2.346,1.424,4.094c0,1.733-0.471,3.09-1.413,4.069s-2.202,1.469-3.779,1.469
					c-1.597,0-2.866-0.487-3.809-1.462C199.563,57.662,199.092,56.32,199.092,54.611z M201.325,54.538
					c0,1.216,0.28,2.138,0.843,2.765c0.561,0.628,1.273,0.941,2.139,0.941c0.863,0,1.573-0.312,2.127-0.934
					c0.555-0.623,0.832-1.557,0.832-2.802c0-1.23-0.271-2.148-0.81-2.754c-0.54-0.605-1.257-0.908-2.149-0.908
					c-0.895,0-1.614,0.307-2.161,0.919C201.599,52.379,201.325,53.303,201.325,54.538z"/>
				<path fill="#C8C8C8" d="M211.257,59.914V49.265h2.168v8.841h5.391v1.809H211.257z"/>
				<path fill="#C8C8C8" d="M220.295,59.914V49.177h2.168v10.737H220.295z"/>
				<path fill="#C8C8C8" d="M224.55,59.914V49.177h2.109l4.395,7.171v-7.171h2.014v10.737h-2.175l-4.329-7.002v7.002H224.55z"/>
				<path fill="#C8C8C8" d="M240.355,55.967v-1.81h4.674v4.277c-0.455,0.439-1.112,0.826-1.975,1.161
					c-0.861,0.334-1.734,0.502-2.618,0.502c-1.123,0-2.103-0.236-2.937-0.707c-0.836-0.472-1.463-1.146-1.883-2.021
					c-0.42-0.877-0.63-1.83-0.63-2.86c0-1.118,0.234-2.112,0.703-2.981s1.154-1.536,2.058-2c0.689-0.356,1.546-0.535,2.571-0.535
					c1.333,0,2.374,0.28,3.124,0.838c0.749,0.56,1.231,1.332,1.446,2.318l-2.153,0.403c-0.151-0.527-0.436-0.943-0.854-1.249
					c-0.417-0.305-0.938-0.458-1.563-0.458c-0.947,0-1.7,0.3-2.26,0.901c-0.559,0.601-0.839,1.492-0.839,2.673
					c0,1.274,0.283,2.23,0.85,2.867c0.566,0.638,1.309,0.956,2.227,0.956c0.455,0,0.91-0.089,1.366-0.268
					c0.457-0.178,0.849-0.395,1.176-0.648v-1.361H240.355z"/>
				<path fill="#C8C8C8" d="M179.51,67.177h3.963c0.893,0,1.574,0.068,2.043,0.205c0.63,0.186,1.169,0.516,1.619,0.989
					c0.448,0.474,0.791,1.053,1.025,1.739c0.234,0.686,0.352,1.532,0.352,2.538c0,0.884-0.11,1.646-0.33,2.285
					c-0.269,0.781-0.652,1.413-1.15,1.896c-0.376,0.366-0.884,0.652-1.523,0.857c-0.479,0.151-1.118,0.227-1.918,0.227h-4.08V67.177
					z M181.678,68.993v7.112h1.619c0.604,0,1.042-0.034,1.311-0.104c0.352-0.088,0.644-0.236,0.875-0.446
					c0.232-0.21,0.422-0.556,0.568-1.036c0.146-0.481,0.219-1.137,0.219-1.967s-0.072-1.467-0.219-1.912
					c-0.146-0.443-0.352-0.791-0.615-1.039c-0.264-0.25-0.599-0.418-1.004-0.506c-0.303-0.068-0.896-0.103-1.779-0.103H181.678z"/>
				<path fill="#C8C8C8" d="M190.35,77.914V67.177h7.961v1.816h-5.793v2.38h5.391v1.81h-5.391v2.923h5.998v1.809H190.35z"/>
				<path fill="#C8C8C8" d="M203.094,77.914l-3.838-10.737h2.352l2.717,7.946l2.63-7.946h2.3l-3.846,10.737H203.094z"/>
				<path fill="#C8C8C8" d="M210.293,77.914V67.177h2.168v10.737H210.293z"/>
				<path fill="#C8C8C8" d="M221.396,73.967l2.103,0.666c-0.322,1.172-0.858,2.042-1.607,2.611c-0.75,0.568-1.701,0.854-2.853,0.854
					c-1.427,0-2.599-0.487-3.516-1.462c-0.919-0.974-1.377-2.306-1.377-3.995c0-1.787,0.461-3.175,1.384-4.164
					c0.923-0.988,2.136-1.482,3.64-1.482c1.313,0,2.381,0.388,3.201,1.164c0.488,0.459,0.854,1.118,1.099,1.978l-2.146,0.513
					c-0.128-0.557-0.393-0.996-0.795-1.318c-0.403-0.322-0.893-0.483-1.469-0.483c-0.796,0-1.441,0.286-1.938,0.856
					c-0.495,0.572-0.743,1.497-0.743,2.776c0,1.357,0.244,2.324,0.732,2.9s1.123,0.864,1.904,0.864c0.576,0,1.071-0.184,1.487-0.549
					C220.918,75.328,221.216,74.753,221.396,73.967z"/>
				<path fill="#C8C8C8" d="M225.359,77.914V67.177h7.961v1.816h-5.793v2.38h5.391v1.81h-5.391v2.923h5.998v1.809H225.359z"/>
			</g>
		</g>
	</g>
	<g id="cdpPicture0Style2">
		<rect x="301.126" y="33.47" fill="none" width="169.627" height="58.894"/>
		<g>
			
				<linearGradient id="SVGID_3_" gradientUnits="userSpaceOnUse" x1="284.166" y1="2258.7363" x2="453.7959" y2="2258.7363" gradientTransform="matrix(1 0 0 1 16.96 -2195.8203)">
				<stop  offset="0" style="stop-color:#1D2021"/>
				<stop  offset="0.3602" style="stop-color:#1D2021"/>
				<stop  offset="0.6684" style="stop-color:#565B5D"/>
				<stop  offset="1" style="stop-color:#565B5D"/>
			</linearGradient>
			<path fill="url(#SVGID_3_)" d="M470.753,83.342c0,4.979-4.057,9.02-9.062,9.02H310.187c-5.004,0-9.061-4.041-9.061-9.02V42.491
				c0-4.979,4.057-9.021,9.061-9.021h151.508c5.005,0,9.062,4.043,9.062,9.021L470.753,83.342L470.753,83.342z"/>
			<path fill="#0A0A0A" d="M468.112,81.164c0,4.734-3.988,8.572-8.91,8.572H312.679c-4.922,0-8.912-3.838-8.912-8.572V44.67
				c0-4.733,3.99-8.572,8.912-8.572h146.523c4.922,0,8.91,3.838,8.91,8.572V81.164L468.112,81.164z"/>
			<path fill="none" stroke="#9D9D9D" stroke-width="3" stroke-miterlimit="10" d="M463.083,77.229c0,4.207-3.887,7.615-8.678,7.615
				H317.475c-4.795,0-8.682-3.408-8.682-7.615V48.573c0-4.207,3.887-7.617,8.682-7.617h136.934c4.791,0,8.678,3.411,8.678,7.617
				L463.083,77.229L463.083,77.229z"/>
			<g>
				<path fill="#C8C8C8" d="M361.401,55.967l2.103,0.666c-0.322,1.172-0.858,2.043-1.607,2.611c-0.75,0.568-1.701,0.854-2.853,0.854
					c-1.427,0-2.599-0.487-3.516-1.462c-0.919-0.974-1.377-2.306-1.377-3.995c0-1.787,0.461-3.175,1.384-4.164
					c0.923-0.988,2.136-1.483,3.64-1.483c1.313,0,2.381,0.388,3.201,1.165c0.488,0.459,0.854,1.118,1.099,1.978l-2.146,0.513
					c-0.128-0.557-0.393-0.996-0.795-1.318c-0.403-0.322-0.893-0.483-1.469-0.483c-0.796,0-1.441,0.286-1.938,0.857
					c-0.495,0.571-0.743,1.497-0.743,2.776c0,1.357,0.244,2.324,0.732,2.9s1.123,0.864,1.904,0.864c0.576,0,1.071-0.184,1.487-0.549
					C360.923,57.328,361.221,56.752,361.401,55.967z"/>
				<path fill="#C8C8C8" d="M365.35,49.177h2.168v5.815c0,0.923,0.027,1.521,0.081,1.795c0.093,0.439,0.313,0.792,0.663,1.058
					c0.349,0.267,0.826,0.399,1.432,0.399c0.615,0,1.079-0.125,1.392-0.377s0.5-0.561,0.563-0.927s0.096-0.974,0.096-1.824v-5.94
					h2.168v5.64c0,1.289-0.059,2.199-0.176,2.732c-0.117,0.531-0.333,0.98-0.648,1.348c-0.314,0.365-0.736,0.657-1.264,0.875
					c-0.527,0.217-1.215,0.326-2.064,0.326c-1.025,0-1.804-0.119-2.333-0.355c-0.53-0.237-0.948-0.545-1.257-0.923
					c-0.307-0.378-0.51-0.775-0.607-1.19c-0.142-0.615-0.213-1.523-0.213-2.725V49.177z"/>
				<path fill="#C8C8C8" d="M376.204,59.914V49.177h4.563c1.146,0,1.98,0.097,2.501,0.289c0.52,0.193,0.936,0.536,1.249,1.029
					c0.312,0.493,0.469,1.057,0.469,1.692c0,0.806-0.237,1.471-0.711,1.996c-0.474,0.525-1.182,0.856-2.124,0.993
					c0.469,0.273,0.855,0.574,1.161,0.901c0.305,0.327,0.716,0.908,1.234,1.743l1.311,2.095h-2.593l-1.567-2.336
					c-0.557-0.836-0.938-1.361-1.143-1.579c-0.205-0.217-0.423-0.366-0.652-0.446c-0.229-0.081-0.593-0.121-1.091-0.121h-0.439
					v4.482H376.204z M378.372,53.718h1.604c1.039,0,1.688-0.044,1.947-0.132s0.462-0.239,0.608-0.454s0.22-0.483,0.22-0.806
					c0-0.361-0.097-0.653-0.289-0.875c-0.193-0.222-0.465-0.363-0.816-0.421c-0.176-0.024-0.703-0.037-1.582-0.037h-1.692V53.718z"
					/>
				<path fill="#C8C8C8" d="M386.479,56.42l2.109-0.205c0.127,0.709,0.385,1.229,0.772,1.561c0.389,0.332,0.912,0.498,1.571,0.498
					c0.698,0,1.225-0.147,1.578-0.443c0.354-0.295,0.531-0.641,0.531-1.036c0-0.254-0.074-0.47-0.224-0.648
					c-0.148-0.178-0.409-0.333-0.779-0.465c-0.255-0.088-0.833-0.244-1.736-0.469c-1.162-0.288-1.978-0.642-2.446-1.062
					c-0.659-0.591-0.989-1.311-0.989-2.161c0-0.547,0.155-1.059,0.466-1.534c0.31-0.477,0.757-0.839,1.34-1.088
					c0.584-0.249,1.288-0.374,2.113-0.374c1.348,0,2.362,0.295,3.043,0.886c0.682,0.591,1.039,1.379,1.073,2.366l-2.168,0.095
					c-0.093-0.552-0.292-0.948-0.597-1.19c-0.306-0.241-0.764-0.362-1.374-0.362c-0.629,0-1.123,0.129-1.479,0.388
					c-0.23,0.166-0.345,0.388-0.345,0.667c0,0.254,0.107,0.471,0.322,0.652c0.273,0.229,0.938,0.469,1.992,0.718
					s1.835,0.507,2.34,0.773c0.506,0.266,0.901,0.63,1.187,1.091c0.286,0.462,0.429,1.031,0.429,1.711
					c0,0.615-0.171,1.191-0.513,1.729s-0.825,0.936-1.45,1.197c-0.625,0.261-1.404,0.392-2.337,0.392
					c-1.357,0-2.399-0.313-3.127-0.941C387.056,58.536,386.621,57.621,386.479,56.42z"/>
				<path fill="#C8C8C8" d="M396.596,54.611c0-1.094,0.163-2.012,0.49-2.754c0.244-0.547,0.577-1.038,1-1.472
					c0.422-0.435,0.885-0.757,1.388-0.967c0.669-0.283,1.44-0.425,2.314-0.425c1.582,0,2.848,0.491,3.798,1.472
					c0.949,0.981,1.424,2.346,1.424,4.094c0,1.733-0.471,3.09-1.413,4.069s-2.202,1.469-3.779,1.469
					c-1.597,0-2.866-0.487-3.809-1.462C397.066,57.662,396.596,56.32,396.596,54.611z M398.829,54.538
					c0,1.216,0.28,2.138,0.843,2.765c0.561,0.628,1.273,0.941,2.139,0.941c0.863,0,1.573-0.312,2.127-0.934
					c0.555-0.623,0.832-1.557,0.832-2.802c0-1.23-0.271-2.148-0.81-2.754c-0.54-0.605-1.257-0.908-2.149-0.908
					c-0.895,0-1.614,0.307-2.161,0.919C399.103,52.379,398.829,53.303,398.829,54.538z"/>
				<path fill="#C8C8C8" d="M408.709,59.914V49.177h4.563c1.146,0,1.98,0.097,2.501,0.289c0.52,0.193,0.936,0.536,1.249,1.029
					c0.312,0.493,0.469,1.057,0.469,1.692c0,0.806-0.237,1.471-0.711,1.996c-0.474,0.525-1.182,0.856-2.124,0.993
					c0.469,0.273,0.855,0.574,1.161,0.901c0.305,0.327,0.716,0.908,1.234,1.743l1.311,2.095h-2.593l-1.567-2.336
					c-0.557-0.836-0.938-1.361-1.143-1.579c-0.205-0.217-0.423-0.366-0.652-0.446c-0.229-0.081-0.593-0.121-1.091-0.121h-0.439
					v4.482H408.709z M410.877,53.718h1.604c1.039,0,1.688-0.044,1.947-0.132s0.462-0.239,0.608-0.454s0.22-0.483,0.22-0.806
					c0-0.361-0.097-0.653-0.289-0.875c-0.193-0.222-0.465-0.363-0.816-0.421c-0.176-0.024-0.703-0.037-1.582-0.037h-1.692V53.718z"
					/>
				<path fill="#C8C8C8" d="M363.146,77.914l-2.564-10.737h2.22l1.618,7.376l1.963-7.376h2.578l1.883,7.5l1.648-7.5h2.182
					l-2.607,10.737h-2.299l-2.139-8.027l-2.132,8.027H363.146z"/>
				<path fill="#C8C8C8" d="M375.713,77.914V67.177h2.168v10.737H375.713z"/>
				<path fill="#C8C8C8" d="M379.969,77.914V67.177h2.109l4.395,7.171v-7.171h2.014v10.737h-2.175l-4.329-7.002v7.002H379.969z"/>
				<path fill="#C8C8C8" d="M397.648,73.967l2.103,0.666c-0.322,1.172-0.858,2.042-1.607,2.611c-0.75,0.568-1.701,0.854-2.853,0.854
					c-1.427,0-2.599-0.487-3.516-1.462c-0.919-0.974-1.377-2.306-1.377-3.995c0-1.787,0.461-3.175,1.384-4.164
					c0.923-0.988,2.136-1.482,3.64-1.482c1.313,0,2.381,0.388,3.201,1.164c0.488,0.459,0.854,1.118,1.099,1.978l-2.146,0.513
					c-0.128-0.557-0.393-0.996-0.795-1.318c-0.403-0.322-0.893-0.483-1.469-0.483c-0.796,0-1.441,0.286-1.938,0.856
					c-0.495,0.572-0.743,1.497-0.743,2.776c0,1.357,0.244,2.324,0.732,2.9s1.123,0.864,1.904,0.864c0.576,0,1.071-0.184,1.487-0.549
					C397.17,75.328,397.468,74.753,397.648,73.967z"/>
				<path fill="#C8C8C8" d="M401.619,77.914V67.177h2.168v4.226h4.248v-4.226h2.168v10.737h-2.168v-4.695h-4.248v4.695H401.619z"/>
			</g>
		</g>
	</g>
	<g id="cdpPicture0Style3">
		<rect x="504.534" y="32.931" fill="none" width="169.627" height="58.893"/>
		<g>
			
				<linearGradient id="SVGID_4_" gradientUnits="userSpaceOnUse" x1="487.5742" y1="2258.1973" x2="657.2041" y2="2258.1973" gradientTransform="matrix(1 0 0 1 16.96 -2195.8203)">
				<stop  offset="0" style="stop-color:#1D2021"/>
				<stop  offset="0.3602" style="stop-color:#1D2021"/>
				<stop  offset="0.6684" style="stop-color:#565B5D"/>
				<stop  offset="1" style="stop-color:#565B5D"/>
			</linearGradient>
			<path fill="url(#SVGID_4_)" d="M674.161,82.803c0,4.979-4.057,9.021-9.062,9.021H513.595c-5.004,0-9.061-4.042-9.061-9.021
				V41.952c0-4.979,4.057-9.021,9.061-9.021h151.508c5.005,0,9.062,4.043,9.062,9.021L674.161,82.803L674.161,82.803z"/>
			<path fill="#0A0A0A" d="M671.521,80.625c0,4.735-3.988,8.572-8.91,8.572H516.087c-4.922,0-8.912-3.837-8.912-8.572V44.131
				c0-4.733,3.99-8.572,8.912-8.572H662.61c4.922,0,8.91,3.838,8.91,8.572V80.625L671.521,80.625z"/>
			<path fill="none" stroke="#9D9D9D" stroke-width="3" stroke-miterlimit="10" d="M666.491,76.69c0,4.207-3.887,7.614-8.678,7.614
				H520.883c-4.795,0-8.682-3.407-8.682-7.614V48.034c0-4.207,3.887-7.617,8.682-7.617h136.934c4.791,0,8.678,3.411,8.678,7.617
				L666.491,76.69L666.491,76.69z"/>
			<g>
				<path fill="#C8C8C8" d="M579.6,49.177h3.963c0.893,0,1.574,0.068,2.043,0.205c0.63,0.186,1.169,0.515,1.619,0.989
					c0.448,0.474,0.791,1.054,1.025,1.74s0.352,1.532,0.352,2.538c0,0.884-0.11,1.646-0.33,2.286
					c-0.269,0.781-0.652,1.413-1.15,1.896c-0.376,0.366-0.884,0.652-1.523,0.857c-0.479,0.151-1.118,0.227-1.918,0.227h-4.08V49.177
					z M581.768,50.993v7.112h1.619c0.604,0,1.042-0.034,1.311-0.104c0.352-0.088,0.644-0.236,0.875-0.446
					c0.232-0.21,0.422-0.556,0.568-1.036c0.146-0.481,0.219-1.137,0.219-1.967s-0.072-1.467-0.219-1.912s-0.352-0.791-0.615-1.04
					s-0.599-0.417-1.004-0.505c-0.303-0.068-0.896-0.103-1.779-0.103H581.768z"/>
				<path fill="#C8C8C8" d="M590.446,59.914V49.177h2.168v4.226h4.248v-4.226h2.168v10.737h-2.168v-4.695h-4.248v4.695H590.446z"/>
				<path fill="#C8C8C8" d="M560.729,77.914V67.177h4.563c1.146,0,1.98,0.097,2.501,0.289c0.52,0.193,0.936,0.536,1.249,1.029
					c0.312,0.493,0.469,1.058,0.469,1.692c0,0.805-0.237,1.471-0.711,1.995c-0.474,0.525-1.182,0.856-2.124,0.993
					c0.469,0.273,0.855,0.573,1.161,0.9c0.305,0.327,0.716,0.908,1.234,1.743l1.311,2.095h-2.593l-1.567-2.336
					c-0.557-0.836-0.938-1.361-1.143-1.579c-0.205-0.217-0.423-0.366-0.652-0.446c-0.229-0.081-0.593-0.121-1.091-0.121h-0.439
					v4.482H560.729z M562.896,71.718h1.604c1.039,0,1.688-0.044,1.947-0.132s0.462-0.239,0.608-0.454s0.22-0.483,0.22-0.806
					c0-0.361-0.097-0.653-0.289-0.875c-0.193-0.223-0.465-0.363-0.816-0.422c-0.176-0.023-0.703-0.036-1.582-0.036h-1.692V71.718z"
					/>
				<path fill="#C8C8C8" d="M571.115,72.611c0-1.094,0.163-2.012,0.49-2.754c0.244-0.547,0.577-1.037,1-1.473
					c0.422-0.434,0.885-0.756,1.388-0.967c0.669-0.282,1.44-0.424,2.314-0.424c1.582,0,2.848,0.49,3.798,1.472
					c0.949,0.981,1.424,2.347,1.424,4.095c0,1.733-0.471,3.089-1.413,4.068c-0.942,0.979-2.202,1.469-3.779,1.469
					c-1.597,0-2.866-0.487-3.809-1.462C571.586,75.662,571.115,74.32,571.115,72.611z M573.349,72.538
					c0,1.216,0.28,2.138,0.843,2.765c0.561,0.628,1.273,0.941,2.139,0.941c0.863,0,1.573-0.312,2.127-0.934
					c0.555-0.623,0.832-1.557,0.832-2.802c0-1.23-0.271-2.148-0.81-2.754c-0.54-0.605-1.257-0.908-2.149-0.908
					c-0.895,0-1.614,0.307-2.161,0.919C573.622,70.379,573.349,71.303,573.349,72.538z"/>
				<path fill="#C8C8C8" d="M585.638,77.914v-8.921h-3.186v-1.816h8.533v1.816h-3.18v8.921H585.638z"/>
				<path fill="#C8C8C8" d="M600.953,77.914h-2.357l-0.938-2.439h-4.293l-0.886,2.439h-2.3l4.182-10.737h2.293L600.953,77.914z
					 M596.962,73.666l-1.479-3.984l-1.45,3.984H596.962z"/>
				<path fill="#C8C8C8" d="M603.406,77.914v-8.921h-3.186v-1.816h8.533v1.816h-3.18v8.921H603.406z"/>
				<path fill="#C8C8C8" d="M610.152,77.914V67.177h7.961v1.816h-5.793v2.38h5.391v1.81h-5.391v2.923h5.998v1.809H610.152z"/>
			</g>
		</g>
	</g>
	<g id="cdpPicture0Style4">
		<rect x="701.536" y="32.484" fill="none" width="169.627" height="58.893"/>
		<g>
			
				<linearGradient id="SVGID_5_" gradientUnits="userSpaceOnUse" x1="684.5762" y1="2257.75" x2="854.2061" y2="2257.75" gradientTransform="matrix(1 0 0 1 16.96 -2195.8203)">
				<stop  offset="0" style="stop-color:#1D2021"/>
				<stop  offset="0.3602" style="stop-color:#1D2021"/>
				<stop  offset="0.6684" style="stop-color:#565B5D"/>
				<stop  offset="1" style="stop-color:#565B5D"/>
			</linearGradient>
			<path fill="url(#SVGID_5_)" d="M871.163,82.355c0,4.979-4.057,9.021-9.061,9.021H710.597c-5.004,0-9.061-4.042-9.061-9.021
				V41.505c0-4.979,4.057-9.021,9.061-9.021h151.508c5.005,0,9.062,4.042,9.062,9.021L871.163,82.355L871.163,82.355z"/>
			<path fill="#0A0A0A" d="M868.522,80.178c0,4.735-3.988,8.572-8.91,8.572H713.089c-4.922,0-8.912-3.837-8.912-8.572V43.684
				c0-4.734,3.99-8.573,8.912-8.573h146.523c4.922,0,8.91,3.838,8.91,8.573V80.178L868.522,80.178z"/>
			<path fill="none" stroke="#9D9D9D" stroke-width="3" stroke-miterlimit="10" d="M863.493,76.243c0,4.207-3.887,7.614-8.678,7.614
				H717.885c-4.795,0-8.682-3.407-8.682-7.614V47.587c0-4.207,3.887-7.617,8.682-7.617h136.934c4.791,0,8.678,3.411,8.678,7.617
				L863.493,76.243L863.493,76.243z"/>
			<g>
				<path fill="#FFFFFF" d="M753.354,68.98V56.848h1.711l3.889,6.139c0.9,1.426,1.603,2.701,2.179,3.943l0.036-0.019
					c-0.144-1.621-0.18-3.099-0.18-4.986v-5.077h1.477v12.135h-1.585l-3.854-6.157c-0.849-1.351-1.656-2.736-2.271-4.052
					l-0.054,0.019c0.09,1.531,0.126,2.99,0.126,5.006v5.187h-1.476V68.98H753.354z"/>
				<path fill="#FFFFFF" d="M775.568,62.788c0,4.178-2.538,6.394-5.639,6.394c-3.204,0-5.454-2.486-5.454-6.158
					c0-3.854,2.396-6.375,5.638-6.375C773.426,56.646,775.568,59.188,775.568,62.788z M766.151,62.984
					c0,2.595,1.402,4.916,3.871,4.916c2.482,0,3.89-2.286,3.89-5.041c0-2.411-1.261-4.936-3.871-4.936
					C767.448,57.927,766.151,60.32,766.151,62.984z"/>
				<path fill="#FFFFFF" d="M777.6,57.009c0.793-0.161,1.93-0.252,3.01-0.252c1.675,0,2.755,0.306,3.512,0.99
					c0.611,0.539,0.954,1.367,0.954,2.305c0,1.604-1.009,2.664-2.287,3.097v0.057c0.937,0.322,1.495,1.188,1.783,2.447
					c0.396,1.69,0.684,2.863,0.936,3.33h-1.62c-0.196-0.342-0.468-1.388-0.811-2.896c-0.359-1.674-1.008-2.306-2.433-2.357h-1.478
					v5.258h-1.565L777.6,57.009L777.6,57.009z M779.166,62.536h1.604c1.675,0,2.734-0.918,2.734-2.306
					c0-1.565-1.135-2.25-2.791-2.271c-0.756,0-1.297,0.072-1.549,0.146L779.166,62.536L779.166,62.536z"/>
				<path fill="#FFFFFF" d="M797.511,63.652c-0.09-1.692-0.197-3.729-0.181-5.239h-0.054c-0.414,1.422-0.918,2.937-1.53,4.608
					l-2.145,5.888h-1.188l-1.963-5.779c-0.576-1.711-1.063-3.276-1.404-4.717h-0.036c-0.036,1.512-0.126,3.547-0.23,5.364
					l-0.324,5.203h-1.495l0.847-12.136h1.998l2.071,5.868c0.504,1.494,0.918,2.826,1.225,4.088h0.057
					c0.306-1.225,0.735-2.557,1.275-4.088l2.16-5.868h1.999l0.756,12.136h-1.528L797.511,63.652z"/>
				<path fill="#FFFFFF" d="M803.538,65.165l-1.261,3.815h-1.62l4.123-12.137h1.891l4.145,12.137h-1.678l-1.297-3.815H803.538z
					 M807.518,63.939l-1.188-3.491c-0.271-0.793-0.45-1.515-0.631-2.216h-0.035c-0.181,0.72-0.379,1.457-0.612,2.193l-1.188,3.514
					H807.518z"/>
				<path fill="#FFFFFF" d="M812.591,56.848h1.566v10.819h5.186v1.313h-6.752V56.848L812.591,56.848z"/>
			</g>
		</g>
	</g>
</g>
<g id="Help">
	<text transform="matrix(1 0 0 1 155.3164 -13.8311)" font-family="'MyriadPro-Regular'" font-size="12">Style 1</text>
	<text transform="matrix(1 0 0 1 280.5078 -13.8311)" font-family="'MyriadPro-Regular'" font-size="12">Style 2</text>
	<text transform="matrix(1 0 0 1 491.9893 -21.8311)" font-family="'MyriadPro-Regular'" font-size="12">Style 3</text>
	<text transform="matrix(1 0 0 1 7.5005 -13.8311)" font-family="'MyriadPro-Regular'" font-size="12">Style 0</text>
	<text transform="matrix(1 0 0 1 -66.1665 36.5)" font-family="'MyriadPro-Regular'" font-size="12">Picture 0</text>
</g>
</svg>
