<?xml version="1.0" encoding="utf-8"?>
<!-- Generator: Adobe Illustrator 16.0.0, SVG Export Plug-In . SVG Version: 6.00 Build 0)  -->
<!DOCTYPE svg PUBLIC "-//W3C//DTD SVG 1.1//EN" "http://www.w3.org/Graphics/SVG/1.1/DTD/svg11.dtd">
<svg version="1.1" id="svg" xmlns="http://www.w3.org/2000/svg" xmlns:xlink="http://www.w3.org/1999/xlink" x="0px" y="0px"
	 width="69.307px" height="74.064px" viewBox="0 0 69.307 74.064" enable-background="new 0 0 69.307 74.064" xml:space="preserve">
<g id="Layer1">
	
		<linearGradient id="bgMenu2_1_" gradientUnits="userSpaceOnUse" x1="-668.9509" y1="-4145.9756" x2="-408.9509" y2="-4145.9756" gradientTransform="matrix(1 0 0 -1 641.7012 -3819.9788)">
		<stop  offset="0.0073" style="stop-color:#242729"/>
		<stop  offset="0.045" style="stop-color:#282B2C"/>
		<stop  offset="0.3184" style="stop-color:#404142"/>
		<stop  offset="0.4866" style="stop-color:#494A4A"/>
		<stop  offset="0.6668" style="stop-color:#404142"/>
		<stop  offset="0.9597" style="stop-color:#282B2C"/>
		<stop  offset="1" style="stop-color:#242729"/>
	</linearGradient>
	<rect id="bgMenu2" x="-27.25" y="-3.007" fill="url(#bgMenu2_1_)" width="260" height="658.008"/>
	<g id="cdpBackground">
		<rect x="-0.25" y="2.833" fill="none" width="69" height="69"/>
		<g>
			<g>
				<path fill="#1E1E1E" d="M66.736,37.333c0,17.943-14.545,32.488-32.479,32.488c-17.942,0-32.487-14.545-32.487-32.488
					c0-17.938,14.545-32.479,32.487-32.479C52.191,4.846,66.736,19.391,66.736,37.333"/>
				<path opacity="0.4" enable-background="new    " d="M66.736,37.333c0,17.943-14.545,32.488-32.479,32.488
					c-17.942,0-32.487-14.545-32.487-32.488c0-17.938,14.545-32.479,32.487-32.479C52.191,4.846,66.736,19.391,66.736,37.333"/>
			</g>
			
				<linearGradient id="SVGID_1_" gradientUnits="userSpaceOnUse" x1="-624.7073" y1="-3840.0554" x2="-590.2343" y2="-3874.5286" gradientTransform="matrix(1 0 0 -1 641.7012 -3819.9788)">
				<stop  offset="0" style="stop-color:#212223"/>
				<stop  offset="0.5529" style="stop-color:#2A2B2B"/>
				<stop  offset="0.9895" style="stop-color:#666868"/>
			</linearGradient>
			<path fill="url(#SVGID_1_)" d="M68.75,37.333c0-19.021-15.479-34.5-34.5-34.5c-19.023,0-34.5,15.479-34.5,34.5
				c0,19.023,15.477,34.5,34.5,34.5C53.273,71.833,68.75,56.356,68.75,37.333z M1.764,37.333C1.764,19.395,16.307,4.85,34.25,4.85
				c17.938,0,32.479,14.546,32.479,32.479c0,17.943-14.543,32.488-32.479,32.488C16.307,69.821,1.764,55.276,1.764,37.333z"/>
			
				<linearGradient id="SVGID_2_" gradientUnits="userSpaceOnUse" x1="-648.4958" y1="3158.1521" x2="-702.8474" y2="3158.1521" gradientTransform="matrix(1 0 0 1 709.9219 -3120.8193)">
				<stop  offset="0" style="stop-color:#707070"/>
				<stop  offset="1" style="stop-color:#B2B2B2"/>
			</linearGradient>
			<circle fill="url(#SVGID_2_)" cx="34.25" cy="37.333" r="27.176"/>
			
				<linearGradient id="SVGID_3_" gradientUnits="userSpaceOnUse" x1="-633.7673" y1="-3845.2375" x2="-604.5291" y2="-3845.2375" gradientTransform="matrix(1 0 0 -1 641.7012 -3819.9788)">
				<stop  offset="0" style="stop-color:#A6A6A6"/>
				<stop  offset="0.5" style="stop-color:#CCCCCC"/>
				<stop  offset="1" style="stop-color:#999999"/>
			</linearGradient>
			<path fill="url(#SVGID_3_)" d="M34.25,10.157c-15.009,0-27.175,12.167-27.175,27.176c0,4.117,0.729,3.953,0.729,0
				c0-13.543,12.608-26.169,26.438-26.169C38.965,11.164,39.188,10.157,34.25,10.157z"/>
		</g>
	</g>
	<g id="cdpButton">
		<rect x="0.873" y="3.182" fill="none" width="69" height="69"/>
		<g>
			<path fill="#1D1D1B" d="M32.903,43.212l-0.075-0.987c-0.229-2.015,0.457-4.293,2.355-6.573c1.709-2.014,2.66-3.496,2.66-5.205
				c0-1.938-1.217-3.229-3.61-3.268c-1.366,0-2.889,0.454-3.838,1.178l-0.912-2.396c1.293-0.911,3.42-1.521,5.436-1.521
				c4.369,0,6.345,2.698,6.345,5.586c0,2.583-1.443,4.445-3.268,6.61c-1.672,1.977-2.279,3.686-2.166,5.624l0.075,0.948h-3.002
				V43.212z M32.106,48.569c0-1.406,0.949-2.396,2.24-2.396c1.368,0,2.243,0.988,2.243,2.396c0,1.33-0.875,2.354-2.28,2.354
				C33.016,50.925,32.106,49.899,32.106,48.569z"/>
		</g>
	</g>
	<g id="cdpBackgroundPressed">
		<rect x="71.75" y="2.833" fill="none" width="69" height="69"/>
		<g>
			<g>
				<path fill="#1E1E1E" d="M138.736,37.333c0,17.943-14.545,32.488-32.479,32.488c-17.941,0-32.486-14.545-32.486-32.488
					c0-17.938,14.545-32.479,32.486-32.479C124.191,4.846,138.736,19.391,138.736,37.333"/>
				<path opacity="0.4" enable-background="new    " d="M138.736,37.333c0,17.943-14.545,32.488-32.479,32.488
					c-17.941,0-32.486-14.545-32.486-32.488c0-17.938,14.545-32.479,32.486-32.479C124.191,4.846,138.736,19.391,138.736,37.333"/>
			</g>
			
				<linearGradient id="SVGID_4_" gradientUnits="userSpaceOnUse" x1="-552.7161" y1="-3840.0481" x2="-518.2379" y2="-3874.5259" gradientTransform="matrix(1 0 0 -1 641.7012 -3819.9788)">
				<stop  offset="0" style="stop-color:#212223"/>
				<stop  offset="0.5529" style="stop-color:#2A2B2B"/>
				<stop  offset="0.9895" style="stop-color:#666868"/>
			</linearGradient>
			<path fill="url(#SVGID_4_)" d="M140.75,37.333c0-19.021-15.479-34.5-34.5-34.5c-19.023,0-34.5,15.479-34.5,34.5
				c0,19.023,15.477,34.5,34.5,34.5C125.273,71.833,140.75,56.356,140.75,37.333z M73.764,37.333
				c0-17.938,14.543-32.479,32.486-32.479c17.938,0,32.479,14.546,32.479,32.479c0,17.943-14.543,32.488-32.479,32.488
				C88.307,69.821,73.764,55.276,73.764,37.333z"/>
			
				<linearGradient id="SVGID_5_" gradientUnits="userSpaceOnUse" x1="-562.6267" y1="-3857.3123" x2="-508.2751" y2="-3857.3123" gradientTransform="matrix(1 0 0 -1 641.7012 -3819.9788)">
				<stop  offset="0" style="stop-color:#707070"/>
				<stop  offset="1" style="stop-color:#B2B2B2"/>
			</linearGradient>
			<circle fill="url(#SVGID_5_)" cx="106.25" cy="37.333" r="27.176"/>
		</g>
	</g>
</g>
<g id="Styles">
	<g id="cdpButtonStyle5">
		<rect x="0.182" y="409.032" fill="none" width="68.999" height="69"/>
		<g>
			<path d="M27.694,446.938h-1.571l-0.625-1.626h-2.86l-0.591,1.626h-1.533l2.788-7.158h1.527L27.694,446.938z M25.032,444.106
				l-0.985-2.656l-0.968,2.656H25.032z"/>
			<path d="M28.167,443.403c0-0.729,0.108-1.341,0.327-1.836c0.163-0.363,0.386-0.689,0.666-0.979
				c0.281-0.29,0.592-0.506,0.927-0.646c0.445-0.188,0.96-0.282,1.543-0.282c1.055,0,1.896,0.326,2.53,0.98
				c0.635,0.654,0.949,1.563,0.949,2.729c0,1.154-0.313,2.061-0.94,2.712c-0.629,0.652-1.469,0.979-2.521,0.979
				c-1.063,0-1.911-0.325-2.539-0.974C28.482,445.436,28.167,444.545,28.167,443.403z M29.656,443.354
				c0,0.813,0.188,1.425,0.563,1.844c0.374,0.418,0.85,0.627,1.426,0.627s1.049-0.207,1.419-0.622
				c0.369-0.414,0.555-1.036,0.555-1.866c0-0.82-0.181-1.435-0.54-1.836c-0.358-0.403-0.837-0.605-1.434-0.605
				c-0.596,0-1.076,0.204-1.439,0.613C29.839,441.916,29.656,442.531,29.656,443.354z"/>
			<path d="M36.239,446.938v-7.158h2.319c0.879,0,1.452,0.036,1.719,0.107c0.41,0.106,0.755,0.341,1.03,0.701
				c0.275,0.357,0.415,0.823,0.415,1.394c0,0.439-0.08,0.81-0.239,1.108c-0.158,0.298-0.361,0.535-0.607,0.705
				c-0.244,0.172-0.494,0.283-0.749,0.34c-0.346,0.067-0.846,0.103-1.498,0.103h-0.942v2.7H36.239z M37.684,440.991v2.031h0.791
				c0.569,0,0.95-0.037,1.144-0.111c0.192-0.074,0.344-0.191,0.451-0.353c0.108-0.159,0.163-0.345,0.163-0.557
				c0-0.263-0.075-0.478-0.229-0.646s-0.349-0.274-0.581-0.316c-0.174-0.031-0.521-0.05-1.04-0.05L37.684,440.991L37.684,440.991z"
				/>
			<path d="M42.542,444.609l1.406-0.137c0.085,0.472,0.256,0.817,0.517,1.04c0.258,0.222,0.605,0.332,1.047,0.332
				c0.466,0,0.815-0.1,1.053-0.295c0.235-0.197,0.354-0.429,0.354-0.691c0-0.169-0.051-0.313-0.148-0.432
				c-0.1-0.119-0.272-0.224-0.521-0.313c-0.169-0.059-0.556-0.163-1.156-0.313c-0.774-0.192-1.318-0.429-1.631-0.708
				c-0.439-0.396-0.659-0.874-0.659-1.44c0-0.363,0.104-0.705,0.31-1.021c0.207-0.316,0.506-0.561,0.896-0.727
				c0.389-0.166,0.857-0.249,1.407-0.249c0.897,0,1.574,0.197,2.028,0.592c0.453,0.395,0.692,0.921,0.716,1.576l-1.444,0.063
				c-0.063-0.368-0.194-0.633-0.398-0.793c-0.202-0.162-0.508-0.242-0.915-0.242c-0.42,0-0.749,0.086-0.985,0.259
				c-0.152,0.11-0.229,0.26-0.229,0.444c0,0.169,0.071,0.313,0.215,0.435c0.184,0.153,0.625,0.313,1.328,0.479
				s1.224,0.338,1.562,0.515c0.337,0.179,0.601,0.42,0.791,0.729c0.188,0.307,0.285,0.688,0.285,1.14
				c0,0.41-0.113,0.794-0.343,1.152c-0.228,0.356-0.55,0.624-0.967,0.798c-0.417,0.175-0.937,0.262-1.559,0.262
				c-0.904,0-1.601-0.209-2.085-0.627C42.926,446.019,42.637,445.411,42.542,444.609z"/>
		</g>
	</g>
	<g id="cdpButtonStyle4">
		<rect x="-3.129" y="330.532" fill="none" width="68.999" height="69"/>
		<g>
			<path d="M27.721,368.438h-1.572l-0.625-1.626h-2.86l-0.592,1.626h-1.532l2.788-7.158h1.527L27.721,368.438z M25.06,365.606
				l-0.985-2.656l-0.968,2.656H25.06z"/>
			<path d="M28.493,368.438v-7.158h1.444v2.817h2.832v-2.817h1.445v7.158H32.77v-3.13h-2.832v3.13H28.493z"/>
			<path d="M40.29,365.806l1.399,0.444c-0.215,0.78-0.571,1.36-1.07,1.739c-0.499,0.38-1.135,0.569-1.901,0.569
				c-0.951,0-1.732-0.325-2.344-0.974c-0.612-0.65-0.918-1.538-0.918-2.664c0-1.191,0.307-2.117,0.922-2.775
				c0.615-0.66,1.425-0.989,2.428-0.989c0.875,0,1.586,0.259,2.133,0.776c0.326,0.306,0.57,0.745,0.732,1.317l-1.43,0.343
				c-0.085-0.371-0.263-0.664-0.53-0.879c-0.269-0.216-0.595-0.322-0.979-0.322c-0.529,0-0.961,0.189-1.291,0.571
				c-0.33,0.381-0.496,0.998-0.496,1.851c0,0.905,0.163,1.55,0.488,1.934c0.326,0.385,0.749,0.576,1.271,0.576
				c0.385,0,0.715-0.122,0.991-0.366C39.971,366.716,40.169,366.331,40.29,365.806z"/>
		</g>
	</g>
	<g id="cdpButtonStyle3">
		<rect x="-0.25" y="236.529" fill="none" width="68.999" height="69"/>
		<g>
			<path d="M9.609,272.107l1.406-0.137c0.085,0.472,0.256,0.816,0.516,1.04c0.26,0.222,0.607,0.33,1.049,0.33
				c0.466,0,0.814-0.099,1.053-0.295c0.235-0.195,0.354-0.428,0.354-0.689c0-0.169-0.05-0.313-0.146-0.434
				c-0.102-0.117-0.273-0.223-0.521-0.311c-0.169-0.059-0.555-0.163-1.155-0.313c-0.774-0.19-1.318-0.428-1.633-0.708
				c-0.438-0.394-0.657-0.874-0.657-1.438c0-0.364,0.104-0.705,0.31-1.023c0.207-0.314,0.505-0.559,0.896-0.725
				c0.389-0.166,0.856-0.249,1.406-0.249c0.898,0,1.574,0.197,2.029,0.591c0.453,0.396,0.692,0.92,0.715,1.577l-1.443,0.063
				c-0.063-0.366-0.194-0.633-0.398-0.793c-0.203-0.16-0.508-0.24-0.915-0.24c-0.42,0-0.749,0.086-0.986,0.259
				c-0.151,0.109-0.229,0.259-0.229,0.444c0,0.169,0.071,0.313,0.215,0.435c0.183,0.153,0.625,0.313,1.328,0.479
				s1.223,0.34,1.561,0.517c0.336,0.178,0.602,0.42,0.791,0.729s0.285,0.688,0.285,1.142c0,0.41-0.113,0.794-0.342,1.15
				c-0.229,0.358-0.55,0.624-0.967,0.8c-0.417,0.175-0.938,0.262-1.56,0.262c-0.903,0-1.6-0.209-2.085-0.627
				C9.992,273.517,9.703,272.908,9.609,272.107z"/>
			<path d="M18.525,274.436v-3.015l-2.622-4.146h1.694l1.687,2.832l1.648-2.832h1.665l-2.632,4.155v3.003L18.525,274.436
				L18.525,274.436z"/>
			<path d="M23.329,274.436v-7.158h1.404l2.932,4.78v-4.78h1.343v7.158h-1.45l-2.886-4.668v4.668H23.329z"/>
			<path d="M35.116,271.804l1.399,0.442c-0.215,0.781-0.572,1.361-1.072,1.74c-0.499,0.38-1.133,0.569-1.899,0.569
				c-0.95,0-1.731-0.325-2.344-0.976c-0.613-0.649-0.918-1.538-0.918-2.664c0-1.189,0.308-2.117,0.923-2.773
				c0.613-0.66,1.424-0.989,2.427-0.989c0.876,0,1.587,0.259,2.134,0.776c0.325,0.306,0.569,0.743,0.732,1.316l-1.433,0.342
				c-0.085-0.37-0.261-0.664-0.528-0.879c-0.269-0.215-0.597-0.32-0.979-0.32c-0.53,0-0.961,0.188-1.291,0.569
				c-0.331,0.381-0.496,0.998-0.496,1.853c0,0.903,0.163,1.55,0.488,1.934s0.749,0.576,1.27,0.576c0.386,0,0.717-0.122,0.991-0.366
				C34.796,272.712,34.996,272.329,35.116,271.804z"/>
			<path d="M37.763,274.436v-7.158h1.445v2.817h2.832v-2.817h1.443v7.158H42.04v-3.13h-2.832v3.13H37.763z"/>
			<path d="M44.985,274.436v-7.158h3.042c0.767,0,1.321,0.063,1.667,0.193c0.35,0.128,0.625,0.354,0.833,0.686
				s0.313,0.705,0.313,1.128c0,0.537-0.158,0.98-0.474,1.331c-0.315,0.35-0.788,0.57-1.416,0.661
				c0.313,0.183,0.568,0.383,0.771,0.601c0.204,0.22,0.479,0.605,0.823,1.162l0.874,1.396H49.69l-1.045-1.56
				c-0.371-0.557-0.625-0.905-0.762-1.052c-0.137-0.146-0.281-0.244-0.435-0.299c-0.153-0.053-0.396-0.08-0.729-0.08H46.43v2.988
				L44.985,274.436L44.985,274.436z M46.43,270.305h1.069c0.691,0,1.126-0.029,1.299-0.09c0.173-0.059,0.308-0.157,0.405-0.303
				c0.097-0.144,0.146-0.322,0.146-0.537c0-0.239-0.063-0.436-0.193-0.584c-0.128-0.146-0.31-0.241-0.544-0.278
				c-0.115-0.019-0.469-0.024-1.055-0.024H46.43V270.305z"/>
			<path d="M51.908,270.901c0-0.729,0.107-1.341,0.325-1.836c0.163-0.364,0.387-0.691,0.666-0.981
				c0.282-0.29,0.593-0.505,0.928-0.645c0.444-0.188,0.96-0.283,1.543-0.283c1.055,0,1.896,0.327,2.529,0.981
				c0.636,0.652,0.95,1.563,0.95,2.729c0,1.155-0.313,2.062-0.94,2.712c-0.63,0.653-1.47,0.979-2.521,0.979
				c-1.063,0-1.911-0.325-2.539-0.976C52.223,272.934,51.908,272.041,51.908,270.901z M53.398,270.852
				c0,0.811,0.188,1.425,0.563,1.844c0.374,0.418,0.85,0.627,1.426,0.627s1.049-0.207,1.419-0.623
				c0.369-0.414,0.554-1.037,0.554-1.867c0-0.818-0.18-1.433-0.54-1.836c-0.357-0.401-0.837-0.604-1.433-0.604
				s-1.076,0.204-1.44,0.611C53.58,269.413,53.398,270.029,53.398,270.852z"/>
		</g>
	</g>
	<g id="cdpButtonStyle2">
		<rect x="-0.246" y="151.196" fill="none" width="68.999" height="69"/>
		<g>
			<path d="M17.664,186.773l1.404-0.137c0.085,0.472,0.258,0.816,0.518,1.038c0.258,0.224,0.605,0.332,1.047,0.332
				c0.466,0,0.816-0.099,1.053-0.295c0.235-0.195,0.354-0.428,0.354-0.689c0-0.169-0.05-0.313-0.148-0.434
				c-0.1-0.117-0.271-0.223-0.521-0.311c-0.169-0.059-0.557-0.163-1.157-0.313c-0.774-0.19-1.318-0.428-1.631-0.708
				c-0.439-0.394-0.659-0.874-0.659-1.438c0-0.364,0.104-0.705,0.31-1.023c0.207-0.314,0.505-0.559,0.896-0.725
				c0.389-0.166,0.856-0.249,1.408-0.249c0.896,0,1.572,0.197,2.027,0.591c0.453,0.396,0.692,0.92,0.715,1.577l-1.443,0.063
				c-0.063-0.368-0.194-0.635-0.398-0.795c-0.203-0.16-0.508-0.24-0.915-0.24c-0.42,0-0.749,0.086-0.984,0.259
				c-0.153,0.11-0.229,0.259-0.229,0.444c0,0.169,0.071,0.313,0.215,0.435c0.185,0.153,0.625,0.313,1.328,0.479
				c0.703,0.165,1.225,0.339,1.563,0.516c0.336,0.178,0.6,0.42,0.791,0.729c0.188,0.309,0.284,0.688,0.284,1.142
				c0,0.41-0.113,0.794-0.343,1.15c-0.228,0.358-0.55,0.624-0.967,0.8c-0.417,0.175-0.936,0.262-1.558,0.262
				c-0.905,0-1.602-0.209-2.085-0.627C18.048,188.183,17.759,187.574,17.664,186.773z"/>
			<path d="M24.7,189.102v-7.158h2.317c0.879,0,1.452,0.036,1.719,0.105c0.41,0.107,0.756,0.343,1.03,0.701
				c0.276,0.359,0.415,0.824,0.415,1.396c0,0.438-0.08,0.809-0.239,1.106c-0.157,0.301-0.36,0.535-0.606,0.705
				c-0.245,0.172-0.495,0.284-0.749,0.34c-0.345,0.068-0.845,0.104-1.499,0.104h-0.942v2.7H24.7z M26.145,183.155v2.031h0.791
				c0.569,0,0.95-0.037,1.145-0.112c0.191-0.075,0.343-0.192,0.451-0.352c0.107-0.16,0.162-0.347,0.162-0.559
				c0-0.261-0.074-0.476-0.229-0.645s-0.347-0.275-0.581-0.317c-0.173-0.032-0.521-0.049-1.04-0.049L26.145,183.155L26.145,183.155z
				"/>
			<path d="M31.37,189.102v-7.158h5.307v1.211h-3.862v1.587h3.596v1.206h-3.596v1.948h3.999v1.206H31.37z"/>
			<path d="M38.04,189.102v-7.158h5.307v1.211h-3.861v1.587h3.596v1.206h-3.596v1.948h3.998v1.206H38.04z"/>
			<path d="M44.704,181.944h2.643c0.596,0,1.049,0.046,1.361,0.137c0.42,0.124,0.777,0.344,1.08,0.659
				c0.299,0.315,0.525,0.702,0.684,1.159c0.156,0.458,0.234,1.021,0.234,1.69c0,0.591-0.074,1.099-0.223,1.523
				c-0.178,0.521-0.434,0.942-0.766,1.265c-0.252,0.244-0.59,0.437-1.016,0.571c-0.32,0.101-0.746,0.151-1.279,0.151h-2.721
				L44.704,181.944L44.704,181.944z M46.15,183.155v4.741h1.08c0.402,0,0.695-0.022,0.873-0.068
				c0.234-0.059,0.432-0.158,0.584-0.298c0.154-0.14,0.281-0.37,0.379-0.691c0.1-0.318,0.146-0.757,0.146-1.311
				s-0.049-0.979-0.146-1.274c-0.097-0.295-0.232-0.525-0.408-0.691c-0.178-0.166-0.398-0.278-0.672-0.337
				c-0.199-0.046-0.598-0.068-1.186-0.068L46.15,183.155L46.15,183.155z"/>
		</g>
	</g>
	<g id="cdpButtonStyle1">
		<rect x="-0.25" y="78.02" fill="none" width="68.999" height="69"/>
		<g>
			<path d="M10.808,113.597l1.406-0.139c0.085,0.474,0.256,0.818,0.516,1.04c0.258,0.224,0.607,0.332,1.047,0.332
				c0.468,0,0.816-0.099,1.055-0.295c0.233-0.197,0.354-0.428,0.354-0.689c0-0.169-0.05-0.313-0.146-0.434
				c-0.102-0.119-0.273-0.223-0.521-0.311c-0.169-0.061-0.555-0.163-1.157-0.313c-0.772-0.19-1.316-0.428-1.631-0.708
				c-0.438-0.394-0.659-0.874-0.659-1.438c0-0.364,0.104-0.705,0.312-1.023c0.207-0.314,0.505-0.559,0.895-0.725
				c0.391-0.166,0.858-0.249,1.408-0.249c0.898,0,1.574,0.195,2.029,0.591c0.453,0.394,0.69,0.92,0.715,1.577l-1.445,0.063
				c-0.062-0.368-0.192-0.633-0.396-0.793c-0.203-0.162-0.508-0.242-0.915-0.242c-0.42,0-0.749,0.088-0.986,0.261
				c-0.152,0.108-0.229,0.259-0.229,0.442c0,0.169,0.069,0.314,0.215,0.437c0.183,0.151,0.625,0.313,1.328,0.479
				s1.223,0.338,1.561,0.517c0.336,0.178,0.602,0.42,0.791,0.729c0.189,0.308,0.285,0.688,0.285,1.141
				c0,0.409-0.114,0.795-0.342,1.151c-0.229,0.358-0.55,0.624-0.967,0.798c-0.418,0.176-0.938,0.264-1.56,0.264
				c-0.905,0-1.6-0.209-2.085-0.627C11.192,115.008,10.903,114.398,10.808,113.597z"/>
			<path d="M19.455,115.927v-5.947h-2.124v-1.211h5.688v1.211H20.9v5.947H19.455z"/>
			<path d="M23.479,112.391c0-0.729,0.109-1.343,0.327-1.836c0.163-0.364,0.385-0.691,0.666-0.981
				c0.282-0.29,0.591-0.505,0.926-0.645c0.446-0.188,0.96-0.283,1.543-0.283c1.057,0,1.898,0.327,2.531,0.979
				c0.634,0.654,0.95,1.564,0.95,2.729c0,1.155-0.314,2.06-0.942,2.712c-0.628,0.653-1.468,0.979-2.52,0.979
				c-1.064,0-1.911-0.323-2.539-0.974C23.793,114.425,23.479,113.531,23.479,112.391z M24.968,112.344
				c0,0.811,0.188,1.425,0.562,1.844c0.374,0.418,0.852,0.627,1.428,0.627s1.049-0.207,1.419-0.623
				c0.369-0.414,0.554-1.037,0.554-1.867c0-0.82-0.18-1.433-0.54-1.836c-0.358-0.403-0.837-0.605-1.433-0.605
				c-0.598,0-1.076,0.204-1.44,0.613C25.151,110.903,24.968,111.519,24.968,112.344z"/>
			<path d="M31.55,115.927v-7.158h2.319c0.879,0,1.45,0.036,1.719,0.105c0.41,0.107,0.754,0.341,1.03,0.701
				c0.274,0.359,0.415,0.824,0.415,1.396c0,0.438-0.08,0.809-0.239,1.106s-0.362,0.535-0.608,0.705
				c-0.245,0.172-0.495,0.284-0.749,0.34c-0.345,0.068-0.845,0.104-1.499,0.104h-0.94v2.7H31.55z M32.995,109.979v2.031h0.791
				c0.567,0,0.948-0.037,1.143-0.112s0.343-0.192,0.452-0.354c0.106-0.157,0.163-0.345,0.163-0.557c0-0.261-0.076-0.476-0.229-0.645
				c-0.151-0.171-0.347-0.275-0.581-0.317c-0.173-0.032-0.52-0.049-1.04-0.049L32.995,109.979L32.995,109.979z"/>
			<path d="M38.22,115.927v-7.158h2.319c0.879,0,1.452,0.036,1.719,0.105c0.41,0.107,0.754,0.341,1.03,0.701
				c0.274,0.359,0.415,0.824,0.415,1.396c0,0.438-0.08,0.809-0.239,1.106s-0.362,0.535-0.608,0.705
				c-0.245,0.172-0.495,0.284-0.749,0.34c-0.345,0.068-0.845,0.104-1.499,0.104h-0.94v2.7H38.22z M39.665,109.979v2.031h0.791
				c0.567,0,0.95-0.037,1.143-0.112c0.193-0.075,0.343-0.192,0.452-0.354c0.108-0.157,0.163-0.345,0.163-0.557
				c0-0.261-0.076-0.476-0.229-0.645c-0.151-0.171-0.347-0.275-0.581-0.317c-0.173-0.032-0.52-0.049-1.04-0.049L39.665,109.979
				L39.665,109.979z"/>
			<path d="M44.89,115.927v-7.158h5.31v1.211h-3.862v1.587h3.594v1.206h-3.594v1.948h3.999v1.206H44.89z"/>
			<path d="M51.555,108.768h2.642c0.598,0,1.052,0.046,1.362,0.137c0.42,0.124,0.779,0.344,1.079,0.659
				c0.3,0.313,0.527,0.702,0.684,1.159c0.156,0.458,0.234,1.021,0.234,1.69c0,0.589-0.073,1.099-0.22,1.523
				c-0.179,0.521-0.437,0.94-0.769,1.265c-0.251,0.244-0.589,0.437-1.016,0.571c-0.319,0.101-0.745,0.149-1.279,0.149h-2.72
				L51.555,108.768L51.555,108.768z M53,109.979v4.741h1.079c0.401,0,0.693-0.022,0.874-0.068c0.232-0.061,0.429-0.158,0.584-0.298
				c0.152-0.142,0.278-0.37,0.378-0.691c0.098-0.32,0.146-0.757,0.146-1.311c0-0.556-0.049-0.979-0.146-1.274
				c-0.099-0.295-0.234-0.527-0.41-0.691c-0.176-0.166-0.398-0.278-0.669-0.339c-0.202-0.046-0.6-0.066-1.188-0.066L53,109.979
				L53,109.979z"/>
		</g>
	</g>
</g>
</svg>
