<?xml version="1.0" encoding="utf-8"?>
<!-- Generator: Adobe Illustrator 16.0.0, SVG Export Plug-In . SVG Version: 6.00 Build 0)  -->
<!DOCTYPE svg PUBLIC "-//W3C//DTD SVG 1.1//EN" "http://www.w3.org/Graphics/SVG/1.1/DTD/svg11.dtd">
<svg version="1.1" id="svg" xmlns="http://www.w3.org/2000/svg" xmlns:xlink="http://www.w3.org/1999/xlink" x="0px" y="0px"
	 width="323px" height="130px" viewBox="0 0 323 130" enable-background="new 0 0 323 130" xml:space="preserve">
<g id="Layer1">
	<g id="cdpBackground">
		<g id="oldBack" display="none">
			<linearGradient id="SVGID_1_" gradientUnits="userSpaceOnUse" x1="3" y1="222.5" x2="318" y2="222.5">
				<stop  offset="0" style="stop-color:#EBEBEB"/>
				<stop  offset="0.619" style="stop-color:#ECECEC"/>
				<stop  offset="0.8417" style="stop-color:#F3F3F3"/>
				<stop  offset="1" style="stop-color:#FFFFFF"/>
			</linearGradient>
			<path display="inline" fill="url(#SVGID_1_)" d="M318,282c0,2.762-2.238,5-5,5H8c-2.761,0-5-2.238-5-5V163c0-2.762,2.239-5,5-5
				h305c2.762,0,5,2.238,5,5V282z"/>
			<path display="inline" fill="none" stroke="#BFBFBF" stroke-miterlimit="10" d="M317.5,282.5c0,2.762-2.238,5-5,5H7.5
				c-2.761,0-5-2.238-5-5v-119c0-2.762,2.239-5,5-5h305c2.762,0,5,2.238,5,5V282.5z"/>
		</g>
		<g id="back">
			<linearGradient id="SVGID_2_" gradientUnits="userSpaceOnUse" x1="161.5005" y1="185.9805" x2="161.5005" y2="159.5976">
				<stop  offset="0" style="stop-color:#434648"/>
				<stop  offset="0.5639" style="stop-color:#45484A"/>
				<stop  offset="0.767" style="stop-color:#4C4E4F"/>
				<stop  offset="0.9112" style="stop-color:#575959"/>
				<stop  offset="1" style="stop-color:#636363"/>
			</linearGradient>
			<rect x="1" y="159" fill="url(#SVGID_2_)" width="321" height="128"/>
			<path fill="#1F1F1F" d="M321,160v126H2V160H321 M323,158H0v130h323V158L323,158z"/>
		</g>
		<rect id="rect" y="158" fill="none" width="323" height="130"/>
	</g>
	<rect id="cdpBorderMarginBottomRight" x="317.5" y="124" fill="none" width="6" height="6"/>
	<rect id="cdpBorderMarginTopLeft" x="0.5" fill="none" width="6" height="6"/>
</g>
<g id="Styles">
	<g id="cdpBackgroundStyle1">
		<g display="none">
			<linearGradient id="SVGID_3_" gradientUnits="userSpaceOnUse" x1="0" y1="65" x2="324" y2="65">
				<stop  offset="0" style="stop-color:#EBEBEB"/>
				<stop  offset="0.619" style="stop-color:#ECECEC"/>
				<stop  offset="0.8417" style="stop-color:#F3F3F3"/>
				<stop  offset="1" style="stop-color:#FFFFFF"/>
			</linearGradient>
			<path display="inline" fill="url(#SVGID_3_)" d="M324,125c0,2.762-2.238,5-5,5H5c-2.761,0-5-2.238-5-5V5c0-2.761,2.239-5,5-5h314
				c2.762,0,5,2.239,5,5V125z"/>
			<path display="inline" fill="none" stroke="#BFBFBF" stroke-miterlimit="10" d="M323.5,125.5c0,2.762-2.238,5-5,5H4.5
				c-2.761,0-5-2.238-5-5V5.5c0-2.761,2.239-5,5-5h314c2.762,0,5,2.239,5,5V125.5z"/>
		</g>
		<g id="bakgrunn">
			<linearGradient id="SVGID_4_" gradientUnits="userSpaceOnUse" x1="161.0005" y1="28.1909" x2="161.0005" y2="1.6021">
				<stop  offset="0" style="stop-color:#DAE3E8"/>
				<stop  offset="0.8587" style="stop-color:#DAE3E8"/>
				<stop  offset="1" style="stop-color:#DAE3E8"/>
			</linearGradient>
			<rect y="1" fill="url(#SVGID_4_)" width="322" height="129"/>
			<path fill="#488FCD" d="M322,1v128H1V1H322 M323,0H0v130h323V0L323,0z"/>
		</g>
		<rect id="rect" fill="none" width="322.984" height="130"/>
	</g>
</g>
</svg>
