<?xml version="1.0" encoding="utf-8"?>
<!-- Generator: Adobe Illustrator 16.0.0, SVG Export Plug-In . SVG Version: 6.00 Build 0)  -->
<!DOCTYPE svg PUBLIC "-//W3C//DTD SVG 1.1//EN" "http://www.w3.org/Graphics/SVG/1.1/DTD/svg11.dtd">
<svg version="1.1" id="svg" xmlns="http://www.w3.org/2000/svg" xmlns:xlink="http://www.w3.org/1999/xlink" x="0px" y="0px"
	 width="192px" height="192px" viewBox="0 0 192 192" enable-background="new 0 0 192 192" xml:space="preserve">
<g>
	<linearGradient id="SVGID_1_" gradientUnits="userSpaceOnUse" x1="133.333" y1="202.333" x2="133.333" y2="-8.9995">
		<stop  offset="0.2117" style="stop-color:#242729"/>
		<stop  offset="0.7932" style="stop-color:#3A3D3E"/>
	</linearGradient>
	<path fill="url(#SVGID_1_)" d="M-7.667,193.333c0,4.971,4.029,9,9,9h264c4.971,0,9-4.029,9-9V0c0-4.971-4.029-9-9-9h-264
		c-4.971,0-9,4.029-9,9V193.333z"/>
	<path fill="none" stroke="#B3B3B3" stroke-width="2" stroke-miterlimit="10" d="M-7.667,193.333c0,4.971,4.029,9,9,9h264
		c4.971,0,9-4.029,9-9V0c0-4.971-4.029-9-9-9h-264c-4.971,0-9,4.029-9,9V193.333z"/>
</g>
<g id="Layer1">
	<g id="cdpBackground">
		<rect id="outline" fill="none" width="192" height="192"/>
		
			<radialGradient id="inner_1_" cx="18.8418" cy="180.7539" r="132.8942" gradientTransform="matrix(1.0958 0 0 1.0958 -9.2236 -9.5264)" gradientUnits="userSpaceOnUse">
			<stop  offset="0" style="stop-color:#171717"/>
			<stop  offset="0.4171" style="stop-color:#191919"/>
			<stop  offset="0.6397" style="stop-color:#212121"/>
			<stop  offset="0.8162" style="stop-color:#2E2F2F"/>
			<stop  offset="0.9678" style="stop-color:#414242"/>
			<stop  offset="1" style="stop-color:#464747"/>
		</radialGradient>
		<circle id="inner_6_" fill="url(#inner_1_)" cx="96.115" cy="96.954" r="66.297"/>
	</g>
	<g id="cdpMiddle">
		<rect id="outline_2_" fill="none" width="192" height="192"/>
		<circle id="circle_1_" fill="none" stroke="#FFFFFF" stroke-miterlimit="10" cx="96.115" cy="96.677" r="66.563"/>
	</g>
	<rect id="cdpTicksMinorSize" x="302.436" y="6.213" fill="none" width="1" height="0"/>
	<rect id="cdpTicksMajorSize" x="301.436" y="11.213" fill="none" width="3" height="0"/>
	<rect id="cdpTicksOffset" x="300.937" y="-9.22" fill="none" width="3.999" height="32"/>
	<rect id="cdpTicksMajorNo13T" x="300.937" y="3.713" fill="none" width="3.999" height="5.563"/>
	<rect id="cdpTicksMinorNo0T" x="300.937" y="3.713" fill="none" width="3.999" height="5.563"/>
	<rect id="cdpTicksMinorNo0T_1_" x="300.937" y="3.713" fill="none" width="3.999" height="5.563"/>
	<g id="cdpTicksColor" enable-background="new    ">
		
			<text transform="matrix(1 0 0 1 299 33.4063)" fill="#FFFFFF" stroke="#FFFFFF" stroke-miterlimit="10" font-family="'Arial-BoldMT'" font-size="10">1</text>
	</g>
	<g id="cdpTicksNumber" enable-background="new    ">
		
			<text transform="matrix(1 0 0 1 299 33.4063)" fill="#FFFFFF" stroke="#FFFFFF" stroke-miterlimit="10" font-family="'Arial-BoldMT'" font-size="8">1</text>
	</g>
	<g id="Needle1__x28_old_x29_" display="none">
		<linearGradient id="SVGID_2_" gradientUnits="userSpaceOnUse" x1="260.333" y1="46.4941" x2="248.333" y2="46.4941">
			<stop  offset="0" style="stop-color:#FFFFFF"/>
			<stop  offset="0.1414" style="stop-color:#FAFBFB"/>
			<stop  offset="0.3029" style="stop-color:#ECEDEE"/>
			<stop  offset="0.4743" style="stop-color:#D6D8D9"/>
			<stop  offset="0.6526" style="stop-color:#B6B9BC"/>
			<stop  offset="0.8343" style="stop-color:#8D9396"/>
			<stop  offset="1" style="stop-color:#61696E"/>
		</linearGradient>
		<path display="inline" fill="url(#SVGID_2_)" d="M258.967,89.464c0.037,1.101-0.834,2.249-1.934,2.249h-6
			c-1.1,0-1.969-1.148-1.934-2.249l2.867-86.127c0.035-1.101,0.967-2.062,2.066-2.062l0,0c1.1,0,2.029,0.992,2.064,2.093
			L258.967,89.464z"/>
		<g>
			<linearGradient id="SVGID_3_" gradientUnits="userSpaceOnUse" x1="111.8281" y1="76.8228" x2="83.5773" y2="112.3237">
				<stop  offset="0" style="stop-color:#FFFFFF"/>
				<stop  offset="0.1414" style="stop-color:#FAFBFB"/>
				<stop  offset="0.3029" style="stop-color:#ECEDEE"/>
				<stop  offset="0.4743" style="stop-color:#D6D8D9"/>
				<stop  offset="0.6526" style="stop-color:#B6B9BC"/>
				<stop  offset="0.8343" style="stop-color:#8D9396"/>
				<stop  offset="1" style="stop-color:#61696E"/>
			</linearGradient>
			<circle display="inline" fill="url(#SVGID_3_)" cx="96" cy="96.713" r="9"/>
			<linearGradient id="SVGID_4_" gradientUnits="userSpaceOnUse" x1="100.8086" y1="91.3862" x2="89.9754" y2="103.3859">
				<stop  offset="0" style="stop-color:#FFFFFF"/>
				<stop  offset="0.1414" style="stop-color:#FAFBFB"/>
				<stop  offset="0.3029" style="stop-color:#ECEDEE"/>
				<stop  offset="0.4743" style="stop-color:#D6D8D9"/>
				<stop  offset="0.6526" style="stop-color:#B6B9BC"/>
				<stop  offset="0.8343" style="stop-color:#8D9396"/>
				<stop  offset="1" style="stop-color:#61696E"/>
			</linearGradient>
			<circle display="inline" fill="url(#SVGID_4_)" cx="96" cy="96.713" r="7.152"/>
		</g>
		<rect id="cdpRectCenter_1_" x="252.5" y="74.213" display="inline" fill="none" width="3" height="3"/>
		<rect id="cdpRectOutline_1_" x="245" y="1.275" display="inline" fill="none" width="18" height="90.438"/>
	</g>
	<g id="cdpNeedleGraphics">
		<rect id="cdpRectOutline_2_" x="222.346" y="29.425" fill="none" width="6.887" height="65.698"/>
		<rect id="cdpRectCenter_2_" x="224.789" y="90.783" fill="none" width="2" height="2"/>
		<g id="needle_1_">
			<ellipse fill="#FFFFFF" cx="225.789" cy="91.783" rx="3.443" ry="3.34"/>
			<polygon fill="#FFFFFF" points="227.915,29.425 223.663,29.425 222.919,91.783 223.663,91.783 227.915,91.783 228.658,91.783 			
				"/>
		</g>
	</g>
	<rect id="cdpNeedleMax" x="94.115" y="32.426" fill="none" width="4" height="4"/>
	<rect id="cdpNeedleMin" x="94.115" y="32.426" fill="none" width="4" height="4"/>
	<rect id="cdpNeedleCenterCW" x="94.5" y="94.973" fill="none" width="3.231" height="3.331"/>
	<g id="cdpTop">
		<rect id="outline_1_" fill="none" width="192" height="192"/>
		<g>
			<g id="cross">
				<line fill="none" stroke="#FFFFFF" stroke-miterlimit="10" x1="25.114" y1="96.677" x2="167.114" y2="96.677"/>
				<line fill="none" stroke="#FFFFFF" stroke-miterlimit="10" x1="96.115" y1="25.676" x2="96.115" y2="167.676"/>
			</g>
			<circle id="circle" display="none" fill="none" stroke="#FFFFFF" stroke-miterlimit="10" cx="96.115" cy="96.677" r="66.563"/>
			<g id="needle" display="none">
				
					<line display="inline" fill="none" stroke="#FFFFFF" stroke-width="4.252" stroke-miterlimit="10" x1="96.115" y1="96.677" x2="158.473" y2="96.677"/>
				<ellipse display="inline" fill="#FFFFFF" cx="96.115" cy="96.677" rx="3.34" ry="3.443"/>
				<rect x="113.931" y="94.38" display="inline" fill="#FFFFFF" width="31.18" height="4.592"/>
				<rect x="96.115" y="93.807" display="inline" fill="#FFFFFF" width="31.178" height="5.739"/>
			</g>
		</g>
		
			<linearGradient id="glass_2_" gradientUnits="userSpaceOnUse" x1="252.1729" y1="749.5742" x2="252.1729" y2="778.6179" gradientTransform="matrix(2.2068 0 0 2.2068 -460.2559 -1640.6895)">
			<stop  offset="0.4164" style="stop-color:#FFFFFF;stop-opacity:0.95"/>
			<stop  offset="1" style="stop-color:#FFFFFF;stop-opacity:0"/>
		</linearGradient>
		<path id="glass_1_" opacity="0.25" fill="url(#glass_2_)" enable-background="new    " d="M156.665,69.717
			c0,18.235-23.561-7.983-60.343-7.983c-36.78,0-60.51,29.474-60.51,7.983c0-0.752,15.982-39.051,60.36-39.051
			C139.746,30.666,156.665,68.998,156.665,69.717L156.665,69.717z"/>
	</g>
</g>
<g id="Layer2">
	<rect id="cdpTicksOffset_1_" x="300.937" y="4.78" fill="none" width="3.999" height="4"/>
	<g id="Needle1__x28_old_x29__1_">
		<linearGradient id="SVGID_5_" gradientUnits="userSpaceOnUse" x1="260.333" y1="46.4941" x2="248.333" y2="46.4941">
			<stop  offset="0" style="stop-color:#FFFFFF"/>
			<stop  offset="0.1414" style="stop-color:#FAFBFB"/>
			<stop  offset="0.3029" style="stop-color:#ECEDEE"/>
			<stop  offset="0.4743" style="stop-color:#D6D8D9"/>
			<stop  offset="0.6526" style="stop-color:#B6B9BC"/>
			<stop  offset="0.8343" style="stop-color:#8D9396"/>
			<stop  offset="1" style="stop-color:#61696E"/>
		</linearGradient>
		<path fill="url(#SVGID_5_)" d="M258.967,89.464c0.037,1.101-0.834,2.249-1.934,2.249h-6c-1.1,0-1.969-1.148-1.934-2.249
			l2.867-86.127c0.035-1.101,0.967-2.062,2.066-2.062l0,0c1.1,0,2.029,0.992,2.064,2.093L258.967,89.464z"/>
		<g display="none">
			<linearGradient id="SVGID_6_" gradientUnits="userSpaceOnUse" x1="111.8281" y1="76.8228" x2="83.5773" y2="112.3237">
				<stop  offset="0" style="stop-color:#FFFFFF"/>
				<stop  offset="0.1414" style="stop-color:#FAFBFB"/>
				<stop  offset="0.3029" style="stop-color:#ECEDEE"/>
				<stop  offset="0.4743" style="stop-color:#D6D8D9"/>
				<stop  offset="0.6526" style="stop-color:#B6B9BC"/>
				<stop  offset="0.8343" style="stop-color:#8D9396"/>
				<stop  offset="1" style="stop-color:#61696E"/>
			</linearGradient>
			<circle display="inline" fill="url(#SVGID_6_)" cx="96" cy="96.713" r="9"/>
			<linearGradient id="SVGID_7_" gradientUnits="userSpaceOnUse" x1="100.8086" y1="91.3862" x2="89.9754" y2="103.3859">
				<stop  offset="0" style="stop-color:#FFFFFF"/>
				<stop  offset="0.1414" style="stop-color:#FAFBFB"/>
				<stop  offset="0.3029" style="stop-color:#ECEDEE"/>
				<stop  offset="0.4743" style="stop-color:#D6D8D9"/>
				<stop  offset="0.6526" style="stop-color:#B6B9BC"/>
				<stop  offset="0.8343" style="stop-color:#8D9396"/>
				<stop  offset="1" style="stop-color:#61696E"/>
			</linearGradient>
			<circle display="inline" fill="url(#SVGID_7_)" cx="96" cy="96.713" r="7.152"/>
		</g>
		<rect id="cdpRectCenter_4_" x="252.5" y="74.213" fill="none" width="3" height="3"/>
		<rect id="cdpRectOutline_4_" x="245" y="1.275" fill="none" width="18" height="90.438"/>
	</g>
	<g id="cdpNeedleGraphics_1_">
		<rect id="cdpRectOutline_3_" x="235.346" y="29.425" fill="none" width="6.887" height="65.698"/>
		<rect id="cdpRectCenter_3_" x="237.789" y="90.783" fill="none" width="2" height="2"/>
		<g id="needle_3_">
			<polygon opacity="0.5" fill="#CCCCCC" points="240.831,29.425 236.748,29.425 235.919,91.783 241.658,91.783 			"/>
			<ellipse id="circle_2_" fill="#FFFFFF" cx="238.789" cy="91.783" rx="3.443" ry="3.34"/>
		</g>
	</g>
	<rect id="cdpNeedleMax_1_" x="94.115" y="32.426" fill="none" width="4" height="4"/>
	<rect id="cdpNeedleMin_1_" x="94.115" y="32.426" fill="none" width="4" height="4"/>
	<rect id="cdpNeedleCenterCW_1_" x="94.5" y="94.973" fill="none" width="3.231" height="3.331"/>
	<rect id="cdpTicksMinorSize_1_" x="302.343" y="40.699" fill="none" width="0" height="66"/>
</g>
<g id="Helper">
	<g id="needle_2_">
		
			<line fill="none" stroke="#FFFFFF" stroke-width="4.252" stroke-miterlimit="10" x1="96.115" y1="96.677" x2="158.241" y2="96.677"/>
		<circle fill="#FFFFFF" cx="96.115" cy="96.677" r="3.328"/>
		<rect x="113.864" y="94.457" fill="#FFFFFF" width="31.063" height="4.438"/>
		<rect x="96.115" y="93.902" fill="#FFFFFF" width="31.062" height="5.548"/>
	</g>
	<g id="rose">
		<path fill="#EC1C24" d="M128.288,152.403c4.762-2.753,9.25-6.153,13.324-10.229s7.477-8.563,10.229-13.323L96.115,96.677
			L128.288,152.403z"/>
		<path fill="#3EB44A" d="M133.016,149.377c3.016-2.119,5.899-4.506,8.597-7.202c2.697-2.697,5.086-5.58,7.203-8.597L96.115,96.677
			L133.016,149.377z"/>
		<path fill="none" stroke="#FFFFFF" stroke-miterlimit="10" d="M128.288,152.403c4.762-2.753,9.25-6.153,13.324-10.229
			s7.477-8.563,10.229-13.323L96.115,96.677L128.288,152.403z"/>
	</g>
	<g id="numbers">
		<text transform="matrix(0.9702 0 0 1 161.3447 57.626)" fill="#FFFFFF" font-family="'MyriadPro-Regular'" font-size="9.7172">60°</text>
		<text transform="matrix(0.9702 0 0 1 131.4258 26.5352)" fill="#FFFFFF" font-family="'MyriadPro-Regular'" font-size="9.7172">30°</text>
		<text transform="matrix(0.9702 0 0 1 16.189 57.626)" fill="#FFFFFF" font-family="'MyriadPro-Regular'" font-size="9.7172">300°</text>
		<text transform="matrix(0.9702 0 0 1 46.7632 26.5352)" fill="#FFFFFF" font-family="'MyriadPro-Regular'" font-size="9.7172">330°</text>
		<text transform="matrix(0.9702 0 0 1 172.1787 100.1777)" fill="#FFFFFF" font-family="'MyriadPro-Regular'" font-size="9.7172">90°</text>
		<text transform="matrix(0.9702 0 0 1 158.1152 142.3955)" fill="#FFFFFF" font-family="'MyriadPro-Regular'" font-size="9.7172">120°</text>
		<text transform="matrix(0.9702 0 0 1 128.5605 173.2334)" fill="#FFFFFF" font-family="'MyriadPro-Regular'" font-size="9.7172">150°</text>
		<text transform="matrix(0.9702 0 0 1 16.3218 142.3955)" fill="#FFFFFF" font-family="'MyriadPro-Regular'" font-size="9.7172">240°</text>
		<text transform="matrix(0.9702 0 0 1 45.6919 173.2334)" fill="#FFFFFF" font-family="'MyriadPro-Regular'" font-size="9.7172">210°</text>
		<text transform="matrix(0.9702 0 0 1 4.8491 100.1777)" fill="#FFFFFF" font-family="'MyriadPro-Regular'" font-size="9.7172">270°</text>
		<text transform="matrix(0.9702 0 0 1 87.3628 184.8447)" fill="#FFFFFF" font-family="'MyriadPro-Regular'" font-size="9.7172">180°</text>
		<text transform="matrix(0.9702 0 0 1 92.1973 15.4072)" fill="#FFFFFF" font-family="'MyriadPro-Regular'" font-size="9.7172">0°</text>
	</g>
</g>
<g id="Styles" display="none">
	<g id="cdpBackgroundStyle1" display="inline">
		<radialGradient id="outer_1_" cx="363.1748" cy="55.1499" r="156.7254" gradientUnits="userSpaceOnUse">
			<stop  offset="0" style="stop-color:#323B40"/>
			<stop  offset="1" style="stop-color:#212426"/>
		</radialGradient>
		
			<circle id="outer_4_" fill="url(#outer_1_)" stroke="#505152" stroke-width="0.95" stroke-miterlimit="10" cx="300" cy="96" r="95"/>
		<radialGradient id="middle_1_" cx="300" cy="96" r="87.5" gradientUnits="userSpaceOnUse">
			<stop  offset="0" style="stop-color:#DCE0E6"/>
			<stop  offset="1" style="stop-color:#343536"/>
		</radialGradient>
		<circle id="middle_3_" fill="url(#middle_1_)" cx="300" cy="96" r="87.5"/>
		<radialGradient id="inner_3_" cx="189.5" cy="215.5" r="190.003" gradientUnits="userSpaceOnUse">
			<stop  offset="0" style="stop-color:#171717"/>
			<stop  offset="0.4171" style="stop-color:#191919"/>
			<stop  offset="0.6397" style="stop-color:#212121"/>
			<stop  offset="0.8162" style="stop-color:#2E2F2F"/>
			<stop  offset="0.9678" style="stop-color:#414242"/>
			<stop  offset="1" style="stop-color:#464747"/>
		</radialGradient>
		<circle id="inner_9_" fill="url(#inner_3_)" cx="300" cy="96" r="86.5"/>
		<path id="inner_2_" display="none" fill="none" stroke="#FFFFFF" stroke-width="1.5" stroke-miterlimit="10" d="M288.984,17.459
			c3.585-0.492,7.245-0.746,10.966-0.746c44.183,0,79.999,35.816,79.999,80c0,17.298-5.49,33.313-14.822,46.398"/>
		<rect id="rect_2_" x="204" fill="none" width="192" height="192"/>
	</g>
	<g id="cdpTextScaleStyle1" display="inline" enable-background="new    ">
		<text transform="matrix(1 0 0 1 295.9805 46.4063)" fill="#FFFFFF" font-family="'Arial-BoldMT'" font-size="13.9993">1</text>
	</g>
	<g id="cdpTicksNumberStyle1" display="inline" enable-background="new    ">
		<text transform="matrix(1 0 0 1 295.9805 46.4063)" fill="#FFFFFF" font-family="'Arial-BoldMT'" font-size="13.9993">1</text>
	</g>
	<g id="scale" display="inline">
		
			<text transform="matrix(0.8662 0.4996 -0.4996 0.8662 321.6299 51.0977)" fill="#FFFFFF" font-family="'Arial-BoldMT'" font-size="13.9993">2</text>
		<path id="inner_5_" fill="none" stroke="#FF0007" stroke-width="4" stroke-miterlimit="10" d="M375.875,81.094
			c1.033,5.045,1.574,10.27,1.574,15.619c0,16.788-5.338,32.33-14.41,45.02"/>
		<path id="inner_10_" display="none" fill="none" stroke="#FFFFFF" stroke-width="0.9249" stroke-miterlimit="10" d="
			M288.984,17.459c3.585-0.492,7.245-0.746,10.966-0.746c44.183,0,79.999,35.816,79.999,80c0,17.298-5.49,33.313-14.822,46.398"/>
		<line fill="none" stroke="#FFFFFF" stroke-width="4" stroke-miterlimit="10" x1="299.95" y1="31.713" x2="299.95" y2="16.713"/>
		<line fill="none" stroke="#FFFFFF" stroke-width="4" stroke-miterlimit="10" x1="332.427" y1="40.408" x2="339.922" y2="27.415"/>
		<g display="none" enable-background="new    ">
			
				<text transform="matrix(1 0 0 1 295.9805 46.4063)" display="inline" fill="#FFFFFF" font-family="'Arial-BoldMT'" font-size="13.9993">1</text>
		</g>
		<line fill="none" stroke="#FFFFFF" stroke-width="4" stroke-miterlimit="10" x1="356.26" y1="64.245" x2="369.254" y2="56.753"/>
		
			<text transform="matrix(0.4995 0.8663 -0.8663 0.4995 341.5449 68.1426)" fill="#FFFFFF" font-family="'Arial-BoldMT'" font-size="14">3</text>
		<line fill="none" stroke="#FFFFFF" stroke-width="4" stroke-miterlimit="10" x1="364.949" y1="96.77" x2="379.949" y2="96.781"/>
		
			<text transform="matrix(-8.600000e-004 1 -1 -8.600000e-004 350.2676 92.7969)" fill="#FFFFFF" font-family="'Arial-BoldMT'" font-size="14">4</text>
		
			<line fill="none" stroke="#FFFFFF" stroke-width="4" stroke-miterlimit="10" x1="356.256" y1="129.186" x2="369.252" y2="136.679"/>
		
			<text transform="matrix(-0.4996 0.8663 -0.8663 -0.4996 345.5391 118.3945)" fill="#FFFFFF" font-family="'Arial-BoldMT'" font-size="14.0005">5</text>
	</g>
	<g id="cdpTextSuffixStyle1" display="inline">
		<rect x="257" y="156.166" fill="none" width="86" height="17.666"/>
		<text transform="matrix(1 0 0 1 281.6055 166.5342)" fill="#8A8A8A" font-family="'Arial-BoldMT'" font-size="10">pixel / s</text>
	</g>
	<g id="cdpTextPrefixStyle1" display="inline">
		<rect x="257" y="118" fill="none" width="86" height="38"/>
		<text transform="matrix(1 0 0 1 269.9199 148.1475)" fill="#FFFFFF" font-family="'ArialMT'" font-size="13">QUALITY</text>
		<text transform="matrix(1 0 0 1 287.4258 131.3477)" fill="#FFFFFF" font-family="'ArialMT'" font-size="13">GUI</text>
	</g>
	<g id="cdpNeedle1Style1" display="inline">
		<linearGradient id="SVGID_8_" gradientUnits="userSpaceOnUse" x1="306.25" y1="67.4941" x2="294.25" y2="67.4941">
			<stop  offset="0" style="stop-color:#FFFFFF"/>
			<stop  offset="0.1414" style="stop-color:#FAFBFB"/>
			<stop  offset="0.3029" style="stop-color:#ECEDEE"/>
			<stop  offset="0.4743" style="stop-color:#D6D8D9"/>
			<stop  offset="0.6526" style="stop-color:#B6B9BC"/>
			<stop  offset="0.8343" style="stop-color:#8D9396"/>
			<stop  offset="1" style="stop-color:#61696E"/>
		</linearGradient>
		<path fill="url(#SVGID_8_)" d="M304.884,110.464c0.036,1.101-0.834,2.249-1.934,2.249h-6c-1.1,0-1.97-1.148-1.934-2.249
			l2.866-86.127c0.036-1.101,0.968-2.062,2.066-2.062l0,0c1.1,0,2.03,0.992,2.065,2.093L304.884,110.464z"/>
		<g display="none">
			<linearGradient id="SVGID_9_" gradientUnits="userSpaceOnUse" x1="315.8281" y1="76.8223" x2="287.5771" y2="112.3235">
				<stop  offset="0" style="stop-color:#FFFFFF"/>
				<stop  offset="0.1414" style="stop-color:#FAFBFB"/>
				<stop  offset="0.3029" style="stop-color:#ECEDEE"/>
				<stop  offset="0.4743" style="stop-color:#D6D8D9"/>
				<stop  offset="0.6526" style="stop-color:#B6B9BC"/>
				<stop  offset="0.8343" style="stop-color:#8D9396"/>
				<stop  offset="1" style="stop-color:#61696E"/>
			</linearGradient>
			<circle display="inline" fill="url(#SVGID_9_)" cx="300" cy="96.713" r="9"/>
			<linearGradient id="SVGID_10_" gradientUnits="userSpaceOnUse" x1="304.8096" y1="91.3867" x2="293.9762" y2="103.3866">
				<stop  offset="0" style="stop-color:#FFFFFF"/>
				<stop  offset="0.1414" style="stop-color:#FAFBFB"/>
				<stop  offset="0.3029" style="stop-color:#ECEDEE"/>
				<stop  offset="0.4743" style="stop-color:#D6D8D9"/>
				<stop  offset="0.6526" style="stop-color:#B6B9BC"/>
				<stop  offset="0.8343" style="stop-color:#8D9396"/>
				<stop  offset="1" style="stop-color:#61696E"/>
			</linearGradient>
			<circle display="inline" fill="url(#SVGID_10_)" cx="300" cy="96.713" r="7.152"/>
		</g>
		<rect id="cdpRectCenter" x="298.416" y="95.213" fill="none" width="3" height="3"/>
		<rect id="cdpRectOutline" x="290.916" y="22.275" fill="none" width="18" height="90.438"/>
	</g>
	<g id="cdpTopStyle1">
		
			<linearGradient id="glass_4_" gradientUnits="userSpaceOnUse" x1="344.5791" y1="737.6143" x2="344.5791" y2="775.5098" gradientTransform="matrix(2.2068 0 0 2.2068 -460.2559 -1640.6895)">
			<stop  offset="0.4164" style="stop-color:#FFFFFF;stop-opacity:0.95"/>
			<stop  offset="1" style="stop-color:#FFFFFF;stop-opacity:0"/>
		</linearGradient>
		<path id="glass_3_" display="inline" opacity="0.45" fill="url(#glass_4_)" enable-background="new    " d="M379,60.463
			c0,23.792-30.738-10.416-78.729-10.416c-47.987,0-78.951,38.455-78.951,10.416c0-0.98,20.854-50.95,78.755-50.95
			C356.928,9.513,379,59.524,379,60.463L379,60.463z"/>
		<rect id="rect_1_" x="204" display="inline" fill="none" width="192" height="192"/>
		<g display="inline">
			<linearGradient id="SVGID_11_" gradientUnits="userSpaceOnUse" x1="315.8281" y1="76.8223" x2="287.5771" y2="112.3235">
				<stop  offset="0" style="stop-color:#FFFFFF"/>
				<stop  offset="0.1414" style="stop-color:#FAFBFB"/>
				<stop  offset="0.3029" style="stop-color:#ECEDEE"/>
				<stop  offset="0.4743" style="stop-color:#D6D8D9"/>
				<stop  offset="0.6526" style="stop-color:#B6B9BC"/>
				<stop  offset="0.8343" style="stop-color:#8D9396"/>
				<stop  offset="1" style="stop-color:#61696E"/>
			</linearGradient>
			<circle fill="url(#SVGID_11_)" cx="300" cy="96.713" r="9"/>
			<linearGradient id="SVGID_12_" gradientUnits="userSpaceOnUse" x1="304.8096" y1="91.3867" x2="293.9762" y2="103.3866">
				<stop  offset="0" style="stop-color:#FFFFFF"/>
				<stop  offset="0.1414" style="stop-color:#FAFBFB"/>
				<stop  offset="0.3029" style="stop-color:#ECEDEE"/>
				<stop  offset="0.4743" style="stop-color:#D6D8D9"/>
				<stop  offset="0.6526" style="stop-color:#B6B9BC"/>
				<stop  offset="0.8343" style="stop-color:#8D9396"/>
				<stop  offset="1" style="stop-color:#61696E"/>
			</linearGradient>
			<circle fill="url(#SVGID_12_)" cx="300" cy="96.713" r="7.152"/>
		</g>
	</g>
</g>
</svg>
