<?xml version="1.0" encoding="utf-8"?>
<!-- Generator: Adobe Illustrator 21.0.2, SVG Export Plug-In . SVG Version: 6.00 Build 0)  -->
<svg version="1.1"
	 id="svg2" inkscape:version="0.48.0 r9654" sodipodi:docname="gmtMeter.svg" xmlns:cc="http://creativecommons.org/ns#" xmlns:dc="http://purl.org/dc/elements/1.1/" xmlns:inkscape="http://www.inkscape.org/namespaces/inkscape" xmlns:rdf="http://www.w3.org/1999/02/22-rdf-syntax-ns#" xmlns:sodipodi="http://sodipodi.sourceforge.net/DTD/sodipodi-0.dtd" xmlns:svg="http://www.w3.org/2000/svg"
	 xmlns="http://www.w3.org/2000/svg" xmlns:xlink="http://www.w3.org/1999/xlink" x="0px" y="0px" viewBox="0 0 140 42.9"
	 enable-background="new 0 0 140 42.9" xml:space="preserve">
<sodipodi:namedview  bordercolor="#666666" borderopacity="1.0" id="base" inkscape:current-layer="layer1" inkscape:cx="375" inkscape:cy="520" inkscape:document-units="px" inkscape:pageopacity="0.0" inkscape:pageshadow="2" inkscape:window-height="1140" inkscape:window-maximized="1" inkscape:window-width="1600" inkscape:window-x="-4" inkscape:window-y="-4" inkscape:zoom="0.35" pagecolor="#ffffff" showgrid="false">
	</sodipodi:namedview>
<g id="Layer1">
	<rect fill="none" stroke="#00FF00" stroke-width="0.25" stroke-miterlimit="10" width="140" height="42.9"/>
	<g id="cdpTextPrefix">
		<text transform="matrix(1 0 0 1 58.3335 32.1665)" fill="#FFFFFF" font-family="'Arial-BoldMT'" font-size="8">Text</text>
		<rect x="40" y="18.6" fill="none" stroke="#00FF00" stroke-width="0.25" stroke-miterlimit="10" width="60" height="24.4"/>
	</g>
	<g id="cdpTextSuffix">
		<text transform="matrix(1 0 0 1 58.3335 32.1665)" fill="#FFFFFF" font-family="'Arial-BoldMT'" font-size="8">Text</text>
		<rect x="40" y="18.6" fill="none" stroke="#00FF00" stroke-width="0.25" stroke-miterlimit="10" width="60" height="24.4"/>
	</g>
	<g id="cdpTop">
		<rect fill="none" width="140" height="42.9"/>
	</g>
	<g id="cdpBackground">
		<rect fill="none" width="140" height="42.9"/>
	</g>
	<g id="cdpNeedleType1T">
		<g>
			<g>
				<g opacity="0.4">
					<polygon fill="#010202" points="128.6,49.6 67.6,70.4 66.7,71.2 67.6,73.4 					"/>
				</g>
			</g>
			<g>
				<g>
					<polygon fill="#446829" points="68.6,74.3 66.8,72.8 127.8,48.6 					"/>
				</g>
				<g>
					<polygon fill="#71AB27" points="127.8,48.6 66.8,72.8 66.5,70.4 					"/>
				</g>
			</g>
		</g>
		<g>
			
				<linearGradient id="SVGID_1_" gradientUnits="userSpaceOnUse" x1="420.04" y1="-761.6296" x2="420.04" y2="-741.9436" gradientTransform="matrix(1 0 0 -1 -350.04 -680.7656)">
				<stop  offset="0" style="stop-color:#676767"/>
				<stop  offset="1" style="stop-color:#B5B5B5"/>
			</linearGradient>
			<circle fill="url(#SVGID_1_)" cx="70" cy="71" r="9.8"/>
			
				<linearGradient id="SVGID_2_" gradientUnits="userSpaceOnUse" x1="420.04" y1="-759.7656" x2="420.04" y2="-743.8297" gradientTransform="matrix(1 0 0 -1 -350.04 -680.7656)">
				<stop  offset="0" style="stop-color:#B5B5B5"/>
				<stop  offset="1" style="stop-color:#676767"/>
			</linearGradient>
			<circle fill="url(#SVGID_2_)" cx="70" cy="71" r="8"/>
		</g>
	</g>
	<text id="cdpTicksColor" transform="matrix(1 0 0 1 64.8999 25.6406)" fill="#FFFFFF" font-family="'Arial-BoldMT'" font-size="7">16</text>
	<text id="cdpTicksNumber" transform="matrix(1 0 0 1 64.8999 25.6406)" fill="#FFFFFF" font-family="'Arial-BoldMT'" font-size="7">16</text>
	<rect id="cdpNeedleCenterCW" x="68.7" y="69.7" fill="none" width="2.6" height="2.6"/>
	<rect id="cdpNeedleMax" x="118.7" y="28.7" fill="none" width="2.6" height="2.6"/>
	<rect id="cdpNeedleMin" x="18.7" y="28.7" fill="none" width="2.6" height="2.6"/>
</g>
<g id="Diverse">
	<text transform="matrix(1 0 0 1 15.0884 73.7559)" fill="#010202" font-family="'Tahoma'" font-size="8.8245px">0</text>
	<text transform="matrix(1 0 0 1 114.0801 73.7559)" fill="#010202" font-family="'Tahoma'" font-size="8.8245px">32</text>
	<text transform="matrix(1 0 0 1 64.8999 25.6406)" fill="#010202" font-family="'Tahoma'" font-size="8.8245px">16</text>
	<g id="scale">
		<polygon fill="#010202" points="110.1,31.6 109.5,30.9 116.1,24.3 116.7,25 		"/>
		<polygon fill="#010202" points="126.3,71.5 135.6,71.5 135.6,70.6 126.3,70.6 		"/>
		<polygon fill="#010202" points="13.8,71.5 13.8,70.6 4.4,70.6 4.4,71.5 		"/>
		<polygon fill="#010202" points="29.9,31.6 30.6,30.9 23.9,24.3 23.3,25 		"/>
		<polygon fill="#010202" points="70.5,14.8 70.5,5.4 69.5,5.4 69.5,14.8 		"/>
		<polygon fill="#010202" points="10.6,65.6 10.6,65.1 5.9,64.7 5.9,65.2 		"/>
		<polygon fill="#010202" points="11.4,59.8 11.5,59.3 6.9,58.4 6.8,58.9 		"/>
		<polygon fill="#010202" points="12.8,54.1 12.9,53.7 8.4,52.3 8.3,52.8 		"/>
		<polygon fill="#010202" points="14.7,48.5 14.9,48.1 10.5,46.3 10.4,46.8 		"/>
		<polygon fill="#010202" points="17.2,43.2 17.4,42.8 13.3,40.6 13.1,41 		"/>
		<polygon fill="#010202" points="20.2,38.1 20.5,37.7 16.6,35.1 16.3,35.5 		"/>
		<polygon fill="#010202" points="23.6,33.5 23.9,33.1 20.3,30.2 20,30.5 		"/>
		<polygon fill="#010202" points="31.8,25.1 32.2,24.8 29.2,21.2 28.8,21.5 		"/>
		<polygon fill="#010202" points="36.5,21.6 36.9,21.3 34.3,17.5 33.9,17.7 		"/>
		<polygon fill="#010202" points="41.5,18.6 41.9,18.3 39.7,14.2 39.3,14.4 		"/>
		<polygon fill="#010202" points="46.8,16 47.3,15.8 45.5,11.5 45,11.7 		"/>
		<polygon fill="#010202" points="52.4,14 52.8,13.8 51.5,9.4 51,9.5 		"/>
		<polygon fill="#010202" points="58.1,12.5 58.6,12.4 57.6,7.8 57.2,7.9 		"/>
		<polygon fill="#010202" points="63.8,11.6 64.2,11.6 63.8,6.9 63.3,7 		"/>
		<polygon fill="#010202" points="75.5,11.6 76,11.6 76.4,6.9 75.9,6.9 		"/>
		<polygon fill="#010202" points="81.3,12.4 81.7,12.5 82.6,7.9 82.2,7.8 		"/>
		<polygon fill="#010202" points="87,13.8 87.4,13.9 88.7,9.4 88.3,9.3 		"/>
		<polygon fill="#010202" points="92.5,15.7 93,15.9 94.7,11.6 94.3,11.4 		"/>
		<polygon fill="#010202" points="97.9,18.2 98.3,18.4 100.5,14.3 100.1,14.1 		"/>
		<polygon fill="#010202" points="103,21.2 103.3,21.5 105.9,17.6 105.6,17.3 		"/>
		<polygon fill="#010202" points="107.6,24.6 108,24.9 110.9,21.3 110.6,21 		"/>
		<polygon fill="#010202" points="115.9,32.8 116.2,33.2 119.8,30.2 119.5,29.9 		"/>
		<polygon fill="#010202" points="119.4,37.5 119.7,37.9 123.6,35.3 123.3,34.9 		"/>
		<polygon fill="#010202" points="122.5,42.5 122.7,42.9 126.8,40.7 126.6,40.3 		"/>
		<polygon fill="#010202" points="125,47.9 125.2,48.3 129.5,46.5 129.4,46 		"/>
		<polygon fill="#010202" points="127.1,53.4 127.2,53.8 131.7,52.5 131.5,52 		"/>
		<polygon fill="#010202" points="128.5,59.1 128.6,59.6 133.2,58.6 133.1,58.2 		"/>
		<polygon fill="#010202" points="129.4,64.8 129.4,65.3 134.1,64.8 134.1,64.3 		"/>
	</g>
</g>
<g id="Styles">
	<g id="cdpNeedle1Style2" display="none">
		<g display="inline">
			<g opacity="0.4">
				<polygon fill="#010202" points="157.7,1.5 154.7,66 155.2,67.1 157.5,67.1 				"/>
			</g>
		</g>
		<g display="inline">
			<g>
				<polygon fill="#446829" points="158.7,66.5 156.7,67.6 156.5,2 				"/>
			</g>
			<g>
				<polygon fill="#71AB27" points="156.5,2 156.7,67.6 154.3,67.1 				"/>
			</g>
		</g>
		<rect id="cdpRectCenter" x="155.8" y="63.1" display="inline" fill="none" width="1.9" height="1.7"/>
		<rect id="cdpRectOutline" x="154.3" y="1.5" display="inline" fill="none" width="4.4" height="66"/>
	</g>
	<g id="cdpNeedle1Style1">
		<g display="none">
			<g display="inline" opacity="0.4">
				<polygon fill="#010202" points="157.7,1.5 154.7,66 155.2,67.1 157.5,67.1 				"/>
			</g>
		</g>
		<g display="none">
			<g display="inline">
				<polygon fill="#446829" points="158.7,66.5 156.7,67.6 156.5,2 				"/>
			</g>
			<g display="inline">
				<polygon fill="#71AB27" points="156.5,2 156.7,67.6 154.3,67.1 				"/>
			</g>
		</g>
		<rect id="cdpRectCenter_1_" x="155.8" y="63.1" fill="none" width="1.9" height="1.7"/>
		<rect id="cdpRectOutline_1_" x="154.3" y="1.5" fill="none" width="4.4" height="66"/>
		<g id="needle">
			<path fill="#AA1700" d="M156.5,67.5c-0.4,0-0.8-0.2-1.2-0.5c-0.5-0.5-0.8-1.4-0.8-2.3l0.9-54c0-1.7,0.6-2.9,1.1-2.9
				s1.1,1.2,1.1,2.9l0.9,54c0,0.9-0.3,1.8-0.8,2.3C157.4,67.3,157,67.5,156.5,67.5z"/>
			<path d="M156.5,7.8c0.4,0,1,1.1,1,2.8l0.9,54c0,0.9-0.3,1.7-0.8,2.2c-0.3,0.3-0.7,0.5-1.1,0.5c-0.4,0-0.8-0.2-1.1-0.5
				c-0.5-0.5-0.8-1.4-0.8-2.2l0.9-54C155.6,8.9,156.1,7.8,156.5,7.8 M156.5,7.6c-0.7,0-1.2,1.3-1.2,3l-0.9,54c0,1.6,0.9,3,2.1,3
				c1.2,0,2.2-1.3,2.1-3l-0.9-54C157.7,8.9,157.2,7.6,156.5,7.6L156.5,7.6z"/>
		</g>
	</g>
</g>
<text transform="matrix(1 0 0 1 64.3335 -55)" font-family="'ArialMT'" font-size="19">Lorem ipsum</text>
</svg>
